0
SECTION
2
HEADER
9
$INSUNITS
70
4
9
$ACADVER
1
AC1014
9
$HANDSEED
5
FFFF
0
ENDSEC
0
SECTION
2
TABLES
0
TABLE
2
VPORT
5
8
100
AcDbSymbolTable
0
ENDTAB
0
TABLE
2
LTYPE
5
5
100
AcDbSymbolTable
0
LTYPE
5
14
100
AcDbSymbolTableRecord
100
AcDbLinetypeTableRecord
2
BYBLOCK
70
0
0
LTYPE
5
15
100
AcDbSymbolTableRecord
100
AcDbLinetypeTableRecord
2
BYLAYER
70
0
0
ENDTAB
0
TABLE
2
LAYER
5
2
100
AcDbSymbolTable
70
2
0
LAYER
5
50
100
AcDbSymbolTableRecord
100
AcDbLayerTableRecord
2
0
70
0
6
CONTINUOUS
0
ENDTAB
0
TABLE
2
STYLE
5
3
100
AcDbSymbolTable
70
1
0
STYLE
5
11
100
AcDbSymbolTableRecord
100
AcDbTextStyleTableRecord
2
STANDARD
70
0
0
ENDTAB
0
TABLE
2
VIEW
5
6
100
AcDbSymbolTable
70
0
0
ENDTAB
0
TABLE
2
UCS
5
7
100
AcDbSymbolTable
70
0
0
ENDTAB
0
TABLE
2
APPID
5
9
100
AcDbSymbolTable
70
2
0
APPID
5
12
100
AcDbSymbolTableRecord
100
AcDbRegAppTableRecord
2
ACAD
70
0
0
ENDTAB
0
TABLE
2
DIMSTYLE
5
A
100
AcDbSymbolTable
70
1
0
ENDTAB
0
TABLE
2
BLOCK_RECORD
5
1
100
AcDbSymbolTable
70
1
0
BLOCK_RECORD
5
1F
100
AcDbSymbolTableRecord
100
AcDbBlockTableRecord
2
*MODEL_SPACE
0
BLOCK_RECORD
5
1B
100
AcDbSymbolTableRecord
100
AcDbBlockTableRecord
2
*PAPER_SPACE
0
ENDTAB
0
ENDSEC
0
SECTION
2
BLOCKS
0
BLOCK
5
20
100
AcDbEntity
100
AcDbBlockBegin
2
*MODEL_SPACE
0
ENDBLK
5
21
100
AcDbEntity
100
AcDbBlockEnd
0
BLOCK
5
1C
100
AcDbEntity
100
AcDbBlockBegin
2
*PAPER_SPACE
0
ENDBLK
5
1D
100
AcDbEntity
100
AcDbBlockEnd
0
ENDSEC
0
SECTION
2
ENTITIES
0
LWPOLYLINE
5
100
100
AcDbEntity
8
0
100
AcDbPolyline
90
8
70
1
43
0.0
10
52.837261870276812
20
101.01203403834219
42
-0.41421356237309503
10
53.337261870276805
20
100.51203403834221
10
53.337261870276819
20
87.512034038342222
42
-0.41421356237309503
10
52.837261870276812
20
87.012034038342208
10
39.837261870276805
20
87.012034038342208
42
-0.41421356237309503
10
39.337261870276805
20
87.512034038342222
10
39.337261870276798
20
100.51203403834221
42
-0.41421356237309503
10
39.837261870276805
20
101.01203403834221
0
LWPOLYLINE
5
101
100
AcDbEntity
8
0
100
AcDbPolyline
90
8
70
1
43
0.0
10
109.98726187027682
20
87.012034038342208
10
96.987261870276811
20
87.012034038342208
42
-0.41421356237309503
10
96.487261870276797
20
87.512034038342222
10
96.487261870276825
20
100.51203403834221
42
-0.41421356237309503
10
96.987261870276825
20
101.01203403834221
10
109.98726187027682
20
101.01203403834221
42
-0.41421356237309503
10
110.48726187027682
20
100.51203403834221
10
110.48726187027682
20
87.512034038342222
42
-0.41421356237309503
0
LWPOLYLINE
5
102
100
AcDbEntity
8
0
100
AcDbPolyline
90
8
70
1
43
0.0
10
20.287261870276808
20
87.512034038342222
10
20.287261870276797
20
100.51203403834221
42
-0.41421356237309503
10
20.787261870276804
20
101.01203403834221
10
33.787261870276808
20
101.01203403834219
42
-0.41421356237309503
10
34.287261870276808
20
100.51203403834221
10
34.287261870276815
20
87.512034038342222
42
-0.41421356237309503
10
33.787261870276808
20
87.012034038342208
10
20.787261870276804
20
87.012034038342208
42
-0.41421356237309503
0
LWPOLYLINE
5
103
100
AcDbEntity
8
0
100
AcDbPolyline
90
8
70
1
43
0.0
10
72.387261870276816
20
87.512034038342222
42
-0.41421356237309503
10
71.887261870276802
20
87.012034038342208
10
58.887261870276802
20
87.012034038342208
42
-0.41421356237309503
10
58.387261870276809
20
87.512034038342222
10
58.387261870276802
20
100.51203403834221
42
-0.41421356237309503
10
58.887261870276802
20
101.01203403834221
10
71.887261870276802
20
101.01203403834219
42
-0.41421356237309503
10
72.387261870276802
20
100.51203403834221
0
LWPOLYLINE
5
104
100
AcDbEntity
8
0
100
AcDbPolyline
90
8
70
1
43
0.0
10
77.937261870276799
20
101.01203403834221
10
90.937261870276814
20
101.01203403834221
42
-0.41421356237309503
10
91.437261870276814
20
100.51203403834221
10
91.437261870276814
20
87.512034038342222
42
-0.41421356237309503
10
90.937261870276814
20
87.012034038342208
10
77.937261870276799
20
87.012034038342208
42
-0.41421356237309503
10
77.437261870276799
20
87.512034038342222
10
77.437261870276785
20
100.51203403834221
42
-0.41421356237309503
0
LWPOLYLINE
5
105
100
AcDbEntity
8
0
100
AcDbPolyline
90
8
70
1
43
0.0
10
129.53726187027681
20
87.512034038342222
42
-0.41421356237309503
10
129.03726187027678
20
87.012034038342208
10
116.03726187027682
20
87.012034038342208
42
-0.41421356237309503
10
115.53726187027681
20
87.512034038342222
10
115.53726187027681
20
100.51203403834221
42
-0.41421356237309503
10
116.03726187027682
20
101.01203403834221
10
129.03726187027678
20
101.01203403834221
42
-0.41421356237309503
10
129.53726187027681
20
100.51203403834221
0
LWPOLYLINE
5
106
100
AcDbEntity
8
0
100
AcDbPolyline
90
8
70
1
43
0.0
10
1.737261870276805
20
101.01203403834221
10
14.737261870276805
20
101.01203403834221
42
-0.41421356237309503
10
15.237261870276805
20
100.51203403834221
10
15.237261870276813
20
87.512034038342222
42
-0.41421356237309503
10
14.737261870276805
20
87.012034038342208
10
1.737261870276805
20
87.012034038342208
42
-0.41421356237309503
10
1.237261870276805
20
87.512034038342222
10
1.2372618702767979
20
100.51203403834221
42
-0.41421356237309503
0
LWPOLYLINE
5
107
100
AcDbEntity
8
0
100
AcDbPolyline
90
8
70
1
43
0.0
10
224.78726187027684
20
100.51203403834221
10
224.78726187027684
20
87.512034038342222
42
-0.41421356237309503
10
224.28726187027681
20
87.012034038342208
10
211.28726187027681
20
87.012034038342208
42
-0.41421356237309503
10
210.78726187027681
20
87.512034038342222
10
210.78726187027681
20
100.51203403834221
42
-0.41421356237309503
10
211.28726187027681
20
101.01203403834221
10
224.28726187027681
20
101.01203403834221
42
-0.41421356237309503
0
LWPOLYLINE
5
108
100
AcDbEntity
8
0
100
AcDbPolyline
90
8
70
1
43
0.0
10
243.83726187027685
20
87.512034038342222
42
-0.41421356237309503
10
243.33726187027682
20
87.012034038342208
10
230.33726187027682
20
87.012034038342208
42
-0.41421356237309503
10
229.83726187027682
20
87.512034038342222
10
229.83726187027682
20
100.51203403834221
42
-0.41421356237309503
10
230.33726187027682
20
101.01203403834221
10
243.33726187027682
20
101.01203403834221
42
-0.41421356237309503
10
243.83726187027685
20
100.51203403834221
0
LWPOLYLINE
5
109
100
AcDbEntity
8
0
100
AcDbPolyline
90
8
70
1
43
0.0
10
167.63726187027683
20
87.512034038342222
42
-0.41421356237309503
10
167.1372618702768
20
87.012034038342208
10
154.13726187027683
20
87.012034038342208
42
-0.41421356237309503
10
153.63726187027683
20
87.512034038342222
10
153.63726187027683
20
100.51203403834221
42
-0.41421356237309503
10
154.13726187027683
20
101.01203403834221
10
167.1372618702768
20
101.01203403834221
42
-0.41421356237309503
10
167.63726187027683
20
100.51203403834221
0
LWPOLYLINE
5
110
100
AcDbEntity
8
0
100
AcDbPolyline
90
8
70
1
43
0.0
10
173.18726187027681
20
87.012034038342208
42
-0.41421356237309503
10
172.68726187027681
20
87.512034038342222
10
172.68726187027681
20
100.51203403834221
42
-0.41421356237309503
10
173.18726187027681
20
101.01203403834221
10
186.18726187027679
20
101.01203403834221
42
-0.41421356237309503
10
186.68726187027681
20
100.51203403834221
10
186.68726187027681
20
87.512034038342222
42
-0.41421356237309503
10
186.18726187027679
20
87.012034038342208
0
LWPOLYLINE
5
111
100
AcDbEntity
8
0
100
AcDbPolyline
90
8
70
1
43
0.0
10
205.23726187027682
20
87.012034038342208
10
192.23726187027682
20
87.012034038342208
42
-0.41421356237309503
10
191.73726187027682
20
87.512034038342222
10
191.73726187027682
20
100.51203403834221
42
-0.41421356237309503
10
192.23726187027682
20
101.01203403834221
10
205.23726187027682
20
101.01203403834218
42
-0.41421356237309503
10
205.73726187027682
20
100.51203403834221
10
205.73726187027685
20
87.512034038342222
42
-0.41421356237309503
0
LWPOLYLINE
5
112
100
AcDbEntity
8
0
100
AcDbPolyline
90
8
70
1
43
0.0
10
148.58726187027682
20
87.512034038342222
42
-0.41421356237309503
10
148.08726187027679
20
87.012034038342208
10
135.08726187027682
20
87.012034038342208
42
-0.41421356237309503
10
134.58726187027682
20
87.512034038342222
10
134.58726187027682
20
100.51203403834221
42
-0.41421356237309503
10
135.08726187027682
20
101.01203403834221
10
148.08726187027679
20
101.01203403834221
42
-0.41421356237309503
10
148.58726187027682
20
100.51203403834221
0
LWPOLYLINE
5
113
100
AcDbEntity
8
0
100
AcDbPolyline
90
8
70
1
43
0.0
10
249.38726187027683
20
87.012034038342208
42
-0.41421356237309503
10
248.88726187027683
20
87.512034038342222
10
248.88726187027683
20
100.51203403834221
42
-0.41421356237309503
10
249.38726187027683
20
101.01203403834221
10
262.38726187027686
20
101.01203403834221
42
-0.41421356237309503
10
262.88726187027686
20
100.51203403834221
10
262.88726187027686
20
87.512034038342222
42
-0.41421356237309503
10
262.38726187027686
20
87.012034038342208
0
LWPOLYLINE
5
114
100
AcDbEntity
8
0
100
AcDbPolyline
90
8
70
1
43
0.0
10
268.43726187027687
20
87.012034038342208
42
-0.41421356237309503
10
267.93726187027681
20
87.512034038342222
10
267.93726187027681
20
100.51203403834221
42
-0.41421356237309503
10
268.43726187027687
20
101.01203403834221
10
281.43726187027687
20
101.01203403834221
42
-0.41421356237309503
10
281.93726187027687
20
100.51203403834221
10
281.93726187027687
20
87.512034038342222
42
-0.41421356237309503
10
281.43726187027687
20
87.012034038342208
0
LWPOLYLINE
5
115
100
AcDbEntity
8
0
100
AcDbPolyline
90
8
70
1
43
0.0
10
52.837261870276812
20
67.962034038342196
10
39.837261870276805
20
67.96203403834221
42
-0.41421356237309503
10
39.337261870276805
20
68.46203403834221
10
39.337261870276812
20
81.46203403834221
42
-0.41421356237309503
10
39.837261870276805
20
81.962034038342196
10
52.837261870276812
20
81.96203403834221
42
-0.41421356237309503
10
53.337261870276805
20
81.46203403834221
10
53.337261870276819
20
68.46203403834221
42
-0.41421356237309503
0
LWPOLYLINE
5
116
100
AcDbEntity
8
0
100
AcDbPolyline
90
8
70
1
43
0.0
10
14.737261870276805
20
67.962034038342196
10
1.737261870276805
20
67.96203403834221
42
-0.41421356237309503
10
1.237261870276805
20
68.46203403834221
10
1.2372618702768157
20
81.46203403834221
42
-0.41421356237309503
10
1.737261870276805
20
81.962034038342196
10
14.737261870276805
20
81.96203403834221
42
-0.41421356237309503
10
15.237261870276805
20
81.46203403834221
10
15.237261870276813
20
68.46203403834221
42
-0.41421356237309503
0
LWPOLYLINE
5
117
100
AcDbEntity
8
0
100
AcDbPolyline
90
8
70
1
43
0.0
10
72.387261870276802
20
68.46203403834221
42
-0.41421356237309503
10
71.887261870276802
20
67.96203403834221
10
58.887261870276802
20
67.96203403834221
42
-0.41421356237309503
10
58.387261870276809
20
68.46203403834221
10
58.387261870276816
20
81.46203403834221
42
-0.41421356237309503
10
58.887261870276802
20
81.962034038342196
10
71.887261870276802
20
81.96203403834221
42
-0.41421356237309503
10
72.387261870276802
20
81.46203403834221
0
LWPOLYLINE
5
118
100
AcDbEntity
8
0
100
AcDbPolyline
90
8
70
1
43
0.0
10
77.937261870276799
20
67.96203403834221
42
-0.41421356237309503
10
77.437261870276799
20
68.46203403834221
10
77.437261870276814
20
81.46203403834221
42
-0.41421356237309503
10
77.937261870276799
20
81.962034038342196
10
90.937261870276814
20
81.96203403834221
42
-0.41421356237309503
10
91.437261870276814
20
81.46203403834221
10
91.437261870276814
20
68.46203403834221
42
-0.41421356237309503
10
90.937261870276814
20
67.96203403834221
0
LWPOLYLINE
5
119
100
AcDbEntity
8
0
100
AcDbPolyline
90
8
70
1
43
0.0
10
287.48726187027677
20
101.01203403834221
10
300.48726187027677
20
101.01203403834221
42
-0.41421356237309503
10
300.98726187027682
20
100.51203403834221
10
300.98726187027682
20
87.512034038342222
42
-0.41421356237309503
10
300.48726187027677
20
87.012034038342208
10
287.48726187027677
20
87.01203403834225
42
-0.41421356237309503
10
286.98726187027682
20
87.512034038342222
10
286.98726187027677
20
100.51203403834221
42
-0.41421356237309503
0
LWPOLYLINE
5
120
100
AcDbEntity
8
0
100
AcDbPolyline
90
8
70
1
43
0.0
10
96.987261870276811
20
67.962034038342196
42
-0.41421356237309503
10
96.487261870276797
20
68.46203403834221
10
96.487261870276825
20
81.46203403834221
42
-0.41421356237309503
10
96.987261870276811
20
81.962034038342196
10
109.98726187027682
20
81.96203403834221
42
-0.41421356237309503
10
110.48726187027682
20
81.46203403834221
10
110.48726187027682
20
68.46203403834221
42
-0.41421356237309503
10
109.98726187027682
20
67.96203403834221
0
LWPOLYLINE
5
121
100
AcDbEntity
8
0
100
AcDbPolyline
90
8
70
1
43
0.0
10
20.287261870276815
20
81.46203403834221
42
-0.41421356237309503
10
20.787261870276804
20
81.962034038342196
10
33.787261870276808
20
81.96203403834221
42
-0.41421356237309503
10
34.287261870276808
20
81.46203403834221
10
34.287261870276815
20
68.46203403834221
42
-0.41421356237309503
10
33.787261870276808
20
67.962034038342196
10
20.787261870276804
20
67.96203403834221
42
-0.41421356237309503
10
20.287261870276808
20
68.46203403834221
0
LWPOLYLINE
5
122
100
AcDbEntity
8
0
100
AcDbPolyline
90
8
70
1
43
0.0
10
116.03726187027682
20
67.962034038342196
42
-0.41421356237309503
10
115.53726187027681
20
68.46203403834221
10
115.53726187027684
20
81.46203403834221
42
-0.41421356237309503
10
116.03726187027682
20
81.962034038342196
10
129.03726187027678
20
81.96203403834221
42
-0.41421356237309503
10
129.53726187027681
20
81.46203403834221
10
129.53726187027681
20
68.46203403834221
42
-0.41421356237309503
10
129.03726187027678
20
67.96203403834221
0
LWPOLYLINE
5
123
100
AcDbEntity
8
0
100
AcDbPolyline
90
8
70
1
43
0.0
10
229.83726187027685
20
81.46203403834221
42
-0.41421356237309503
10
230.33726187027682
20
81.962034038342196
10
243.33726187027682
20
81.96203403834221
42
-0.41421356237309503
10
243.83726187027685
20
81.46203403834221
10
243.83726187027685
20
68.46203403834221
42
-0.41421356237309503
10
243.33726187027682
20
67.962034038342196
10
230.33726187027682
20
67.962034038342196
42
-0.41421356237309503
10
229.83726187027682
20
68.46203403834221
0
LWPOLYLINE
5
124
100
AcDbEntity
8
0
100
AcDbPolyline
90
8
70
1
43
0.0
10
134.58726187027682
20
81.46203403834221
42
-0.41421356237309503
10
135.08726187027682
20
81.962034038342196
10
148.08726187027679
20
81.96203403834221
42
-0.41421356237309503
10
148.58726187027682
20
81.46203403834221
10
148.58726187027682
20
68.46203403834221
42
-0.41421356237309503
10
148.08726187027679
20
67.96203403834221
10
135.08726187027682
20
67.962034038342196
42
-0.41421356237309503
10
134.58726187027682
20
68.46203403834221
0
LWPOLYLINE
5
125
100
AcDbEntity
8
0
100
AcDbPolyline
90
8
70
1
43
0.0
10
167.1372618702768
20
67.962034038342196
10
154.13726187027683
20
67.962034038342196
42
-0.41421356237309503
10
153.63726187027683
20
68.46203403834221
10
153.63726187027683
20
81.46203403834221
42
-0.41421356237309503
10
154.13726187027683
20
81.962034038342196
10
167.1372618702768
20
81.96203403834221
42
-0.41421356237309503
10
167.63726187027683
20
81.46203403834221
10
167.63726187027683
20
68.46203403834221
42
-0.41421356237309503
0
LWPOLYLINE
5
126
100
AcDbEntity
8
0
100
AcDbPolyline
90
8
70
1
43
0.0
10
210.78726187027681
20
68.46203403834221
10
210.78726187027684
20
81.46203403834221
42
-0.41421356237309503
10
211.28726187027681
20
81.962034038342196
10
224.28726187027681
20
81.96203403834221
42
-0.41421356237309503
10
224.78726187027684
20
81.46203403834221
10
224.78726187027684
20
68.46203403834221
42
-0.41421356237309503
10
224.28726187027681
20
67.962034038342196
10
211.28726187027681
20
67.962034038342196
42
-0.41421356237309503
0
LWPOLYLINE
5
127
100
AcDbEntity
8
0
100
AcDbPolyline
90
8
70
1
43
0.0
10
262.88726187027686
20
68.46203403834221
42
-0.41421356237309503
10
262.38726187027686
20
67.96203403834221
10
249.38726187027683
20
67.962034038342196
42
-0.41421356237309503
10
248.88726187027683
20
68.46203403834221
10
248.88726187027686
20
81.46203403834221
42
-0.41421356237309503
10
249.38726187027683
20
81.962034038342196
10
262.38726187027686
20
81.96203403834221
42
-0.41421356237309503
10
262.88726187027686
20
81.46203403834221
0
LWPOLYLINE
5
128
100
AcDbEntity
8
0
100
AcDbPolyline
90
8
70
1
43
0.0
10
268.43726187027687
20
67.962034038342196
42
-0.41421356237309503
10
267.93726187027681
20
68.46203403834221
10
267.93726187027687
20
81.46203403834221
42
-0.41421356237309503
10
268.43726187027687
20
81.962034038342196
10
281.43726187027687
20
81.96203403834221
42
-0.41421356237309503
10
281.93726187027687
20
81.46203403834221
10
281.93726187027687
20
68.46203403834221
42
-0.41421356237309503
10
281.43726187027687
20
67.96203403834221
0
LWPOLYLINE
5
129
100
AcDbEntity
8
0
100
AcDbPolyline
90
8
70
1
43
0.0
10
186.18726187027679
20
81.96203403834221
42
-0.41421356237309503
10
186.68726187027681
20
81.46203403834221
10
186.68726187027681
20
68.46203403834221
42
-0.41421356237309503
10
186.18726187027679
20
67.96203403834221
10
173.18726187027681
20
67.962034038342196
42
-0.41421356237309503
10
172.68726187027681
20
68.46203403834221
10
172.68726187027681
20
81.46203403834221
42
-0.41421356237309503
10
173.18726187027681
20
81.962034038342196
0
LWPOLYLINE
5
130
100
AcDbEntity
8
0
100
AcDbPolyline
90
8
70
1
43
0.0
10
191.73726187027682
20
81.46203403834221
42
-0.41421356237309503
10
192.23726187027682
20
81.962034038342196
10
205.23726187027682
20
81.96203403834221
42
-0.41421356237309503
10
205.73726187027685
20
81.46203403834221
10
205.73726187027685
20
68.46203403834221
42
-0.41421356237309503
10
205.23726187027682
20
67.962034038342196
10
192.23726187027682
20
67.962034038342196
42
-0.41421356237309503
10
191.73726187027682
20
68.46203403834221
0
LWPOLYLINE
5
131
100
AcDbEntity
8
0
100
AcDbPolyline
90
8
70
1
43
0.0
10
52.837261870276812
20
62.912034038342206
42
-0.41421356237309503
10
53.337261870276805
20
62.412034038342206
10
53.337261870276805
20
49.412034038342199
42
-0.41421356237309503
10
52.837261870276812
20
48.912034038342199
10
39.837261870276805
20
48.912034038342199
42
-0.41421356237309503
10
39.337261870276805
20
49.412034038342199
10
39.337261870276805
20
62.412034038342206
42
-0.41421356237309503
10
39.837261870276805
20
62.912034038342206
0
LWPOLYLINE
5
132
100
AcDbEntity
8
0
100
AcDbPolyline
90
8
70
1
43
0.0
10
96.487261870276825
20
49.412034038342199
10
96.487261870276797
20
62.412034038342206
42
-0.41421356237309503
10
96.987261870276811
20
62.912034038342206
10
109.98726187027682
20
62.912034038342213
42
-0.41421356237309503
10
110.48726187027682
20
62.412034038342206
10
110.48726187027682
20
49.412034038342199
42
-0.41421356237309503
10
109.98726187027682
20
48.912034038342199
10
96.987261870276811
20
48.912034038342213
42
-0.41421356237309503
0
LWPOLYLINE
5
133
100
AcDbEntity
8
0
100
AcDbPolyline
90
8
70
1
43
0.0
10
20.287261870276808
20
49.412034038342199
10
20.287261870276808
20
62.412034038342206
42
-0.41421356237309503
10
20.787261870276804
20
62.912034038342206
10
33.787261870276808
20
62.912034038342206
42
-0.41421356237309503
10
34.287261870276808
20
62.412034038342206
10
34.287261870276808
20
49.412034038342199
42
-0.41421356237309503
10
33.787261870276808
20
48.912034038342199
10
20.787261870276804
20
48.912034038342199
42
-0.41421356237309503
0
LWPOLYLINE
5
134
100
AcDbEntity
8
0
100
AcDbPolyline
90
8
70
1
43
0.0
10
129.53726187027681
20
49.412034038342199
42
-0.41421356237309503
10
129.03726187027678
20
48.912034038342199
10
116.03726187027682
20
48.912034038342192
42
-0.41421356237309503
10
115.53726187027681
20
49.412034038342199
10
115.53726187027681
20
62.412034038342206
42
-0.41421356237309503
10
116.03726187027682
20
62.912034038342206
10
129.03726187027678
20
62.912034038342213
42
-0.41421356237309503
10
129.53726187027681
20
62.412034038342206
0
LWPOLYLINE
5
135
100
AcDbEntity
8
0
100
AcDbPolyline
90
8
70
1
43
0.0
10
72.387261870276802
20
49.412034038342199
42
-0.41421356237309503
10
71.887261870276802
20
48.912034038342199
10
58.887261870276802
20
48.912034038342199
42
-0.41421356237309503
10
58.387261870276809
20
49.412034038342199
10
58.387261870276809
20
62.412034038342206
42
-0.41421356237309503
10
58.887261870276802
20
62.912034038342206
10
71.887261870276802
20
62.912034038342206
42
-0.41421356237309503
10
72.387261870276802
20
62.412034038342206
0
LWPOLYLINE
5
136
100
AcDbEntity
8
0
100
AcDbPolyline
90
8
70
1
43
0.0
10
77.937261870276799
20
62.912034038342206
10
90.937261870276814
20
62.912034038342213
42
-0.41421356237309503
10
91.437261870276814
20
62.412034038342206
10
91.437261870276814
20
49.412034038342199
42
-0.41421356237309503
10
90.937261870276814
20
48.912034038342199
10
77.937261870276799
20
48.912034038342199
42
-0.41421356237309503
10
77.437261870276799
20
49.412034038342199
10
77.437261870276799
20
62.412034038342206
42
-0.41421356237309503
0
LWPOLYLINE
5
137
100
AcDbEntity
8
0
100
AcDbPolyline
90
8
70
1
43
0.0
10
287.48726187027677
20
67.962034038342196
42
-0.41421356237309503
10
286.98726187027677
20
68.46203403834221
10
286.98726187027682
20
81.46203403834221
42
-0.41421356237309503
10
287.48726187027677
20
81.962034038342196
10
300.48726187027677
20
81.96203403834221
42
-0.41421356237309503
10
300.98726187027682
20
81.46203403834221
10
300.98726187027682
20
68.46203403834221
42
-0.41421356237309503
10
300.48726187027677
20
67.962034038342196
0
LWPOLYLINE
5
138
100
AcDbEntity
8
0
100
AcDbPolyline
90
8
70
1
43
0.0
10
1.737261870276805
20
62.912034038342206
10
14.737261870276805
20
62.912034038342206
42
-0.41421356237309503
10
15.237261870276805
20
62.412034038342206
10
15.237261870276804
20
49.412034038342199
42
-0.41421356237309503
10
14.737261870276805
20
48.912034038342199
10
1.737261870276805
20
48.912034038342199
42
-0.41421356237309503
10
1.237261870276805
20
49.412034038342199
10
1.2372618702768068
20
62.412034038342206
42
-0.41421356237309503
0
LWPOLYLINE
5
139
100
AcDbEntity
8
0
100
AcDbPolyline
90
8
70
1
43
0.0
10
224.78726187027684
20
62.412034038342206
10
224.78726187027684
20
49.412034038342199
42
-0.41421356237309503
10
224.28726187027681
20
48.912034038342199
10
211.28726187027681
20
48.912034038342192
42
-0.41421356237309503
10
210.78726187027681
20
49.412034038342199
10
210.78726187027681
20
62.412034038342206
42
-0.41421356237309503
10
211.28726187027681
20
62.912034038342206
10
224.28726187027681
20
62.912034038342213
42
-0.41421356237309503
0
LWPOLYLINE
5
140
100
AcDbEntity
8
0
100
AcDbPolyline
90
8
70
1
43
0.0
10
243.83726187027685
20
49.412034038342199
42
-0.41421356237309503
10
243.33726187027682
20
48.912034038342199
10
230.33726187027682
20
48.912034038342192
42
-0.41421356237309503
10
229.83726187027682
20
49.412034038342199
10
229.83726187027682
20
62.412034038342206
42
-0.41421356237309503
10
230.33726187027682
20
62.912034038342206
10
243.33726187027682
20
62.912034038342213
42
-0.41421356237309503
10
243.83726187027685
20
62.412034038342206
0
LWPOLYLINE
5
141
100
AcDbEntity
8
0
100
AcDbPolyline
90
8
70
1
43
0.0
10
167.63726187027683
20
49.412034038342199
42
-0.41421356237309503
10
167.1372618702768
20
48.912034038342199
10
154.13726187027683
20
48.912034038342192
42
-0.41421356237309503
10
153.63726187027683
20
49.412034038342199
10
153.63726187027683
20
62.412034038342206
42
-0.41421356237309503
10
154.13726187027683
20
62.912034038342206
10
167.1372618702768
20
62.912034038342213
42
-0.41421356237309503
10
167.63726187027683
20
62.412034038342206
0
LWPOLYLINE
5
142
100
AcDbEntity
8
0
100
AcDbPolyline
90
8
70
1
43
0.0
10
173.18726187027681
20
48.912034038342192
42
-0.41421356237309503
10
172.68726187027681
20
49.412034038342199
10
172.68726187027681
20
62.412034038342206
42
-0.41421356237309503
10
173.18726187027681
20
62.912034038342206
10
186.18726187027679
20
62.912034038342213
42
-0.41421356237309503
10
186.68726187027681
20
62.412034038342206
10
186.68726187027681
20
49.412034038342199
42
-0.41421356237309503
10
186.18726187027679
20
48.912034038342199
0
LWPOLYLINE
5
143
100
AcDbEntity
8
0
100
AcDbPolyline
90
8
70
1
43
0.0
10
205.23726187027682
20
48.912034038342199
10
192.23726187027682
20
48.912034038342192
42
-0.41421356237309503
10
191.73726187027682
20
49.412034038342199
10
191.73726187027682
20
62.412034038342206
42
-0.41421356237309503
10
192.23726187027682
20
62.912034038342206
10
205.23726187027682
20
62.912034038342178
42
-0.41421356237309503
10
205.73726187027682
20
62.412034038342206
10
205.73726187027685
20
49.412034038342199
42
-0.41421356237309503
0
LWPOLYLINE
5
144
100
AcDbEntity
8
0
100
AcDbPolyline
90
8
70
1
43
0.0
10
148.58726187027682
20
49.412034038342199
42
-0.41421356237309503
10
148.08726187027679
20
48.912034038342199
10
135.08726187027682
20
48.912034038342192
42
-0.41421356237309503
10
134.58726187027682
20
49.412034038342199
10
134.58726187027682
20
62.412034038342206
42
-0.41421356237309503
10
135.08726187027682
20
62.912034038342206
10
148.08726187027679
20
62.912034038342213
42
-0.41421356237309503
10
148.58726187027682
20
62.412034038342206
0
LWPOLYLINE
5
145
100
AcDbEntity
8
0
100
AcDbPolyline
90
8
70
1
43
0.0
10
249.38726187027683
20
48.912034038342192
42
-0.41421356237309503
10
248.88726187027683
20
49.412034038342199
10
248.88726187027683
20
62.412034038342206
42
-0.41421356237309503
10
249.38726187027683
20
62.912034038342206
10
262.38726187027686
20
62.912034038342213
42
-0.41421356237309503
10
262.88726187027686
20
62.412034038342206
10
262.88726187027686
20
49.412034038342199
42
-0.41421356237309503
10
262.38726187027686
20
48.912034038342199
0
LWPOLYLINE
5
146
100
AcDbEntity
8
0
100
AcDbPolyline
90
8
70
1
43
0.0
10
268.43726187027687
20
48.912034038342192
42
-0.41421356237309503
10
267.93726187027681
20
49.412034038342199
10
267.93726187027681
20
62.412034038342206
42
-0.41421356237309503
10
268.43726187027687
20
62.912034038342206
10
281.43726187027687
20
62.912034038342213
42
-0.41421356237309503
10
281.93726187027687
20
62.412034038342206
10
281.93726187027687
20
49.412034038342199
42
-0.41421356237309503
10
281.43726187027687
20
48.912034038342199
0
LWPOLYLINE
5
147
100
AcDbEntity
8
0
100
AcDbPolyline
90
8
70
1
43
0.0
10
52.837261870276812
20
29.862034038342209
10
39.837261870276805
20
29.862034038342209
42
-0.41421356237309503
10
39.337261870276805
20
30.362034038342209
10
39.337261870276805
20
43.362034038342202
42
-0.41421356237309503
10
39.837261870276805
20
43.862034038342202
10
52.837261870276812
20
43.862034038342202
42
-0.41421356237309503
10
53.337261870276805
20
43.362034038342202
10
53.337261870276805
20
30.362034038342209
42
-0.41421356237309503
0
LWPOLYLINE
5
148
100
AcDbEntity
8
0
100
AcDbPolyline
90
8
70
1
43
0.0
10
14.737261870276805
20
29.862034038342209
10
1.737261870276805
20
29.862034038342209
42
-0.41421356237309503
10
1.237261870276805
20
30.362034038342209
10
1.2372618702768068
20
43.362034038342202
42
-0.41421356237309503
10
1.737261870276805
20
43.862034038342202
10
14.737261870276805
20
43.862034038342202
42
-0.41421356237309503
10
15.237261870276805
20
43.362034038342202
10
15.237261870276804
20
30.362034038342209
42
-0.41421356237309503
0
LWPOLYLINE
5
149
100
AcDbEntity
8
0
100
AcDbPolyline
90
8
70
1
43
0.0
10
72.387261870276802
20
30.362034038342209
42
-0.41421356237309503
10
71.887261870276802
20
29.862034038342209
10
58.887261870276802
20
29.862034038342209
42
-0.41421356237309503
10
58.387261870276809
20
30.362034038342209
10
58.387261870276809
20
43.362034038342202
42
-0.41421356237309503
10
58.887261870276802
20
43.862034038342202
10
71.887261870276802
20
43.862034038342202
42
-0.41421356237309503
10
72.387261870276802
20
43.362034038342202
0
LWPOLYLINE
5
150
100
AcDbEntity
8
0
100
AcDbPolyline
90
8
70
1
43
0.0
10
77.937261870276799
20
29.862034038342209
42
-0.41421356237309503
10
77.437261870276799
20
30.362034038342209
10
77.437261870276799
20
43.362034038342202
42
-0.41421356237309503
10
77.937261870276799
20
43.862034038342202
10
90.937261870276814
20
43.862034038342216
42
-0.41421356237309503
10
91.437261870276814
20
43.362034038342202
10
91.437261870276814
20
30.362034038342209
42
-0.41421356237309503
10
90.937261870276814
20
29.862034038342209
0
LWPOLYLINE
5
151
100
AcDbEntity
8
0
100
AcDbPolyline
90
8
70
1
43
0.0
10
287.48726187027677
20
62.912034038342206
10
300.48726187027677
20
62.912034038342213
42
-0.41421356237309503
10
300.98726187027682
20
62.412034038342206
10
300.98726187027682
20
49.412034038342199
42
-0.41421356237309503
10
300.48726187027677
20
48.912034038342199
10
287.48726187027677
20
48.912034038342227
42
-0.41421356237309503
10
286.98726187027682
20
49.412034038342199
10
286.98726187027677
20
62.412034038342206
42
-0.41421356237309503
0
LWPOLYLINE
5
152
100
AcDbEntity
8
0
100
AcDbPolyline
90
8
70
1
43
0.0
10
96.987261870276811
20
29.862034038342202
42
-0.41421356237309503
10
96.487261870276797
20
30.362034038342209
10
96.487261870276797
20
43.362034038342202
42
-0.41421356237309503
10
96.987261870276811
20
43.862034038342202
10
109.98726187027682
20
43.862034038342216
42
-0.41421356237309503
10
110.48726187027682
20
43.362034038342202
10
110.48726187027682
20
30.362034038342209
42
-0.41421356237309503
10
109.98726187027682
20
29.862034038342209
0
LWPOLYLINE
5
153
100
AcDbEntity
8
0
100
AcDbPolyline
90
8
70
1
43
0.0
10
20.287261870276808
20
43.362034038342202
42
-0.41421356237309503
10
20.787261870276804
20
43.862034038342202
10
33.787261870276808
20
43.862034038342202
42
-0.41421356237309503
10
34.287261870276808
20
43.362034038342202
10
34.287261870276808
20
30.362034038342209
42
-0.41421356237309503
10
33.787261870276808
20
29.862034038342209
10
20.787261870276804
20
29.862034038342209
42
-0.41421356237309503
10
20.287261870276808
20
30.362034038342209
0
LWPOLYLINE
5
154
100
AcDbEntity
8
0
100
AcDbPolyline
90
8
70
1
43
0.0
10
116.03726187027682
20
29.862034038342202
42
-0.41421356237309503
10
115.53726187027681
20
30.362034038342209
10
115.53726187027681
20
43.362034038342202
42
-0.41421356237309503
10
116.03726187027682
20
43.862034038342202
10
129.03726187027678
20
43.862034038342216
42
-0.41421356237309503
10
129.53726187027681
20
43.362034038342202
10
129.53726187027681
20
30.362034038342209
42
-0.41421356237309503
10
129.03726187027678
20
29.862034038342209
0
LWPOLYLINE
5
155
100
AcDbEntity
8
0
100
AcDbPolyline
90
8
70
1
43
0.0
10
229.83726187027682
20
43.362034038342202
42
-0.41421356237309503
10
230.33726187027682
20
43.862034038342202
10
243.33726187027682
20
43.862034038342216
42
-0.41421356237309503
10
243.83726187027685
20
43.362034038342202
10
243.83726187027685
20
30.362034038342209
42
-0.41421356237309503
10
243.33726187027682
20
29.862034038342209
10
230.33726187027682
20
29.862034038342202
42
-0.41421356237309503
10
229.83726187027682
20
30.362034038342209
0
LWPOLYLINE
5
156
100
AcDbEntity
8
0
100
AcDbPolyline
90
8
70
1
43
0.0
10
134.58726187027682
20
43.362034038342202
42
-0.41421356237309503
10
135.08726187027682
20
43.862034038342202
10
148.08726187027679
20
43.862034038342216
42
-0.41421356237309503
10
148.58726187027682
20
43.362034038342202
10
148.58726187027682
20
30.362034038342209
42
-0.41421356237309503
10
148.08726187027679
20
29.862034038342209
10
135.08726187027682
20
29.862034038342202
42
-0.41421356237309503
10
134.58726187027682
20
30.362034038342209
0
LWPOLYLINE
5
157
100
AcDbEntity
8
0
100
AcDbPolyline
90
8
70
1
43
0.0
10
167.1372618702768
20
29.862034038342209
10
154.13726187027683
20
29.862034038342202
42
-0.41421356237309503
10
153.63726187027683
20
30.362034038342209
10
153.63726187027683
20
43.362034038342202
42
-0.41421356237309503
10
154.13726187027683
20
43.862034038342202
10
167.1372618702768
20
43.862034038342216
42
-0.41421356237309503
10
167.63726187027683
20
43.362034038342202
10
167.63726187027683
20
30.362034038342209
42
-0.41421356237309503
0
LWPOLYLINE
5
158
100
AcDbEntity
8
0
100
AcDbPolyline
90
8
70
1
43
0.0
10
210.78726187027681
20
30.362034038342209
10
210.78726187027681
20
43.362034038342202
42
-0.41421356237309503
10
211.28726187027681
20
43.862034038342202
10
224.28726187027681
20
43.862034038342216
42
-0.41421356237309503
10
224.78726187027684
20
43.362034038342202
10
224.78726187027684
20
30.362034038342209
42
-0.41421356237309503
10
224.28726187027681
20
29.862034038342209
10
211.28726187027681
20
29.862034038342202
42
-0.41421356237309503
0
LWPOLYLINE
5
159
100
AcDbEntity
8
0
100
AcDbPolyline
90
8
70
1
43
0.0
10
262.88726187027686
20
30.362034038342209
42
-0.41421356237309503
10
262.38726187027686
20
29.862034038342209
10
249.38726187027683
20
29.862034038342202
42
-0.41421356237309503
10
248.88726187027683
20
30.362034038342209
10
248.88726187027683
20
43.362034038342202
42
-0.41421356237309503
10
249.38726187027683
20
43.862034038342202
10
262.38726187027686
20
43.862034038342216
42
-0.41421356237309503
10
262.88726187027686
20
43.362034038342202
0
LWPOLYLINE
5
160
100
AcDbEntity
8
0
100
AcDbPolyline
90
8
70
1
43
0.0
10
268.43726187027687
20
29.862034038342202
42
-0.41421356237309503
10
267.93726187027681
20
30.362034038342209
10
267.93726187027681
20
43.362034038342202
42
-0.41421356237309503
10
268.43726187027687
20
43.862034038342202
10
281.43726187027687
20
43.862034038342216
42
-0.41421356237309503
10
281.93726187027687
20
43.362034038342202
10
281.93726187027687
20
30.362034038342209
42
-0.41421356237309503
10
281.43726187027687
20
29.862034038342209
0
LWPOLYLINE
5
161
100
AcDbEntity
8
0
100
AcDbPolyline
90
8
70
1
43
0.0
10
186.18726187027679
20
43.862034038342216
42
-0.41421356237309503
10
186.68726187027681
20
43.362034038342202
10
186.68726187027681
20
30.362034038342209
42
-0.41421356237309503
10
186.18726187027679
20
29.862034038342209
10
173.18726187027681
20
29.862034038342202
42
-0.41421356237309503
10
172.68726187027681
20
30.362034038342209
10
172.68726187027681
20
43.362034038342202
42
-0.41421356237309503
10
173.18726187027681
20
43.862034038342202
0
LWPOLYLINE
5
162
100
AcDbEntity
8
0
100
AcDbPolyline
90
8
70
1
43
0.0
10
191.73726187027682
20
43.362034038342202
42
-0.41421356237309503
10
192.23726187027682
20
43.862034038342202
10
205.23726187027682
20
43.862034038342216
42
-0.41421356237309503
10
205.73726187027685
20
43.362034038342202
10
205.73726187027685
20
30.362034038342209
42
-0.41421356237309503
10
205.23726187027682
20
29.862034038342209
10
192.23726187027682
20
29.862034038342202
42
-0.41421356237309503
10
191.73726187027682
20
30.362034038342209
0
LWPOLYLINE
5
163
100
AcDbEntity
8
0
100
AcDbPolyline
90
8
70
1
43
0.0
10
67.124761870276799
20
24.812034038342212
42
-0.41421356237309503
10
67.624761870276799
20
24.312034038342212
10
67.624761870276814
20
11.312034038342205
42
-0.41421356237309503
10
67.124761870276799
20
10.812034038342198
10
54.124761870276814
20
10.812034038342206
42
-0.41421356237309503
10
53.624761870276814
20
11.312034038342205
10
53.624761870276814
20
24.312034038342212
42
-0.41421356237309503
10
54.124761870276814
20
24.812034038342212
0
LWPOLYLINE
5
164
100
AcDbEntity
8
0
100
AcDbPolyline
90
8
70
1
43
0.0
10
87.937261870276799
20
25.312034038342208
10
87.937261870276814
20
11.312034038342205
42
-0.41421356237309503
10
87.437261870276814
20
10.812034038342198
10
81.437261870276799
20
10.812034038342198
42
-0.41421356237309503
10
80.937261870276785
20
11.312034038342205
10
80.937261870276814
20
25.312034038342208
42
-0.41421356237309503
10
81.437261870276799
20
25.812034038342205
10
87.437261870276814
20
25.812034038342198
42
-0.41421356237309503
0
LWPOLYLINE
5
165
100
AcDbEntity
8
0
100
AcDbPolyline
90
8
70
1
43
0.0
10
29.812261870276807
20
11.312034038342205
10
29.812261870276807
20
24.312034038342212
42
-0.41421356237309503
10
30.312261870276807
20
24.812034038342212
10
43.312261870276807
20
24.812034038342212
42
-0.41421356237309503
10
43.812261870276799
20
24.312034038342212
10
43.812261870276792
20
11.312034038342205
42
-0.41421356237309503
10
43.312261870276807
20
10.812034038342215
10
30.312261870276807
20
10.812034038342206
42
-0.41421356237309503
0
LWPOLYLINE
5
166
100
AcDbEntity
8
0
100
AcDbPolyline
90
8
70
1
43
0.0
10
110.48726187027682
20
11.312034038342205
42
-0.41421356237309503
10
109.98726187027682
20
10.812034038342198
10
96.987261870276811
20
10.812034038342198
42
-0.41421356237309503
10
96.487261870276797
20
11.312034038342205
10
96.487261870276797
20
24.312034038342212
42
-0.41421356237309503
10
96.987261870276811
20
24.812034038342212
10
109.98726187027682
20
24.812034038342219
42
-0.41421356237309503
10
110.48726187027682
20
24.312034038342212
0
LWPOLYLINE
5
167
100
AcDbEntity
8
0
100
AcDbPolyline
90
8
70
1
43
0.0
10
148.58726187027682
20
11.312034038342205
42
-0.41421356237309503
10
148.08726187027679
20
10.812034038342198
10
135.08726187027682
20
10.812034038342198
42
-0.41421356237309503
10
134.58726187027682
20
11.312034038342205
10
134.58726187027682
20
24.312034038342212
42
-0.41421356237309503
10
135.08726187027682
20
24.812034038342212
10
148.08726187027679
20
24.812034038342219
42
-0.41421356237309503
10
148.58726187027682
20
24.312034038342212
0
LWPOLYLINE
5
168
100
AcDbEntity
8
0
100
AcDbPolyline
90
8
70
1
43
0.0
10
201.73726187027682
20
10.812034038342215
10
195.73726187027682
20
10.812034038342198
42
-0.41421356237309503
10
195.2372618702768
20
11.312034038342205
10
195.2372618702768
20
25.312034038342208
42
-0.41421356237309503
10
195.73726187027682
20
25.812034038342205
10
201.73726187027682
20
25.812034038342215
42
-0.41421356237309503
10
202.23726187027682
20
25.312034038342208
10
202.2372618702768
20
11.312034038342205
42
-0.41421356237309503
0
LWPOLYLINE
5
169
100
AcDbEntity
8
0
100
AcDbPolyline
90
8
70
1
43
0.0
10
287.48726187027677
20
29.862034038342202
42
-0.41421356237309503
10
286.98726187027677
20
30.362034038342209
10
286.98726187027677
20
43.362034038342202
42
-0.41421356237309503
10
287.48726187027677
20
43.862034038342202
10
300.48726187027677
20
43.862034038342216
42
-0.41421356237309503
10
300.98726187027682
20
43.362034038342202
10
300.98726187027682
20
30.362034038342209
42
-0.41421356237309503
10
300.48726187027677
20
29.862034038342209
0
LWPOLYLINE
5
170
100
AcDbEntity
8
0
100
AcDbPolyline
90
8
70
1
43
0.0
10
6.4997618702768056
20
24.812034038342212
10
19.499761870276807
20
24.812034038342212
42
-0.41421356237309503
10
19.999761870276807
20
24.312034038342212
10
19.999761870276814
20
11.312034038342205
42
-0.41421356237309503
10
19.499761870276807
20
10.812034038342198
10
6.4997618702768056
20
10.812034038342205
42
-0.41421356237309503
10
5.9997618702768047
20
11.312034038342205
10
5.9997618702768074
20
24.312034038342212
42
-0.41421356237309503
0
LINE
5
171
100
AcDbEntity
8
0
100
AcDbLine
10
195.23726187027682
20
25.312034038342208
30
0
11
195.2372618702768
21
11.312034038342205
31
0
0
LWPOLYLINE
5
172
100
AcDbEntity
8
0
100
AcDbPolyline
90
8
70
1
43
0.0
10
157.1372618702768
20
25.312034038342208
42
-0.41421356237309503
10
157.63726187027683
20
25.812034038342205
10
163.63726187027683
20
25.81203403834218
42
-0.41421356237309503
10
164.1372618702768
20
25.312034038342208
10
164.13726187027686
20
11.312034038342205
42
-0.41421356237309503
10
163.63726187027683
20
10.812034038342198
10
157.63726187027683
20
10.812034038342198
42
-0.41421356237309503
10
157.1372618702768
20
11.312034038342205
0
ARC
5
173
100
AcDbEntity
8
0
100
AcDbCircle
10
81.437261870276799
20
25.312034038342208
30
0
40
0.49999999999999822
210
0
220
-0
230
1
100
AcDbArc
50
90
51
180
0
ARC
5
174
100
AcDbEntity
8
0
100
AcDbCircle
10
135.08726187027682
20
11.312034038342205
30
0
40
0.50000000000000711
210
0
220
0
230
1
100
AcDbArc
50
180
51
270
0
LWPOLYLINE
5
175
100
AcDbEntity
8
0
100
AcDbPolyline
90
8
70
1
43
0.0
10
186.18726187027679
20
10.812034038342215
10
173.18726187027681
20
10.812034038342198
42
-0.41421356237309503
10
172.68726187027681
20
11.312034038342205
10
172.68726187027681
20
24.312034038342212
42
-0.41421356237309503
10
173.18726187027681
20
24.812034038342212
10
186.18726187027679
20
24.812034038342219
42
-0.41421356237309503
10
186.68726187027681
20
24.312034038342212
10
186.68726187027681
20
11.312034038342205
42
-0.41421356237309503
0
LWPOLYLINE
5
176
100
AcDbEntity
8
0
100
AcDbPolyline
90
8
70
1
43
0.0
10
119.03726187027684
20
25.312034038342208
42
-0.41421356237309503
10
119.53726187027682
20
25.812034038342205
10
125.53726187027681
20
25.812034038342215
42
-0.41421356237309503
10
126.03726187027682
20
25.312034038342208
10
126.03726187027682
20
11.312034038342205
42
-0.41421356237309503
10
125.53726187027681
20
10.812034038342198
10
119.53726187027682
20
10.812034038342198
42
-0.41421356237309503
10
119.03726187027681
20
11.312034038342205
0
LINE
5
177
100
AcDbEntity
8
0
100
AcDbLine
10
87.437261870276814
20
25.812034038342205
30
0
11
81.437261870276799
21
25.812034038342205
31
0
0
ARC
5
178
100
AcDbEntity
8
0
100
AcDbCircle
10
81.437261870276799
20
11.312034038342205
30
0
40
0.50000000000000711
210
0
220
0
230
1
100
AcDbArc
50
180
51
270
0
LINE
5
179
100
AcDbEntity
8
0
100
AcDbLine
10
202.23726187027682
20
11.312034038342205
30
0
11
202.23726187027682
21
25.312034038342208
31
0
0
ARC
5
180
100
AcDbEntity
8
0
100
AcDbCircle
10
195.73726187027682
20
25.312034038342208
30
0
40
0.49999999999999822
210
0
220
-0
230
1
100
AcDbArc
50
90
51
180
0
LINE
5
181
100
AcDbEntity
8
0
100
AcDbLine
10
81.437261870276799
20
10.812034038342198
30
0
11
87.437261870276814
21
10.812034038342198
31
0
0
ARC
5
182
100
AcDbEntity
8
0
100
AcDbCircle
10
148.08726187027679
20
24.312034038342212
30
0
40
0.50000000000000711
210
0
220
0
230
1
100
AcDbArc
50
0
51
90
0
ARC
5
183
100
AcDbEntity
8
0
100
AcDbCircle
10
148.08726187027679
20
11.312034038342205
30
0
40
0.50000000000000711
210
0
220
0
230
1
100
AcDbArc
50
-90
51
0
0
ARC
5
184
100
AcDbEntity
8
0
100
AcDbCircle
10
135.08726187027682
20
24.312034038342212
30
0
40
0.49999999999999822
210
0
220
-0
230
1
100
AcDbArc
50
90
51
180
0
ARC
5
185
100
AcDbEntity
8
0
100
AcDbCircle
10
201.73726187027682
20
25.312034038342208
30
0
40
0.50000000000000711
210
0
220
0
230
1
100
AcDbArc
50
0
51
90
0
ARC
5
186
100
AcDbEntity
8
0
100
AcDbCircle
10
195.73726187027682
20
11.312034038342205
30
0
40
0.50000000000000711
210
0
220
0
230
1
100
AcDbArc
50
180
51
270
0
LINE
5
187
100
AcDbEntity
8
0
100
AcDbLine
10
195.73726187027682
20
10.812034038342215
30
0
11
201.73726187027682
21
10.812034038342215
31
0
0
LWPOLYLINE
5
188
100
AcDbEntity
8
0
100
AcDbPolyline
90
8
70
1
43
0.0
10
216.04976187027682
20
10.812034038342198
42
-0.41421356237309503
10
215.5497618702768
20
11.312034038342205
10
215.5497618702768
20
24.312034038342212
42
-0.41421356237309503
10
216.04976187027682
20
24.812034038342212
10
229.04976187027682
20
24.812034038342219
42
-0.41421356237309503
10
229.54976187027682
20
24.312034038342212
10
229.54976187027682
20
11.312034038342205
42
-0.41421356237309503
10
229.04976187027682
20
10.812034038342215
0
LINE
5
189
100
AcDbEntity
8
0
100
AcDbLine
10
134.58726187027682
20
24.312034038342212
30
0
11
134.58726187027682
21
11.312034038342205
31
0
0
LWPOLYLINE
5
190
100
AcDbEntity
8
0
100
AcDbPolyline
90
8
70
1
43
0.0
10
249.38726187027683
20
10.812034038342198
42
-0.41421356237309503
10
248.88726187027683
20
11.312034038342205
10
248.88726187027683
20
24.312034038342212
42
-0.41421356237309503
10
249.38726187027683
20
24.812034038342212
10
262.38726187027686
20
24.812034038342219
42
-0.41421356237309503
10
262.88726187027686
20
24.312034038342212
10
262.88726187027686
20
11.312034038342205
42
-0.41421356237309503
10
262.38726187027686
20
10.812034038342198
0
ARC
5
191
100
AcDbEntity
8
0
100
AcDbCircle
10
87.437261870276814
20
11.312034038342205
30
0
40
0.50000000000000711
210
0
220
0
230
1
100
AcDbArc
50
-90
51
0
0
LINE
5
192
100
AcDbEntity
8
0
100
AcDbLine
10
87.937261870276799
20
11.312034038342205
30
0
11
87.937261870276799
21
25.312034038342208
31
0
0
LINE
5
193
100
AcDbEntity
8
0
100
AcDbLine
10
148.08726187027679
20
24.812034038342212
30
0
11
135.08726187027682
21
24.812034038342212
31
0
0
LINE
5
194
100
AcDbEntity
8
0
100
AcDbLine
10
135.08726187027682
20
10.812034038342198
30
0
11
148.08726187027679
21
10.812034038342198
31
0
0
LINE
5
195
100
AcDbEntity
8
0
100
AcDbLine
10
201.73726187027682
20
25.812034038342205
30
0
11
195.73726187027682
21
25.812034038342205
31
0
0
ARC
5
196
100
AcDbEntity
8
0
100
AcDbCircle
10
87.437261870276814
20
25.312034038342208
30
0
40
0.49999999999998934
210
0
220
0
230
1
100
AcDbArc
50
0
51
90
0
LINE
5
197
100
AcDbEntity
8
0
100
AcDbLine
10
148.58726187027682
20
11.312034038342205
30
0
11
148.58726187027682
21
24.312034038342212
31
0
0
LINE
5
198
100
AcDbEntity
8
0
100
AcDbLine
10
80.937261870276785
20
25.312034038342208
30
0
11
80.937261870276785
21
11.312034038342205
31
0
0
ARC
5
199
100
AcDbEntity
8
0
100
AcDbCircle
10
201.73726187027682
20
11.312034038342205
30
0
40
0.49999999999998934
210
0
220
0
230
1
100
AcDbArc
50
-90
51
0
0
LWPOLYLINE
5
200
100
AcDbEntity
8
0
100
AcDbPolyline
90
8
70
1
43
0.0
10
300.48726187027677
20
10.812034038342215
10
287.48726187027677
20
10.812034038342198
42
-0.41421356237309503
10
286.98726187027677
20
11.312034038342205
10
286.98726187027677
20
24.312034038342212
42
-0.41421356237309503
10
287.48726187027677
20
24.812034038342212
10
300.48726187027677
20
24.812034038342219
42
-0.41421356237309503
10
300.98726187027682
20
24.312034038342212
10
300.98726187027682
20
11.312034038342205
42
-0.41421356237309503
0
LWPOLYLINE
5
201
100
AcDbEntity
8
0
100
AcDbPolyline
90
8
70
1
43
0.0
10
268.43726187027687
20
24.812034038342212
10
281.43726187027687
20
24.812034038342219
42
-0.41421356237309503
10
281.93726187027687
20
24.312034038342212
10
281.93726187027687
20
11.312034038342205
42
-0.41421356237309503
10
281.43726187027687
20
10.812034038342198
10
268.43726187027687
20
10.812034038342198
42
-0.41421356237309503
10
267.93726187027681
20
11.312034038342205
10
267.93726187027681
20
24.312034038342212
42
-0.41421356237309503
0
LWPOLYLINE
5
202
100
AcDbEntity
8
0
100
AcDbPolyline
90
44
70
1
43
0.0
10
254.91226187027701
20
103.53703403834217
42
-0.41421356237309503
10
255.41226187027695
20
103.0370340383422
10
255.41226187027695
20
102.78703403834221
42
0.41421356237309503
10
255.91226187027695
20
102.28703403834224
10
257.91226187027695
20
102.2870340383422
42
0.41421356237309503
10
258.41226187027695
20
102.78703403834221
42
-0.41421356237309503
10
258.91226187027701
20
103.28703403834223
10
271.91226187027695
20
103.28703403834218
42
-0.41421356237309503
10
272.41226187027689
20
102.78703403834221
42
0.41421356237309503
10
272.91226187027695
20
102.28703403834224
10
274.91226187027701
20
102.2870340383422
42
0.41421356237309503
10
275.41226187027701
20
102.78703403834221
10
275.41226187027695
20
103.0370340383422
42
-0.41421356237309503
10
275.91226187027695
20
103.5370340383422
10
301.2622618702768
20
103.5370340383422
42
-0.41421356237309503
10
303.51226187027686
20
101.2870340383422
10
303.51226187027686
20
10.537034038342199
42
-0.41421356237309503
10
301.2622618702768
20
8.2870340383421848
10
248.61226187027682
20
8.2870340383421848
42
-0.41421356237309503
10
246.36226187027682
20
10.537034038342199
10
246.36226187027682
20
26.087034038342232
42
0.41421356237309503
10
245.11226187027682
20
27.337034038342232
10
238.08726187027696
20
27.337034038342232
42
0.41421356237309503
10
236.83726187027696
20
26.087034038342232
10
236.83726187027702
20
10.537034038342199
42
-0.41421356237309503
10
234.58726187027702
20
8.2870340383421848
10
0.96226187027681942
20
8.2870340383421848
42
-0.41421356237309503
10
-1.2877381297231949
20
10.537034038342199
10
-1.2877381297231949
20
101.2870340383422
42
-0.41421356237309509
10
0.96226187027681931
20
103.5370340383422
10
26.312261870276821
20
103.5370340383422
42
-0.41421356237309503
10
26.812261870276828
20
103.0370340383422
10
26.812261870276792
20
102.78703403834221
42
0.41421356237309503
10
27.312261870276799
20
102.2870340383422
10
29.312261870276828
20
102.2870340383422
42
0.41421356237309503
10
29.812261870276799
20
102.78703403834221
42
-0.41421356237309503
10
30.312261870276807
20
103.28703403834223
10
43.312261870276814
20
103.28703403834223
42
-0.41421356237309503
10
43.812261870276821
20
102.78703403834221
42
0.41421356237309503
10
44.312261870276828
20
102.2870340383422
10
46.312261870276821
20
102.2870340383422
42
0.41421356237309503
10
46.812261870276828
20
102.78703403834221
10
46.812261870276792
20
103.0370340383422
42
-0.41421356237309503
10
47.312261870276799
20
103.5370340383422
0
ENDSEC
0
SECTION
2
OBJECTS
0
DICTIONARY
5
C
100
AcDbDictionary
3
ACAD_GROUP
350
D
3
ACAD_MLINESTYLE
350
17
0
DICTIONARY
5
D
100
AcDbDictionary
0
DICTIONARY
5
1A
330
C
100
AcDbDictionary
0
DICTIONARY
5
17
100
AcDbDictionary
0
ENDSEC
0
EOF
