0
SECTION
2
HEADER
9
$INSUNITS
70
4
9
$ACADVER
1
AC1014
9
$HANDSEED
5
FFFF
0
ENDSEC
0
SECTION
2
TABLES
0
TABLE
2
VPORT
5
8
100
AcDbSymbolTable
0
ENDTAB
0
TABLE
2
LTYPE
5
5
100
AcDbSymbolTable
0
LTYPE
5
14
100
AcDbSymbolTableRecord
100
AcDbLinetypeTableRecord
2
BYBLOCK
70
0
0
LTYPE
5
15
100
AcDbSymbolTableRecord
100
AcDbLinetypeTableRecord
2
BYLAYER
70
0
0
ENDTAB
0
TABLE
2
LAYER
5
2
100
AcDbSymbolTable
70
2
0
LAYER
5
50
100
AcDbSymbolTableRecord
100
AcDbLayerTableRecord
2
0
70
0
6
CONTINUOUS
0
ENDTAB
0
TABLE
2
STYLE
5
3
100
AcDbSymbolTable
70
1
0
STYLE
5
11
100
AcDbSymbolTableRecord
100
AcDbTextStyleTableRecord
2
STANDARD
70
0
0
ENDTAB
0
TABLE
2
VIEW
5
6
100
AcDbSymbolTable
70
0
0
ENDTAB
0
TABLE
2
UCS
5
7
100
AcDbSymbolTable
70
0
0
ENDTAB
0
TABLE
2
APPID
5
9
100
AcDbSymbolTable
70
2
0
APPID
5
12
100
AcDbSymbolTableRecord
100
AcDbRegAppTableRecord
2
ACAD
70
0
0
ENDTAB
0
TABLE
2
DIMSTYLE
5
A
100
AcDbSymbolTable
70
1
0
ENDTAB
0
TABLE
2
BLOCK_RECORD
5
1
100
AcDbSymbolTable
70
1
0
BLOCK_RECORD
5
1F
100
AcDbSymbolTableRecord
100
AcDbBlockTableRecord
2
*MODEL_SPACE
0
BLOCK_RECORD
5
1B
100
AcDbSymbolTableRecord
100
AcDbBlockTableRecord
2
*PAPER_SPACE
0
ENDTAB
0
ENDSEC
0
SECTION
2
BLOCKS
0
BLOCK
5
20
100
AcDbEntity
100
AcDbBlockBegin
2
*MODEL_SPACE
0
ENDBLK
5
21
100
AcDbEntity
100
AcDbBlockEnd
0
BLOCK
5
1C
100
AcDbEntity
100
AcDbBlockBegin
2
*PAPER_SPACE
0
ENDBLK
5
1D
100
AcDbEntity
100
AcDbBlockEnd
0
ENDSEC
0
SECTION
2
ENTITIES
0
LWPOLYLINE
5
100
100
AcDbEntity
8
0
100
AcDbPolyline
90
8
70
1
43
0.0
10
163.381927138359
20
-0.2400502310272401
10
163.381927138359
20
-13.240050231027229
42
0.41421356237314705
10
163.88192713835903
20
-13.740050231027237
10
176.88192713835895
20
-13.740050231027219
42
0.4142135623730846
10
177.38192713835898
20
-13.240050231027229
10
177.38192713835898
20
-0.24005023102724013
42
0.41421356237307422
10
176.88192713835895
20
0.25994976897280253
10
163.881927138359
20
0.25994976897278477
42
0.4142135623730846
0
LWPOLYLINE
5
101
100
AcDbEntity
8
0
100
AcDbPolyline
90
8
70
1
43
0.0
10
214.98192713835897
20
0.25994976897280253
10
201.98192713835903
20
0.25994976897280253
42
0.41421356237310542
10
201.48192713835897
20
-0.24005023102722234
10
201.48192713835897
20
-13.240050231027229
42
0.41421356237314705
10
201.98192713835897
20
-13.740050231027237
10
214.98192713835897
20
-13.740050231027254
42
0.4142135623730846
10
215.48192713835903
20
-13.240050231027229
10
215.48192713835903
20
-0.24005023102724013
42
0.4142135623730846
0
LWPOLYLINE
5
102
100
AcDbEntity
8
0
100
AcDbPolyline
90
8
70
1
43
0.0
10
253.08192713835905
20
-13.740050231027237
42
0.41421356237309503
10
253.58192713835905
20
-13.240050231027229
10
253.58192713835905
20
-0.24005023102724013
42
0.41421356237312623
10
253.08192713835905
20
0.25994976897280253
10
240.08192713835905
20
0.25994976897280253
42
0.41421356237311585
10
239.58192713835902
20
-0.2400502310272401
10
239.58192713835899
20
-13.240050231027229
42
0.4142135623730846
10
240.08192713835905
20
-13.740050231027237
0
LWPOLYLINE
5
103
100
AcDbEntity
8
0
100
AcDbPolyline
90
8
70
1
43
0.0
10
24.481927138358994
20
0.25994976897280253
10
11.481927138358987
20
0.25994976897279365
42
0.41421356237307944
10
10.98192713835898
20
-0.2400502310272401
10
10.981927138358989
20
-13.240050231027229
42
0.41421356237307683
10
11.481927138359001
20
-13.740050231027237
10
24.481927138358994
20
-13.740050231027228
42
0.41421356237307683
10
24.981927138358998
20
-13.240050231027229
10
24.981927138358991
20
-0.24005023102724013
42
0.41421356237308982
0
LWPOLYLINE
5
104
100
AcDbEntity
8
0
100
AcDbPolyline
90
8
70
1
43
0.0
10
30.031927138358977
20
-13.240050231027229
42
0.41421356237307422
10
30.531927138358984
20
-13.740050231027237
10
43.531927138358988
20
-13.740050231027237
42
0.41421356237307422
10
44.031927138358995
20
-13.240050231027229
10
44.031927138358995
20
-0.24005023102724013
42
0.41421356237309503
10
43.531927138358988
20
0.259949768972767
10
30.531927138358984
20
0.25994976897280253
42
0.41421356237308982
10
30.031927138358988
20
-0.2400502310272401
0
LWPOLYLINE
5
105
100
AcDbEntity
8
0
100
AcDbPolyline
90
8
70
1
43
0.0
10
82.131927138359003
20
-13.240050231027229
10
82.131927138358975
20
-0.24005023102724013
42
0.41421356237310542
10
81.631927138358989
20
0.259949768972767
10
68.631927138359003
20
0.25994976897280253
42
0.41421356237310542
10
68.131927138358975
20
-0.2400502310272401
10
68.131927138359018
20
-13.240050231027247
42
0.4142135623730534
10
68.631927138359003
20
-13.740050231027237
10
81.631927138358989
20
-13.740050231027237
42
0.41421356237307422
0
LWPOLYLINE
5
106
100
AcDbEntity
8
0
100
AcDbPolyline
90
8
70
1
43
0.0
10
-7.5680728616410109
20
-13.740050231027237
10
5.4319271383589873
20
-13.740050231027237
42
0.41421356237307355
10
5.9319271383589944
20
-13.240050231027229
10
5.9319271383589856
20
-0.24005023102724013
42
0.41421356237308982
10
5.4319271383589873
20
0.25994976897280253
10
-7.5680728616410109
20
0.25994976897279587
42
0.41421356237308071
10
-8.0680728616410224
20
-0.2400502310272401
10
-8.0680728616410224
20
-13.240050231027229
42
0.41421356237307683
0
LWPOLYLINE
5
107
100
AcDbEntity
8
0
100
AcDbPolyline
90
8
70
1
43
0.0
10
87.181927138358986
20
-0.2400502310272401
10
87.181927138358986
20
-13.240050231027229
42
0.41421356237309503
10
87.681927138359001
20
-13.740050231027201
10
100.681927138359
20
-13.740050231027237
42
0.41421356237314705
10
101.18192713835899
20
-13.240050231027229
10
101.18192713835901
20
-0.24005023102724013
42
0.41421356237309503
10
100.681927138359
20
0.25994976897280253
10
87.681927138359001
20
0.25994976897280253
42
0.41421356237309503
0
LWPOLYLINE
5
108
100
AcDbEntity
8
0
100
AcDbPolyline
90
8
70
1
43
0.0
10
62.581927138358978
20
0.259949768972767
10
49.581927138358992
20
0.25994976897280253
42
0.41421356237306384
10
49.081927138358964
20
-0.2400502310272401
10
49.081927138359006
20
-13.240050231027247
42
0.4142135623730534
10
49.581927138358992
20
-13.740050231027237
10
62.581927138358978
20
-13.740050231027237
42
0.41421356237310542
10
63.081927138359006
20
-13.240050231027229
10
63.081927138358992
20
-0.24005023102724013
42
0.41421356237309503
0
LWPOLYLINE
5
109
100
AcDbEntity
8
0
100
AcDbPolyline
90
8
70
1
43
0.0
10
106.231927138359
20
-0.2400502310272401
10
106.231927138359
20
-13.240050231027229
42
0.41421356237309503
10
106.73192713835904
20
-13.740050231027237
10
119.731927138359
20
-13.740050231027237
42
0.4142135623730846
10
120.23192713835898
20
-13.240050231027229
10
120.23192713835897
20
-0.24005023102724013
42
0.41421356237307422
10
119.731927138359
20
0.25994976897280253
10
106.73192713835904
20
0.25994976897280253
42
0.41421356237309503
0
LWPOLYLINE
5
110
100
AcDbEntity
8
0
100
AcDbPolyline
90
8
70
1
43
0.0
10
272.131927138359
20
-13.740050231027219
42
0.4142135623730846
10
272.631927138359
20
-13.240050231027229
10
272.631927138359
20
-0.24005023102724013
42
0.41421356237307422
10
272.131927138359
20
0.25994976897280253
10
259.13192713835906
20
0.25994976897278477
42
0.41421356237310542
10
258.631927138359
20
-0.2400502310272401
10
258.631927138359
20
-13.240050231027229
42
0.41421356237314705
10
259.131927138359
20
-13.740050231027237
0
LWPOLYLINE
5
111
100
AcDbEntity
8
0
100
AcDbPolyline
90
8
70
1
43
0.0
10
138.78192713835901
20
-51.84005023102722
42
0.41421356237306384
10
139.28192713835895
20
-51.340050231027234
10
139.28192713835898
20
-38.340050231027263
42
0.41421356237311585
10
138.78192713835901
20
-37.840050231027256
10
125.78192713835901
20
-37.840050231027256
42
0.41421356237304302
10
125.28192713835901
20
-38.340050231027263
10
125.28192713835904
20
-51.340050231027234
42
0.41421356237311585
10
125.78192713835901
20
-51.840050231027242
0
LWPOLYLINE
5
112
100
AcDbEntity
8
0
100
AcDbPolyline
90
8
70
1
43
0.0
10
234.03192713835904
20
-37.840050231027256
10
221.03192713835904
20
-37.840050231027256
42
0.41421356237313667
10
220.53192713835901
20
-38.340050231027263
10
220.53192713835901
20
-51.340050231027234
42
0.41421356237313667
10
221.03192713835904
20
-51.840050231027242
10
234.03192713835904
20
-51.840050231027242
42
0.4142135623730534
10
234.53192713835904
20
-51.340050231027234
10
234.53192713835904
20
-38.340050231027263
42
0.41421356237313667
0
LWPOLYLINE
5
113
100
AcDbEntity
8
0
100
AcDbPolyline
90
8
70
1
43
0.0
10
259.131927138359
20
-37.840050231027256
42
0.4142135623730534
10
258.631927138359
20
-38.340050231027263
10
258.631927138359
20
-51.340050231027234
42
0.41421356237313667
10
259.131927138359
20
-51.840050231027242
10
272.131927138359
20
-51.840050231027242
42
0.41421356237313667
10
272.631927138359
20
-51.340050231027234
10
272.631927138359
20
-38.340050231027263
42
0.41421356237313667
10
272.131927138359
20
-37.840050231027256
0
LWPOLYLINE
5
114
100
AcDbEntity
8
0
100
AcDbPolyline
90
20
70
1
43
0.0
10
49.581927138358992
20
-89.940050231027186
10
57.819427138358996
20
-89.940050231027186
10
62.581927138358999
20
-89.940050231027215
42
0.41421356237312623
10
63.081927138359006
20
-89.440050231027186
10
63.081927138358971
20
-76.440050231027215
42
0.41421356237309503
10
62.581927138358999
20
-75.940050231027101
10
57.819427138358996
20
-75.940050231027243
10
49.581927138358992
20
-75.940050231027243
10
44.819427138359003
20
-75.940050231027243
10
10.194427138359007
20
-75.940050231027243
10
5.4319271383590051
20
-75.940050231027243
10
-2.8055728616409938
20
-75.940050231027243
10
-7.5680728616409931
20
-75.940050231027243
42
0.41421356237309764
10
-8.0680728616409692
20
-76.440050231027215
10
-8.0680728616409798
20
-89.440050231027186
42
0.41421356237312495
10
-7.5680728616409931
20
-89.940050231027186
10
-2.8055728616409938
20
-89.940050231027186
10
5.4319271383590051
20
-89.940050231027186
10
10.194427138359007
20
-89.940050231027186
10
44.819427138359003
20
-89.940050231027186
0
LWPOLYLINE
5
115
100
AcDbEntity
8
0
100
AcDbPolyline
90
12
70
1
43
0.0
10
78.631927138359003
20
-89.940050231027186
10
81.631927138359003
20
-89.940050231027186
42
0.41421356237301177
10
82.131927138359018
20
-89.440050231027186
10
82.131927138359003
20
-76.440050231027215
42
0.41421356237310542
10
81.631927138359003
20
-75.940050231027101
10
78.131927138359018
20
-75.940050231027243
10
72.131927138359003
20
-75.940050231027243
10
68.631927138359003
20
-75.940050231027243
42
0.41421356237309503
10
68.131927138359032
20
-76.440050231027215
10
68.131927138359032
20
-89.440050231027186
42
0.41421356237311585
10
68.631927138359003
20
-89.940050231027186
10
71.631927138359003
20
-89.940050231027186
0
LWPOLYLINE
5
116
100
AcDbEntity
8
0
100
AcDbPolyline
90
8
70
1
43
0.0
10
291.68192713835896
20
-51.340050231027234
10
291.68192713835896
20
-38.340050231027263
42
0.41421356237313667
10
291.18192713835896
20
-37.840050231027256
10
278.18192713835901
20
-37.840050231027256
42
0.41421356237313667
10
277.68192713835896
20
-38.340050231027263
10
277.68192713835896
20
-51.340050231027234
42
0.41421356237313667
10
278.18192713835901
20
-51.840050231027242
10
291.18192713835896
20
-51.840050231027242
42
0.41421356237313667
0
LWPOLYLINE
5
117
100
AcDbEntity
8
0
100
AcDbPolyline
90
8
70
1
43
0.0
10
138.78192713835901
20
-75.940050231027101
10
125.78192713835904
20
-75.940050231027243
42
0.41421356237309503
10
125.28192713835907
20
-76.440050231027215
10
125.28192713835905
20
-89.440050231027186
42
0.4142135623730846
10
125.78192713835904
20
-89.940050231027186
10
138.78192713835901
20
-89.940050231027186
42
0.41421356237298057
10
139.28192713835904
20
-89.440050231027186
10
139.28192713835904
20
-76.440050231027215
42
0.4142135623730846
0
LWPOLYLINE
5
118
100
AcDbEntity
8
0
100
AcDbPolyline
90
8
70
1
43
0.0
10
177.38192713835898
20
-89.440050231027186
10
177.38192713835898
20
-76.440050231027215
42
0.41421356237311585
10
176.88192713835895
20
-75.940050231027101
10
163.88192713835903
20
-75.940050231027243
42
0.41421356237311585
10
163.381927138359
20
-76.440050231027215
10
163.38192713835898
20
-89.440050231027186
42
0.41421356237311585
10
163.88192713835903
20
-89.940050231027129
10
176.88192713835895
20
-89.940050231027186
42
0.41421356237313667
0
LWPOLYLINE
5
119
100
AcDbEntity
8
0
100
AcDbPolyline
90
12
70
1
43
0.0
10
106.23192713835903
20
-89.440050231027186
42
0.41421356237310542
10
106.73192713835904
20
-89.940050231027186
10
109.73192713835903
20
-89.940050231027186
10
116.73192713835904
20
-89.940050231027186
10
119.731927138359
20
-89.940050231027186
42
0.41421356237304302
10
120.23192713835898
20
-89.440050231027186
10
120.23192713835897
20
-76.440050231027215
42
0.41421356237309503
10
119.731927138359
20
-75.940050231027101
10
116.23192713835904
20
-75.940050231027243
10
110.23192713835904
20
-75.940050231027243
10
106.73192713835904
20
-75.940050231027257
42
0.41421356237311585
10
106.23192713835905
20
-76.440050231027215
0
LWPOLYLINE
5
120
100
AcDbEntity
8
0
100
AcDbPolyline
90
8
70
1
43
0.0
10
100.68192713835904
20
-75.940050231027101
10
87.681927138359015
20
-75.940050231027243
42
0.41421356237309503
10
87.181927138359043
20
-76.440050231027215
10
87.181927138358986
20
-89.440050231027186
42
0.41421356237310542
10
87.681927138359015
20
-89.940050231027186
10
100.68192713835904
20
-89.940050231027172
42
0.41421356237310542
10
101.18192713835904
20
-89.440050231027186
10
101.18192713835903
20
-76.440050231027215
42
0.41421356237306384
0
LWPOLYLINE
5
121
100
AcDbEntity
8
0
100
AcDbPolyline
90
12
70
1
43
0.0
10
185.93192713835904
20
-89.940050231027186
10
192.93192713835904
20
-89.940050231027186
10
195.93192713835904
20
-89.940050231027186
42
0.41421356237313667
10
196.43192713835904
20
-89.440050231027186
10
196.43192713835901
20
-76.440050231027215
42
0.41421356237309503
10
195.93192713835904
20
-75.940050231027243
10
192.43192713835901
20
-75.940050231027243
10
186.43192713835901
20
-75.940050231027243
10
182.93192713835904
20
-75.940050231027243
42
0.41421356237311585
10
182.43192713835901
20
-76.440050231027215
10
182.43192713835899
20
-89.440050231027186
42
0.41421356237311585
10
182.93192713835904
20
-89.940050231027129
0
LWPOLYLINE
5
122
100
AcDbEntity
8
0
100
AcDbPolyline
90
12
70
1
43
0.0
10
157.83192713835902
20
-89.940050231027186
42
0.41421356237298057
10
158.33192713835905
20
-89.440050231027186
10
158.33192713835905
20
-76.440050231027215
42
0.4142135623730846
10
157.83192713835902
20
-75.940050231027101
10
154.33192713835905
20
-75.940050231027243
10
148.33192713835905
20
-75.940050231027243
10
144.83192713835905
20
-75.940050231027243
42
0.41421356237309503
10
144.33192713835908
20
-76.440050231027215
10
144.33192713835902
20
-89.440050231027186
42
0.41421356237310542
10
144.83192713835905
20
-89.940050231027186
10
147.83192713835902
20
-89.940050231027186
10
154.83192713835902
20
-89.940050231027186
0
LWPOLYLINE
5
123
100
AcDbEntity
8
0
100
AcDbPolyline
90
8
70
1
43
0.0
10
259.13192713835906
20
-75.940050231027243
42
0.41421356237311585
10
258.63192713835906
20
-76.440050231027215
10
258.631927138359
20
-89.440050231027186
42
0.41421356237299095
10
259.13192713835906
20
-89.940050231027229
10
272.131927138359
20
-89.940050231027186
42
0.41421356237313667
10
272.631927138359
20
-89.440050231027186
10
272.631927138359
20
-76.440050231027215
42
0.41421356237311585
10
272.131927138359
20
-75.940050231027101
0
LWPOLYLINE
5
124
100
AcDbEntity
8
0
100
AcDbPolyline
90
8
70
1
43
0.0
10
240.08192713835908
20
-89.940050231027229
10
253.08192713835905
20
-89.940050231027186
42
0.4142135623730534
10
253.58192713835905
20
-89.440050231027186
10
253.58192713835905
20
-76.440050231027215
42
0.41421356237307422
10
253.08192713835905
20
-75.940050231027101
10
240.08192713835908
20
-75.940050231027243
42
0.41421356237311585
10
239.58192713835905
20
-76.440050231027215
10
239.58192713835902
20
-89.440050231027186
42
0.4142135623730534
0
LWPOLYLINE
5
125
100
AcDbEntity
8
0
100
AcDbPolyline
90
14
70
1
43
0.0
10
234.53192713835904
20
-76.440050231027215
42
0.41421356237307422
10
234.03192713835904
20
-75.940050231027101
10
221.03192713835904
20
-75.940050231027243
10
214.98192713835897
20
-75.940050231027243
10
206.74442713835901
20
-75.940050231027243
10
201.98192713835903
20
-75.940050231027243
42
0.41421356237319906
10
201.481927138359
20
-76.440050231027215
10
201.48192713835897
20
-89.440050231027186
42
0.4142135623730534
10
201.98192713835903
20
-89.940050231027229
10
206.74442713835901
20
-89.940050231027186
10
214.98192713835897
20
-89.940050231027186
10
221.03192713835904
20
-89.940050231027186
10
234.03192713835904
20
-89.940050231027186
42
0.4142135623730534
10
234.53192713835904
20
-89.440050231027186
0
LWPOLYLINE
5
126
100
AcDbEntity
8
0
100
AcDbPolyline
90
8
70
1
43
0.0
10
278.18192713835901
20
-75.940050231027243
42
0.41421356237309503
10
277.68192713835901
20
-76.440050231027215
10
277.68192713835901
20
-89.440050231027215
42
0.41421356237294937
10
278.18192713835901
20
-89.9400502310273
10
291.18192713835896
20
-89.940050231027229
42
0.41421356237313667
10
291.68192713835896
20
-89.440050231027215
10
291.68192713835901
20
-76.440050231027215
42
0.41421356237315748
10
291.18192713835896
20
-75.940050231027101
0
LWPOLYLINE
5
127
100
AcDbEntity
8
0
100
AcDbPolyline
90
8
70
1
43
0.0
10
5.4319271383590051
20
-70.890050231027161
42
0.41421356237312623
10
5.9319271383589767
20
-70.390050231027246
10
5.931927138359022
20
-57.390050231027239
42
0.41421356237310086
10
5.4319271383590051
20
-56.890050231027232
10
-7.5680728616409931
20
-56.890050231027246
42
0.41421356237314577
10
-8.0680728616409993
20
-57.390050231027239
10
-8.0680728616409798
20
-70.390050231027246
42
0.41421356237312495
10
-7.5680728616409931
20
-70.89005023102726
0
LWPOLYLINE
5
128
100
AcDbEntity
8
0
100
AcDbPolyline
90
8
70
1
43
0.0
10
11.481927138359003
20
-56.890050231027246
42
0.41421356237314577
10
10.981927138358998
20
-57.390050231027239
10
10.981927138359019
20
-70.390050231027246
42
0.41421356237312235
10
11.481927138359003
20
-70.89005023102726
10
24.481927138359008
20
-70.890050231027161
42
0.41421356237312623
10
24.981927138358984
20
-70.390050231027246
10
24.981927138359023
20
-57.390050231027239
42
0.41421356237310025
10
24.481927138359008
20
-56.890050231027232
0
LWPOLYLINE
5
129
100
AcDbEntity
8
0
100
AcDbPolyline
90
8
70
1
43
0.0
10
234.53192713835904
20
-57.390050231027239
42
0.41421356237309503
10
234.03192713835904
20
-56.890050231027161
10
221.03192713835904
20
-56.890050231027232
42
0.41421356237313667
10
220.53192713835901
20
-57.390050231027239
10
220.53192713835901
20
-70.390050231027246
42
0.41421356237307422
10
221.03192713835904
20
-70.890050231027288
10
234.03192713835904
20
-70.890050231027175
42
0.4142135623731783
10
234.53192713835904
20
-70.390050231027246
0
LWPOLYLINE
5
130
100
AcDbEntity
8
0
100
AcDbPolyline
90
8
70
1
43
0.0
10
253.58192713835905
20
-70.390050231027246
10
253.58192713835905
20
-57.390050231027239
42
0.41421356237309503
10
253.08192713835905
20
-56.890050231027161
10
240.08192713835908
20
-56.890050231027232
42
0.41421356237311585
10
239.58192713835902
20
-57.390050231027239
10
239.58192713835902
20
-70.390050231027246
42
0.4142135623730534
10
240.08192713835908
20
-70.890050231027288
10
253.08192713835905
20
-70.890050231027175
42
0.4142135623731783
0
LWPOLYLINE
5
131
100
AcDbEntity
8
0
100
AcDbPolyline
90
8
70
1
43
0.0
10
258.631927138359
20
-57.390050231027239
10
258.631927138359
20
-70.390050231027246
42
0.41421356237299095
10
259.13192713835906
20
-70.890050231027288
10
272.131927138359
20
-70.890050231027146
42
0.4142135623732407
10
272.631927138359
20
-70.390050231027246
10
272.63192713835912
20
-57.390050231027239
42
0.41421356237313667
10
272.131927138359
20
-56.890050231027161
10
259.13192713835906
20
-56.890050231027232
42
0.41421356237309503
0
LWPOLYLINE
5
132
100
AcDbEntity
8
0
100
AcDbPolyline
90
8
70
1
43
0.0
10
291.68192713835907
20
-57.390050231027239
42
0.41421356237307422
10
291.18192713835896
20
-56.890050231027161
10
278.18192713835901
20
-56.890050231027232
42
0.41421356237313667
10
277.68192713835896
20
-57.390050231027239
10
277.68192713835901
20
-70.390050231027246
42
0.41421356237299095
10
278.18192713835901
20
-70.890050231027175
10
291.18192713835896
20
-70.890050231027146
42
0.4142135623732407
10
291.68192713835896
20
-70.390050231027246
0
LWPOLYLINE
5
133
100
AcDbEntity
8
0
100
AcDbPolyline
90
8
70
1
43
0.0
10
201.98192713835903
20
-56.890050231027232
42
0.41421356237313667
10
201.481927138359
20
-57.390050231027239
10
201.48192713835897
20
-70.390050231027246
42
0.4142135623730534
10
201.98192713835903
20
-70.890050231027288
10
214.98192713835897
20
-70.890050231027146
42
0.4142135623732407
10
215.481927138359
20
-70.390050231027246
10
215.48192713835905
20
-57.390050231027239
42
0.41421356237313667
10
214.98192713835897
20
-56.890050231027161
0
LWPOLYLINE
5
134
100
AcDbEntity
8
0
100
AcDbPolyline
90
8
70
1
43
0.0
10
30.031927138359016
20
-70.390050231027246
42
0.41421356237312362
10
30.531927138359002
20
-70.89005023102726
10
43.531927138359009
20
-70.890050231027161
42
0.41421356237312623
10
44.031927138358981
20
-70.390050231027246
10
44.03192713835903
20
-57.390050231027203
42
0.4142135623730846
10
43.531927138359009
20
-56.890050231027232
10
30.531927138359002
20
-56.890050231027246
42
0.41421356237314444
10
30.031927138359002
20
-57.390050231027239
0
LWPOLYLINE
5
135
100
AcDbEntity
8
0
100
AcDbPolyline
90
8
70
1
43
0.0
10
49.081927138359006
20
-57.390050231027239
10
49.081927138359021
20
-70.390050231027246
42
0.41421356237311585
10
49.581927138358992
20
-70.89005023102726
10
62.581927138358999
20
-70.890050231027161
42
0.41421356237312623
10
63.081927138358971
20
-70.390050231027246
10
63.081927138359021
20
-57.390050231027203
42
0.4142135623730846
10
62.581927138358999
20
-56.890050231027232
10
49.581927138358992
20
-56.890050231027246
42
0.41421356237313667
0
LWPOLYLINE
5
136
100
AcDbEntity
8
0
100
AcDbPolyline
90
8
70
1
43
0.0
10
68.131927138359018
20
-57.390050231027239
10
68.131927138359032
20
-70.390050231027246
42
0.41421356237311585
10
68.631927138359003
20
-70.89005023102726
10
81.631927138359003
20
-70.890050231027161
42
0.41421356237312623
10
82.131927138358975
20
-70.390050231027246
10
82.13192713835906
20
-57.390050231027239
42
0.41421356237311585
10
81.631927138359003
20
-56.890050231027232
10
68.631927138359003
20
-56.890050231027246
42
0.41421356237313667
0
LWPOLYLINE
5
137
100
AcDbEntity
8
0
100
AcDbPolyline
90
8
70
1
43
0.0
10
87.181927138358986
20
-57.390050231027239
10
87.181927138358986
20
-70.390050231027246
42
0.41421356237310542
10
87.681927138359015
20
-70.89005023102726
10
100.68192713835904
20
-70.890050231027203
42
0.4142135623730534
10
101.18192713835899
20
-70.390050231027246
10
101.18192713835904
20
-57.390050231027239
42
0.41421356237313667
10
100.68192713835904
20
-56.890050231027232
10
87.681927138359015
20
-56.890050231027217
42
0.41421356237313667
0
LWPOLYLINE
5
138
100
AcDbEntity
8
0
100
AcDbPolyline
90
8
70
1
43
0.0
10
106.73192713835904
20
-56.890050231027246
42
0.41421356237314705
10
106.23192713835904
20
-57.390050231027239
10
106.23192713835903
20
-70.390050231027246
42
0.41421356237310542
10
106.73192713835904
20
-70.89005023102726
10
119.731927138359
20
-70.890050231027175
42
0.41421356237312623
10
120.23192713835898
20
-70.390050231027246
10
120.23192713835898
20
-57.390050231027203
42
0.41421356237310542
10
119.731927138359
20
-56.890050231027232
0
LWPOLYLINE
5
139
100
AcDbEntity
8
0
100
AcDbPolyline
90
8
70
1
43
0.0
10
125.78192713835904
20
-56.890050231027246
42
0.41421356237314705
10
125.28192713835904
20
-57.390050231027239
10
125.28192713835905
20
-70.390050231027246
42
0.4142135623730846
10
125.78192713835904
20
-70.89005023102726
10
138.78192713835901
20
-70.890050231027175
42
0.4142135623730534
10
139.28192713835895
20
-70.390050231027246
10
139.28192713835904
20
-57.390050231027239
42
0.41421356237307422
10
138.78192713835901
20
-56.890050231027232
0
LWPOLYLINE
5
140
100
AcDbEntity
8
0
100
AcDbPolyline
90
8
70
1
43
0.0
10
144.33192713835902
20
-57.390050231027239
10
144.33192713835902
20
-70.390050231027246
42
0.41421356237310542
10
144.83192713835905
20
-70.89005023102726
10
157.83192713835902
20
-70.890050231027175
42
0.41421356237312623
10
158.33192713835902
20
-70.390050231027246
10
158.33192713835905
20
-57.390050231027239
42
0.41421356237307422
10
157.83192713835902
20
-56.890050231027232
10
144.83192713835905
20
-56.890050231027217
42
0.41421356237313667
0
LWPOLYLINE
5
141
100
AcDbEntity
8
0
100
AcDbPolyline
90
8
70
1
43
0.0
10
163.381927138359
20
-57.390050231027239
10
163.38192713835898
20
-70.390050231027246
42
0.41421356237311585
10
163.88192713835903
20
-70.890050231027175
10
176.88192713835895
20
-70.890050231027146
42
0.4142135623732407
10
177.38192713835898
20
-70.390050231027246
10
177.38192713835903
20
-57.390050231027239
42
0.41421356237313667
10
176.88192713835895
20
-56.890050231027161
10
163.88192713835903
20
-56.890050231027232
42
0.4142135623731783
0
LWPOLYLINE
5
142
100
AcDbEntity
8
0
100
AcDbPolyline
90
8
70
1
43
0.0
10
182.93192713835904
20
-56.890050231027232
42
0.41421356237311585
10
182.43192713835899
20
-57.390050231027239
10
182.43192713835899
20
-70.390050231027246
42
0.41421356237311585
10
182.93192713835904
20
-70.890050231027175
10
195.93192713835904
20
-70.890050231027175
42
0.41421356237311585
10
196.43192713835901
20
-70.390050231027246
10
196.43192713835901
20
-57.390050231027239
42
0.41421356237311585
10
195.93192713835904
20
-56.890050231027232
0
LWPOLYLINE
5
143
100
AcDbEntity
8
0
100
AcDbPolyline
90
8
70
1
43
0.0
10
100.681927138359
20
-18.790050231027209
10
87.681927138359001
20
-18.790050231027244
42
0.41421356237309503
10
87.181927138358986
20
-19.290050231027216
10
87.181927138358986
20
-32.290050231027237
42
0.41421356237309503
10
87.681927138359001
20
-32.790050231027209
10
100.681927138359
20
-32.790050231027251
42
0.41421356237314705
10
101.18192713835899
20
-32.290050231027237
10
101.18192713835899
20
-19.290050231027216
42
0.41421356237312623
0
LWPOLYLINE
5
144
100
AcDbEntity
8
0
100
AcDbPolyline
90
8
70
1
43
0.0
10
106.231927138359
20
-32.290050231027237
42
0.41421356237309503
10
106.73192713835904
20
-32.790050231027251
10
119.731927138359
20
-32.790050231027251
42
0.4142135623730846
10
120.23192713835898
20
-32.290050231027237
10
120.23192713835898
20
-19.290050231027216
42
0.41421356237310542
10
119.731927138359
20
-18.790050231027209
10
106.73192713835904
20
-18.790050231027244
42
0.41421356237309503
10
106.23192713835904
20
-19.290050231027216
0
LWPOLYLINE
5
145
100
AcDbEntity
8
0
100
AcDbPolyline
90
8
70
1
43
0.0
10
144.33192713835902
20
-32.290050231027237
42
0.4142135623730846
10
144.83192713835902
20
-32.790050231027251
10
157.83192713835902
20
-32.790050231027251
42
0.4142135623730846
10
158.33192713835902
20
-32.290050231027237
10
158.33192713835902
20
-19.290050231027216
42
0.41421356237310542
10
157.83192713835902
20
-18.790050231027209
10
144.83192713835902
20
-18.790050231027244
42
0.41421356237310542
10
144.33192713835902
20
-19.290050231027216
0
LWPOLYLINE
5
146
100
AcDbEntity
8
0
100
AcDbPolyline
90
8
70
1
43
0.0
10
272.131927138359
20
-18.790050231027209
10
259.13192713835906
20
-18.790050231027262
42
0.41421356237306384
10
258.631927138359
20
-19.290050231027216
10
258.631927138359
20
-32.290050231027237
42
0.41421356237314705
10
259.131927138359
20
-32.790050231027251
10
272.131927138359
20
-32.79005023102723
42
0.4142135623730846
10
272.631927138359
20
-32.290050231027237
10
272.631927138359
20
-19.290050231027216
42
0.41421356237310542
0
LWPOLYLINE
5
147
100
AcDbEntity
8
0
100
AcDbPolyline
90
8
70
1
43
0.0
10
163.381927138359
20
-32.290050231027237
42
0.41421356237314705
10
163.88192713835903
20
-32.790050231027251
10
176.88192713835895
20
-32.79005023102723
42
0.4142135623730846
10
177.38192713835898
20
-32.290050231027237
10
177.38192713835895
20
-19.290050231027216
42
0.41421356237310542
10
176.88192713835895
20
-18.790050231027209
10
163.881927138359
20
-18.790050231027262
42
0.41421356237304302
10
163.381927138359
20
-19.290050231027216
0
LWPOLYLINE
5
148
100
AcDbEntity
8
0
100
AcDbPolyline
90
8
70
1
43
0.0
10
125.28192713835901
20
-32.290050231027237
42
0.4142135623730846
10
125.78192713835901
20
-32.790050231027251
10
138.78192713835901
20
-32.790050231027251
42
0.4142135623730846
10
139.28192713835901
20
-32.290050231027237
10
139.28192713835901
20
-19.290050231027216
42
0.41421356237310542
10
138.78192713835901
20
-18.790050231027209
10
125.78192713835901
20
-18.790050231027244
42
0.41421356237309503
10
125.28192713835904
20
-19.290050231027216
0
LWPOLYLINE
5
149
100
AcDbEntity
8
0
100
AcDbPolyline
90
8
70
1
43
0.0
10
182.93192713835904
20
-32.790050231027251
10
195.93192713835904
20
-32.790050231027251
42
0.41421356237307422
10
196.43192713835901
20
-32.290050231027237
10
196.43192713835901
20
-19.290050231027216
42
0.4142135623730846
10
195.93192713835904
20
-18.790050231027209
10
182.93192713835901
20
-18.790050231027262
42
0.41421356237304302
10
182.43192713835901
20
-19.290050231027216
10
182.43192713835901
20
-32.290050231027237
42
0.4142135623730846
0
LWPOLYLINE
5
150
100
AcDbEntity
8
0
100
AcDbPolyline
90
8
70
1
43
0.0
10
214.98192713835897
20
-32.790050231027266
42
0.4142135623730846
10
215.48192713835903
20
-32.290050231027237
10
215.48192713835903
20
-19.290050231027216
42
0.41421356237307422
10
214.98192713835897
20
-18.790050231027209
10
201.98192713835894
20
-18.790050231027262
42
0.41421356237304302
10
201.48192713835897
20
-19.290050231027216
10
201.48192713835897
20
-32.290050231027237
42
0.41421356237314705
10
201.98192713835897
20
-32.790050231027251
0
LWPOLYLINE
5
151
100
AcDbEntity
8
0
100
AcDbPolyline
90
8
70
1
43
0.0
10
240.08192713835905
20
-32.790050231027251
10
253.08192713835905
20
-32.790050231027251
42
0.41421356237309503
10
253.58192713835905
20
-32.290050231027237
10
253.58192713835905
20
-19.290050231027216
42
0.41421356237314705
10
253.08192713835905
20
-18.790050231027209
10
240.08192713835905
20
-18.790050231027227
42
0.4142135623730846
10
239.58192713835902
20
-19.290050231027216
10
239.58192713835899
20
-32.290050231027237
42
0.4142135623730846
0
LWPOLYLINE
5
152
100
AcDbEntity
8
0
100
AcDbPolyline
90
8
70
1
43
0.0
10
220.53192713835901
20
-19.290050231027216
10
220.53192713835898
20
-32.290050231027237
42
0.4142135623730846
10
221.03192713835904
20
-32.790050231027251
10
234.03192713835904
20
-32.790050231027251
42
0.41421356237309503
10
234.53192713835904
20
-32.290050231027237
10
234.53192713835904
20
-19.290050231027216
42
0.41421356237314705
10
234.03192713835904
20
-18.790050231027209
10
221.03192713835904
20
-18.790050231027227
42
0.4142135623730846
0
LWPOLYLINE
5
153
100
AcDbEntity
8
0
100
AcDbPolyline
90
8
70
1
43
0.0
10
106.231927138359
20
-51.340050231027234
42
0.41421356237311585
10
106.73192713835904
20
-51.840050231027242
10
119.731927138359
20
-51.840050231027242
42
0.41421356237303258
10
120.23192713835897
20
-51.340050231027234
10
120.23192713835897
20
-38.340050231027263
42
0.41421356237311585
10
119.731927138359
20
-37.840050231027256
10
106.73192713835904
20
-37.840050231027256
42
0.41421356237307422
10
106.231927138359
20
-38.340050231027263
0
LWPOLYLINE
5
154
100
AcDbEntity
8
0
100
AcDbPolyline
90
8
70
1
43
0.0
10
87.681927138359001
20
-37.840050231027277
42
0.41421356237310542
10
87.181927138358986
20
-38.340050231027263
10
87.181927138358972
20
-51.340050231027234
42
0.41421356237310542
10
87.681927138359001
20
-51.840050231027242
10
100.681927138359
20
-51.840050231027242
42
0.41421356237303258
10
101.18192713835897
20
-51.340050231027234
10
101.18192713835901
20
-38.340050231027263
42
0.4142135623730534
10
100.681927138359
20
-37.840050231027256
0
LWPOLYLINE
5
155
100
AcDbEntity
8
0
100
AcDbPolyline
90
8
70
1
43
0.0
10
-7.5680728616410109
20
-51.840050231027242
10
5.4319271383589873
20
-51.840050231027234
42
0.41421356237303647
10
5.9319271383589589
20
-51.340050231027234
10
5.9319271383589722
20
-38.340050231027263
42
0.41421356237312362
10
5.4319271383589873
20
-37.840050231027256
10
-7.5680728616410109
20
-37.840050231027256
42
0.4142135623730131
10
-8.0680728616410224
20
-38.340050231027263
10
-8.0680728616409976
20
-51.340050231027234
42
0.41421356237312495
0
LWPOLYLINE
5
156
100
AcDbEntity
8
0
100
AcDbPolyline
90
8
70
1
43
0.0
10
68.131927138358975
20
-38.340050231027263
10
68.131927138359032
20
-51.340050231027234
42
0.41421356237311585
10
68.631927138359003
20
-51.840050231027242
10
81.631927138358989
20
-51.84005023102722
42
0.41421356237303258
10
82.131927138358947
20
-51.340050231027234
10
82.131927138358975
20
-38.340050231027263
42
0.41421356237312623
10
81.631927138358989
20
-37.840050231027256
10
68.631927138359003
20
-37.840050231027277
42
0.41421356237299095
0
LWPOLYLINE
5
157
100
AcDbEntity
8
0
100
AcDbPolyline
90
8
70
1
43
0.0
10
49.581927138358992
20
-51.840050231027242
10
62.581927138358978
20
-51.840050231027242
42
0.41421356237303258
10
63.081927138358949
20
-51.340050231027234
10
63.081927138358971
20
-38.340050231027263
42
0.41421356237312623
10
62.581927138358978
20
-37.840050231027256
10
49.581927138358992
20
-37.840050231027277
42
0.41421356237299095
10
49.081927138358964
20
-38.340050231027263
10
49.081927138359021
20
-51.340050231027234
42
0.41421356237311585
0
LWPOLYLINE
5
158
100
AcDbEntity
8
0
100
AcDbPolyline
90
8
70
1
43
0.0
10
278.18192713835901
20
-32.790050231027195
10
291.18192713835896
20
-32.79005023102723
42
0.4142135623730846
10
291.68192713835896
20
-32.290050231027237
10
291.6819271383589
20
-19.290050231027216
42
0.41421356237310542
10
291.18192713835896
20
-18.790050231027209
10
278.18192713835901
20
-18.790050231027227
42
0.4142135623730846
10
277.68192713835896
20
-19.290050231027216
10
277.68192713835901
20
-32.290050231027237
42
0.41421356237303258
0
LWPOLYLINE
5
159
100
AcDbEntity
8
0
100
AcDbPolyline
90
8
70
1
43
0.0
10
11.481927138358987
20
-37.840050231027263
42
0.41421356237310153
10
10.98192713835898
20
-38.340050231027263
10
10.981927138359
20
-51.340050231027234
42
0.41421356237312495
10
11.481927138358987
20
-51.840050231027242
10
24.481927138358994
20
-51.840050231027234
42
0.4142135623730378
10
24.981927138358966
20
-51.340050231027234
10
24.981927138358984
20
-38.340050231027263
42
0.41421356237312623
10
24.481927138358994
20
-37.840050231027256
0
LWPOLYLINE
5
160
100
AcDbEntity
8
0
100
AcDbPolyline
90
8
70
1
43
0.0
10
30.531927138358984
20
-51.840050231027242
10
43.531927138358988
20
-51.84005023102722
42
0.41421356237304302
10
44.031927138358959
20
-51.340050231027234
10
44.031927138358981
20
-38.340050231027263
42
0.41421356237312623
10
43.531927138358988
20
-37.840050231027256
10
30.531927138358984
20
-37.840050231027234
42
0.41421356237312101
10
30.031927138358988
20
-38.340050231027263
10
30.031927138359002
20
-51.340050231027234
42
0.41421356237312362
0
LWPOLYLINE
5
161
100
AcDbEntity
8
0
100
AcDbPolyline
90
8
70
1
43
0.0
10
182.93192713835904
20
-37.840050231027256
42
0.41421356237299095
10
182.43192713835899
20
-38.340050231027263
10
182.43192713835901
20
-51.340050231027234
42
0.41421356237313667
10
182.93192713835904
20
-51.840050231027242
10
195.93192713835904
20
-51.840050231027242
42
0.41421356237303258
10
196.43192713835901
20
-51.340050231027234
10
196.43192713835901
20
-38.340050231027263
42
0.41421356237319906
10
195.93192713835904
20
-37.840050231027256
0
LWPOLYLINE
5
162
100
AcDbEntity
8
0
100
AcDbPolyline
90
8
70
1
43
0.0
10
201.48192713835897
20
-38.340050231027263
10
201.48192713835897
20
-51.340050231027234
42
0.41421356237313667
10
201.98192713835897
20
-51.840050231027242
10
214.98192713835897
20
-51.840050231027242
42
0.41421356237313667
10
215.481927138359
20
-51.340050231027234
10
215.48192713835903
20
-38.340050231027263
42
0.41421356237307422
10
214.98192713835897
20
-37.840050231027256
10
201.98192713835897
20
-37.840050231027256
42
0.4142135623730534
0
LWPOLYLINE
5
163
100
AcDbEntity
8
0
100
AcDbPolyline
90
8
70
1
43
0.0
10
163.88192713835903
20
-51.840050231027242
10
176.88192713835895
20
-51.840050231027242
42
0.41421356237313667
10
177.38192713835898
20
-51.340050231027234
10
177.38192713835898
20
-38.340050231027263
42
0.41421356237313667
10
176.88192713835895
20
-37.840050231027256
10
163.88192713835903
20
-37.840050231027256
42
0.4142135623730534
10
163.381927138359
20
-38.340050231027263
10
163.381927138359
20
-51.340050231027234
42
0.41421356237313667
0
LWPOLYLINE
5
164
100
AcDbEntity
8
0
100
AcDbPolyline
90
8
70
1
43
0.0
10
253.08192713835905
20
-51.840050231027242
42
0.4142135623730534
10
253.58192713835905
20
-51.340050231027234
10
253.58192713835905
20
-38.340050231027263
42
0.41421356237313667
10
253.08192713835905
20
-37.840050231027256
10
240.08192713835905
20
-37.840050231027256
42
0.41421356237313667
10
239.58192713835902
20
-38.340050231027263
10
239.58192713835902
20
-51.340050231027234
42
0.41421356237313667
10
240.08192713835905
20
-51.840050231027242
0
LWPOLYLINE
5
165
100
AcDbEntity
8
0
100
AcDbPolyline
90
8
70
1
43
0.0
10
157.83192713835902
20
-51.840050231027242
42
0.41421356237304302
10
158.33192713835902
20
-51.340050231027234
10
158.33192713835899
20
-38.340050231027263
42
0.41421356237311585
10
157.83192713835902
20
-37.840050231027256
10
144.83192713835902
20
-37.840050231027256
42
0.41421356237304302
10
144.33192713835902
20
-38.340050231027263
10
144.33192713835905
20
-51.340050231027234
42
0.41421356237311585
10
144.83192713835902
20
-51.840050231027242
0
LWPOLYLINE
5
166
100
AcDbEntity
8
0
100
AcDbPolyline
90
8
70
1
43
0.0
10
158.33192713835899
20
-0.24005023102724013
42
0.41421356237307422
10
157.83192713835902
20
0.25994976897280253
10
144.83192713835902
20
0.25994976897282029
42
0.41421356237307422
10
144.33192713835902
20
-0.2400502310272401
10
144.33192713835902
20
-13.240050231027229
42
0.4142135623730846
10
144.83192713835902
20
-13.740050231027237
10
157.83192713835902
20
-13.740050231027237
42
0.4142135623730846
10
158.33192713835902
20
-13.240050231027229
0
LWPOLYLINE
5
167
100
AcDbEntity
8
0
100
AcDbPolyline
90
8
70
1
43
0.0
10
138.78192713835901
20
-13.740050231027237
42
0.4142135623730846
10
139.28192713835901
20
-13.240050231027229
10
139.28192713835898
20
-0.24005023102724013
42
0.41421356237307422
10
138.78192713835901
20
0.25994976897280253
10
125.78192713835901
20
0.25994976897282029
42
0.41421356237307422
10
125.28192713835901
20
-0.2400502310272401
10
125.28192713835901
20
-13.240050231027229
42
0.4142135623730846
10
125.78192713835901
20
-13.740050231027237
0
LWPOLYLINE
5
168
100
AcDbEntity
8
0
100
AcDbPolyline
90
8
70
1
43
0.0
10
182.93192713835904
20
-13.740050231027237
10
195.93192713835904
20
-13.740050231027237
42
0.41421356237307422
10
196.43192713835901
20
-13.240050231027229
10
196.43192713835901
20
-0.24005023102724013
42
0.41421356237306384
10
195.93192713835904
20
0.25994976897280253
10
182.93192713835907
20
0.25994976897278477
42
0.4142135623730846
10
182.43192713835899
20
-0.2400502310272401
10
182.43192713835901
20
-13.240050231027229
42
0.4142135623730846
0
LWPOLYLINE
5
169
100
AcDbEntity
8
0
100
AcDbPolyline
90
8
70
1
43
0.0
10
5.9319271383589944
20
-32.290050231027237
10
5.9319271383589767
20
-19.290050231027216
42
0.41421356237310542
10
5.4319271383589873
20
-18.790050231027209
10
-7.5680728616410109
20
-18.790050231027237
42
0.41421356237310153
10
-8.0680728616409993
20
-19.290050231027216
10
-8.0680728616410224
20
-32.290050231027237
42
0.41421356237307683
10
-7.5680728616410109
20
-32.790050231027251
10
5.4319271383589873
20
-32.790050231027251
42
0.41421356237307355
0
LWPOLYLINE
5
170
100
AcDbEntity
8
0
100
AcDbPolyline
90
8
70
1
43
0.0
10
49.081927138359006
20
-32.290050231027259
42
0.4142135623730534
10
49.581927138358992
20
-32.790050231027251
10
62.581927138358978
20
-32.790050231027251
42
0.41421356237310542
10
63.081927138359006
20
-32.290050231027237
10
63.081927138358992
20
-19.290050231027216
42
0.41421356237309503
10
62.581927138358978
20
-18.790050231027209
10
49.581927138358992
20
-18.790050231027244
42
0.4142135623730846
10
49.081927138359006
20
-19.290050231027216
0
LWPOLYLINE
5
171
100
AcDbEntity
8
0
100
AcDbPolyline
90
8
70
1
43
0.0
10
24.981927138358987
20
-19.290050231027216
42
0.41421356237310802
10
24.481927138358994
20
-18.790050231027209
10
11.481927138358987
20
-18.790050231027237
42
0.41421356237310025
10
10.981927138358998
20
-19.290050231027216
10
10.981927138358978
20
-32.290050231027237
42
0.41421356237307555
10
11.481927138358987
20
-32.790050231027251
10
24.481927138358994
20
-32.790050231027237
42
0.41421356237307683
10
24.981927138358998
20
-32.290050231027237
0
LWPOLYLINE
5
172
100
AcDbEntity
8
0
100
AcDbPolyline
90
8
70
1
43
0.0
10
44.031927138358995
20
-19.290050231027216
42
0.41421356237309503
10
43.531927138358988
20
-18.790050231027209
10
30.531927138358984
20
-18.790050231027244
42
0.41421356237310281
10
30.031927138359002
20
-19.290050231027216
10
30.031927138358977
20
-32.290050231027237
42
0.41421356237307422
10
30.531927138358984
20
-32.790050231027251
10
43.531927138358988
20
-32.790050231027251
42
0.41421356237307422
10
44.031927138358995
20
-32.290050231027237
0
LWPOLYLINE
5
173
100
AcDbEntity
8
0
100
AcDbPolyline
90
8
70
1
43
0.0
10
220.53192713835898
20
-13.240050231027229
42
0.4142135623730846
10
221.03192713835904
20
-13.740050231027237
10
234.03192713835904
20
-13.740050231027237
42
0.41421356237309503
10
234.53192713835904
20
-13.240050231027229
10
234.53192713835904
20
-0.24005023102724013
42
0.41421356237312623
10
234.03192713835904
20
0.25994976897280253
10
221.03192713835904
20
0.25994976897280253
42
0.41421356237311585
10
220.53192713835901
20
-0.2400502310272401
0
LWPOLYLINE
5
174
100
AcDbEntity
8
0
100
AcDbPolyline
90
8
70
1
43
0.0
10
68.631927138359003
20
-32.790050231027251
10
81.631927138358989
20
-32.790050231027251
42
0.41421356237307422
10
82.131927138359003
20
-32.290050231027237
10
82.131927138359003
20
-19.290050231027216
42
0.41421356237309503
10
81.631927138358989
20
-18.790050231027209
10
68.631927138359003
20
-18.790050231027244
42
0.4142135623730846
10
68.131927138359018
20
-19.290050231027216
10
68.131927138359018
20
-32.290050231027259
42
0.4142135623730534
0
LWPOLYLINE
5
175
100
AcDbEntity
8
0
100
AcDbPolyline
90
48
70
1
43
0.0
10
86.081935471658994
20
9.0099497689728381
42
-0.41421356237309503
10
87.581935471659023
20
7.5099497689728167
10
87.581935471658994
20
6.2599497689728167
42
0.99999999999999989
10
94.781935471659011
20
6.2599497689728167
10
94.781935471658983
20
7.5099497689728167
42
-0.41421356237309503
10
96.281935471658997
20
9.0099497689728381
10
187.33171881045899
20
9.0099497689728025
42
-0.41421356237309503
10
188.83171881045897
20
7.5099497689728167
10
188.83171881045899
20
6.2599497689728167
42
0.99999999999999989
10
196.03171881045898
20
6.2599497689728167
10
196.03171881045907
20
7.5099497689728167
42
-0.41421356237309503
10
197.53171881045901
20
9.009949768972767
10
288.58185213835901
20
9.0099497689728025
42
-0.41421356237309503
10
290.08185213835895
20
7.5099497689728167
10
290.08185213835895
20
6.2599497689728167
42
0.41421356237309503
10
293.68185213835898
20
2.6599497689727514
10
298.18185213835898
20
2.6599497689729112
42
-0.41421356237309509
10
299.68185213835909
20
1.1599497689728189
10
299.68185213835903
20
-90.839380231027178
42
-0.41421356237309503
10
298.18185213835898
20
-92.339380231027178
10
293.68185213835898
20
-92.339380231027178
42
0.41421356237309503
10
290.08185213835884
20
-95.939380231027172
10
290.08185213835901
20
-97.189380231027172
42
-0.41421356237309503
10
288.58185213835901
20
-98.689380231027172
10
197.53171881045901
20
-98.689380231027201
42
-0.41421356237309503
10
196.03171881045898
20
-97.189380231027172
10
196.03171881045898
20
-95.939380231027172
42
0.99999999999999989
10
188.83171881045899
20
-95.939380231027172
10
188.83171881045897
20
-97.189380231027172
42
-0.41421356237309503
10
187.33171881045899
20
-98.689380231027144
10
96.281935471658997
20
-98.689380231027215
42
-0.41421356237309503
10
94.781935471658954
20
-97.189380231027172
10
94.781935471658997
20
-95.939380231027172
42
0.99999999999999989
10
87.581935471658966
20
-95.939380231027172
10
87.581935471659023
20
-97.189380231027172
42
-0.41421356237309503
10
86.081935471658994
20
-98.689380231027201
10
-4.9678478616410082
20
-98.689380231027172
42
-0.41421356237309614
10
-6.4678478616410189
20
-97.189380231027172
10
-6.4678478616410136
20
-95.939380231027172
42
0.41421356237309503
10
-10.067847861641013
20
-92.339380231027178
10
-14.567847861641013
20
-92.339380231027164
42
-0.41421356237309503
10
-16.067847861640992
20
-90.839380231027178
10
-16.067847861641017
20
1.1599497689728187
42
-0.41421356237309503
10
-14.567847861641013
20
2.6599497689728224
10
-10.067847861641013
20
2.6599497689728224
42
0.41421356237309503
10
-6.4678478616410899
20
6.2599497689728167
10
-6.4678478616410171
20
7.5099497689728167
42
-0.41421356237309503
10
-4.9678478616410082
20
9.0099497689728203
0
LWPOLYLINE
5
176
100
AcDbEntity
8
0
100
AcDbPolyline
90
4
70
1
43
0.0
10
85.431935471658988
20
4.2599497689728416
42
-0.99999999999999989
10
85.431935471658988
20
2.2599497689728132
10
-4.3178478616410132
20
2.2599497689728487
42
-0.99999999999999989
10
-4.3178478616410132
20
4.2599497689728061
0
LWPOLYLINE
5
177
100
AcDbEntity
8
0
100
AcDbPolyline
90
4
70
1
43
0.0
10
-12.067847861641013
20
0.0099497689728167416
10
-12.067847861641013
20
-89.689380231027172
42
0.99999999999999989
10
-10.067847861641013
20
-89.689380231027172
10
-10.067847861641013
20
0.0099497689728165577
42
0.99999999999999989
0
LWPOLYLINE
5
178
100
AcDbEntity
8
0
100
AcDbPolyline
90
4
70
1
43
0.0
10
85.431935471658988
20
-91.939380231027172
10
-4.3178478616410132
20
-91.939380231027172
42
0.99999999999999989
10
-4.3178478616410132
20
-93.939380231027187
10
85.431935471658988
20
-93.939380231027187
42
0.99999999999999989
0
LWPOLYLINE
5
179
100
AcDbEntity
8
0
100
AcDbPolyline
90
4
70
1
43
0.0
10
96.931935471658988
20
-93.939380231027187
42
-0.99999999999999989
10
96.931935471658988
20
-91.939380231027187
10
186.68171880505898
20
-91.939380231027187
42
-0.99999999999999989
10
186.68171880505898
20
-93.939380231027187
0
LWPOLYLINE
5
180
100
AcDbEntity
8
0
100
AcDbPolyline
90
4
70
1
43
0.0
10
198.182068805059
20
-93.939380231027187
42
-0.99999999999999989
10
198.182068805059
20
-91.939380231027187
10
287.93185213835903
20
-91.939380231027187
42
-0.99999999999999989
10
287.93185213835903
20
-93.939380231027187
0
LWPOLYLINE
5
181
100
AcDbEntity
8
0
100
AcDbPolyline
90
4
70
1
43
0.0
10
293.68185213835898
20
0.0099497689728169254
42
-0.99999999999999989
10
295.68185213835898
20
0.0099497689728167416
10
295.68185213835898
20
-89.689380231027172
42
-0.99999999999999989
10
293.68185213835898
20
-89.689380231027172
0
LWPOLYLINE
5
182
100
AcDbEntity
8
0
100
AcDbPolyline
90
30
70
1
43
0.0
10
286.54590568286221
20
-5.5469612754340067
42
-0.31529878894791102
10
286.65887818717772
20
-5.5668813760084923
10
287.68852218755899
20
-6.5965253764271914
42
0.41421356237313184
10
287.82994354377769
20
-6.5965253764458609
10
288.08865182745899
20
-6.3378170928271693
42
0.41421356258029385
10
288.08865182747769
20
-6.1963957365084532
10
282.703562635259
20
-0.81130654432717719
42
0.19891236737950041
10
282.63285195715906
20
-0.78201722242707161
10
282.27608221945906
20
-0.78201722242717153
42
0.41421356237309503
10
282.17608221945903
20
-0.8820172224271694
10
282.17608221945909
20
-12.404644955727182
42
-0.66817863817511336
10
282.00537154129034
20
-12.475355633795839
10
277.84624543405903
20
-8.3162295265271702
42
0.41421356258018344
10
277.70482407774034
20
-8.3162295265085007
10
277.43361579415898
20
-8.5874378102271898
42
0.41421356237305829
10
277.43361579414034
20
-8.7288591664458082
10
282.1467928975772
20
-13.442036269908906
42
-0.19891236737980492
10
282.17608221945846
20
-13.512746948027186
10
282.17608221945898
20
-15.525101934727168
42
0.41421356237309503
10
282.27608221945906
20
-15.625101934727219
10
282.61695098285901
20
-15.625101934727184
42
0.41421356237309503
10
282.71695098285903
20
-15.525101934727168
10
282.71695098285898
20
-8.3728307152271775
42
-0.66817863791927612
10
282.8876616609777
20
-8.3021200371084891
10
288.45851182035904
20
-13.87297019642717
42
0.41421356237306745
10
288.59993317657768
20
-13.872970196445852
10
288.87114146025897
20
-13.601761912727177
42
0.41421356237308588
10
288.87114146027795
20
-13.460340556508189
10
282.83586029493858
20
-7.4250593912475473
42
-0.52056705047208851
10
282.86430914686116
20
-7.2637179344319076
0
LWPOLYLINE
5
183
100
AcDbEntity
8
0
100
AcDbPolyline
90
4
70
1
43
0.0
10
198.182068805059
20
2.2599497689728132
10
287.93185213835903
20
2.2599497689728132
42
0.99999999999999989
10
287.93185213835903
20
4.2599497689728416
10
198.182068805059
20
4.2599497689728416
42
0.99999999999999989
0
LWPOLYLINE
5
184
100
AcDbEntity
8
0
100
AcDbPolyline
90
4
70
1
43
0.0
10
144.80682713835901
20
2.2599497689727954
42
-0.99999999999999989
10
144.80682713835901
20
4.2599497689728594
10
186.68171880505898
20
4.2599497689728594
42
-0.99999999999999989
10
186.68171880505898
20
2.2599497689727954
0
LWPOLYLINE
5
185
100
AcDbEntity
8
0
100
AcDbPolyline
90
4
70
1
43
0.0
10
96.931935471658988
20
2.2599497689727954
42
-0.99999999999999989
10
96.931935471658988
20
4.2599497689728594
10
138.80682713835898
20
4.2599497689728594
42
-0.99999999999999989
10
138.80682713835898
20
2.2599497689727954
0
ENDSEC
0
SECTION
2
OBJECTS
0
DICTIONARY
5
C
100
AcDbDictionary
3
ACAD_GROUP
350
D
3
ACAD_MLINESTYLE
350
17
0
DICTIONARY
5
D
100
AcDbDictionary
0
DICTIONARY
5
1A
330
C
100
AcDbDictionary
0
DICTIONARY
5
17
100
AcDbDictionary
0
ENDSEC
0
EOF
