0
SECTION
2
HEADER
9
$INSUNITS
70
4
9
$ACADVER
1
AC1014
9
$HANDSEED
5
FFFF
0
ENDSEC
0
SECTION
2
TABLES
0
TABLE
2
VPORT
5
8
100
AcDbSymbolTable
0
ENDTAB
0
TABLE
2
LTYPE
5
5
100
AcDbSymbolTable
0
LTYPE
5
14
100
AcDbSymbolTableRecord
100
AcDbLinetypeTableRecord
2
BYBLOCK
70
0
0
LTYPE
5
15
100
AcDbSymbolTableRecord
100
AcDbLinetypeTableRecord
2
BYLAYER
70
0
0
ENDTAB
0
TABLE
2
LAYER
5
2
100
AcDbSymbolTable
70
2
0
LAYER
5
50
100
AcDbSymbolTableRecord
100
AcDbLayerTableRecord
2
0
70
0
6
CONTINUOUS
0
ENDTAB
0
TABLE
2
STYLE
5
3
100
AcDbSymbolTable
70
1
0
STYLE
5
11
100
AcDbSymbolTableRecord
100
AcDbTextStyleTableRecord
2
STANDARD
70
0
0
ENDTAB
0
TABLE
2
VIEW
5
6
100
AcDbSymbolTable
70
0
0
ENDTAB
0
TABLE
2
UCS
5
7
100
AcDbSymbolTable
70
0
0
ENDTAB
0
TABLE
2
APPID
5
9
100
AcDbSymbolTable
70
2
0
APPID
5
12
100
AcDbSymbolTableRecord
100
AcDbRegAppTableRecord
2
ACAD
70
0
0
ENDTAB
0
TABLE
2
DIMSTYLE
5
A
100
AcDbSymbolTable
70
1
0
ENDTAB
0
TABLE
2
BLOCK_RECORD
5
1
100
AcDbSymbolTable
70
1
0
BLOCK_RECORD
5
1F
100
AcDbSymbolTableRecord
100
AcDbBlockTableRecord
2
*MODEL_SPACE
0
BLOCK_RECORD
5
1B
100
AcDbSymbolTableRecord
100
AcDbBlockTableRecord
2
*PAPER_SPACE
0
ENDTAB
0
ENDSEC
0
SECTION
2
BLOCKS
0
BLOCK
5
20
100
AcDbEntity
100
AcDbBlockBegin
2
*MODEL_SPACE
0
ENDBLK
5
21
100
AcDbEntity
100
AcDbBlockEnd
0
BLOCK
5
1C
100
AcDbEntity
100
AcDbBlockBegin
2
*PAPER_SPACE
0
ENDBLK
5
1D
100
AcDbEntity
100
AcDbBlockEnd
0
ENDSEC
0
SECTION
2
ENTITIES
0
LWPOLYLINE
5
100
100
AcDbEntity
8
0
100
AcDbPolyline
90
8
70
1
43
0.0
10
8.7088089264139548
20
-124.20486044393657
10
21.708808926413958
20
-124.20486044393657
42
-0.41421356237309503
10
22.208808926413962
20
-124.70486044393658
10
22.208808926413965
20
-137.70486044393658
42
-0.41421356237309503
10
21.708808926413958
20
-138.20486044393658
10
8.7088089264139548
20
-138.20486044393658
42
-0.41421356237309503
10
8.2088089264139583
20
-137.70486044393658
10
8.2088089264139477
20
-124.70486044393658
42
-0.41421356237309503
0
LWPOLYLINE
5
101
100
AcDbEntity
8
0
100
AcDbPolyline
90
8
70
1
43
0.0
10
27.758808926413955
20
-138.20486044393658
42
-0.41421356237309503
10
27.258808926413955
20
-137.70486044393658
10
27.258808926413948
20
-124.70486044393658
42
-0.41421356237309503
10
27.758808926413955
20
-124.20486044393657
10
40.758808926413963
20
-124.20486044393658
42
-0.41421356237309503
10
41.258808926413963
20
-124.70486044393658
10
41.25880892641397
20
-137.70486044393658
42
-0.41421356237309503
10
40.758808926413963
20
-138.20486044393658
0
LWPOLYLINE
5
102
100
AcDbEntity
8
0
100
AcDbPolyline
90
8
70
1
43
0.0
10
65.858808926413957
20
-138.20486044393658
42
-0.41421356237309503
10
65.358808926413957
20
-137.70486044393658
10
65.358808926413943
20
-124.70486044393658
42
-0.41421356237309503
10
65.858808926413957
20
-124.20486044393657
10
78.858808926413957
20
-124.20486044393658
42
-0.41421356237309503
10
79.358808926413943
20
-124.70486044393658
10
79.358808926413957
20
-137.70486044393658
42
-0.41421356237309503
10
78.858808926413957
20
-138.20486044393658
0
LWPOLYLINE
5
103
100
AcDbEntity
8
0
100
AcDbPolyline
90
8
70
1
43
0.0
10
-10.841191073586051
20
-124.70486044393658
42
-0.41421356237309503
10
-10.341191073586044
20
-124.20486044393657
10
2.6588089264139558
20
-124.20486044393657
42
-0.41421356237309503
10
3.1588089264139563
20
-124.70486044393658
10
3.1588089264139629
20
-137.70486044393658
42
-0.41421356237309503
10
2.6588089264139558
20
-138.20486044393658
10
-10.341191073586044
20
-138.20486044393658
42
-0.41421356237309503
10
-10.841191073586046
20
-137.70486044393658
0
LWPOLYLINE
5
104
100
AcDbEntity
8
0
100
AcDbPolyline
90
8
70
1
43
0.0
10
98.408808926413968
20
-137.70486044393658
42
-0.41421356237309503
10
97.908808926413968
20
-138.20486044393658
10
84.908808926413968
20
-138.20486044393655
42
-0.41421356237309503
10
84.408808926413968
20
-137.70486044393658
10
84.408808926413954
20
-124.70486044393658
42
-0.41421356237309503
10
84.908808926413968
20
-124.20486044393657
10
97.908808926413968
20
-124.20486044393657
42
-0.41421356237309503
10
98.408808926413968
20
-124.70486044393658
0
LWPOLYLINE
5
105
100
AcDbEntity
8
0
100
AcDbPolyline
90
8
70
1
43
0.0
10
46.308808926413946
20
-124.70486044393658
42
-0.41421356237309503
10
46.80880892641396
20
-124.20486044393657
10
59.808808926413953
20
-124.20486044393658
42
-0.41421356237309503
10
60.308808926413953
20
-124.70486044393658
10
60.30880892641396
20
-137.70486044393658
42
-0.41421356237309503
10
59.808808926413953
20
-138.20486044393658
10
46.80880892641396
20
-138.20486044393658
42
-0.41421356237309503
10
46.30880892641396
20
-137.70486044393658
0
LWPOLYLINE
5
106
100
AcDbEntity
8
0
100
AcDbPolyline
90
8
70
1
43
0.0
10
103.95880892641398
20
-138.20486044393658
42
-0.41421356237309503
10
103.45880892641397
20
-137.70486044393658
10
103.45880892641397
20
-124.70486044393658
42
-0.41421356237309503
10
103.95880892641398
20
-124.20486044393657
10
116.95880892641395
20
-124.20486044393657
42
-0.41421356237309503
10
117.45880892641395
20
-124.70486044393658
10
117.45880892641395
20
-137.70486044393658
42
-0.41421356237309503
10
116.95880892641395
20
-138.20486044393658
0
LWPOLYLINE
5
107
100
AcDbEntity
8
0
100
AcDbPolyline
90
8
70
1
43
0.0
10
269.85880892641399
20
-137.70486044393658
42
-0.41421356237309503
10
269.35880892641399
20
-138.20486044393658
10
256.35880892641399
20
-138.20486044393658
42
-0.41421356237309503
10
255.85880892641399
20
-137.70486044393658
10
255.85880892641399
20
-124.70486044393658
42
-0.41421356237309503
10
256.35880892641399
20
-124.20486044393657
10
269.35880892641399
20
-124.20486044393657
42
-0.41421356237309503
10
269.85880892641399
20
-124.70486044393658
0
LWPOLYLINE
5
108
100
AcDbEntity
8
0
100
AcDbPolyline
90
8
70
1
43
0.0
10
161.10880892641399
20
-138.20486044393658
42
-0.41421356237309503
10
160.60880892641396
20
-137.70486044393658
10
160.60880892641396
20
-124.70486044393658
42
-0.41421356237309503
10
161.10880892641399
20
-124.20486044393657
10
174.10880892641393
20
-124.20486044393657
42
-0.41421356237309503
10
174.60880892641396
20
-124.70486044393658
10
174.60880892641396
20
-137.70486044393658
42
-0.41421356237309503
10
174.10880892641393
20
-138.20486044393658
0
LWPOLYLINE
5
109
100
AcDbEntity
8
0
100
AcDbPolyline
90
8
70
1
43
0.0
10
199.20880892641395
20
-124.20486044393657
10
212.20880892641395
20
-124.20486044393657
42
-0.41421356237309503
10
212.70880892641398
20
-124.70486044393658
10
212.70880892641398
20
-137.70486044393658
42
-0.41421356237309503
10
212.20880892641395
20
-138.20486044393658
10
199.20880892641395
20
-138.20486044393658
42
-0.41421356237309503
10
198.70880892641395
20
-137.70486044393658
10
198.70880892641395
20
-124.70486044393658
42
-0.41421356237309503
0
LWPOLYLINE
5
110
100
AcDbEntity
8
0
100
AcDbPolyline
90
8
70
1
43
0.0
10
250.808808926414
20
-137.70486044393658
42
-0.41421356237309503
10
250.30880892641397
20
-138.20486044393658
10
237.30880892641397
20
-138.20486044393658
42
-0.41421356237309503
10
236.80880892641397
20
-137.70486044393658
10
236.80880892641397
20
-124.70486044393658
42
-0.41421356237309503
10
237.30880892641397
20
-124.20486044393657
10
250.30880892641397
20
-124.20486044393657
42
-0.41421356237309503
10
250.808808926414
20
-124.70486044393658
0
LWPOLYLINE
5
111
100
AcDbEntity
8
0
100
AcDbPolyline
90
8
70
1
43
0.0
10
141.55880892641397
20
-137.70486044393658
10
141.55880892641397
20
-124.70486044393658
42
-0.41421356237309503
10
142.05880892641397
20
-124.20486044393657
10
155.05880892641397
20
-124.20486044393657
42
-0.41421356237309503
10
155.55880892641397
20
-124.70486044393658
10
155.55880892641397
20
-137.70486044393658
42
-0.41421356237309503
10
155.05880892641397
20
-138.20486044393658
10
142.05880892641397
20
-138.20486044393658
42
-0.41421356237309503
0
LWPOLYLINE
5
112
100
AcDbEntity
8
0
100
AcDbPolyline
90
8
70
1
43
0.0
10
136.50880892641396
20
-124.70486044393658
10
136.50880892641396
20
-137.70486044393658
42
-0.41421356237309503
10
136.00880892641396
20
-138.20486044393658
10
123.00880892641396
20
-138.20486044393658
42
-0.41421356237309503
10
122.50880892641396
20
-137.70486044393658
10
122.50880892641396
20
-124.70486044393658
42
-0.41421356237309503
10
123.00880892641396
20
-124.20486044393657
10
136.00880892641396
20
-124.20486044393657
42
-0.41421356237309503
0
LWPOLYLINE
5
113
100
AcDbEntity
8
0
100
AcDbPolyline
90
8
70
1
43
0.0
10
193.158808926414
20
-138.20486044393658
10
180.158808926414
20
-138.20486044393658
42
-0.41421356237309503
10
179.65880892641397
20
-137.70486044393658
10
179.65880892641397
20
-124.70486044393658
42
-0.41421356237309503
10
180.158808926414
20
-124.20486044393657
10
193.158808926414
20
-124.20486044393657
42
-0.41421356237309503
10
193.658808926414
20
-124.70486044393658
10
193.658808926414
20
-137.70486044393658
42
-0.41421356237309503
0
LWPOLYLINE
5
114
100
AcDbEntity
8
0
100
AcDbPolyline
90
8
70
1
43
0.0
10
231.75880892641399
20
-137.70486044393658
42
-0.41421356237309503
10
231.25880892641396
20
-138.20486044393658
10
218.25880892641396
20
-138.20486044393658
42
-0.41421356237309503
10
217.75880892641396
20
-137.70486044393658
10
217.75880892641396
20
-124.70486044393658
42
-0.41421356237309503
10
218.25880892641396
20
-124.20486044393657
10
231.25880892641396
20
-124.20486044393657
42
-0.41421356237309503
10
231.75880892641399
20
-124.70486044393658
0
LWPOLYLINE
5
115
100
AcDbEntity
8
0
100
AcDbPolyline
90
8
70
1
43
0.0
10
8.2088089264139654
20
-143.75486044393656
42
-0.41421356237309503
10
8.7088089264139548
20
-143.25486044393659
10
21.708808926413958
20
-143.25486044393656
42
-0.41421356237309503
10
22.208808926413962
20
-143.75486044393656
10
22.208808926413965
20
-156.75486044393659
42
-0.41421356237309503
10
21.708808926413958
20
-157.25486044393659
10
8.7088089264139548
20
-157.25486044393659
42
-0.41421356237309503
10
8.2088089264139583
20
-156.75486044393659
0
LWPOLYLINE
5
116
100
AcDbEntity
8
0
100
AcDbPolyline
90
8
70
1
43
0.0
10
40.758808926413963
20
-143.25486044393656
42
-0.41421356237309503
10
41.258808926413963
20
-143.75486044393656
10
41.25880892641397
20
-156.75486044393659
42
-0.41421356237309503
10
40.758808926413963
20
-157.25486044393659
10
27.758808926413955
20
-157.25486044393659
42
-0.41421356237309503
10
27.258808926413955
20
-156.75486044393659
10
27.258808926413963
20
-143.75486044393656
42
-0.41421356237309503
10
27.758808926413955
20
-143.25486044393659
0
LWPOLYLINE
5
117
100
AcDbEntity
8
0
100
AcDbPolyline
90
8
70
1
43
0.0
10
288.90880892641394
20
-124.70486044393658
10
288.90880892641394
20
-137.70486044393658
42
-0.41421356237309503
10
288.40880892641394
20
-138.20486044393658
10
275.40880892641394
20
-138.20486044393658
42
-0.41421356237309503
10
274.90880892641394
20
-137.70486044393658
10
274.90880892641394
20
-124.70486044393658
42
-0.41421356237309503
10
275.40880892641394
20
-124.20486044393657
10
288.40880892641394
20
-124.20486044393657
42
-0.41421356237309503
0
LWPOLYLINE
5
118
100
AcDbEntity
8
0
100
AcDbPolyline
90
8
70
1
43
0.0
10
-10.341191073586044
20
-143.25486044393659
10
2.6588089264139558
20
-143.25486044393656
42
-0.41421356237309503
10
3.1588089264139541
20
-143.75486044393656
10
3.1588089264139629
20
-156.75486044393659
42
-0.41421356237309503
10
2.6588089264139558
20
-157.25486044393659
10
-10.341191073586044
20
-157.25486044393659
42
-0.41421356237309503
10
-10.841191073586046
20
-156.75486044393659
10
-10.841191073586034
20
-143.75486044393656
42
-0.41421356237309503
0
LWPOLYLINE
5
119
100
AcDbEntity
8
0
100
AcDbPolyline
90
8
70
1
43
0.0
10
59.808808926413953
20
-143.25486044393656
42
-0.41421356237309503
10
60.308808926413953
20
-143.75486044393656
10
60.30880892641396
20
-156.75486044393659
42
-0.41421356237309503
10
59.808808926413953
20
-157.25486044393659
10
46.80880892641396
20
-157.25486044393659
42
-0.41421356237309503
10
46.30880892641396
20
-156.75486044393659
10
46.308808926413967
20
-143.75486044393656
42
-0.41421356237309503
10
46.80880892641396
20
-143.25486044393659
0
LWPOLYLINE
5
120
100
AcDbEntity
8
0
100
AcDbPolyline
90
8
70
1
43
0.0
10
79.358808926413957
20
-156.75486044393659
42
-0.41421356237309503
10
78.858808926413957
20
-157.25486044393659
10
65.858808926413957
20
-157.25486044393659
42
-0.41421356237309503
10
65.358808926413957
20
-156.75486044393659
10
65.358808926413957
20
-143.75486044393656
42
-0.41421356237309503
10
65.858808926413957
20
-143.25486044393659
10
78.858808926413957
20
-143.25486044393656
42
-0.41421356237309503
10
79.358808926413957
20
-143.75486044393656
0
LWPOLYLINE
5
121
100
AcDbEntity
8
0
100
AcDbPolyline
90
8
70
1
43
0.0
10
97.908808926413968
20
-143.25486044393656
42
-0.41421356237309503
10
98.408808926413968
20
-143.75486044393656
10
98.408808926413968
20
-156.75486044393659
42
-0.41421356237309503
10
97.908808926413968
20
-157.25486044393659
10
84.908808926413968
20
-157.25486044393656
42
-0.41421356237309503
10
84.408808926413968
20
-156.75486044393659
10
84.408808926413968
20
-143.75486044393656
42
-0.41421356237309503
10
84.908808926413968
20
-143.25486044393659
0
LWPOLYLINE
5
122
100
AcDbEntity
8
0
100
AcDbPolyline
90
8
70
1
43
0.0
10
103.95880892641398
20
-157.25486044393659
42
-0.41421356237309503
10
103.45880892641397
20
-156.75486044393659
10
103.45880892641398
20
-143.75486044393656
42
-0.41421356237309503
10
103.95880892641398
20
-143.25486044393659
10
116.95880892641395
20
-143.25486044393656
42
-0.41421356237309503
10
117.45880892641395
20
-143.75486044393656
10
117.45880892641395
20
-156.75486044393659
42
-0.41421356237309503
10
116.95880892641395
20
-157.25486044393659
0
LWPOLYLINE
5
123
100
AcDbEntity
8
0
100
AcDbPolyline
90
8
70
1
43
0.0
10
256.35880892641399
20
-157.25486044393659
42
-0.41421356237309503
10
255.85880892641399
20
-156.75486044393659
10
255.85880892641399
20
-143.75486044393656
42
-0.41421356237309503
10
256.35880892641399
20
-143.25486044393659
10
269.35880892641399
20
-143.25486044393656
42
-0.41421356237309503
10
269.85880892641399
20
-143.75486044393656
10
269.85880892641399
20
-156.75486044393659
42
-0.41421356237309503
10
269.35880892641399
20
-157.25486044393659
0
LWPOLYLINE
5
124
100
AcDbEntity
8
0
100
AcDbPolyline
90
8
70
1
43
0.0
10
142.05880892641397
20
-143.25486044393659
10
155.05880892641397
20
-143.25486044393656
42
-0.41421356237309503
10
155.55880892641397
20
-143.75486044393656
10
155.55880892641397
20
-156.75486044393659
42
-0.41421356237309503
10
155.05880892641397
20
-157.25486044393659
10
142.05880892641397
20
-157.25486044393659
42
-0.41421356237309503
10
141.55880892641397
20
-156.75486044393659
10
141.55880892641397
20
-143.75486044393656
42
-0.41421356237309503
0
LWPOLYLINE
5
125
100
AcDbEntity
8
0
100
AcDbPolyline
90
8
70
1
43
0.0
10
174.10880892641393
20
-143.25486044393656
42
-0.41421356237309503
10
174.60880892641396
20
-143.75486044393656
10
174.60880892641396
20
-156.75486044393659
42
-0.41421356237309503
10
174.10880892641393
20
-157.25486044393659
10
161.10880892641399
20
-157.25486044393659
42
-0.41421356237309503
10
160.60880892641396
20
-156.75486044393659
10
160.60880892641399
20
-143.75486044393656
42
-0.41421356237309503
10
161.10880892641399
20
-143.25486044393659
0
LWPOLYLINE
5
126
100
AcDbEntity
8
0
100
AcDbPolyline
90
8
70
1
43
0.0
10
123.00880892641396
20
-143.25486044393659
10
136.00880892641396
20
-143.25486044393656
42
-0.41421356237309503
10
136.50880892641396
20
-143.75486044393656
10
136.50880892641396
20
-156.75486044393659
42
-0.41421356237309503
10
136.00880892641396
20
-157.25486044393659
10
123.00880892641396
20
-157.25486044393659
42
-0.41421356237309503
10
122.50880892641396
20
-156.75486044393659
10
122.50880892641398
20
-143.75486044393656
42
-0.41421356237309503
0
LWPOLYLINE
5
127
100
AcDbEntity
8
0
100
AcDbPolyline
90
8
70
1
43
0.0
10
212.20880892641395
20
-157.25486044393659
10
199.20880892641395
20
-157.25486044393659
42
-0.41421356237309503
10
198.70880892641395
20
-156.75486044393659
10
198.70880892641395
20
-143.75486044393656
42
-0.41421356237309503
10
199.20880892641395
20
-143.25486044393659
10
212.20880892641395
20
-143.25486044393656
42
-0.41421356237309503
10
212.70880892641398
20
-143.75486044393656
10
212.70880892641398
20
-156.75486044393659
42
-0.41421356237309503
0
LWPOLYLINE
5
128
100
AcDbEntity
8
0
100
AcDbPolyline
90
8
70
1
43
0.0
10
193.158808926414
20
-143.25486044393656
42
-0.41421356237309503
10
193.658808926414
20
-143.75486044393656
10
193.658808926414
20
-156.75486044393659
42
-0.41421356237309503
10
193.158808926414
20
-157.25486044393659
10
180.158808926414
20
-157.25486044393659
42
-0.41421356237309503
10
179.65880892641397
20
-156.75486044393659
10
179.658808926414
20
-143.75486044393656
42
-0.41421356237309503
10
180.158808926414
20
-143.25486044393659
0
LWPOLYLINE
5
129
100
AcDbEntity
8
0
100
AcDbPolyline
90
8
70
1
43
0.0
10
231.25880892641396
20
-157.25486044393659
10
218.25880892641396
20
-157.25486044393659
42
-0.41421356237309503
10
217.75880892641396
20
-156.75486044393659
10
217.75880892641396
20
-143.75486044393656
42
-0.41421356237309503
10
218.25880892641396
20
-143.25486044393659
10
231.25880892641396
20
-143.25486044393656
42
-0.41421356237309503
10
231.75880892641399
20
-143.75486044393656
10
231.75880892641399
20
-156.75486044393659
42
-0.41421356237309503
0
LWPOLYLINE
5
130
100
AcDbEntity
8
0
100
AcDbPolyline
90
8
70
1
43
0.0
10
236.80880892641397
20
-143.75486044393656
42
-0.41421356237309503
10
237.30880892641397
20
-143.25486044393659
10
250.30880892641397
20
-143.25486044393656
42
-0.41421356237309503
10
250.808808926414
20
-143.75486044393656
10
250.808808926414
20
-156.75486044393659
42
-0.41421356237309503
10
250.30880892641397
20
-157.25486044393659
10
237.30880892641397
20
-157.25486044393659
42
-0.41421356237309503
10
236.80880892641397
20
-156.75486044393659
0
LWPOLYLINE
5
131
100
AcDbEntity
8
0
100
AcDbPolyline
90
8
70
1
43
0.0
10
116.95880892641395
20
-162.30486044393658
42
-0.41421356237309503
10
117.45880892641395
20
-162.80486044393658
10
117.45880892641392
20
-175.8048604439366
42
-0.41421356237309503
10
116.95880892641395
20
-176.30486044393655
10
103.95880892641398
20
-176.3048604439366
42
-0.41421356237309503
10
103.45880892641397
20
-175.8048604439366
10
103.45880892641397
20
-162.80486044393658
42
-0.41421356237309503
10
103.95880892641398
20
-162.30486044393658
0
LWPOLYLINE
5
132
100
AcDbEntity
8
0
100
AcDbPolyline
90
8
70
1
43
0.0
10
84.408808926413954
20
-162.80486044393658
42
-0.41421356237309503
10
84.908808926413968
20
-162.30486044393658
10
97.908808926413968
20
-162.30486044393658
42
-0.41421356237309503
10
98.408808926413968
20
-162.80486044393658
10
98.40880892641394
20
-175.8048604439366
42
-0.41421356237309503
10
97.908808926413968
20
-176.30486044393655
10
84.908808926413968
20
-176.3048604439366
42
-0.41421356237309503
10
84.408808926413954
20
-175.8048604439366
0
LWPOLYLINE
5
133
100
AcDbEntity
8
0
100
AcDbPolyline
90
8
70
1
43
0.0
10
2.6588089264139558
20
-176.30486044393655
10
-10.341191073586044
20
-176.3048604439366
42
-0.41421356237309503
10
-10.841191073586046
20
-175.8048604439366
10
-10.841191073586051
20
-162.80486044393658
42
-0.41421356237309503
10
-10.341191073586044
20
-162.30486044393658
10
2.6588089264139558
20
-162.30486044393658
42
-0.41421356237309503
10
3.1588089264139541
20
-162.80486044393658
10
3.1588089264139274
20
-175.8048604439366
42
-0.41421356237309503
0
LWPOLYLINE
5
134
100
AcDbEntity
8
0
100
AcDbPolyline
90
8
70
1
43
0.0
10
65.358808926413957
20
-175.8048604439366
10
65.358808926413943
20
-162.80486044393658
42
-0.41421356237309503
10
65.858808926413957
20
-162.30486044393658
10
78.858808926413957
20
-162.30486044393658
42
-0.41421356237309503
10
79.358808926413957
20
-162.80486044393658
10
79.358808926413928
20
-175.8048604439366
42
-0.41421356237309503
10
78.858808926413957
20
-176.30486044393655
10
65.858808926413957
20
-176.3048604439366
42
-0.41421356237309503
0
LWPOLYLINE
5
135
100
AcDbEntity
8
0
100
AcDbPolyline
90
8
70
1
43
0.0
10
46.30880892641396
20
-175.8048604439366
10
46.308808926413946
20
-162.80486044393658
42
-0.41421356237309503
10
46.80880892641396
20
-162.30486044393658
10
59.808808926413953
20
-162.30486044393658
42
-0.41421356237309503
10
60.308808926413953
20
-162.80486044393658
10
60.308808926413924
20
-175.8048604439366
42
-0.41421356237309503
10
59.808808926413953
20
-176.30486044393655
10
46.80880892641396
20
-176.3048604439366
42
-0.41421356237309503
0
LWPOLYLINE
5
136
100
AcDbEntity
8
0
100
AcDbPolyline
90
8
70
1
43
0.0
10
288.90880892641394
20
-143.75486044393656
10
288.90880892641394
20
-156.75486044393659
42
-0.41421356237309503
10
288.40880892641394
20
-157.25486044393659
10
275.40880892641394
20
-157.25486044393654
42
-0.41421356237309503
10
274.90880892641394
20
-156.75486044393659
10
274.90880892641394
20
-143.75486044393656
42
-0.41421356237309503
10
275.40880892641394
20
-143.25486044393659
10
288.40880892641394
20
-143.25486044393656
42
-0.41421356237309503
0
LWPOLYLINE
5
137
100
AcDbEntity
8
0
100
AcDbPolyline
90
8
70
1
43
0.0
10
22.20880892641393
20
-175.8048604439366
42
-0.41421356237309503
10
21.708808926413958
20
-176.30486044393655
10
8.7088089264139548
20
-176.3048604439366
42
-0.41421356237309503
10
8.2088089264139583
20
-175.8048604439366
10
8.2088089264139477
20
-162.80486044393658
42
-0.41421356237309503
10
8.7088089264139548
20
-162.30486044393658
10
21.708808926413958
20
-162.30486044393658
42
-0.41421356237309503
10
22.208808926413962
20
-162.80486044393658
0
LWPOLYLINE
5
138
100
AcDbEntity
8
0
100
AcDbPolyline
90
8
70
1
43
0.0
10
41.258808926413963
20
-162.80486044393658
10
41.258808926413934
20
-175.8048604439366
42
-0.41421356237309503
10
40.758808926413963
20
-176.30486044393655
10
27.758808926413955
20
-176.3048604439366
42
-0.41421356237309503
10
27.258808926413955
20
-175.8048604439366
10
27.258808926413948
20
-162.80486044393658
42
-0.41421356237309503
10
27.758808926413955
20
-162.30486044393658
10
40.758808926413963
20
-162.30486044393658
42
-0.41421356237309503
0
LWPOLYLINE
5
139
100
AcDbEntity
8
0
100
AcDbPolyline
90
8
70
1
43
0.0
10
179.65880892641397
20
-162.80486044393658
42
-0.41421356237309503
10
180.158808926414
20
-162.30486044393658
10
193.158808926414
20
-162.30486044393658
42
-0.41421356237309503
10
193.658808926414
20
-162.80486044393658
10
193.65880892641397
20
-175.8048604439366
42
-0.41421356237309503
10
193.158808926414
20
-176.30486044393655
10
180.158808926414
20
-176.3048604439366
42
-0.41421356237309503
10
179.65880892641397
20
-175.8048604439366
0
LWPOLYLINE
5
140
100
AcDbEntity
8
0
100
AcDbPolyline
90
8
70
1
43
0.0
10
198.70880892641395
20
-175.8048604439366
10
198.70880892641395
20
-162.80486044393658
42
-0.41421356237309503
10
199.20880892641395
20
-162.30486044393658
10
212.20880892641395
20
-162.30486044393658
42
-0.41421356237309503
10
212.70880892641398
20
-162.80486044393658
10
212.70880892641395
20
-175.8048604439366
42
-0.41421356237309503
10
212.20880892641395
20
-176.30486044393655
10
199.20880892641395
20
-176.3048604439366
42
-0.41421356237309503
0
LWPOLYLINE
5
141
100
AcDbEntity
8
0
100
AcDbPolyline
90
8
70
1
43
0.0
10
174.60880892641393
20
-175.8048604439366
42
-0.41421356237309503
10
174.10880892641393
20
-176.30486044393655
10
161.10880892641399
20
-176.3048604439366
42
-0.41421356237309503
10
160.60880892641396
20
-175.8048604439366
10
160.60880892641396
20
-162.80486044393658
42
-0.41421356237309503
10
161.10880892641399
20
-162.30486044393658
10
174.10880892641393
20
-162.30486044393658
42
-0.41421356237309503
10
174.60880892641396
20
-162.80486044393658
0
LWPOLYLINE
5
142
100
AcDbEntity
8
0
100
AcDbPolyline
90
8
70
1
43
0.0
10
250.80880892641397
20
-175.8048604439366
42
-0.41421356237309503
10
250.30880892641397
20
-176.30486044393655
10
237.30880892641397
20
-176.3048604439366
42
-0.41421356237309503
10
236.80880892641397
20
-175.8048604439366
10
236.80880892641397
20
-162.80486044393658
42
-0.41421356237309503
10
237.30880892641397
20
-162.30486044393658
10
250.30880892641397
20
-162.30486044393658
42
-0.41421356237309503
10
250.808808926414
20
-162.80486044393658
0
LWPOLYLINE
5
143
100
AcDbEntity
8
0
100
AcDbPolyline
90
8
70
1
43
0.0
10
155.05880892641397
20
-162.30486044393658
42
-0.41421356237309503
10
155.55880892641397
20
-162.80486044393658
10
155.55880892641395
20
-175.8048604439366
42
-0.41421356237309503
10
155.05880892641397
20
-176.30486044393655
10
142.05880892641397
20
-176.3048604439366
42
-0.41421356237309503
10
141.55880892641397
20
-175.8048604439366
10
141.55880892641397
20
-162.80486044393658
42
-0.41421356237309503
10
142.05880892641397
20
-162.30486044393658
0
LWPOLYLINE
5
144
100
AcDbEntity
8
0
100
AcDbPolyline
90
8
70
1
43
0.0
10
123.00880892641396
20
-176.3048604439366
42
-0.41421356237309503
10
122.50880892641396
20
-175.8048604439366
10
122.50880892641396
20
-162.80486044393658
42
-0.41421356237309503
10
123.00880892641396
20
-162.30486044393658
10
136.00880892641396
20
-162.30486044393658
42
-0.41421356237309503
10
136.50880892641396
20
-162.80486044393658
10
136.50880892641393
20
-175.8048604439366
42
-0.41421356237309503
10
136.00880892641396
20
-176.30486044393655
0
LWPOLYLINE
5
145
100
AcDbEntity
8
0
100
AcDbPolyline
90
8
70
1
43
0.0
10
218.25880892641396
20
-162.30486044393658
10
231.25880892641396
20
-162.30486044393658
42
-0.41421356237309503
10
231.75880892641399
20
-162.80486044393658
10
231.75880892641396
20
-175.8048604439366
42
-0.41421356237309503
10
231.25880892641396
20
-176.30486044393655
10
218.25880892641396
20
-176.3048604439366
42
-0.41421356237309503
10
217.75880892641396
20
-175.8048604439366
10
217.75880892641396
20
-162.80486044393658
42
-0.41421356237309503
0
LWPOLYLINE
5
146
100
AcDbEntity
8
0
100
AcDbPolyline
90
8
70
1
43
0.0
10
256.35880892641399
20
-176.3048604439366
42
-0.41421356237309503
10
255.85880892641399
20
-175.8048604439366
10
255.85880892641399
20
-162.80486044393658
42
-0.41421356237309503
10
256.35880892641399
20
-162.30486044393658
10
269.35880892641399
20
-162.30486044393658
42
-0.41421356237309503
10
269.85880892641399
20
-162.80486044393658
10
269.85880892641399
20
-175.8048604439366
42
-0.41421356237309503
10
269.35880892641399
20
-176.30486044393655
0
LWPOLYLINE
5
147
100
AcDbEntity
8
0
100
AcDbPolyline
90
20
70
1
43
0.0
10
60.308808926413974
20
-200.90486044393654
10
60.308808926413981
20
-213.90486044393654
42
-0.41421356237309503
10
59.808808926413974
20
-214.40486044393654
10
55.046308926413971
20
-214.40486044393654
10
46.808808926413974
20
-214.40486044393654
10
42.046308926413978
20
-214.40486044393654
10
7.4213089264139764
20
-214.40486044393654
10
2.6588089264139736
20
-214.40486044393654
10
-5.5786910735860262
20
-214.40486044393654
10
-10.341191073586026
20
-214.40486044393654
42
-0.41421356237309503
10
-10.841191073586028
20
-213.90486044393654
10
-10.841191073585998
20
-200.90486044393654
42
-0.41421356237309503
10
-10.341191073586026
20
-200.40486044393657
10
-5.5786910735860262
20
-200.40486044393657
10
2.6588089264139736
20
-200.40486044393657
10
7.4213089264139764
20
-200.40486044393657
10
42.046308926413978
20
-200.40486044393657
10
46.808808926413974
20
-200.40486044393657
10
55.046308926413971
20
-200.40486044393657
10
59.808808926413974
20
-200.40486044393651
42
-0.41421356237309503
0
LWPOLYLINE
5
148
100
AcDbEntity
8
0
100
AcDbPolyline
90
12
70
1
43
0.0
10
79.358808926413985
20
-213.90486044393654
42
-0.41421356237309503
10
78.858808926413971
20
-214.40486044393654
10
75.858808926413971
20
-214.40486044393654
10
68.858808926413971
20
-214.40486044393654
10
65.858808926413971
20
-214.40486044393654
42
-0.41421356237309503
10
65.358808926413971
20
-213.90486044393654
10
65.358808926414
20
-200.90486044393654
42
-0.41421356237309503
10
65.858808926413971
20
-200.40486044393657
10
69.358808926413957
20
-200.40486044393657
10
75.358808926413985
20
-200.40486044393657
10
78.858808926413971
20
-200.40486044393651
42
-0.41421356237309503
10
79.358808926413985
20
-200.90486044393654
0
LWPOLYLINE
5
149
100
AcDbEntity
8
0
100
AcDbPolyline
90
8
70
1
43
0.0
10
288.90880892641394
20
-175.8048604439366
42
-0.41421356237309503
10
288.40880892641394
20
-176.30486044393655
10
275.40880892641394
20
-176.30486044393655
42
-0.41421356237309503
10
274.90880892641394
20
-175.8048604439366
10
274.90880892641394
20
-162.80486044393658
42
-0.41421356237309503
10
275.40880892641394
20
-162.30486044393658
10
288.40880892641394
20
-162.30486044393658
42
-0.41421356237309503
10
288.90880892641394
20
-162.80486044393658
0
LWPOLYLINE
5
150
100
AcDbEntity
8
0
100
AcDbPolyline
90
8
70
1
43
0.0
10
123.00880892641399
20
-214.40486044393654
42
-0.41421356237309503
10
122.50880892641398
20
-213.90486044393654
10
122.50880892641402
20
-200.90486044393654
42
-0.41421356237309503
10
123.00880892641399
20
-200.40486044393657
10
136.00880892641396
20
-200.40486044393651
42
-0.41421356237309503
10
136.50880892641399
20
-200.90486044393654
10
136.50880892641399
20
-213.90486044393654
42
-0.41421356237309503
10
136.00880892641396
20
-214.40486044393654
0
LWPOLYLINE
5
151
100
AcDbEntity
8
0
100
AcDbPolyline
90
8
70
1
43
0.0
10
174.60880892641399
20
-200.90486044393654
10
174.60880892641396
20
-213.90486044393654
42
-0.41421356237309503
10
174.10880892641393
20
-214.40486044393654
10
161.10880892641399
20
-214.40486044393651
42
-0.41421356237309503
10
160.60880892641399
20
-213.90486044393654
10
160.60880892641399
20
-200.90486044393654
42
-0.41421356237309503
10
161.10880892641399
20
-200.40486044393657
10
174.10880892641393
20
-200.40486044393649
42
-0.41421356237309503
0
LWPOLYLINE
5
152
100
AcDbEntity
8
0
100
AcDbPolyline
90
8
70
1
43
0.0
10
97.908808926413982
20
-214.40486044393654
10
84.908808926413982
20
-214.40486044393654
42
-0.41421356237309503
10
84.408808926413968
20
-213.90486044393654
10
84.408808926414011
20
-200.90486044393654
42
-0.41421356237309503
10
84.908808926413982
20
-200.40486044393657
10
97.908808926413982
20
-200.40486044393651
42
-0.41421356237309503
10
98.408808926413997
20
-200.90486044393654
10
98.408808926413997
20
-213.90486044393654
42
-0.41421356237309503
0
LWPOLYLINE
5
153
100
AcDbEntity
8
0
100
AcDbPolyline
90
12
70
1
43
0.0
10
103.95880892641399
20
-214.40486044393654
42
-0.41421356237309503
10
103.45880892641398
20
-213.90486044393654
10
103.45880892641402
20
-200.90486044393654
42
-0.41421356237309503
10
103.95880892641399
20
-200.40486044393657
10
107.45880892641398
20
-200.40486044393657
10
113.45880892641398
20
-200.40486044393657
10
116.95880892641397
20
-200.40486044393651
42
-0.41421356237309503
10
117.45880892641397
20
-200.90486044393654
10
117.45880892641397
20
-213.90486044393654
42
-0.41421356237309503
10
116.95880892641397
20
-214.40486044393654
10
113.95880892641399
20
-214.40486044393654
10
106.95880892641398
20
-214.40486044393654
0
LWPOLYLINE
5
154
100
AcDbEntity
8
0
100
AcDbPolyline
90
12
70
1
43
0.0
10
183.658808926414
20
-200.40486044393657
10
189.658808926414
20
-200.40486044393657
10
193.15880892641403
20
-200.40486044393657
42
-0.41421356237309503
10
193.658808926414
20
-200.90486044393654
10
193.65880892641403
20
-213.90486044393654
42
-0.41421356237309503
10
193.15880892641403
20
-214.40486044393654
10
190.158808926414
20
-214.40486044393654
10
183.15880892641403
20
-214.40486044393654
10
180.158808926414
20
-214.40486044393651
42
-0.41421356237309503
10
179.658808926414
20
-213.90486044393654
10
179.658808926414
20
-200.90486044393654
42
-0.41421356237309503
10
180.158808926414
20
-200.40486044393657
0
LWPOLYLINE
5
155
100
AcDbEntity
8
0
100
AcDbPolyline
90
12
70
1
43
0.0
10
155.558808926414
20
-213.90486044393654
42
-0.41421356237309503
10
155.05880892641397
20
-214.40486044393654
10
152.05880892641397
20
-214.40486044393654
10
145.05880892641397
20
-214.40486044393654
10
142.058808926414
20
-214.40486044393654
42
-0.41421356237309503
10
141.55880892641397
20
-213.90486044393654
10
141.55880892641403
20
-200.90486044393654
42
-0.41421356237309503
10
142.058808926414
20
-200.40486044393657
10
145.558808926414
20
-200.40486044393657
10
151.558808926414
20
-200.40486044393657
10
155.05880892641397
20
-200.40486044393651
42
-0.41421356237309503
10
155.558808926414
20
-200.90486044393654
0
LWPOLYLINE
5
156
100
AcDbEntity
8
0
100
AcDbPolyline
90
8
70
1
43
0.0
10
255.85880892641404
20
-200.90486044393654
42
-0.41421356237309503
10
256.35880892641404
20
-200.40486044393657
10
269.35880892641399
20
-200.40486044393649
42
-0.41421356237309503
10
269.85880892641404
20
-200.90486044393654
10
269.85880892641399
20
-213.90486044393654
42
-0.41421356237309503
10
269.35880892641399
20
-214.40486044393654
10
256.35880892641404
20
-214.40486044393657
42
-0.41421356237309503
10
255.85880892641399
20
-213.90486044393654
0
LWPOLYLINE
5
157
100
AcDbEntity
8
0
100
AcDbPolyline
90
8
70
1
43
0.0
10
250.808808926414
20
-213.90486044393654
42
-0.41421356237309503
10
250.30880892641397
20
-214.40486044393654
10
237.30880892641403
20
-214.40486044393657
42
-0.41421356237309503
10
236.80880892641397
20
-213.90486044393654
10
236.80880892641403
20
-200.90486044393654
42
-0.41421356237309503
10
237.30880892641403
20
-200.40486044393657
10
250.30880892641397
20
-200.40486044393649
42
-0.41421356237309503
10
250.80880892641403
20
-200.90486044393654
0
LWPOLYLINE
5
158
100
AcDbEntity
8
0
100
AcDbPolyline
90
14
70
1
43
0.0
10
231.25880892641396
20
-200.40486044393649
42
-0.41421356237309503
10
231.75880892641402
20
-200.90486044393654
10
231.75880892641399
20
-213.90486044393654
42
-0.41421356237309503
10
231.25880892641396
20
-214.40486044393654
10
218.25880892641402
20
-214.40486044393654
10
212.20880892641395
20
-214.40486044393654
10
203.971308926414
20
-214.40486044393654
10
199.20880892641401
20
-214.40486044393657
42
-0.41421356237309503
10
198.70880892641395
20
-213.90486044393654
10
198.70880892641401
20
-200.90486044393654
42
-0.41421356237309503
10
199.20880892641401
20
-200.40486044393657
10
203.971308926414
20
-200.40486044393657
10
212.20880892641395
20
-200.40486044393657
10
218.25880892641402
20
-200.40486044393657
0
LWPOLYLINE
5
159
100
AcDbEntity
8
0
100
AcDbPolyline
90
8
70
1
43
0.0
10
274.90880892641394
20
-213.90486044393657
10
274.908808926414
20
-200.90486044393657
42
-0.41421356237309503
10
275.40880892641394
20
-200.4048604439366
10
288.40880892641394
20
-200.40486044393651
42
-0.41421356237309503
10
288.908808926414
20
-200.90486044393657
10
288.90880892641394
20
-213.90486044393657
42
-0.41421356237309503
10
288.40880892641394
20
-214.40486044393657
10
275.40880892641394
20
-214.40486044393663
42
-0.41421356237309503
0
LWPOLYLINE
5
160
100
AcDbEntity
8
0
100
AcDbPolyline
90
8
70
1
43
0.0
10
-10.841191073586028
20
-194.85486044393656
10
-10.841191073586034
20
-181.85486044393656
42
-0.41421356237309503
10
-10.341191073586026
20
-181.35486044393656
10
2.6588089264139736
20
-181.35486044393656
42
-0.41421356237309503
10
3.1588089264139718
20
-181.85486044393656
10
3.1588089264139452
20
-194.85486044393656
42
-0.41421356237309503
10
2.6588089264139736
20
-195.35486044393653
10
-10.341191073586026
20
-195.35486044393656
42
-0.41421356237309503
0
LWPOLYLINE
5
161
100
AcDbEntity
8
0
100
AcDbPolyline
90
8
70
1
43
0.0
10
8.2088089264139761
20
-194.85486044393656
10
8.2088089264139654
20
-181.85486044393656
42
-0.41421356237309503
10
8.7088089264139725
20
-181.35486044393656
10
21.708808926413976
20
-181.35486044393656
42
-0.41421356237309503
10
22.20880892641398
20
-181.85486044393656
10
22.208808926413948
20
-194.85486044393656
42
-0.41421356237309503
10
21.708808926413976
20
-195.35486044393653
10
8.7088089264139725
20
-195.35486044393656
42
-0.41421356237309503
0
LWPOLYLINE
5
162
100
AcDbEntity
8
0
100
AcDbPolyline
90
8
70
1
43
0.0
10
27.258808926413973
20
-194.85486044393656
10
27.258808926413963
20
-181.85486044393656
42
-0.41421356237309503
10
27.75880892641397
20
-181.35486044393656
10
40.758808926413977
20
-181.35486044393656
42
-0.41421356237309503
10
41.258808926413977
20
-181.85486044393656
10
41.258808926413948
20
-194.85486044393656
42
-0.41421356237309503
10
40.758808926413977
20
-195.35486044393653
10
27.75880892641397
20
-195.35486044393656
42
-0.41421356237309503
0
LWPOLYLINE
5
163
100
AcDbEntity
8
0
100
AcDbPolyline
90
8
70
1
43
0.0
10
46.308808926413974
20
-194.85486044393656
10
46.308808926413967
20
-181.85486044393656
42
-0.41421356237309503
10
46.808808926413974
20
-181.35486044393656
10
59.808808926413974
20
-181.35486044393656
42
-0.41421356237309503
10
60.308808926413974
20
-181.85486044393656
10
60.308808926413946
20
-194.85486044393656
42
-0.41421356237309503
10
59.808808926413974
20
-195.35486044393653
10
46.808808926413974
20
-195.35486044393656
42
-0.41421356237309503
0
LWPOLYLINE
5
164
100
AcDbEntity
8
0
100
AcDbPolyline
90
8
70
1
43
0.0
10
65.358808926413971
20
-194.85486044393656
10
65.358808926413957
20
-181.85486044393656
42
-0.41421356237309503
10
65.858808926413971
20
-181.35486044393656
10
78.858808926413971
20
-181.35486044393656
42
-0.41421356237309503
10
79.358808926413985
20
-181.85486044393656
10
79.358808926413943
20
-194.85486044393656
42
-0.41421356237309503
10
78.858808926413971
20
-195.35486044393653
10
65.858808926413971
20
-195.35486044393656
42
-0.41421356237309503
0
LWPOLYLINE
5
165
100
AcDbEntity
8
0
100
AcDbPolyline
90
8
70
1
43
0.0
10
84.408808926413968
20
-194.85486044393656
10
84.408808926413968
20
-181.85486044393656
42
-0.41421356237309503
10
84.908808926413982
20
-181.35486044393656
10
97.908808926413982
20
-181.35486044393656
42
-0.41421356237309503
10
98.408808926413997
20
-181.85486044393656
10
98.408808926413954
20
-194.85486044393656
42
-0.41421356237309503
10
97.908808926413982
20
-195.35486044393653
10
84.908808926413982
20
-195.35486044393656
42
-0.41421356237309503
0
LWPOLYLINE
5
166
100
AcDbEntity
8
0
100
AcDbPolyline
90
8
70
1
43
0.0
10
103.45880892641398
20
-194.85486044393656
10
103.45880892641398
20
-181.85486044393656
42
-0.41421356237309503
10
103.95880892641399
20
-181.35486044393656
10
116.95880892641397
20
-181.35486044393656
42
-0.41421356237309503
10
117.45880892641397
20
-181.85486044393656
10
117.45880892641394
20
-194.85486044393656
42
-0.41421356237309503
10
116.95880892641397
20
-195.35486044393653
10
103.95880892641399
20
-195.35486044393656
42
-0.41421356237309503
0
LWPOLYLINE
5
167
100
AcDbEntity
8
0
100
AcDbPolyline
90
8
70
1
43
0.0
10
122.50880892641398
20
-194.85486044393656
10
122.50880892641398
20
-181.85486044393656
42
-0.41421356237309503
10
123.00880892641399
20
-181.35486044393656
10
136.00880892641396
20
-181.35486044393656
42
-0.41421356237309503
10
136.50880892641399
20
-181.85486044393656
10
136.50880892641393
20
-194.85486044393656
42
-0.41421356237309503
10
136.00880892641396
20
-195.35486044393653
10
123.00880892641399
20
-195.35486044393656
42
-0.41421356237309503
0
LWPOLYLINE
5
168
100
AcDbEntity
8
0
100
AcDbPolyline
90
8
70
1
43
0.0
10
141.55880892641397
20
-194.85486044393656
10
141.55880892641397
20
-181.85486044393656
42
-0.41421356237309503
10
142.058808926414
20
-181.35486044393656
10
155.05880892641397
20
-181.35486044393656
42
-0.41421356237309503
10
155.558808926414
20
-181.85486044393656
10
155.55880892641395
20
-194.85486044393656
42
-0.41421356237309503
10
155.05880892641397
20
-195.35486044393653
10
142.058808926414
20
-195.35486044393656
42
-0.41421356237309503
0
LWPOLYLINE
5
169
100
AcDbEntity
8
0
100
AcDbPolyline
90
8
70
1
43
0.0
10
160.60880892641399
20
-194.85486044393656
10
160.60880892641396
20
-181.85486044393656
42
-0.41421356237309503
10
161.10880892641399
20
-181.35486044393656
10
174.10880892641393
20
-181.3548604439365
42
-0.41421356237309503
10
174.60880892641399
20
-181.85486044393656
10
174.60880892641393
20
-194.85486044393656
42
-0.41421356237309503
10
174.10880892641393
20
-195.35486044393653
10
161.10880892641399
20
-195.35486044393653
42
-0.41421356237309503
0
LWPOLYLINE
5
170
100
AcDbEntity
8
0
100
AcDbPolyline
90
8
70
1
43
0.0
10
179.658808926414
20
-194.85486044393656
10
179.65880892641397
20
-181.85486044393656
42
-0.41421356237309503
10
180.158808926414
20
-181.35486044393656
10
193.15880892641403
20
-181.35486044393659
42
-0.41421356237309503
10
193.658808926414
20
-181.85486044393656
10
193.658808926414
20
-194.85486044393656
42
-0.41421356237309503
10
193.15880892641403
20
-195.35486044393653
10
180.158808926414
20
-195.35486044393653
42
-0.41421356237309503
0
LWPOLYLINE
5
171
100
AcDbEntity
8
0
100
AcDbPolyline
90
8
70
1
43
0.0
10
198.70880892641395
20
-194.85486044393656
10
198.70880892641398
20
-181.85486044393656
42
-0.41421356237309503
10
199.20880892641401
20
-181.35486044393656
10
212.20880892641395
20
-181.3548604439365
42
-0.41421356237309503
10
212.70880892641401
20
-181.85486044393656
10
212.70880892641395
20
-194.85486044393656
42
-0.41421356237309503
10
212.20880892641395
20
-195.35486044393653
10
199.20880892641401
20
-195.35486044393662
42
-0.41421356237309503
0
LWPOLYLINE
5
172
100
AcDbEntity
8
0
100
AcDbPolyline
90
8
70
1
43
0.0
10
217.75880892641396
20
-194.85486044393656
10
217.75880892641399
20
-181.85486044393656
42
-0.41421356237309503
10
218.25880892641402
20
-181.35486044393656
10
231.25880892641396
20
-181.3548604439365
42
-0.41421356237309503
10
231.75880892641402
20
-181.85486044393656
10
231.75880892641396
20
-194.85486044393656
42
-0.41421356237309503
10
231.25880892641396
20
-195.35486044393653
10
218.25880892641402
20
-195.35486044393662
42
-0.41421356237309503
0
LWPOLYLINE
5
173
100
AcDbEntity
8
0
100
AcDbPolyline
90
8
70
1
43
0.0
10
236.80880892641397
20
-194.85486044393656
10
236.808808926414
20
-181.85486044393656
42
-0.41421356237309503
10
237.30880892641403
20
-181.35486044393656
10
250.30880892641397
20
-181.3548604439365
42
-0.41421356237309503
10
250.80880892641403
20
-181.85486044393656
10
250.80880892641397
20
-194.85486044393656
42
-0.41421356237309503
10
250.30880892641397
20
-195.35486044393653
10
237.30880892641403
20
-195.35486044393662
42
-0.41421356237309503
0
LWPOLYLINE
5
174
100
AcDbEntity
8
0
100
AcDbPolyline
90
8
70
1
43
0.0
10
255.85880892641399
20
-194.85486044393656
10
255.85880892641401
20
-181.85486044393656
42
-0.41421356237309503
10
256.35880892641404
20
-181.35486044393656
10
269.35880892641399
20
-181.3548604439365
42
-0.41421356237309503
10
269.85880892641404
20
-181.85486044393656
10
269.85880892641399
20
-194.85486044393656
42
-0.41421356237309503
10
269.35880892641399
20
-195.35486044393653
10
256.35880892641404
20
-195.35486044393662
42
-0.41421356237309503
0
LWPOLYLINE
5
175
100
AcDbEntity
8
0
100
AcDbPolyline
90
8
70
1
43
0.0
10
274.908808926414
20
-194.85486044393656
10
274.90880892641394
20
-181.85486044393656
42
-0.41421356237309503
10
275.40880892641394
20
-181.35486044393656
10
288.40880892641394
20
-181.3548604439365
42
-0.41421356237309503
10
288.908808926414
20
-181.85486044393656
10
288.90880892641394
20
-194.85486044393656
42
-0.41421356237309503
10
288.40880892641394
20
-195.35486044393653
10
275.40880892641394
20
-195.35486044393653
42
-0.41421356237309503
0
LWPOLYLINE
5
176
100
AcDbEntity
8
0
100
AcDbPolyline
90
102
70
1
43
0.0
10
11.547744889613911
20
-120.43663560957647
10
57.908808926413769
20
-120.43663560957656
42
0.41421356237307944
10
58.908808926413876
20
-119.43663560957647
10
58.908808926413784
20
-117.85486044441656
42
-0.41421356237308982
10
59.908808926413784
20
-116.85486044441659
10
67.736996657525765
20
-116.85486044441646
42
-0.41421356237309892
10
69.736996657525765
20
-118.85486044441647
10
69.736996657525765
20
-119.20486044433648
42
0.41421356237310025
10
71.736996657525765
20
-121.20486044433648
10
98.930621195305676
20
-121.20486044433655
42
0.41421356237309503
10
100.93062119530566
20
-119.20486044433656
10
100.93062119530573
20
-118.85486044441647
42
-0.41421356237310281
10
102.93062119530566
20
-116.85486044441657
10
115.67274488962362
20
-116.85486044441659
42
-0.41421356237310025
10
116.67274488962362
20
-117.85486044441656
10
116.67274488962362
20
-119.43663560957646
42
0.41421356237308982
10
117.6727448896236
20
-120.43663560957646
10
165.03380892641354
20
-120.43663560957646
42
0.41421356237310025
10
166.03380892641349
20
-119.43663560957646
10
166.03380892641349
20
-117.85486044441656
42
-0.41421356237311063
10
167.03380892641349
20
-116.85486044441657
10
176.23699665752343
20
-116.85486044441646
42
-0.41421356237309503
10
178.23699665752343
20
-118.85486044441646
10
178.23699665752343
20
-119.15067243384644
42
0.41421356237309764
10
180.23699665752346
20
-121.15067243384644
10
205.03062119530341
20
-121.15067243384642
42
0.41421356237307422
10
207.03062119530335
20
-119.15067243384644
10
207.03062119530335
20
-118.85486044441643
42
-0.41421356237309764
10
209.03062119530335
20
-116.85486044441654
10
227.79774488962332
20
-116.85486044441653
42
-0.41421356237310542
10
228.79774488962329
20
-117.85486044441654
10
228.79774488962329
20
-119.43663560957644
42
0.41421356237307944
10
229.79774488962329
20
-120.43663560957641
10
268.85880892641319
20
-120.43663560957641
42
0.41421356237311585
10
269.85880892641319
20
-119.43663560957644
10
269.85880892641313
20
-117.85486044441653
42
-0.41421356237308982
10
270.85880892641319
20
-116.85486044441632
10
278.12958629156213
20
-116.8548604444162
42
-0.39625535951326063
10
279.47701745410234
20
-118.12161825429362
42
0.39625535951328511
10
282.47130892641314
20
-120.9366356095764
10
289.65880892641314
20
-120.93663560957651
42
-0.41421356237309159
10
292.65880892641314
20
-123.93663560957648
10
292.65880892641314
20
-215.67308527877626
42
-0.41421356237310025
10
290.65880892641314
20
-217.67308527877623
10
282.47130892641314
20
-217.67308527877617
42
0.39625535951327417
10
279.47701745410217
20
-220.488102634059
42
-0.39625535951328816
10
278.12958629156219
20
-221.75486044393634
10
274.1588089264132
20
-221.75486044393622
42
-0.41421356237309503
10
273.1588089264132
20
-220.75486044393625
10
273.1588089264132
20
-219.17308527877617
42
0.4142135623730846
10
272.1588089264132
20
-218.17308527877614
10
229.79774488962332
20
-218.17308527877617
42
0.4142135623730846
10
228.79774488962335
20
-219.17308527877617
10
228.79774488962335
20
-220.75486044393625
42
-0.41421356237309503
10
227.79774488962332
20
-221.75486044393625
10
209.03062119530341
20
-221.75486044393625
42
-0.41421356237308982
10
207.03062119530335
20
-219.75486044393625
10
207.03062119530335
20
-219.45904845450627
42
0.41421356237310025
10
205.03062119530341
20
-217.45904845450625
10
180.23699665752349
20
-217.45904845450627
42
0.41421356237308982
10
178.23699665752346
20
-219.45904845450627
10
178.23699665752346
20
-219.75486044393631
42
-0.41421356237308982
10
176.23699665752349
20
-221.75486044393625
10
167.03380892641351
20
-221.75486044393631
42
-0.41421356237307422
10
166.03380892641351
20
-220.75486044393628
10
166.03380892641351
20
-219.17308527877617
42
0.41421356237312623
10
165.03380892641354
20
-218.17308527877617
10
117.67274488962363
20
-218.17308527877617
42
0.4142135623730846
10
116.67274488962364
20
-219.1730852787762
10
116.67274488962363
20
-220.75486044393628
42
-0.41421356237311063
10
115.67274488962363
20
-221.75486044393631
10
102.93062119530568
20
-221.75486044393622
42
-0.41421356237308982
10
100.93062119530569
20
-219.75486044393625
10
100.93062119530569
20
-219.40486044401626
42
0.4142135623730846
10
98.93062119530569
20
-217.40486044401626
10
71.736996657525779
20
-217.40486044401638
42
0.41421356237308854
10
69.736996657525793
20
-219.40486044401641
10
69.736996657525793
20
-219.75486044393625
42
-0.41421356237309115
10
67.736996657525793
20
-221.75486044393631
10
59.908808926413798
20
-221.75486044393631
42
-0.41421356237309243
10
58.908808926413805
20
-220.75486044393628
10
58.908808926413805
20
-219.1730852787762
42
0.41421356237307683
10
57.908808926413819
20
-218.17308527877623
10
11.547744889613956
20
-218.17308527877623
42
0.414213562373069
10
10.547744889613941
20
-219.1730852787762
10
10.547744889613959
20
-220.75486044393628
42
-0.41421356237312723
10
9.5477448896139432
20
-221.75486044393634
10
-3.5536910735860689
20
-221.75486044393634
42
-0.41421356237307977
10
-4.903691073586014
20
-220.40486044393631
10
-4.9036910735860015
20
-219.67308719825209
42
0.41421356237308971
10
-6.9036910735859882
20
-217.67308719825212
10
-12.591191073585986
20
-217.67308719825212
42
-0.41421356237309731
10
-14.591191073585978
20
-215.67308719825212
10
-14.591191073586028
20
-123.9366356095766
42
-0.4142135623730942
10
-11.59119107358601
20
-120.93663560957658
10
-6.9036910735860246
20
-120.9366356095766
42
0.41421356237309065
10
-4.9036910735860495
20
-118.9366356095766
10
-4.9036910735860673
20
-118.20486044441662
42
-0.41421356237309553
10
-3.5536910735860494
20
-116.8548604444166
10
9.5477448896139272
20
-116.85486044441659
42
-0.41421356237307649
10
10.547744889613888
20
-117.85486044441657
10
10.547744889613908
20
-119.43663560957648
42
0.41421356237307161
0
CIRCLE
5
177
100
AcDbEntity
8
0
100
AcDbCircle
10
12.827259206413935
20
-150.25480964393648
30
0
40
2.2499999999999938
210
0
220
0
230
1
0
CIRCLE
5
178
100
AcDbEntity
8
0
100
AcDbCircle
10
29.496308926413892
20
-197.87995953963639
30
0
40
2.2499999999999938
210
0
220
0
230
1
0
CIRCLE
5
179
100
AcDbEntity
8
0
100
AcDbCircle
10
60.439858926413699
20
-178.86161044393631
30
0
40
2.2499999999999938
210
0
220
0
230
1
0
CIRCLE
5
180
100
AcDbEntity
8
0
100
AcDbCircle
10
96.171306386413676
20
-159.77985793963842
30
0
40
2.2499999999999938
210
0
220
0
230
1
0
CIRCLE
5
181
100
AcDbEntity
8
0
100
AcDbCircle
10
172.37130638641347
20
-159.77985793963842
30
0
40
2.2499999999999938
210
0
220
0
230
1
0
CIRCLE
5
182
100
AcDbEntity
8
0
100
AcDbCircle
10
270.00325996641317
20
-150.25480964393634
30
0
40
2.2499999999999938
210
0
220
0
230
1
0
CIRCLE
5
183
100
AcDbEntity
8
0
100
AcDbCircle
10
272.3838063864132
20
-197.87990873963628
30
0
40
2.2499999999999938
210
0
220
0
230
1
0
CIRCLE
5
184
100
AcDbEntity
8
0
100
AcDbCircle
10
139.0020589264135
20
-207.4047766239363
30
0
40
2.2499999999999938
210
0
220
0
230
1
0
ENDSEC
0
SECTION
2
OBJECTS
0
DICTIONARY
5
C
100
AcDbDictionary
3
ACAD_GROUP
350
D
3
ACAD_MLINESTYLE
350
17
0
DICTIONARY
5
D
100
AcDbDictionary
0
DICTIONARY
5
1A
330
C
100
AcDbDictionary
0
DICTIONARY
5
17
100
AcDbDictionary
0
ENDSEC
0
EOF
