0
SECTION
2
HEADER
9
$INSUNITS
70
4
9
$ACADVER
1
AC1014
9
$HANDSEED
5
FFFF
0
ENDSEC
0
SECTION
2
TABLES
0
TABLE
2
VPORT
5
8
100
AcDbSymbolTable
0
ENDTAB
0
TABLE
2
LTYPE
5
5
100
AcDbSymbolTable
0
LTYPE
5
14
100
AcDbSymbolTableRecord
100
AcDbLinetypeTableRecord
2
BYBLOCK
70
0
0
LTYPE
5
15
100
AcDbSymbolTableRecord
100
AcDbLinetypeTableRecord
2
BYLAYER
70
0
0
ENDTAB
0
TABLE
2
LAYER
5
2
100
AcDbSymbolTable
70
2
0
LAYER
5
50
100
AcDbSymbolTableRecord
100
AcDbLayerTableRecord
2
0
70
0
6
CONTINUOUS
0
ENDTAB
0
TABLE
2
STYLE
5
3
100
AcDbSymbolTable
70
1
0
STYLE
5
11
100
AcDbSymbolTableRecord
100
AcDbTextStyleTableRecord
2
STANDARD
70
0
0
ENDTAB
0
TABLE
2
VIEW
5
6
100
AcDbSymbolTable
70
0
0
ENDTAB
0
TABLE
2
UCS
5
7
100
AcDbSymbolTable
70
0
0
ENDTAB
0
TABLE
2
APPID
5
9
100
AcDbSymbolTable
70
2
0
APPID
5
12
100
AcDbSymbolTableRecord
100
AcDbRegAppTableRecord
2
ACAD
70
0
0
ENDTAB
0
TABLE
2
DIMSTYLE
5
A
100
AcDbSymbolTable
70
1
0
ENDTAB
0
TABLE
2
BLOCK_RECORD
5
1
100
AcDbSymbolTable
70
1
0
BLOCK_RECORD
5
1F
100
AcDbSymbolTableRecord
100
AcDbBlockTableRecord
2
*MODEL_SPACE
0
BLOCK_RECORD
5
1B
100
AcDbSymbolTableRecord
100
AcDbBlockTableRecord
2
*PAPER_SPACE
0
ENDTAB
0
ENDSEC
0
SECTION
2
BLOCKS
0
BLOCK
5
20
100
AcDbEntity
100
AcDbBlockBegin
2
*MODEL_SPACE
0
ENDBLK
5
21
100
AcDbEntity
100
AcDbBlockEnd
0
BLOCK
5
1C
100
AcDbEntity
100
AcDbBlockBegin
2
*PAPER_SPACE
0
ENDBLK
5
1D
100
AcDbEntity
100
AcDbBlockEnd
0
ENDSEC
0
SECTION
2
ENTITIES
0
LWPOLYLINE
5
100
100
AcDbEntity
8
0
100
AcDbPolyline
90
8
70
1
43
0.0
10
57.776417348857393
20
95.740490085481866
42
-0.41421356237309503
10
58.526417348857393
20
94.990490085481866
10
58.526417348857379
20
82.490490085481866
42
-0.41421356237309503
10
57.776417348857393
20
81.740490085481881
10
45.276417348857393
20
81.740490085481881
42
-0.41421356237309503
10
44.526417348857386
20
82.490490085481866
10
44.526417348857379
20
94.990490085481866
42
-0.41421356237309503
10
45.276417348857393
20
95.740490085481881
0
LWPOLYLINE
5
101
100
AcDbEntity
8
0
100
AcDbPolyline
90
8
70
1
43
0.0
10
39.476417348857389
20
82.490490085481866
10
39.476417348857389
20
94.990490085481866
42
0.41421356237309503
10
38.726417348857389
20
95.740490085481881
10
26.226417348857382
20
95.740490085481881
42
0.41421356237309503
10
25.476417348857382
20
94.990490085481866
10
25.476417348857385
20
82.490490085481866
42
0.41421356237309503
10
26.226417348857382
20
81.740490085481881
10
38.726417348857389
20
81.740490085481881
42
0.41421356237309503
0
LWPOLYLINE
5
102
100
AcDbEntity
8
0
100
AcDbPolyline
90
8
70
1
43
0.0
10
19.676417348857385
20
95.740490085481881
10
7.1764173488573846
20
95.740490085481881
42
0.41421356237309503
10
6.4264173488573846
20
94.990490085481866
10
6.4264173488573846
20
82.490490085481866
42
0.41421356237309503
10
7.1764173488573846
20
81.740490085481881
10
19.676417348857385
20
81.740490085481881
42
0.41421356237309503
10
20.426417348857385
20
82.490490085481866
10
20.426417348857385
20
94.990490085481866
42
0.41421356237309503
0
LWPOLYLINE
5
103
100
AcDbEntity
8
0
100
AcDbPolyline
90
8
70
1
43
0.0
10
63.57641734885739
20
82.490490085481866
10
63.576417348857383
20
94.990490085481866
42
-0.41421356237309503
10
64.32641734885739
20
95.740490085481881
10
76.82641734885739
20
95.740490085481866
42
-0.41421356237309503
10
77.57641734885739
20
94.990490085481866
10
77.57641734885739
20
82.490490085481866
42
-0.41421356237309503
10
76.82641734885739
20
81.740490085481881
10
64.32641734885739
20
81.740490085481881
42
-0.41421356237309503
0
LWPOLYLINE
5
104
100
AcDbEntity
8
0
100
AcDbPolyline
90
8
70
1
43
0.0
10
172.0764173488574
20
95.740490085481881
10
159.5764173488574
20
95.740490085481881
42
0.41421356237309503
10
158.8264173488574
20
94.990490085481866
10
158.8264173488574
20
82.490490085481866
42
0.41421356237309503
10
159.5764173488574
20
81.740490085481881
10
172.0764173488574
20
81.740490085481881
42
0.41421356237309503
10
172.8264173488574
20
82.490490085481866
10
172.8264173488574
20
94.990490085481866
42
0.41421356237309503
0
LWPOLYLINE
5
105
100
AcDbEntity
8
0
100
AcDbPolyline
90
8
70
1
43
0.0
10
191.12641734885739
20
81.740490085481881
10
178.62641734885739
20
81.740490085481881
42
-0.41421356237309503
10
177.87641734885739
20
82.490490085481866
10
177.87641734885739
20
94.990490085481866
42
-0.41421356237309503
10
178.62641734885739
20
95.740490085481881
10
191.12641734885739
20
95.740490085481866
42
-0.41421356237309503
10
191.87641734885739
20
94.990490085481866
10
191.87641734885739
20
82.490490085481866
42
-0.41421356237309503
0
LWPOLYLINE
5
106
100
AcDbEntity
8
0
100
AcDbPolyline
90
8
70
1
43
0.0
10
101.6764173488574
20
82.490490085481866
10
101.67641734885737
20
94.990490085481866
42
-0.41421356237309503
10
102.42641734885738
20
95.740490085481881
10
114.92641734885738
20
95.740490085481881
42
-0.41421356237309503
10
115.6764173488574
20
94.990490085481866
10
115.67641734885738
20
82.490490085481866
42
-0.41421356237309503
10
114.92641734885738
20
81.740490085481881
10
102.42641734885738
20
81.740490085481881
42
-0.41421356237309503
0
LWPOLYLINE
5
107
100
AcDbEntity
8
0
100
AcDbPolyline
90
8
70
1
43
0.0
10
210.1764173488574
20
81.740490085481881
10
197.6764173488574
20
81.740490085481881
42
-0.41421356237309503
10
196.9264173488574
20
82.490490085481866
10
196.9264173488574
20
94.990490085481866
42
-0.41421356237309503
10
197.6764173488574
20
95.740490085481881
10
210.1764173488574
20
95.740490085481866
42
-0.41421356237309503
10
210.9264173488574
20
94.990490085481866
10
210.9264173488574
20
82.490490085481866
42
-0.41421356237309503
0
LWPOLYLINE
5
108
100
AcDbEntity
8
0
100
AcDbPolyline
90
8
70
1
43
0.0
10
140.52641734885739
20
81.740490085481881
42
-0.41421356237309503
10
139.77641734885739
20
82.490490085481866
10
139.77641734885739
20
94.990490085481866
42
-0.41421356237309503
10
140.52641734885739
20
95.740490085481881
10
153.02641734885739
20
95.740490085481866
42
-0.41421356237309503
10
153.77641734885739
20
94.990490085481866
10
153.77641734885739
20
82.490490085481866
42
-0.41421356237309503
10
153.02641734885739
20
81.740490085481881
0
LWPOLYLINE
5
109
100
AcDbEntity
8
0
100
AcDbPolyline
90
8
70
1
43
0.0
10
95.876417348857373
20
81.740490085481881
10
83.376417348857373
20
81.740490085481881
42
-0.41421356237309503
10
82.626417348857387
20
82.490490085481866
10
82.626417348857359
20
94.990490085481866
42
-0.41421356237309503
10
83.376417348857373
20
95.740490085481881
10
95.876417348857373
20
95.740490085481866
42
-0.41421356237309503
10
96.626417348857373
20
94.990490085481866
10
96.626417348857373
20
82.490490085481866
42
-0.41421356237309503
0
LWPOLYLINE
5
110
100
AcDbEntity
8
0
100
AcDbPolyline
90
8
70
1
43
0.0
10
133.97641734885738
20
95.740490085481881
10
121.47641734885738
20
95.740490085481881
42
0.41421356237309503
10
120.72641734885738
20
94.990490085481866
10
120.72641734885738
20
82.490490085481866
42
0.41421356237309503
10
121.47641734885738
20
81.740490085481881
10
133.97641734885738
20
81.740490085481881
42
0.41421356237309503
10
134.72641734885738
20
82.490490085481866
10
134.72641734885738
20
94.990490085481866
42
0.41421356237309503
0
LWPOLYLINE
5
111
100
AcDbEntity
8
0
100
AcDbPolyline
90
8
70
1
43
0.0
10
229.22641734885735
20
95.740490085481881
10
216.72641734885735
20
95.740490085481881
42
0.41421356237309503
10
215.97641734885738
20
94.990490085481866
10
215.97641734885738
20
82.490490085481866
42
0.41421356237309503
10
216.72641734885735
20
81.740490085481881
10
229.22641734885735
20
81.740490085481881
42
0.41421356237309503
10
229.97641734885741
20
82.490490085481866
10
229.97641734885741
20
94.990490085481866
42
0.41421356237309503
0
LWPOLYLINE
5
112
100
AcDbEntity
8
0
100
AcDbPolyline
90
8
70
1
43
0.0
10
153.77641734885739
20
63.440490085481883
10
153.77641734885739
20
75.940490085481883
42
0.41421356237309503
10
153.02641734885739
20
76.690490085481869
10
140.52641734885739
20
76.690490085481869
42
0.41421356237309503
10
139.77641734885739
20
75.940490085481883
10
139.77641734885739
20
63.440490085481883
42
0.41421356237309503
10
140.52641734885739
20
62.690490085481869
10
153.02641734885739
20
62.690490085481869
42
0.41421356237309503
0
LWPOLYLINE
5
113
100
AcDbEntity
8
0
100
AcDbPolyline
90
8
70
1
43
0.0
10
44.526417348857386
20
75.940490085481883
42
-0.41421356237309503
10
45.276417348857393
20
76.690490085481883
10
57.776417348857393
20
76.690490085481883
42
-0.41421356237309503
10
58.526417348857393
20
75.940490085481883
10
58.5264173488574
20
63.440490085481883
42
-0.41421356237309503
10
57.776417348857393
20
62.690490085481869
10
45.276417348857393
20
62.690490085481876
42
-0.41421356237309503
10
44.526417348857386
20
63.440490085481883
0
LWPOLYLINE
5
114
100
AcDbEntity
8
0
100
AcDbPolyline
90
8
70
1
43
0.0
10
133.97641734885738
20
76.690490085481869
10
121.47641734885738
20
76.690490085481869
42
0.41421356237309503
10
120.72641734885738
20
75.940490085481883
10
120.72641734885738
20
63.440490085481883
42
0.41421356237309503
10
121.47641734885738
20
62.690490085481869
10
133.97641734885738
20
62.690490085481869
42
0.41421356237309503
10
134.72641734885738
20
63.440490085481883
10
134.72641734885738
20
75.940490085481883
42
0.41421356237309503
0
LWPOLYLINE
5
115
100
AcDbEntity
8
0
100
AcDbPolyline
90
8
70
1
43
0.0
10
20.426417348857381
20
63.440490085481883
10
20.426417348857381
20
75.940490085481883
42
0.41421356237309503
10
19.676417348857385
20
76.690490085481869
10
7.1764173488573846
20
76.690490085481869
42
0.41421356237309503
10
6.4264173488573846
20
75.940490085481883
10
6.4264173488573846
20
63.440490085481883
42
0.41421356237309503
10
7.1764173488573846
20
62.690490085481869
10
19.676417348857385
20
62.690490085481869
42
0.41421356237309503
0
LWPOLYLINE
5
116
100
AcDbEntity
8
0
100
AcDbPolyline
90
8
70
1
43
0.0
10
95.876417348857373
20
76.690490085481869
10
83.376417348857373
20
76.690490085481869
42
0.41421356237309503
10
82.626417348857387
20
75.940490085481883
10
82.626417348857387
20
63.440490085481883
42
0.41421356237309503
10
83.376417348857373
20
62.690490085481869
10
95.876417348857373
20
62.690490085481869
42
0.41421356237309503
10
96.626417348857373
20
63.440490085481883
10
96.626417348857373
20
75.940490085481883
42
0.41421356237309503
0
LWPOLYLINE
5
117
100
AcDbEntity
8
0
100
AcDbPolyline
90
8
70
1
43
0.0
10
77.576417348857404
20
63.440490085481883
42
-0.41421356237309503
10
76.82641734885739
20
62.690490085481869
10
64.32641734885739
20
62.690490085481876
42
-0.41421356237309503
10
63.57641734885739
20
63.440490085481883
10
63.576417348857397
20
75.940490085481883
42
-0.41421356237309503
10
64.32641734885739
20
76.690490085481869
10
76.82641734885739
20
76.690490085481883
42
-0.41421356237309503
10
77.57641734885739
20
75.940490085481883
0
LWPOLYLINE
5
118
100
AcDbEntity
8
0
100
AcDbPolyline
90
8
70
1
43
0.0
10
114.92641734885738
20
76.690490085481869
10
102.42641734885738
20
76.690490085481869
42
0.41421356237309503
10
101.6764173488574
20
75.940490085481883
10
101.6764173488574
20
63.440490085481883
42
0.41421356237309503
10
102.42641734885738
20
62.690490085481869
10
114.92641734885738
20
62.690490085481869
42
0.41421356237309503
10
115.67641734885738
20
63.440490085481883
10
115.67641734885738
20
75.940490085481883
42
0.41421356237309503
0
LWPOLYLINE
5
119
100
AcDbEntity
8
0
100
AcDbPolyline
90
8
70
1
43
0.0
10
38.726417348857389
20
76.690490085481883
42
-0.41421356237309503
10
39.476417348857389
20
75.940490085481883
10
39.476417348857396
20
63.440490085481883
42
-0.41421356237309503
10
38.726417348857389
20
62.690490085481869
10
26.226417348857382
20
62.690490085481876
42
-0.41421356237309503
10
25.476417348857382
20
63.440490085481883
10
25.476417348857382
20
75.940490085481883
42
-0.41421356237309503
10
26.226417348857382
20
76.690490085481883
0
LWPOLYLINE
5
120
100
AcDbEntity
8
0
100
AcDbPolyline
90
8
70
1
43
0.0
10
229.22641734885735
20
76.690490085481869
10
216.72641734885735
20
76.690490085481869
42
0.41421356237309503
10
215.97641734885738
20
75.940490085481883
10
215.97641734885738
20
63.440490085481883
42
0.41421356237309503
10
216.72641734885735
20
62.690490085481869
10
229.22641734885735
20
62.690490085481869
42
0.41421356237309503
10
229.97641734885735
20
63.440490085481883
10
229.97641734885741
20
75.940490085481883
42
0.41421356237309503
0
LWPOLYLINE
5
121
100
AcDbEntity
8
0
100
AcDbPolyline
90
8
70
1
43
0.0
10
19.676417348857385
20
57.640490085481879
10
7.1764173488573846
20
57.640490085481879
42
0.41421356237309503
10
6.4264173488573846
20
56.890490085481879
10
6.4264173488573846
20
44.390490085481879
42
0.41421356237309503
10
7.1764173488573846
20
43.640490085481872
10
19.676417348857385
20
43.640490085481872
42
0.41421356237309503
10
20.426417348857381
20
44.390490085481879
10
20.426417348857381
20
56.890490085481879
42
0.41421356237309503
0
LWPOLYLINE
5
122
100
AcDbEntity
8
0
100
AcDbPolyline
90
8
70
1
43
0.0
10
210.9264173488574
20
63.440490085481883
42
-0.41421356237309503
10
210.1764173488574
20
62.690490085481869
10
197.6764173488574
20
62.690490085481883
42
-0.41421356237309503
10
196.9264173488574
20
63.440490085481883
10
196.9264173488574
20
75.940490085481883
42
-0.41421356237309503
10
197.6764173488574
20
76.690490085481883
10
210.1764173488574
20
76.690490085481869
42
-0.41421356237309503
10
210.9264173488574
20
75.940490085481883
0
LWPOLYLINE
5
123
100
AcDbEntity
8
0
100
AcDbPolyline
90
8
70
1
43
0.0
10
38.726417348857389
20
43.640490085481872
10
26.226417348857382
20
43.640490085481872
42
-0.41421356237309503
10
25.476417348857385
20
44.390490085481879
10
25.476417348857382
20
56.890490085481879
42
-0.41421356237309503
10
26.226417348857382
20
57.640490085481879
10
38.726417348857389
20
57.640490085481879
42
-0.41421356237309503
10
39.476417348857389
20
56.890490085481879
10
39.476417348857389
20
44.390490085481879
42
-0.41421356237309503
0
LWPOLYLINE
5
124
100
AcDbEntity
8
0
100
AcDbPolyline
90
8
70
1
43
0.0
10
76.82641734885739
20
43.640490085481872
10
64.32641734885739
20
43.640490085481872
42
-0.41421356237309503
10
63.57641734885739
20
44.390490085481879
10
63.57641734885739
20
56.890490085481879
42
-0.41421356237309503
10
64.32641734885739
20
57.640490085481879
10
76.82641734885739
20
57.640490085481872
42
-0.41421356237309503
10
77.57641734885739
20
56.890490085481879
10
77.57641734885739
20
44.390490085481879
42
-0.41421356237309503
0
LWPOLYLINE
5
125
100
AcDbEntity
8
0
100
AcDbPolyline
90
8
70
1
43
0.0
10
158.8264173488574
20
75.940490085481883
42
-0.41421356237309503
10
159.5764173488574
20
76.690490085481883
10
172.0764173488574
20
76.690490085481869
42
-0.41421356237309503
10
172.8264173488574
20
75.940490085481883
10
172.82641734885743
20
63.440490085481883
42
-0.41421356237309503
10
172.0764173488574
20
62.690490085481869
10
159.5764173488574
20
62.690490085481869
42
-0.41421356237309503
10
158.8264173488574
20
63.440490085481883
0
LWPOLYLINE
5
126
100
AcDbEntity
8
0
100
AcDbPolyline
90
8
70
1
43
0.0
10
191.12641734885739
20
62.690490085481869
10
178.62641734885739
20
62.690490085481883
42
-0.41421356237309503
10
177.87641734885739
20
63.440490085481883
10
177.87641734885739
20
75.940490085481883
42
-0.41421356237309503
10
178.62641734885739
20
76.690490085481869
10
191.12641734885739
20
76.690490085481869
42
-0.41421356237309503
10
191.87641734885739
20
75.940490085481883
10
191.87641734885739
20
63.440490085481883
42
-0.41421356237309503
0
LWPOLYLINE
5
127
100
AcDbEntity
8
0
100
AcDbPolyline
90
8
70
1
43
0.0
10
57.776417348857393
20
57.640490085481879
10
45.276417348857393
20
57.640490085481879
42
0.41421356237309503
10
44.526417348857386
20
56.890490085481879
10
44.526417348857386
20
44.390490085481879
42
0.41421356237309503
10
45.276417348857393
20
43.640490085481872
10
57.776417348857393
20
43.640490085481872
42
0.41421356237309503
10
58.526417348857393
20
44.390490085481879
10
58.526417348857393
20
56.890490085481879
42
0.41421356237309503
0
LWPOLYLINE
5
128
100
AcDbEntity
8
0
100
AcDbPolyline
90
8
70
1
43
0.0
10
191.87641734885739
20
44.390490085481879
10
191.87641734885739
20
56.890490085481879
42
0.41421356237309503
10
191.12641734885739
20
57.640490085481879
10
178.62641734885739
20
57.640490085481879
42
0.41421356237309503
10
177.87641734885739
20
56.890490085481879
10
177.87641734885739
20
44.390490085481879
42
0.41421356237309503
10
178.62641734885739
20
43.640490085481872
10
191.12641734885739
20
43.640490085481872
42
0.41421356237309503
0
LWPOLYLINE
5
129
100
AcDbEntity
8
0
100
AcDbPolyline
90
8
70
1
43
0.0
10
121.47641734885738
20
43.640490085481886
42
-0.41421356237309503
10
120.72641734885738
20
44.390490085481879
10
120.72641734885738
20
56.890490085481879
42
-0.41421356237309503
10
121.47641734885738
20
57.640490085481879
10
133.97641734885738
20
57.640490085481872
42
-0.41421356237309503
10
134.72641734885738
20
56.890490085481879
10
134.72641734885738
20
44.390490085481879
42
-0.41421356237309503
10
133.97641734885738
20
43.640490085481872
0
LWPOLYLINE
5
130
100
AcDbEntity
8
0
100
AcDbPolyline
90
8
70
1
43
0.0
10
153.77641734885739
20
44.390490085481879
42
-0.41421356237309503
10
153.02641734885739
20
43.640490085481872
10
140.52641734885739
20
43.640490085481886
42
-0.41421356237309503
10
139.77641734885739
20
44.390490085481879
10
139.77641734885739
20
56.890490085481879
42
-0.41421356237309503
10
140.52641734885739
20
57.640490085481879
10
153.02641734885739
20
57.640490085481872
42
-0.41421356237309503
10
153.77641734885739
20
56.890490085481879
0
LWPOLYLINE
5
131
100
AcDbEntity
8
0
100
AcDbPolyline
90
8
70
1
43
0.0
10
83.376417348857373
20
43.640490085481886
42
-0.41421356237309503
10
82.626417348857387
20
44.390490085481879
10
82.626417348857359
20
56.890490085481879
42
-0.41421356237309503
10
83.376417348857373
20
57.640490085481879
10
95.876417348857373
20
57.640490085481872
42
-0.41421356237309503
10
96.626417348857373
20
56.890490085481879
10
96.626417348857387
20
44.390490085481879
42
-0.41421356237309503
10
95.876417348857373
20
43.640490085481872
0
LWPOLYLINE
5
132
100
AcDbEntity
8
0
100
AcDbPolyline
90
8
70
1
43
0.0
10
115.6764173488574
20
44.390490085481879
10
115.6764173488574
20
56.890490085481879
42
0.41421356237309503
10
114.92641734885738
20
57.640490085481879
10
102.42641734885738
20
57.640490085481879
42
0.41421356237309503
10
101.6764173488574
20
56.890490085481879
10
101.6764173488574
20
44.390490085481879
42
0.41421356237309503
10
102.42641734885738
20
43.640490085481872
10
114.92641734885738
20
43.640490085481872
42
0.41421356237309503
0
LWPOLYLINE
5
133
100
AcDbEntity
8
0
100
AcDbPolyline
90
8
70
1
43
0.0
10
172.0764173488574
20
43.640490085481872
10
159.5764173488574
20
43.640490085481865
42
-0.41421356237309503
10
158.8264173488574
20
44.390490085481879
10
158.8264173488574
20
56.890490085481879
42
-0.41421356237309503
10
159.5764173488574
20
57.640490085481879
10
172.0764173488574
20
57.640490085481872
42
-0.41421356237309503
10
172.8264173488574
20
56.890490085481879
10
172.8264173488574
20
44.390490085481879
42
-0.41421356237309503
0
LWPOLYLINE
5
134
100
AcDbEntity
8
0
100
AcDbPolyline
90
8
70
1
43
0.0
10
210.1764173488574
20
43.640490085481872
10
197.6764173488574
20
43.640490085481886
42
-0.41421356237309503
10
196.9264173488574
20
44.390490085481879
10
196.9264173488574
20
56.890490085481879
42
-0.41421356237309503
10
197.6764173488574
20
57.640490085481879
10
210.1764173488574
20
57.640490085481872
42
-0.41421356237309503
10
210.9264173488574
20
56.890490085481879
10
210.9264173488574
20
44.390490085481879
42
-0.41421356237309503
0
LWPOLYLINE
5
135
100
AcDbEntity
8
0
100
AcDbPolyline
90
8
70
1
43
0.0
10
229.22641734885735
20
57.640490085481879
10
216.72641734885735
20
57.640490085481879
42
0.41421356237309503
10
215.97641734885738
20
56.890490085481879
10
215.97641734885738
20
44.390490085481879
42
0.41421356237309503
10
216.72641734885735
20
43.640490085481872
10
229.22641734885735
20
43.640490085481872
42
0.41421356237309503
10
229.97641734885741
20
44.390490085481879
10
229.97641734885741
20
56.890490085481879
42
0.41421356237309503
0
LINE
5
136
100
AcDbEntity
8
0
100
AcDbLine
10
15.446861223730188
20
98.240490085481881
30
0
11
137.71234491787732
21
98.240490085481881
31
0
0
ARC
5
137
100
AcDbEntity
8
0
100
AcDbCircle
10
15.446861223730188
20
99.990490085481852
30
0
40
1.7499999999999718
210
0
220
0
230
1
100
AcDbArc
50
197.94078200365485
51
270
0
LINE
5
138
100
AcDbEntity
8
0
100
AcDbLine
10
13.285883425824034
20
100.98356628393
30
0
11
13.78195428689498
21
99.451430820022196
31
0
0
ARC
5
139
100
AcDbEntity
8
0
100
AcDbCircle
10
11.145288792750174
20
100.29049008548185
30
0
40
2.2499999999999916
210
0
220
-0
230
1
100
AcDbArc
50
17.940782003655276
51
162.05921799634552
0
LINE
5
140
100
AcDbEntity
8
0
100
AcDbLine
10
8.5086232986053307
20
99.451430820022196
30
0
11
9.004694159676303
21
100.98356628392997
31
0
0
CIRCLE
5
141
100
AcDbEntity
8
0
100
AcDbCircle
10
11.145288792750172
20
100.29049008548185
30
0
40
1.0999999999999985
210
0
220
-0
230
1
0
ARC
5
142
100
AcDbEntity
8
0
100
AcDbCircle
10
6.8437163617700847
20
99.990490085481909
30
0
40
1.7500000000000249
210
-0
220
0
230
1
100
AcDbArc
50
270
51
342.05921799634382
0
LINE
5
143
100
AcDbEntity
8
0
100
AcDbLine
10
5.1764173488573562
20
98.240490085481881
30
0
11
6.8437163617700847
21
98.240490085481881
31
0
0
ARC
5
144
100
AcDbEntity
8
0
100
AcDbCircle
10
5.1764173488573704
20
96.990490085481852
30
0
40
1.2500000000000355
210
0
220
0
230
1
100
AcDbArc
50
90.000000000000654
51
180
0
LINE
5
145
100
AcDbEntity
8
0
100
AcDbLine
10
3.9264173488573739
20
23.340490085481882
30
0
11
3.9264173488573348
21
96.99049008548181
31
0
0
ARC
5
146
100
AcDbEntity
8
0
100
AcDbCircle
10
5.1764173488573739
20
23.340490085481846
30
0
40
1.25
210
0
220
0
230
1
100
AcDbArc
50
180
51
270.00000000000159
0
LINE
5
147
100
AcDbEntity
8
0
100
AcDbLine
10
6.8437163617700669
20
22.090490085481903
30
0
11
5.1764173488574095
21
22.090490085481846
31
0
0
ARC
5
148
100
AcDbEntity
8
0
100
AcDbCircle
10
6.8437163617700651
20
20.340490085481893
30
0
40
1.7500000000000133
210
0
220
-0
230
1
100
AcDbArc
50
17.940782003655027
51
89.999999999999943
0
LINE
5
149
100
AcDbEntity
8
0
100
AcDbLine
10
9.0046941596762569
20
19.34741388703376
30
0
11
8.5086232986053112
21
20.879549350941566
31
0
0
ARC
5
150
100
AcDbEntity
8
0
100
AcDbCircle
10
11.145288792750119
20
20.040490085481881
30
0
40
2.2499999999999822
210
0
220
0
230
1
100
AcDbArc
50
197.94078200365448
51
342.05921799634552
0
LINE
5
151
100
AcDbEntity
8
0
100
AcDbLine
10
13.781954286894944
20
20.879549350941559
30
0
11
13.285883425823981
21
19.34741388703376
31
0
0
ARC
5
152
100
AcDbEntity
8
0
100
AcDbCircle
10
15.446861223730163
20
20.340490085481903
30
0
40
1.7499999999999805
210
0
220
-0
230
1
100
AcDbArc
50
89.999999999999773
51
162.0592179963453
0
CIRCLE
5
153
100
AcDbEntity
8
0
100
AcDbCircle
10
11.145288792750121
20
20.040490085481881
30
0
40
1.1000000000000012
210
0
220
-0
230
1
0
LINE
5
154
100
AcDbEntity
8
0
100
AcDbLine
10
137.71234491787735
20
22.090490085481889
30
0
11
15.446861223730171
21
22.090490085481882
31
0
0
ARC
5
155
100
AcDbEntity
8
0
100
AcDbCircle
10
137.71234491787737
20
20.340490085481889
30
0
40
1.7500000000000013
210
0
220
-0
230
1
100
AcDbArc
50
17.940782003655915
51
90.000000000000924
0
LINE
5
156
100
AcDbEntity
8
0
100
AcDbLine
10
139.87332271578353
20
19.347413887033767
30
0
11
139.3772518547126
21
20.879549350941584
31
0
0
ARC
5
157
100
AcDbEntity
8
0
100
AcDbCircle
10
142.01391734885738
20
20.040490085481881
30
0
40
2.2499999999999782
210
0
220
0
230
1
100
AcDbArc
50
197.94078200365442
51
342.05921799634621
0
CIRCLE
5
158
100
AcDbEntity
8
0
100
AcDbCircle
10
142.01391734885738
20
20.040490085481881
30
0
40
1.0999999999999985
210
0
220
-0
230
1
0
LINE
5
159
100
AcDbEntity
8
0
100
AcDbLine
10
144.65058284300221
20
20.879549350941538
30
0
11
144.15451198193128
21
19.347413887033774
31
0
0
ARC
5
160
100
AcDbEntity
8
0
100
AcDbCircle
10
146.31548977983743
20
20.340490085481893
30
0
40
1.7499999999999893
210
0
220
0
230
1
100
AcDbArc
50
90.000000000000924
51
162.05921799634561
0
LINE
5
161
100
AcDbEntity
8
0
100
AcDbLine
10
212.2100335746097
20
22.090490085481875
30
0
11
146.31548977983741
21
22.090490085481882
31
0
0
LINE
5
162
100
AcDbEntity
8
0
100
AcDbLine
10
213.71290974369862
20
22.090490085481914
30
0
11
212.2100335746097
21
22.090490085481875
31
0
0
ARC
5
163
100
AcDbEntity
8
0
100
AcDbCircle
10
213.71290974369879
20
21.090490085482156
30
0
40
0.99999999999974709
210
0
220
-0
230
1
100
AcDbArc
50
30.564025021017034
51
90.000000000009777
0
LINE
5
164
100
AcDbEntity
8
0
100
AcDbLine
10
216.80596043678096
20
17.819489214317421
30
0
11
214.57397121887041
21
21.598990956646343
31
0
0
ARC
5
165
100
AcDbEntity
8
0
100
AcDbCircle
10
217.66702191195287
20
18.327990085481932
30
0
40
1.0000000000001248
210
0
220
0
230
1
100
AcDbArc
50
210.56402502102466
51
270
0
LINE
5
166
100
AcDbEntity
8
0
100
AcDbLine
10
274.08891734885742
20
17.327990085481666
30
0
11
217.73891734885737
21
17.327990085481872
31
0
0
ARC
5
167
100
AcDbEntity
8
0
100
AcDbCircle
10
274.08891734885731
20
18.577990085481847
30
0
40
1.2500000000001821
210
0
220
0
230
1
100
AcDbArc
50
270.00000000000517
51
360
0
ARC
5
168
100
AcDbEntity
8
0
100
AcDbCircle
10
277.08891734885748
20
18.577990085481783
30
0
40
1.7499999999999831
210
0
220
0
230
1
100
AcDbArc
50
107.9407820036576
51
180
0
LINE
5
169
100
AcDbEntity
8
0
100
AcDbLine
10
278.08199354730561
20
20.738967883387872
30
0
11
276.54985808339774
21
20.242897022316981
31
0
0
ARC
5
170
100
AcDbEntity
8
0
100
AcDbCircle
10
277.38891734885749
20
22.879562516461753
30
0
40
2.2500000000000075
210
0
220
0
230
1
100
AcDbArc
50
-72.059217996345581
51
72.059217996344032
0
CIRCLE
5
171
100
AcDbEntity
8
0
100
AcDbCircle
10
277.38891734885743
20
22.879562516461753
30
0
40
1.099999999999999
210
0
220
-0
230
1
0
LINE
5
172
100
AcDbEntity
8
0
100
AcDbLine
10
276.54985808339774
20
25.516228010606589
30
0
11
278.08199354730567
21
25.020157149535613
31
0
0
ARC
5
173
100
AcDbEntity
8
0
100
AcDbCircle
10
277.08891734885742
20
27.181134947441752
30
0
40
1.7499999999999361
210
0
220
0
230
1
100
AcDbArc
50
180
51
252.05921799634382
0
LINE
5
174
100
AcDbEntity
8
0
100
AcDbLine
10
275.33891734885748
20
36.614482480322877
30
0
11
275.33891734885748
21
27.181134947441809
31
0
0
ARC
5
175
100
AcDbEntity
8
0
100
AcDbCircle
10
276.33891734885776
20
36.614482480322764
30
0
40
1.000000000000252
210
0
220
0
230
1
100
AcDbArc
50
120.564025021037
51
180
0
LINE
5
176
100
AcDbEntity
8
0
100
AcDbLine
10
279.60991822002177
20
39.707533173405452
30
0
11
275.83041647769301
21
37.475543955494665
31
0
0
ARC
5
177
100
AcDbEntity
8
0
100
AcDbCircle
10
279.10141734885735
20
40.568594648577175
30
0
40
0.99999999999993638
210
0
220
0
230
1
100
AcDbArc
50
-59.435974978974656
51
0
0
LINE
5
178
100
AcDbEntity
8
0
100
AcDbLine
10
280.1014173488573
20
96.990490085481881
30
0
11
280.1014173488573
21
40.568594648577232
31
0
0
ARC
5
179
100
AcDbEntity
8
0
100
AcDbCircle
10
278.85141734885735
20
96.990490085481881
30
0
40
1.2499999999999645
210
0
220
0
230
1
100
AcDbArc
50
0
51
90.000000000002615
0
LINE
5
180
100
AcDbEntity
8
0
100
AcDbLine
10
277.1841183359445
20
98.240490085481994
30
0
11
278.8514173488573
21
98.240490085481881
31
0
0
ARC
5
181
100
AcDbEntity
8
0
100
AcDbCircle
10
277.18411833594456
20
99.990490085481895
30
0
40
1.7499999999999152
210
0
220
0
230
1
100
AcDbArc
50
197.94078200365658
51
269.99999999999812
0
LINE
5
182
100
AcDbEntity
8
0
100
AcDbLine
10
275.02314053803843
20
100.98356628393
30
0
11
275.51921139910939
21
99.451430820022196
31
0
0
ARC
5
183
100
AcDbEntity
8
0
100
AcDbCircle
10
272.88254590496445
20
100.29049008548191
30
0
40
2.2500000000000768
210
0
220
-0
230
1
100
AcDbArc
50
17.940782003652899
51
162.0592179963453
0
LINE
5
184
100
AcDbEntity
8
0
100
AcDbLine
10
270.24588041081972
20
99.451430820022196
30
0
11
270.74195127189051
21
100.98356628393006
31
0
0
CIRCLE
5
185
100
AcDbEntity
8
0
100
AcDbCircle
10
272.8825459049645
20
100.29049008548185
30
0
40
1.0999999999999985
210
0
220
-0
230
1
0
ARC
5
186
100
AcDbEntity
8
0
100
AcDbCircle
10
268.58097347398456
20
99.990490085481753
30
0
40
1.7499999999999005
210
0
220
0
230
1
100
AcDbArc
50
269.99999999999812
51
342.05921799634785
0
LINE
5
187
100
AcDbEntity
8
0
100
AcDbLine
10
146.31548977983738
20
98.240490085481866
30
0
11
268.5809734739845
21
98.240490085481852
31
0
0
ARC
5
188
100
AcDbEntity
8
0
100
AcDbCircle
10
137.71234491787735
20
99.990490085481852
30
0
40
1.7499999999999716
210
0
220
0
230
1
100
AcDbArc
50
269.99999999999909
51
342.05921799634501
0
LINE
5
189
100
AcDbEntity
8
0
100
AcDbLine
10
139.37725185471254
20
99.451430820022196
30
0
11
139.87332271578344
21
100.98356628393
31
0
0
ARC
5
190
100
AcDbEntity
8
0
100
AcDbCircle
10
142.01391734885732
20
100.29049008548185
30
0
40
2.2499999999999916
210
0
220
-0
230
1
100
AcDbArc
50
17.940782003655151
51
162.05921799634487
0
LINE
5
191
100
AcDbEntity
8
0
100
AcDbLine
10
144.15451198193119
20
100.98356628393
30
0
11
144.65058284300213
21
99.451430820022196
31
0
0
ARC
5
192
100
AcDbEntity
8
0
100
AcDbCircle
10
146.31548977983732
20
99.990490085481824
30
0
40
1.7499999999999609
210
0
220
0
230
1
100
AcDbArc
50
197.94078200365408
51
270.00000000000182
0
CIRCLE
5
193
100
AcDbEntity
8
0
100
AcDbCircle
10
142.01391734885732
20
100.29049008548185
30
0
40
1.0999999999999985
210
0
220
-0
230
1
0
CIRCLE
5
194
100
AcDbEntity
8
0
100
AcDbCircle
10
256.33891734885759
20
88.765490085481872
30
0
40
2.5000000000000044
210
0
220
-0
230
1
0
CIRCLE
5
195
100
AcDbEntity
8
0
100
AcDbCircle
10
256.33891734885759
20
79.240490085481866
30
0
40
2.4999999999999845
210
0
220
-0
230
1
0
CIRCLE
5
196
100
AcDbEntity
8
0
100
AcDbCircle
10
256.33891734885759
20
69.715490085481889
30
0
40
2.4999999999999862
210
0
220
-0
230
1
0
LWPOLYLINE
5
197
100
AcDbEntity
8
0
100
AcDbPolyline
90
8
70
1
43
0.0
10
235.02641734885739
20
82.490490085481866
10
235.02641734885736
20
94.990490085481866
42
-0.41421356237309503
10
235.77641734885736
20
95.740490085481881
10
248.27641734885736
20
95.740490085481895
42
-0.41421356237309503
10
249.02641734885742
20
94.990490085481866
10
249.02641734885736
20
82.490490085481866
42
-0.41421356237309503
10
248.27641734885736
20
81.740490085481881
10
235.77641734885736
20
81.740490085481881
42
-0.41421356237309503
0
LWPOLYLINE
5
198
100
AcDbEntity
8
0
100
AcDbPolyline
90
8
70
1
43
0.0
10
248.27641734885736
20
62.690490085481869
10
235.77641734885736
20
62.690490085481883
42
-0.41421356237309503
10
235.02641734885739
20
63.440490085481883
10
235.02641734885739
20
75.940490085481883
42
-0.41421356237309503
10
235.77641734885736
20
76.690490085481869
10
248.27641734885736
20
76.690490085481912
42
-0.41421356237309503
10
249.02641734885742
20
75.940490085481883
10
249.02641734885742
20
63.440490085481883
42
-0.41421356237309503
0
LWPOLYLINE
5
199
100
AcDbEntity
8
0
100
AcDbPolyline
90
8
70
1
43
0.0
10
263.60141734885735
20
94.990490085481866
42
-0.41421356237309503
10
264.35141734885741
20
95.740490085481881
10
276.85141734885741
20
95.740490085481895
42
-0.41421356237309503
10
277.60141734885741
20
94.990490085481866
10
277.60141734885741
20
82.490490085481866
42
-0.41421356237309503
10
276.85141734885741
20
81.740490085481881
10
264.35141734885741
20
81.740490085481881
42
-0.41421356237309503
10
263.60141734885741
20
82.490490085481866
0
LWPOLYLINE
5
200
100
AcDbEntity
8
0
100
AcDbPolyline
90
8
70
1
43
0.0
10
264.35141734885741
20
62.690490085481883
42
-0.41421356237309503
10
263.60141734885741
20
63.440490085481883
10
263.60141734885741
20
75.940490085481883
42
-0.41421356237309503
10
264.35141734885741
20
76.690490085481869
10
276.85141734885741
20
76.690490085481912
42
-0.41421356237309503
10
277.60141734885741
20
75.940490085481883
10
277.60141734885741
20
63.440490085481883
42
-0.41421356237309503
10
276.85141734885741
20
62.690490085481869
0
LWPOLYLINE
5
201
100
AcDbEntity
8
0
100
AcDbPolyline
90
8
70
1
43
0.0
10
277.60141734885741
20
44.390490085481879
42
-0.41421356237309503
10
276.85141734885741
20
43.640490085481865
10
264.35141734885741
20
43.640490085481886
42
-0.41421356237309503
10
263.60141734885741
20
44.390490085481879
10
263.60141734885741
20
56.890490085481879
42
-0.41421356237309503
10
264.35141734885741
20
57.640490085481872
10
276.85141734885741
20
57.640490085481908
42
-0.41421356237309503
10
277.60141734885741
20
56.890490085481879
0
LWPOLYLINE
5
202
100
AcDbEntity
8
0
100
AcDbPolyline
90
8
70
1
43
0.0
10
253.03891734885741
20
52.877990085481876
10
240.53891734885738
20
52.877990085481876
42
0.41421356237309159
10
239.78891734885741
20
52.127990085481883
10
239.78891734885738
20
39.627990085481876
42
0.41421356237310025
10
240.53891734885738
20
38.877990085481869
10
253.0389173488575
20
38.877990085481891
42
0.41421356237306733
10
253.78891734885741
20
39.627990085481883
10
253.78891734885738
20
52.127990085481869
42
0.41421356237309853
0
LWPOLYLINE
5
203
100
AcDbEntity
8
0
100
AcDbPolyline
90
8
70
1
43
0.0
10
239.78891734885741
20
33.077990085481879
10
239.78891734885738
20
20.577990085481872
42
0.41421356237310025
10
240.53891734885738
20
19.827990085481872
10
253.0389173488575
20
19.827990085481886
42
0.41421356237306733
10
253.78891734885741
20
20.577990085481879
10
253.78891734885738
20
33.077990085481865
42
0.41421356237309853
10
253.03891734885741
20
33.827990085481872
10
240.53891734885738
20
33.827990085481872
42
0.41421356237309159
0
LWPOLYLINE
5
204
100
AcDbEntity
8
0
100
AcDbPolyline
90
8
70
1
43
0.0
10
233.9889173488574
20
33.827990085481829
42
-0.41421356237309853
10
234.73891734885737
20
33.077990085481865
10
234.7389173488574
20
20.577990085481879
42
-0.41421356237306733
10
233.98891734885748
20
19.827990085481886
10
221.48891734885737
20
19.827990085481865
42
-0.41421356237310025
10
220.73891734885737
20
20.577990085481872
10
220.73891734885737
20
33.077990085481879
42
-0.41421356237309159
10
221.48891734885737
20
33.827990085481872
0
LWPOLYLINE
5
205
100
AcDbEntity
8
0
100
AcDbPolyline
90
8
70
1
43
0.0
10
272.08891734885742
20
33.827990085481872
10
259.58891734885742
20
33.827990085481872
42
0.41421356237309159
10
258.83891734885742
20
33.077990085481879
10
258.83891734885742
20
20.577990085481872
42
0.41421356237310025
10
259.58891734885742
20
19.827990085481872
10
272.08891734885748
20
19.827990085481886
42
0.41421356237306733
10
272.83891734885742
20
20.577990085481879
10
272.83891734885736
20
33.077990085481865
42
0.41421356237309853
0
LWPOLYLINE
5
206
100
AcDbEntity
8
0
100
AcDbPolyline
90
8
70
1
43
0.0
10
24.438917348857387
20
38.590490085481875
42
-0.41421356237309331
10
25.188917348857384
20
37.840490085481875
10
25.188917348857384
20
25.340490085481882
42
-0.41421356237309331
10
24.438917348857387
20
24.590490085481882
10
11.938917348857384
20
24.590490085481882
42
-0.41421356237309764
10
11.188917348857384
20
25.340490085481882
10
11.188917348857377
20
37.840490085481875
42
-0.41421356237309592
10
11.938917348857386
20
38.590490085481882
0
LWPOLYLINE
5
207
100
AcDbEntity
8
0
100
AcDbPolyline
90
8
70
1
43
0.0
10
48.251417348857366
20
38.590490085481875
42
-0.41421356237309853
10
49.001417348857373
20
37.840490085481875
10
49.001417348857373
20
25.340490085481882
42
-0.41421356237309159
10
48.251417348857387
20
24.590490085481886
10
35.751417348857387
20
24.590490085481882
42
-0.41421356237309331
10
35.001417348857387
20
25.340490085481882
10
35.00141734885738
20
37.840490085481875
42
-0.41421356237309681
10
35.751417348857395
20
38.590490085481889
0
LWPOLYLINE
5
208
100
AcDbEntity
8
0
100
AcDbPolyline
90
8
70
1
43
0.0
10
72.063917348857387
20
38.590490085481875
42
-0.41421356237308815
10
72.813917348857373
20
37.840490085481868
10
72.813917348857373
20
25.340490085481882
42
-0.41421356237309503
10
72.063917348857373
20
24.590490085481882
10
57.182667348857372
20
24.590490085481882
42
-0.41421356237308815
10
56.432667348857386
20
25.340490085481882
10
56.432667348857386
20
37.840490085481868
42
-0.41421356237309331
10
57.182667348857379
20
38.590490085481875
0
LWPOLYLINE
5
209
100
AcDbEntity
8
0
100
AcDbPolyline
90
8
70
1
43
0.0
10
113.83941734885738
20
38.590490085481868
42
-0.41421356237309503
10
114.58941734885738
20
37.840490085481875
10
114.58941734885738
20
25.340490085481878
42
-0.41421356237308815
10
113.8394173488574
20
24.590490085481882
10
82.082167348857382
20
24.590490085481886
42
-0.41421356237309503
10
81.332167348857382
20
25.340490085481878
10
81.332167348857382
20
37.840490085481875
42
-0.41421356237309503
10
82.082167348857382
20
38.590490085481875
0
LWPOLYLINE
5
210
100
AcDbEntity
8
0
100
AcDbPolyline
90
8
70
1
43
0.0
10
121.81341734885741
20
37.840490085481875
10
121.81341734885741
20
25.340490085481878
42
0.41421356237309503
10
122.5634173488574
20
24.590490085481886
10
154.32066734885746
20
24.590490085481882
42
0.41421356237308116
10
155.0706673488574
20
25.340490085481878
10
155.0706673488574
20
37.840490085481875
42
0.41421356237309503
10
154.3206673488574
20
38.590490085481868
10
122.5634173488574
20
38.590490085481875
42
0.41421356237309503
0
LWPOLYLINE
5
211
100
AcDbEntity
8
0
100
AcDbPolyline
90
8
70
1
43
0.0
10
179.22016734885742
20
38.590490085481903
42
-0.41421356237309331
10
179.97016734885744
20
37.840490085481882
10
179.97016734885739
20
25.340490085481893
42
-0.41421356237308116
10
179.22016734885744
20
24.590490085481896
10
164.33891734885736
20
24.5904900854819
42
-0.41421356237309159
10
163.58891734885736
20
25.340490085481882
10
163.58891734885736
20
37.840490085481882
42
-0.41421356237309331
10
164.33891734885736
20
38.590490085481875
0
LWPOLYLINE
5
212
100
AcDbEntity
8
0
100
AcDbPolyline
90
8
70
1
43
0.0
10
192.16391734885735
20
37.840490085481868
10
192.16391734885735
20
25.340490085481882
42
0.41421356237309853
10
192.91391734885735
20
24.590490085481882
10
205.41391734885735
20
24.590490085481889
42
0.41421356237310897
10
206.16391734885738
20
25.340490085481889
10
206.16391734885738
20
37.840490085481868
42
0.41421356237306733
10
205.41391734885747
20
38.590490085481861
10
192.91391734885741
20
38.590490085481875
42
0.41421356237312279
0
ENDSEC
0
SECTION
2
OBJECTS
0
DICTIONARY
5
C
100
AcDbDictionary
3
ACAD_GROUP
350
D
3
ACAD_MLINESTYLE
350
17
0
DICTIONARY
5
D
100
AcDbDictionary
0
DICTIONARY
5
1A
330
C
100
AcDbDictionary
0
DICTIONARY
5
17
100
AcDbDictionary
0
ENDSEC
0
EOF
