0
SECTION
2
HEADER
9
$INSUNITS
70
4
9
$ACADVER
1
AC1014
9
$HANDSEED
5
FFFF
0
ENDSEC
0
SECTION
2
TABLES
0
TABLE
2
VPORT
5
8
100
AcDbSymbolTable
0
ENDTAB
0
TABLE
2
LTYPE
5
5
100
AcDbSymbolTable
0
LTYPE
5
14
100
AcDbSymbolTableRecord
100
AcDbLinetypeTableRecord
2
BYBLOCK
70
0
0
LTYPE
5
15
100
AcDbSymbolTableRecord
100
AcDbLinetypeTableRecord
2
BYLAYER
70
0
0
ENDTAB
0
TABLE
2
LAYER
5
2
100
AcDbSymbolTable
70
2
0
LAYER
5
50
100
AcDbSymbolTableRecord
100
AcDbLayerTableRecord
2
0
70
0
6
CONTINUOUS
0
ENDTAB
0
TABLE
2
STYLE
5
3
100
AcDbSymbolTable
70
1
0
STYLE
5
11
100
AcDbSymbolTableRecord
100
AcDbTextStyleTableRecord
2
STANDARD
70
0
0
ENDTAB
0
TABLE
2
VIEW
5
6
100
AcDbSymbolTable
70
0
0
ENDTAB
0
TABLE
2
UCS
5
7
100
AcDbSymbolTable
70
0
0
ENDTAB
0
TABLE
2
APPID
5
9
100
AcDbSymbolTable
70
2
0
APPID
5
12
100
AcDbSymbolTableRecord
100
AcDbRegAppTableRecord
2
ACAD
70
0
0
ENDTAB
0
TABLE
2
DIMSTYLE
5
A
100
AcDbSymbolTable
70
1
0
ENDTAB
0
TABLE
2
BLOCK_RECORD
5
1
100
AcDbSymbolTable
70
1
0
BLOCK_RECORD
5
1F
100
AcDbSymbolTableRecord
100
AcDbBlockTableRecord
2
*MODEL_SPACE
0
BLOCK_RECORD
5
1B
100
AcDbSymbolTableRecord
100
AcDbBlockTableRecord
2
*PAPER_SPACE
0
ENDTAB
0
ENDSEC
0
SECTION
2
BLOCKS
0
BLOCK
5
20
100
AcDbEntity
100
AcDbBlockBegin
2
*MODEL_SPACE
0
ENDBLK
5
21
100
AcDbEntity
100
AcDbBlockEnd
0
BLOCK
5
1C
100
AcDbEntity
100
AcDbBlockBegin
2
*PAPER_SPACE
0
ENDBLK
5
1D
100
AcDbEntity
100
AcDbBlockEnd
0
ENDSEC
0
SECTION
2
ENTITIES
0
LWPOLYLINE
5
100
100
AcDbEntity
8
0
100
AcDbPolyline
90
8
70
1
43
0.0
10
192.16391734885735
20
28.721259241413534
42
0.4142135623730846
10
192.6639173488573
20
28.221259241413534
10
205.66391734885741
20
28.221259241413527
42
0.41421356237307422
10
206.16391734885738
20
28.721259241413534
10
206.16391734885738
20
41.721259241413541
42
0.4142135623730846
10
205.66391734885741
20
42.221259241413549
10
192.6639173488573
20
42.221259241413577
42
0.41421356237304818
10
192.16391734885732
20
41.721259241413541
0
LWPOLYLINE
5
101
100
AcDbEntity
8
0
100
AcDbPolyline
90
8
70
1
43
0.0
10
121.2264173488574
20
80.321259241413543
42
0.41421356237311063
10
120.72641734885738
20
79.821259241413543
10
120.72641734885738
20
66.821259241413543
42
0.41421356237312101
10
121.2264173488574
20
66.321259241413529
10
134.22641734885735
20
66.321259241413557
42
0.41421356237311585
10
134.72641734885738
20
66.821259241413543
10
134.72641734885738
20
79.821259241413543
42
0.41421356237310025
10
134.22641734885735
20
80.321259241413543
0
LWPOLYLINE
5
102
100
AcDbEntity
8
0
100
AcDbPolyline
90
8
70
1
43
0.0
10
68.838917348857393
20
47.271259241413539
10
81.838917348857365
20
47.271259241413532
42
0.414213562373069
10
82.338917348857393
20
47.771259241413524
10
82.338917348857393
20
60.771259241413546
42
0.4142135623730846
10
81.838917348857393
20
61.271259241413532
10
68.838917348857393
20
61.271259241413532
42
0.41421356237307422
10
68.338917348857407
20
60.771259241413546
10
68.338917348857393
20
47.771259241413524
42
0.41421356237309503
0
LWPOLYLINE
5
103
100
AcDbEntity
8
0
100
AcDbPolyline
90
8
70
1
43
0.0
10
91.363917348857427
20
28.221259241413538
42
0.41421356237311846
10
91.863917348857385
20
28.721259241413534
10
91.863917348857441
20
41.721259241413541
42
0.41421356237307422
10
91.363917348857427
20
42.221259241413549
10
78.363917348857399
20
42.221259241413534
42
0.41421356237307944
10
77.863917348857399
20
41.721259241413541
10
77.863917348857399
20
28.721259241413534
42
0.41421356237308721
10
78.363917348857399
20
28.221259241413534
0
LWPOLYLINE
5
104
100
AcDbEntity
8
0
100
AcDbPolyline
90
8
70
1
43
0.0
10
115.17641734885741
20
66.321259241413543
42
0.41421356237310542
10
115.6764173488574
20
66.821259241413543
10
115.67641734885738
20
79.821259241413543
42
0.41421356237308982
10
115.17641734885741
20
80.321259241413543
10
102.17641734885738
20
80.321259241413543
42
0.41421356237311063
10
101.67641734885737
20
79.821259241413543
10
101.67641734885741
20
66.821259241413543
42
0.41421356237307422
10
102.17641734885738
20
66.321259241413543
0
LWPOLYLINE
5
105
100
AcDbEntity
8
0
100
AcDbPolyline
90
8
70
1
43
0.0
10
264.1014173488573
20
28.221259241413517
42
-0.41421356237310025
10
263.6014173488573
20
28.721259241413534
10
263.6014173488573
20
41.721259241413541
42
-0.41421356237313667
10
264.1014173488573
20
42.221259241413534
10
277.1014173488573
20
42.221259241413513
42
-0.41421356237309503
10
277.60141734885741
20
41.721259241413541
10
277.60141734885741
20
28.721259241413534
42
-0.41421356237310281
10
277.1014173488573
20
28.221259241413534
0
LWPOLYLINE
5
106
100
AcDbEntity
8
0
100
AcDbPolyline
90
8
70
1
43
0.0
10
253.78891734885741
20
17.908759241413534
42
0.41421356237310675
10
253.2889173488573
20
18.408759241413538
10
240.28891734885744
20
18.408759241413541
42
0.41421356237307422
10
239.78891734885738
20
17.908759241413534
10
239.78891734885738
20
4.9087592414135361
42
0.41421356237307261
10
240.28891734885744
20
4.4087592414135282
10
253.2889173488573
20
4.4087592414135655
42
0.41421356237309437
10
253.78891734885741
20
4.9087592414135361
0
LWPOLYLINE
5
107
100
AcDbEntity
8
0
100
AcDbPolyline
90
8
70
1
43
0.0
10
240.28891734885744
20
37.458759241413539
42
0.41421356237307422
10
239.78891734885738
20
36.958759241413532
10
239.78891734885738
20
23.958759241413535
42
0.41421356237307422
10
240.28891734885744
20
23.458759241413524
10
253.2889173488573
20
23.458759241413532
42
0.41421356237307161
10
253.78891734885741
20
23.958759241413535
10
253.78891734885741
20
36.958759241413532
42
0.41421356237307422
10
253.2889173488573
20
37.458759241413546
0
LWPOLYLINE
5
108
100
AcDbEntity
8
0
100
AcDbPolyline
90
8
70
1
43
0.0
10
259.33891734885742
20
18.408759241413552
42
0.41421356237310153
10
258.83891734885742
20
17.908759241413534
10
258.83891734885742
20
4.9087592414135361
42
0.41421356237313339
10
259.33891734885742
20
4.4087592414135282
10
272.33891734885736
20
4.4087592414135521
42
0.41421356237312335
10
272.83891734885736
20
4.9087592414135361
10
272.83891734885742
20
17.908759241413534
42
0.41421356237312235
10
272.33891734885736
20
18.408759241413538
0
LWPOLYLINE
5
109
100
AcDbEntity
8
0
100
AcDbPolyline
90
8
70
1
43
0.0
10
264.1014173488573
20
61.271259241413524
42
0.41421356237312101
10
263.6014173488573
20
60.771259241413546
10
263.6014173488573
20
47.771259241413524
42
0.41421356237313667
10
264.1014173488573
20
47.271259241413532
10
277.1014173488573
20
47.271259241413553
42
0.41421356237309503
10
277.60141734885741
20
47.771259241413524
10
277.60141734885741
20
60.771259241413546
42
0.41421356237310025
10
277.1014173488573
20
61.271259241413539
0
LWPOLYLINE
5
110
100
AcDbEntity
8
0
100
AcDbPolyline
90
8
70
1
43
0.0
10
44.526417348857372
20
79.821259241413543
10
44.526417348857386
20
66.821259241413543
42
0.41421356237310542
10
45.026417348857386
20
66.321259241413543
10
58.026417348857393
20
66.321259241413543
42
0.41421356237313145
10
58.5264173488574
20
66.821259241413543
10
58.5264173488574
20
79.821259241413543
42
0.41421356237310025
10
58.026417348857393
20
80.321259241413543
10
45.026417348857386
20
80.321259241413543
42
0.41421356237311063
0
LWPOLYLINE
5
111
100
AcDbEntity
8
0
100
AcDbPolyline
90
8
70
1
43
0.0
10
116.46391734885739
20
28.221259241413534
42
-0.41421356237308982
10
115.96391734885742
20
28.721259241413534
10
115.96391734885742
20
41.721259241413541
42
-0.41421356237310025
10
116.46391734885741
20
42.221259241413534
10
129.46391734885739
20
42.221259241413534
42
-0.41421356237308982
10
129.96391734885742
20
41.721259241413541
10
129.96391734885742
20
28.721259241413534
42
-0.41421356237309243
10
129.46391734885739
20
28.221259241413534
0
LWPOLYLINE
5
112
100
AcDbEntity
8
0
100
AcDbPolyline
90
8
70
1
43
0.0
10
139.4889173488574
20
47.771259241413524
10
139.4889173488574
20
60.771259241413546
42
0.41421356237310542
10
138.9889173488574
20
61.271259241413539
10
125.9889173488574
20
61.271259241413524
42
0.41421356237311063
10
125.48891734885741
20
60.771259241413546
10
125.48891734885741
20
47.771259241413524
42
0.41421356237305862
10
125.9889173488574
20
47.271259241413532
10
138.9889173488574
20
47.271259241413532
42
0.41421356237308982
0
LWPOLYLINE
5
113
100
AcDbEntity
8
0
100
AcDbPolyline
90
8
70
1
43
0.0
10
213.59516734885739
20
28.721259241413534
42
0.41421356237312101
10
214.09516734885742
20
28.221259241413534
10
227.09516734885739
20
28.221259241413549
42
0.41421356237312362
10
227.59516734885739
20
28.721259241413534
10
227.59516734885744
20
41.721259241413541
42
0.41421356237312101
10
227.09516734885739
20
42.221259241413549
10
214.09516734885742
20
42.22125924141352
42
0.41421356237312101
10
213.59516734885742
20
41.721259241413541
0
LWPOLYLINE
5
114
100
AcDbEntity
8
0
100
AcDbPolyline
90
8
70
1
43
0.0
10
13.570167348857387
20
28.721259241413534
42
0.41421356237309503
10
14.070167348857385
20
28.221259241413534
10
27.070167348857392
20
28.221259241413534
42
0.41421356237309503
10
27.570167348857389
20
28.721259241413534
10
27.570167348857385
20
41.721259241413549
42
0.41421356237309764
10
27.070167348857392
20
42.221259241413534
10
14.070167348857385
20
42.221259241413534
42
0.41421356237307422
10
13.570167348857387
20
41.721259241413541
0
LWPOLYLINE
5
115
100
AcDbEntity
8
0
100
AcDbPolyline
90
8
70
1
43
0.0
10
227.88266734885738
20
60.771259241413546
10
227.88266734885738
20
47.771259241413524
42
0.41421356237313667
10
228.38266734885738
20
47.271259241413532
10
241.38266734885747
20
47.271259241413503
42
0.4142135623730846
10
241.88266734885744
20
47.771259241413524
10
241.8826673488573
20
60.771259241413546
42
0.41421356237313145
10
241.38266734885744
20
61.271259241413532
10
228.38266734885738
20
61.271259241413524
42
0.41421356237312101
0
LWPOLYLINE
5
116
100
AcDbEntity
8
0
100
AcDbPolyline
90
8
70
1
43
0.0
10
234.23891734885743
20
4.4087592414135521
42
0.41421356237312335
10
234.73891734885743
20
4.9087592414135361
10
234.73891734885746
20
17.908759241413534
42
0.41421356237312235
10
234.23891734885743
20
18.408759241413538
10
221.23891734885746
20
18.408759241413513
42
0.41421356237312101
10
220.73891734885737
20
17.908759241413534
10
220.73891734885746
20
4.9087592414135361
42
0.41421356237303647
10
221.23891734885746
20
4.4087592414135646
0
LWPOLYLINE
5
117
100
AcDbEntity
8
0
100
AcDbPolyline
90
8
70
1
43
0.0
10
119.93891734885736
20
47.271259241413539
42
0.41421356237310542
10
120.43891734885736
20
47.771259241413524
10
120.4389173488574
20
60.771259241413546
42
0.41421356237308982
10
119.93891734885736
20
61.271259241413539
10
106.9389173488574
20
61.271259241413532
42
0.41421356237309503
10
106.43891734885742
20
60.771259241413546
10
106.43891734885742
20
47.771259241413524
42
0.41421356237310025
10
106.9389173488574
20
47.271259241413532
0
LWPOLYLINE
5
118
100
AcDbEntity
8
0
100
AcDbPolyline
90
8
70
1
43
0.0
10
53.26391734885739
20
42.221259241413534
10
40.263917348857376
20
42.221259241413549
42
0.41421356237308982
10
39.763917348857376
20
41.721259241413541
10
39.763917348857376
20
28.721259241413534
42
0.4142135623730846
10
40.263917348857376
20
28.221259241413534
10
53.26391734885739
20
28.221259241413534
42
0.41421356237308982
10
53.763917348857397
20
28.721259241413534
10
53.763917348857397
20
41.721259241413541
42
0.41421356237307944
0
LWPOLYLINE
5
119
100
AcDbEntity
8
0
100
AcDbPolyline
90
8
70
1
43
0.0
10
63.57641734885739
20
66.821259241413543
42
0.41421356237308982
10
64.076417348857404
20
66.321259241413543
10
77.07641734885739
20
66.321259241413543
42
0.41421356237309503
10
77.57641734885739
20
66.821259241413543
10
77.57641734885739
20
79.821259241413543
42
0.4142135623730846
10
77.07641734885739
20
80.321259241413543
10
64.076417348857404
20
80.321259241413543
42
0.41421356237310025
10
63.57641734885739
20
79.821259241413543
0
LWPOLYLINE
5
120
100
AcDbEntity
8
0
100
AcDbPolyline
90
8
70
1
43
0.0
10
59.313917348857402
20
42.221259241413534
42
0.41421356237309503
10
58.813917348857402
20
41.721259241413541
10
58.813917348857402
20
28.721259241413534
42
0.41421356237308204
10
59.313917348857402
20
28.221259241413534
10
72.313917348857387
20
28.221259241413538
42
0.41421356237309764
10
72.813917348857373
20
28.721259241413534
10
72.813917348857373
20
41.721259241413541
42
0.41421356237309503
10
72.313917348857373
20
42.221259241413534
0
LWPOLYLINE
5
121
100
AcDbEntity
8
0
100
AcDbPolyline
90
8
70
1
43
0.0
10
30.238917348857392
20
47.771259241413517
42
0.41421356237308721
10
30.738917348857377
20
47.271259241413539
10
43.738917348857385
20
47.271259241413532
42
0.41421356237307944
10
44.238917348857392
20
47.771259241413524
10
44.238917348857392
20
60.771259241413546
42
0.41421356237308982
10
43.738917348857385
20
61.271259241413539
10
30.738917348857377
20
61.271259241413532
42
0.41421356237308204
10
30.238917348857388
20
60.771259241413546
0
LWPOLYLINE
5
122
100
AcDbEntity
8
0
100
AcDbPolyline
90
8
70
1
43
0.0
10
9.3076673488573842
20
47.271259241413539
10
22.30766734885739
20
47.271259241413532
42
0.41421356237307683
10
22.807667348857393
20
47.771259241413524
10
22.807667348857393
20
60.771259241413546
42
0.41421356237309764
10
22.30766734885739
20
61.271259241413539
10
9.3076673488573842
20
61.271259241413532
42
0.41421356237308526
10
8.8076673488573949
20
60.771259241413546
10
8.8076673488573824
20
47.771259241413532
42
0.41421356237309243
0
LWPOLYLINE
5
123
100
AcDbEntity
8
0
100
AcDbPolyline
90
8
70
1
43
0.0
10
39.476417348857389
20
79.821259241413543
42
0.41421356237311063
10
38.976417348857382
20
80.321259241413543
10
25.976417348857392
20
80.321259241413543
42
0.41421356237307422
10
25.476417348857371
20
79.821259241413543
10
25.476417348857389
20
66.821259241413543
42
0.41421356237309764
10
25.976417348857392
20
66.321259241413543
10
38.976417348857382
20
66.321259241413557
42
0.41421356237310542
10
39.476417348857375
20
66.821259241413543
0
LWPOLYLINE
5
124
100
AcDbEntity
8
0
100
AcDbPolyline
90
8
70
1
43
0.0
10
63.288917348857403
20
60.771259241413546
42
0.4142135623730846
10
62.788917348857403
20
61.271259241413539
10
49.788917348857389
20
61.271259241413532
42
0.41421356237308982
10
49.28891734885741
20
60.771259241413546
10
49.288917348857382
20
47.771259241413524
42
0.41421356237309503
10
49.788917348857389
20
47.271259241413539
10
62.788917348857403
20
47.271259241413539
42
0.41421356237310025
10
63.288917348857403
20
47.771259241413524
0
LWPOLYLINE
5
125
100
AcDbEntity
8
0
100
AcDbPolyline
90
8
70
1
43
0.0
10
96.126417348857402
20
66.321259241413543
42
0.41421356237310542
10
96.626417348857387
20
66.821259241413543
10
96.626417348857373
20
79.821259241413543
42
0.41421356237308982
10
96.126417348857402
20
80.321259241413543
10
83.126417348857373
20
80.321259241413543
42
0.41421356237311063
10
82.626417348857359
20
79.821259241413543
10
82.626417348857359
20
66.821259241413543
42
0.4142135623730534
10
83.126417348857373
20
66.321259241413543
0
LWPOLYLINE
5
126
100
AcDbEntity
8
0
100
AcDbPolyline
90
8
70
1
43
0.0
10
20.426417348857377
20
66.821259241413543
10
20.426417348857377
20
79.821259241413543
42
0.41421356237309115
10
19.926417348857385
20
80.321259241413543
10
6.9264173488573855
20
80.321259241413543
42
0.41421356237307944
10
6.4264173488573784
20
79.821259241413543
10
6.4264173488573846
20
66.821259241413543
42
0.41421356237309631
10
6.9264173488573855
20
66.321259241413543
10
19.926417348857385
20
66.321259241413543
42
0.41421356237310153
0
LWPOLYLINE
5
127
100
AcDbEntity
8
0
100
AcDbPolyline
90
8
70
1
43
0.0
10
97.413917348857382
20
42.221259241413527
42
0.41421356237311585
10
96.913917348857396
20
41.721259241413541
10
96.91391734885741
20
28.721259241413534
42
0.41421356237308982
10
97.413917348857382
20
28.221259241413541
10
110.41391734885738
20
28.221259241413541
42
0.41421356237310542
10
110.9139173488574
20
28.721259241413534
10
110.9139173488574
20
41.721259241413541
42
0.41421356237309503
10
110.41391734885738
20
42.221259241413549
0
LWPOLYLINE
5
128
100
AcDbEntity
8
0
100
AcDbPolyline
90
8
70
1
43
0.0
10
264.1014173488573
20
66.321259241413529
42
-0.41421356237310025
10
263.6014173488573
20
66.821259241413543
10
263.6014173488573
20
79.821259241413543
42
-0.41421356237313667
10
264.1014173488573
20
80.321259241413543
10
277.1014173488573
20
80.321259241413529
42
-0.41421356237305862
10
277.60141734885741
20
79.821259241413543
10
277.60141734885741
20
66.821259241413543
42
-0.41421356237310025
10
277.1014173488573
20
66.321259241413543
0
LWPOLYLINE
5
129
100
AcDbEntity
8
0
100
AcDbPolyline
90
8
70
1
43
0.0
10
100.88891734885742
20
47.271259241413532
42
0.41421356237305862
10
101.3889173488574
20
47.771259241413524
10
101.38891734885739
20
60.771259241413546
42
0.41421356237307422
10
100.8889173488574
20
61.271259241413539
10
87.88891734885739
20
61.271259241413532
42
0.41421356237306384
10
87.38891734885739
20
60.771259241413546
10
87.38891734885739
20
47.771259241413524
42
0.414213562373069
10
87.88891734885739
20
47.271259241413532
0
LWPOLYLINE
5
130
100
AcDbEntity
8
0
100
AcDbPolyline
90
53
70
1
43
0.0
10
139.87332271578344
20
85.564335439861665
10
139.37725185471254
20
84.032199975953858
42
-0.32520538614568512
10
137.71234491787732
20
82.821259241413543
10
15.446861223730188
20
82.821259241413543
42
-0.32520538614568234
10
13.78195428689498
20
84.032199975953858
10
13.285883425824034
20
85.564335439861665
42
0.72733238582221904
10
9.0046941596763013
20
85.564335439861622
10
8.5086232986053307
20
84.032199975953858
42
-0.32520538614567607
10
6.8437163617700847
20
82.821259241413543
10
5.1764173488573562
20
82.821259241413543
42
0.4142135623730997
10
3.926417348857338
20
81.571259241413472
10
3.9264173488573739
20
7.9212592414135399
42
0.41421356237311036
10
5.1764173488574095
20
6.6712592414135052
10
6.8437163617700669
20
6.671259241413563
42
-0.32520538614568073
10
8.5086232986053112
20
5.4603185068732252
10
9.0046941596762569
20
3.9281830429654185
42
0.72733238582222381
10
13.285883425823979
20
3.9281830429654181
10
13.781954286894944
20
5.4603185068732172
42
-0.32520538614568345
10
15.446861223730171
20
6.6712592414135408
10
137.71234491787735
20
6.6712592414135479
42
-0.32520538614568001
10
139.3772518547126
20
5.4603185068732421
10
139.87332271578353
20
3.9281830429654283
42
0.72733238582222792
10
144.15451198193125
20
3.9281830429654296
10
144.65058284300221
20
5.4603185068732003
42
-0.32520538614568156
10
146.31548977983741
20
6.6712592414135408
10
212.2100335746097
20
6.6712592414135319
10
213.71290974369862
20
6.671259241413563
42
-0.26531320840249484
10
214.57397121887041
20
6.1797601125780011
10
216.80596043678096
20
2.4002583702490821
42
0.26531320840241257
10
217.66702191195287
20
1.9087592414134731
10
217.73891734885737
20
1.908759241413529
10
274.08891734885742
20
1.9087592414133159
42
0.41421356237304302
10
275.33891734885748
20
3.158759241413378
42
-0.32520538614568129
10
276.54985808339774
20
4.8236661782486401
10
278.08199354730561
20
5.3197370393195289
42
0.72733238582220805
10
278.08199354730567
20
9.6009263054672722
10
276.54985808339774
20
10.096997166538248
42
-0.32520538614568367
10
275.33891734885748
20
11.761904103373466
10
275.33891734885748
20
21.19525163625454
42
-0.26531320840233591
10
275.83041647769301
20
22.056313111426324
10
279.60991822002177
20
24.28830232933711
42
0.26531320840243067
10
280.1014173488573
20
25.149363804508891
10
280.10141734885735
20
81.571259241413543
42
0.41421356237310752
10
278.8514173488573
20
82.821259241413543
10
277.1841183359445
20
82.821259241413657
42
-0.32520538614566785
10
275.51921139910939
20
84.032199975953858
10
275.02314053803843
20
85.564335439861665
42
0.72733238582222604
10
270.74195127189057
20
85.564335439861708
10
270.24588041081972
20
84.032199975953858
42
-0.32520538614570221
10
268.5809734739845
20
82.821259241413514
10
146.31548977983738
20
82.821259241413529
42
-0.32520538614569611
10
144.65058284300213
20
84.032199975953858
10
144.15451198193119
20
85.564335439861665
42
0.72733238582221282
0
CIRCLE
5
131
100
AcDbEntity
8
0
100
AcDbCircle
10
272.8825459049645
20
84.871259241413512
30
0
40
1.0999999999999988
210
0
220
0
230
1
0
CIRCLE
5
132
100
AcDbEntity
8
0
100
AcDbCircle
10
11.145288792750121
20
4.6212592414135401
30
0
40
1.1000000000000012
210
0
220
0
230
1
0
CIRCLE
5
133
100
AcDbEntity
8
0
100
AcDbCircle
10
11.145288792750172
20
84.871259241413512
30
0
40
1.0999999999999988
210
0
220
0
230
1
0
CIRCLE
5
134
100
AcDbEntity
8
0
100
AcDbCircle
10
277.38891734885743
20
7.4603316723934121
30
0
40
1.099999999999999
210
0
220
0
230
1
0
CIRCLE
5
135
100
AcDbEntity
8
0
100
AcDbCircle
10
142.01391734885738
20
4.6212592414135401
30
0
40
1.0999999999999988
210
0
220
0
230
1
0
CIRCLE
5
136
100
AcDbEntity
8
0
100
AcDbCircle
10
142.01391734885732
20
84.871259241413512
30
0
40
1.0999999999999988
210
0
220
0
230
1
0
ARC
5
137
100
AcDbEntity
8
0
100
AcDbCircle
10
-14.070167348857392
20
28.721259241413534
30
0
40
0.49999999999999822
210
-0
220
0
230
-1
100
AcDbArc
50
-89.99999999999919
51
0
0
LINE
5
138
100
AcDbEntity
8
0
100
AcDbLine
10
27.070167348857392
20
28.221259241413534
30
0
11
14.070167348857385
21
28.221259241413534
31
0
0
ARC
5
139
100
AcDbEntity
8
0
100
AcDbCircle
10
-27.070167348857392
20
41.721259241413541
30
0
40
0.49999999999999822
210
0
220
0
230
-1
100
AcDbArc
50
90
51
180
0
ARC
5
140
100
AcDbEntity
8
0
100
AcDbCircle
10
-14.070167348857389
20
41.721259241413541
30
0
40
0.499999999999996
210
0
220
0
230
-1
100
AcDbArc
50
0
51
89.999999999999588
0
LINE
5
141
100
AcDbEntity
8
0
100
AcDbLine
10
14.070167348857385
20
42.221259241413534
30
0
11
27.070167348857392
21
42.221259241413534
31
0
0
LINE
5
142
100
AcDbEntity
8
0
100
AcDbLine
10
13.570167348857387
20
28.721259241413534
30
0
11
13.570167348857387
21
41.721259241413541
31
0
0
ARC
5
143
100
AcDbEntity
8
0
100
AcDbCircle
10
-27.070167348857392
20
28.721259241413534
30
0
40
0.49999999999999822
210
0
220
0
230
-1
100
AcDbArc
50
180
51
270
0
LINE
5
144
100
AcDbEntity
8
0
100
AcDbLine
10
27.570167348857385
20
41.721259241413549
30
0
11
27.570167348857389
21
28.721259241413534
31
0
0
LINE
5
145
100
AcDbEntity
8
0
100
AcDbLine
10
14.070167348857385
20
42.221259241413534
30
0
11
27.070167348857392
21
42.221259241413534
31
0
0
LINE
5
146
100
AcDbEntity
8
0
100
AcDbLine
10
13.570167348857387
20
28.721259241413534
30
0
11
13.570167348857387
21
41.721259241413541
31
0
0
ARC
5
147
100
AcDbEntity
8
0
100
AcDbCircle
10
-27.070167348857392
20
41.721259241413541
30
0
40
0.49999999999999822
210
0
220
0
230
-1
100
AcDbArc
50
90
51
180
0
LINE
5
148
100
AcDbEntity
8
0
100
AcDbLine
10
27.070167348857392
20
28.221259241413534
30
0
11
14.070167348857385
21
28.221259241413534
31
0
0
LINE
5
149
100
AcDbEntity
8
0
100
AcDbLine
10
27.570167348857385
20
41.721259241413549
30
0
11
27.570167348857389
21
28.721259241413534
31
0
0
ARC
5
150
100
AcDbEntity
8
0
100
AcDbCircle
10
-27.070167348857392
20
28.721259241413534
30
0
40
0.49999999999999822
210
0
220
0
230
-1
100
AcDbArc
50
180
51
270
0
ARC
5
151
100
AcDbEntity
8
0
100
AcDbCircle
10
-14.070167348857392
20
28.721259241413534
30
0
40
0.49999999999999822
210
-0
220
0
230
-1
100
AcDbArc
50
-89.99999999999919
51
0
0
ARC
5
152
100
AcDbEntity
8
0
100
AcDbCircle
10
-14.070167348857389
20
41.721259241413541
30
0
40
0.499999999999996
210
0
220
0
230
-1
100
AcDbArc
50
0
51
89.999999999999588
0
CIRCLE
5
153
100
AcDbEntity
8
0
100
AcDbCircle
10
256.33891734885759
20
73.34625924141352
30
0
40
2.5000000000000044
210
0
220
0
230
1
0
CIRCLE
5
154
100
AcDbEntity
8
0
100
AcDbCircle
10
256.33891734885759
20
54.296259241413551
30
0
40
2.4999999999999862
210
0
220
0
230
1
0
CIRCLE
5
155
100
AcDbEntity
8
0
100
AcDbCircle
10
256.33891734885759
20
63.821259241413529
30
0
40
2.4999999999999845
210
0
220
0
230
1
0
LWPOLYLINE
5
156
100
AcDbEntity
8
0
100
AcDbPolyline
90
8
70
1
43
0.0
10
158.03891734885738
20
61.271259241413532
10
145.03891734885738
20
61.271259241413532
42
0.41421356237306384
10
144.53891734885738
20
60.771259241413546
10
144.53891734885738
20
47.771259241413524
42
0.414213562373069
10
145.03891734885738
20
47.271259241413532
10
158.03891734885738
20
47.271259241413532
42
0.41421356237308982
10
158.53891734885738
20
47.771259241413524
10
158.53891734885738
20
60.771259241413546
42
0.4142135623730846
0
LWPOLYLINE
5
157
100
AcDbEntity
8
0
100
AcDbPolyline
90
8
70
1
43
0.0
10
158.8264173488574
20
79.821259241413543
10
158.8264173488574
20
66.821259241413543
42
0.41421356237312101
10
159.32641734885743
20
66.321259241413529
10
172.32641734885738
20
66.321259241413571
42
0.41421356237310025
10
172.82641734885743
20
66.821259241413543
10
172.82641734885743
20
79.821259241413543
42
0.41421356237307422
10
172.32641734885738
20
80.321259241413543
10
159.32641734885743
20
80.321259241413543
42
0.41421356237311063
0
LWPOLYLINE
5
158
100
AcDbEntity
8
0
100
AcDbPolyline
90
8
70
1
43
0.0
10
164.08891734885739
20
61.271259241413503
42
0.41421356237308982
10
163.58891734885742
20
60.771259241413546
10
163.58891734885742
20
47.771259241413524
42
0.41421356237310542
10
164.08891734885739
20
47.271259241413532
10
177.08891734885748
20
47.271259241413503
42
0.4142135623730846
10
177.58891734885742
20
47.771259241413524
10
177.58891734885742
20
60.771259241413546
42
0.41421356237314183
10
177.08891734885742
20
61.271259241413539
0
LWPOLYLINE
5
159
100
AcDbEntity
8
0
100
AcDbPolyline
90
8
70
1
43
0.0
10
191.87641734885742
20
79.821259241413543
42
0.41421356237312623
10
191.37641734885739
20
80.321259241413543
10
178.37641734885744
20
80.321259241413543
42
0.41421356237312623
10
177.87641734885742
20
79.821259241413543
10
177.87641734885742
20
66.821259241413543
42
0.41421356237301699
10
178.37641734885744
20
66.321259241413529
10
191.37641734885739
20
66.321259241413543
42
0.41421356237313145
10
191.87641734885742
20
66.821259241413543
0
LWPOLYLINE
5
160
100
AcDbEntity
8
0
100
AcDbPolyline
90
8
70
1
43
0.0
10
182.63891734885738
20
60.771259241413546
42
-0.41421356237310542
10
183.13891734885743
20
61.271259241413532
10
196.13891734885743
20
61.271259241413524
42
-0.41421356237312101
10
196.63891734885743
20
60.771259241413546
10
196.63891734885743
20
47.771259241413524
42
-0.41421356237313667
10
196.13891734885743
20
47.271259241413532
10
183.13891734885743
20
47.271259241413532
42
-0.414213562373069
10
182.63891734885738
20
47.771259241413524
0
LWPOLYLINE
5
161
100
AcDbEntity
8
0
100
AcDbPolyline
90
8
70
1
43
0.0
10
215.18891734885742
20
61.271259241413539
10
202.18891734885742
20
61.271259241413524
42
0.41421356237312101
10
201.68891734885739
20
60.771259241413546
10
201.68891734885739
20
47.771259241413524
42
0.41421356237313667
10
202.18891734885742
20
47.271259241413532
10
215.18891734885742
20
47.271259241413532
42
0.414213562373069
10
215.68891734885739
20
47.771259241413524
10
215.68891734885736
20
60.771259241413546
42
0.4142135623730846
0
LWPOLYLINE
5
162
100
AcDbEntity
8
0
100
AcDbPolyline
90
8
70
1
43
0.0
10
153.27641734885739
20
66.321259241413543
42
0.41421356237309503
10
153.77641734885739
20
66.821259241413543
10
153.77641734885739
20
79.821259241413543
42
0.41421356237308982
10
153.27641734885739
20
80.321259241413543
10
140.27641734885742
20
80.321259241413543
42
0.41421356237311063
10
139.77641734885739
20
79.821259241413543
10
139.77641734885739
20
66.821259241413543
42
0.41421356237312101
10
140.27641734885742
20
66.321259241413529
0
LWPOLYLINE
5
163
100
AcDbEntity
8
0
100
AcDbPolyline
90
8
70
1
43
0.0
10
154.56391734885742
20
28.221259241413534
10
167.56391734885742
20
28.221259241413517
42
0.41421356237310025
10
168.06391734885744
20
28.721259241413534
10
168.06391734885744
20
41.721259241413541
42
0.41421356237314705
10
167.56391734885742
20
42.221259241413549
10
154.56391734885742
20
42.221259241413527
42
0.41421356237311585
10
154.06391734885742
20
41.721259241413541
10
154.06391734885742
20
28.721259241413534
42
0.41421356237305601
0
LWPOLYLINE
5
164
100
AcDbEntity
8
0
100
AcDbPolyline
90
8
70
1
43
0.0
10
135.0139173488574
20
41.721259241413541
10
135.0139173488574
20
28.721259241413534
42
0.41421356237305601
10
135.5139173488574
20
28.221259241413534
10
148.5139173488574
20
28.221259241413531
42
0.41421356237309243
10
149.01391734885738
20
28.721259241413534
10
149.01391734885743
20
41.721259241413541
42
0.41421356237309503
10
148.5139173488574
20
42.221259241413549
10
135.5139173488574
20
42.221259241413527
42
0.41421356237311585
0
LWPOLYLINE
5
165
100
AcDbEntity
8
0
100
AcDbPolyline
90
8
70
1
43
0.0
10
173.1139173488574
20
28.721259241413534
42
0.41421356237312101
10
173.61391734885743
20
28.221259241413534
10
186.61391734885743
20
28.221259241413517
42
0.41421356237310025
10
187.11391734885746
20
28.721259241413534
10
187.11391734885746
20
41.721259241413541
42
0.41421356237314705
10
186.61391734885743
20
42.221259241413549
10
173.61391734885743
20
42.22125924141352
42
0.41421356237312101
10
173.11391734885743
20
41.721259241413541
0
ARC
5
166
100
AcDbEntity
8
0
100
AcDbCircle
10
217.5634173488574
20
65.821259241413529
30
0
40
0.49999999999997158
210
0
220
0
230
1
100
AcDbArc
50
180
51
270
0
LINE
5
167
100
AcDbEntity
8
0
100
AcDbLine
10
217.5634173488574
20
65.321259241413529
30
0
11
223.56341734885743
21
65.321259241413529
31
0
0
ARC
5
168
100
AcDbEntity
8
0
100
AcDbCircle
10
223.56341734885743
20
65.821259241413529
30
0
40
0.49999999999999822
210
-0
220
0
230
1
100
AcDbArc
50
-90
51
0
0
ARC
5
169
100
AcDbEntity
8
0
100
AcDbCircle
10
241.43941734885743
20
65.821259241413529
30
0
40
0.50000000000000711
210
0
220
0
230
1
100
AcDbArc
50
180
51
270
0
LINE
5
170
100
AcDbEntity
8
0
100
AcDbLine
10
241.43941734885743
20
65.321259241413529
30
0
11
247.43941734885743
21
65.321259241413529
31
0
0
ARC
5
171
100
AcDbEntity
8
0
100
AcDbCircle
10
247.43941734885743
20
65.821259241413529
30
0
40
0.49999999999999822
210
-0
220
0
230
1
100
AcDbArc
50
-90
51
0
0
LWPOLYLINE
5
172
100
AcDbEntity
8
0
100
AcDbPolyline
90
8
70
1
43
0.0
10
210.92641734885743
20
66.821259241413543
10
210.92641734885743
20
79.821259241413543
42
0.41421356237312623
10
210.4264173488574
20
80.321259241413543
10
197.42641734885746
20
80.321259241413543
42
0.41421356237312623
10
196.92641734885743
20
79.821259241413543
10
196.92641734885743
20
66.821259241413543
42
0.41421356237301699
10
197.42641734885746
20
66.321259241413529
10
210.4264173488574
20
66.321259241413543
42
0.41421356237313145
0
ARC
5
173
100
AcDbEntity
8
0
100
AcDbCircle
10
-216.47641734885752
20
66.821259241413614
30
0
40
0.50000000000007816
210
-0
220
0
230
-1
100
AcDbArc
50
270.00000000000648
51
360
0
LINE
5
174
100
AcDbEntity
8
0
100
AcDbLine
10
215.97641734885744
20
66.821259241413543
30
0
11
215.97641734885744
21
79.821259241413543
31
0
0
ARC
5
175
100
AcDbEntity
8
0
100
AcDbCircle
10
-216.47641734885741
20
79.821259241413557
30
0
40
0.49999999999997158
210
-0
220
0
230
-1
100
AcDbArc
50
0
51
90.000000000006523
0
ARC
5
176
100
AcDbEntity
8
0
100
AcDbCircle
10
-248.52641734885748
20
79.821259241413557
30
0
40
0.49999999999998046
210
0
220
0
230
-1
100
AcDbArc
50
89.999999999993491
51
180
0
LINE
5
177
100
AcDbEntity
8
0
100
AcDbLine
10
249.02641734885745
20
79.821259241413543
30
0
11
249.02641734885745
21
66.821259241413543
31
0
0
ARC
5
178
100
AcDbEntity
8
0
100
AcDbCircle
10
-248.52641734885748
20
66.821259241413514
30
0
40
0.49999999999997158
210
0
220
0
230
-1
100
AcDbArc
50
180
51
270.00000000000648
0
LINE
5
179
100
AcDbEntity
8
0
100
AcDbLine
10
248.52641734885742
20
80.321259241413543
30
0
11
216.47641734885747
21
80.321259241413543
31
0
0
LINE
5
180
100
AcDbEntity
8
0
100
AcDbLine
10
217.06341734885743
20
65.821259241413529
30
0
11
217.06341734885743
21
66.321259241413529
31
0
0
LINE
5
181
100
AcDbEntity
8
0
100
AcDbLine
10
224.06341734885743
20
65.821259241413529
30
0
11
224.06341734885743
21
66.321259241413529
31
0
0
LINE
5
182
100
AcDbEntity
8
0
100
AcDbLine
10
240.93941734885743
20
65.821259241413529
30
0
11
240.93941734885743
21
66.321259241413543
31
0
0
LINE
5
183
100
AcDbEntity
8
0
100
AcDbLine
10
247.93941734885746
20
65.821259241413529
30
0
11
247.93941734885746
21
66.321259241413543
31
0
0
LINE
5
184
100
AcDbEntity
8
0
100
AcDbLine
10
217.06341734885743
20
66.321259241413529
30
0
11
216.47641734885747
21
66.321259241413529
31
0
0
LINE
5
185
100
AcDbEntity
8
0
100
AcDbLine
10
224.06341734885743
20
66.321259241413529
30
0
11
240.93941734885743
21
66.321259241413543
31
0
0
LINE
5
186
100
AcDbEntity
8
0
100
AcDbLine
10
247.93941734885746
20
66.321259241413543
30
0
11
248.52641734885742
21
66.321259241413543
31
0
0
LWPOLYLINE
5
187
100
AcDbEntity
8
0
100
AcDbPolyline
90
8
70
1
43
0.0
10
8.8076673488573931
20
9.671259241413539
10
8.8076673488573949
20
22.671259241413537
42
-0.41421356237309437
10
9.3076673488573913
20
23.171259241413537
10
22.307667348857393
20
23.171259241413541
42
-0.41421356237309503
10
22.807667348857397
20
22.671259241413537
10
22.807667348857393
20
9.671259241413539
42
-0.41421356237309503
10
22.307667348857393
20
9.1712592414135408
10
9.3076673488573931
20
9.171259241413539
42
-0.41421356237309503
0
LWPOLYLINE
5
188
100
AcDbEntity
8
0
100
AcDbPolyline
90
8
70
1
43
0.0
10
30.238917348857392
20
9.671259241413539
10
30.238917348857392
20
22.671259241413537
42
-0.41421356237309503
10
30.738917348857392
20
23.171259241413537
10
43.738917348857392
20
23.171259241413537
42
-0.41421356237309503
10
44.238917348857392
20
22.671259241413537
10
44.238917348857392
20
9.671259241413539
42
-0.41421356237309503
10
43.738917348857392
20
9.1712592414135408
10
30.738917348857392
20
9.1712592414135408
42
-0.41421356237309503
0
LWPOLYLINE
5
189
100
AcDbEntity
8
0
100
AcDbPolyline
90
8
70
1
43
0.0
10
51.670167348857404
20
9.671259241413539
10
51.67016734885739
20
22.671259241413537
42
-0.41421356237309503
10
52.17016734885739
20
23.171259241413537
10
65.170167348857404
20
23.171259241413527
42
-0.41421356237309503
10
65.67016734885739
20
22.671259241413537
10
65.67016734885739
20
9.671259241413539
42
-0.41421356237309503
10
65.170167348857404
20
9.1712592414135408
10
52.17016734885739
20
9.1712592414135496
42
-0.41421356237309503
0
LWPOLYLINE
5
190
100
AcDbEntity
8
0
100
AcDbPolyline
90
10
70
1
43
0.0
10
76.60766734885739
20
9.6712592414135301
10
76.60766734885739
20
22.671259241413537
42
-0.41421356237309503
10
77.10766734885739
20
23.171259241413537
10
90.270167348857413
20
23.171259241413537
10
103.2701673488574
20
23.171259241413537
10
111.7081673488574
20
23.171259241413516
42
-0.41421356237308721
10
112.20816734885742
20
22.671259241413523
10
112.20816734885742
20
9.6712592414135301
42
-0.41421356237309503
10
111.7081673488574
20
9.1712592414135319
10
77.10766734885739
20
9.171259241413523
42
-0.41421356237309503
0
LWPOLYLINE
5
191
100
AcDbEntity
8
0
100
AcDbPolyline
90
10
70
1
43
0.0
10
123.10766734885739
20
22.671259241413537
42
-0.41421356237309503
10
123.6076673488574
20
23.171259241413537
10
128.37016734885739
20
23.171259241413537
10
136.60766734885743
20
23.171259241413537
10
141.37016734885742
20
23.171259241413544
42
-0.41421356237309503
10
141.87016734885742
20
22.671259241413537
10
141.87016734885742
20
9.671259241413539
42
-0.41421356237309503
10
141.37016734885742
20
9.1712592414135408
10
123.6076673488574
20
9.1712592414135496
42
-0.41421356237309503
10
123.1076673488574
20
9.671259241413539
0
LWPOLYLINE
5
192
100
AcDbEntity
8
0
100
AcDbPolyline
90
11
70
1
43
0.0
10
152.76966734885741
20
22.671259241413537
42
-0.41421356237309503
10
153.26966734885738
20
23.171259241413537
10
161.7076673488574
20
23.171259241413537
10
174.7076673488574
20
23.171259241413537
10
183.14566734885739
20
23.171259241413548
42
-0.41421356237309764
10
183.64566734885739
20
22.671259241413537
10
183.64566734885739
20
9.6712592414135301
42
-0.41421356237309503
10
183.14566734885739
20
9.1712592414135319
10
183.10766734885738
20
9.1712592414135319
10
153.26966734885738
20
9.171259241413523
42
-0.41421356237309503
10
152.76966734885738
20
9.6712592414135301
0
LWPOLYLINE
5
193
100
AcDbEntity
8
0
100
AcDbPolyline
90
8
70
1
43
0.0
10
194.5451673488574
20
9.671259241413539
10
194.5451673488574
20
22.671259241413537
42
-0.41421356237309503
10
195.0451673488574
20
23.171259241413537
10
208.0451673488574
20
23.171259241413544
42
-0.41421356237309503
10
208.54516734885743
20
22.671259241413537
10
208.54516734885743
20
9.671259241413539
42
-0.41421356237309503
10
208.0451673488574
20
9.1712592414135408
10
195.0451673488574
20
9.1712592414135319
42
-0.41421356237309503
0
ENDSEC
0
SECTION
2
OBJECTS
0
DICTIONARY
5
C
100
AcDbDictionary
3
ACAD_GROUP
350
D
3
ACAD_MLINESTYLE
350
17
0
DICTIONARY
5
D
100
AcDbDictionary
0
DICTIONARY
5
1A
330
C
100
AcDbDictionary
0
DICTIONARY
5
17
100
AcDbDictionary
0
ENDSEC
0
EOF
