0
SECTION
2
HEADER
9
$INSUNITS
70
4
9
$ACADVER
1
AC1014
9
$HANDSEED
5
FFFF
0
ENDSEC
0
SECTION
2
TABLES
0
TABLE
2
VPORT
5
8
100
AcDbSymbolTable
0
ENDTAB
0
TABLE
2
LTYPE
5
5
100
AcDbSymbolTable
0
LTYPE
5
14
100
AcDbSymbolTableRecord
100
AcDbLinetypeTableRecord
2
BYBLOCK
70
0
0
LTYPE
5
15
100
AcDbSymbolTableRecord
100
AcDbLinetypeTableRecord
2
BYLAYER
70
0
0
ENDTAB
0
TABLE
2
LAYER
5
2
100
AcDbSymbolTable
70
2
0
LAYER
5
50
100
AcDbSymbolTableRecord
100
AcDbLayerTableRecord
2
0
70
0
6
CONTINUOUS
0
ENDTAB
0
TABLE
2
STYLE
5
3
100
AcDbSymbolTable
70
1
0
STYLE
5
11
100
AcDbSymbolTableRecord
100
AcDbTextStyleTableRecord
2
STANDARD
70
0
0
ENDTAB
0
TABLE
2
VIEW
5
6
100
AcDbSymbolTable
70
0
0
ENDTAB
0
TABLE
2
UCS
5
7
100
AcDbSymbolTable
70
0
0
ENDTAB
0
TABLE
2
APPID
5
9
100
AcDbSymbolTable
70
2
0
APPID
5
12
100
AcDbSymbolTableRecord
100
AcDbRegAppTableRecord
2
ACAD
70
0
0
ENDTAB
0
TABLE
2
DIMSTYLE
5
A
100
AcDbSymbolTable
70
1
0
ENDTAB
0
TABLE
2
BLOCK_RECORD
5
1
100
AcDbSymbolTable
70
1
0
BLOCK_RECORD
5
1F
100
AcDbSymbolTableRecord
100
AcDbBlockTableRecord
2
*MODEL_SPACE
0
BLOCK_RECORD
5
1B
100
AcDbSymbolTableRecord
100
AcDbBlockTableRecord
2
*PAPER_SPACE
0
ENDTAB
0
ENDSEC
0
SECTION
2
BLOCKS
0
BLOCK
5
20
100
AcDbEntity
100
AcDbBlockBegin
2
*MODEL_SPACE
0
ENDBLK
5
21
100
AcDbEntity
100
AcDbBlockEnd
0
BLOCK
5
1C
100
AcDbEntity
100
AcDbBlockBegin
2
*PAPER_SPACE
0
ENDBLK
5
1D
100
AcDbEntity
100
AcDbBlockEnd
0
ENDSEC
0
SECTION
2
ENTITIES
0
LWPOLYLINE
5
100
100
AcDbEntity
8
0
100
AcDbPolyline
90
56
70
1
43
0.0
10
-38.752316827796051
20
-12.575011030001907
42
-0.4142135623730947
10
-36.752316827796051
20
-10.575011030001903
10
8.7751825100992775
20
-10.575011030001944
42
0.41421356237323903
10
10.575182510099443
20
-8.7750110300022399
10
10.575182510099523
20
66.024951599998062
42
0.41421356237323254
10
8.7751825100993486
20
67.824951599998172
10
-36.752316827796889
20
67.824951599998201
42
-0.41421356237307616
10
-38.752316827796783
20
69.824951599998201
10
-38.752316827796882
20
70.157922419348722
42
0.41421356237312795
10
-40.652316827796476
20
72.057922419348301
10
-41.352316827829078
20
72.057922419348415
10
-41.352316827831778
20
70.024951410598405
42
-0.99999999999999989
10
-43.852316827829981
20
70.024951410598405
10
-43.852316827829981
20
72.057922419348301
10
-44.552316827865283
20
72.057922419348415
42
0.41421356237307866
10
-46.452316827864884
20
70.157922419348722
10
-46.452316827864884
20
69.824951599998215
42
-0.41421356237310153
10
-48.452316827864905
20
67.824951599998229
10
-161.10731194235683
20
67.824951599998343
42
-0.41421356237309243
10
-163.10731194235674
20
69.824951599998315
10
-163.1073119423578
20
70.157922419348822
42
0.41421356237311285
10
-165.00731194235672
20
72.057922419348003
10
-165.70731194238985
20
72.057922419348529
10
-165.70731194239187
20
70.024951410598646
42
-0.99999999999999989
10
-168.20731194238988
20
70.024951410598618
10
-168.20731194239085
20
72.057922419348529
10
-168.90731194242579
20
72.057922419348429
42
0.41421356237310736
10
-170.80731194242537
20
70.157922419348836
10
-170.80731194242475
20
69.824951599998315
42
-0.4142135623732342
10
-172.8073119424258
20
67.824951599998428
10
-218.33962877022083
20
67.824951599997448
42
0.41421356237325985
10
-220.13962877022109
20
66.024951599998175
10
-220.13962877022186
20
-8.7750110300024531
42
0.414213562373207
10
-218.33962877022088
20
-10.575011030002075
10
-172.80731194242588
20
-10.575011030001777
42
-0.41421356237309731
10
-170.80731194242588
20
-12.575011030001786
10
-170.80731194242486
20
-12.907981849352286
42
0.41421356237303314
10
-168.90731194242588
20
-14.807981849352867
10
-168.20731194239289
20
-14.807981849352387
10
-168.20731194239085
20
-12.775010840602473
42
-0.99999999999999989
10
-165.70731194239184
20
-12.775010840602494
10
-165.70731194239187
20
-14.807981849352887
10
-165.00731194235684
20
-14.807981849351883
42
0.41421356237310636
10
-163.10731194235726
20
-12.907981849352295
10
-163.10731194235689
20
-12.575011030001995
42
-0.41421356237296497
10
-161.10731194235785
20
-10.575011030001797
10
-48.452316827864053
20
-10.575011030001896
42
-0.41421356237313894
10
-46.452316827864053
20
-12.575011030002196
10
-46.45231682786406
20
-12.907981849352396
42
0.41421356237312856
10
-44.552316827864466
20
-14.807981849352991
10
-43.852316827831849
20
-14.807981849352494
10
-43.852316827829149
20
-12.775010840602597
42
-0.99999999999999989
10
-41.352316827830961
20
-12.775010840602601
10
-41.352316827830961
20
-14.807981849353
10
-40.652316827795651
20
-14.807981849352201
42
0.41421356237311013
10
-38.752316827795951
20
-12.907981849352407
0
LWPOLYLINE
5
101
100
AcDbEntity
8
0
100
AcDbPolyline
90
8
70
1
43
0.0
10
-158.40458984748082
20
50.149947533574029
10
-146.40503984748082
20
50.149947533574
42
0.41421356237309764
10
-145.40503984748082
20
51.149947533574007
10
-145.40503984748085
20
63.150047533573712
42
0.41421356237308982
10
-146.40503984748082
20
64.150047533573712
10
-158.40458984748082
20
64.150047533573712
42
0.41421356237305079
10
-159.40458984748085
20
63.150047533573819
10
-159.40458984748085
20
51.149947533574036
42
0.41421356237309243
0
LWPOLYLINE
5
102
100
AcDbEntity
8
0
100
AcDbPolyline
90
8
70
1
43
0.0
10
-69.205042488047397
20
51.149949999328044
10
-69.205042488047383
20
63.150049999327848
42
0.41421356237310281
10
-70.205042488047383
20
64.150049999327834
10
-82.204592488047894
20
64.150049999327848
42
0.41421356237306123
10
-83.204592488047794
20
63.150049999327855
10
-83.204592488047794
20
51.149949999328143
42
0.41421356237307161
10
-82.204592488047879
20
50.149949999328136
10
-70.205042488047397
20
50.149949999328136
42
0.41421356237307683
0
LWPOLYLINE
5
103
100
AcDbEntity
8
0
100
AcDbPolyline
90
8
70
1
43
0.0
10
-64.15459248783749
20
63.150049999280135
10
-64.154592487837505
20
51.149949999280324
42
0.4142135623730846
10
-63.154592487837505
20
50.149949999280317
10
-51.155042487837093
20
50.149949999280317
42
0.41421356237309764
10
-50.155042487837108
20
51.149949999280309
10
-50.155042487837093
20
63.150049999280107
42
0.41421356237306384
10
-51.155042487837001
20
64.150049999280128
10
-63.154592487837498
20
64.150049999280128
42
0.41421356237309503
0
LWPOLYLINE
5
104
100
AcDbEntity
8
0
100
AcDbPolyline
90
8
70
1
43
0.0
10
-32.105042488272488
20
64.150049999378808
42
-0.41421356237309631
10
-31.105042488272492
20
63.150049999378801
10
-31.105042488272506
20
51.149949999379096
42
-0.41421356237312235
10
-32.105042488272602
20
50.14994999937911
10
-44.104592488273006
20
50.149949999379125
42
-0.41421356237309764
10
-45.104592488272992
20
51.149949999379125
10
-45.104592488272999
20
63.15004999937883
42
-0.41421356237308721
10
-44.104592488272985
20
64.150049999378808
0
LWPOLYLINE
5
105
100
AcDbEntity
8
0
100
AcDbPolyline
90
8
70
1
43
0.0
10
-26.054592488041806
20
51.149949999328101
42
0.41421356237310153
10
-25.054592488041806
20
50.149949999328101
10
-13.0550424880414
20
50.149949999327994
42
0.41421356237311585
10
-12.055042488041403
20
51.149949999328079
10
-12.055042488041385
20
63.150049999327784
42
0.4142135623730957
10
-13.055042488041384
20
64.150049999327777
10
-25.054592488041791
20
64.150049999327791
42
0.41421356237309892
10
-26.054592488041788
20
63.15004999932782
0
LWPOLYLINE
5
106
100
AcDbEntity
8
0
100
AcDbPolyline
90
8
70
1
43
0.0
10
6.994957512152542
20
51.149949999293973
10
6.9949575121525438
20
63.150049999293785
42
0.41421356237309309
10
5.9949575121525456
20
64.15004999929377
10
-6.0045924878478951
20
64.150049999293785
42
0.41421356237309209
10
-7.0045924878478711
20
63.150049999293785
10
-7.0045924878479013
20
51.149949999293973
42
0.41421356237308854
10
-6.0045924878479271
20
50.149949999293995
10
5.9949575121525331
20
50.14994999929398
42
0.41421356237309825
0
LWPOLYLINE
5
107
100
AcDbEntity
8
0
100
AcDbPolyline
90
8
70
1
43
0.0
10
-127.35503984770378
20
50.149947533621685
10
-139.35458984770378
20
50.149947533621827
42
-0.4142135623733994
10
-140.3545898477048
20
51.149947533621798
10
-140.3545898477048
20
63.150047533621503
42
-0.41421356237280366
10
-139.3545898477048
20
64.150047533621603
10
-127.35503984770378
20
64.150047533621489
42
-0.41421356237307944
10
-126.35503984770381
20
63.150047533621496
10
-126.35503984770381
20
51.149947533621685
42
-0.41421356237311063
0
LWPOLYLINE
5
108
100
AcDbEntity
8
0
100
AcDbPolyline
90
8
70
1
43
0.0
10
-202.55503984769786
20
44.100047533624036
10
-202.55503984769786
20
32.099947533624345
42
-0.41421356237308854
10
-203.55503984769783
20
31.099947533624448
10
-215.55458984769885
20
31.099947533624377
42
-0.41421356237310675
10
-216.55458984769888
20
32.099947533624359
10
-216.55458984769882
20
44.100047533624064
42
-0.41421356237305601
10
-215.55458984769885
20
45.100047533624057
10
-203.55503984769783
20
45.100047533624029
42
-0.41421356237312101
0
LWPOLYLINE
5
109
100
AcDbEntity
8
0
100
AcDbPolyline
90
8
70
1
43
0.0
10
-196.50458984791186
20
45.100047533671841
42
0.41421356237308721
10
-197.5045898479118
20
44.100047533671855
10
-197.50458984791183
20
32.099947533672136
42
0.41421356237313145
10
-196.50458984791186
20
31.099947533672022
10
-184.5050398479118
20
31.099947533672033
42
0.41421356237315093
10
-183.50503984791175
20
32.099947533672129
10
-183.50503984791175
20
44.100047533671855
42
0.41421356237306123
10
-184.5050398479118
20
45.100047533671855
0
LWPOLYLINE
5
110
100
AcDbEntity
8
0
100
AcDbPolyline
90
8
70
1
43
0.0
10
-69.205042488263814
20
32.099949999378424
10
-69.205042488263814
20
44.100049999378129
42
0.41421356237309243
10
-70.205042488263814
20
45.100049999378129
10
-82.204592488264296
20
45.100049999378157
42
0.41421356237309764
10
-83.204592488264296
20
44.10004999937815
10
-83.204592488264296
20
32.099949999378445
42
0.41421356237312495
10
-82.204592488264296
20
31.099949999378342
10
-70.205042488263814
20
31.099949999378332
42
0.41421356237312884
0
LWPOLYLINE
5
111
100
AcDbEntity
8
0
100
AcDbPolyline
90
8
70
1
43
0.0
10
-64.154592488054021
20
44.100049999330324
42
-0.41421356237311585
10
-63.154592488054
20
45.100049999330423
10
-51.155042488053596
20
45.100049999330317
42
-0.41421356237310025
10
-50.15504248805361
20
44.100049999330309
10
-50.155042488053624
20
32.099949999330612
42
-0.41421356237309243
10
-51.155042488053617
20
31.099949999330612
10
-63.154592488054035
20
31.099949999330633
42
-0.41421356237309631
10
-64.154592488054021
20
32.099949999330626
0
LWPOLYLINE
5
112
100
AcDbEntity
8
0
100
AcDbPolyline
90
8
70
1
43
0.0
10
-121.30458984767881
20
44.100047533623972
10
-121.30458984767881
20
32.099947533624274
42
0.41421356237307555
10
-120.30458984767881
20
31.099947533624274
10
-108.3050398476778
20
31.09994753362426
42
0.41421356237305601
10
-107.3050398476778
20
32.09994753362416
10
-107.30503984767782
20
44.100047533623972
42
0.41421356237309764
10
-108.3050398476778
20
45.100047533623965
10
-120.30458984767881
20
45.100047533623965
42
0.41421356237309503
0
LWPOLYLINE
5
113
100
AcDbEntity
8
0
100
AcDbPolyline
90
8
70
1
43
0.0
10
-164.45503984793785
20
44.10004753367182
10
-164.45503984793785
20
32.099947533672015
42
-0.4142135623730599
10
-165.45503984793785
20
31.099947533672108
10
-177.45458984793785
20
31.099947533672001
42
-0.41421356237309764
10
-178.45458984793788
20
32.099947533672022
10
-178.45458984793788
20
44.100047533671855
42
-0.41421356237309243
10
-177.45458984793785
20
45.100047533671848
10
-165.45503984793785
20
45.100047533671834
42
-0.41421356237307422
0
LWPOLYLINE
5
114
100
AcDbEntity
8
0
100
AcDbPolyline
90
8
70
1
43
0.0
10
-102.25459248804481
20
44.100049999330359
10
-102.2545924880458
20
32.099949999330647
42
0.41421356237338247
10
-101.25459248804481
20
31.099949999330661
10
-89.255042488044793
20
31.099949999330661
42
0.41421356237307161
10
-88.255042488044907
20
32.099949999330647
10
-88.255042488044793
20
44.100049999330359
42
0.41421356237310025
10
-89.255042488044793
20
45.100049999330338
10
-101.25459248804481
20
45.100049999330352
42
0.41421356237310542
0
LWPOLYLINE
5
115
100
AcDbEntity
8
0
100
AcDbPolyline
90
8
70
1
43
0.0
10
-140.35458984792081
20
32.099947533672086
10
-140.35458984792081
20
44.100047533671798
42
-0.41421356237309764
10
-139.35458984792081
20
45.100047533671798
10
-127.35503984792081
20
45.100047533671784
42
-0.41421356237309503
10
-126.35503984792081
20
44.100047533671791
10
-126.3550398479198
20
32.099947533672079
42
-0.41421356237312756
10
-127.35503984791978
20
31.099947533671969
10
-139.35458984792081
20
31.099947533671994
42
-0.41421356237309243
0
LWPOLYLINE
5
116
100
AcDbEntity
8
0
100
AcDbPolyline
90
8
70
1
43
0.0
10
-145.40503984769686
20
44.100047533624
42
0.41421356237309764
10
-146.40503984769683
20
45.100047533623993
10
-158.40458984769683
20
45.100047533624107
42
0.41421356237313145
10
-159.40458984769685
20
44.100047533624007
10
-159.40458984769685
20
32.099947533624309
42
0.41421356237308204
10
-158.40458984769683
20
31.099947533624309
10
-146.40503984769683
20
31.099947533624285
42
0.41421356237309764
10
-145.40503984769683
20
32.099947533624288
0
LWPOLYLINE
5
117
100
AcDbEntity
8
0
100
AcDbPolyline
90
8
70
1
43
0.0
10
-44.104592488489523
20
31.099949999429409
42
-0.41421356237309243
10
-45.104592488489523
20
32.099949999429413
10
-45.104592488489402
20
44.100049999429125
42
-0.41421356237311324
10
-44.104592488489509
20
45.10004999942921
10
-32.105042488489104
20
45.10004999942921
42
-0.41421356237316009
10
-31.105042488489012
20
44.100049999429089
10
-31.105042488489016
20
32.099949999429398
42
-0.41421356237312101
10
-32.105042488489126
20
31.099949999429395
0
LWPOLYLINE
5
118
100
AcDbEntity
8
0
100
AcDbPolyline
90
8
70
1
43
0.0
10
-158.40458984769782
20
12.049947533626018
42
-0.41421356237310936
10
-159.40458984769782
20
13.04994753362601
10
-159.40458984769782
20
25.050047533625701
42
-0.41421356237310542
10
-158.40458984769782
20
26.050047533625715
10
-146.40503984769782
20
26.05004753362579
42
-0.41421356237312362
10
-145.40503984769782
20
25.050047533625698
10
-145.40503984769782
20
13.049947533625996
42
-0.41421356237309698
10
-146.40503984769782
20
12.049947533625996
0
LWPOLYLINE
5
119
100
AcDbEntity
8
0
100
AcDbPolyline
90
8
70
1
43
0.0
10
-140.35458984792186
20
13.049947533673691
42
0.41421356237307422
10
-139.35458984792186
20
12.049947533673695
10
-127.35503984792082
20
12.049947533673674
42
0.41421356237309698
10
-126.35503984792082
20
13.049947533673675
10
-126.35503984792084
20
25.050047533673485
42
0.41421356237310414
10
-127.35503984792082
20
26.050047533673467
10
-139.35458984792186
20
26.050047533673482
42
0.41421356237309503
10
-140.35458984792186
20
25.050047533673485
0
LWPOLYLINE
5
120
100
AcDbEntity
8
0
100
AcDbPolyline
90
8
70
1
43
0.0
10
-164.45503984793885
20
13.049947533673816
10
-164.45503984793885
20
25.050047533673517
42
0.4142135623730937
10
-165.45503984793879
20
26.050047533673535
10
-177.45458984793882
20
26.050047533673549
42
0.41421356237308721
10
-178.45458984793879
20
25.050047533673524
10
-178.45458984793885
20
13.049947533673825
42
0.41421356237310936
10
-177.45458984793885
20
12.049947533673706
10
-165.45503984793885
20
12.049947533673802
42
0.41421356237307422
0
LWPOLYLINE
5
121
100
AcDbEntity
8
0
100
AcDbPolyline
90
8
70
1
43
0.0
10
-12.055042488257815
20
32.099949999378374
10
-12.055042488257806
20
44.100049999378079
42
0.41421356237312429
10
-13.055042488257902
20
45.100049999378072
10
-25.054592488258301
20
45.100049999378093
42
0.41421356237309503
10
-26.054592488258304
20
44.100049999378101
10
-26.054592488258322
20
32.099949999378289
42
0.41421356237307161
10
-25.054592488258315
20
31.099949999378392
10
-13.055042488257914
20
31.099949999378378
42
0.41421356237312301
0
LWPOLYLINE
5
122
100
AcDbEntity
8
0
100
AcDbPolyline
90
8
70
1
43
0.0
10
6.9949575119360929
20
44.100049999344073
42
0.4142135623730947
10
5.9949575119360974
20
45.100049999344066
10
-6.0045924880643922
20
45.100049999344087
42
0.41421356237309404
10
-7.0045924880643797
20
44.10004999934408
10
-7.0045924880643931
20
32.099949999344375
42
0.41421356237312495
10
-6.0045924880643744
20
31.099949999344272
10
5.9949575119360468
20
31.099949999344361
42
0.41421356237310902
10
6.9949575119360885
20
32.099949999344361
0
LWPOLYLINE
5
123
100
AcDbEntity
8
0
100
AcDbPolyline
90
8
70
1
43
0.0
10
-196.50458984791285
20
12.049947533673745
42
-0.41421356237311907
10
-197.50458984791288
20
13.049947533673841
10
-197.50458984791283
20
25.050047533673538
42
-0.41421356237305601
10
-196.50458984791285
20
26.050047533673535
10
-184.50503984791283
20
26.050047533673535
42
-0.41421356237312235
10
-183.50503984791285
20
25.050047533673535
10
-183.50503984791285
20
13.049947533673727
42
-0.41421356237305601
10
-184.50503984791283
20
12.049947533673732
0
LWPOLYLINE
5
124
100
AcDbEntity
8
0
100
AcDbPolyline
90
8
70
1
43
0.0
10
-107.3050398476788
20
13.049947533625961
42
-0.41421356237309698
10
-108.3050398476788
20
12.049947533625962
10
-120.30458984767982
20
12.049947533625978
42
-0.41421356237306578
10
-121.30458984767982
20
13.049947533625874
10
-121.30458984767986
20
25.050047533625673
42
-0.41421356237307294
10
-120.30458984767982
20
26.050047533625676
10
-108.3050398476788
20
26.050047533625676
42
-0.41421356237309115
10
-107.3050398476788
20
25.050047533625659
0
LWPOLYLINE
5
125
100
AcDbEntity
8
0
100
AcDbPolyline
90
8
70
1
43
0.0
10
-215.55458984769984
20
26.050047533625758
42
0.41421356237309243
10
-216.55458984769984
20
25.050047533625754
10
-216.55458984769993
20
13.049947533626057
42
0.4142135623730937
10
-215.5545898476999
20
12.049947533626044
10
-203.55503984769885
20
12.049947533626021
42
0.41421356237308721
10
-202.55503984769888
20
13.049947533626046
10
-202.55503984769885
20
25.050047533625751
42
0.41421356237310153
10
-203.55503984769882
20
26.050047533625765
0
LWPOLYLINE
5
126
100
AcDbEntity
8
0
100
AcDbPolyline
90
8
70
1
43
0.0
10
-31.105042488489527
20
25.050049999430794
42
0.4142135623730937
10
-32.105042488489524
20
26.050049999430804
10
-44.104592488489928
20
26.050049999430804
42
0.41421356237309503
10
-45.104592488489921
20
25.050049999430808
10
-45.10459248849002
20
13.049949999431105
42
0.41421356237311713
10
-44.104592488489935
20
12.049949999431107
10
-32.105042488489545
20
12.049949999431091
42
0.41421356237309437
10
-31.105042488489538
20
13.049949999431094
0
LWPOLYLINE
5
127
100
AcDbEntity
8
0
100
AcDbPolyline
90
8
70
1
43
0.0
10
-51.155042488054036
20
26.050049999332018
10
-63.154592488054426
20
26.050049999332025
42
0.41421356237309631
10
-64.154592488054419
20
25.050049999332025
10
-64.154592488054533
20
13.049949999332323
42
0.41421356237312557
10
-63.154592488054462
20
12.049949999332323
10
-51.155042488054043
20
12.049949999332298
42
0.41421356237309309
10
-50.155042488054029
20
13.049949999332306
10
-50.155042488054029
20
25.050049999332018
42
0.41421356237309243
0
LWPOLYLINE
5
128
100
AcDbEntity
8
0
100
AcDbPolyline
90
8
70
1
43
0.0
10
-13.05504248825833
20
12.049949999379976
10
-25.054592488258738
20
12.04994999938009
42
-0.41421356237306384
10
-26.054592488258734
20
13.049949999379988
10
-26.054592488258717
20
25.050049999379791
42
-0.41421356237306639
10
-25.054592488258827
20
26.050049999379787
10
-13.055042488258321
20
26.050049999379787
42
-0.41421356237309631
10
-12.055042488258323
20
25.050049999379773
10
-12.055042488258332
20
13.049949999379978
42
-0.4142135623730957
0
LWPOLYLINE
5
129
100
AcDbEntity
8
0
100
AcDbPolyline
90
8
70
1
43
0.0
10
-88.255042488045319
20
25.050049999332053
42
0.41421356237311585
10
-89.255042488045348
20
26.050049999332145
10
-101.25459248804586
20
26.050049999332145
42
0.41421356237313145
10
-102.25459248804582
20
25.05004999933206
10
-102.25459248804582
20
13.049949999332357
42
0.41421356237309698
10
-101.25459248804582
20
12.049949999332359
10
-89.25504248804522
20
12.049949999332348
42
0.4142135623730937
10
-88.25504248804522
20
13.049949999332339
0
LWPOLYLINE
5
130
100
AcDbEntity
8
0
100
AcDbPolyline
90
8
70
1
43
0.0
10
-70.205042488264326
20
12.049949999380029
42
0.41421356237310347
10
-69.205042488264326
20
13.049949999380029
10
-69.205042488264212
20
25.050049999379826
42
0.41421356237312101
10
-70.205042488264311
20
26.050049999379826
10
-82.204592488264836
20
26.050049999379826
42
0.41421356237307033
10
-83.204592488264723
20
25.050049999379844
10
-83.204592488264723
20
13.049949999380042
42
0.41421356237303519
10
-82.204592488264836
20
12.049949999380143
0
LWPOLYLINE
5
131
100
AcDbEntity
8
0
100
AcDbPolyline
90
8
70
1
43
0.0
10
6.9949575119351204
20
13.049949999345962
10
6.9949575119351328
20
25.050049999345774
42
0.41421356237308526
10
5.9949575119351515
20
26.050049999345759
10
-6.0045924880652981
20
26.05004999934577
42
0.41421356237310253
10
-7.0045924880653212
20
25.050049999345774
10
-7.00459248806537
20
13.049949999345973
42
0.41421356237310869
10
-6.004592488065331
20
12.049949999345968
10
5.9949575119351408
20
12.049949999346056
42
0.4142135623730609
0
LWPOLYLINE
5
132
100
AcDbEntity
8
0
100
AcDbPolyline
90
8
70
1
43
0.0
10
-203.55503984748182
20
50.149947533574057
42
0.41421356237307944
10
-202.55503984748177
20
51.14994753357405
10
-202.55503984748177
20
63.150047533573769
42
0.41421356237311846
10
-203.55503984748179
20
64.150047533573854
10
-215.55458984748185
20
64.150047533573826
42
0.41421356237312623
10
-216.55458984748179
20
63.150047533573783
10
-216.55458984748185
20
51.149947533574071
42
0.41421356237310802
10
-215.55458984748185
20
50.149947533574064
0
LWPOLYLINE
5
133
100
AcDbEntity
8
0
100
AcDbPolyline
90
8
70
1
43
0.0
10
-196.50458984769585
20
64.150047533621532
42
0.41421356237308721
10
-197.5045898476958
20
63.150047533621539
10
-197.50458984769585
20
51.149947533621756
42
0.41421356237306123
10
-196.50458984769585
20
50.149947533621848
10
-184.5050398476948
20
50.149947533621742
42
0.41421356237308721
10
-183.50503984769486
20
51.149947533621727
10
-183.50503984769475
20
63.150047533621532
42
0.41421356237304563
10
-184.5050398476948
20
64.150047533621546
0
LWPOLYLINE
5
134
100
AcDbEntity
8
0
100
AcDbPolyline
90
8
70
1
43
0.0
10
-165.45503984772179
20
50.149947533621827
10
-177.45458984772182
20
50.149947533621827
42
-0.41421356237307683
10
-178.45458984772182
20
51.149947533621855
10
-178.45458984772188
20
63.150047533621532
42
-0.41421356237308721
10
-177.45458984772173
20
64.150047533621532
10
-165.45503984772083
20
64.150047533621546
42
-0.41421356237308721
10
-164.45503984772077
20
63.150047533621525
10
-164.45503984772182
20
51.149947533621827
42
-0.4142135623730846
0
LINE
5
135
100
AcDbEntity
8
0
100
AcDbLine
10
-43.852316827831849
20
-14.807981849352494
30
0
11
-44.552316827864466
21
-14.807981849352991
31
0
0
ARC
5
136
100
AcDbEntity
8
0
100
AcDbCircle
10
-161.10731194235683
20
-12.575011030001853
30
0
40
2.0000000000000551
210
0
220
0
230
1
100
AcDbArc
50
90.000000000029317
51
180
0
ARC
5
137
100
AcDbEntity
8
0
100
AcDbCircle
10
-172.80731194242475
20
69.824951599998442
30
0
40
2.0000000000000018
210
0
220
0
230
1
100
AcDbArc
50
269.99999999996987
51
360
0
ARC
5
138
100
AcDbEntity
8
0
100
AcDbCircle
10
40.652316827796362
20
70.157922419348822
30
0
40
1.8999999999994799
210
0
220
0
230
-1
100
AcDbArc
50
89.999999999996589
51
180
0
LINE
5
139
100
AcDbEntity
8
0
100
AcDbLine
10
-46.452316827864884
20
69.824951599998215
30
0
11
-46.452316827864884
21
70.157922419348722
31
0
0
LINE
5
140
100
AcDbEntity
8
0
100
AcDbLine
10
-36.752316827796889
20
67.824951599998201
30
0
11
8.7751825100993468
21
67.824951599998172
31
0
0
LINE
5
141
100
AcDbEntity
8
0
100
AcDbLine
10
10.575182510099522
20
66.024951599998062
30
0
11
10.575182510099443
21
-8.7750110300022399
31
0
0
ARC
5
142
100
AcDbEntity
8
0
100
AcDbCircle
10
-166.95731194239087
20
70.024951410598632
30
0
40
1.2499999999990052
210
0
220
0
230
1
100
AcDbArc
50
-180
51
0
0
LINE
5
143
100
AcDbEntity
8
0
100
AcDbLine
10
8.7751825100992775
20
-10.575011030001946
30
0
11
-36.752316827796051
21
-10.575011030001903
31
0
0
LINE
5
144
100
AcDbEntity
8
0
100
AcDbLine
10
-41.352316827830961
20
-14.807981849353
30
0
11
-41.352316827830961
21
-12.775010840602601
31
0
0
LINE
5
145
100
AcDbEntity
8
0
100
AcDbLine
10
-163.10731194235686
20
-12.575011030001995
30
0
11
-163.10731194235726
21
-12.907981849352295
31
0
0
LINE
5
146
100
AcDbEntity
8
0
100
AcDbLine
10
-43.852316827829149
20
-12.775010840602597
30
0
11
-43.852316827831849
21
-14.807981849352494
31
0
0
LINE
5
147
100
AcDbEntity
8
0
100
AcDbLine
10
-159.40458984748085
20
51.149947533574036
30
0
11
-159.40458984748085
21
63.150047533573819
31
0
0
LINE
5
148
100
AcDbEntity
8
0
100
AcDbLine
10
-165.70731194238985
20
72.057922419348529
30
0
11
-165.00731194235672
21
72.057922419348003
31
0
0
ARC
5
149
100
AcDbEntity
8
0
100
AcDbCircle
10
158.40458984748085
20
63.150047533573741
30
0
40
0.99999999999997868
210
0
220
0
230
-1
100
AcDbArc
50
0
51
90.000000000001634
0
LINE
5
150
100
AcDbEntity
8
0
100
AcDbLine
10
-158.40458984748082
20
64.150047533573712
30
0
11
-146.40503984748082
21
64.150047533573712
31
0
0
ARC
5
151
100
AcDbEntity
8
0
100
AcDbCircle
10
146.40503984748085
20
63.150047533573712
30
0
40
1.0000000000000053
210
0
220
0
230
-1
100
AcDbArc
50
90.000000000001634
51
180
0
LINE
5
152
100
AcDbEntity
8
0
100
AcDbLine
10
-165.70731194239187
20
70.024951410598646
30
0
11
-165.70731194238985
21
72.057922419348529
31
0
0
LINE
5
153
100
AcDbEntity
8
0
100
AcDbLine
10
-170.80731194242486
20
-12.907981849352286
30
0
11
-170.80731194242588
21
-12.575011030001786
31
0
0
LINE
5
154
100
AcDbEntity
8
0
100
AcDbLine
10
-165.00731194235684
20
-14.80798184935189
30
0
11
-165.70731194239187
21
-14.807981849352887
31
0
0
LINE
5
155
100
AcDbEntity
8
0
100
AcDbLine
10
-170.80731194242475
20
69.824951599998315
30
0
11
-170.80731194242537
21
70.157922419348836
31
0
0
ARC
5
156
100
AcDbEntity
8
0
100
AcDbCircle
10
-8.775182510099949
20
-8.7750110300024495
30
0
40
1.7999999999994942
210
0
220
0
230
-1
100
AcDbArc
50
180
51
270.00000000002137
0
ARC
5
157
100
AcDbEntity
8
0
100
AcDbCircle
10
-48.452316827864053
20
-12.575011030001896
30
0
40
2.0000000000000018
210
-0
220
0
230
1
100
AcDbArc
50
0
51
90
0
LINE
5
158
100
AcDbEntity
8
0
100
AcDbLine
10
-172.80731194242588
20
-10.575011030001784
30
0
11
-218.33962877022088
21
-10.575011030002075
31
0
0
LINE
5
159
100
AcDbEntity
8
0
100
AcDbLine
10
-161.10731194235683
20
67.824951599998343
30
0
11
-48.452316827864905
21
67.824951599998229
31
0
0
LINE
5
160
100
AcDbEntity
8
0
100
AcDbLine
10
-44.552316827865283
20
72.057922419348415
30
0
11
-43.852316827829981
21
72.057922419348301
31
0
0
ARC
5
161
100
AcDbEntity
8
0
100
AcDbCircle
10
-161.10731194235677
20
69.824951599998315
30
0
40
1.9999999999999929
210
0
220
0
230
1
100
AcDbArc
50
180
51
269.99999999999835
0
ARC
5
162
100
AcDbEntity
8
0
100
AcDbCircle
10
-36.752316827796754
20
69.824951599998229
30
0
40
2.0000000000000284
210
0
220
0
230
1
100
AcDbArc
50
180
51
269.99999999999613
0
ARC
5
163
100
AcDbEntity
8
0
100
AcDbCircle
10
-8.7751825100998015
20
66.02495159999846
30
0
40
1.7999999999997218
210
0
220
0
230
-1
100
AcDbArc
50
89.999999999985533
51
180
0
ARC
5
164
100
AcDbEntity
8
0
100
AcDbCircle
10
-166.95731194239133
20
-12.77501084060248
30
0
40
1.2499999999995026
210
-0
220
0
230
1
100
AcDbArc
50
0
51
180
0
LINE
5
165
100
AcDbEntity
8
0
100
AcDbLine
10
-168.20731194239087
20
-12.775010840602491
30
0
11
-168.20731194239289
21
-14.807981849352387
31
0
0
ARC
5
166
100
AcDbEntity
8
0
100
AcDbCircle
10
168.90731194242488
20
-12.907981849352879
30
0
40
1.8999999999999884
210
-0
220
0
230
-1
100
AcDbArc
50
-89.999999999969987
51
0
0
LINE
5
167
100
AcDbEntity
8
0
100
AcDbLine
10
-218.33962877022086
20
67.824951599997462
30
0
11
-172.8073119424258
21
67.824951599998428
31
0
0
LINE
5
168
100
AcDbEntity
8
0
100
AcDbLine
10
-168.20731194239085
20
72.057922419348529
30
0
11
-168.20731194238988
21
70.024951410598618
31
0
0
LINE
5
169
100
AcDbEntity
8
0
100
AcDbLine
10
-43.852316827829981
20
72.057922419348301
30
0
11
-43.852316827829981
21
70.024951410598405
31
0
0
LINE
5
170
100
AcDbEntity
8
0
100
AcDbLine
10
-41.352316827829078
20
72.057922419348415
30
0
11
-40.652316827796476
21
72.057922419348301
31
0
0
ARC
5
171
100
AcDbEntity
8
0
100
AcDbCircle
10
-42.602316827830052
20
-12.775010840602599
30
0
40
1.2499999999990941
210
-0
220
0
230
1
100
AcDbArc
50
0
51
180
0
LINE
5
172
100
AcDbEntity
8
0
100
AcDbLine
10
-38.752316827796051
20
-12.575011030001907
30
0
11
-38.752316827795951
21
-12.907981849352407
31
0
0
ARC
5
173
100
AcDbEntity
8
0
100
AcDbCircle
10
44.552316827864075
20
-12.907981849353005
30
0
40
1.8999999999999861
210
-0
220
0
230
-1
100
AcDbArc
50
-89.999999999988191
51
0
0
ARC
5
174
100
AcDbEntity
8
0
100
AcDbCircle
10
146.40503984748082
20
51.149947533574007
30
0
40
0.99999999999999645
210
0
220
0
230
-1
100
AcDbArc
50
180
51
270
0
ARC
5
175
100
AcDbEntity
8
0
100
AcDbCircle
10
-36.752316827796044
20
-12.575011030001908
30
0
40
2.000000000000004
210
0
220
0
230
1
100
AcDbArc
50
90.000000000000199
51
180
0
LINE
5
176
100
AcDbEntity
8
0
100
AcDbLine
10
-163.10731194235782
20
70.157922419348822
30
0
11
-163.10731194235674
21
69.824951599998315
31
0
0
LINE
5
177
100
AcDbEntity
8
0
100
AcDbLine
10
-38.752316827796882
20
70.157922419348722
30
0
11
-38.752316827796783
21
69.824951599998201
31
0
0
ARC
5
178
100
AcDbEntity
8
0
100
AcDbCircle
10
40.652316827795651
20
-12.907981849352502
30
0
40
1.8999999999996975
210
0
220
0
230
-1
100
AcDbArc
50
180
51
270
0
LINE
5
179
100
AcDbEntity
8
0
100
AcDbLine
10
-165.70731194239187
20
-14.807981849352887
30
0
11
-165.70731194239184
21
-12.775010840602494
31
0
0
LINE
5
180
100
AcDbEntity
8
0
100
AcDbLine
10
-40.652316827795651
20
-14.807981849352201
30
0
11
-41.352316827830961
21
-14.807981849353
31
0
0
ARC
5
181
100
AcDbEntity
8
0
100
AcDbCircle
10
-42.602316827830876
20
70.024951410598405
30
0
40
1.2499999999991029
210
0
220
0
230
1
100
AcDbArc
50
-180
51
0
0
ARC
5
182
100
AcDbEntity
8
0
100
AcDbCircle
10
44.552316827865184
20
70.157922419348722
30
0
40
1.8999999999997019
210
0
220
0
230
-1
100
AcDbArc
50
0
51
89.999999999997002
0
ARC
5
183
100
AcDbEntity
8
0
100
AcDbCircle
10
218.33962877022188
20
-8.7750110300020836
30
0
40
1.7999999999999905
210
0
220
-0
230
-1
100
AcDbArc
50
269.99999999996834
51
360
0
ARC
5
184
100
AcDbEntity
8
0
100
AcDbCircle
10
168.90731194242585
20
70.157922419348878
30
0
40
1.8999999999995509
210
-0
220
0
230
-1
100
AcDbArc
50
0
51
90.00000000000172
0
LINE
5
185
100
AcDbEntity
8
0
100
AcDbLine
10
-46.45231682786406
20
-12.907981849352396
30
0
11
-46.452316827864053
21
-12.575011030002196
31
0
0
LINE
5
186
100
AcDbEntity
8
0
100
AcDbLine
10
-48.452316827864053
20
-10.575011030001898
30
0
11
-161.10731194235785
21
-10.575011030001797
31
0
0
LINE
5
187
100
AcDbEntity
8
0
100
AcDbLine
10
-146.40503984748082
20
50.149947533574007
30
0
11
-158.40458984748082
21
50.149947533574029
31
0
0
ARC
5
188
100
AcDbEntity
8
0
100
AcDbCircle
10
158.40458984748085
20
51.149947533574014
30
0
40
1.0000000000000053
210
0
220
-0
230
-1
100
AcDbArc
50
-90.000000000001634
51
0
0
LINE
5
189
100
AcDbEntity
8
0
100
AcDbLine
10
-168.20731194239289
20
-14.807981849352387
30
0
11
-168.90731194242588
21
-14.807981849352867
31
0
0
ARC
5
190
100
AcDbEntity
8
0
100
AcDbCircle
10
-172.80731194242588
20
-12.575011030001777
30
0
40
1.9999999999999929
210
-0
220
0
230
1
100
AcDbArc
50
0
51
90
0
LINE
5
191
100
AcDbEntity
8
0
100
AcDbLine
10
-220.13962877022186
20
-8.7750110300024531
30
0
11
-220.13962877022109
21
66.024951599998175
31
0
0
ARC
5
192
100
AcDbEntity
8
0
100
AcDbCircle
10
165.00731194235681
20
-12.907981849352332
30
0
40
1.8999999999995509
210
0
220
0
230
-1
100
AcDbArc
50
180
51
270.00000000000085
0
ARC
5
193
100
AcDbEntity
8
0
100
AcDbCircle
10
165.00731194235681
20
70.157922419349006
30
0
40
1.8999999999990003
210
0
220
0
230
-1
100
AcDbArc
50
90.000000000002572
51
180
0
LINE
5
194
100
AcDbEntity
8
0
100
AcDbLine
10
-168.90731194242579
20
72.057922419348429
30
0
11
-168.20731194239085
21
72.057922419348529
31
0
0
LINE
5
195
100
AcDbEntity
8
0
100
AcDbLine
10
-41.352316827831778
20
70.024951410598405
30
0
11
-41.352316827829078
21
72.057922419348415
31
0
0
ARC
5
196
100
AcDbEntity
8
0
100
AcDbCircle
10
218.33962877022185
20
66.024951599998204
30
0
40
1.7999999999992511
210
-0
220
0
230
-1
100
AcDbArc
50
0
51
90.000000000031662
0
ARC
5
197
100
AcDbEntity
8
0
100
AcDbCircle
10
-48.452316827864905
20
69.824951599998244
30
0
40
2.0000000000000195
210
-0
220
0
230
1
100
AcDbArc
50
270
51
360
0
LINE
5
198
100
AcDbEntity
8
0
100
AcDbLine
10
-215.55458984769885
20
31.099947533624359
30
0
11
-203.55503984769783
21
31.099947533624448
31
0
0
LINE
5
199
100
AcDbEntity
8
0
100
AcDbLine
10
-127.35503984770378
20
64.150047533621489
30
0
11
-139.3545898477048
21
64.150047533621603
31
0
0
ARC
5
200
100
AcDbEntity
8
0
100
AcDbCircle
10
82.204592488047794
20
51.149949999328129
30
0
40
0.99999999999999645
210
-0
220
0
230
-1
100
AcDbArc
50
-89.999999999995111
51
0
0
ARC
5
201
100
AcDbEntity
8
0
100
AcDbCircle
10
25.05459248804182
20
51.149949999328086
30
0
40
0.99999999999998757
210
0
220
-0
230
-1
100
AcDbArc
50
-90.00000000000081
51
0
0
LINE
5
202
100
AcDbEntity
8
0
100
AcDbLine
10
-25.054592488041791
20
64.150049999327791
30
0
11
-13.055042488041384
21
64.150049999327777
31
0
0
LINE
5
203
100
AcDbEntity
8
0
100
AcDbLine
10
-12.055042488041385
20
63.150049999327784
30
0
11
-12.055042488041403
21
51.149949999328079
31
0
0
ARC
5
204
100
AcDbEntity
8
0
100
AcDbCircle
10
-5.9949575121525687
20
51.149949999293938
30
0
40
0.99999999999996869
210
0
220
0
230
-1
100
AcDbArc
50
180
51
270.00000000000205
0
ARC
5
205
100
AcDbEntity
8
0
100
AcDbCircle
10
63.154592487837498
20
63.150049999280135
30
0
40
0.99999999999999645
210
0
220
0
230
-1
100
AcDbArc
50
0
51
90
0
ARC
5
206
100
AcDbEntity
8
0
100
AcDbCircle
10
-32.105042488272495
20
63.150049999378808
30
0
40
1.0000000000000009
210
-0
220
0
230
1
100
AcDbArc
50
0
51
89.999999999999588
0
LINE
5
207
100
AcDbEntity
8
0
100
AcDbLine
10
-203.55503984769783
20
45.100047533624029
30
0
11
-215.55458984769885
21
45.100047533624057
31
0
0
ARC
5
208
100
AcDbEntity
8
0
100
AcDbCircle
10
-139.35458984770429
20
63.150047533621098
30
0
40
1.0000000000005116
210
0
220
0
230
1
100
AcDbArc
50
90.000000000029317
51
180
0
ARC
5
209
100
AcDbEntity
8
0
100
AcDbCircle
10
-215.55458984769888
20
44.100047533624085
30
0
40
0.9999999999999698
210
0
220
-0
230
1
100
AcDbArc
50
89.99999999999838
51
180
0
ARC
5
210
100
AcDbEntity
8
0
100
AcDbCircle
10
-5.9949575121525474
20
63.150049999293778
30
0
40
0.99999999999999645
210
0
220
0
230
-1
100
AcDbArc
50
89.999999999999901
51
180
0
ARC
5
211
100
AcDbEntity
8
0
100
AcDbCircle
10
51.155042487837108
20
63.150049999280107
30
0
40
1.0000000000000142
210
0
220
0
230
-1
100
AcDbArc
50
90.000000000006096
51
180
0
ARC
5
212
100
AcDbEntity
8
0
100
AcDbCircle
10
70.205042488047383
20
51.149949999328122
30
0
40
0.99999999999998757
210
0
220
-0
230
-1
100
AcDbArc
50
180
51
270.0000000000008
0
ARC
5
213
100
AcDbEntity
8
0
100
AcDbCircle
10
6.004592487847912
20
51.149949999293995
30
0
40
0.99999999999999645
210
-0
220
0
230
-1
100
AcDbArc
50
270.00000000000085
51
360
0
LINE
5
214
100
AcDbEntity
8
0
100
AcDbLine
10
-7.0045924878479013
20
51.149949999293973
30
0
11
-7.0045924878478711
21
63.150049999293785
31
0
0
LINE
5
215
100
AcDbEntity
8
0
100
AcDbLine
10
-63.154592487837498
20
64.150049999280128
30
0
11
-51.155042487837001
21
64.150049999280128
31
0
0
ARC
5
216
100
AcDbEntity
8
0
100
AcDbCircle
10
-203.5550398476978
20
44.100047533624092
30
0
40
0.99999999999994316
210
-0
220
0
230
1
100
AcDbArc
50
0
51
90.000000000001634
0
LINE
5
217
100
AcDbEntity
8
0
100
AcDbLine
10
-216.55458984769882
20
44.100047533624064
30
0
11
-216.55458984769888
21
32.099947533624359
31
0
0
ARC
5
218
100
AcDbEntity
8
0
100
AcDbCircle
10
-139.35458984770486
20
51.149947533621756
30
0
40
0.99999999999994316
210
0
220
0
230
1
100
AcDbArc
50
180
51
270.00000000006185
0
ARC
5
219
100
AcDbEntity
8
0
100
AcDbCircle
10
51.155042487837093
20
51.149949999280302
30
0
40
0.99999999999998757
210
0
220
0
230
-1
100
AcDbArc
50
180
51
270
0
ARC
5
220
100
AcDbEntity
8
0
100
AcDbCircle
10
-32.105042488272503
20
51.149949999379118
30
0
40
1.0000000000000053
210
0
220
0
230
1
100
AcDbArc
50
269.99999999999432
51
360
0
LINE
5
221
100
AcDbEntity
8
0
100
AcDbLine
10
6.9949575121525465
20
63.150049999293785
30
0
11
6.994957512152542
21
51.149949999293973
31
0
0
ARC
5
222
100
AcDbEntity
8
0
100
AcDbCircle
10
-215.55458984769885
20
32.099947533624359
30
0
40
1.0000000000000142
210
0
220
0
230
1
100
AcDbArc
50
180
51
270
0
ARC
5
223
100
AcDbEntity
8
0
100
AcDbCircle
10
25.054592488041777
20
63.150049999327791
30
0
40
1.0000000000000098
210
0
220
0
230
-1
100
AcDbArc
50
0
51
89.99999999999919
0
ARC
5
224
100
AcDbEntity
8
0
100
AcDbCircle
10
13.055042488041389
20
63.150049999327777
30
0
40
1.0000000000000053
210
0
220
0
230
-1
100
AcDbArc
50
90.000000000000313
51
180
0
LINE
5
225
100
AcDbEntity
8
0
100
AcDbLine
10
-196.50458984791186
20
45.100047533671841
30
0
11
-184.5050398479118
21
45.100047533671855
31
0
0
ARC
5
226
100
AcDbEntity
8
0
100
AcDbCircle
10
184.50503984791183
20
44.100047533671749
30
0
40
1.0000000000000853
210
0
220
0
230
-1
100
AcDbArc
50
90.000000000001634
51
180
0
LINE
5
227
100
AcDbEntity
8
0
100
AcDbLine
10
-6.0045924878478951
20
64.150049999293785
30
0
11
5.9949575121525456
21
64.15004999929377
31
0
0
ARC
5
228
100
AcDbEntity
8
0
100
AcDbCircle
10
-127.35503984770376
20
51.149947533621649
30
0
40
0.99999999999996092
210
0
220
0
230
1
100
AcDbArc
50
-90.00000000000081
51
0
0
LINE
5
229
100
AcDbEntity
8
0
100
AcDbLine
10
-126.35503984770381
20
51.149947533621685
30
0
11
-126.35503984770381
21
63.150047533621496
31
0
0
ARC
5
230
100
AcDbEntity
8
0
100
AcDbCircle
10
-44.104592488272985
20
63.150049999378801
30
0
40
1.0000000000000142
210
0
220
-0
230
1
100
AcDbArc
50
90
51
180
0
LINE
5
231
100
AcDbEntity
8
0
100
AcDbLine
10
-64.154592487837505
20
51.149949999280324
30
0
11
-64.15459248783749
21
63.150049999280135
31
0
0
LINE
5
232
100
AcDbEntity
8
0
100
AcDbLine
10
-13.0550424880414
20
50.149949999327994
30
0
11
-25.054592488041806
21
50.149949999328101
31
0
0
ARC
5
233
100
AcDbEntity
8
0
100
AcDbCircle
10
6.0045924878478978
20
63.150049999293799
30
0
40
0.99999999999997979
210
-0
220
0
230
-1
100
AcDbArc
50
0
51
90.000000000000142
0
ARC
5
234
100
AcDbEntity
8
0
100
AcDbCircle
10
-203.55503984769791
20
32.099947533624487
30
0
40
1.0000000000000409
210
-0
220
0
230
1
100
AcDbArc
50
270.00000000000489
51
360
0
ARC
5
235
100
AcDbEntity
8
0
100
AcDbCircle
10
196.50458984791186
20
44.100047533671869
30
0
40
0.99999999999997868
210
-0
220
0
230
-1
100
AcDbArc
50
0
51
90
0
LINE
5
236
100
AcDbEntity
8
0
100
AcDbLine
10
-70.205042488047397
20
50.149949999328136
30
0
11
-82.204592488047879
21
50.149949999328136
31
0
0
ARC
5
237
100
AcDbEntity
8
0
100
AcDbCircle
10
82.204592488047794
20
63.150049999327855
30
0
40
0.99999999999999645
210
0
220
0
230
-1
100
AcDbArc
50
0
51
89.999999999994301
0
ARC
5
238
100
AcDbEntity
8
0
100
AcDbCircle
10
184.50503984791172
20
32.099947533672037
30
0
40
0.99999999999997868
210
0
220
0
230
-1
100
AcDbArc
50
180
51
270.00000000000489
0
LINE
5
239
100
AcDbEntity
8
0
100
AcDbLine
10
-184.5050398479118
20
31.099947533672037
30
0
11
-196.50458984791186
21
31.099947533672022
31
0
0
ARC
5
240
100
AcDbEntity
8
0
100
AcDbCircle
10
196.50458984791183
20
32.099947533672086
30
0
40
1.0000000000000364
210
-0
220
0
230
-1
100
AcDbArc
50
-89.99999999999838
51
0
0
LINE
5
241
100
AcDbEntity
8
0
100
AcDbLine
10
-26.054592488041806
20
51.149949999328101
30
0
11
-26.054592488041788
21
63.15004999932782
31
0
0
LINE
5
242
100
AcDbEntity
8
0
100
AcDbLine
10
-145.40503984748082
20
63.150047533573712
30
0
11
-145.40503984748082
21
51.149947533574007
31
0
0
LINE
5
243
100
AcDbEntity
8
0
100
AcDbLine
10
-139.35458984770378
20
50.14994753362182
30
0
11
-127.35503984770378
21
50.149947533621685
31
0
0
LINE
5
244
100
AcDbEntity
8
0
100
AcDbLine
10
-69.205042488047383
20
63.150049999327848
30
0
11
-69.205042488047397
21
51.149949999328044
31
0
0
LINE
5
245
100
AcDbEntity
8
0
100
AcDbLine
10
-83.204592488047794
20
51.149949999328143
30
0
11
-83.204592488047794
21
63.150049999327855
31
0
0
LINE
5
246
100
AcDbEntity
8
0
100
AcDbLine
10
-82.204592488047894
20
64.150049999327848
30
0
11
-70.205042488047383
21
64.150049999327834
31
0
0
LINE
5
247
100
AcDbEntity
8
0
100
AcDbLine
10
5.9949575121525331
20
50.149949999293966
30
0
11
-6.0045924878479271
21
50.149949999293995
31
0
0
LINE
5
248
100
AcDbEntity
8
0
100
AcDbLine
10
-51.155042487837093
20
50.149949999280317
30
0
11
-63.154592487837505
21
50.149949999280317
31
0
0
LINE
5
249
100
AcDbEntity
8
0
100
AcDbLine
10
-45.104592488272992
20
63.15004999937883
30
0
11
-45.104592488272992
21
51.149949999379125
31
0
0
ARC
5
250
100
AcDbEntity
8
0
100
AcDbCircle
10
70.205042488047368
20
63.150049999327855
30
0
40
0.99999999999997868
210
0
220
0
230
-1
100
AcDbArc
50
89.99999999999919
51
180
0
LINE
5
251
100
AcDbEntity
8
0
100
AcDbLine
10
-44.104592488273006
20
50.149949999379118
30
0
11
-32.105042488272602
21
50.14994999937911
31
0
0
LINE
5
252
100
AcDbEntity
8
0
100
AcDbLine
10
-202.55503984769786
20
32.099947533624345
30
0
11
-202.55503984769786
21
44.100047533624036
31
0
0
ARC
5
253
100
AcDbEntity
8
0
100
AcDbCircle
10
-127.35503984770382
20
63.150047533621475
30
0
40
1.0000000000000142
210
0
220
-0
230
1
100
AcDbArc
50
0
51
89.999999999997556
0
LINE
5
254
100
AcDbEntity
8
0
100
AcDbLine
10
-50.155042487837093
20
63.150049999280107
30
0
11
-50.155042487837108
21
51.149949999280309
31
0
0
LINE
5
255
100
AcDbEntity
8
0
100
AcDbLine
10
-183.50503984791175
20
44.100047533671855
30
0
11
-183.50503984791175
21
32.099947533672129
31
0
0
LINE
5
256
100
AcDbEntity
8
0
100
AcDbLine
10
-140.3545898477048
20
63.150047533621503
30
0
11
-140.3545898477048
21
51.149947533621798
31
0
0
LINE
5
257
100
AcDbEntity
8
0
100
AcDbLine
10
-32.105042488272488
20
64.150049999378808
30
0
11
-44.104592488272985
21
64.150049999378808
31
0
0
ARC
5
258
100
AcDbEntity
8
0
100
AcDbCircle
10
63.15459248783749
20
51.149949999280338
30
0
40
1.0000000000000231
210
-0
220
0
230
-1
100
AcDbArc
50
270.0000000000008
51
360
0
ARC
5
259
100
AcDbEntity
8
0
100
AcDbCircle
10
-44.104592488272999
20
51.149949999379118
30
0
40
0.99999999999999645
210
0
220
0
230
1
100
AcDbArc
50
180
51
269.9999999999996
0
ARC
5
260
100
AcDbEntity
8
0
100
AcDbCircle
10
13.055042488041408
20
51.149949999328001
30
0
40
1.0000000000000053
210
0
220
0
230
-1
100
AcDbArc
50
180
51
269.99999999999949
0
LINE
5
261
100
AcDbEntity
8
0
100
AcDbLine
10
-31.105042488272506
20
51.149949999379096
30
0
11
-31.105042488272492
21
63.150049999378801
31
0
0
LINE
5
262
100
AcDbEntity
8
0
100
AcDbLine
10
-69.205042488263814
20
44.100049999378129
30
0
11
-69.205042488263814
21
32.099949999378424
31
0
0
LINE
5
263
100
AcDbEntity
8
0
100
AcDbLine
10
-102.2545924880458
20
32.099949999330647
30
0
11
-102.25459248804481
21
44.100049999330359
31
0
0
ARC
5
264
100
AcDbEntity
8
0
100
AcDbCircle
10
158.40458984769685
20
44.100047533624114
30
0
40
0.99999999999999645
210
-0
220
0
230
-1
100
AcDbArc
50
0
51
90.000000000001634
0
LINE
5
265
100
AcDbEntity
8
0
100
AcDbLine
10
-89.255042488044793
20
31.099949999330661
30
0
11
-101.25459248804481
21
31.099949999330661
31
0
0
LINE
5
266
100
AcDbEntity
8
0
100
AcDbLine
10
-101.25459248804481
20
45.100049999330352
30
0
11
-89.255042488044793
21
45.100049999330338
31
0
0
ARC
5
267
100
AcDbEntity
8
0
100
AcDbCircle
10
82.204592488264296
20
32.099949999378346
30
0
40
1.0000000000000009
210
-0
220
-0
230
-1
100
AcDbArc
50
-90
51
0
0
ARC
5
268
100
AcDbEntity
8
0
100
AcDbCircle
10
70.205042488263814
20
32.099949999378332
30
0
40
0.99999999999999645
210
0
220
0
230
-1
100
AcDbArc
50
180
51
270
0
LINE
5
269
100
AcDbEntity
8
0
100
AcDbLine
10
-140.35458984792081
20
44.100047533671798
30
0
11
-140.35458984792081
21
32.099947533672086
31
0
0
LINE
5
270
100
AcDbEntity
8
0
100
AcDbLine
10
-121.30458984767881
20
32.099947533624274
30
0
11
-121.30458984767881
21
44.100047533623972
31
0
0
LINE
5
271
100
AcDbEntity
8
0
100
AcDbLine
10
-70.205042488263814
20
31.099949999378332
30
0
11
-82.204592488264296
21
31.099949999378342
31
0
0
LINE
5
272
100
AcDbEntity
8
0
100
AcDbLine
10
-51.155042488053596
20
45.100049999330317
30
0
11
-63.154592488054
21
45.100049999330423
31
0
0
ARC
5
273
100
AcDbEntity
8
0
100
AcDbCircle
10
-63.154592488053993
20
44.100049999330402
30
0
40
1.0000000000000231
210
0
220
0
230
1
100
AcDbArc
50
90.000000000000398
51
180
0
ARC
5
274
100
AcDbEntity
8
0
100
AcDbCircle
10
-44.104592488489516
20
32.099949999429413
30
0
40
1.0000000000000053
210
0
220
0
230
1
100
AcDbArc
50
180
51
269.9999999999996
0
LINE
5
275
100
AcDbEntity
8
0
100
AcDbLine
10
-139.35458984792081
20
31.099947533671994
30
0
11
-127.35503984791978
21
31.099947533671969
31
0
0
ARC
5
276
100
AcDbEntity
8
0
100
AcDbCircle
10
82.204592488264268
20
44.100049999378122
30
0
40
1.0000000000000142
210
0
220
0
230
-1
100
AcDbArc
50
0
51
89.99999999999838
0
LINE
5
277
100
AcDbEntity
8
0
100
AcDbLine
10
-82.204592488264296
20
45.100049999378136
30
0
11
-70.205042488263814
21
45.100049999378129
31
0
0
LINE
5
278
100
AcDbEntity
8
0
100
AcDbLine
10
-44.104592488489523
20
31.099949999429409
30
0
11
-32.105042488489126
21
31.099949999429395
31
0
0
ARC
5
279
100
AcDbEntity
8
0
100
AcDbCircle
10
-139.35458984792075
20
32.099947533672037
30
0
40
1.0000000000000497
210
0
220
0
230
1
100
AcDbArc
50
180
51
269.99999999999676
0
ARC
5
280
100
AcDbEntity
8
0
100
AcDbCircle
10
101.25459248804481
20
44.100049999330359
30
0
40
0.99999999999999645
210
0
220
0
230
-1
100
AcDbArc
50
0
51
90
0
ARC
5
281
100
AcDbEntity
8
0
100
AcDbCircle
10
-177.45458984793785
20
32.099947533672044
30
0
40
1.0000000000000142
210
0
220
0
230
1
100
AcDbArc
50
180
51
270
0
ARC
5
282
100
AcDbEntity
8
0
100
AcDbCircle
10
146.40503984769686
20
32.099947533624295
30
0
40
1.0000000000000142
210
0
220
0
230
-1
100
AcDbArc
50
180
51
269.99999999999835
0
ARC
5
283
100
AcDbEntity
8
0
100
AcDbCircle
10
108.30503984767782
20
44.100047533623972
30
0
40
1.0000000000000053
210
0
220
0
230
-1
100
AcDbArc
50
90.00000000000081
51
180
0
LINE
5
284
100
AcDbEntity
8
0
100
AcDbLine
10
-197.50458984791183
20
32.099947533672136
30
0
11
-197.5045898479118
21
44.100047533671855
31
0
0
LINE
5
285
100
AcDbEntity
8
0
100
AcDbLine
10
-108.3050398476778
20
31.099947533624267
30
0
11
-120.30458984767881
21
31.099947533624274
31
0
0
ARC
5
286
100
AcDbEntity
8
0
100
AcDbCircle
10
-165.45503984793785
20
32.099947533672136
30
0
40
1.0000000000000275
210
-0
220
0
230
1
100
AcDbArc
50
270
51
360
0
LINE
5
287
100
AcDbEntity
8
0
100
AcDbLine
10
-127.35503984792081
20
45.100047533671784
30
0
11
-139.35458984792081
21
45.100047533671798
31
0
0
ARC
5
288
100
AcDbEntity
8
0
100
AcDbCircle
10
89.255042488044879
20
32.09994999933064
30
0
40
0.99999999999997868
210
0
220
0
230
-1
100
AcDbArc
50
180
51
269.99999999999511
0
ARC
5
289
100
AcDbEntity
8
0
100
AcDbCircle
10
-127.35503984792081
20
44.100047533671791
30
0
40
0.99999999999999645
210
0
220
0
230
1
100
AcDbArc
50
0
51
90
0
ARC
5
290
100
AcDbEntity
8
0
100
AcDbCircle
10
101.25459248804577
20
32.099949999330669
30
0
40
1.0000000000000142
210
0
220
-0
230
-1
100
AcDbArc
50
269.99999999994463
51
360
0
LINE
5
291
100
AcDbEntity
8
0
100
AcDbLine
10
-64.154592488054021
20
44.100049999330324
30
0
11
-64.154592488054021
21
32.099949999330626
31
0
0
ARC
5
292
100
AcDbEntity
8
0
100
AcDbCircle
10
-165.45503984793788
20
44.100047533671784
30
0
40
1.0000000000000497
210
0
220
-0
230
1
100
AcDbArc
50
0
51
89.99999999999838
0
LINE
5
293
100
AcDbEntity
8
0
100
AcDbLine
10
-165.45503984793785
20
45.100047533671834
30
0
11
-177.45458984793785
21
45.100047533671848
31
0
0
LINE
5
294
100
AcDbEntity
8
0
100
AcDbLine
10
-178.45458984793788
20
44.100047533671855
30
0
11
-178.45458984793788
21
32.099947533672022
31
0
0
ARC
5
295
100
AcDbEntity
8
0
100
AcDbCircle
10
-51.155042488053624
20
32.099949999330612
30
0
40
1.0000000000000009
210
-0
220
0
230
1
100
AcDbArc
50
-89.999999999999588
51
0
0
ARC
5
296
100
AcDbEntity
8
0
100
AcDbCircle
10
120.30458984767881
20
44.100047533623972
30
0
40
0.99999999999999645
210
0
220
0
230
-1
100
AcDbArc
50
0
51
90
0
ARC
5
297
100
AcDbEntity
8
0
100
AcDbCircle
10
-51.155042488053596
20
44.100049999330331
30
0
40
0.99999999999998757
210
-0
220
0
230
1
100
AcDbArc
50
0
51
90
0
ARC
5
298
100
AcDbEntity
8
0
100
AcDbCircle
10
70.205042488263814
20
44.100049999378129
30
0
40
0.99999999999999645
210
0
220
0
230
-1
100
AcDbArc
50
90
51
180
0
LINE
5
299
100
AcDbEntity
8
0
100
AcDbLine
10
-50.155042488053624
20
32.099949999330612
30
0
11
-50.15504248805361
21
44.100049999330309
31
0
0
ARC
5
300
100
AcDbEntity
8
0
100
AcDbCircle
10
146.40503984769683
20
44.100047533624007
30
0
40
0.99999999999998757
210
0
220
0
230
-1
100
AcDbArc
50
90
51
180
0
ARC
5
301
100
AcDbEntity
8
0
100
AcDbCircle
10
158.40458984769688
20
32.099947533624302
30
0
40
0.99999999999997868
210
0
220
-0
230
-1
100
AcDbArc
50
-90.000000000003254
51
0
0
LINE
5
302
100
AcDbEntity
8
0
100
AcDbLine
10
-88.255042488044793
20
44.100049999330359
30
0
11
-88.255042488044907
21
32.099949999330647
31
0
0
LINE
5
303
100
AcDbEntity
8
0
100
AcDbLine
10
-107.3050398476778
20
44.100047533623972
30
0
11
-107.3050398476778
21
32.09994753362416
31
0
0
LINE
5
304
100
AcDbEntity
8
0
100
AcDbLine
10
-126.3550398479198
20
32.099947533672079
30
0
11
-126.35503984792081
21
44.100047533671791
31
0
0
ARC
5
305
100
AcDbEntity
8
0
100
AcDbCircle
10
89.255042488044779
20
44.100049999330359
30
0
40
0.99999999999997868
210
0
220
0
230
-1
100
AcDbArc
50
89.99999999999919
51
180
0
LINE
5
306
100
AcDbEntity
8
0
100
AcDbLine
10
-145.40503984769686
20
44.100047533624
30
0
11
-145.40503984769683
21
32.099947533624288
31
0
0
LINE
5
307
100
AcDbEntity
8
0
100
AcDbLine
10
-164.45503984793785
20
32.099947533672015
30
0
11
-164.45503984793785
21
44.10004753367182
31
0
0
LINE
5
308
100
AcDbEntity
8
0
100
AcDbLine
10
-158.40458984769683
20
45.100047533624107
30
0
11
-146.40503984769683
21
45.100047533623993
31
0
0
LINE
5
309
100
AcDbEntity
8
0
100
AcDbLine
10
-83.204592488264296
20
32.099949999378445
30
0
11
-83.204592488264296
21
44.10004999937815
31
0
0
LINE
5
310
100
AcDbEntity
8
0
100
AcDbLine
10
-63.154592488054035
20
31.099949999330629
30
0
11
-51.155042488053617
21
31.099949999330612
31
0
0
ARC
5
311
100
AcDbEntity
8
0
100
AcDbCircle
10
-32.105042488489019
20
32.099949999429398
30
0
40
1.0000000000000053
210
0
220
0
230
1
100
AcDbArc
50
-90.000000000006096
51
0
0
LINE
5
312
100
AcDbEntity
8
0
100
AcDbLine
10
-31.105042488489016
20
32.099949999429398
30
0
11
-31.105042488489012
21
44.100049999429089
31
0
0
LINE
5
313
100
AcDbEntity
8
0
100
AcDbLine
10
-120.30458984767881
20
45.100047533623979
30
0
11
-108.3050398476778
21
45.100047533623965
31
0
0
ARC
5
314
100
AcDbEntity
8
0
100
AcDbCircle
10
108.30503984767782
20
32.099947533624288
30
0
40
1.0000000000000142
210
0
220
-0
230
-1
100
AcDbArc
50
180
51
269.9999999999992
0
ARC
5
315
100
AcDbEntity
8
0
100
AcDbCircle
10
-32.105042488489005
20
44.10004999942921
30
0
40
0.99999999999999645
210
-0
220
0
230
1
100
AcDbArc
50
0
51
90.000000000005699
0
LINE
5
316
100
AcDbEntity
8
0
100
AcDbLine
10
-32.105042488489104
20
45.10004999942921
30
0
11
-44.104592488489509
21
45.10004999942921
31
0
0
ARC
5
317
100
AcDbEntity
8
0
100
AcDbCircle
10
-177.45458984793788
20
44.100047533671869
30
0
40
0.99999999999997868
210
0
220
-0
230
1
100
AcDbArc
50
89.99999999999838
51
180
0
LINE
5
318
100
AcDbEntity
8
0
100
AcDbLine
10
-177.45458984793785
20
31.099947533672015
30
0
11
-165.45503984793785
21
31.099947533672108
31
0
0
LINE
5
319
100
AcDbEntity
8
0
100
AcDbLine
10
-146.40503984769683
20
31.099947533624292
30
0
11
-158.40458984769683
21
31.099947533624309
31
0
0
LINE
5
320
100
AcDbEntity
8
0
100
AcDbLine
10
-159.40458984769685
20
32.099947533624309
30
0
11
-159.40458984769685
21
44.100047533624007
31
0
0
ARC
5
321
100
AcDbEntity
8
0
100
AcDbCircle
10
-127.35503984791977
20
32.099947533671937
30
0
40
0.99999999999996536
210
0
220
0
230
1
100
AcDbArc
50
-90.00000000000081
51
0
0
ARC
5
322
100
AcDbEntity
8
0
100
AcDbCircle
10
-63.154592488054035
20
32.099949999330605
30
0
40
0.99999999999998757
210
0
220
0
230
1
100
AcDbArc
50
180
51
270
0
LINE
5
323
100
AcDbEntity
8
0
100
AcDbLine
10
-45.104592488489402
20
44.100049999429125
30
0
11
-45.104592488489523
21
32.099949999429413
31
0
0
ARC
5
324
100
AcDbEntity
8
0
100
AcDbCircle
10
-139.35458984792078
20
44.100047533671784
30
0
40
1.0000000000000142
210
0
220
0
230
1
100
AcDbArc
50
90.000000000001634
51
180
0
ARC
5
325
100
AcDbEntity
8
0
100
AcDbCircle
10
120.30458984767878
20
32.099947533624309
30
0
40
1.0000000000000275
210
-0
220
0
230
-1
100
AcDbArc
50
270.00000000000159
51
360
0
ARC
5
326
100
AcDbEntity
8
0
100
AcDbCircle
10
-158.40458984769785
20
13.049947533626007
30
0
40
0.99999999999999645
210
0
220
0
230
1
100
AcDbArc
50
180
51
270.00000000000159
0
LINE
5
327
100
AcDbEntity
8
0
100
AcDbLine
10
-165.45503984793885
20
12.04994753367381
30
0
11
-177.45458984793885
21
12.049947533673706
31
0
0
ARC
5
328
100
AcDbEntity
8
0
100
AcDbCircle
10
-146.40503984769788
20
13.049947533626012
30
0
40
1.0000000000000164
210
-0
220
0
230
1
100
AcDbArc
50
270.00000000000324
51
360
0
ARC
5
329
100
AcDbEntity
8
0
100
AcDbCircle
10
139.35458984792186
20
25.050047533673485
30
0
40
0.99999999999999645
210
0
220
0
230
-1
100
AcDbArc
50
0
51
90
0
ARC
5
330
100
AcDbEntity
8
0
100
AcDbCircle
10
215.55458984769984
20
25.050047533625744
30
0
40
1.0000000000000142
210
0
220
0
230
-1
100
AcDbArc
50
0
51
90
0
ARC
5
331
100
AcDbEntity
8
0
100
AcDbCircle
10
165.45503984793879
20
25.050047533673549
30
0
40
0.99999999999997424
210
0
220
0
230
-1
100
AcDbArc
50
90
51
180
0
LINE
5
332
100
AcDbEntity
8
0
100
AcDbLine
10
6.9949575119360929
20
44.100049999344073
30
0
11
6.9949575119360885
21
32.099949999344361
31
0
0
LINE
5
333
100
AcDbEntity
8
0
100
AcDbLine
10
-158.40458984769782
20
12.049947533626018
30
0
11
-146.40503984769782
21
12.049947533625996
31
0
0
ARC
5
334
100
AcDbEntity
8
0
100
AcDbCircle
10
-5.9949575119360983
20
44.100049999344073
30
0
40
0.99999999999999645
210
0
220
0
230
-1
100
AcDbArc
50
89.999999999999943
51
180
0
LINE
5
335
100
AcDbEntity
8
0
100
AcDbLine
10
-139.35458984792186
20
26.050047533673482
30
0
11
-127.35503984792082
21
26.050047533673467
31
0
0
ARC
5
336
100
AcDbEntity
8
0
100
AcDbCircle
10
127.35503984792076
20
25.050047533673528
30
0
40
0.99999999999995204
210
0
220
0
230
-1
100
AcDbArc
50
89.999999999996746
51
180
0
LINE
5
337
100
AcDbEntity
8
0
100
AcDbLine
10
-126.35503984792084
20
25.050047533673485
30
0
11
-126.35503984792082
21
13.049947533673675
31
0
0
LINE
5
338
100
AcDbEntity
8
0
100
AcDbLine
10
-120.30458984767982
20
12.049947533625973
30
0
11
-108.3050398476788
21
12.049947533625962
31
0
0
ARC
5
339
100
AcDbEntity
8
0
100
AcDbCircle
10
-108.30503984767886
20
13.049947533625952
30
0
40
0.99999999999998979
210
-0
220
0
230
1
100
AcDbArc
50
-89.999999999996746
51
0
0
LINE
5
340
100
AcDbEntity
8
0
100
AcDbLine
10
-107.3050398476788
20
13.049947533625961
30
0
11
-107.3050398476788
21
25.050047533625659
31
0
0
ARC
5
341
100
AcDbEntity
8
0
100
AcDbCircle
10
-108.3050398476788
20
25.050047533625666
30
0
40
0.99999999999999645
210
0
220
0
230
1
100
AcDbArc
50
0
51
90
0
LINE
5
342
100
AcDbEntity
8
0
100
AcDbLine
10
-108.3050398476788
20
26.050047533625676
30
0
11
-120.30458984767982
21
26.050047533625676
31
0
0
ARC
5
343
100
AcDbEntity
8
0
100
AcDbCircle
10
-158.40458984769785
20
25.050047533625719
30
0
40
0.99999999999999645
210
0
220
-0
230
1
100
AcDbArc
50
89.99999999999838
51
180
0
ARC
5
344
100
AcDbEntity
8
0
100
AcDbCircle
10
165.45503984793891
20
13.049947533673869
30
0
40
1.0000000000000497
210
0
220
-0
230
-1
100
AcDbArc
50
180
51
269.99999999999676
0
LINE
5
345
100
AcDbEntity
8
0
100
AcDbLine
10
-25.054592488258301
20
45.100049999378093
30
0
11
-13.055042488257902
21
45.100049999378072
31
0
0
ARC
5
346
100
AcDbEntity
8
0
100
AcDbCircle
10
6.0045924880643948
20
32.099949999344268
30
0
40
0.99999999999999645
210
0
220
-0
230
-1
100
AcDbArc
50
-90.00000000000118
51
0
0
LINE
5
347
100
AcDbEntity
8
0
100
AcDbLine
10
-183.50503984791285
20
13.049947533673727
30
0
11
-183.50503984791285
21
25.050047533673535
31
0
0
ARC
5
348
100
AcDbEntity
8
0
100
AcDbCircle
10
-120.30458984767982
20
25.05004753362568
30
0
40
0.99999999999999645
210
0
220
-0
230
1
100
AcDbArc
50
90
51
180
0
LINE
5
349
100
AcDbEntity
8
0
100
AcDbLine
10
-121.30458984767985
20
25.050047533625673
30
0
11
-121.30458984767982
21
13.049947533625874
31
0
0
LINE
5
350
100
AcDbEntity
8
0
100
AcDbLine
10
-12.055042488257801
20
44.100049999378079
30
0
11
-12.055042488257815
21
32.099949999378374
31
0
0
ARC
5
351
100
AcDbEntity
8
0
100
AcDbCircle
10
215.5545898476999
20
13.049947533626076
30
0
40
1.000000000000032
210
-0
220
-0
230
-1
100
AcDbArc
50
270
51
360
0
ARC
5
352
100
AcDbEntity
8
0
100
AcDbCircle
10
203.55503984769888
20
25.050047533625694
30
0
40
1.0000000000000586
210
0
220
0
230
-1
100
AcDbArc
50
90.000000000003254
51
180
0
LINE
5
353
100
AcDbEntity
8
0
100
AcDbLine
10
-203.55503984769885
20
12.049947533626021
30
0
11
-215.5545898476999
21
12.049947533626044
31
0
0
LINE
5
354
100
AcDbEntity
8
0
100
AcDbLine
10
-164.45503984793879
20
25.050047533673517
30
0
11
-164.45503984793885
21
13.049947533673816
31
0
0
ARC
5
355
100
AcDbEntity
8
0
100
AcDbCircle
10
-146.40503984769785
20
25.05004753362579
30
0
40
1.0000000000000142
210
-0
220
0
230
1
100
AcDbArc
50
0
51
89.99999999999838
0
LINE
5
356
100
AcDbEntity
8
0
100
AcDbLine
10
-26.054592488258315
20
32.099949999378289
30
0
11
-26.054592488258304
21
44.100049999378101
31
0
0
LINE
5
357
100
AcDbEntity
8
0
100
AcDbLine
10
-184.50503984791283
20
26.050047533673535
30
0
11
-196.50458984791285
21
26.050047533673535
31
0
0
ARC
5
358
100
AcDbEntity
8
0
100
AcDbCircle
10
25.054592488258301
20
44.100049999378101
30
0
40
1.0000000000000009
210
0
220
0
230
-1
100
AcDbArc
50
0
51
90
0
ARC
5
359
100
AcDbEntity
8
0
100
AcDbCircle
10
-5.9949575119360858
20
32.099949999344368
30
0
40
1.0000000000000064
210
0
220
-0
230
-1
100
AcDbArc
50
180
51
270.00000000000222
0
LINE
5
360
100
AcDbEntity
8
0
100
AcDbLine
10
-196.50458984791285
20
12.049947533673745
30
0
11
-184.50503984791283
21
12.049947533673732
31
0
0
LINE
5
361
100
AcDbEntity
8
0
100
AcDbLine
10
-202.55503984769885
20
25.050047533625751
30
0
11
-202.55503984769888
21
13.049947533626046
31
0
0
LINE
5
362
100
AcDbEntity
8
0
100
AcDbLine
10
-159.40458984769782
20
25.050047533625701
30
0
11
-159.40458984769782
21
13.04994753362601
31
0
0
LINE
5
363
100
AcDbEntity
8
0
100
AcDbLine
10
-127.35503984792082
20
12.049947533673674
30
0
11
-139.35458984792186
21
12.049947533673695
31
0
0
LINE
5
364
100
AcDbEntity
8
0
100
AcDbLine
10
-178.45458984793885
20
13.049947533673825
30
0
11
-178.45458984793879
21
25.050047533673524
31
0
0
ARC
5
365
100
AcDbEntity
8
0
100
AcDbCircle
10
6.0045924880643877
20
44.100049999344087
30
0
40
0.99999999999999867
210
-0
220
0
230
-1
100
AcDbArc
50
0
51
89.999999999999744
0
ARC
5
366
100
AcDbEntity
8
0
100
AcDbCircle
10
139.35458984792183
20
13.0499475336737
30
0
40
1.0000000000000142
210
-0
220
0
230
-1
100
AcDbArc
50
270.00000000000159
51
360
0
ARC
5
367
100
AcDbEntity
8
0
100
AcDbCircle
10
-184.5050398479128
20
25.050047533673585
30
0
40
0.99999999999994316
210
-0
220
0
230
1
100
AcDbArc
50
0
51
90.000000000001634
0
ARC
5
368
100
AcDbEntity
8
0
100
AcDbCircle
10
203.55503984769894
20
13.049947533626096
30
0
40
1.0000000000000497
210
0
220
-0
230
-1
100
AcDbArc
50
180
51
269.99999999999511
0
ARC
5
369
100
AcDbEntity
8
0
100
AcDbCircle
10
177.45458984793885
20
13.049947533673754
30
0
40
1.0000000000000253
210
-0
220
-0
230
-1
100
AcDbArc
50
-90
51
0
0
ARC
5
370
100
AcDbEntity
8
0
100
AcDbCircle
10
177.45458984793873
20
25.050047533673464
30
0
40
1.0000000000000497
210
0
220
0
230
-1
100
AcDbArc
50
0
51
89.999999999995111
0
LINE
5
371
100
AcDbEntity
8
0
100
AcDbLine
10
-177.45458984793882
20
26.050047533673521
30
0
11
-165.45503984793879
21
26.050047533673535
31
0
0
LINE
5
372
100
AcDbEntity
8
0
100
AcDbLine
10
5.9949575119360468
20
31.099949999344361
30
0
11
-6.0045924880643744
21
31.099949999344272
31
0
0
ARC
5
373
100
AcDbEntity
8
0
100
AcDbCircle
10
127.35503984792082
20
13.049947533673675
30
0
40
0.99999999999999645
210
0
220
0
230
-1
100
AcDbArc
50
180
51
270
0
LINE
5
374
100
AcDbEntity
8
0
100
AcDbLine
10
-215.55458984769984
20
26.050047533625758
30
0
11
-203.55503984769882
21
26.050047533625765
31
0
0
ARC
5
375
100
AcDbEntity
8
0
100
AcDbCircle
10
13.055042488257818
20
32.099949999378381
30
0
40
1.0000000000000031
210
0
220
0
230
-1
100
AcDbArc
50
180
51
270.00000000000551
0
ARC
5
376
100
AcDbEntity
8
0
100
AcDbCircle
10
-196.50458984791285
20
25.050047533673528
30
0
40
1.0000000000000053
210
0
220
-0
230
1
100
AcDbArc
50
90
51
180
0
ARC
5
377
100
AcDbEntity
8
0
100
AcDbCircle
10
-184.50503984791294
20
13.049947533673807
30
0
40
1.0000000000000742
210
-0
220
0
230
1
100
AcDbArc
50
270.00000000000648
51
360
0
ARC
5
378
100
AcDbEntity
8
0
100
AcDbCircle
10
-196.50458984791285
20
13.049947533673766
30
0
40
1.0000000000000142
210
0
220
0
230
1
100
AcDbArc
50
180
51
270
0
LINE
5
379
100
AcDbEntity
8
0
100
AcDbLine
10
-146.40503984769782
20
26.05004753362579
30
0
11
-158.40458984769782
21
26.050047533625715
31
0
0
LINE
5
380
100
AcDbEntity
8
0
100
AcDbLine
10
-140.35458984792186
20
13.049947533673691
30
0
11
-140.35458984792186
21
25.050047533673485
31
0
0
LINE
5
381
100
AcDbEntity
8
0
100
AcDbLine
10
-7.0045924880643913
20
32.099949999344375
30
0
11
-7.0045924880643797
21
44.10004999934408
31
0
0
ARC
5
382
100
AcDbEntity
8
0
100
AcDbCircle
10
-44.104592488489445
20
44.100049999429245
30
0
40
0.99999999999996092
210
0
220
0
230
1
100
AcDbArc
50
90.000000000003652
51
180
0
ARC
5
383
100
AcDbEntity
8
0
100
AcDbCircle
10
13.055042488257802
20
44.100049999378079
30
0
40
0.99999999999999645
210
0
220
0
230
-1
100
AcDbArc
50
89.999999999994301
51
180
0
LINE
5
384
100
AcDbEntity
8
0
100
AcDbLine
10
-13.055042488257914
20
31.099949999378378
30
0
11
-25.054592488258315
21
31.099949999378392
31
0
0
LINE
5
385
100
AcDbEntity
8
0
100
AcDbLine
10
-6.0045924880643922
20
45.100049999344087
30
0
11
5.9949575119360974
21
45.100049999344066
31
0
0
LINE
5
386
100
AcDbEntity
8
0
100
AcDbLine
10
-197.50458984791283
20
25.050047533673538
30
0
11
-197.50458984791288
21
13.049947533673841
31
0
0
LINE
5
387
100
AcDbEntity
8
0
100
AcDbLine
10
-145.40503984769782
20
13.049947533625996
30
0
11
-145.40503984769782
21
25.050047533625698
31
0
0
ARC
5
388
100
AcDbEntity
8
0
100
AcDbCircle
10
25.054592488258312
20
32.099949999378396
30
0
40
1.0000000000000009
210
-0
220
0
230
-1
100
AcDbArc
50
270.00000000000023
51
360
0
LINE
5
389
100
AcDbEntity
8
0
100
AcDbLine
10
-216.55458984769993
20
13.049947533626057
30
0
11
-216.55458984769984
21
25.050047533625754
31
0
0
ARC
5
390
100
AcDbEntity
8
0
100
AcDbCircle
10
6.0045924880653239
20
25.050049999345774
30
0
40
0.99999999999999756
210
0
220
0
230
-1
100
AcDbArc
50
0
51
90.000000000001464
0
LINE
5
391
100
AcDbEntity
8
0
100
AcDbLine
10
-63.154592488054426
20
26.050049999332021
30
0
11
-51.155042488054036
21
26.050049999332018
31
0
0
ARC
5
392
100
AcDbEntity
8
0
100
AcDbCircle
10
101.25459248804582
20
13.049949999332348
30
0
40
0.99999999999999645
210
-0
220
-0
230
-1
100
AcDbArc
50
-90
51
0
0
ARC
5
393
100
AcDbEntity
8
0
100
AcDbCircle
10
-5.9949575119351204
20
13.049949999346058
30
0
40
0.99999999999999978
210
0
220
-0
230
-1
100
AcDbArc
50
180
51
269.99999999999881
0
ARC
5
394
100
AcDbEntity
8
0
100
AcDbCircle
10
51.15504248805405
20
25.050049999332003
30
0
40
1.0000000000000187
210
0
220
0
230
-1
100
AcDbArc
50
90.00000000000081
51
180
0
LINE
5
395
100
AcDbEntity
8
0
100
AcDbLine
10
-25.054592488258738
20
12.04994999938009
30
0
11
-13.05504248825833
21
12.049949999379976
31
0
0
LINE
5
396
100
AcDbEntity
8
0
100
AcDbLine
10
-70.205042488264326
20
12.049949999380029
30
0
11
-82.204592488264836
21
12.049949999380143
31
0
0
ARC
5
397
100
AcDbEntity
8
0
100
AcDbCircle
10
70.205042488264311
20
13.049949999380017
30
0
40
0.99999999999998757
210
0
220
0
230
-1
100
AcDbArc
50
180
51
270.0000000000008
0
LINE
5
398
100
AcDbEntity
8
0
100
AcDbLine
10
-12.055042488258332
20
13.049949999379978
30
0
11
-12.055042488258323
21
25.050049999379773
31
0
0
LINE
5
399
100
AcDbEntity
8
0
100
AcDbLine
10
-45.10459248849002
20
13.049949999431105
30
0
11
-45.104592488489921
21
25.050049999430808
31
0
0
ARC
5
400
100
AcDbEntity
8
0
100
AcDbCircle
10
-5.9949575119351328
20
25.050049999345759
30
0
40
1.0000000000000009
210
0
220
0
230
-1
100
AcDbArc
50
90.000000000001066
51
180
0
ARC
5
401
100
AcDbEntity
8
0
100
AcDbCircle
10
-120.30458984767982
20
13.049947533625978
30
0
40
0.99999999999999645
210
0
220
0
230
1
100
AcDbArc
50
180
51
270
0
LINE
5
402
100
AcDbEntity
8
0
100
AcDbLine
10
-6.0045924880652981
20
26.05004999934577
30
0
11
5.9949575119351515
21
26.050049999345759
31
0
0
LINE
5
403
100
AcDbEntity
8
0
100
AcDbLine
10
5.9949575119351408
20
12.049949999346056
30
0
11
-6.004592488065331
21
12.049949999345968
31
0
0
LINE
5
404
100
AcDbEntity
8
0
100
AcDbLine
10
-102.25459248804582
20
13.049949999332357
30
0
11
-102.25459248804582
21
25.05004999933206
31
0
0
LINE
5
405
100
AcDbEntity
8
0
100
AcDbLine
10
-7.0045924880653709
20
13.049949999345973
30
0
11
-7.0045924880653212
21
25.050049999345774
31
0
0
ARC
5
406
100
AcDbEntity
8
0
100
AcDbCircle
10
51.155042488054043
20
13.049949999332313
30
0
40
1.0000000000000142
210
0
220
-0
230
-1
100
AcDbArc
50
180
51
270
0
ARC
5
407
100
AcDbEntity
8
0
100
AcDbCircle
10
-13.055042488258326
20
13.049949999379971
30
0
40
0.99999999999999423
210
0
220
0
230
1
100
AcDbArc
50
-90.000000000000199
51
0
0
ARC
5
408
100
AcDbEntity
8
0
100
AcDbCircle
10
44.104592488489999
20
13.049949999431117
30
0
40
1.0000000000000187
210
0
220
-0
230
-1
100
AcDbArc
50
269.99999999999636
51
360
0
LINE
5
409
100
AcDbEntity
8
0
100
AcDbLine
10
-89.25504248804522
20
12.049949999332345
30
0
11
-101.25459248804582
21
12.049949999332359
31
0
0
ARC
5
410
100
AcDbEntity
8
0
100
AcDbCircle
10
70.20504248826424
20
25.050049999379823
30
0
40
1.0000000000000098
210
0
220
0
230
-1
100
AcDbArc
50
89.999999999995936
51
180
0
ARC
5
411
100
AcDbEntity
8
0
100
AcDbCircle
10
63.154592488054426
20
25.050049999332028
30
0
40
0.99999999999999645
210
-0
220
0
230
-1
100
AcDbArc
50
0
51
90
0
ARC
5
412
100
AcDbEntity
8
0
100
AcDbCircle
10
82.204592488264709
20
13.049949999380148
30
0
40
1.0000000000000053
210
-0
220
0
230
-1
100
AcDbArc
50
270.00000000000733
51
360
0
ARC
5
413
100
AcDbEntity
8
0
100
AcDbCircle
10
44.104592488489928
20
25.050049999430808
30
0
40
0.99999999999999645
210
0
220
0
230
-1
100
AcDbArc
50
0
51
90
0
LINE
5
414
100
AcDbEntity
8
0
100
AcDbLine
10
-51.155042488054043
20
12.049949999332298
30
0
11
-63.154592488054462
21
12.049949999332323
31
0
0
LINE
5
415
100
AcDbEntity
8
0
100
AcDbLine
10
-32.105042488489545
20
12.049949999431091
30
0
11
-44.104592488489935
21
12.049949999431107
31
0
0
LINE
5
416
100
AcDbEntity
8
0
100
AcDbLine
10
-13.055042488258321
20
26.050049999379787
30
0
11
-25.054592488258827
21
26.050049999379787
31
0
0
LINE
5
417
100
AcDbEntity
8
0
100
AcDbLine
10
6.9949575119351328
20
25.050049999345774
30
0
11
6.9949575119351204
21
13.049949999345962
31
0
0
ARC
5
418
100
AcDbEntity
8
0
100
AcDbCircle
10
-25.054592488258741
20
13.049949999380084
30
0
40
0.99999999999999201
210
0
220
0
230
1
100
AcDbArc
50
180
51
270.00000000000023
0
LINE
5
419
100
AcDbEntity
8
0
100
AcDbLine
10
-26.05459248825872
20
25.050049999379791
30
0
11
-26.054592488258734
21
13.049949999379988
31
0
0
ARC
5
420
100
AcDbEntity
8
0
100
AcDbCircle
10
-25.054592488258724
20
25.050049999379794
30
0
40
0.99999999999999201
210
0
220
0
230
1
100
AcDbArc
50
90.000000000005898
51
180
0
LINE
5
421
100
AcDbEntity
8
0
100
AcDbLine
10
-83.204592488264723
20
13.049949999380042
30
0
11
-83.204592488264723
21
25.050049999379844
31
0
0
ARC
5
422
100
AcDbEntity
8
0
100
AcDbCircle
10
63.154592488054575
20
13.049949999332286
30
0
40
0.99999999999996314
210
0
220
-0
230
-1
100
AcDbArc
50
-90.000000000006523
51
0
0
LINE
5
423
100
AcDbEntity
8
0
100
AcDbLine
10
-50.155042488054029
20
25.050049999332018
30
0
11
-50.155042488054029
21
13.049949999332306
31
0
0
ARC
5
424
100
AcDbEntity
8
0
100
AcDbCircle
10
89.255042488045291
20
25.050049999332167
30
0
40
0.99999999999997424
210
0
220
0
230
-1
100
AcDbArc
50
89.999999999996746
51
180
0
ARC
5
425
100
AcDbEntity
8
0
100
AcDbCircle
10
101.25459248804583
20
25.050049999332145
30
0
40
1.0000000000000142
210
-0
220
0
230
-1
100
AcDbArc
50
0
51
89.99999999999838
0
LINE
5
426
100
AcDbEntity
8
0
100
AcDbLine
10
-69.205042488264212
20
25.050049999379826
30
0
11
-69.205042488264326
21
13.049949999380029
31
0
0
LINE
5
427
100
AcDbEntity
8
0
100
AcDbLine
10
-44.104592488489928
20
26.050049999430808
30
0
11
-32.105042488489524
21
26.050049999430804
31
0
0
LINE
5
428
100
AcDbEntity
8
0
100
AcDbLine
10
-31.105042488489527
20
25.050049999430794
30
0
11
-31.105042488489538
21
13.049949999431094
31
0
0
ARC
5
429
100
AcDbEntity
8
0
100
AcDbCircle
10
32.105042488489538
20
13.049949999431094
30
0
40
1.0000000000000009
210
0
220
0
230
-1
100
AcDbArc
50
180
51
270.0000000000004
0
ARC
5
430
100
AcDbEntity
8
0
100
AcDbCircle
10
82.204592488264723
20
25.050049999379841
30
0
40
0.99999999999999645
210
0
220
0
230
-1
100
AcDbArc
50
0
51
89.999999999993491
0
LINE
5
431
100
AcDbEntity
8
0
100
AcDbLine
10
-88.255042488045319
20
25.050049999332053
30
0
11
-88.25504248804522
21
13.049949999332339
31
0
0
ARC
5
432
100
AcDbEntity
8
0
100
AcDbCircle
10
32.105042488489545
20
25.05004999943079
30
0
40
1.0000000000000142
210
0
220
0
230
-1
100
AcDbArc
50
90.000000000001208
51
180
0
LINE
5
433
100
AcDbEntity
8
0
100
AcDbLine
10
-82.204592488264836
20
26.050049999379841
30
0
11
-70.205042488264311
21
26.050049999379826
31
0
0
LINE
5
434
100
AcDbEntity
8
0
100
AcDbLine
10
-64.154592488054533
20
13.049949999332323
30
0
11
-64.154592488054419
21
25.050049999332025
31
0
0
LINE
5
435
100
AcDbEntity
8
0
100
AcDbLine
10
-101.25459248804586
20
26.050049999332145
30
0
11
-89.255042488045348
21
26.050049999332145
31
0
0
ARC
5
436
100
AcDbEntity
8
0
100
AcDbCircle
10
-13.055042488258328
20
25.05004999937978
30
0
40
1.0000000000000053
210
-0
220
0
230
1
100
AcDbArc
50
0
51
89.999999999999588
0
ARC
5
437
100
AcDbEntity
8
0
100
AcDbCircle
10
89.25504248804522
20
13.049949999332339
30
0
40
0.99999999999999645
210
0
220
0
230
-1
100
AcDbArc
50
180
51
270
0
ARC
5
438
100
AcDbEntity
8
0
100
AcDbCircle
10
6.0045924880653683
20
13.049949999345971
30
0
40
1.0000000000000031
210
0
220
-0
230
-1
100
AcDbArc
50
-90.000000000002132
51
0
0
ARC
5
439
100
AcDbEntity
8
0
100
AcDbCircle
10
203.55503984748182
20
51.149947533574107
30
0
40
1.0000000000000497
210
0
220
-0
230
-1
100
AcDbArc
50
180
51
270
0
LINE
5
440
100
AcDbEntity
8
0
100
AcDbLine
10
-164.45503984772185
20
51.149947533621827
30
0
11
-164.45503984772077
21
63.150047533621525
31
0
0
LINE
5
441
100
AcDbEntity
8
0
100
AcDbLine
10
-177.45458984772182
20
50.149947533621848
30
0
11
-165.45503984772179
21
50.149947533621827
31
0
0
LINE
5
442
100
AcDbEntity
8
0
100
AcDbLine
10
-216.55458984748185
20
51.149947533574071
30
0
11
-216.55458984748179
21
63.150047533573783
31
0
0
ARC
5
443
100
AcDbEntity
8
0
100
AcDbCircle
10
203.55503984748182
20
63.150047533573797
30
0
40
1.0000000000000586
210
0
220
0
230
-1
100
AcDbArc
50
90.000000000001634
51
180
0
LINE
5
444
100
AcDbEntity
8
0
100
AcDbLine
10
-196.50458984769585
20
64.150047533621532
30
0
11
-184.5050398476948
21
64.150047533621546
31
0
0
LINE
5
445
100
AcDbEntity
8
0
100
AcDbLine
10
-183.50503984769475
20
63.150047533621532
30
0
11
-183.50503984769486
21
51.149947533621727
31
0
0
ARC
5
446
100
AcDbEntity
8
0
100
AcDbCircle
10
184.50503984769483
20
51.149947533621742
30
0
40
1.0000000000000142
210
0
220
-0
230
-1
100
AcDbArc
50
180
51
269.99999999999835
0
LINE
5
447
100
AcDbEntity
8
0
100
AcDbLine
10
-203.55503984748182
20
50.149947533574057
30
0
11
-215.55458984748185
21
50.149947533574064
31
0
0
ARC
5
448
100
AcDbEntity
8
0
100
AcDbCircle
10
196.50458984769585
20
51.149947533621891
30
0
40
1.000000000000032
210
-0
220
-0
230
-1
100
AcDbArc
50
270
51
360
0
LINE
5
449
100
AcDbEntity
8
0
100
AcDbLine
10
-197.50458984769585
20
51.149947533621756
30
0
11
-197.5045898476958
21
63.150047533621539
31
0
0
ARC
5
450
100
AcDbEntity
8
0
100
AcDbCircle
10
-165.45503984772179
20
51.149947533621791
30
0
40
0.99999999999996092
210
-0
220
0
230
1
100
AcDbArc
50
-90
51
0
0
LINE
5
451
100
AcDbEntity
8
0
100
AcDbLine
10
-165.45503984772083
20
64.150047533621546
30
0
11
-177.45458984772173
21
64.150047533621532
31
0
0
ARC
5
452
100
AcDbEntity
8
0
100
AcDbCircle
10
184.50503984769472
20
63.150047533621532
30
0
40
0.99999999999998757
210
0
220
0
230
-1
100
AcDbArc
50
89.999999999995111
51
180
0
ARC
5
453
100
AcDbEntity
8
0
100
AcDbCircle
10
-165.45503984772083
20
63.150047533621489
30
0
40
1.0000000000000497
210
0
220
-0
230
1
100
AcDbArc
50
0
51
90
0
ARC
5
454
100
AcDbEntity
8
0
100
AcDbCircle
10
-177.45458984772185
20
63.15004753362156
30
0
40
0.99999999999997868
210
0
220
-0
230
1
100
AcDbArc
50
89.999999999993491
51
180
0
LINE
5
455
100
AcDbEntity
8
0
100
AcDbLine
10
-178.45458984772182
20
63.150047533621532
30
0
11
-178.45458984772182
21
51.149947533621855
31
0
0
ARC
5
456
100
AcDbEntity
8
0
100
AcDbCircle
10
215.55458984748188
20
51.14994753357405
30
0
40
0.9999999999999698
210
0
220
-0
230
-1
100
AcDbArc
50
-90.000000000001634
51
0
0
LINE
5
457
100
AcDbEntity
8
0
100
AcDbLine
10
-215.55458984748185
20
64.150047533573854
30
0
11
-203.55503984748179
21
64.150047533573854
31
0
0
LINE
5
458
100
AcDbEntity
8
0
100
AcDbLine
10
-184.5050398476948
20
50.149947533621734
30
0
11
-196.50458984769585
21
50.149947533621848
31
0
0
ARC
5
459
100
AcDbEntity
8
0
100
AcDbCircle
10
-177.45458984772173
20
51.149947533621926
30
0
40
1.0000000000000853
210
0
220
0
230
1
100
AcDbArc
50
180
51
269.99999999999511
0
ARC
5
460
100
AcDbEntity
8
0
100
AcDbCircle
10
215.55458984748188
20
63.150047533573868
30
0
40
0.99999999999997868
210
-0
220
0
230
-1
100
AcDbArc
50
0
51
90.000000000001634
0
ARC
5
461
100
AcDbEntity
8
0
100
AcDbCircle
10
196.5045898476958
20
63.150047533621539
30
0
40
1.0000000000000142
210
0
220
0
230
-1
100
AcDbArc
50
0
51
89.999999999996746
0
LINE
5
462
100
AcDbEntity
8
0
100
AcDbLine
10
-202.55503984748177
20
63.150047533573769
30
0
11
-202.55503984748177
21
51.14994753357405
31
0
0
LWPOLYLINE
5
463
100
AcDbEntity
8
0
100
AcDbPolyline
90
8
70
1
43
0.0
10
-89.255042488044793
20
64.150049999330335
10
-101.25459248804481
20
64.150049999330349
42
0.41421356237310542
10
-102.25459248804481
20
63.150049999330363
10
-102.2545924880458
20
51.149949999330659
42
0.4142135623733838
10
-101.25459248804481
20
50.149949999330659
10
-89.255042488044793
20
50.149949999330659
42
0.41421356237307422
10
-88.255042488044907
20
51.149949999330659
10
-88.255042488044793
20
63.150049999330363
42
0.41421356237310025
0
LWPOLYLINE
5
464
100
AcDbEntity
8
0
100
AcDbPolyline
90
8
70
1
43
0.0
10
-108.3050398476778
20
64.150047533623976
10
-120.30458984767881
20
64.150047533623976
42
0.41421356237309503
10
-121.30458984767881
20
63.150047533623976
10
-121.30458984767881
20
51.149947533624278
42
0.41421356237307422
10
-120.30458984767881
20
50.149947533624285
10
-108.3050398476778
20
50.149947533624264
42
0.41421356237305601
10
-107.3050398476778
20
51.149947533624164
10
-107.30503984767782
20
63.150047533623976
42
0.41421356237309764
0
LINE
5
465
100
AcDbEntity
8
0
100
AcDbLine
10
-101.25459248804481
20
64.150049999330349
30
0
11
-89.255042488044793
21
64.150049999330335
31
0
0
LINE
5
466
100
AcDbEntity
8
0
100
AcDbLine
10
-120.30458984767881
20
64.150047533623976
30
0
11
-108.3050398476778
21
64.150047533623976
31
0
0
ARC
5
467
100
AcDbEntity
8
0
100
AcDbCircle
10
89.255042488044779
20
63.150049999330363
30
0
40
0.99999999999997868
210
0
220
0
230
-1
100
AcDbArc
50
89.99999999999919
51
180
0
LINE
5
468
100
AcDbEntity
8
0
100
AcDbLine
10
-121.30458984767881
20
51.149947533624278
30
0
11
-121.30458984767881
21
63.150047533623976
31
0
0
ARC
5
469
100
AcDbEntity
8
0
100
AcDbCircle
10
120.30458984767881
20
63.150047533623976
30
0
40
0.99999999999999645
210
0
220
0
230
-1
100
AcDbArc
50
0
51
90
0
ARC
5
470
100
AcDbEntity
8
0
100
AcDbCircle
10
89.255042488044879
20
51.149949999330637
30
0
40
0.99999999999997868
210
0
220
0
230
-1
100
AcDbArc
50
180
51
269.99999999999511
0
LINE
5
471
100
AcDbEntity
8
0
100
AcDbLine
10
-108.3050398476778
20
50.149947533624264
30
0
11
-120.30458984767881
21
50.149947533624285
31
0
0
LINE
5
472
100
AcDbEntity
8
0
100
AcDbLine
10
-89.255042488044793
20
50.149949999330659
30
0
11
-101.25459248804481
21
50.149949999330659
31
0
0
ARC
5
473
100
AcDbEntity
8
0
100
AcDbCircle
10
120.30458984767878
20
51.149947533624314
30
0
40
1.000000000000032
210
-0
220
0
230
-1
100
AcDbArc
50
270.00000000000159
51
360
0
ARC
5
474
100
AcDbEntity
8
0
100
AcDbCircle
10
101.25459248804481
20
63.150049999330363
30
0
40
0.99999999999999645
210
0
220
0
230
-1
100
AcDbArc
50
0
51
90
0
LINE
5
475
100
AcDbEntity
8
0
100
AcDbLine
10
-107.3050398476778
20
63.150047533623976
30
0
11
-107.3050398476778
21
51.149947533624164
31
0
0
ARC
5
476
100
AcDbEntity
8
0
100
AcDbCircle
10
101.25459248804577
20
51.149949999330673
30
0
40
1.0000000000000142
210
0
220
-0
230
-1
100
AcDbArc
50
269.99999999994463
51
360
0
ARC
5
477
100
AcDbEntity
8
0
100
AcDbCircle
10
108.30503984767782
20
63.150047533623976
30
0
40
0.99999999999999645
210
0
220
0
230
-1
100
AcDbArc
50
90.00000000000081
51
180
0
ARC
5
478
100
AcDbEntity
8
0
100
AcDbCircle
10
108.30503984767782
20
51.149947533624285
30
0
40
1.0000000000000142
210
0
220
-0
230
-1
100
AcDbArc
50
180
51
269.9999999999992
0
LINE
5
479
100
AcDbEntity
8
0
100
AcDbLine
10
-102.2545924880458
20
51.149949999330659
30
0
11
-102.25459248804481
21
63.150049999330363
31
0
0
LINE
5
480
100
AcDbEntity
8
0
100
AcDbLine
10
-88.255042488044793
20
63.150049999330363
30
0
11
-88.255042488044907
21
51.149949999330659
31
0
0
LWPOLYLINE
5
481
100
AcDbEntity
8
0
100
AcDbPolyline
90
11
70
1
43
0.0
10
-164.92981484769939
20
7.0000475336257573
10
-203.05481484769939
20
7.0000475336257573
10
-216.05481484769939
20
7.0000475336257573
42
0.41421356237309503
10
-216.55481484769939
20
6.500047533625759
10
-216.55481484769936
20
-6.4999524663742392
42
0.41421356237309503
10
-216.05481484769939
20
-6.9999524663742108
10
-203.05481484769939
20
-6.9999524663742374
10
-158.92981484769936
20
-6.9999524663742374
42
0.41421356237309503
10
-158.42981484769936
20
-6.4999524663742392
10
-158.42981484769936
20
6.500047533625759
42
0.41421356237309503
10
-158.92981484769936
20
7.0000475336257573
0
LWPOLYLINE
5
482
100
AcDbEntity
8
0
100
AcDbPolyline
90
8
70
1
43
0.0
10
-140.12981484769938
20
7.0000475336257306
42
-0.41421356237309503
10
-139.62981484769941
20
6.500047533625759
10
-139.62981484769938
20
-7.4999524663742445
42
-0.41421356237309503
10
-140.12981484769938
20
-7.9999524663742427
10
-145.62981484769938
20
-7.9999524663742516
42
-0.41421356237309503
10
-146.12981484769938
20
-7.4999524663742445
10
-146.12981484769938
20
6.500047533625759
42
-0.41421356237309503
10
-145.62981484769938
20
7.0000475336257573
0
LWPOLYLINE
5
483
100
AcDbEntity
8
0
100
AcDbPolyline
90
8
70
1
43
0.0
10
-111.27981484769936
20
7.0000475336257573
10
-98.27981484769937
20
7.0000475336257661
42
-0.41421356237309503
10
-97.77981484769937
20
6.500047533625759
10
-97.779814847699384
20
-6.4999524663742392
42
-0.41421356237309503
10
-98.27981484769937
20
-6.9999524663742374
10
-111.27981484769936
20
-6.9999524663742463
42
-0.41421356237309503
10
-111.77981484769937
20
-6.4999524663742392
10
-111.77981484769937
20
6.500047533625759
42
-0.41421356237309503
0
LWPOLYLINE
5
484
100
AcDbEntity
8
0
100
AcDbPolyline
90
8
70
1
43
0.0
10
-63.929814847699333
20
7.0000475336257661
42
-0.41421356237307422
10
-63.429814847699362
20
6.500047533625759
10
-63.429814847699362
20
-7.4999524663742445
42
-0.41421356237307422
10
-63.929814847699333
20
-7.9999524663742516
10
-69.429814847699362
20
-7.9999524663742516
42
-0.41421356237307422
10
-69.929814847699362
20
-7.4999524663742445
10
-69.929814847699333
20
6.500047533625759
42
-0.41421356237311585
10
-69.429814847699319
20
7.0000475336257395
0
LWPOLYLINE
5
485
100
AcDbEntity
8
0
100
AcDbPolyline
90
11
70
1
43
0.0
10
-6.5048148476993717
20
7.0000475336257573
10
6.4951851523006354
20
7.0000475336257661
42
-0.41421356237309503
10
6.9951851523006425
20
6.500047533625759
10
6.9951851523006336
20
-6.4999524663742392
42
-0.41421356237309503
10
6.4951851523006354
20
-6.9999524663742374
10
-6.5048148476993717
20
-6.9999524663742374
10
-50.629814847699386
20
-6.9999524663742552
42
-0.41421356237312101
10
-51.129814847699429
20
-6.4999524663742392
10
-51.129814847699386
20
6.500047533625759
42
-0.41421356237309503
10
-50.629814847699386
20
7.0000475336257573
10
-44.629814847699372
20
7.0000475336257573
0
ENDSEC
0
SECTION
2
OBJECTS
0
DICTIONARY
5
C
100
AcDbDictionary
3
ACAD_GROUP
350
D
3
ACAD_MLINESTYLE
350
17
0
DICTIONARY
5
D
100
AcDbDictionary
0
DICTIONARY
5
1A
330
C
100
AcDbDictionary
0
DICTIONARY
5
17
100
AcDbDictionary
0
ENDSEC
0
EOF
