0
SECTION
2
HEADER
9
$INSUNITS
70
4
9
$ACADVER
1
AC1014
9
$HANDSEED
5
FFFF
0
ENDSEC
0
SECTION
2
TABLES
0
TABLE
2
VPORT
5
8
100
AcDbSymbolTable
0
ENDTAB
0
TABLE
2
LTYPE
5
5
100
AcDbSymbolTable
0
LTYPE
5
14
100
AcDbSymbolTableRecord
100
AcDbLinetypeTableRecord
2
BYBLOCK
70
0
0
LTYPE
5
15
100
AcDbSymbolTableRecord
100
AcDbLinetypeTableRecord
2
BYLAYER
70
0
0
ENDTAB
0
TABLE
2
LAYER
5
2
100
AcDbSymbolTable
70
2
0
LAYER
5
50
100
AcDbSymbolTableRecord
100
AcDbLayerTableRecord
2
0
70
0
6
CONTINUOUS
0
ENDTAB
0
TABLE
2
STYLE
5
3
100
AcDbSymbolTable
70
1
0
STYLE
5
11
100
AcDbSymbolTableRecord
100
AcDbTextStyleTableRecord
2
STANDARD
70
0
0
ENDTAB
0
TABLE
2
VIEW
5
6
100
AcDbSymbolTable
70
0
0
ENDTAB
0
TABLE
2
UCS
5
7
100
AcDbSymbolTable
70
0
0
ENDTAB
0
TABLE
2
APPID
5
9
100
AcDbSymbolTable
70
2
0
APPID
5
12
100
AcDbSymbolTableRecord
100
AcDbRegAppTableRecord
2
ACAD
70
0
0
ENDTAB
0
TABLE
2
DIMSTYLE
5
A
100
AcDbSymbolTable
70
1
0
ENDTAB
0
TABLE
2
BLOCK_RECORD
5
1
100
AcDbSymbolTable
70
1
0
BLOCK_RECORD
5
1F
100
AcDbSymbolTableRecord
100
AcDbBlockTableRecord
2
*MODEL_SPACE
0
BLOCK_RECORD
5
1B
100
AcDbSymbolTableRecord
100
AcDbBlockTableRecord
2
*PAPER_SPACE
0
ENDTAB
0
ENDSEC
0
SECTION
2
BLOCKS
0
BLOCK
5
20
100
AcDbEntity
100
AcDbBlockBegin
2
*MODEL_SPACE
0
ENDBLK
5
21
100
AcDbEntity
100
AcDbBlockEnd
0
BLOCK
5
1C
100
AcDbEntity
100
AcDbBlockBegin
2
*PAPER_SPACE
0
ENDBLK
5
1D
100
AcDbEntity
100
AcDbBlockEnd
0
ENDSEC
0
SECTION
2
ENTITIES
0
LWPOLYLINE
5
100
100
AcDbEntity
8
0
100
AcDbPolyline
90
8
70
1
43
0.0
10
73.937726400000059
20
107.73101020404135
10
60.937726400000059
20
107.73101020404134
42
-0.41421356237309503
10
60.437726400000066
20
108.23101020404135
10
60.437726400000059
20
121.23101020404135
42
-0.41421356237309503
10
60.937726400000059
20
121.73101020404135
10
73.937726400000059
20
121.73101020404135
42
-0.41421356237309503
10
74.437726400000059
20
121.23101020404135
10
74.437726400000045
20
108.23101020404135
42
-0.41421356237309503
0
LWPOLYLINE
5
101
100
AcDbEntity
8
0
100
AcDbPolyline
90
8
70
1
43
0.0
10
99.037726400000068
20
107.73101020404134
42
-0.41421356237309503
10
98.537726400000054
20
108.23101020404135
10
98.537726400000054
20
121.23101020404135
42
-0.41421356237309503
10
99.037726400000068
20
121.73101020404135
10
112.03772640000008
20
121.73101020404135
42
-0.41421356237309503
10
112.53772640000008
20
121.23101020404135
10
112.53772640000007
20
108.23101020404135
42
-0.41421356237309503
10
112.03772640000008
20
107.73101020404135
0
LWPOLYLINE
5
102
100
AcDbEntity
8
0
100
AcDbPolyline
90
8
70
1
43
0.0
10
41.387726400000062
20
108.23101020404135
10
41.387726400000055
20
121.23101020404135
42
-0.41421356237309503
10
41.887726400000062
20
121.73101020404135
10
54.887726400000069
20
121.73101020404135
42
-0.41421356237309503
10
55.387726400000062
20
121.23101020404135
10
55.387726400000055
20
108.23101020404135
42
-0.41421356237309503
10
54.887726400000069
20
107.73101020404135
10
41.887726400000062
20
107.73101020404134
42
-0.41421356237309503
0
LWPOLYLINE
5
103
100
AcDbEntity
8
0
100
AcDbPolyline
90
8
70
1
43
0.0
10
79.487726400000042
20
121.23101020404135
42
-0.41421356237309503
10
79.987726400000057
20
121.73101020404135
10
92.987726400000042
20
121.73101020404135
42
-0.41421356237309503
10
93.487726400000057
20
121.23101020404135
10
93.487726400000057
20
108.23101020404135
42
-0.41421356237309503
10
92.987726400000071
20
107.73101020404135
10
79.987726400000057
20
107.73101020404134
42
-0.41421356237309503
10
79.487726400000057
20
108.23101020404135
0
LWPOLYLINE
5
104
100
AcDbEntity
8
0
100
AcDbPolyline
90
8
70
1
43
0.0
10
118.08772640000008
20
107.73101020404134
42
-0.41421356237309503
10
117.58772640000007
20
108.23101020404135
10
117.58772640000007
20
121.23101020404135
42
-0.41421356237309503
10
118.08772640000008
20
121.73101020404135
10
131.08772640000007
20
121.73101020404135
42
-0.41421356237309503
10
131.58772640000007
20
121.23101020404135
10
131.58772640000004
20
108.23101020404135
42
-0.41421356237309503
10
131.08772640000007
20
107.73101020404135
0
LWPOLYLINE
5
105
100
AcDbEntity
8
0
100
AcDbPolyline
90
8
70
1
43
0.0
10
35.837726400000065
20
107.73101020404135
10
22.837726400000058
20
107.73101020404134
42
-0.41421356237309503
10
22.337726400000058
20
108.23101020404135
10
22.337726400000051
20
121.23101020404135
42
-0.41421356237309503
10
22.837726400000058
20
121.73101020404135
10
35.837726400000065
20
121.73101020404135
42
-0.41421356237309503
10
36.337726400000065
20
121.23101020404135
10
36.337726400000051
20
108.23101020404135
42
-0.41421356237309503
0
LWPOLYLINE
5
106
100
AcDbEntity
8
0
100
AcDbPolyline
90
8
70
1
43
0.0
10
207.78772640000005
20
121.23101020404135
10
207.78772640000005
20
108.23101020404135
42
-0.41421356237309503
10
207.28772640000005
20
107.73101020404135
10
194.28772640000008
20
107.73101020404134
42
-0.41421356237309503
10
193.78772640000008
20
108.23101020404135
10
193.78772640000008
20
121.23101020404135
42
-0.41421356237309503
10
194.28772640000008
20
121.73101020404135
10
207.28772640000005
20
121.73101020404135
42
-0.41421356237309503
0
LWPOLYLINE
5
107
100
AcDbEntity
8
0
100
AcDbPolyline
90
36
70
1
43
0.0
10
251.43772640000009
20
107.73101020404134
42
-0.41421356237309503
10
250.93772640000009
20
108.23101020404135
10
250.93772640000009
20
121.23101020404135
42
-0.41421356237309503
10
251.43772640000009
20
121.73101020404135
10
252.52472640000008
20
121.73101020404135
10
258.52472640000008
20
121.73101020404135
10
260.96272640000007
20
121.73101020404135
10
264.43772640000009
20
121.73101020404135
10
270.4877264000001
20
121.73101020404135
10
273.96272640000007
20
121.73101020404135
10
276.40072640000005
20
121.73101020404135
10
282.40072640000005
20
121.73101020404135
10
283.4877264000001
20
121.73101020404135
42
-0.41421356237309503
10
283.9877264000001
20
121.23101020404135
10
283.9877264000001
20
108.23101020404135
42
-0.41421356237309503
10
283.4877264000001
20
107.73101020404135
10
283.15072640000005
20
107.73101020404138
42
0.41421356237313667
10
282.90072640000005
20
107.48101020404135
10
282.90072640000005
20
107.23101020404135
42
-0.41421356237309503
10
282.40072640000005
20
106.73101020404135
10
276.40072640000005
20
106.73101020404134
42
-0.41421356237309503
10
275.90072640000005
20
107.23101020404135
10
275.90072640000005
20
107.48101020404135
42
0.4142135623730534
10
275.65072640000011
20
107.73101020404135
10
273.96272640000007
20
107.73101020404135
10
270.4877264000001
20
107.73101020404135
10
264.43772640000009
20
107.73101020404135
10
260.96272640000007
20
107.73101020404135
10
259.27472640000008
20
107.73101020404135
42
0.41421356237311585
10
259.02472640000008
20
107.48101020404134
10
259.02472640000008
20
107.23101020404135
42
-0.41421356237309503
10
258.52472640000008
20
106.73101020404135
10
252.52472640000008
20
106.73101020404134
42
-0.41421356237309503
10
252.02472640000008
20
107.23101020404135
10
252.02472640000013
20
107.48101020404135
42
0.41421356237309503
10
251.77472640000008
20
107.73101020404135
0
LWPOLYLINE
5
108
100
AcDbEntity
8
0
100
AcDbPolyline
90
8
70
1
43
0.0
10
169.18772640000009
20
121.73101020404135
42
-0.41421356237309503
10
169.68772640000009
20
121.23101020404135
10
169.68772640000003
20
108.23101020404135
42
-0.41421356237309503
10
169.18772640000009
20
107.73101020404135
10
156.18772640000009
20
107.73101020404134
42
-0.41421356237309503
10
155.68772640000009
20
108.23101020404135
10
155.68772640000009
20
121.23101020404135
42
-0.41421356237309503
10
156.18772640000009
20
121.73101020404135
0
LWPOLYLINE
5
109
100
AcDbEntity
8
0
100
AcDbPolyline
90
8
70
1
43
0.0
10
245.38772640000008
20
107.73101020404135
10
232.38772640000008
20
107.73101020404138
42
-0.41421356237309503
10
231.88772640000008
20
108.23101020404138
10
231.88772640000008
20
121.23101020404135
42
-0.41421356237309503
10
232.38772640000008
20
121.73101020404135
10
245.38772640000008
20
121.73101020404135
42
-0.41421356237309503
10
245.88772640000008
20
121.23101020404135
10
245.88772640000008
20
108.23101020404135
42
-0.41421356237309503
0
LWPOLYLINE
5
110
100
AcDbEntity
8
0
100
AcDbPolyline
90
8
70
1
43
0.0
10
137.13772640000008
20
107.73101020404134
42
-0.41421356237309503
10
136.63772640000008
20
108.23101020404135
10
136.63772640000008
20
121.23101020404135
42
-0.41421356237309503
10
137.13772640000008
20
121.73101020404135
10
150.13772640000008
20
121.73101020404135
42
-0.41421356237309503
10
150.63772640000008
20
121.23101020404135
10
150.63772640000005
20
108.23101020404135
42
-0.41421356237309503
10
150.13772640000008
20
107.73101020404135
0
LWPOLYLINE
5
111
100
AcDbEntity
8
0
100
AcDbPolyline
90
8
70
1
43
0.0
10
188.73772640000004
20
121.23101020404135
10
188.73772640000004
20
108.23101020404135
42
-0.41421356237309503
10
188.23772640000004
20
107.73101020404135
10
175.23772640000007
20
107.73101020404134
42
-0.41421356237309503
10
174.73772640000007
20
108.23101020404135
10
174.73772640000007
20
121.23101020404135
42
-0.41421356237309503
10
175.23772640000007
20
121.73101020404135
10
188.23772640000004
20
121.73101020404135
42
-0.41421356237309503
0
LWPOLYLINE
5
112
100
AcDbEntity
8
0
100
AcDbPolyline
90
8
70
1
43
0.0
10
226.83772640000007
20
121.23101020404135
10
226.83772640000007
20
108.23101020404135
42
-0.41421356237309503
10
226.33772640000007
20
107.73101020404135
10
213.33772640000007
20
107.73101020404134
42
-0.41421356237309503
10
212.83772640000007
20
108.23101020404135
10
212.83772640000007
20
121.23101020404135
42
-0.41421356237309503
10
213.33772640000007
20
121.73101020404135
10
226.33772640000007
20
121.73101020404135
42
-0.41421356237309503
0
LWPOLYLINE
5
113
100
AcDbEntity
8
0
100
AcDbPolyline
90
8
70
1
43
0.0
10
50.912726400000068
20
89.181010204041357
10
50.912726400000075
20
102.18101020404136
42
-0.41421356237309503
10
51.412726400000068
20
102.68101020404134
10
64.412726400000068
20
102.68101020404134
42
-0.41421356237309503
10
64.912726400000068
20
102.18101020404136
10
64.912726400000054
20
89.181010204041357
42
-0.41421356237309503
10
64.412726400000068
20
88.681010204041371
10
51.412726400000068
20
88.681010204041371
42
-0.41421356237309503
0
LWPOLYLINE
5
114
100
AcDbEntity
8
0
100
AcDbPolyline
90
8
70
1
43
0.0
10
89.512726400000062
20
88.681010204041343
42
-0.41421356237309503
10
89.012726400000048
20
89.181010204041357
10
89.012726400000076
20
102.18101020404136
42
-0.41421356237309503
10
89.512726400000062
20
102.68101020404134
10
102.51272640000008
20
102.68101020404137
42
-0.41421356237309503
10
103.01272640000008
20
102.18101020404136
10
103.01272640000006
20
89.181010204041357
42
-0.41421356237309503
10
102.51272640000008
20
88.681010204041371
0
LWPOLYLINE
5
115
100
AcDbEntity
8
0
100
AcDbPolyline
90
8
70
1
43
0.0
10
70.462726400000065
20
102.68101020404134
10
83.462726400000079
20
102.68101020404134
42
-0.41421356237309503
10
83.962726400000065
20
102.18101020404136
10
83.962726400000079
20
89.181010204041357
42
-0.41421356237309503
10
83.462726400000079
20
88.681010204041343
10
70.462726400000065
20
88.681010204041371
42
-0.41421356237309503
10
69.962726400000065
20
89.181010204041357
10
69.962726400000079
20
102.18101020404136
42
-0.41421356237309503
0
LWPOLYLINE
5
116
100
AcDbEntity
8
0
100
AcDbPolyline
90
8
70
1
43
0.0
10
22.050226400000057
20
89.181010204041357
42
-0.41421356237309503
10
21.550226400000064
20
88.681010204041371
10
8.5502264000000601
20
88.681010204041343
42
-0.41421356237309503
10
8.0502264000000601
20
89.181010204041357
10
8.0502264000000707
20
102.18101020404136
42
-0.41421356237309503
10
8.5502264000000601
20
102.68101020404134
10
21.550226400000064
20
102.68101020404134
42
-0.41421356237309503
10
22.050226400000064
20
102.18101020404136
0
LWPOLYLINE
5
117
100
AcDbEntity
8
0
100
AcDbPolyline
90
8
70
1
43
0.0
10
32.362726400000064
20
88.681010204041371
42
-0.41421356237309503
10
31.862726400000064
20
89.181010204041357
10
31.862726400000074
20
102.18101020404136
42
-0.41421356237309503
10
32.362726400000064
20
102.68101020404134
10
45.362726400000064
20
102.68101020404137
42
-0.41421356237309503
10
45.862726400000071
20
102.18101020404136
10
45.862726400000071
20
89.181010204041357
42
-0.41421356237309503
10
45.362726400000064
20
88.681010204041343
0
LWPOLYLINE
5
118
100
AcDbEntity
8
0
100
AcDbPolyline
90
8
70
1
43
0.0
10
108.56272640000007
20
88.681010204041343
42
-0.41421356237309503
10
108.06272640000006
20
89.181010204041357
10
108.06272640000009
20
102.18101020404136
42
-0.41421356237309503
10
108.56272640000007
20
102.68101020404134
10
121.56272640000006
20
102.68101020404137
42
-0.41421356237309503
10
122.06272640000007
20
102.18101020404136
10
122.06272640000006
20
89.181010204041357
42
-0.41421356237309503
10
121.56272640000006
20
88.681010204041371
0
LWPOLYLINE
5
119
100
AcDbEntity
8
0
100
AcDbPolyline
90
8
70
1
43
0.0
10
241.41272640000011
20
102.18101020404136
42
-0.41421356237309503
10
241.91272640000008
20
102.68101020404134
10
254.91272640000008
20
102.68101020404137
42
-0.41421356237309503
10
255.41272640000011
20
102.18101020404136
10
255.41272640000011
20
89.181010204041357
42
-0.41421356237309503
10
254.91272640000008
20
88.681010204041343
10
241.91272640000008
20
88.681010204041343
42
-0.41421356237309503
10
241.41272640000008
20
89.181010204041357
0
LWPOLYLINE
5
120
100
AcDbEntity
8
0
100
AcDbPolyline
90
8
70
1
43
0.0
10
165.21272640000007
20
89.181010204041357
10
165.21272640000007
20
102.18101020404136
42
-0.41421356237309503
10
165.71272640000007
20
102.68101020404134
10
178.71272640000004
20
102.68101020404137
42
-0.41421356237309503
10
179.21272640000007
20
102.18101020404136
10
179.21272640000007
20
89.181010204041357
42
-0.41421356237309503
10
178.71272640000004
20
88.681010204041371
10
165.71272640000007
20
88.681010204041343
42
-0.41421356237309503
0
LWPOLYLINE
5
121
100
AcDbEntity
8
0
100
AcDbPolyline
90
8
70
1
43
0.0
10
216.81272640000009
20
102.68101020404137
42
-0.41421356237309503
10
217.31272640000012
20
102.18101020404136
10
217.31272640000012
20
89.181010204041357
42
-0.41421356237309503
10
216.81272640000009
20
88.681010204041343
10
203.81272640000009
20
88.681010204041343
42
-0.41421356237309503
10
203.31272640000009
20
89.181010204041357
10
203.31272640000009
20
102.18101020404136
42
-0.41421356237309503
10
203.81272640000009
20
102.68101020404134
0
LWPOLYLINE
5
122
100
AcDbEntity
8
0
100
AcDbPolyline
90
8
70
1
43
0.0
10
235.86272640000007
20
102.68101020404137
42
-0.41421356237309503
10
236.3627264000001
20
102.18101020404136
10
236.3627264000001
20
89.181010204041357
42
-0.41421356237309503
10
235.86272640000007
20
88.681010204041371
10
222.86272640000007
20
88.681010204041343
42
-0.41421356237309503
10
222.36272640000007
20
89.181010204041357
10
222.3627264000001
20
102.18101020404136
42
-0.41421356237309503
10
222.86272640000007
20
102.68101020404134
0
LWPOLYLINE
5
123
100
AcDbEntity
8
0
100
AcDbPolyline
90
8
70
1
43
0.0
10
141.11272640000004
20
89.181010204041357
42
-0.41421356237309503
10
140.61272640000004
20
88.681010204041371
10
127.61272640000007
20
88.681010204041343
42
-0.41421356237309503
10
127.11272640000006
20
89.181010204041357
10
127.11272640000007
20
102.18101020404136
42
-0.41421356237309503
10
127.61272640000007
20
102.68101020404134
10
140.61272640000004
20
102.68101020404137
42
-0.41421356237309503
10
141.11272640000007
20
102.18101020404136
0
LWPOLYLINE
5
124
100
AcDbEntity
8
0
100
AcDbPolyline
90
8
70
1
43
0.0
10
198.26272640000008
20
89.181010204041357
42
-0.41421356237309503
10
197.76272640000008
20
88.681010204041371
10
184.76272640000008
20
88.681010204041343
42
-0.41421356237309503
10
184.26272640000008
20
89.181010204041357
10
184.26272640000008
20
102.18101020404136
42
-0.41421356237309503
10
184.76272640000008
20
102.68101020404134
10
197.76272640000008
20
102.68101020404133
42
-0.41421356237309503
10
198.26272640000008
20
102.18101020404136
0
LWPOLYLINE
5
125
100
AcDbEntity
8
0
100
AcDbPolyline
90
8
70
1
43
0.0
10
146.66272640000008
20
102.68101020404134
10
159.66272640000005
20
102.68101020404137
42
-0.41421356237309503
10
160.16272640000008
20
102.18101020404136
10
160.16272640000008
20
89.181010204041357
42
-0.41421356237309503
10
159.66272640000005
20
88.681010204041343
10
146.66272640000008
20
88.681010204041343
42
-0.41421356237309503
10
146.16272640000008
20
89.181010204041357
10
146.16272640000008
20
102.18101020404136
42
-0.41421356237309503
0
LWPOLYLINE
5
126
100
AcDbEntity
8
0
100
AcDbPolyline
90
8
70
1
43
0.0
10
265.72522640000005
20
88.681010204041343
42
-0.41421356237309503
10
265.22522640000005
20
89.181010204041357
10
265.22522640000005
20
102.18101020404136
42
-0.41421356237309503
10
265.72522640000005
20
102.68101020404134
10
278.72522640000005
20
102.68101020404137
42
-0.41421356237309503
10
279.22522640000005
20
102.18101020404136
10
279.22522640000005
20
89.181010204041357
42
-0.41421356237309503
10
278.72522640000005
20
88.681010204041371
0
LWPOLYLINE
5
127
100
AcDbEntity
8
0
100
AcDbPolyline
90
8
70
1
43
0.0
10
88.225226400000082
20
83.631010204041374
42
-0.41421356237309503
10
88.725226400000082
20
83.13101020404136
10
88.725226400000068
20
70.131010204041345
42
-0.41421356237309503
10
88.225226400000082
20
69.63101020404136
10
75.225226400000068
20
69.63101020404136
42
-0.41421356237309503
10
74.725226400000068
20
70.131010204041345
10
74.725226400000082
20
83.13101020404136
42
-0.41421356237309503
10
75.225226400000068
20
83.63101020404136
0
LWPOLYLINE
5
128
100
AcDbEntity
8
0
100
AcDbPolyline
90
8
70
1
43
0.0
10
107.27522640000007
20
69.63101020404136
10
94.275226400000065
20
69.63101020404136
42
-0.41421356237309503
10
93.775226400000079
20
70.131010204041345
10
93.775226400000079
20
83.13101020404136
42
-0.41421356237309503
10
94.275226400000065
20
83.63101020404136
10
107.27522640000007
20
83.631010204041374
42
-0.41421356237309503
10
107.77522640000008
20
83.13101020404136
10
107.77522640000008
20
70.131010204041345
42
-0.41421356237309503
0
LWPOLYLINE
5
129
100
AcDbEntity
8
0
100
AcDbPolyline
90
8
70
1
43
0.0
10
126.82522640000005
20
70.131010204041345
42
-0.41421356237309503
10
126.32522640000006
20
69.63101020404136
10
113.32522640000008
20
69.631010204041345
42
-0.41421356237309503
10
112.82522640000008
20
70.131010204041345
10
112.82522640000009
20
83.13101020404136
42
-0.41421356237309503
10
113.32522640000008
20
83.63101020404136
10
126.32522640000006
20
83.631010204041374
42
-0.41421356237309503
10
126.82522640000008
20
83.13101020404136
0
LWPOLYLINE
5
130
100
AcDbEntity
8
0
100
AcDbPolyline
90
8
70
1
43
0.0
10
145.87522640000006
20
70.131010204041345
42
-0.41421356237309503
10
145.37522640000009
20
69.63101020404136
10
132.37522640000009
20
69.631010204041345
42
-0.41421356237309503
10
131.87522640000009
20
70.131010204041345
10
131.87522640000009
20
83.13101020404136
42
-0.41421356237309503
10
132.37522640000009
20
83.63101020404136
10
145.37522640000009
20
83.631010204041374
42
-0.41421356237309503
10
145.87522640000009
20
83.13101020404136
0
LWPOLYLINE
5
131
100
AcDbEntity
8
0
100
AcDbPolyline
90
8
70
1
43
0.0
10
151.42522640000007
20
69.631010204041345
42
-0.41421356237309503
10
150.92522640000004
20
70.131010204041345
10
150.92522640000007
20
83.13101020404136
42
-0.41421356237309503
10
151.42522640000007
20
83.63101020404136
10
164.42522640000007
20
83.631010204041374
42
-0.41421356237309503
10
164.92522640000007
20
83.13101020404136
10
164.92522640000007
20
70.131010204041345
42
-0.41421356237309503
10
164.42522640000007
20
69.63101020404136
0
LWPOLYLINE
5
132
100
AcDbEntity
8
0
100
AcDbPolyline
90
12
70
1
43
0.0
10
6.1689764000000604
20
69.63101020404136
42
-0.41421356237309503
10
5.6689764000000604
20
70.131010204041345
10
5.6689764000000711
20
83.13101020404136
42
-0.41421356237309503
10
6.1689764000000604
20
83.63101020404136
10
10.93147640000006
20
83.63101020404136
10
19.168976400000062
20
83.63101020404136
10
23.931476400000058
20
83.631010204041374
42
-0.41421356237309503
10
24.431476400000058
20
83.13101020404136
10
24.431476400000058
20
70.131010204041345
42
-0.41421356237309503
10
23.931476400000058
20
69.63101020404136
10
19.168976400000062
20
69.63101020404136
10
10.93147640000006
20
69.63101020404136
0
LWPOLYLINE
5
133
100
AcDbEntity
8
0
100
AcDbPolyline
90
8
70
1
43
0.0
10
37.125226400000059
20
69.63101020404136
42
-0.41421356237309503
10
36.625226400000059
20
70.131010204041345
10
36.625226400000066
20
83.13101020404136
42
-0.41421356237309503
10
37.125226400000059
20
83.63101020404136
10
50.125226400000066
20
83.631010204041374
42
-0.41421356237309503
10
50.625226400000059
20
83.13101020404136
10
50.625226400000059
20
70.131010204041345
42
-0.41421356237309503
10
50.125226400000066
20
69.63101020404136
0
LWPOLYLINE
5
134
100
AcDbEntity
8
0
100
AcDbPolyline
90
8
70
1
43
0.0
10
56.175226400000071
20
69.63101020404136
42
-0.41421356237309503
10
55.675226400000071
20
70.131010204041345
10
55.675226400000078
20
83.13101020404136
42
-0.41421356237309503
10
56.175226400000071
20
83.63101020404136
10
69.175226400000057
20
83.631010204041374
42
-0.41421356237309503
10
69.675226400000057
20
83.13101020404136
10
69.675226400000057
20
70.131010204041345
42
-0.41421356237309503
10
69.175226400000057
20
69.63101020404136
0
LWPOLYLINE
5
135
100
AcDbEntity
8
0
100
AcDbPolyline
90
8
70
1
43
0.0
10
240.62522640000009
20
83.631010204041374
42
-0.41421356237309503
10
241.12522640000009
20
83.13101020404136
10
241.12522640000009
20
70.131010204041345
42
-0.41421356237309503
10
240.62522640000009
20
69.63101020404136
10
227.62522640000009
20
69.631010204041345
42
-0.41421356237309503
10
227.12522640000006
20
70.131010204041345
10
227.12522640000009
20
83.13101020404136
42
-0.41421356237309503
10
227.62522640000009
20
83.63101020404136
0
LWPOLYLINE
5
136
100
AcDbEntity
8
0
100
AcDbPolyline
90
22
70
1
43
0.0
10
255.64347640000005
20
68.63101020404136
10
250.14347640000008
20
68.631010204041345
42
-0.41421356237309503
10
249.64347640000005
20
69.13101020404136
10
249.64347640000005
20
83.13101020404136
42
-0.41421356237309503
10
250.14347640000008
20
83.63101020404136
10
256.14347640000011
20
83.63101020404136
10
258.5814764000001
20
83.63101020404136
10
271.5814764000001
20
83.63101020404136
10
274.01947640000009
20
83.63101020404136
10
280.01947640000009
20
83.631010204041374
42
-0.41421356237309503
10
280.51947640000009
20
83.13101020404136
10
280.51947640000009
20
69.13101020404136
42
-0.41421356237309503
10
280.01947640000009
20
68.63101020404136
10
274.51947640000009
20
68.63101020404136
42
-0.41421356237313145
10
274.01947640000009
20
69.13101020404136
10
274.01947640000009
20
69.381010204041345
42
0.41421356237313667
10
273.76947640000014
20
69.63101020404136
10
271.5814764000001
20
69.63101020404136
10
258.5814764000001
20
69.63101020404136
10
256.39347640000005
20
69.63101020404136
42
0.41421356237326151
10
256.14347640000005
20
69.381010204041345
10
256.14347640000005
20
69.131010204041345
42
-0.41421356237308982
0
LWPOLYLINE
5
137
100
AcDbEntity
8
0
100
AcDbPolyline
90
8
70
1
43
0.0
10
183.97522640000008
20
83.13101020404136
10
183.97522640000008
20
70.131010204041345
42
-0.41421356237309503
10
183.47522640000008
20
69.63101020404136
10
170.47522640000008
20
69.631010204041345
42
-0.41421356237309503
10
169.97522640000005
20
70.131010204041345
10
169.97522640000005
20
83.13101020404136
42
-0.41421356237309503
10
170.47522640000008
20
83.63101020404136
10
183.47522640000008
20
83.631010204041374
42
-0.41421356237309503
0
LWPOLYLINE
5
138
100
AcDbEntity
8
0
100
AcDbPolyline
90
8
70
1
43
0.0
10
221.57522640000008
20
83.631010204041374
42
-0.41421356237309503
10
222.07522640000008
20
83.13101020404136
10
222.07522640000008
20
70.131010204041345
42
-0.41421356237309503
10
221.57522640000008
20
69.63101020404136
10
208.57522640000008
20
69.631010204041345
42
-0.41421356237309503
10
208.07522640000005
20
70.131010204041345
10
208.07522640000008
20
83.13101020404136
42
-0.41421356237309503
10
208.57522640000008
20
83.63101020404136
0
LWPOLYLINE
5
139
100
AcDbEntity
8
0
100
AcDbPolyline
90
8
70
1
43
0.0
10
189.52522640000007
20
83.63101020404136
10
202.52522640000007
20
83.631010204041374
42
-0.41421356237309503
10
203.02522640000007
20
83.13101020404136
10
203.02522640000007
20
70.131010204041345
42
-0.41421356237309503
10
202.52522640000007
20
69.63101020404136
10
189.52522640000007
20
69.631010204041345
42
-0.41421356237309503
10
189.02522640000004
20
70.131010204041345
10
189.02522640000007
20
83.13101020404136
42
-0.41421356237309503
0
LWPOLYLINE
5
140
100
AcDbEntity
8
0
100
AcDbPolyline
90
8
70
1
43
0.0
10
84.250226400000059
20
64.081010204041348
42
-0.41421356237309503
10
84.750226400000059
20
64.581010204041348
10
97.750226400000059
20
64.581010204041362
42
-0.41421356237309503
10
98.250226400000074
20
64.081010204041348
10
98.250226400000074
20
51.081010204041355
42
-0.41421356237309503
10
97.750226400000059
20
50.581010204041362
10
84.750226400000059
20
50.581010204041348
42
-0.41421356237309503
10
84.250226400000059
20
51.081010204041355
0
LWPOLYLINE
5
141
100
AcDbEntity
8
0
100
AcDbPolyline
90
8
70
1
43
0.0
10
116.80022640000006
20
50.581010204041362
10
103.80022640000007
20
50.581010204041348
42
-0.41421356237309503
10
103.30022640000007
20
51.081010204041355
10
103.30022640000007
20
64.081010204041348
42
-0.41421356237309503
10
103.80022640000007
20
64.581010204041348
10
116.80022640000006
20
64.581010204041362
42
-0.41421356237309503
10
117.30022640000007
20
64.081010204041348
10
117.30022640000004
20
51.081010204041355
42
-0.41421356237309503
0
LWPOLYLINE
5
142
100
AcDbEntity
8
0
100
AcDbPolyline
90
8
70
1
43
0.0
10
65.700226400000062
20
64.581010204041348
10
78.700226400000062
20
64.581010204041348
42
-0.41421356237309503
10
79.200226400000062
20
64.081010204041348
10
79.200226400000062
20
51.081010204041355
42
-0.41421356237309503
10
78.700226400000062
20
50.581010204041362
10
65.700226400000062
20
50.581010204041362
42
-0.41421356237309503
10
65.200226400000062
20
51.081010204041355
10
65.200226400000062
20
64.081010204041348
42
-0.41421356237309503
0
LWPOLYLINE
5
143
100
AcDbEntity
8
0
100
AcDbPolyline
90
22
70
1
43
0.0
10
12.755976400000053
20
49.581010204041355
10
7.2559764000000602
20
49.581010204041355
42
-0.41421356237309503
10
6.7559764000000602
20
50.081010204041348
10
6.7559764000000619
20
64.081010204041348
42
-0.41421356237309503
10
7.2559764000000602
20
64.581010204041348
10
13.25597640000006
20
64.581010204041348
10
15.693976400000061
20
64.581010204041348
10
28.693976400000061
20
64.581010204041348
10
31.131976400000063
20
64.581010204041348
10
37.131976400000056
20
64.581010204041348
42
-0.41421356237309503
10
37.631976400000056
20
64.081010204041348
10
37.631976400000056
20
50.081010204041348
42
-0.41421356237309503
10
37.131976400000056
20
49.581010204041355
10
31.631976400000063
20
49.581010204041355
42
-0.41421356237310025
10
31.131976400000056
20
50.081010204041348
10
31.131976400000063
20
50.331010204041355
42
0.41421356237309503
10
30.88197640000006
20
50.581010204041362
10
28.693976400000061
20
50.581010204041362
10
15.693976400000061
20
50.581010204041362
10
13.505976400000053
20
50.581010204041362
42
0.41421356237309503
10
13.255976400000053
20
50.331010204041355
10
13.255976400000051
20
50.081010204041334
42
-0.4142135623730846
0
LWPOLYLINE
5
144
100
AcDbEntity
8
0
100
AcDbPolyline
90
8
70
1
43
0.0
10
59.650226400000072
20
50.581010204041362
10
46.650226400000065
20
50.581010204041362
42
-0.41421356237309503
10
46.150226400000065
20
51.081010204041355
10
46.150226400000065
20
64.081010204041348
42
-0.41421356237309503
10
46.650226400000065
20
64.581010204041348
10
59.650226400000072
20
64.581010204041348
42
-0.41421356237309503
10
60.150226400000065
20
64.081010204041348
10
60.150226400000065
20
51.081010204041355
42
-0.41421356237309503
0
LWPOLYLINE
5
145
100
AcDbEntity
8
0
100
AcDbPolyline
90
8
70
1
43
0.0
10
136.35022640000005
20
51.081010204041355
42
-0.41421356237309503
10
135.85022640000008
20
50.581010204041362
10
122.85022640000008
20
50.581010204041348
42
-0.41421356237309503
10
122.35022640000008
20
51.081010204041355
10
122.35022640000008
20
64.081010204041348
42
-0.41421356237309503
10
122.85022640000008
20
64.581010204041348
10
135.85022640000008
20
64.581010204041362
42
-0.41421356237309503
10
136.35022640000008
20
64.081010204041348
0
LWPOLYLINE
5
146
100
AcDbEntity
8
0
100
AcDbPolyline
90
8
70
1
43
0.0
10
141.90022640000007
20
50.581010204041348
42
-0.41421356237309503
10
141.40022640000007
20
51.081010204041355
10
141.40022640000007
20
64.081010204041348
42
-0.41421356237309503
10
141.90022640000007
20
64.581010204041348
10
154.90022640000007
20
64.581010204041348
42
-0.41421356237309503
10
155.40022640000007
20
64.081010204041348
10
155.40022640000007
20
51.081010204041355
42
-0.41421356237309503
10
154.90022640000007
20
50.581010204041362
0
LWPOLYLINE
5
147
100
AcDbEntity
8
0
100
AcDbPolyline
90
8
70
1
43
0.0
10
198.55022640000004
20
64.081010204041348
42
-0.41421356237309503
10
199.05022640000004
20
64.581010204041348
10
212.05022640000007
20
64.581010204041362
42
-0.41421356237309503
10
212.55022640000007
20
64.081010204041348
10
212.55022640000007
20
51.081010204041355
42
-0.41421356237309503
10
212.05022640000007
20
50.581010204041362
10
199.05022640000004
20
50.581010204041348
42
-0.41421356237309503
10
198.55022640000004
20
51.081010204041355
0
LWPOLYLINE
5
148
100
AcDbEntity
8
0
100
AcDbPolyline
90
8
70
1
43
0.0
10
231.60022640000008
20
64.081010204041348
10
231.60022640000008
20
51.081010204041355
42
-0.41421356237309503
10
231.10022640000008
20
50.581010204041362
10
218.10022640000005
20
50.581010204041384
42
-0.41421356237309503
10
217.60022640000011
20
51.081010204041355
10
217.60022640000005
20
64.081010204041348
42
-0.41421356237309503
10
218.10022640000005
20
64.581010204041348
10
231.10022640000008
20
64.581010204041362
42
-0.41421356237309503
0
LWPOLYLINE
5
149
100
AcDbEntity
8
0
100
AcDbPolyline
90
35
70
1
43
0.0
10
253.81897640000008
20
64.581010204041348
10
257.29397640000008
20
64.581010204041348
10
266.81897640000005
20
64.581010204041348
10
269.2569764000001
20
64.581010204041348
10
270.4877264000001
20
64.581010204041348
10
275.2569764000001
20
64.581010204041348
10
283.4877264000001
20
64.581010204041362
42
-0.41421356237309503
10
283.9877264000001
20
64.081010204041348
10
283.9877264000001
20
51.081010204041355
42
-0.41421356237309503
10
283.4877264000001
20
50.581010204041362
10
276.0069764000001
20
50.581010204041377
42
0.41421356237328233
10
275.7569764000001
20
50.331010204041334
10
275.7569764000001
20
50.081010204041348
42
-0.41421356237309503
10
275.2569764000001
20
49.581010204041355
10
269.2569764000001
20
49.581010204041348
42
-0.41421356237309503
10
268.7569764000001
20
50.081010204041348
10
268.7569764000001
20
50.331010204041334
42
0.41421356237311585
10
268.5069764000001
20
50.581010204041362
10
266.81897640000005
20
50.581010204041362
10
257.29397640000008
20
50.581010204041362
10
253.81897640000008
20
50.581010204041362
10
252.13097640000007
20
50.581010204041362
42
0.41421356237313667
10
251.88097640000007
20
50.331010204041355
10
251.88097640000007
20
50.081010204041348
42
-0.41421356237309503
10
251.38097640000007
20
49.581010204041355
10
245.38097640000007
20
49.581010204041348
42
-0.41421356237309503
10
244.88097640000007
20
50.081010204041348
10
244.88097640000007
20
50.331010204041355
42
0.41421356237309503
10
244.63097640000007
20
50.581010204041362
10
244.29397640000008
20
50.581010204041348
42
-0.41421356237309503
10
243.79397640000008
20
51.081010204041355
10
243.79397640000008
20
64.081010204041348
42
-0.41421356237309503
10
244.29397640000008
20
64.581010204041348
10
245.38097640000007
20
64.581010204041348
10
251.38097640000007
20
64.581010204041348
0
LWPOLYLINE
5
150
100
AcDbEntity
8
0
100
AcDbPolyline
90
8
70
1
43
0.0
10
173.95022640000008
20
64.581010204041362
42
-0.41421356237309503
10
174.45022640000008
20
64.081010204041348
10
174.45022640000008
20
51.081010204041355
42
-0.41421356237309503
10
173.95022640000008
20
50.581010204041362
10
160.95022640000008
20
50.581010204041348
42
-0.41421356237309503
10
160.45022640000008
20
51.081010204041355
10
160.45022640000008
20
64.081010204041348
42
-0.41421356237309503
10
160.95022640000008
20
64.581010204041348
0
LWPOLYLINE
5
151
100
AcDbEntity
8
0
100
AcDbPolyline
90
8
70
1
43
0.0
10
193.50022640000009
20
51.081010204041355
42
-0.41421356237309503
10
193.00022640000009
20
50.581010204041362
10
180.00022640000009
20
50.581010204041348
42
-0.41421356237309503
10
179.50022640000009
20
51.081010204041355
10
179.50022640000009
20
64.081010204041348
42
-0.41421356237309503
10
180.00022640000009
20
64.581010204041348
10
193.00022640000009
20
64.581010204041362
42
-0.41421356237309503
10
193.50022640000009
20
64.081010204041348
0
LWPOLYLINE
5
152
100
AcDbEntity
8
0
100
AcDbPolyline
90
8
70
1
43
0.0
10
150.63772640000008
20
32.031010204041351
42
-0.41421356237309503
10
150.13772640000008
20
31.531010204041348
10
137.13772640000008
20
31.531010204041348
42
-0.41421356237309503
10
136.63772640000008
20
32.031010204041351
10
136.63772640000008
20
45.031010204041365
42
-0.41421356237309503
10
137.13772640000008
20
45.531010204041358
10
150.13772640000008
20
45.531010204041365
42
-0.41421356237309503
10
150.63772640000008
20
45.031010204041365
0
LWPOLYLINE
5
153
100
AcDbEntity
8
0
100
AcDbPolyline
90
8
70
1
43
0.0
10
112.03772640000008
20
45.531010204041365
42
-0.41421356237309503
10
112.53772640000008
20
45.031010204041365
10
112.53772640000008
20
32.031010204041351
42
-0.41421356237309503
10
112.03772640000008
20
31.531010204041348
10
99.037726400000068
20
31.531010204041348
42
-0.41421356237309503
10
98.537726400000054
20
32.031010204041351
10
98.537726400000054
20
45.031010204041365
42
-0.41421356237309503
10
99.037726400000068
20
45.531010204041358
0
LWPOLYLINE
5
154
100
AcDbEntity
8
0
100
AcDbPolyline
90
8
70
1
43
0.0
10
127.58772640000007
20
46.531010204041365
42
-0.41421356237309503
10
128.08772640000007
20
46.031010204041358
10
128.08772640000007
20
32.031010204041351
42
-0.41421356237309503
10
127.58772640000007
20
31.531010204041348
10
121.58772640000008
20
31.531010204041348
42
-0.41421356237309503
10
121.08772640000007
20
32.031010204041351
10
121.08772640000009
20
46.031010204041358
42
-0.41421356237309503
10
121.58772640000008
20
46.531010204041358
0
LWPOLYLINE
5
155
100
AcDbEntity
8
0
100
AcDbPolyline
90
8
70
1
43
0.0
10
8.5502264000000601
20
31.531010204041358
42
-0.41421356237309503
10
8.0502264000000601
20
32.031010204041351
10
8.0502264000000618
20
45.031010204041365
42
-0.41421356237309503
10
8.5502264000000601
20
45.531010204041358
10
21.550226400000064
20
45.531010204041358
42
-0.41421356237309503
10
22.050226400000064
20
45.031010204041365
10
22.050226400000071
20
32.031010204041351
42
-0.41421356237309503
10
21.550226400000064
20
31.531010204041348
0
LWPOLYLINE
5
156
100
AcDbEntity
8
0
100
AcDbPolyline
90
8
70
1
43
0.0
10
32.362726400000064
20
45.531010204041358
10
45.362726400000064
20
45.531010204041365
42
-0.41421356237309503
10
45.862726400000071
20
45.031010204041365
10
45.862726400000049
20
32.031010204041351
42
-0.41421356237309503
10
45.362726400000064
20
31.531010204041365
10
32.362726400000064
20
31.531010204041358
42
-0.41421356237309503
10
31.862726400000064
20
32.031010204041351
10
31.862726400000064
20
45.031010204041365
42
-0.41421356237309503
0
LWPOLYLINE
5
157
100
AcDbEntity
8
0
100
AcDbPolyline
90
8
70
1
43
0.0
10
56.175226400000071
20
45.531010204041358
10
69.175226400000057
20
45.531010204041358
42
-0.41421356237309503
10
69.675226400000057
20
45.031010204041365
10
69.675226400000071
20
32.031010204041351
42
-0.41421356237309503
10
69.175226400000057
20
31.531010204041348
10
56.175226400000071
20
31.531010204041358
42
-0.41421356237309503
10
55.675226400000071
20
32.031010204041351
10
55.675226400000071
20
45.031010204041365
42
-0.41421356237309503
0
LWPOLYLINE
5
158
100
AcDbEntity
8
0
100
AcDbPolyline
90
8
70
1
43
0.0
10
231.60022640000008
20
32.031010204041351
42
-0.41421356237309503
10
231.10022640000008
20
31.531010204041348
10
218.10022640000005
20
31.531010204041348
42
-0.41421356237309503
10
217.60022640000005
20
32.031010204041351
10
217.60022640000005
20
45.031010204041365
42
-0.41421356237309503
10
218.10022640000005
20
45.531010204041358
10
231.10022640000008
20
45.531010204041365
42
-0.41421356237309503
10
231.60022640000008
20
45.031010204041365
0
LWPOLYLINE
5
159
100
AcDbEntity
8
0
100
AcDbPolyline
90
8
70
1
43
0.0
10
265.22522640000005
20
45.031010204041365
42
-0.41421356237309503
10
265.72522640000005
20
45.531010204041358
10
278.72522640000005
20
45.531010204041337
42
-0.41421356237309503
10
279.22522640000005
20
45.031010204041365
10
279.22522640000005
20
32.031010204041351
42
-0.41421356237309503
10
278.72522640000005
20
31.531010204041348
10
265.72522640000005
20
31.531010204041348
42
-0.41421356237309503
10
265.22522640000005
20
32.031010204041351
0
LWPOLYLINE
5
160
100
AcDbEntity
8
0
100
AcDbPolyline
90
8
70
1
43
0.0
10
188.23772640000004
20
45.531010204041365
42
-0.41421356237309503
10
188.73772640000004
20
45.031010204041365
10
188.73772640000004
20
32.031010204041351
42
-0.41421356237309503
10
188.23772640000004
20
31.531010204041348
10
175.23772640000007
20
31.531010204041348
42
-0.41421356237309503
10
174.73772640000007
20
32.031010204041351
10
174.73772640000007
20
45.031010204041365
42
-0.41421356237309503
10
175.23772640000007
20
45.531010204041358
0
LWPOLYLINE
5
161
100
AcDbEntity
8
0
100
AcDbPolyline
90
8
70
1
43
0.0
10
241.41272640000008
20
32.031010204041351
10
241.41272640000008
20
45.031010204041365
42
-0.41421356237309503
10
241.91272640000008
20
45.531010204041358
10
254.91272640000008
20
45.531010204041365
42
-0.41421356237309503
10
255.41272640000011
20
45.031010204041365
10
255.41272640000011
20
32.031010204041351
42
-0.41421356237309503
10
254.91272640000008
20
31.531010204041365
10
241.91272640000008
20
31.531010204041348
42
-0.41421356237309503
0
LWPOLYLINE
5
162
100
AcDbEntity
8
0
100
AcDbPolyline
90
10
70
1
43
0.0
10
89.487726400000071
20
46.531010204041365
42
-0.41421356237309503
10
89.987726400000071
20
46.031010204041358
10
89.987726400000057
20
45.031010204041365
10
89.987726400000057
20
32.031010204041351
42
-0.41421356237308982
10
89.487726400000042
20
31.531010204041358
10
83.487726400000071
20
31.531010204041365
42
-0.41421356237310025
10
82.987726400000085
20
32.031010204041365
10
82.987726400000071
20
45.031010204041365
10
82.987726400000071
20
46.031010204041358
42
-0.41421356237309503
10
83.487726400000057
20
46.531010204041358
0
LWPOLYLINE
5
163
100
AcDbEntity
8
0
100
AcDbPolyline
90
8
70
1
43
0.0
10
159.18772640000009
20
46.031010204041358
42
-0.41421356237309503
10
159.68772640000009
20
46.531010204041358
10
165.68772640000009
20
46.53101020404133
42
-0.41421356237309503
10
166.18772640000006
20
46.031010204041358
10
166.18772640000009
20
32.031010204041351
42
-0.41421356237309503
10
165.68772640000009
20
31.531010204041348
10
159.68772640000009
20
31.531010204041348
42
-0.41421356237309503
10
159.18772640000009
20
32.031010204041351
0
LWPOLYLINE
5
164
100
AcDbEntity
8
0
100
AcDbPolyline
90
10
70
1
43
0.0
10
197.28772640000005
20
46.031010204041358
42
-0.41421356237309503
10
197.78772640000005
20
46.531010204041358
10
203.78772640000008
20
46.531010204041365
42
-0.41421356237309503
10
204.28772640000008
20
46.031010204041358
10
204.28772640000008
20
45.031010204041365
10
204.28772640000008
20
32.031010204041351
42
-0.41421356237309764
10
203.78772640000008
20
31.531010204041358
10
197.78772640000011
20
31.531010204041383
42
-0.41421356237310025
10
197.28772640000014
20
32.031010204041365
10
197.28772640000011
20
45.031010204041365
0
LWPOLYLINE
5
165
100
AcDbEntity
8
0
100
AcDbPolyline
90
8
70
1
43
0.0
10
17.287461400000062
20
108.48171020404136
42
-0.41421356237310197
10
16.537461400000069
20
107.73171020404135
10
4.03662140000006
20
107.73171020404135
42
-0.4142135623730942
10
3.2866214000000693
20
108.48171020404135
10
3.2866214000000706
20
120.98101020404137
42
-0.41421356237309503
10
4.0366214000000644
20
121.73101020404135
10
16.537461400000069
20
121.73101020404135
42
-0.41421356237310114
10
17.287461400000069
20
120.98101020404135
0
LINE
5
166
100
AcDbEntity
8
0
100
AcDbLine
10
4.4510614000000626
20
69.930510204041354
30
0
11
0.95084600000006292
21
69.930510204041354
31
0
0
LINE
5
167
100
AcDbEntity
8
0
100
AcDbLine
10
0.95084600000006292
20
69.930510204041354
30
0
11
0.9508460000000627
21
119.09291020404135
31
0
0
ARC
5
168
100
AcDbEntity
8
0
100
AcDbCircle
10
5.9508460000000625
20
119.09291020404135
30
0
40
5.0000000000000178
210
0
220
-0
230
1
100
AcDbArc
50
89.999999999999972
51
180
0
ARC
5
169
100
AcDbEntity
8
0
100
AcDbCircle
10
281.32476140000006
20
119.09291020404132
30
0
40
5.0000000000000355
210
0
220
-0
230
1
100
AcDbArc
50
0
51
90
0
LINE
5
170
100
AcDbEntity
8
0
100
AcDbLine
10
286.32476140000006
20
119.09291020404135
30
0
11
286.32476140000006
21
69.930510204041354
31
0
0
LINE
5
171
100
AcDbEntity
8
0
100
AcDbLine
10
286.32476140000006
20
69.930510204041354
30
0
11
282.82476140000006
21
69.930510204041354
31
0
0
LINE
5
172
100
AcDbEntity
8
0
100
AcDbLine
10
5.950846000000066
20
124.09291020404137
30
0
11
281.32476140000006
21
124.09291020404135
31
0
0
LINE
5
173
100
AcDbEntity
8
0
100
AcDbLine
10
282.82476140000006
20
64.931010204041343
30
0
11
286.32476140000006
21
64.931010204041343
31
0
0
LINE
5
174
100
AcDbEntity
8
0
100
AcDbLine
10
286.32476140000006
20
64.931010204041343
30
0
11
286.32476140000006
21
34.166865204041351
31
0
0
ARC
5
175
100
AcDbEntity
8
0
100
AcDbCircle
10
281.32476140000006
20
34.166865204041351
30
0
40
5
210
-0
220
0
230
1
100
AcDbArc
50
-90
51
0
0
LINE
5
176
100
AcDbEntity
8
0
100
AcDbLine
10
281.32476140000006
20
29.166865204041347
30
0
11
5.9508460000000696
21
29.166865204041347
31
0
0
ARC
5
177
100
AcDbEntity
8
0
100
AcDbCircle
10
5.9508460000000714
20
34.166865204041351
30
0
40
5
210
0
220
0
230
1
100
AcDbArc
50
180
51
270
0
LINE
5
178
100
AcDbEntity
8
0
100
AcDbLine
10
0.9508460000000718
20
34.166865204041351
30
0
11
0.9508460000000627
21
64.931010204041343
31
0
0
LINE
5
179
100
AcDbEntity
8
0
100
AcDbLine
10
0.9508460000000627
20
64.931010204041343
30
0
11
4.4496814000000633
21
64.931010204041343
31
0
0
ARC
5
180
100
AcDbEntity
8
0
100
AcDbCircle
10
4.4503714000000674
20
67.430760204041349
30
0
40
2.4974999999999969
210
0
220
0
230
1
100
AcDbArc
50
-90.000000000000099
51
89.999999999999901
0
ARC
5
181
100
AcDbEntity
8
0
100
AcDbCircle
10
282.82476140000006
20
67.430760204041349
30
0
40
2.4974999999999969
210
0
220
-0
230
1
100
AcDbArc
50
90
51
270
0
LWPOLYLINE
5
182
100
AcDbEntity
8
0
100
AcDbPolyline
90
20
70
1
43
0.0
10
261.18776140000011
20
98.530610204041338
10
261.95976140000016
20
98.409210204041358
10
262.65676140000005
20
98.053610204041348
10
263.20976140000016
20
97.501210204041342
10
263.56376140000003
20
96.803710204041352
10
263.68776140000011
20
96.029410204041341
10
263.56376140000003
20
95.258910204041342
10
263.20976140000016
20
94.561810204041336
10
262.65676140000005
20
94.009010204041346
10
261.95976140000016
20
93.653410204041336
10
261.18776140000011
20
93.529610204041347
10
260.41476140000009
20
93.653410204041336
10
259.71776140000009
20
94.009010204041346
10
259.16476140000009
20
94.561810204041336
10
258.80976140000007
20
95.258910204041342
10
258.68676140000002
20
96.029410204041341
10
258.80976140000007
20
96.803710204041352
10
259.16476140000009
20
97.501210204041357
10
259.71776140000009
20
98.053610204041348
10
260.41476140000009
20
98.409210204041358
0
LWPOLYLINE
5
183
100
AcDbEntity
8
0
100
AcDbPolyline
90
20
70
1
43
0.0
10
24.868061400000062
20
98.053610204041348
10
25.563961400000068
20
98.409210204041358
10
26.338461400000067
20
98.530610204041352
10
27.110161400000067
20
98.409210204041358
10
27.807461400000065
20
98.053610204041348
10
28.358661400000067
20
97.501210204041342
10
28.715561400000066
20
96.803710204041352
10
28.836861400000068
20
96.029410204041341
10
28.715561400000066
20
95.258910204041342
10
28.358661400000067
20
94.561810204041336
10
27.807461400000065
20
94.009010204041346
10
27.110161400000067
20
93.653410204041336
10
26.338461400000067
20
93.529610204041347
10
25.563961400000068
20
93.653410204041336
10
24.868061400000062
20
94.009010204041346
10
24.314061400000067
20
94.561810204041336
10
23.959961400000065
20
95.258910204041342
10
23.838661400000063
20
96.029410204041341
10
23.959961400000065
20
96.803710204041352
10
24.314061400000067
20
97.501210204041357
0
LWPOLYLINE
5
184
100
AcDbEntity
8
0
100
AcDbPolyline
90
20
70
1
43
0.0
10
130.11076140000006
20
74.252110204041344
10
129.33876140000007
20
74.129610204041342
10
128.56576140000007
20
74.252110204041344
10
127.86776140000006
20
74.609110204041357
10
127.31576140000007
20
75.160110204041345
10
126.95876140000007
20
75.859010204041354
10
126.83876140000007
20
76.629410204041349
10
126.95876140000007
20
77.403810204041349
10
127.31576140000007
20
78.099410204041348
10
127.86776140000006
20
78.653710204041346
10
128.56576140000007
20
79.009310204041356
10
129.33876140000007
20
79.128910204041347
10
130.11076140000006
20
79.009310204041356
10
130.80776140000006
20
78.653710204041346
10
131.35976140000005
20
78.099410204041348
10
131.71476140000007
20
77.403810204041349
10
131.83876140000007
20
76.629410204041349
10
131.71476140000007
20
75.859010204041354
10
131.35976140000005
20
75.160110204041345
10
130.80776140000006
20
74.609110204041357
0
LWPOLYLINE
5
185
100
AcDbEntity
8
0
100
AcDbPolyline
90
20
70
1
43
0.0
10
190.1686598050517
20
41.154166617919159
10
190.86565980505171
20
41.509766617919155
10
191.63865980505167
20
41.631166617919142
10
192.41065980505167
20
41.509766617919155
10
193.10765980505158
20
41.154166617919145
10
193.66065980505167
20
40.601766617919154
10
194.01465980505156
20
39.904266617919141
10
194.13865980505162
20
39.129966617919159
10
194.01465980505156
20
38.359466617919161
10
193.66065980505164
20
37.662366617919155
10
193.10765980505155
20
37.109566617919171
10
192.41065980505158
20
36.753966617919176
10
191.63865980505162
20
36.630166617919173
10
190.86565980505162
20
36.753966617919176
10
190.16865980505162
20
37.109566617919185
10
189.61565980505162
20
37.662366617919176
10
189.26065980505169
20
38.359466617919182
10
189.13765980505164
20
39.129966617919173
10
189.26065980505169
20
39.904266617919163
10
189.61565980505171
20
40.601766617919154
0
ENDSEC
0
SECTION
2
OBJECTS
0
DICTIONARY
5
C
100
AcDbDictionary
3
ACAD_GROUP
350
D
3
ACAD_MLINESTYLE
350
17
0
DICTIONARY
5
D
100
AcDbDictionary
0
DICTIONARY
5
1A
330
C
100
AcDbDictionary
0
DICTIONARY
5
17
100
AcDbDictionary
0
ENDSEC
0
EOF
