0
SECTION
2
HEADER
9
$INSUNITS
70
4
9
$ACADVER
1
AC1014
9
$HANDSEED
5
FFFF
0
ENDSEC
0
SECTION
2
TABLES
0
TABLE
2
VPORT
5
8
100
AcDbSymbolTable
0
ENDTAB
0
TABLE
2
LTYPE
5
5
100
AcDbSymbolTable
0
LTYPE
5
14
100
AcDbSymbolTableRecord
100
AcDbLinetypeTableRecord
2
BYBLOCK
70
0
0
LTYPE
5
15
100
AcDbSymbolTableRecord
100
AcDbLinetypeTableRecord
2
BYLAYER
70
0
0
ENDTAB
0
TABLE
2
LAYER
5
2
100
AcDbSymbolTable
70
2
0
LAYER
5
50
100
AcDbSymbolTableRecord
100
AcDbLayerTableRecord
2
0
70
0
6
CONTINUOUS
0
ENDTAB
0
TABLE
2
STYLE
5
3
100
AcDbSymbolTable
70
1
0
STYLE
5
11
100
AcDbSymbolTableRecord
100
AcDbTextStyleTableRecord
2
STANDARD
70
0
0
ENDTAB
0
TABLE
2
VIEW
5
6
100
AcDbSymbolTable
70
0
0
ENDTAB
0
TABLE
2
UCS
5
7
100
AcDbSymbolTable
70
0
0
ENDTAB
0
TABLE
2
APPID
5
9
100
AcDbSymbolTable
70
2
0
APPID
5
12
100
AcDbSymbolTableRecord
100
AcDbRegAppTableRecord
2
ACAD
70
0
0
ENDTAB
0
TABLE
2
DIMSTYLE
5
A
100
AcDbSymbolTable
70
1
0
ENDTAB
0
TABLE
2
BLOCK_RECORD
5
1
100
AcDbSymbolTable
70
1
0
BLOCK_RECORD
5
1F
100
AcDbSymbolTableRecord
100
AcDbBlockTableRecord
2
*MODEL_SPACE
0
BLOCK_RECORD
5
1B
100
AcDbSymbolTableRecord
100
AcDbBlockTableRecord
2
*PAPER_SPACE
0
ENDTAB
0
ENDSEC
0
SECTION
2
BLOCKS
0
BLOCK
5
20
100
AcDbEntity
100
AcDbBlockBegin
2
*MODEL_SPACE
0
ENDBLK
5
21
100
AcDbEntity
100
AcDbBlockEnd
0
BLOCK
5
1C
100
AcDbEntity
100
AcDbBlockBegin
2
*PAPER_SPACE
0
ENDBLK
5
1D
100
AcDbEntity
100
AcDbBlockEnd
0
ENDSEC
0
SECTION
2
ENTITIES
0
LWPOLYLINE
5
100
100
AcDbEntity
8
0
100
AcDbPolyline
90
44
70
1
43
0.0
10
41.298385215647777
20
-130.69388168574795
42
-2.413738356493623
10
43.153277493931881
20
-130.69388168574793
42
0.81860938055791788
10
43.261821338646307
20
-130.85715355283591
42
0.25887815940719827
10
44.925537833103832
20
-128.78403719679736
10
106.22612336326293
20
-128.78403719679744
42
0.41421356237309503
10
107.22612336326293
20
-127.78403719679744
10
107.22612336326272
20
-91.240046306635705
42
0.32668832741616183
10
110.28679211979947
20
-88.995102254444944
42
0.80721634030133405
10
110.1170349301036
20
-88.898135612157105
42
-2.6866769713423562
10
110.14792746196983
20
-87.262517148636206
42
0.80721634030131162
10
110.32122516253862
20
-87.172029911151938
42
0.33717129907529592
10
107.22612336326293
20
-84.810658170787292
10
107.22612336326293
20
-51.834038931292561
42
0.41421356237312362
10
106.22612336326293
20
-50.834038931292568
10
45.225212270564434
20
-50.834038931292547
42
0.35707647577458812
10
43.097277025274423
20
-47.597373823257385
42
0.85959279196592431
10
43.053918177055721
20
-47.686225117015617
42
-3.3574211709919535
10
41.461106191019901
20
-47.645190158805249
42
0.85959279196599903
10
41.422379902068158
20
-47.554224139515718
42
0.37166486161591056
10
39.142971973779446
20
-50.834038931292582
10
-54.811074233923456
20
-50.834038931292575
42
0.35384284674196981
10
-57.045906485369272
20
-47.551409603733141
42
0.84930767347819036
10
-57.089316661669699
20
-47.640029304754769
42
-3.0800547039692638
10
-58.882543824079818
20
-47.657532917509791
42
0.8493076734783862
10
-58.927675590569358
20
-47.569777470561256
42
0.3483609067052284
10
-61.103680347761482
20
-50.834038931292589
10
-121.87387149360127
20
-50.834038931292589
42
0.41421356237308721
10
-122.87387149360129
20
-51.834038931292596
10
-122.87387149360129
20
-84.875589490617372
42
0.35026175998451814
10
-126.15812757426177
20
-87.136199911713703
42
0.81861474598961104
10
-125.98541088985279
20
-87.228981996513994
42
-2.7118002314286938
10
-125.95948070632572
20
-88.980936462131666
42
0.81861474598943818
10
-126.12937585486419
20
-89.078789447963459
42
0.34197543312458295
10
-122.87387149360129
20
-91.249313351646038
10
-122.8738714936014
20
-127.78403719679741
42
0.414213562373069
10
-121.87387149360129
20
-128.78403719679739
10
-60.673872883879561
20
-128.78403719679739
42
0.26453714062823719
10
-59.014603612051211
20
-130.85519343098571
42
0.82707121839427511
10
-58.90911136926961
20
-130.68947256803582
42
-2.4929721774717297
10
-57.104510810796342
20
-130.67621011447551
42
0.82707121839435471
10
-56.996594247725668
20
-130.84036258359802
42
0.26060923909500072
10
-55.373873002343913
20
-128.78403719679739
10
39.526124876475819
20
-128.78403719679741
42
0.25887815940720155
10
41.189841370933408
20
-130.85715355283594
42
0.81860938055765775
0
LWPOLYLINE
5
101
100
AcDbEntity
8
0
100
AcDbPolyline
90
8
70
1
43
0.0
10
13.665493218336792
20
-67.006281152766235
10
13.665493218336803
20
-54.006281152766242
42
-0.41421356237309503
10
14.165493218336799
20
-53.506281152766242
10
27.165493218336771
20
-53.506281152766235
42
-0.41421356237309503
10
27.665493218336778
20
-54.006281152766242
10
27.665493218336771
20
-67.006281152766235
42
-0.41421356237309503
10
27.165493218336771
20
-67.506281152766235
10
14.165493218336799
20
-67.506281152766235
42
-0.41421356237309503
0
LWPOLYLINE
5
102
100
AcDbEntity
8
0
100
AcDbPolyline
90
8
70
1
43
0.0
10
8.6154932183367841
20
-67.006281152766235
10
8.6154932183367841
20
-54.006281152766242
42
0.41421356237309503
10
8.1154932183367769
20
-53.506281152766242
10
-4.884506781663176
20
-53.506281152766242
42
0.41421356237309503
10
-5.3845067816631831
20
-54.006281152766242
10
-5.3845067816631831
20
-67.006281152766235
42
0.41421356237309503
10
-4.884506781663176
20
-67.506281152766235
10
8.1154932183367769
20
-67.506281152766235
42
0.41421356237309503
0
LWPOLYLINE
5
103
100
AcDbEntity
8
0
100
AcDbPolyline
90
8
70
1
43
0.0
10
8.1154932183367769
20
-86.556281152766218
10
-4.884506781663176
20
-86.556281152766218
42
-0.41421356237309503
10
-5.3845067816631831
20
-86.056281152766218
10
-5.3845067816631653
20
-73.056281152766218
42
-0.41421356237309503
10
-4.884506781663176
20
-72.556281152766232
10
8.1154932183367769
20
-72.556281152766218
42
-0.41421356237309503
10
8.6154932183367841
20
-73.056281152766218
10
8.6154932183367841
20
-86.056281152766218
42
-0.41421356237309503
0
LWPOLYLINE
5
104
100
AcDbEntity
8
0
100
AcDbPolyline
90
8
70
1
43
0.0
10
-10.434506781663174
20
-67.006281152766235
10
-10.434506781663174
20
-54.006281152766242
42
0.41421356237309503
10
-10.934506781663181
20
-53.506281152766242
10
-23.934506781663188
20
-53.506281152766242
42
0.41421356237309503
10
-24.434506781663195
20
-54.006281152766242
10
-24.434506781663195
20
-67.006281152766235
42
0.41421356237309503
10
-23.934506781663188
20
-67.506281152766235
10
-10.934506781663181
20
-67.506281152766235
42
0.41421356237309503
0
LWPOLYLINE
5
105
100
AcDbEntity
8
0
100
AcDbPolyline
90
8
70
1
43
0.0
10
13.665493218336792
20
-86.056281152766218
10
13.66549321833681
20
-73.056281152766218
42
-0.41421356237309503
10
14.165493218336799
20
-72.556281152766232
10
27.165493218336771
20
-72.556281152766218
42
-0.41421356237309503
10
27.665493218336778
20
-73.056281152766218
10
27.665493218336778
20
-86.056281152766218
42
-0.41421356237309503
10
27.165493218336771
20
-86.556281152766218
10
14.165493218336799
20
-86.556281152766218
42
-0.41421356237309503
0
LWPOLYLINE
5
106
100
AcDbEntity
8
0
100
AcDbPolyline
90
8
70
1
43
0.0
10
-10.434506781663174
20
-86.056281152766218
42
-0.41421356237309503
10
-10.934506781663181
20
-86.556281152766218
10
-23.934506781663188
20
-86.556281152766203
42
-0.41421356237309503
10
-24.434506781663178
20
-86.056281152766218
10
-24.434506781663178
20
-73.056281152766218
42
-0.41421356237309503
10
-23.934506781663188
20
-72.556281152766232
10
-10.934506781663181
20
-72.556281152766218
42
-0.41421356237309503
10
-10.434506781663174
20
-73.056281152766218
0
LWPOLYLINE
5
107
100
AcDbEntity
8
0
100
AcDbPolyline
90
8
70
1
43
0.0
10
-105.68450678166315
20
-105.1062811527662
10
-105.68450678166315
20
-92.106281152766201
42
0.41421356237309503
10
-106.18450678166313
20
-91.606281152766215
10
-119.18450678166312
20
-91.606281152766215
42
0.41421356237309503
10
-119.68450678166313
20
-92.106281152766201
10
-119.68450678166313
20
-105.1062811527662
42
0.41421356237309503
10
-119.18450678166312
20
-105.60628115276621
10
-106.18450678166313
20
-105.60628115276621
42
0.41421356237309503
0
LWPOLYLINE
5
108
100
AcDbEntity
8
0
100
AcDbPolyline
90
8
70
1
43
0.0
10
-100.63450678166312
20
-54.006281152766235
42
-0.41421356237309503
10
-100.13450678166313
20
-53.506281152766242
10
-87.134506781663134
20
-53.506281152766242
42
-0.41421356237309503
10
-86.634506781663148
20
-54.006281152766235
10
-86.634506781663134
20
-67.006281152766235
42
-0.41421356237309503
10
-87.134506781663134
20
-67.506281152766235
10
-100.13450678166313
20
-67.506281152766235
42
-0.41421356237309503
10
-100.63450678166313
20
-67.006281152766235
0
LWPOLYLINE
5
109
100
AcDbEntity
8
0
100
AcDbPolyline
90
8
70
1
43
0.0
10
-100.63450678166312
20
-73.056281152766218
42
-0.41421356237309503
10
-100.13450678166313
20
-72.556281152766232
10
-87.134506781663134
20
-72.556281152766232
42
-0.41421356237309503
10
-86.634506781663148
20
-73.056281152766218
10
-86.634506781663134
20
-86.056281152766218
42
-0.41421356237309503
10
-87.134506781663134
20
-86.556281152766218
10
-100.13450678166313
20
-86.556281152766218
42
-0.41421356237309503
10
-100.63450678166313
20
-86.056281152766218
0
LWPOLYLINE
5
110
100
AcDbEntity
8
0
100
AcDbPolyline
90
8
70
1
43
0.0
10
-29.484506781663168
20
-86.056281152766218
42
-0.41421356237309503
10
-29.984506781663175
20
-86.556281152766218
10
-42.984506781663185
20
-86.556281152766203
42
-0.41421356237309503
10
-43.484506781663171
20
-86.056281152766218
10
-43.484506781663185
20
-73.056281152766218
42
-0.41421356237309503
10
-42.984506781663185
20
-72.556281152766232
10
-29.984506781663175
20
-72.556281152766218
42
-0.41421356237309503
10
-29.484506781663168
20
-73.056281152766218
0
LWPOLYLINE
5
111
100
AcDbEntity
8
0
100
AcDbPolyline
90
8
70
1
43
0.0
10
46.215493218336775
20
-72.556281152766232
10
33.215493218336796
20
-72.556281152766232
42
0.41421356237309503
10
32.715493218336789
20
-73.056281152766218
10
32.715493218336789
20
-86.056281152766218
42
0.41421356237309503
10
33.215493218336796
20
-86.556281152766218
10
46.215493218336775
20
-86.556281152766218
42
0.41421356237309503
10
46.715493218336789
20
-86.056281152766218
10
46.715493218336789
20
-73.056281152766218
42
0.41421356237309503
0
LWPOLYLINE
5
112
100
AcDbEntity
8
0
100
AcDbPolyline
90
8
70
1
43
0.0
10
-29.984506781663175
20
-53.506281152766235
42
-0.41421356237309503
10
-29.484506781663168
20
-54.006281152766242
10
-29.484506781663175
20
-67.006281152766235
42
-0.41421356237309503
10
-29.984506781663175
20
-67.506281152766235
10
-42.984506781663185
20
-67.506281152766221
42
-0.41421356237309503
10
-43.484506781663171
20
-67.006281152766235
10
-43.484506781663185
20
-54.006281152766242
42
-0.41421356237309503
10
-42.984506781663185
20
-53.506281152766242
0
LWPOLYLINE
5
113
100
AcDbEntity
8
0
100
AcDbPolyline
90
8
70
1
43
0.0
10
-68.084506781663151
20
-72.556281152766232
10
-81.084506781663151
20
-72.556281152766232
42
0.41421356237309503
10
-81.584506781663165
20
-73.056281152766218
10
-81.584506781663165
20
-86.056281152766218
42
0.41421356237309503
10
-81.084506781663151
20
-86.556281152766218
10
-68.084506781663151
20
-86.556281152766218
42
0.41421356237309503
10
-67.584506781663151
20
-86.056281152766218
10
-67.584506781663151
20
-73.056281152766218
42
0.41421356237309503
0
LWPOLYLINE
5
114
100
AcDbEntity
8
0
100
AcDbPolyline
90
8
70
1
43
0.0
10
46.215493218336775
20
-53.506281152766242
10
33.215493218336796
20
-53.506281152766242
42
0.41421356237309503
10
32.715493218336789
20
-54.006281152766242
10
32.715493218336789
20
-67.006281152766235
42
0.41421356237309503
10
33.215493218336796
20
-67.506281152766235
10
46.215493218336775
20
-67.506281152766235
42
0.41421356237309503
10
46.715493218336789
20
-67.006281152766235
10
46.715493218336789
20
-54.006281152766242
42
0.41421356237309503
0
LWPOLYLINE
5
115
100
AcDbEntity
8
0
100
AcDbPolyline
90
8
70
1
43
0.0
10
-68.084506781663151
20
-53.506281152766242
10
-81.084506781663151
20
-53.506281152766242
42
0.41421356237309503
10
-81.584506781663165
20
-54.006281152766235
10
-81.584506781663165
20
-67.006281152766235
42
0.41421356237309503
10
-81.084506781663151
20
-67.506281152766235
10
-68.084506781663151
20
-67.506281152766235
42
0.41421356237309503
10
-67.584506781663151
20
-67.006281152766235
10
-67.584506781663151
20
-54.006281152766235
42
0.41421356237309503
0
LWPOLYLINE
5
116
100
AcDbEntity
8
0
100
AcDbPolyline
90
8
70
1
43
0.0
10
65.265493218336715
20
-72.556281152766232
10
52.265493218336786
20
-72.556281152766232
42
0.41421356237309503
10
51.765493218336772
20
-73.056281152766218
10
51.765493218336772
20
-86.056281152766218
42
0.41421356237309503
10
52.265493218336786
20
-86.556281152766218
10
65.265493218336715
20
-86.556281152766218
42
0.41421356237309503
10
65.765493218336729
20
-86.056281152766218
10
65.765493218336729
20
-73.056281152766218
42
0.41421356237309503
0
LWPOLYLINE
5
117
100
AcDbEntity
8
0
100
AcDbPolyline
90
8
70
1
43
0.0
10
84.315493218336769
20
-72.556281152766232
10
71.315493218336755
20
-72.556281152766232
42
0.41421356237309503
10
70.815493218336755
20
-73.056281152766218
10
70.815493218336755
20
-86.056281152766218
42
0.41421356237309503
10
71.315493218336755
20
-86.556281152766218
10
84.315493218336769
20
-86.556281152766218
42
0.41421356237309503
10
84.815493218336741
20
-86.056281152766218
10
84.815493218336741
20
-73.056281152766218
42
0.41421356237309503
0
LWPOLYLINE
5
118
100
AcDbEntity
8
0
100
AcDbPolyline
90
8
70
1
43
0.0
10
84.315493218336769
20
-67.506281152766235
10
71.315493218336755
20
-67.506281152766235
42
-0.41421356237309503
10
70.815493218336755
20
-67.006281152766235
10
70.815493218336755
20
-54.006281152766242
42
-0.41421356237309503
10
71.315493218336755
20
-53.506281152766242
10
84.315493218336769
20
-53.506281152766235
42
-0.41421356237309503
10
84.815493218336769
20
-54.006281152766242
10
84.815493218336755
20
-67.006281152766235
42
-0.41421356237309503
0
LWPOLYLINE
5
119
100
AcDbEntity
8
0
100
AcDbPolyline
90
8
70
1
43
0.0
10
-48.534506781663183
20
-86.056281152766218
10
-48.534506781663183
20
-73.056281152766218
42
0.41421356237309503
10
-49.034506781663168
20
-72.556281152766232
10
-62.034506781663161
20
-72.556281152766232
42
0.41421356237309503
10
-62.534506781663154
20
-73.056281152766218
10
-62.534506781663154
20
-86.056281152766218
42
0.41421356237309503
10
-62.034506781663161
20
-86.556281152766218
10
-49.034506781663168
20
-86.556281152766218
42
0.41421356237309503
0
LWPOLYLINE
5
120
100
AcDbEntity
8
0
100
AcDbPolyline
90
8
70
1
43
0.0
10
52.265493218336786
20
-67.506281152766235
42
-0.41421356237309503
10
51.765493218336772
20
-67.006281152766235
10
51.765493218336786
20
-54.006281152766242
42
-0.41421356237309503
10
52.265493218336786
20
-53.506281152766242
10
65.265493218336715
20
-53.506281152766235
42
-0.41421356237309503
10
65.765493218336729
20
-54.006281152766242
10
65.765493218336715
20
-67.006281152766235
42
-0.41421356237309503
10
65.265493218336715
20
-67.506281152766235
0
LWPOLYLINE
5
121
100
AcDbEntity
8
0
100
AcDbPolyline
90
8
70
1
43
0.0
10
89.865493218336752
20
-54.006281152766242
42
-0.41421356237309503
10
90.365493218336738
20
-53.506281152766242
10
103.36549321833674
20
-53.506281152766235
42
-0.41421356237309503
10
103.86549321833675
20
-54.006281152766242
10
103.86549321833672
20
-67.006281152766235
42
-0.41421356237309503
10
103.36549321833674
20
-67.506281152766235
10
90.365493218336738
20
-67.506281152766249
42
-0.41421356237309503
10
89.865493218336724
20
-67.006281152766235
0
LWPOLYLINE
5
122
100
AcDbEntity
8
0
100
AcDbPolyline
90
8
70
1
43
0.0
10
-105.68450678166313
20
-86.056281152766218
10
-105.68450678166313
20
-73.056281152766218
42
0.41421356237309503
10
-106.18450678166313
20
-72.556281152766232
10
-119.18450678166312
20
-72.556281152766232
42
0.41421356237309503
10
-119.68450678166313
20
-73.056281152766218
10
-119.68450678166313
20
-86.056281152766218
42
0.41421356237309503
10
-119.18450678166312
20
-86.556281152766218
10
-106.18450678166313
20
-86.556281152766218
42
0.41421356237309503
0
LWPOLYLINE
5
123
100
AcDbEntity
8
0
100
AcDbPolyline
90
8
70
1
43
0.0
10
103.36549321833674
20
-72.556281152766232
10
90.365493218336738
20
-72.556281152766232
42
0.41421356237309503
10
89.865493218336724
20
-73.056281152766218
10
89.865493218336724
20
-86.056281152766218
42
0.41421356237309503
10
90.365493218336738
20
-86.556281152766218
10
103.36549321833674
20
-86.556281152766218
42
0.41421356237309503
10
103.86549321833675
20
-86.056281152766218
10
103.86549321833675
20
-73.056281152766218
42
0.41421356237309503
0
LWPOLYLINE
5
124
100
AcDbEntity
8
0
100
AcDbPolyline
90
8
70
1
43
0.0
10
-119.68450678166313
20
-67.006281152766235
10
-119.68450678166312
20
-54.006281152766235
42
-0.41421356237309503
10
-119.18450678166312
20
-53.506281152766242
10
-106.18450678166313
20
-53.506281152766221
42
-0.41421356237309503
10
-105.68450678166313
20
-54.006281152766235
10
-105.68450678166315
20
-67.006281152766235
42
-0.41421356237309503
10
-106.18450678166313
20
-67.506281152766235
10
-119.18450678166312
20
-67.506281152766235
42
-0.41421356237309503
0
LWPOLYLINE
5
125
100
AcDbEntity
8
0
100
AcDbPolyline
90
8
70
1
43
0.0
10
-62.534506781663154
20
-54.006281152766235
42
-0.41421356237309503
10
-62.034506781663161
20
-53.506281152766242
10
-49.034506781663168
20
-53.506281152766249
42
-0.41421356237309503
10
-48.534506781663183
20
-54.006281152766242
10
-48.534506781663175
20
-67.006281152766235
42
-0.41421356237309503
10
-49.034506781663168
20
-67.506281152766235
10
-62.034506781663161
20
-67.506281152766221
42
-0.41421356237309503
10
-62.534506781663154
20
-67.006281152766235
0
LWPOLYLINE
5
126
100
AcDbEntity
8
0
100
AcDbPolyline
90
8
70
1
43
0.0
10
-100.63450678166312
20
-105.1062811527662
10
-100.63450678166313
20
-92.106281152766201
42
-0.41421356237309503
10
-100.13450678166313
20
-91.606281152766201
10
-87.13450678166312
20
-91.606281152766201
42
-0.41421356237309503
10
-86.63450678166312
20
-92.106281152766201
10
-86.63450678166312
20
-105.1062811527662
42
-0.41421356237309503
10
-87.13450678166312
20
-105.60628115276621
10
-100.13450678166313
20
-105.6062811527662
42
-0.41421356237309503
0
LWPOLYLINE
5
127
100
AcDbEntity
8
0
100
AcDbPolyline
90
8
70
1
43
0.0
10
-81.584506781663123
20
-105.1062811527662
10
-81.584506781663151
20
-92.106281152766201
42
-0.41421356237309503
10
-81.084506781663137
20
-91.606281152766201
10
-68.084506781663123
20
-91.606281152766201
42
-0.41421356237309503
10
-67.584506781663123
20
-92.106281152766201
10
-67.584506781663109
20
-105.1062811527662
42
-0.41421356237310025
10
-68.084506781663123
20
-105.60628115276621
10
-81.084506781663137
20
-105.6062811527662
42
-0.41421356237309503
0
LWPOLYLINE
5
128
100
AcDbEntity
8
0
100
AcDbPolyline
90
8
70
1
43
0.0
10
-62.534506781663126
20
-105.1062811527662
10
-62.534506781663133
20
-92.106281152766201
42
-0.41421356237309503
10
-62.034506781663126
20
-91.606281152766201
10
-49.034506781663126
20
-91.606281152766201
42
-0.41421356237309503
10
-48.534506781663126
20
-92.106281152766201
10
-48.534506781663119
20
-105.1062811527662
42
-0.41421356237309503
10
-49.034506781663126
20
-105.60628115276621
10
-62.034506781663126
20
-105.60628115276621
42
-0.41421356237309503
0
LWPOLYLINE
5
129
100
AcDbEntity
8
0
100
AcDbPolyline
90
8
70
1
43
0.0
10
-43.484506781663129
20
-105.1062811527662
10
-43.484506781663143
20
-92.106281152766201
42
-0.41421356237309503
10
-42.984506781663129
20
-91.606281152766201
10
-29.984506781663125
20
-91.606281152766215
42
-0.41421356237309503
10
-29.484506781663136
20
-92.106281152766201
10
-29.484506781663118
20
-105.1062811527662
42
-0.41421356237309503
10
-29.984506781663125
20
-105.60628115276621
10
-42.984506781663129
20
-105.60628115276621
42
-0.41421356237309503
0
LWPOLYLINE
5
130
100
AcDbEntity
8
0
100
AcDbPolyline
90
8
70
1
43
0.0
10
-24.434506781663128
20
-105.1062811527662
10
-24.434506781663128
20
-92.106281152766201
42
-0.41421356237309503
10
-23.934506781663121
20
-91.606281152766201
10
-10.934506781663114
20
-91.606281152766201
42
-0.41421356237309503
10
-10.434506781663107
20
-92.106281152766201
10
-10.434506781663107
20
-105.1062811527662
42
-0.41421356237309503
10
-10.934506781663114
20
-105.60628115276621
10
-23.934506781663121
20
-105.60628115276621
42
-0.41421356237309503
0
LWPOLYLINE
5
131
100
AcDbEntity
8
0
100
AcDbPolyline
90
8
70
1
43
0.0
10
-5.3845067816631165
20
-105.1062811527662
10
-5.3845067816631165
20
-92.106281152766201
42
-0.41421356237309503
10
-4.8845067816631094
20
-91.606281152766201
10
8.1154932183368622
20
-91.606281152766201
42
-0.41421356237309503
10
8.6154932183368693
20
-92.106281152766201
10
8.6154932183368693
20
-105.1062811527662
42
-0.41421356237309503
10
8.1154932183368622
20
-105.60628115276621
10
-4.8845067816631094
20
-105.60628115276621
42
-0.41421356237309503
0
LWPOLYLINE
5
132
100
AcDbEntity
8
0
100
AcDbPolyline
90
8
70
1
43
0.0
10
13.665493218336877
20
-105.1062811527662
10
13.665493218336877
20
-92.106281152766201
42
-0.41421356237309503
10
14.165493218336884
20
-91.606281152766201
10
27.165493218336874
20
-91.606281152766201
42
-0.41421356237309503
10
27.665493218336881
20
-92.106281152766201
10
27.665493218336881
20
-105.1062811527662
42
-0.41421356237309503
10
27.165493218336874
20
-105.60628115276621
10
14.165493218336884
20
-105.60628115276621
42
-0.41421356237309503
0
LWPOLYLINE
5
133
100
AcDbEntity
8
0
100
AcDbPolyline
90
8
70
1
43
0.0
10
32.715493218336889
20
-105.1062811527662
10
32.715493218336889
20
-92.106281152766201
42
-0.41421356237309503
10
33.215493218336896
20
-91.606281152766201
10
46.215493218336889
20
-91.606281152766201
42
-0.41421356237309503
10
46.715493218336889
20
-92.106281152766201
10
46.715493218336889
20
-105.1062811527662
42
-0.41421356237309503
10
46.215493218336889
20
-105.60628115276621
10
33.215493218336896
20
-105.60628115276621
42
-0.41421356237309503
0
LWPOLYLINE
5
134
100
AcDbEntity
8
0
100
AcDbPolyline
90
8
70
1
43
0.0
10
51.765493218336886
20
-105.1062811527662
10
51.765493218336886
20
-92.106281152766201
42
-0.41421356237309503
10
52.265493218336886
20
-91.606281152766201
10
65.265493218336857
20
-91.606281152766201
42
-0.41421356237309503
10
65.765493218336871
20
-92.106281152766201
10
65.765493218336871
20
-105.1062811527662
42
-0.41421356237309503
10
65.265493218336857
20
-105.60628115276621
10
52.265493218336886
20
-105.60628115276621
42
-0.41421356237309503
0
LWPOLYLINE
5
135
100
AcDbEntity
8
0
100
AcDbPolyline
90
8
70
1
43
0.0
10
70.815493218336897
20
-105.1062811527662
10
70.815493218336897
20
-92.106281152766201
42
-0.41421356237309503
10
71.315493218336897
20
-91.606281152766201
10
84.315493218336911
20
-91.606281152766201
42
-0.41421356237309503
10
84.815493218336911
20
-92.106281152766201
10
84.815493218336911
20
-105.1062811527662
42
-0.41421356237309503
10
84.315493218336911
20
-105.60628115276621
10
71.315493218336897
20
-105.60628115276621
42
-0.41421356237309503
0
LWPOLYLINE
5
136
100
AcDbEntity
8
0
100
AcDbPolyline
90
8
70
1
43
0.0
10
89.865493218336866
20
-105.1062811527662
10
89.865493218336866
20
-92.106281152766201
42
-0.41421356237309503
10
90.36549321833688
20
-91.606281152766201
10
103.36549321833688
20
-91.606281152766201
42
-0.41421356237309503
10
103.86549321833689
20
-92.106281152766201
10
103.86549321833689
20
-105.1062811527662
42
-0.41421356237309503
10
103.36549321833688
20
-105.60628115276621
10
90.36549321833688
20
-105.60628115276621
42
-0.41421356237309503
0
LWPOLYLINE
5
137
100
AcDbEntity
8
0
100
AcDbPolyline
90
8
70
1
43
0.0
10
85.102993218336877
20
-111.1562811527662
42
-0.41421356237309503
10
85.602993218336877
20
-110.65628115276621
10
100.98454321833687
20
-110.65628115276621
42
-0.41421356237309503
10
101.48454321833688
20
-111.15628115276621
10
101.48454321833685
20
-124.15628115276625
42
-0.41421356237307422
10
100.98454321833691
20
-124.65628115276624
10
85.602993218336877
20
-124.65628115276617
42
-0.41421356237309503
10
85.102993218336906
20
-124.1562811527662
0
LWPOLYLINE
5
138
100
AcDbEntity
8
0
100
AcDbPolyline
90
8
70
1
43
0.0
10
61.290493218336891
20
-124.1562811527662
10
61.290493218336906
20
-111.1562811527662
42
-0.41421356237309503
10
61.790493218336891
20
-110.65628115276621
10
74.790493218336906
20
-110.65628115276623
42
-0.41421356237309503
10
75.290493218336877
20
-111.1562811527662
10
75.290493218336906
20
-124.1562811527662
42
-0.41421356237309503
10
74.790493218336906
20
-124.65628115276621
10
61.790493218336891
20
-124.65628115276621
42
-0.41421356237309503
0
LINE
5
139
100
AcDbEntity
8
0
100
AcDbLine
10
35.096943218336833
20
-124.15628115276621
30
0
11
35.096943218336904
21
-111.15628115276621
31
0
0
ARC
5
140
100
AcDbEntity
8
0
100
AcDbCircle
10
35.596943218336818
20
-124.15628115276621
30
0
40
0.49999999999998934
210
0
220
0
230
1
100
AcDbArc
50
180
51
270.00000000000159
0
LINE
5
141
100
AcDbEntity
8
0
100
AcDbLine
10
50.977993218336891
20
-124.65628115276621
30
0
11
35.596943218336833
21
-124.65628115276621
31
0
0
ARC
5
142
100
AcDbEntity
8
0
100
AcDbCircle
10
50.977993218336891
20
-124.1562811527662
30
0
40
0.50000000000000711
210
-0
220
0
230
1
100
AcDbArc
50
-90
51
0
0
LINE
5
143
100
AcDbEntity
8
0
100
AcDbLine
10
51.477993218336891
20
-124.1562811527662
30
0
11
51.477993218336891
21
-111.1562811527662
31
0
0
ARC
5
144
100
AcDbEntity
8
0
100
AcDbCircle
10
50.977993218336891
20
-111.1562811527662
30
0
40
0.50000000000000711
210
0
220
-0
230
1
100
AcDbArc
50
0
51
90
0
LINE
5
145
100
AcDbEntity
8
0
100
AcDbLine
10
50.977993218336891
20
-110.65628115276618
30
0
11
35.596943218336904
21
-110.65628115276621
31
0
0
LWPOLYLINE
5
146
100
AcDbEntity
8
0
100
AcDbPolyline
90
10
70
1
43
0.0
10
27.981743218336863
20
-110.65628115276621
10
20.011743218336875
20
-110.65628115276621
10
4.6303432183368898
20
-110.65628115276621
10
-3.3396567816630984
20
-110.65628115276621
42
0.41421356237309503
10
-3.8396567816630967
20
-111.1562811527662
10
-3.8396567816631411
20
-124.15628115276621
42
0.4142135623730846
10
-3.339656781663134
20
-124.65628115276621
10
27.981743218336863
20
-124.6562811527663
42
0.41421356237309503
10
28.48174321833686
20
-124.1562811527663
10
28.48174321833687
20
-111.1562811527662
42
0.41421356237309503
0
LWPOLYLINE
5
147
100
AcDbEntity
8
0
100
AcDbPolyline
90
10
70
1
43
0.0
10
-12.489356781663137
20
-110.65628115276621
10
-20.459356781663125
20
-110.65628115276621
10
-35.84075678166311
20
-110.65628115276621
10
-43.810756781663116
20
-110.65628115276621
42
0.41421356237309503
10
-44.310756781663116
20
-111.1562811527662
10
-44.310756781663152
20
-124.15628115276621
42
0.41421356237309503
10
-43.810756781663152
20
-124.65628115276623
10
-12.489356781663137
20
-124.6562811527663
42
0.41421356237309503
10
-11.989356781663139
20
-124.1562811527663
10
-11.98935678166313
20
-111.1562811527662
42
0.41421356237309503
0
LWPOLYLINE
5
148
100
AcDbEntity
8
0
100
AcDbPolyline
90
8
70
1
43
0.0
10
-95.872006781663117
20
-111.1562811527662
42
-0.41421356237309503
10
-95.372006781663131
20
-110.65628115276621
10
-77.609456781663113
20
-110.65628115276621
42
-0.41421356237309503
10
-77.109456781663113
20
-111.15628115276621
10
-77.109456781663127
20
-124.15628115276625
42
-0.41421356237309503
10
-77.609456781663113
20
-124.65628115276624
10
-95.372006781663131
20
-124.65628115276618
42
-0.41421356237309503
10
-95.872006781663117
20
-124.1562811527662
0
LWPOLYLINE
5
149
100
AcDbEntity
8
0
100
AcDbPolyline
90
8
70
1
43
0.0
10
-119.68450678166312
20
-111.1562811527662
42
-0.41421356237309503
10
-119.18450678166312
20
-110.65628115276621
10
-103.80325678166312
20
-110.65628115276621
42
-0.41421356237309503
10
-103.30325678166311
20
-111.15628115276621
10
-103.30325678166312
20
-124.15628115276625
42
-0.41421356237309503
10
-103.80325678166312
20
-124.65628115276624
10
-119.18450678166312
20
-124.65628115276621
42
-0.41421356237309503
10
-119.68450678166313
20
-124.1562811527662
0
LWPOLYLINE
5
150
100
AcDbEntity
8
0
100
AcDbPolyline
90
8
70
1
43
0.0
10
-72.059506781663117
20
-111.1562811527662
42
-0.41421356237309503
10
-71.559506781663117
20
-110.65628115276621
10
-51.415656781663124
20
-110.65628115276621
42
-0.41421356237309503
10
-50.915656781663117
20
-111.15628115276621
10
-50.915656781663131
20
-124.15628115276625
42
-0.41421356237309503
10
-51.415656781663124
20
-124.65628115276624
10
-71.559506781663117
20
-124.65628115276618
42
-0.41421356237309503
10
-72.059506781663117
20
-124.1562811527662
0
ARC
5
151
100
AcDbEntity
8
0
100
AcDbCircle
10
35.596943218336904
20
-111.15628115276621
30
0
40
0.50000000000000711
210
0
220
-0
230
1
100
AcDbArc
50
90
51
180
0
ENDSEC
0
SECTION
2
OBJECTS
0
DICTIONARY
5
C
100
AcDbDictionary
3
ACAD_GROUP
350
D
3
ACAD_MLINESTYLE
350
17
0
DICTIONARY
5
D
100
AcDbDictionary
0
DICTIONARY
5
1A
330
C
100
AcDbDictionary
0
DICTIONARY
5
17
100
AcDbDictionary
0
ENDSEC
0
EOF
