0
SECTION
2
HEADER
9
$INSUNITS
70
4
9
$ACADVER
1
AC1014
9
$HANDSEED
5
FFFF
0
ENDSEC
0
SECTION
2
TABLES
0
TABLE
2
VPORT
5
8
100
AcDbSymbolTable
0
ENDTAB
0
TABLE
2
LTYPE
5
5
100
AcDbSymbolTable
0
LTYPE
5
14
100
AcDbSymbolTableRecord
100
AcDbLinetypeTableRecord
2
BYBLOCK
70
0
0
LTYPE
5
15
100
AcDbSymbolTableRecord
100
AcDbLinetypeTableRecord
2
BYLAYER
70
0
0
ENDTAB
0
TABLE
2
LAYER
5
2
100
AcDbSymbolTable
70
2
0
LAYER
5
50
100
AcDbSymbolTableRecord
100
AcDbLayerTableRecord
2
0
70
0
6
CONTINUOUS
0
ENDTAB
0
TABLE
2
STYLE
5
3
100
AcDbSymbolTable
70
1
0
STYLE
5
11
100
AcDbSymbolTableRecord
100
AcDbTextStyleTableRecord
2
STANDARD
70
0
0
ENDTAB
0
TABLE
2
VIEW
5
6
100
AcDbSymbolTable
70
0
0
ENDTAB
0
TABLE
2
UCS
5
7
100
AcDbSymbolTable
70
0
0
ENDTAB
0
TABLE
2
APPID
5
9
100
AcDbSymbolTable
70
2
0
APPID
5
12
100
AcDbSymbolTableRecord
100
AcDbRegAppTableRecord
2
ACAD
70
0
0
ENDTAB
0
TABLE
2
DIMSTYLE
5
A
100
AcDbSymbolTable
70
1
0
ENDTAB
0
TABLE
2
BLOCK_RECORD
5
1
100
AcDbSymbolTable
70
1
0
BLOCK_RECORD
5
1F
100
AcDbSymbolTableRecord
100
AcDbBlockTableRecord
2
*MODEL_SPACE
0
BLOCK_RECORD
5
1B
100
AcDbSymbolTableRecord
100
AcDbBlockTableRecord
2
*PAPER_SPACE
0
ENDTAB
0
ENDSEC
0
SECTION
2
BLOCKS
0
BLOCK
5
20
100
AcDbEntity
100
AcDbBlockBegin
2
*MODEL_SPACE
0
ENDBLK
5
21
100
AcDbEntity
100
AcDbBlockEnd
0
BLOCK
5
1C
100
AcDbEntity
100
AcDbBlockBegin
2
*PAPER_SPACE
0
ENDBLK
5
1D
100
AcDbEntity
100
AcDbBlockEnd
0
ENDSEC
0
SECTION
2
ENTITIES
0
LWPOLYLINE
5
100
100
AcDbEntity
8
0
100
AcDbPolyline
90
8
70
1
43
0.0
10
326.67680899999999
20
-154.78285300000005
10
313.67580900000002
20
-154.78285300000005
42
0.41421356237309503
10
313.17580899999996
20
-155.28285300000005
10
313.17580899999996
20
-168.28238300000004
42
0.41421356237309503
10
313.67580900000002
20
-168.78238300000004
10
326.67680899999999
20
-168.78238300000004
42
0.41421356237309503
10
327.17680900000005
20
-168.28238300000004
10
327.17680900000005
20
-155.28285300000005
42
0.41421356237309503
0
LWPOLYLINE
5
101
100
AcDbEntity
8
0
100
AcDbPolyline
90
8
70
1
43
0.0
10
350.98880900000006
20
-168.28238300000004
10
350.98880900000006
20
-155.28285300000005
42
0.41421356237309503
10
350.488809
20
-154.78285300000005
10
337.48980899999998
20
-154.78285300000005
42
0.41421356237309503
10
336.98980900000004
20
-155.28285300000005
10
336.98980900000004
20
-168.28238300000004
42
0.41421356237309503
10
337.48980899999998
20
-168.78238300000004
10
350.488809
20
-168.78238300000004
42
0.41421356237309503
0
LWPOLYLINE
5
102
100
AcDbEntity
8
0
100
AcDbPolyline
90
8
70
1
43
0.0
10
289.86480900000004
20
-168.78238300000004
10
302.86380900000006
20
-168.78238300000004
42
0.41421356237309503
10
303.363809
20
-168.28238300000004
10
303.363809
20
-155.28285300000005
42
0.41421356237309503
10
302.86380900000006
20
-154.78285300000005
10
289.86480900000009
20
-154.78285300000005
42
0.41421356237309503
10
289.36480900000004
20
-155.28285300000005
10
289.36480900000004
20
-168.2823830000001
42
0.41421356237309503
0
LWPOLYLINE
5
103
100
AcDbEntity
8
0
100
AcDbPolyline
90
32
70
1
43
0.0
10
164.75290899999999
20
-168.78238300000004
10
151.75220899999999
20
-168.78238300000004
42
-0.41421356237309503
10
151.25220899999999
20
-168.28238300000004
10
151.25220899999999
20
-155.28285300000005
42
-0.41421356237309503
10
151.75220899999999
20
-154.78285300000005
10
156.10310899999999
20
-154.78285300000005
10
160.40200900000002
20
-154.78285300000005
10
164.75290899999999
20
-154.78285299999999
42
-0.41421356237309503
10
165.25290900000002
20
-155.28285300000005
10
165.25290900000002
20
-159.06642111831252
10
170.302209
20
-159.06642111831252
10
170.30220899999995
20
-155.28285300000005
42
-0.4142135623730846
10
170.802209
20
-154.78285300000005
10
172.77680900000001
20
-154.78285300000005
10
177.076809
20
-154.78285300000005
10
193.826809
20
-154.78285300000005
10
194.20180899999997
20
-154.78285300000005
10
201.601809
20
-154.78285300000007
42
-0.41421356237309503
10
202.10180899999997
20
-155.28285300000005
10
202.10180899999997
20
-159.48205300000004
10
202.10180899999997
20
-164.08189300000004
10
202.10180899999997
20
-167.31203300000004
10
202.101809
20
-168.28238300000004
42
-0.41421356237309503
10
201.601809
20
-168.78238300000004
10
193.826809
20
-168.78238300000004
10
170.802209
20
-168.78238299999998
42
-0.41421356237309503
10
170.302209
20
-168.28238299999998
10
170.302209
20
-164.08189300000004
10
170.302209
20
-163.06652111831255
10
165.25290900000002
20
-163.06652111831255
10
165.25290900000002
20
-164.08189300000004
10
165.25290899999999
20
-168.28238300000004
42
-0.41421356237309503
0
LWPOLYLINE
5
104
100
AcDbEntity
8
0
100
AcDbPolyline
90
33
70
1
43
0.0
10
260.00280900000001
20
-168.78238300000004
10
236.976809
20
-168.78238300000004
10
229.20180899999997
20
-168.78238299999998
42
-0.41421356237309503
10
228.70180900000003
20
-168.28238300000004
10
228.70180900000003
20
-167.31203300000004
10
228.70180900000003
20
-164.08189300000004
10
228.70180900000003
20
-159.48205300000004
10
228.70180899999997
20
-155.28285300000005
42
-0.41421356237309503
10
229.20180899999997
20
-154.78285300000005
10
236.601809
20
-154.78285300000005
10
253.72780900000004
20
-154.78285300000005
10
258.02780900000005
20
-154.78285300000005
10
260.00280900000001
20
-154.78285300000005
42
-0.41421356237311585
10
260.50280899999996
20
-155.28285300000005
10
260.50280899999996
20
-159.06642111831252
10
263.40520361878924
20
-159.06642111831252
10
265.55080900000002
20
-159.06642111831252
10
265.55080899999996
20
-155.28285300000005
42
-0.41421356237313667
10
266.05080900000007
20
-154.78285300000005
10
270.40280899999999
20
-154.78285300000005
10
274.70080899999999
20
-154.78285300000005
10
279.05180900000005
20
-154.78285300000007
42
-0.41421356237309503
10
279.55180900000005
20
-155.28285300000005
10
279.55180900000005
20
-168.28238300000004
42
-0.41421356237309503
10
279.05180900000005
20
-168.78238300000004
10
266.05080899999996
20
-168.78238299999998
42
-0.41421356237309503
10
265.55080900000002
20
-168.28238300000004
10
265.55080900000002
20
-164.08189300000004
10
265.55080900000002
20
-163.06652111831255
10
263.40520361878924
20
-163.06652111831255
10
260.50280899999996
20
-163.06652111831255
10
260.50280899999996
20
-164.08189300000004
10
260.50280899999996
20
-168.28238300000007
42
-0.41421356237309503
0
LWPOLYLINE
5
105
100
AcDbEntity
8
0
100
AcDbPolyline
90
12
70
1
43
0.0
10
208.40180900000001
20
-168.28238300000004
10
208.40180900000001
20
-164.08189300000004
10
208.40180900000001
20
-159.48205300000004
10
208.40180900000004
20
-155.28285300000005
42
-0.41421356237309503
10
208.90180900000004
20
-154.78285300000005
10
221.90280899999999
20
-154.78285300000005
42
-0.41421356237309503
10
222.40280899999999
20
-155.28285300000005
10
222.40280899999999
20
-159.48205300000004
10
222.40280899999999
20
-164.08189300000004
10
222.40280899999999
20
-168.28238300000004
42
-0.41421356237309503
10
221.90280899999999
20
-168.78238300000004
10
208.90180900000004
20
-168.78238300000007
42
-0.41421356237309503
0
LWPOLYLINE
5
106
100
AcDbEntity
8
0
100
AcDbPolyline
90
8
70
1
43
0.0
10
117.126509
20
-154.78285300000005
10
104.12570899999999
20
-154.78285300000005
42
0.41421356237309503
10
103.62570899999997
20
-155.28285300000005
10
103.625709
20
-168.28238300000004
42
0.41421356237309503
10
104.12570899999999
20
-168.78238300000004
10
117.12650899999998
20
-168.78238300000004
42
0.41421356237309503
10
117.62650899999997
20
-168.28238300000004
10
117.62650899999997
20
-155.28285300000005
42
0.41421356237309503
0
LWPOLYLINE
5
107
100
AcDbEntity
8
0
100
AcDbPolyline
90
8
70
1
43
0.0
10
93.814008999999999
20
-168.28238300000004
10
93.814008999999999
20
-155.28285300000005
42
0.41421356237309503
10
93.314008999999984
20
-154.78285300000005
10
80.314538999999996
20
-154.78285300000005
42
0.41421356237309503
10
79.814538999999996
20
-155.28285300000005
10
79.814538999999996
20
-168.28238300000004
42
0.41421356237309503
10
80.314538999999996
20
-168.78238300000004
10
93.314008999999984
20
-168.78238300000004
42
0.41421356237309503
0
LWPOLYLINE
5
108
100
AcDbEntity
8
0
100
AcDbPolyline
90
8
70
1
43
0.0
10
127.43830899999999
20
-155.28285300000002
10
127.43830899999999
20
-168.28238300000004
42
0.41421356237309503
10
127.938309
20
-168.78238300000004
10
140.939009
20
-168.78238300000004
42
0.4142135623730846
10
141.439009
20
-168.28238300000004
10
141.439009
20
-155.28285300000002
42
0.41421356237309503
10
140.93900899999997
20
-154.78285300000005
10
127.938309
20
-154.78285300000005
42
0.41421356237309503
0
LWPOLYLINE
5
109
100
AcDbEntity
8
0
100
AcDbPolyline
90
8
70
1
43
0.0
10
88.551788999999985
20
-78.582953000000018
10
75.551788999999985
20
-78.582953000000018
42
0.4142135623730846
10
75.051788999999985
20
-79.082953000000003
10
75.051788999999985
20
-92.082953000000018
42
0.41421356237309503
10
75.551788999999985
20
-92.582953000000018
10
88.551788999999985
20
-92.582953000000018
42
0.41421356237306384
10
89.051788999999985
20
-92.082953000000018
10
89.051788999999985
20
-79.082953000000003
42
0.4142135623730846
0
LWPOLYLINE
5
110
100
AcDbEntity
8
0
100
AcDbPolyline
90
8
70
1
43
0.0
10
108.10178899999998
20
-92.082953000000018
10
108.101789
20
-79.082953000000003
42
0.4142135623730846
10
107.601789
20
-78.582953000000018
10
94.601788999999997
20
-78.582953000000018
42
0.4142135623730846
10
94.101788999999982
20
-79.082953000000003
10
94.101788999999982
20
-92.082953000000018
42
0.41421356237309503
10
94.601788999999997
20
-92.582953000000018
10
107.601789
20
-92.582953000000018
42
0.41421356237306384
0
LWPOLYLINE
5
111
100
AcDbEntity
8
0
100
AcDbPolyline
90
8
70
1
43
0.0
10
145.70178899999999
20
-78.582953000000018
10
132.70178899999999
20
-78.582953000000018
42
0.4142135623730846
10
132.20178899999999
20
-79.082953000000003
10
132.20178900000002
20
-92.082953000000018
42
0.41421356237309503
10
132.70178899999999
20
-92.582953000000018
10
145.70178899999999
20
-92.582953000000018
42
0.41421356237306384
10
146.20178899999999
20
-92.082953000000018
10
146.20178900000002
20
-79.082953000000003
42
0.4142135623730846
0
LWPOLYLINE
5
112
100
AcDbEntity
8
0
100
AcDbPolyline
90
8
70
1
43
0.0
10
126.65178900000001
20
-78.582953000000018
10
113.65178900000001
20
-78.582953000000018
42
0.4142135623730846
10
113.15178899999999
20
-79.082953000000003
10
113.15178899999999
20
-92.082953000000018
42
0.41421356237309503
10
113.65178900000001
20
-92.582953000000018
10
126.65178899999999
20
-92.582953000000018
42
0.41421356237307422
10
127.15178899999999
20
-92.082953000000018
10
127.15178899999999
20
-79.082953000000003
42
0.4142135623730846
0
LWPOLYLINE
5
113
100
AcDbEntity
8
0
100
AcDbPolyline
90
8
70
1
43
0.0
10
208.90178900000001
20
-92.58295300000006
42
-0.41421356237309503
10
208.40178899999998
20
-92.082953000000018
10
208.40178900000001
20
-79.082953000000003
42
-0.4142135623730846
10
208.90178900000001
20
-78.582953000000018
10
221.90178900000001
20
-78.582952999999975
42
-0.4142135623730846
10
222.40178900000004
20
-79.082953000000003
10
222.40178900000004
20
-92.082953000000018
42
-0.4142135623730846
10
221.90178900000001
20
-92.582953000000018
0
LWPOLYLINE
5
114
100
AcDbEntity
8
0
100
AcDbPolyline
90
8
70
1
43
0.0
10
151.25178899999997
20
-79.082953000000003
42
-0.4142135623730846
10
151.75178899999997
20
-78.582953000000018
10
164.75178899999997
20
-78.582953000000018
42
-0.4142135623730846
10
165.251789
20
-79.082953000000003
10
165.251789
20
-92.082953000000018
42
-0.41421356237306384
10
164.751789
20
-92.582953000000018
10
151.75178899999997
20
-92.582953000000003
42
-0.41421356237309503
10
151.251789
20
-92.082953000000018
0
LWPOLYLINE
5
115
100
AcDbEntity
8
0
100
AcDbPolyline
90
8
70
1
43
0.0
10
202.851789
20
-78.582952999999975
42
-0.4142135623730846
10
203.35178900000002
20
-79.082953000000003
10
203.35178900000002
20
-92.082953000000018
42
-0.4142135623730846
10
202.851789
20
-92.582953000000018
10
189.851789
20
-92.582953000000018
42
-0.41421356237309503
10
189.351789
20
-92.082953000000018
10
189.351789
20
-79.082953000000003
42
-0.4142135623730846
10
189.851789
20
-78.582953000000018
0
LWPOLYLINE
5
116
100
AcDbEntity
8
0
100
AcDbPolyline
90
8
70
1
43
0.0
10
183.80178900000001
20
-78.582953000000018
10
170.80178899999999
20
-78.582953000000018
42
0.4142135623730846
10
170.30178899999999
20
-79.082953000000003
10
170.30178899999999
20
-92.082953000000018
42
0.41421356237309503
10
170.80178899999999
20
-92.582953000000018
10
183.80178899999999
20
-92.582953000000018
42
0.4142135623730846
10
184.30178900000001
20
-92.082953000000018
10
184.30178900000001
20
-79.082953000000003
42
0.4142135623730846
0
LWPOLYLINE
5
117
100
AcDbEntity
8
0
100
AcDbPolyline
90
8
70
1
43
0.0
10
260.50178899999997
20
-92.082953000000018
10
260.50178899999997
20
-79.082953000000003
42
0.4142135623730846
10
260.00178900000003
20
-78.582953000000018
10
247.00178899999997
20
-78.582953000000018
42
0.4142135623730846
10
246.501789
20
-79.082953000000003
10
246.501789
20
-92.082953000000018
42
0.41421356237309503
10
247.00178899999997
20
-92.582953000000018
10
260.00178900000003
20
-92.582953000000018
42
0.41421356237304302
0
LWPOLYLINE
5
118
100
AcDbEntity
8
0
100
AcDbPolyline
90
8
70
1
43
0.0
10
341.75178900000003
20
-79.082953000000003
42
-0.4142135623730846
10
342.25178900000003
20
-78.582953000000018
10
355.25178900000003
20
-78.582952999999975
42
-0.4142135623730846
10
355.75178900000003
20
-79.082953000000003
10
355.75178900000003
20
-92.082953000000018
42
-0.4142135623730846
10
355.25178900000003
20
-92.582953000000018
10
342.25178900000003
20
-92.58295300000006
42
-0.41421356237309503
10
341.75178899999997
20
-92.082953000000018
0
LWPOLYLINE
5
119
100
AcDbEntity
8
0
100
AcDbPolyline
90
8
70
1
43
0.0
10
241.45178899999996
20
-92.082953000000018
10
241.45178899999996
20
-79.082953000000003
42
0.4142135623730846
10
240.95178900000002
20
-78.582953000000018
10
227.95178899999999
20
-78.582953000000018
42
0.4142135623730846
10
227.45178899999999
20
-79.082953000000003
10
227.45178899999999
20
-92.082953000000018
42
0.41421356237309503
10
227.95178899999999
20
-92.582953000000018
10
240.95178900000002
20
-92.582953000000018
42
0.4142135623730846
0
LWPOLYLINE
5
120
100
AcDbEntity
8
0
100
AcDbPolyline
90
8
70
1
43
0.0
10
298.10178900000005
20
-78.582953000000018
10
285.101789
20
-78.582953000000018
42
0.4142135623730846
10
284.60178900000005
20
-79.082953000000003
10
284.60178900000005
20
-92.082953000000018
42
0.41421356237309503
10
285.101789
20
-92.582953000000018
10
298.10178900000005
20
-92.582953000000018
42
0.41421356237304302
10
298.601789
20
-92.082953000000018
10
298.601789
20
-79.082953000000003
42
0.4142135623730846
0
LWPOLYLINE
5
121
100
AcDbEntity
8
0
100
AcDbPolyline
90
8
70
1
43
0.0
10
323.20178900000002
20
-92.582953000000018
10
336.20178899999996
20
-92.582953000000018
42
0.4142135623730846
10
336.70178900000002
20
-92.082953000000018
10
336.70178900000002
20
-79.082953000000003
42
0.4142135623730846
10
336.20178899999996
20
-78.582953000000018
10
323.20178900000002
20
-78.582953000000018
42
0.4142135623730846
10
322.70178899999996
20
-79.082953000000003
10
322.70178899999996
20
-92.082953000000018
42
0.41421356237309503
0
LWPOLYLINE
5
122
100
AcDbEntity
8
0
100
AcDbPolyline
90
8
70
1
43
0.0
10
266.05178899999999
20
-92.582952999999989
42
-0.41421356237309503
10
265.55178899999999
20
-92.082953000000018
10
265.55178899999999
20
-79.082953000000003
42
-0.4142135623730846
10
266.05178899999999
20
-78.582953000000018
10
279.05178900000004
20
-78.58295300000006
42
-0.4142135623730846
10
279.55178899999999
20
-79.082953000000003
10
279.55178899999999
20
-92.082953000000018
42
-0.41421356237304302
10
279.05178900000004
20
-92.582953000000018
0
LWPOLYLINE
5
123
100
AcDbEntity
8
0
100
AcDbPolyline
90
8
70
1
43
0.0
10
303.65178900000001
20
-79.082953000000003
42
-0.4142135623730846
10
304.15178900000001
20
-78.582953000000018
10
317.15178900000001
20
-78.582952999999975
42
-0.4142135623730846
10
317.65178900000001
20
-79.082953000000003
10
317.65178900000001
20
-92.082953000000018
42
-0.4142135623730846
10
317.15178900000001
20
-92.582953000000018
10
304.15178900000001
20
-92.582952999999989
42
-0.41421356237309503
10
303.65178900000001
20
-92.082953000000018
0
LWPOLYLINE
5
124
100
AcDbEntity
8
0
100
AcDbPolyline
90
8
70
1
43
0.0
10
184.30178900000001
20
-111.13295300000001
10
184.30178900000001
20
-98.132953000000001
42
0.41421356237307422
10
183.80178900000001
20
-97.632953000000029
10
170.80178899999999
20
-97.632953000000029
42
0.41421356237307422
10
170.30178899999999
20
-98.132953000000001
10
170.30178899999999
20
-111.13295300000001
42
0.41421356237309503
10
170.80178899999999
20
-111.63295300000001
10
183.80178899999999
20
-111.63295300000001
42
0.41421356237309503
0
LWPOLYLINE
5
125
100
AcDbEntity
8
0
100
AcDbPolyline
90
8
70
1
43
0.0
10
126.65178900000001
20
-97.632953000000029
10
113.65178900000001
20
-97.632953000000029
42
0.41421356237307422
10
113.15178899999999
20
-98.132953000000001
10
113.15178899999999
20
-111.13295300000001
42
0.41421356237309503
10
113.65178900000001
20
-111.63295300000001
10
126.65178899999999
20
-111.63295300000001
42
0.4142135623730846
10
127.15178899999999
20
-111.13295300000001
10
127.15178899999999
20
-98.132953000000001
42
0.41421356237307422
0
LWPOLYLINE
5
126
100
AcDbEntity
8
0
100
AcDbPolyline
90
8
70
1
43
0.0
10
189.351789
20
-98.132953000000001
10
189.351789
20
-111.13295300000001
42
0.41421356237309503
10
189.851789
20
-111.63295300000001
10
202.851789
20
-111.63295300000001
42
0.41421356237309503
10
203.35178900000002
20
-111.13295300000001
10
203.35178900000002
20
-98.132953000000001
42
0.41421356237307422
10
202.851789
20
-97.632953000000029
10
189.851789
20
-97.632953000000029
42
0.41421356237307422
0
LWPOLYLINE
5
127
100
AcDbEntity
8
0
100
AcDbPolyline
90
8
70
1
43
0.0
10
164.751789
20
-97.632953000000029
42
-0.41421356237307422
10
165.251789
20
-98.132953000000001
10
165.25178899999997
20
-111.13295300000001
42
-0.41421356237307422
10
164.751789
20
-111.63295300000001
10
151.75178899999997
20
-111.632953
42
-0.41421356237309503
10
151.251789
20
-111.13295300000001
10
151.25178899999997
20
-98.132953000000001
42
-0.41421356237307422
10
151.75178899999997
20
-97.632953000000029
0
LWPOLYLINE
5
128
100
AcDbEntity
8
0
100
AcDbPolyline
90
8
70
1
43
0.0
10
208.90178900000001
20
-111.63295300000001
10
221.90178900000001
20
-111.63295300000001
42
0.41421356237309503
10
222.40178900000001
20
-111.13295300000001
10
222.40178900000004
20
-98.132953000000001
42
0.41421356237307422
10
221.90178900000001
20
-97.632953000000029
10
208.90178900000001
20
-97.632953000000029
42
0.41421356237307422
10
208.40178899999998
20
-98.132953000000001
10
208.40178899999998
20
-111.13295300000001
42
0.41421356237309503
0
LWPOLYLINE
5
129
100
AcDbEntity
8
0
100
AcDbPolyline
90
8
70
1
43
0.0
10
227.95178899999999
20
-111.63295300000001
10
240.95178900000002
20
-111.63295300000001
42
0.41421356237309503
10
241.45178899999996
20
-111.13295300000001
10
241.45178899999996
20
-98.132953000000001
42
0.41421356237307422
10
240.95178900000002
20
-97.632953000000029
10
227.95178899999999
20
-97.632953000000029
42
0.41421356237307422
10
227.45178899999999
20
-98.132953000000001
10
227.45178899999999
20
-111.13295300000001
42
0.41421356237309503
0
LWPOLYLINE
5
130
100
AcDbEntity
8
0
100
AcDbPolyline
90
8
70
1
43
0.0
10
146.20178899999996
20
-111.13295300000001
42
-0.41421356237307422
10
145.70178899999999
20
-111.63295300000001
10
132.70178899999999
20
-111.632953
42
-0.41421356237309503
10
132.20178900000002
20
-111.13295300000001
10
132.20178899999999
20
-98.132953000000001
42
-0.41421356237307422
10
132.70178899999999
20
-97.632953000000029
10
145.70178899999999
20
-97.632953000000029
42
-0.41421356237307422
10
146.20178900000002
20
-98.132953000000001
0
LWPOLYLINE
5
131
100
AcDbEntity
8
0
100
AcDbPolyline
90
8
70
1
43
0.0
10
88.551788999999985
20
-97.632953000000029
10
75.551788999999985
20
-97.632953000000029
42
0.41421356237307422
10
75.051788999999985
20
-98.132953000000001
10
75.051788999999985
20
-111.13295300000001
42
0.41421356237309503
10
75.551788999999985
20
-111.63295300000001
10
88.551788999999985
20
-111.63295300000001
42
0.41421356237307422
10
89.051788999999985
20
-111.13295300000001
10
89.051788999999985
20
-98.132953000000001
42
0.41421356237307422
0
LWPOLYLINE
5
132
100
AcDbEntity
8
0
100
AcDbPolyline
90
8
70
1
43
0.0
10
107.601789
20
-97.632953000000029
42
-0.41421356237307422
10
108.101789
20
-98.132953000000001
10
108.10178899999997
20
-111.13295300000001
42
-0.41421356237307422
10
107.601789
20
-111.63295300000001
10
94.601788999999997
20
-111.63295300000001
42
-0.41421356237309503
10
94.101788999999982
20
-111.13295300000001
10
94.101788999999982
20
-98.132953000000001
42
-0.41421356237307422
10
94.601788999999997
20
-97.632953000000029
0
LWPOLYLINE
5
133
100
AcDbEntity
8
0
100
AcDbPolyline
90
8
70
1
43
0.0
10
260.00178900000003
20
-97.632953000000029
10
247.00178899999997
20
-97.632953000000029
42
0.41421356237307422
10
246.501789
20
-98.132953000000001
10
246.501789
20
-111.13295300000001
42
0.41421356237309503
10
247.00178899999997
20
-111.63295300000001
10
260.00178900000003
20
-111.63295300000001
42
0.4142135623730534
10
260.50178899999997
20
-111.13295300000001
10
260.50178899999997
20
-98.132953000000001
42
0.41421356237307422
0
LWPOLYLINE
5
134
100
AcDbEntity
8
0
100
AcDbPolyline
90
8
70
1
43
0.0
10
303.65178900000001
20
-98.132953000000001
10
303.65178900000001
20
-111.13295300000001
42
0.41421356237309503
10
304.15178900000001
20
-111.63295300000001
10
317.15178900000001
20
-111.63295300000001
42
0.41421356237309503
10
317.65178900000001
20
-111.13295300000001
10
317.65178900000001
20
-98.132953000000001
42
0.41421356237307422
10
317.15178900000001
20
-97.632953000000029
10
304.15178900000001
20
-97.632953000000029
42
0.41421356237307422
0
LWPOLYLINE
5
135
100
AcDbEntity
8
0
100
AcDbPolyline
90
8
70
1
43
0.0
10
336.70178899999996
20
-111.13295300000001
42
-0.41421356237309503
10
336.20178899999996
20
-111.63295300000001
10
323.20178900000002
20
-111.63295300000004
42
-0.41421356237309503
10
322.70178899999996
20
-111.13295300000001
10
322.70178900000008
20
-98.132953000000001
42
-0.41421356237307422
10
323.20178900000002
20
-97.632953000000029
10
336.20178899999996
20
-97.632952999999986
42
-0.41421356237307422
10
336.70178900000002
20
-98.132953000000001
0
LWPOLYLINE
5
136
100
AcDbEntity
8
0
100
AcDbPolyline
90
8
70
1
43
0.0
10
298.601789
20
-111.13295300000001
42
-0.4142135623730534
10
298.10178900000005
20
-111.63295300000001
10
285.101789
20
-111.63295299999999
42
-0.41421356237309503
10
284.60178900000005
20
-111.13295300000001
10
284.601789
20
-98.132953000000001
42
-0.41421356237307422
10
285.101789
20
-97.632953000000029
10
298.10178900000005
20
-97.632953000000072
42
-0.41421356237307422
10
298.601789
20
-98.132953000000001
0
LWPOLYLINE
5
137
100
AcDbEntity
8
0
100
AcDbPolyline
90
8
70
1
43
0.0
10
355.25178900000003
20
-97.632952999999986
42
-0.41421356237307422
10
355.75178900000003
20
-98.132953000000001
10
355.75178899999997
20
-111.13295300000001
42
-0.41421356237309503
10
355.25178900000003
20
-111.63295300000001
10
342.25178900000003
20
-111.63295300000004
42
-0.41421356237309503
10
341.75178899999997
20
-111.13295300000001
10
341.75178900000003
20
-98.132953000000001
42
-0.41421356237307422
10
342.25178900000003
20
-97.632953000000029
0
LWPOLYLINE
5
138
100
AcDbEntity
8
0
100
AcDbPolyline
90
8
70
1
43
0.0
10
266.05178899999999
20
-111.63295300000001
10
279.05178900000004
20
-111.63295300000001
42
0.4142135623730534
10
279.55178899999999
20
-111.13295300000001
10
279.55178899999999
20
-98.132953000000001
42
0.41421356237307422
10
279.05178900000004
20
-97.632953000000029
10
266.05178899999999
20
-97.632953000000029
42
0.41421356237307422
10
265.55178899999999
20
-98.132953000000001
10
265.55178899999999
20
-111.13295300000001
42
0.41421356237309503
0
LWPOLYLINE
5
139
100
AcDbEntity
8
0
100
AcDbPolyline
90
8
70
1
43
0.0
10
113.65178900000001
20
-130.68295300000003
10
126.65178899999999
20
-130.68295300000003
42
0.41421356237307422
10
127.15178899999999
20
-130.18295300000003
10
127.15178899999999
20
-117.18295300000001
42
0.4142135623730846
10
126.65178900000001
20
-116.68295300000003
10
113.65178900000001
20
-116.68295300000003
42
0.4142135623730846
10
113.15178899999999
20
-117.18295300000001
10
113.15178899999999
20
-130.18295300000003
42
0.41421356237309503
0
LWPOLYLINE
5
140
100
AcDbEntity
8
0
100
AcDbPolyline
90
8
70
1
43
0.0
10
170.80178899999999
20
-130.68295300000003
10
183.80178899999999
20
-130.68295300000003
42
0.4142135623730846
10
184.30178900000001
20
-130.18295300000003
10
184.30178900000001
20
-117.18295300000001
42
0.4142135623730846
10
183.80178900000001
20
-116.68295300000003
10
170.80178899999999
20
-116.68295300000003
42
0.4142135623730846
10
170.30178899999999
20
-117.18295300000001
10
170.30178899999999
20
-130.18295300000003
42
0.41421356237309503
0
LWPOLYLINE
5
141
100
AcDbEntity
8
0
100
AcDbPolyline
90
8
70
1
43
0.0
10
151.25178899999997
20
-117.18295300000001
10
151.251789
20
-130.18295300000003
42
0.41421356237309503
10
151.75178899999997
20
-130.68295300000003
10
164.751789
20
-130.68295300000003
42
0.41421356237306384
10
165.251789
20
-130.18295300000003
10
165.251789
20
-117.18295300000001
42
0.4142135623730846
10
164.751789
20
-116.68295300000003
10
151.75178899999997
20
-116.68295300000003
42
0.4142135623730846
0
LWPOLYLINE
5
142
100
AcDbEntity
8
0
100
AcDbPolyline
90
8
70
1
43
0.0
10
132.70178899999999
20
-130.682953
42
-0.41421356237309503
10
132.20178900000002
20
-130.18295300000003
10
132.20178899999999
20
-117.18295300000001
42
-0.4142135623730846
10
132.70178899999999
20
-116.68295300000003
10
145.70178899999999
20
-116.68295300000003
42
-0.4142135623730846
10
146.20178900000002
20
-117.18295300000001
10
146.20178899999999
20
-130.18295300000003
42
-0.41421356237306384
10
145.70178899999999
20
-130.68295300000003
0
LWPOLYLINE
5
143
100
AcDbEntity
8
0
100
AcDbPolyline
90
8
70
1
43
0.0
10
75.051788999999985
20
-117.18295300000001
10
75.051788999999985
20
-130.18295300000003
42
0.41421356237309503
10
75.551788999999985
20
-130.68295300000003
10
88.551788999999985
20
-130.68295300000003
42
0.41421356237306384
10
89.051788999999985
20
-130.18295300000003
10
89.051788999999985
20
-117.18295300000001
42
0.4142135623730846
10
88.551788999999985
20
-116.68295300000003
10
75.551788999999985
20
-116.68295300000003
42
0.4142135623730846
0
LWPOLYLINE
5
144
100
AcDbEntity
8
0
100
AcDbPolyline
90
8
70
1
43
0.0
10
189.351789
20
-117.18295300000001
42
-0.4142135623730846
10
189.851789
20
-116.68295300000003
10
202.851789
20
-116.68295299999998
42
-0.4142135623730846
10
203.35178900000002
20
-117.18295300000001
10
203.35178900000002
20
-130.18295300000003
42
-0.4142135623730846
10
202.851789
20
-130.68295300000003
10
189.851789
20
-130.68295300000003
42
-0.41421356237309503
10
189.351789
20
-130.18295300000003
0
LWPOLYLINE
5
145
100
AcDbEntity
8
0
100
AcDbPolyline
90
8
70
1
43
0.0
10
107.601789
20
-116.68295300000003
42
-0.4142135623730846
10
108.101789
20
-117.18295300000001
10
108.10178899999998
20
-130.18295300000003
42
-0.41421356237306384
10
107.601789
20
-130.68295300000003
10
94.601788999999997
20
-130.68295300000003
42
-0.41421356237309503
10
94.101788999999982
20
-130.18295300000003
10
94.101788999999982
20
-117.18295300000001
42
-0.4142135623730846
10
94.601788999999997
20
-116.68295300000003
0
LWPOLYLINE
5
146
100
AcDbEntity
8
0
100
AcDbPolyline
90
8
70
1
43
0.0
10
221.90178900000001
20
-116.68295299999998
42
-0.4142135623730846
10
222.40178900000004
20
-117.18295300000001
10
222.40178900000004
20
-130.18295300000003
42
-0.4142135623730846
10
221.90178900000001
20
-130.68295300000003
10
208.90178900000001
20
-130.68295300000005
42
-0.41421356237309503
10
208.40178899999998
20
-130.18295300000003
10
208.40178900000001
20
-117.18295300000001
42
-0.4142135623730846
10
208.90178900000001
20
-116.68295300000003
0
LWPOLYLINE
5
147
100
AcDbEntity
8
0
100
AcDbPolyline
90
8
70
1
43
0.0
10
227.45178899999999
20
-117.18295300000001
42
-0.4142135623730846
10
227.95178899999999
20
-116.68295300000003
10
240.95178900000002
20
-116.68295300000005
42
-0.4142135623730846
10
241.45178899999996
20
-117.18295300000001
10
241.45178900000005
20
-130.18295300000003
42
-0.4142135623730846
10
240.95178900000002
20
-130.68295300000003
10
227.95178899999999
20
-130.68295300000003
42
-0.41421356237309503
10
227.45178899999999
20
-130.18295300000003
0
LWPOLYLINE
5
148
100
AcDbEntity
8
0
100
AcDbPolyline
90
8
70
1
43
0.0
10
260.00178900000003
20
-116.68295300000003
10
247.00178899999997
20
-116.68295300000003
42
0.4142135623730846
10
246.501789
20
-117.18295300000001
10
246.501789
20
-130.18295300000003
42
0.41421356237309503
10
247.00178899999997
20
-130.68295300000003
10
260.00178900000003
20
-130.68295300000003
42
0.41421356237304302
10
260.50178899999997
20
-130.18295300000003
10
260.50178899999997
20
-117.18295300000001
42
0.4142135623730846
0
LWPOLYLINE
5
149
100
AcDbEntity
8
0
100
AcDbPolyline
90
8
70
1
43
0.0
10
279.55178899999999
20
-130.18295300000003
42
-0.41421356237304302
10
279.05178900000004
20
-130.68295300000003
10
266.05178899999999
20
-130.682953
42
-0.41421356237309503
10
265.55178899999999
20
-130.18295300000003
10
265.55178899999999
20
-117.18295300000001
42
-0.4142135623730846
10
266.05178899999999
20
-116.68295300000003
10
279.05178900000004
20
-116.68295300000005
42
-0.4142135623730846
10
279.55178899999999
20
-117.18295300000001
0
LWPOLYLINE
5
150
100
AcDbEntity
8
0
100
AcDbPolyline
90
8
70
1
43
0.0
10
342.25178900000003
20
-130.68295300000003
10
355.25178900000003
20
-130.68295300000003
42
0.4142135623730846
10
355.75178900000003
20
-130.18295300000003
10
355.75178900000003
20
-117.18295300000001
42
0.4142135623730846
10
355.25178900000003
20
-116.68295300000003
10
342.25178900000003
20
-116.68295300000003
42
0.4142135623730846
10
341.75178899999997
20
-117.18295300000001
10
341.75178899999997
20
-130.18295300000003
42
0.41421356237309503
0
LWPOLYLINE
5
151
100
AcDbEntity
8
0
100
AcDbPolyline
90
8
70
1
43
0.0
10
284.601789
20
-117.18295300000001
42
-0.4142135623730846
10
285.101789
20
-116.68295300000003
10
298.10178900000005
20
-116.68295300000005
42
-0.4142135623730846
10
298.601789
20
-117.18295300000001
10
298.601789
20
-130.18295300000003
42
-0.41421356237304302
10
298.10178900000005
20
-130.68295300000003
10
285.101789
20
-130.682953
42
-0.41421356237309503
10
284.60178900000005
20
-130.18295300000003
0
LWPOLYLINE
5
152
100
AcDbEntity
8
0
100
AcDbPolyline
90
8
70
1
43
0.0
10
322.70178899999996
20
-117.18295300000001
10
322.70178899999996
20
-130.18295300000003
42
0.41421356237309503
10
323.20178900000002
20
-130.68295300000003
10
336.20178899999996
20
-130.68295300000003
42
0.4142135623730846
10
336.70178900000002
20
-130.18295300000003
10
336.70178900000002
20
-117.18295300000001
42
0.4142135623730846
10
336.20178899999996
20
-116.68295300000003
10
323.20178900000002
20
-116.68295300000003
42
0.4142135623730846
0
LWPOLYLINE
5
153
100
AcDbEntity
8
0
100
AcDbPolyline
90
8
70
1
43
0.0
10
304.15178900000001
20
-130.68295300000003
10
317.15178900000001
20
-130.68295300000003
42
0.4142135623730846
10
317.65178900000001
20
-130.18295300000003
10
317.65178900000001
20
-117.18295300000001
42
0.4142135623730846
10
317.15178900000001
20
-116.68295300000003
10
304.15178900000001
20
-116.68295300000003
42
0.4142135623730846
10
303.65178900000001
20
-117.18295300000001
10
303.65178900000001
20
-130.18295300000003
42
0.41421356237309503
0
LWPOLYLINE
5
154
100
AcDbEntity
8
0
100
AcDbPolyline
90
8
70
1
43
0.0
10
132.20178899999999
20
-136.23295300000001
42
-0.41421356237309503
10
132.70178899999999
20
-135.73295300000001
10
145.70178899999999
20
-135.73295300000001
42
-0.41421356237309503
10
146.20178900000002
20
-136.23295300000001
10
146.20178900000002
20
-149.23295300000004
42
-0.4142135623730534
10
145.70178899999999
20
-149.73295300000004
10
132.70178899999999
20
-149.73295300000001
42
-0.41421356237309503
10
132.20178900000002
20
-149.23295300000004
0
LWPOLYLINE
5
155
100
AcDbEntity
8
0
100
AcDbPolyline
90
8
70
1
43
0.0
10
165.251789
20
-149.23295300000004
42
-0.4142135623730534
10
164.751789
20
-149.73295300000004
10
151.75178899999997
20
-149.73295300000001
42
-0.41421356237309503
10
151.251789
20
-149.23295300000004
10
151.25178899999997
20
-136.23295300000001
42
-0.41421356237309503
10
151.75178899999997
20
-135.73295300000001
10
164.751789
20
-135.73295300000001
42
-0.41421356237309503
10
165.251789
20
-136.23295300000001
0
LWPOLYLINE
5
156
100
AcDbEntity
8
0
100
AcDbPolyline
90
8
70
1
43
0.0
10
126.65178900000001
20
-135.73295300000004
42
-0.41421356237309503
10
127.15178899999999
20
-136.23295300000001
10
127.15178900000001
20
-149.23295300000004
42
-0.41421356237306384
10
126.65178899999999
20
-149.73295300000004
10
113.65178900000001
20
-149.73295300000004
42
-0.41421356237309503
10
113.15178899999999
20
-149.23295300000004
10
113.15178899999999
20
-136.23295300000001
42
-0.41421356237309503
10
113.65178900000001
20
-135.73295300000001
0
LWPOLYLINE
5
157
100
AcDbEntity
8
0
100
AcDbPolyline
90
8
70
1
43
0.0
10
89.051788999999985
20
-149.23295300000004
10
89.051788999999985
20
-136.23295300000001
42
0.41421356237309503
10
88.551788999999985
20
-135.73295300000001
10
75.551788999999985
20
-135.73295300000001
42
0.41421356237309503
10
75.051788999999985
20
-136.23295300000001
10
75.051788999999985
20
-149.23295300000004
42
0.41421356237309503
10
75.551788999999985
20
-149.73295300000004
10
88.551788999999985
20
-149.73295300000004
42
0.4142135623730534
0
LWPOLYLINE
5
158
100
AcDbEntity
8
0
100
AcDbPolyline
90
8
70
1
43
0.0
10
94.101788999999982
20
-136.23295300000001
10
94.101788999999982
20
-149.23295300000004
42
0.41421356237309503
10
94.601788999999997
20
-149.73295300000004
10
107.601789
20
-149.73295300000004
42
0.4142135623730534
10
108.10178899999998
20
-149.23295300000004
10
108.101789
20
-136.23295300000001
42
0.41421356237309503
10
107.601789
20
-135.73295300000001
10
94.601788999999997
20
-135.73295300000001
42
0.41421356237309503
0
LWPOLYLINE
5
159
100
AcDbEntity
8
0
100
AcDbPolyline
90
8
70
1
43
0.0
10
304.15178900000001
20
-149.73295300000001
42
-0.41421356237309503
10
303.65178900000001
20
-149.23295300000004
10
303.65178900000001
20
-136.23295300000001
42
-0.41421356237309503
10
304.15178900000001
20
-135.73295300000001
10
317.15178900000001
20
-135.73295299999998
42
-0.41421356237309503
10
317.65178900000001
20
-136.23295300000001
10
317.65178900000001
20
-149.23295300000004
42
-0.41421356237307422
10
317.15178900000001
20
-149.73295300000004
0
LWPOLYLINE
5
160
100
AcDbEntity
8
0
100
AcDbPolyline
90
8
70
1
43
0.0
10
285.101789
20
-149.73295300000001
42
-0.41421356237309503
10
284.60178900000005
20
-149.23295300000004
10
284.601789
20
-136.23295300000001
42
-0.41421356237309503
10
285.101789
20
-135.73295300000001
10
298.10178900000005
20
-135.73295300000007
42
-0.41421356237309503
10
298.601789
20
-136.23295300000001
10
298.601789
20
-149.23295300000004
42
-0.41421356237303258
10
298.10178900000005
20
-149.73295300000004
0
LWPOLYLINE
5
161
100
AcDbEntity
8
0
100
AcDbPolyline
90
8
70
1
43
0.0
10
279.55178899999999
20
-149.23295300000004
42
-0.41421356237303258
10
279.05178900000004
20
-149.73295300000004
10
266.05178899999999
20
-149.73295300000001
42
-0.41421356237309503
10
265.55178899999999
20
-149.23295300000004
10
265.55178899999999
20
-136.23295300000001
42
-0.41421356237309503
10
266.05178899999999
20
-135.73295300000001
10
279.05178900000004
20
-135.73295300000007
42
-0.41421356237309503
10
279.55178899999999
20
-136.23295300000001
0
LWPOLYLINE
5
162
100
AcDbEntity
8
0
100
AcDbPolyline
90
8
70
1
43
0.0
10
260.50178899999997
20
-149.23295300000004
42
-0.41421356237303258
10
260.00178900000003
20
-149.73295300000004
10
247.00178899999997
20
-149.73295300000001
42
-0.41421356237309503
10
246.501789
20
-149.23295300000004
10
246.50178899999997
20
-136.23295300000001
42
-0.41421356237309503
10
247.00178899999997
20
-135.73295300000001
10
260.00178900000003
20
-135.73295300000007
42
-0.41421356237309503
10
260.50178899999997
20
-136.23295300000001
0
LWPOLYLINE
5
163
100
AcDbEntity
8
0
100
AcDbPolyline
90
8
70
1
43
0.0
10
323.20178900000002
20
-149.73295300000004
10
336.20178899999996
20
-149.73295300000004
42
0.41421356237307422
10
336.70178900000002
20
-149.23295300000004
10
336.70178900000002
20
-136.23295300000001
42
0.41421356237309503
10
336.20178899999996
20
-135.73295300000001
10
323.20178900000002
20
-135.73295300000001
42
0.41421356237309503
10
322.70178899999996
20
-136.23295300000001
10
322.70178899999996
20
-149.23295300000004
42
0.41421356237309503
0
LWPOLYLINE
5
164
100
AcDbEntity
8
0
100
AcDbPolyline
90
8
70
1
43
0.0
10
189.851789
20
-149.73295300000004
10
202.851789
20
-149.73295300000004
42
0.41421356237307422
10
203.35178900000002
20
-149.23295300000004
10
203.35178900000002
20
-136.23295300000001
42
0.41421356237309503
10
202.851789
20
-135.73295300000001
10
189.851789
20
-135.73295300000001
42
0.41421356237309503
10
189.351789
20
-136.23295300000001
10
189.351789
20
-149.23295300000004
42
0.41421356237309503
0
LWPOLYLINE
5
165
100
AcDbEntity
8
0
100
AcDbPolyline
90
8
70
1
43
0.0
10
184.30178900000001
20
-149.23295300000004
10
184.30178900000001
20
-136.23295300000001
42
0.41421356237309503
10
183.80178900000001
20
-135.73295300000001
10
170.80178899999999
20
-135.73295300000001
42
0.41421356237309503
10
170.30178899999999
20
-136.23295300000001
10
170.30178899999999
20
-149.23295300000004
42
0.41421356237309503
10
170.80178899999999
20
-149.73295300000004
10
183.80178899999999
20
-149.73295300000004
42
0.41421356237307422
0
LWPOLYLINE
5
166
100
AcDbEntity
8
0
100
AcDbPolyline
90
8
70
1
43
0.0
10
241.45178899999996
20
-149.23295300000004
10
241.45178899999996
20
-136.23295300000001
42
0.41421356237309503
10
240.95178900000002
20
-135.73295300000001
10
227.95178899999999
20
-135.73295300000001
42
0.41421356237309503
10
227.45178899999999
20
-136.23295300000001
10
227.45178899999999
20
-149.23295300000004
42
0.41421356237309503
10
227.95178899999999
20
-149.73295300000004
10
240.95178900000002
20
-149.73295300000004
42
0.41421356237307422
0
LWPOLYLINE
5
167
100
AcDbEntity
8
0
100
AcDbPolyline
90
8
70
1
43
0.0
10
208.90178900000001
20
-149.73295300000007
42
-0.41421356237309503
10
208.40178899999998
20
-149.23295300000004
10
208.40178900000001
20
-136.23295300000001
42
-0.41421356237309503
10
208.90178900000001
20
-135.73295300000001
10
221.90178900000001
20
-135.73295299999998
42
-0.41421356237309503
10
222.40178900000004
20
-136.23295300000001
10
222.40178900000004
20
-149.23295300000004
42
-0.41421356237307422
10
221.90178900000001
20
-149.73295300000004
0
LWPOLYLINE
5
168
100
AcDbEntity
8
0
100
AcDbPolyline
90
8
70
1
43
0.0
10
341.75178899999997
20
-136.23295300000001
10
341.75178899999997
20
-149.23295300000004
42
0.41421356237309503
10
342.25178900000003
20
-149.73295300000004
10
355.25178900000003
20
-149.73295300000004
42
0.41421356237307422
10
355.75178900000003
20
-149.23295300000004
10
355.75178900000003
20
-136.23295300000001
42
0.41421356237309503
10
355.25178900000003
20
-135.73295300000001
10
342.25178900000003
20
-135.73295300000001
42
0.41421356237309503
0
LINE
5
169
100
AcDbEntity
8
0
100
AcDbLine
10
125.62947398061
20
-76.05795250609998
30
0
11
209.924104
21
-76.057952999999813
31
0
0
ARC
5
170
100
AcDbEntity
8
0
100
AcDbCircle
10
125.65178899999863
20
-74.058076999998633
30
0
40
1.9999999999986251
210
0
220
0
230
1
100
AcDbArc
50
180
51
269.360708519936
0
ARC
5
171
100
AcDbEntity
8
0
100
AcDbCircle
10
120.15178900000001
20
-73.958076999999989
30
0
40
3.4999999999999964
210
0
220
0
230
1
100
AcDbArc
50
0
51
180
0
CIRCLE
5
172
100
AcDbEntity
8
0
100
AcDbCircle
10
120.09999999999999
20
-73.900000000000006
30
0
40
1.1000000000000001
210
0
220
-0
230
1
0
ARC
5
173
100
AcDbEntity
8
0
100
AcDbCircle
10
114.65178899999997
20
-74.058076999999983
30
0
40
2.0000004936500302
210
-0
220
0
230
1
100
AcDbArc
50
270.63929076678716
51
360
0
LINE
5
174
100
AcDbEntity
8
0
100
AcDbLine
10
74.52678899999998
20
-76.057952999999998
30
0
11
114.674104
21
-76.057952999999813
31
0
0
ARC
5
175
100
AcDbEntity
8
0
100
AcDbCircle
10
74.52678899999998
20
-78.057952999999983
30
0
40
1.999999999999984
210
0
220
-0
230
1
100
AcDbArc
50
90
51
180
0
LINE
5
176
100
AcDbEntity
8
0
100
AcDbLine
10
72.526788999999994
20
-169.58510799999999
30
0
11
72.526788999999994
21
-78.057952999999998
31
0
0
ARC
5
177
100
AcDbEntity
8
0
100
AcDbCircle
10
74.526789000000022
20
-169.58510799999999
30
0
40
2.0000000000000284
210
0
220
0
230
1
100
AcDbArc
50
180
51
239.47665867446469
0
LINE
5
178
100
AcDbEntity
8
0
100
AcDbLine
10
114.65178899999999
20
-171.30807700000003
30
0
11
73.52678899999998
21
-171.30807700000003
31
0
0
ARC
5
179
100
AcDbEntity
8
0
100
AcDbCircle
10
114.65178899999998
20
-173.30807700000005
30
0
40
2.0000000000000284
210
0
220
-0
230
1
100
AcDbArc
50
0
51
89.999999999999588
0
ARC
5
180
100
AcDbEntity
8
0
100
AcDbCircle
10
120.15178900000001
20
-173.40807699999999
30
0
40
3.4999999999999964
210
0
220
0
230
1
100
AcDbArc
50
-180
51
0
0
CIRCLE
5
181
100
AcDbEntity
8
0
100
AcDbCircle
10
120.20000000000003
20
-173.40000000000001
30
0
40
1.1000000000000001
210
0
220
-0
230
1
0
ARC
5
182
100
AcDbEntity
8
0
100
AcDbCircle
10
125.65178900000005
20
-173.30807700000005
30
0
40
2.0000000000000284
210
0
220
0
230
1
100
AcDbArc
50
90.000000000001634
51
180
0
LINE
5
183
100
AcDbEntity
8
0
100
AcDbLine
10
209.90178900000004
20
-171.30807700000003
30
0
11
125.65178899999999
21
-171.30807700000003
31
0
0
ARC
5
184
100
AcDbEntity
8
0
100
AcDbCircle
10
209.90178900000012
20
-173.30807700000003
30
0
40
1.9999999999999574
210
-0
220
0
230
1
100
AcDbArc
50
0
51
90.000000000002444
0
ARC
5
185
100
AcDbEntity
8
0
100
AcDbCircle
10
215.40178900000004
20
-173.40807699999996
30
0
40
3.4999999999999787
210
0
220
0
230
1
100
AcDbArc
50
180
51
360
0
CIRCLE
5
186
100
AcDbEntity
8
0
100
AcDbCircle
10
215.5
20
-173.40000000000001
30
0
40
1.1000000000000001
210
0
220
-0
230
1
0
ARC
5
187
100
AcDbEntity
8
0
100
AcDbCircle
10
220.90178900000009
20
-173.30807700000008
30
0
40
2.0000000000000639
210
0
220
0
230
1
100
AcDbArc
50
90.000000000002444
51
180
0
LINE
5
188
100
AcDbEntity
8
0
100
AcDbLine
10
305.15178900000001
20
-171.30807700000003
30
0
11
220.90178900000001
21
-171.30807700000003
31
0
0
ARC
5
189
100
AcDbEntity
8
0
100
AcDbCircle
10
305.15178900000001
20
-173.30807700000003
30
0
40
1.9999999999999929
210
-0
220
0
230
1
100
AcDbArc
50
0
51
90
0
ARC
5
190
100
AcDbEntity
8
0
100
AcDbCircle
10
310.65178900000001
20
-173.40807699999996
30
0
40
3.5000000000000497
210
0
220
0
230
1
100
AcDbArc
50
180
51
360
0
ARC
5
191
100
AcDbEntity
8
0
100
AcDbCircle
10
316.15178899999995
20
-173.30807700000003
30
0
40
1.9999999999999929
210
0
220
-0
230
1
100
AcDbArc
50
89.99999999999838
51
180
0
LINE
5
192
100
AcDbEntity
8
0
100
AcDbLine
10
357.27678900000001
20
-171.30807700000003
30
0
11
316.15178900000001
21
-171.30807700000003
31
0
0
ARC
5
193
100
AcDbEntity
8
0
100
AcDbCircle
10
356.27678900000006
20
-169.58510799999993
30
0
40
2.0000004677165122
210
0
220
0
230
1
100
AcDbArc
50
300.52334447383095
51
359.99999879258172
0
LINE
5
194
100
AcDbEntity
8
0
100
AcDbLine
10
358.27678900000001
20
-78.057952999999998
30
0
11
358.27678946771653
21
-169.58510805420005
31
0
0
ARC
5
195
100
AcDbEntity
8
0
100
AcDbCircle
10
356.27678899999984
20
-78.057953000000111
30
0
40
2.0000000000001705
210
0
220
-0
230
1
100
AcDbArc
50
0
51
89.999999999993491
0
LINE
5
196
100
AcDbEntity
8
0
100
AcDbLine
10
316.12947398060999
20
-76.057952506099966
30
0
11
356.27678900000006
21
-76.057952999999941
31
0
0
ARC
5
197
100
AcDbEntity
8
0
100
AcDbCircle
10
316.15178899999864
20
-74.058076999998661
30
0
40
1.9999999999985718
210
0
220
0
230
1
100
AcDbArc
50
180
51
269.3607085199352
0
ARC
5
198
100
AcDbEntity
8
0
100
AcDbCircle
10
310.65178900000006
20
-73.958076999999975
30
0
40
3.4999999999999787
210
0
220
-0
230
1
100
AcDbArc
50
0
51
180
0
ARC
5
199
100
AcDbEntity
8
0
100
AcDbCircle
10
305.15178900000006
20
-74.058076999999997
30
0
40
2.0000004936500031
210
-0
220
0
230
1
100
AcDbArc
50
270.6392907667859
51
360
0
CIRCLE
5
200
100
AcDbEntity
8
0
100
AcDbCircle
10
310.60000000000002
20
-74.09999999999998
30
0
40
1.1000000000000001
210
0
220
-0
230
1
0
LINE
5
201
100
AcDbEntity
8
0
100
AcDbLine
10
220.87947398061004
20
-76.05795250609998
30
0
11
305.17410400000006
21
-76.057952999999813
31
0
0
ARC
5
202
100
AcDbEntity
8
0
100
AcDbCircle
10
220.90178899999864
20
-74.058076999998633
30
0
40
1.9999999999986073
210
0
220
0
230
1
100
AcDbArc
50
180
51
269.36070851993685
0
ARC
5
203
100
AcDbEntity
8
0
100
AcDbCircle
10
215.40178900000004
20
-73.958077000000017
30
0
40
3.5000000000000142
210
0
220
0
230
1
100
AcDbArc
50
0
51
180
0
ARC
5
204
100
AcDbEntity
8
0
100
AcDbCircle
10
209.90178900000004
20
-74.058076999999983
30
0
40
2.0000004936500204
210
-0
220
0
230
1
100
AcDbArc
50
270.63929076678511
51
360
0
CIRCLE
5
205
100
AcDbEntity
8
0
100
AcDbCircle
10
215.50330600000001
20
-73.81881199999998
30
0
40
1.1000000000000001
210
0
220
-0
230
1
0
LINE
5
206
100
AcDbEntity
8
0
100
AcDbLine
10
116.65178949364999
20
-74.058077024889982
30
0
11
116.65178900000001
21
-73.958077000000003
31
0
0
LINE
5
207
100
AcDbEntity
8
0
100
AcDbLine
10
123.65178900000001
20
-73.958077000000003
30
0
11
123.65178900000001
21
-74.058076999999983
31
0
0
LINE
5
208
100
AcDbEntity
8
0
100
AcDbLine
10
211.90178949365006
20
-74.058077024889982
30
0
11
211.90178900000004
21
-73.958077000000003
31
0
0
LINE
5
209
100
AcDbEntity
8
0
100
AcDbLine
10
218.90178900000006
20
-73.958077000000031
30
0
11
218.90178900000001
21
-74.058076999999983
31
0
0
LINE
5
210
100
AcDbEntity
8
0
100
AcDbLine
10
307.15178949365009
20
-74.058077024889982
30
0
11
307.15178900000006
21
-73.958077000000003
31
0
0
LINE
5
211
100
AcDbEntity
8
0
100
AcDbLine
10
314.15178900000006
20
-73.958076999999946
30
0
11
314.15178900000006
21
-74.058076999999983
31
0
0
LINE
5
212
100
AcDbEntity
8
0
100
AcDbLine
10
314.15178899999995
20
-173.30807700000005
30
0
11
314.15178900000006
21
-173.40807699999999
31
0
0
LINE
5
213
100
AcDbEntity
8
0
100
AcDbLine
10
307.15178900000001
20
-173.40807699999993
30
0
11
307.15178900000001
21
-173.30807700000005
31
0
0
LINE
5
214
100
AcDbEntity
8
0
100
AcDbLine
10
218.90178900000001
20
-173.30807700000005
30
0
11
218.90178900000001
21
-173.40807699999999
31
0
0
LINE
5
215
100
AcDbEntity
8
0
100
AcDbLine
10
211.90178900000006
20
-173.40807699999999
30
0
11
211.90178900000006
21
-173.30807700000005
31
0
0
LINE
5
216
100
AcDbEntity
8
0
100
AcDbLine
10
123.65178900000002
20
-173.30807700000003
30
0
11
123.65178900000001
21
-173.40807699999999
31
0
0
LINE
5
217
100
AcDbEntity
8
0
100
AcDbLine
10
116.65178900000001
20
-173.40807699999999
30
0
11
116.65178900000001
21
-173.30807700000005
31
0
0
CIRCLE
5
218
100
AcDbEntity
8
0
100
AcDbCircle
10
310.60000000000002
20
-173.26615400000003
30
0
40
1.1000000000000001
210
0
220
-0
230
1
0
ENDSEC
0
SECTION
2
OBJECTS
0
DICTIONARY
5
C
100
AcDbDictionary
3
ACAD_GROUP
350
D
3
ACAD_MLINESTYLE
350
17
0
DICTIONARY
5
D
100
AcDbDictionary
0
DICTIONARY
5
1A
330
C
100
AcDbDictionary
0
DICTIONARY
5
17
100
AcDbDictionary
0
ENDSEC
0
EOF
