0
SECTION
2
HEADER
9
$INSUNITS
70
4
9
$ACADVER
1
AC1014
9
$HANDSEED
5
FFFF
0
ENDSEC
0
SECTION
2
TABLES
0
TABLE
2
VPORT
5
8
100
AcDbSymbolTable
0
ENDTAB
0
TABLE
2
LTYPE
5
5
100
AcDbSymbolTable
0
LTYPE
5
14
100
AcDbSymbolTableRecord
100
AcDbLinetypeTableRecord
2
BYBLOCK
70
0
0
LTYPE
5
15
100
AcDbSymbolTableRecord
100
AcDbLinetypeTableRecord
2
BYLAYER
70
0
0
ENDTAB
0
TABLE
2
LAYER
5
2
100
AcDbSymbolTable
70
2
0
LAYER
5
50
100
AcDbSymbolTableRecord
100
AcDbLayerTableRecord
2
0
70
0
6
CONTINUOUS
0
ENDTAB
0
TABLE
2
STYLE
5
3
100
AcDbSymbolTable
70
1
0
STYLE
5
11
100
AcDbSymbolTableRecord
100
AcDbTextStyleTableRecord
2
STANDARD
70
0
0
ENDTAB
0
TABLE
2
VIEW
5
6
100
AcDbSymbolTable
70
0
0
ENDTAB
0
TABLE
2
UCS
5
7
100
AcDbSymbolTable
70
0
0
ENDTAB
0
TABLE
2
APPID
5
9
100
AcDbSymbolTable
70
2
0
APPID
5
12
100
AcDbSymbolTableRecord
100
AcDbRegAppTableRecord
2
ACAD
70
0
0
ENDTAB
0
TABLE
2
DIMSTYLE
5
A
100
AcDbSymbolTable
70
1
0
ENDTAB
0
TABLE
2
BLOCK_RECORD
5
1
100
AcDbSymbolTable
70
1
0
BLOCK_RECORD
5
1F
100
AcDbSymbolTableRecord
100
AcDbBlockTableRecord
2
*MODEL_SPACE
0
BLOCK_RECORD
5
1B
100
AcDbSymbolTableRecord
100
AcDbBlockTableRecord
2
*PAPER_SPACE
0
ENDTAB
0
ENDSEC
0
SECTION
2
BLOCKS
0
BLOCK
5
20
100
AcDbEntity
100
AcDbBlockBegin
2
*MODEL_SPACE
0
ENDBLK
5
21
100
AcDbEntity
100
AcDbBlockEnd
0
BLOCK
5
1C
100
AcDbEntity
100
AcDbBlockBegin
2
*PAPER_SPACE
0
ENDBLK
5
1D
100
AcDbEntity
100
AcDbBlockEnd
0
ENDSEC
0
SECTION
2
ENTITIES
0
LWPOLYLINE
5
100
100
AcDbEntity
8
0
100
AcDbPolyline
90
8
70
1
43
0.0
10
131.8377414
20
108.42962919888448
10
117.33774140000001
20
108.42962919888448
42
0.41421356237309503
10
116.8377414
20
107.92962919888447
10
116.83774140000003
20
96.129629198884473
42
0.41421356237309503
10
117.33774140000001
20
95.629629198884487
10
131.8377414
20
95.629629198884487
42
0.41421356237309503
10
132.3377414
20
96.129629198884473
10
132.33774140000003
20
107.92962919888447
42
0.41421356237309503
0
LWPOLYLINE
5
101
100
AcDbEntity
8
0
100
AcDbPolyline
90
8
70
1
43
0.0
10
17.537741400000002
20
95.629629198884487
10
3.0377414000000025
20
95.629629198884487
42
-0.41421356237309503
10
2.537741400000002
20
96.129629198884487
10
2.5377413999999954
20
107.92962919888447
42
-0.41421356237309503
10
3.0377414000000025
20
108.42962919888448
10
17.537741400000002
20
108.42962919888448
42
-0.41421356237309503
10
18.037741400000002
20
107.92962919888447
10
18.037741399999991
20
96.129629198884473
42
-0.41421356237309503
0
LWPOLYLINE
5
102
100
AcDbEntity
8
0
100
AcDbPolyline
90
8
70
1
43
0.0
10
93.737741400000004
20
95.629629198884487
10
79.237741400000004
20
95.629629198884487
42
-0.41421356237309503
10
78.737741400000004
20
96.129629198884487
10
78.737741400000004
20
107.92962919888447
42
-0.41421356237309503
10
79.237741400000004
20
108.42962919888448
10
93.737741400000004
20
108.42962919888448
42
-0.41421356237309503
10
94.237741400000004
20
107.92962919888447
10
94.23774139999999
20
96.129629198884473
42
-0.41421356237309503
0
LWPOLYLINE
5
103
100
AcDbEntity
8
0
100
AcDbPolyline
90
8
70
1
43
0.0
10
56.137741400000003
20
96.129629198884473
10
56.137741400000003
20
107.92962919888447
42
0.41421356237309503
10
55.63774140000001
20
108.42962919888447
10
41.137741400000003
20
108.42962919888448
42
0.41421356237309503
10
40.637741399999996
20
107.92962919888447
10
40.63774140000001
20
96.129629198884473
42
0.41421356237309503
10
41.137741400000003
20
95.629629198884487
10
55.63774140000001
20
95.629629198884487
42
0.41421356237309503
0
LWPOLYLINE
5
104
100
AcDbEntity
8
0
100
AcDbPolyline
90
8
70
1
43
0.0
10
97.787741400000016
20
107.92962919888447
42
-0.41421356237309503
10
98.287741400000016
20
108.42962919888448
10
112.78774140000002
20
108.42962919888448
42
-0.41421356237309503
10
113.28774140000002
20
107.92962919888447
10
113.2877414
20
96.129629198884473
42
-0.41421356237309503
10
112.78774140000002
20
95.629629198884487
10
98.287741400000016
20
95.629629198884473
42
-0.41421356237309503
10
97.787741400000016
20
96.129629198884473
0
LWPOLYLINE
5
105
100
AcDbEntity
8
0
100
AcDbPolyline
90
8
70
1
43
0.0
10
75.187741399999993
20
96.129629198884473
10
75.187741399999993
20
107.92962919888447
42
0.41421356237309503
10
74.687741400000007
20
108.42962919888448
10
60.187741399999993
20
108.42962919888448
42
0.41421356237309503
10
59.687741400000007
20
107.92962919888447
10
59.687741400000007
20
96.129629198884473
42
0.41421356237309503
10
60.187741399999993
20
95.629629198884487
10
74.687741400000007
20
95.629629198884487
42
0.41421356237309503
0
LWPOLYLINE
5
106
100
AcDbEntity
8
0
100
AcDbPolyline
90
8
70
1
43
0.0
10
21.587741400000002
20
96.129629198884473
10
21.587741399999992
20
107.92962919888447
42
-0.41421356237309503
10
22.087741399999999
20
108.42962919888448
10
36.587741400000006
20
108.42962919888447
42
-0.41421356237309503
10
37.087741400000006
20
107.92962919888447
10
37.087741399999999
20
96.129629198884473
42
-0.41421356237309503
10
36.587741400000006
20
95.629629198884487
10
22.087741399999999
20
95.629629198884487
42
-0.41421356237309503
0
LWPOLYLINE
5
107
100
AcDbEntity
8
0
100
AcDbPolyline
90
8
70
1
43
0.0
10
150.88774140000001
20
95.629629198884487
10
136.38774140000001
20
95.629629198884487
42
-0.41421356237309503
10
135.88774140000001
20
96.129629198884473
10
135.88774140000001
20
107.92962919888447
42
-0.41421356237309503
10
136.38774140000001
20
108.42962919888448
10
150.88774140000001
20
108.42962919888447
42
-0.41421356237309503
10
151.38774140000001
20
107.92962919888447
10
151.38774140000001
20
96.129629198884473
42
-0.41421356237309503
0
LWPOLYLINE
5
108
100
AcDbEntity
8
0
100
AcDbPolyline
90
8
70
1
43
0.0
10
227.0877414
20
95.629629198884487
10
212.5877414
20
95.629629198884473
42
-0.41421356237309503
10
212.0877414
20
96.129629198884473
10
212.0877414
20
107.92962919888447
42
-0.41421356237309503
10
212.5877414
20
108.42962919888448
10
227.0877414
20
108.42962919888448
42
-0.41421356237309503
10
227.5877414
20
107.92962919888447
10
227.5877414
20
96.129629198884473
42
-0.41421356237309503
0
LWPOLYLINE
5
109
100
AcDbEntity
8
0
100
AcDbPolyline
90
8
70
1
43
0.0
10
154.93774140000002
20
107.92962919888447
42
-0.41421356237309503
10
155.43774140000002
20
108.42962919888448
10
169.93774139999999
20
108.42962919888448
42
-0.41421356237309503
10
170.43774139999999
20
107.92962919888447
10
170.43774139999996
20
96.129629198884473
42
-0.41421356237309503
10
169.93774139999999
20
95.629629198884487
10
155.43774140000002
20
95.629629198884473
42
-0.41421356237309503
10
154.93774140000002
20
96.129629198884473
0
LWPOLYLINE
5
110
100
AcDbEntity
8
0
100
AcDbPolyline
90
8
70
1
43
0.0
10
246.13774140000001
20
108.42962919888448
10
231.63774140000001
20
108.42962919888448
42
0.41421356237309503
10
231.13774140000001
20
107.92962919888447
10
231.13774140000001
20
96.129629198884473
42
0.41421356237309503
10
231.63774140000001
20
95.629629198884487
10
246.13774140000001
20
95.629629198884487
42
0.41421356237309503
10
246.63774140000001
20
96.129629198884473
10
246.63774140000001
20
107.92962919888447
42
0.41421356237309503
0
LWPOLYLINE
5
111
100
AcDbEntity
8
0
100
AcDbPolyline
90
8
70
1
43
0.0
10
265.18774139999999
20
108.42962919888448
10
250.68774140000002
20
108.42962919888448
42
0.41421356237309503
10
250.18774140000002
20
107.92962919888447
10
250.18774140000002
20
96.129629198884473
42
0.41421356237309503
10
250.68774140000002
20
95.629629198884487
10
265.18774139999999
20
95.629629198884487
42
0.41421356237309503
10
265.68774140000005
20
96.129629198884473
10
265.68774140000005
20
107.92962919888447
42
0.41421356237309503
0
LWPOLYLINE
5
112
100
AcDbEntity
8
0
100
AcDbPolyline
90
8
70
1
43
0.0
10
208.53774140000002
20
96.129629198884473
10
208.53774140000002
20
107.92962919888447
42
0.41421356237309503
10
208.03774140000002
20
108.42962919888448
10
193.53774140000002
20
108.42962919888448
42
0.41421356237309503
10
193.03774140000002
20
107.92962919888447
10
193.03774140000002
20
96.129629198884473
42
0.41421356237309503
10
193.53774140000002
20
95.629629198884487
10
208.03774140000002
20
95.629629198884487
42
0.41421356237309503
0
LWPOLYLINE
5
113
100
AcDbEntity
8
0
100
AcDbPolyline
90
8
70
1
43
0.0
10
284.2377414
20
95.629629198884487
10
269.7377414
20
95.629629198884473
42
-0.41421356237309503
10
269.2377414
20
96.129629198884473
10
269.2377414
20
107.92962919888447
42
-0.41421356237309503
10
269.7377414
20
108.42962919888448
10
284.2377414
20
108.42962919888448
42
-0.41421356237309503
10
284.7377414
20
107.92962919888447
10
284.7377414
20
96.129629198884473
42
-0.41421356237309503
0
LWPOLYLINE
5
114
100
AcDbEntity
8
0
100
AcDbPolyline
90
8
70
1
43
0.0
10
189.48774139999998
20
96.129629198884473
42
-0.41421356237309503
10
188.9877414
20
95.629629198884487
10
174.48774139999998
20
95.629629198884501
42
-0.41421356237309503
10
173.9877414
20
96.129629198884473
10
173.98774139999998
20
107.92962919888447
42
-0.41421356237309503
10
174.48774139999998
20
108.42962919888448
10
188.9877414
20
108.42962919888444
42
-0.41421356237309503
10
189.48774139999998
20
107.92962919888447
0
LWPOLYLINE
5
115
100
AcDbEntity
8
0
100
AcDbPolyline
90
8
70
1
43
0.0
10
17.537741400000002
20
89.379629198884487
10
3.0377414000000025
20
89.379629198884487
42
0.41421356237309503
10
2.537741400000002
20
88.879629198884487
10
2.537741400000002
20
77.079629198884476
42
0.41421356237309503
10
3.0377414000000025
20
76.579629198884476
10
17.537741400000002
20
76.579629198884476
42
0.41421356237309503
10
18.037741400000002
20
77.079629198884476
10
18.037741400000002
20
88.879629198884487
42
0.41421356237309503
0
LWPOLYLINE
5
116
100
AcDbEntity
8
0
100
AcDbPolyline
90
8
70
1
43
0.0
10
78.737741400000004
20
77.079629198884476
10
78.737741400000004
20
88.879629198884487
42
-0.41421356237309503
10
79.237741400000004
20
89.379629198884487
10
93.737741400000004
20
89.379629198884487
42
-0.41421356237309503
10
94.237741400000004
20
88.879629198884487
10
94.237741400000004
20
77.079629198884476
42
-0.41421356237309503
10
93.737741400000004
20
76.579629198884476
10
79.237741400000004
20
76.579629198884476
42
-0.41421356237309503
0
LWPOLYLINE
5
117
100
AcDbEntity
8
0
100
AcDbPolyline
90
8
70
1
43
0.0
10
97.787741400000016
20
88.879629198884487
42
-0.41421356237309503
10
98.287741400000016
20
89.379629198884487
10
112.78774140000002
20
89.379629198884487
42
-0.41421356237309503
10
113.28774140000002
20
88.879629198884487
10
113.28774140000002
20
77.079629198884476
42
-0.41421356237309503
10
112.78774140000002
20
76.579629198884476
10
98.287741400000016
20
76.579629198884476
42
-0.41421356237309503
10
97.787741400000016
20
77.079629198884476
0
LWPOLYLINE
5
118
100
AcDbEntity
8
0
100
AcDbPolyline
90
8
70
1
43
0.0
10
40.637741400000003
20
77.079629198884476
10
40.637741399999996
20
88.879629198884487
42
-0.41421356237309503
10
41.137741400000003
20
89.379629198884487
10
55.63774140000001
20
89.379629198884473
42
-0.41421356237309503
10
56.137741400000003
20
88.879629198884487
10
56.137741400000024
20
77.079629198884476
42
-0.41421356237309503
10
55.63774140000001
20
76.579629198884476
10
41.137741400000003
20
76.57962919888449
42
-0.41421356237309503
0
LWPOLYLINE
5
119
100
AcDbEntity
8
0
100
AcDbPolyline
90
8
70
1
43
0.0
10
21.587741400000002
20
77.079629198884476
10
21.587741399999992
20
88.879629198884487
42
-0.41421356237309503
10
22.087741399999999
20
89.379629198884487
10
36.587741400000006
20
89.379629198884487
42
-0.41421356237309503
10
37.087741400000006
20
88.879629198884487
10
37.087741400000013
20
77.079629198884476
42
-0.41421356237309503
10
36.587741400000006
20
76.579629198884476
10
22.087741399999999
20
76.57962919888449
42
-0.41421356237309503
0
LWPOLYLINE
5
120
100
AcDbEntity
8
0
100
AcDbPolyline
90
8
70
1
43
0.0
10
131.8377414
20
76.579629198884476
10
117.33774140000001
20
76.57962919888449
42
-0.41421356237309503
10
116.83774140000003
20
77.079629198884476
10
116.8377414
20
88.879629198884487
42
-0.41421356237309503
10
117.33774140000001
20
89.379629198884487
10
131.8377414
20
89.379629198884487
42
-0.41421356237309503
10
132.33774140000003
20
88.879629198884487
10
132.33774140000003
20
77.079629198884476
42
-0.41421356237309503
0
LWPOLYLINE
5
121
100
AcDbEntity
8
0
100
AcDbPolyline
90
8
70
1
43
0.0
10
135.88774140000001
20
77.079629198884476
10
135.88774140000001
20
88.879629198884487
42
-0.41421356237309503
10
136.38774140000001
20
89.379629198884487
10
150.88774140000001
20
89.379629198884487
42
-0.41421356237309503
10
151.38774140000004
20
88.879629198884487
10
151.38774140000004
20
77.079629198884476
42
-0.41421356237309503
10
150.88774140000001
20
76.579629198884476
10
136.38774140000001
20
76.57962919888449
42
-0.41421356237309503
0
LWPOLYLINE
5
122
100
AcDbEntity
8
0
100
AcDbPolyline
90
8
70
1
43
0.0
10
60.187741399999993
20
76.57962919888449
42
-0.41421356237309503
10
59.687741400000007
20
77.079629198884476
10
59.687741399999993
20
88.879629198884487
42
-0.41421356237309503
10
60.187741399999993
20
89.379629198884487
10
74.687741400000007
20
89.379629198884473
42
-0.41421356237309503
10
75.187741399999993
20
88.879629198884487
10
75.187741400000021
20
77.079629198884476
42
-0.41421356237309503
10
74.687741400000007
20
76.579629198884476
0
LWPOLYLINE
5
123
100
AcDbEntity
8
0
100
AcDbPolyline
90
8
70
1
43
0.0
10
169.93774139999999
20
89.379629198884487
10
155.43774140000002
20
89.379629198884487
42
0.41421356237309503
10
154.93774140000002
20
88.879629198884487
10
154.93774140000002
20
77.079629198884476
42
0.41421356237309503
10
155.43774140000002
20
76.579629198884476
10
169.93774139999999
20
76.579629198884476
42
0.41421356237309503
10
170.43774139999999
20
77.079629198884476
10
170.43774139999999
20
88.879629198884487
42
0.41421356237309503
0
LWPOLYLINE
5
124
100
AcDbEntity
8
0
100
AcDbPolyline
90
8
70
1
43
0.0
10
208.03774140000002
20
76.579629198884476
10
193.53774140000002
20
76.579629198884476
42
-0.41421356237309503
10
193.03774140000002
20
77.079629198884476
10
193.03774140000002
20
88.879629198884487
42
-0.41421356237309503
10
193.53774140000002
20
89.379629198884487
10
208.03774140000002
20
89.379629198884487
42
-0.41421356237309503
10
208.53774140000002
20
88.879629198884487
10
208.53774140000002
20
77.079629198884476
42
-0.41421356237309503
0
LWPOLYLINE
5
125
100
AcDbEntity
8
0
100
AcDbPolyline
90
8
70
1
43
0.0
10
227.0877414
20
89.379629198884487
42
-0.41421356237309503
10
227.5877414
20
88.879629198884487
10
227.5877414
20
77.079629198884476
42
-0.41421356237309503
10
227.0877414
20
76.579629198884476
10
212.5877414
20
76.579629198884476
42
-0.41421356237309503
10
212.0877414
20
77.079629198884476
10
212.0877414
20
88.879629198884487
42
-0.41421356237309503
10
212.5877414
20
89.379629198884487
0
LWPOLYLINE
5
126
100
AcDbEntity
8
0
100
AcDbPolyline
90
8
70
1
43
0.0
10
231.63774140000001
20
76.579629198884476
42
-0.41421356237309503
10
231.13774140000001
20
77.079629198884476
10
231.13774140000001
20
88.879629198884487
42
-0.41421356237309503
10
231.63774140000001
20
89.379629198884487
10
246.13774140000001
20
89.379629198884487
42
-0.41421356237309503
10
246.63774140000001
20
88.879629198884487
10
246.63774140000001
20
77.079629198884476
42
-0.41421356237309503
10
246.13774140000001
20
76.579629198884476
0
LWPOLYLINE
5
127
100
AcDbEntity
8
0
100
AcDbPolyline
90
8
70
1
43
0.0
10
265.18774139999999
20
89.379629198884487
10
250.68774140000002
20
89.379629198884487
42
0.41421356237309503
10
250.18774140000002
20
88.879629198884487
10
250.18774140000002
20
77.079629198884476
42
0.41421356237309503
10
250.68774140000002
20
76.579629198884476
10
265.18774139999999
20
76.579629198884476
42
0.41421356237309503
10
265.68774140000005
20
77.079629198884476
10
265.68774140000005
20
88.879629198884487
42
0.41421356237309503
0
LWPOLYLINE
5
128
100
AcDbEntity
8
0
100
AcDbPolyline
90
8
70
1
43
0.0
10
174.48774139999998
20
76.579629198884476
42
-0.41421356237309503
10
173.98774139999998
20
77.079629198884476
10
173.98774139999998
20
88.879629198884487
42
-0.41421356237309503
10
174.48774139999998
20
89.379629198884487
10
188.9877414
20
89.379629198884459
42
-0.41421356237309503
10
189.48774139999998
20
88.879629198884487
10
189.4877414
20
77.079629198884476
42
-0.41421356237309503
10
188.9877414
20
76.579629198884476
0
LWPOLYLINE
5
129
100
AcDbEntity
8
0
100
AcDbPolyline
90
8
70
1
43
0.0
10
284.2377414
20
89.379629198884487
10
269.7377414
20
89.379629198884487
42
0.41421356237309503
10
269.2377414
20
88.879629198884487
10
269.2377414
20
77.079629198884476
42
0.41421356237309503
10
269.7377414
20
76.579629198884476
10
284.2377414
20
76.579629198884476
42
0.41421356237309503
10
284.7377414
20
77.079629198884476
10
284.7377414
20
88.879629198884487
42
0.41421356237309503
0
LWPOLYLINE
5
130
100
AcDbEntity
8
0
100
AcDbPolyline
90
8
70
1
43
0.0
10
17.537741400000002
20
70.329629198884476
10
3.0377414000000025
20
70.329629198884476
42
0.41421356237309503
10
2.537741400000002
20
69.829629198884476
10
2.537741400000002
20
58.029629198884479
42
0.41421356237309503
10
3.0377414000000025
20
57.529629198884479
10
17.537741400000002
20
57.529629198884479
42
0.41421356237309503
10
18.037741400000002
20
58.029629198884479
10
18.037741400000002
20
69.829629198884476
42
0.41421356237309503
0
LWPOLYLINE
5
131
100
AcDbEntity
8
0
100
AcDbPolyline
90
8
70
1
43
0.0
10
36.587741400000006
20
70.329629198884476
10
22.087741399999999
20
70.329629198884476
42
0.41421356237309503
10
21.587741400000002
20
69.829629198884476
10
21.587741400000002
20
58.029629198884479
42
0.41421356237309503
10
22.087741399999999
20
57.529629198884479
10
36.587741400000006
20
57.529629198884479
42
0.41421356237309503
10
37.087741400000006
20
58.029629198884479
10
37.087741400000006
20
69.829629198884476
42
0.41421356237309503
0
LWPOLYLINE
5
132
100
AcDbEntity
8
0
100
AcDbPolyline
90
8
70
1
43
0.0
10
55.63774140000001
20
70.329629198884476
10
41.137741400000003
20
70.329629198884476
42
0.41421356237309503
10
40.63774140000001
20
69.829629198884476
10
40.63774140000001
20
58.029629198884479
42
0.41421356237309503
10
41.137741400000003
20
57.529629198884479
10
55.63774140000001
20
57.529629198884479
42
0.41421356237309503
10
56.137741400000003
20
58.029629198884479
10
56.137741400000003
20
69.829629198884476
42
0.41421356237309503
0
LWPOLYLINE
5
133
100
AcDbEntity
8
0
100
AcDbPolyline
90
8
70
1
43
0.0
10
59.687741400000007
20
58.029629198884479
10
59.6877414
20
69.829629198884476
42
-0.41421356237309503
10
60.187741399999993
20
70.329629198884476
10
74.687741400000007
20
70.329629198884462
42
-0.41421356237309503
10
75.187741399999993
20
69.829629198884476
10
75.187741400000007
20
58.029629198884479
42
-0.41421356237309503
10
74.687741400000007
20
57.529629198884479
10
60.187741399999993
20
57.529629198884493
42
-0.41421356237309503
0
LWPOLYLINE
5
134
100
AcDbEntity
8
0
100
AcDbPolyline
90
8
70
1
43
0.0
10
117.33774140000001
20
57.529629198884471
42
-0.41421356237309503
10
116.8377414
20
58.029629198884479
10
116.8377414
20
69.829629198884476
42
-0.41421356237309503
10
117.33774140000001
20
70.329629198884476
10
131.8377414
20
70.32962919888449
42
-0.41421356237309503
10
132.33774140000003
20
69.829629198884476
10
132.33774140000003
20
58.029629198884479
42
-0.41421356237309503
10
131.8377414
20
57.529629198884479
0
LWPOLYLINE
5
135
100
AcDbEntity
8
0
100
AcDbPolyline
90
8
70
1
43
0.0
10
151.38774140000004
20
58.029629198884479
42
-0.41421356237309503
10
150.88774140000001
20
57.529629198884479
10
136.38774140000001
20
57.529629198884471
42
-0.41421356237309503
10
135.88774140000001
20
58.029629198884479
10
135.88774140000001
20
69.829629198884476
42
-0.41421356237309503
10
136.38774140000001
20
70.329629198884476
10
150.88774140000001
20
70.32962919888449
42
-0.41421356237309503
10
151.38774140000004
20
69.829629198884476
0
LWPOLYLINE
5
136
100
AcDbEntity
8
0
100
AcDbPolyline
90
8
70
1
43
0.0
10
97.787741400000016
20
58.029629198884479
10
97.78774140000003
20
69.829629198884476
42
-0.41421356237309503
10
98.287741400000016
20
70.329629198884476
10
112.78774140000002
20
70.32962919888449
42
-0.41421356237309503
10
113.28774140000002
20
69.829629198884476
10
113.2877414
20
58.029629198884479
42
-0.41421356237309503
10
112.78774140000002
20
57.529629198884479
10
98.287741400000016
20
57.529629198884471
42
-0.41421356237309503
0
LWPOLYLINE
5
137
100
AcDbEntity
8
0
100
AcDbPolyline
90
8
70
1
43
0.0
10
169.93774139999999
20
70.329629198884476
10
155.43774140000002
20
70.329629198884476
42
0.41421356237309503
10
154.93774140000002
20
69.829629198884476
10
154.93774140000002
20
58.029629198884479
42
0.41421356237309503
10
155.43774140000002
20
57.529629198884479
10
169.93774139999999
20
57.529629198884479
42
0.41421356237309503
10
170.43774139999999
20
58.029629198884479
10
170.43774139999999
20
69.829629198884476
42
0.41421356237309503
0
LWPOLYLINE
5
138
100
AcDbEntity
8
0
100
AcDbPolyline
90
8
70
1
43
0.0
10
188.9877414
20
70.329629198884476
10
174.48774139999998
20
70.329629198884476
42
0.41421356237309503
10
173.9877414
20
69.829629198884476
10
173.9877414
20
58.029629198884479
42
0.41421356237309503
10
174.48774139999998
20
57.529629198884479
10
188.9877414
20
57.529629198884479
42
0.41421356237309503
10
189.48774139999998
20
58.029629198884479
10
189.48774139999998
20
69.829629198884476
42
0.41421356237309503
0
LWPOLYLINE
5
139
100
AcDbEntity
8
0
100
AcDbPolyline
90
8
70
1
43
0.0
10
94.237741400000004
20
58.029629198884479
10
94.237741400000004
20
69.829629198884476
42
0.41421356237309503
10
93.737741400000004
20
70.329629198884476
10
79.237741400000004
20
70.329629198884476
42
0.41421356237309503
10
78.737741400000004
20
69.829629198884476
10
78.737741400000004
20
58.029629198884479
42
0.41421356237309503
10
79.237741400000004
20
57.529629198884479
10
93.737741400000004
20
57.529629198884479
42
0.41421356237309503
0
LWPOLYLINE
5
140
100
AcDbEntity
8
0
100
AcDbPolyline
90
8
70
1
43
0.0
10
208.53774140000002
20
58.029629198884479
10
208.53774140000002
20
69.829629198884476
42
0.41421356237309503
10
208.03774140000002
20
70.329629198884476
10
193.53774140000002
20
70.329629198884476
42
0.41421356237309503
10
193.03774140000002
20
69.829629198884476
10
193.03774140000002
20
58.029629198884479
42
0.41421356237309503
10
193.53774140000002
20
57.529629198884479
10
208.03774140000002
20
57.529629198884479
42
0.41421356237309503
0
LWPOLYLINE
5
141
100
AcDbEntity
8
0
100
AcDbPolyline
90
8
70
1
43
0.0
10
212.5877414
20
57.529629198884471
42
-0.41421356237309503
10
212.0877414
20
58.029629198884479
10
212.0877414
20
69.829629198884476
42
-0.41421356237309503
10
212.5877414
20
70.329629198884476
10
227.0877414
20
70.32962919888449
42
-0.41421356237309503
10
227.5877414
20
69.829629198884476
10
227.5877414
20
58.029629198884479
42
-0.41421356237309503
10
227.0877414
20
57.529629198884479
0
LWPOLYLINE
5
142
100
AcDbEntity
8
0
100
AcDbPolyline
90
8
70
1
43
0.0
10
265.18774139999999
20
70.32962919888449
42
-0.41421356237309503
10
265.68774140000005
20
69.829629198884476
10
265.68774140000005
20
58.029629198884479
42
-0.41421356237309503
10
265.18774139999999
20
57.529629198884479
10
250.68774140000002
20
57.529629198884471
42
-0.41421356237309503
10
250.18774140000002
20
58.029629198884479
10
250.18774140000002
20
69.829629198884476
42
-0.41421356237309503
10
250.68774140000002
20
70.329629198884476
0
LWPOLYLINE
5
143
100
AcDbEntity
8
0
100
AcDbPolyline
90
8
70
1
43
0.0
10
246.63774140000001
20
58.029629198884479
10
246.63774140000001
20
69.829629198884476
42
0.41421356237309503
10
246.13774140000001
20
70.329629198884476
10
231.63774140000001
20
70.329629198884476
42
0.41421356237309503
10
231.13774140000001
20
69.829629198884476
10
231.13774140000001
20
58.029629198884479
42
0.41421356237309503
10
231.63774140000001
20
57.529629198884479
10
246.13774140000001
20
57.529629198884479
42
0.41421356237309503
0
LWPOLYLINE
5
144
100
AcDbEntity
8
0
100
AcDbPolyline
90
8
70
1
43
0.0
10
284.7377414
20
58.029629198884479
42
-0.41421356237309503
10
284.2377414
20
57.529629198884479
10
269.7377414
20
57.529629198884471
42
-0.41421356237309503
10
269.2377414
20
58.029629198884479
10
269.2377414
20
69.829629198884476
42
-0.41421356237309503
10
269.7377414
20
70.329629198884476
10
284.2377414
20
70.32962919888449
42
-0.41421356237309503
10
284.7377414
20
69.829629198884476
0
LWPOLYLINE
5
145
100
AcDbEntity
8
0
100
AcDbPolyline
90
8
70
1
43
0.0
10
17.537741400000002
20
51.279629198884479
10
3.0377414000000025
20
51.279629198884479
42
0.41421356237309503
10
2.537741400000002
20
50.779629198884479
10
2.537741400000002
20
38.979629198884481
42
0.41421356237309503
10
3.0377414000000025
20
38.479629198884467
10
17.537741400000002
20
38.479629198884467
42
0.41421356237309503
10
18.037741400000002
20
38.979629198884481
10
18.037741400000002
20
50.779629198884479
42
0.41421356237309503
0
LWPOLYLINE
5
146
100
AcDbEntity
8
0
100
AcDbPolyline
90
8
70
1
43
0.0
10
36.587741400000006
20
51.279629198884479
10
22.087741399999999
20
51.279629198884479
42
0.41421356237309503
10
21.587741400000002
20
50.779629198884479
10
21.587741400000002
20
38.979629198884481
42
0.41421356237309503
10
22.087741399999999
20
38.479629198884467
10
36.587741400000006
20
38.479629198884467
42
0.41421356237309503
10
37.087741400000006
20
38.979629198884481
10
37.087741400000006
20
50.779629198884479
42
0.41421356237309503
0
LWPOLYLINE
5
147
100
AcDbEntity
8
0
100
AcDbPolyline
90
8
70
1
43
0.0
10
55.63774140000001
20
51.279629198884479
10
41.137741400000003
20
51.279629198884479
42
0.41421356237309503
10
40.637741400000003
20
50.779629198884479
10
40.637741400000003
20
38.979629198884481
42
0.41421356237309503
10
41.137741400000003
20
38.479629198884467
10
55.63774140000001
20
38.479629198884467
42
0.41421356237309503
10
56.137741400000003
20
38.979629198884481
10
56.137741400000003
20
50.779629198884479
42
0.41421356237309503
0
LWPOLYLINE
5
148
100
AcDbEntity
8
0
100
AcDbPolyline
90
8
70
1
43
0.0
10
113.2877414
20
38.979629198884481
42
-0.41421356237309503
10
112.78774140000002
20
38.479629198884481
10
98.287741400000016
20
38.479629198884467
42
-0.41421356237309503
10
97.787741400000016
20
38.979629198884481
10
97.78774140000003
20
50.779629198884479
42
-0.41421356237309503
10
98.287741400000016
20
51.279629198884471
10
112.78774140000002
20
51.279629198884479
42
-0.41421356237309503
10
113.28774140000002
20
50.779629198884479
0
LWPOLYLINE
5
149
100
AcDbEntity
8
0
100
AcDbPolyline
90
8
70
1
43
0.0
10
135.88774140000001
20
38.979629198884481
10
135.88774140000001
20
50.779629198884479
42
-0.41421356237309503
10
136.38774140000001
20
51.279629198884471
10
150.88774140000001
20
51.279629198884464
42
-0.41421356237309503
10
151.38774140000001
20
50.779629198884479
10
151.38774140000004
20
38.979629198884481
42
-0.41421356237309503
10
150.88774140000001
20
38.479629198884467
10
136.38774140000001
20
38.479629198884489
42
-0.41421356237309503
0
LWPOLYLINE
5
150
100
AcDbEntity
8
0
100
AcDbPolyline
90
8
70
1
43
0.0
10
75.187741400000007
20
38.979629198884481
42
-0.41421356237309503
10
74.687741400000007
20
38.479629198884481
10
60.187741399999993
20
38.479629198884489
42
-0.41421356237309503
10
59.687741400000007
20
38.979629198884481
10
59.687741399999993
20
50.779629198884479
42
-0.41421356237309503
10
60.187741399999993
20
51.279629198884479
10
74.687741400000007
20
51.279629198884464
42
-0.41421356237309503
10
75.187741399999993
20
50.779629198884479
0
LWPOLYLINE
5
151
100
AcDbEntity
8
0
100
AcDbPolyline
90
8
70
1
43
0.0
10
174.48774139999998
20
38.479629198884467
42
-0.41421356237309503
10
173.98774139999998
20
38.979629198884481
10
173.98774139999998
20
50.779629198884479
42
-0.41421356237309503
10
174.48774139999998
20
51.279629198884479
10
188.9877414
20
51.279629198884479
42
-0.41421356237309503
10
189.4877414
20
50.779629198884479
10
189.4877414
20
38.979629198884481
42
-0.41421356237309503
10
188.9877414
20
38.479629198884481
0
LWPOLYLINE
5
152
100
AcDbEntity
8
0
100
AcDbPolyline
90
8
70
1
43
0.0
10
78.737741400000004
20
50.779629198884479
42
-0.41421356237309503
10
79.237741400000004
20
51.279629198884471
10
93.737741400000004
20
51.279629198884479
42
-0.41421356237309503
10
94.237741400000004
20
50.779629198884479
10
94.237741400000004
20
38.979629198884481
42
-0.41421356237309503
10
93.737741400000004
20
38.479629198884467
10
79.237741400000004
20
38.479629198884467
42
-0.41421356237309503
10
78.737741400000004
20
38.979629198884481
0
LWPOLYLINE
5
153
100
AcDbEntity
8
0
100
AcDbPolyline
90
8
70
1
43
0.0
10
208.03774140000002
20
51.279629198884479
10
193.53774140000002
20
51.279629198884479
42
0.41421356237309503
10
193.03774140000002
20
50.779629198884479
10
193.03774140000002
20
38.979629198884481
42
0.41421356237309503
10
193.53774140000002
20
38.479629198884467
10
208.03774140000002
20
38.479629198884467
42
0.41421356237309503
10
208.53774140000002
20
38.979629198884481
10
208.53774140000002
20
50.779629198884479
42
0.41421356237309503
0
LWPOLYLINE
5
154
100
AcDbEntity
8
0
100
AcDbPolyline
90
8
70
1
43
0.0
10
116.8377414
20
50.779629198884479
42
-0.41421356237309503
10
117.33774140000001
20
51.279629198884471
10
131.8377414
20
51.279629198884464
42
-0.41421356237309503
10
132.3377414
20
50.779629198884479
10
132.33774140000003
20
38.979629198884481
42
-0.41421356237309503
10
131.8377414
20
38.479629198884467
10
117.33774140000001
20
38.479629198884489
42
-0.41421356237309503
10
116.83774140000003
20
38.979629198884481
0
LWPOLYLINE
5
155
100
AcDbEntity
8
0
100
AcDbPolyline
90
8
70
1
43
0.0
10
154.93774140000002
20
50.779629198884479
42
-0.41421356237309503
10
155.43774140000002
20
51.279629198884471
10
169.93774139999999
20
51.279629198884479
42
-0.41421356237309503
10
170.43774139999999
20
50.779629198884479
10
170.43774139999999
20
38.979629198884481
42
-0.41421356237309503
10
169.93774139999999
20
38.479629198884467
10
155.43774140000002
20
38.479629198884489
42
-0.41421356237309503
10
154.93774140000002
20
38.979629198884481
0
LWPOLYLINE
5
156
100
AcDbEntity
8
0
100
AcDbPolyline
90
8
70
1
43
0.0
10
246.13774140000001
20
51.279629198884479
42
-0.41421356237309503
10
246.63774140000001
20
50.779629198884479
10
246.63774140000001
20
38.979629198884481
42
-0.41421356237309503
10
246.13774140000001
20
38.479629198884467
10
231.63774140000001
20
38.479629198884467
42
-0.41421356237309503
10
231.13774140000001
20
38.979629198884481
10
231.13774140000001
20
50.779629198884479
42
-0.41421356237309503
10
231.63774140000001
20
51.279629198884479
0
LWPOLYLINE
5
157
100
AcDbEntity
8
0
100
AcDbPolyline
90
8
70
1
43
0.0
10
212.5877414
20
38.479629198884467
42
-0.41421356237309503
10
212.0877414
20
38.979629198884481
10
212.0877414
20
50.779629198884479
42
-0.41421356237309503
10
212.5877414
20
51.279629198884479
10
227.0877414
20
51.279629198884479
42
-0.41421356237309503
10
227.5877414
20
50.779629198884479
10
227.5877414
20
38.979629198884481
42
-0.41421356237309503
10
227.0877414
20
38.479629198884467
0
LWPOLYLINE
5
158
100
AcDbEntity
8
0
100
AcDbPolyline
90
8
70
1
43
0.0
10
265.18774139999999
20
38.479629198884467
10
250.68774140000002
20
38.479629198884467
42
-0.41421356237309503
10
250.18774140000002
20
38.979629198884481
10
250.18774140000002
20
50.779629198884479
42
-0.41421356237309503
10
250.68774140000002
20
51.279629198884479
10
265.18774139999999
20
51.279629198884479
42
-0.41421356237309503
10
265.68774140000005
20
50.779629198884479
10
265.68774140000005
20
38.979629198884481
42
-0.41421356237309503
0
LWPOLYLINE
5
159
100
AcDbEntity
8
0
100
AcDbPolyline
90
8
70
1
43
0.0
10
284.7377414
20
38.979629198884481
10
284.7377414
20
50.779629198884479
42
0.41421356237309503
10
284.2377414
20
51.279629198884471
10
269.7377414
20
51.279629198884471
42
0.41421356237309503
10
269.2377414
20
50.779629198884479
10
269.2377414
20
38.979629198884481
42
0.41421356237309503
10
269.7377414
20
38.479629198884481
10
284.2377414
20
38.479629198884481
42
0.41421356237309503
0
LWPOLYLINE
5
160
100
AcDbEntity
8
0
100
AcDbPolyline
90
8
70
1
43
0.0
10
22.300241400000004
20
32.229629198884467
10
7.8002414000000018
20
32.229629198884467
42
0.41421356237309503
10
7.3002414000000027
20
31.729629198884474
10
7.3002414000000027
20
19.929629198884484
42
0.41421356237309503
10
7.8002414000000009
20
19.429629198884477
10
22.300241400000004
20
19.429629198884477
42
0.41421356237309503
10
22.800241400000001
20
19.929629198884484
10
22.800241400000001
20
31.729629198884474
42
0.41421356237309503
0
LWPOLYLINE
5
161
100
AcDbEntity
8
0
100
AcDbPolyline
90
8
70
1
43
0.0
10
46.112741400000004
20
32.229629198884467
10
31.612741400000004
20
32.229629198884467
42
0.41421356237309503
10
31.112741400000004
20
31.729629198884474
10
31.112741400000004
20
19.929629198884484
42
0.41421356237309503
10
31.612741400000004
20
19.429629198884477
10
46.112741400000004
20
19.429629198884477
42
0.41421356237309503
10
46.612741399999997
20
19.929629198884484
10
46.612741399999997
20
31.729629198884474
42
0.41421356237309503
0
LWPOLYLINE
5
162
100
AcDbEntity
8
0
100
AcDbPolyline
90
8
70
1
43
0.0
10
69.925241400000004
20
32.229629198884467
10
55.425241400000012
20
32.229629198884467
42
0.41421356237309503
10
54.925241400000004
20
31.729629198884474
10
54.925241400000004
20
19.929629198884484
42
0.41421356237309503
10
55.425241400000012
20
19.429629198884477
10
69.925241400000004
20
19.429629198884477
42
0.41421356237309503
10
70.42524139999999
20
19.929629198884484
10
70.42524139999999
20
31.729629198884474
42
0.41421356237309503
0
LWPOLYLINE
5
163
100
AcDbEntity
8
0
100
AcDbPolyline
90
8
70
1
43
0.0
10
93.737741400000004
20
32.229629198884467
10
79.237741400000004
20
32.229629198884467
42
0.41421356237309503
10
78.737741400000004
20
31.729629198884474
10
78.737741400000004
20
19.929629198884484
42
0.41421356237309503
10
79.237741400000004
20
19.429629198884477
10
93.737741400000004
20
19.429629198884477
42
0.41421356237309503
10
94.237741400000004
20
19.929629198884484
10
94.237741400000004
20
31.729629198884474
42
0.41421356237309503
0
LWPOLYLINE
5
164
100
AcDbEntity
8
0
100
AcDbPolyline
90
8
70
1
43
0.0
10
122.31274140000002
20
32.229629198884467
10
107.81274140000001
20
32.229629198884467
42
0.41421356237309503
10
107.31274139999999
20
31.729629198884474
10
107.31274139999999
20
19.929629198884484
42
0.41421356237309503
10
107.81274140000001
20
19.429629198884477
10
122.31274140000002
20
19.429629198884477
42
0.41421356237309503
10
122.81274140000001
20
19.929629198884484
10
122.81274140000002
20
31.729629198884474
42
0.41421356237309503
0
LWPOLYLINE
5
165
100
AcDbEntity
8
0
100
AcDbPolyline
90
8
70
1
43
0.0
10
164.96274139999997
20
19.429629198884477
42
-0.41421356237309503
10
164.46274139999997
20
19.929629198884484
10
164.46274139999997
20
31.729629198884474
42
-0.41421356237309503
10
164.96274139999997
20
32.229629198884467
10
179.4627414
20
32.229629198884481
42
-0.41421356237309503
10
179.9627414
20
31.729629198884474
10
179.9627414
20
19.929629198884484
42
-0.41421356237309503
10
179.4627414
20
19.429629198884477
0
LWPOLYLINE
5
166
100
AcDbEntity
8
0
100
AcDbPolyline
90
8
70
1
43
0.0
10
135.88774140000001
20
19.929629198884484
10
135.88774140000001
20
31.729629198884474
42
-0.41421356237309503
10
136.38774140000001
20
32.229629198884467
10
150.88774140000001
20
32.229629198884481
42
-0.41421356237309503
10
151.38774140000004
20
31.729629198884474
10
151.38774140000004
20
19.929629198884484
42
-0.41421356237309503
10
150.88774140000001
20
19.429629198884477
10
136.38774140000001
20
19.429629198884495
42
-0.41421356237309503
0
LWPOLYLINE
5
167
100
AcDbEntity
8
0
100
AcDbPolyline
90
10
70
1
43
0.0
10
208.03774140000002
20
32.229629198884467
10
193.53774140000002
20
32.229629198884467
42
0.41421356237309503
10
193.03774140000002
20
31.729629198884474
10
193.03774140000002
20
28.899937816235621
42
1.905698340949435
10
193.03774140000002
20
24.192284344908288
10
193.03774140000002
20
19.929629198884484
42
0.41421356237309503
10
193.53774140000002
20
19.429629198884477
10
208.03774140000002
20
19.429629198884477
42
0.41421356237309503
10
208.53774140000002
20
19.929629198884484
10
208.53774140000002
20
31.729629198884474
42
0.41421356237309503
0
LWPOLYLINE
5
168
100
AcDbEntity
8
0
100
AcDbPolyline
90
8
70
1
43
0.0
10
232.35024140000002
20
19.929629198884484
10
232.35024140000002
20
31.729629198884474
42
0.41421356237309503
10
231.85024139999999
20
32.229629198884467
10
217.35024140000002
20
32.229629198884467
42
0.41421356237309503
10
216.85024139999999
20
31.729629198884474
10
216.85024139999999
20
19.929629198884484
42
0.41421356237309503
10
217.35024140000002
20
19.429629198884477
10
231.85024139999999
20
19.429629198884477
42
0.41421356237309503
0
LWPOLYLINE
5
169
100
AcDbEntity
8
0
100
AcDbPolyline
90
8
70
1
43
0.0
10
241.16274140000002
20
19.429629198884477
42
-0.41421356237309503
10
240.66274140000002
20
19.929629198884484
10
240.66274140000002
20
31.729629198884474
42
-0.41421356237309503
10
241.16274140000002
20
32.229629198884467
10
255.66274140000002
20
32.229629198884481
42
-0.41421356237309503
10
256.16274140000002
20
31.729629198884474
10
256.16274140000002
20
19.929629198884484
42
-0.41421356237309503
10
255.66274140000002
20
19.429629198884477
0
LWPOLYLINE
5
170
100
AcDbEntity
8
0
100
AcDbPolyline
90
8
70
1
43
0.0
10
279.97524140000002
20
19.929629198884484
10
279.97524140000002
20
31.729629198884474
42
0.41421356237309503
10
279.47524139999996
20
32.229629198884467
10
264.97524140000002
20
32.229629198884467
42
0.41421356237309503
10
264.47524139999996
20
31.729629198884474
10
264.47524139999996
20
19.929629198884484
42
0.41421356237309503
10
264.97524140000002
20
19.429629198884477
10
279.47524139999996
20
19.429629198884477
42
0.41421356237309503
0
LWPOLYLINE
5
171
100
AcDbEntity
8
0
100
AcDbPolyline
90
8
70
1
43
0.0
10
102.39774140000002
20
34.414629198884498
10
102.39774140000003
20
30.204629198884483
42
-0.41421356237309503
10
101.89774140000003
20
29.704629198884476
10
100.22774140000001
20
29.704629198884476
42
-0.41421356237309503
10
99.727741399999999
20
30.204629198884483
10
99.727741399999999
20
34.414629198884498
42
-0.41421356237309503
10
100.22774140000001
20
34.914629198884498
10
101.89774140000003
20
34.914629198884484
42
-0.41421356237309503
0
LWPOLYLINE
5
172
100
AcDbEntity
8
0
100
AcDbPolyline
90
8
70
1
43
0.0
10
127.72774140000003
20
34.414629198884498
42
-0.41421356237309503
10
128.22774140000001
20
34.914629198884484
10
129.8977414
20
34.914629198884498
42
-0.41421356237309503
10
130.3977414
20
34.414629198884498
10
130.3977414
20
30.204629198884483
42
-0.41421356237309503
10
129.8977414
20
29.704629198884476
10
128.22774140000001
20
29.704629198884476
42
-0.41421356237309503
10
127.72774140000001
20
30.204629198884483
0
LWPOLYLINE
5
173
100
AcDbEntity
8
0
100
AcDbPolyline
90
8
70
1
43
0.0
10
156.87774140000002
20
34.414629198884498
10
156.87774140000002
20
30.204629198884483
42
0.41421356237309503
10
157.37774140000002
20
29.704629198884476
10
159.04774140000001
20
29.704629198884476
42
0.41421356237309503
10
159.54774140000001
20
30.204629198884483
10
159.54774140000001
20
34.414629198884498
42
0.41421356237309503
10
159.04774140000001
20
34.914629198884484
10
157.37774140000002
20
34.914629198884484
42
0.41421356237309503
0
LWPOLYLINE
5
174
100
AcDbEntity
8
0
100
AcDbPolyline
90
8
70
1
43
0.0
10
187.04774139999998
20
34.914629198884498
42
-0.41421356237309503
10
187.54774139999998
20
34.414629198884498
10
187.54774139999998
20
30.204629198884483
42
-0.41421356237309503
10
187.04774139999998
20
29.704629198884476
10
185.37774139999999
20
29.704629198884476
42
-0.41421356237309503
10
184.87774139999999
20
30.204629198884483
10
184.87774139999999
20
34.414629198884498
42
-0.41421356237309503
10
185.37774139999999
20
34.914629198884498
0
LWPOLYLINE
5
175
100
AcDbEntity
8
0
100
AcDbPolyline
90
36
70
1
43
0.0
10
0.95084599999999964
20
52.229629198884453
10
5.4508460017999916
20
52.229629198884453
10
6.0682060017999913
20
52.327729198884455
10
6.6249260017999916
20
52.611329198884462
10
7.0672760017999892
20
53.053729198884454
10
7.3511560017999873
20
53.611829198884458
10
7.4489760017999886
20
54.229129198884465
10
7.3511560017999873
20
54.849329198884448
10
7.0672760017999892
20
55.404629198884464
10
6.6249260017999916
20
55.848429198884446
10
6.0682060017999913
20
56.132429198884438
10
5.4508460017999916
20
56.230129198884455
10
0.95084600179999978
20
56.230129198884455
10
0.95084599999999986
20
57.229129198884465
10
0.95084600000000075
20
108.89152919888446
42
-0.41421356237309481
10
3.4508459999999985
20
111.39152919888446
10
283.82576140000009
20
111.39152919888446
42
-0.41421356237309087
10
286.32576140000003
20
108.89152919888446
10
286.32576140000003
20
57.229129198884465
10
286.32576139820003
20
56.230129198884427
10
281.82576139820009
20
56.230129198884427
10
281.20676139820006
20
56.132429198884424
10
280.64976139820004
20
55.848429198884432
10
280.20576139820008
20
55.404629198884422
10
279.92276139820007
20
54.849329198884433
10
279.82576139820009
20
54.230629198884436
10
279.92276139820007
20
53.611829198884436
10
280.20576139820008
20
53.053729198884447
10
280.64976139820004
20
52.611329198884462
10
281.20676139820006
20
52.327729198884455
10
281.82576139820009
20
52.229629198884453
10
286.32576140000003
20
52.229629198884453
10
286.32576140000003
20
18.965484198884468
42
-0.41421356237308699
10
283.82576140000015
20
16.465484198884464
10
3.4508459999999985
20
16.465484198884464
42
-0.41421356237309476
10
0.95084600000000075
20
18.965484198884468
0
ENDSEC
0
SECTION
2
OBJECTS
0
DICTIONARY
5
C
100
AcDbDictionary
3
ACAD_GROUP
350
D
3
ACAD_MLINESTYLE
350
17
0
DICTIONARY
5
D
100
AcDbDictionary
0
DICTIONARY
5
1A
330
C
100
AcDbDictionary
0
DICTIONARY
5
17
100
AcDbDictionary
0
ENDSEC
0
EOF
