0
SECTION
2
HEADER
9
$INSUNITS
70
4
9
$ACADVER
1
AC1014
9
$HANDSEED
5
FFFF
0
ENDSEC
0
SECTION
2
TABLES
0
TABLE
2
VPORT
5
8
100
AcDbSymbolTable
0
ENDTAB
0
TABLE
2
LTYPE
5
5
100
AcDbSymbolTable
0
LTYPE
5
14
100
AcDbSymbolTableRecord
100
AcDbLinetypeTableRecord
2
BYBLOCK
70
0
0
LTYPE
5
15
100
AcDbSymbolTableRecord
100
AcDbLinetypeTableRecord
2
BYLAYER
70
0
0
ENDTAB
0
TABLE
2
LAYER
5
2
100
AcDbSymbolTable
70
2
0
LAYER
5
50
100
AcDbSymbolTableRecord
100
AcDbLayerTableRecord
2
0
70
0
6
CONTINUOUS
0
ENDTAB
0
TABLE
2
STYLE
5
3
100
AcDbSymbolTable
70
1
0
STYLE
5
11
100
AcDbSymbolTableRecord
100
AcDbTextStyleTableRecord
2
STANDARD
70
0
0
ENDTAB
0
TABLE
2
VIEW
5
6
100
AcDbSymbolTable
70
0
0
ENDTAB
0
TABLE
2
UCS
5
7
100
AcDbSymbolTable
70
0
0
ENDTAB
0
TABLE
2
APPID
5
9
100
AcDbSymbolTable
70
2
0
APPID
5
12
100
AcDbSymbolTableRecord
100
AcDbRegAppTableRecord
2
ACAD
70
0
0
ENDTAB
0
TABLE
2
DIMSTYLE
5
A
100
AcDbSymbolTable
70
1
0
ENDTAB
0
TABLE
2
BLOCK_RECORD
5
1
100
AcDbSymbolTable
70
1
0
BLOCK_RECORD
5
1F
100
AcDbSymbolTableRecord
100
AcDbBlockTableRecord
2
*MODEL_SPACE
0
BLOCK_RECORD
5
1B
100
AcDbSymbolTableRecord
100
AcDbBlockTableRecord
2
*PAPER_SPACE
0
ENDTAB
0
ENDSEC
0
SECTION
2
BLOCKS
0
BLOCK
5
20
100
AcDbEntity
100
AcDbBlockBegin
2
*MODEL_SPACE
0
ENDBLK
5
21
100
AcDbEntity
100
AcDbBlockEnd
0
BLOCK
5
1C
100
AcDbEntity
100
AcDbBlockBegin
2
*PAPER_SPACE
0
ENDBLK
5
1D
100
AcDbEntity
100
AcDbBlockEnd
0
ENDSEC
0
SECTION
2
ENTITIES
0
LINE
5
100
100
AcDbEntity
8
0
100
AcDbLine
10
286.32576140000003
20
38.051694999999995
30
0
11
286.32576140000003
21
4.787550000000012
31
0
0
LWPOLYLINE
5
101
100
AcDbEntity
8
0
100
AcDbPolyline
90
8
70
1
43
0.0
10
254.91276140000002
20
18.651795
10
241.91176139999999
20
18.651795
42
0.4142135623730937
10
241.41176140000002
20
18.151795
10
241.41176139999999
20
5.1522649999999999
42
0.41421356237309503
10
241.91176139999999
20
4.652264999999999
10
254.91276140000002
20
4.6522649999999999
42
0.4142135623730957
10
255.41276140000005
20
5.1522650000000025
10
255.41276140000005
20
18.151795
42
0.4142135623730937
0
LINE
5
102
100
AcDbEntity
8
0
100
AcDbLine
10
286.32576140000003
20
94.713594999999998
30
0
11
286.32576140000003
21
43.051195000000007
31
0
0
LWPOLYLINE
5
103
100
AcDbEntity
8
0
100
AcDbPolyline
90
8
70
1
43
0.0
10
279.22476140000003
20
5.1522649999999892
10
279.22476140000003
20
18.151795
42
0.41421356237311585
10
278.72476139999998
20
18.651795
10
265.72576140000001
20
18.651795
42
0.41421356237309503
10
265.22576140000001
20
18.151794999999996
10
265.22576140000001
20
5.152264999999999
42
0.41421356237309698
10
265.72576140000001
20
4.652264999999999
10
278.72476140000003
20
4.6522649999999892
42
0.41421356237309503
0
LWPOLYLINE
5
104
100
AcDbEntity
8
0
100
AcDbPolyline
90
8
70
1
43
0.0
10
218.10076140000004
20
4.6522650000000008
10
231.09976140000003
20
4.6522650000000008
42
0.41421356237309437
10
231.59976140000003
20
5.1522649999999981
10
231.59976140000003
20
18.151795
42
0.4142135623730937
10
231.09976140000003
20
18.651795
10
218.10076140000004
20
18.651795
42
0.41421356237309631
10
217.60076140000007
20
18.151794999999996
10
217.6007614000001
20
5.1522650000000016
42
0.4142135623730957
0
LWPOLYLINE
5
105
100
AcDbEntity
8
0
100
AcDbPolyline
90
31
70
1
43
0.0
10
92.988861400000005
20
4.6522649999999999
10
79.98816140000001
20
4.6522650000000016
42
-0.41421356237309503
10
79.48816140000001
20
5.1522649999999999
10
79.488161399999996
20
18.151795
42
-0.41421356237310025
10
79.98816140000001
20
18.651795000000003
10
84.339061399999991
20
18.651795
10
88.637961400000023
20
18.651795
10
92.988861400000005
20
18.651794999999996
42
-0.41421356237308854
10
93.488861400000019
20
18.151795
10
93.488861400000019
20
14.368226881687502
10
98.538161400000007
20
14.368226881687502
10
98.538161400000007
20
18.151795
42
-0.41421356237306772
10
99.038161400000021
20
18.651794999999996
10
101.01276140000002
20
18.651795
10
105.31276140000003
20
18.651795
10
122.06276140000001
20
18.651795
10
129.83776140000001
20
18.651794999999996
42
-0.41421356237308854
10
130.33776140000001
20
18.151795
10
130.33776140000001
20
13.952595000000001
10
130.33776140000001
20
9.3527550000000002
10
130.33776140000001
20
6.1226149999999997
10
130.33776140000001
20
5.1522649999999999
42
-0.41421356237308982
10
129.83776140000001
20
4.6522649999999999
10
122.06276140000001
20
4.6522649999999999
10
99.038161400000035
20
4.6522650000000016
42
-0.414213562373069
10
98.538161400000007
20
5.1522649999999999
10
98.538161400000007
20
9.3527550000000002
10
98.538161400000007
20
10.368126881687495
10
93.488861400000019
20
10.368126881687495
10
93.488861400000019
20
9.3527550000000002
10
93.488861400000019
20
5.1522649999999999
42
-0.41421356237309503
0
LINE
5
106
100
AcDbEntity
8
0
100
AcDbLine
10
0.95084600000000075
20
4.787550000000012
30
0
11
0.95084600000000008
21
38.051694999999995
31
0
0
LINE
5
107
100
AcDbEntity
8
0
100
AcDbLine
10
283.82576140000015
20
2.287550000000012
30
0
11
3.4508460000000052
21
2.2875500000000129
31
0
0
LINE
5
108
100
AcDbEntity
8
0
100
AcDbLine
10
3.4508459999999985
20
97.213594999999998
30
0
11
283.82576140000009
21
97.213594999999998
31
0
0
LINE
5
109
100
AcDbEntity
8
0
100
AcDbLine
10
0.95084599999999986
20
43.051195000000007
30
0
11
0.95084600000000019
21
94.713594999999998
31
0
0
LWPOLYLINE
5
110
100
AcDbEntity
8
0
100
AcDbPolyline
90
33
70
1
43
0.0
10
188.23876139999999
20
4.6522649999999999
10
165.21276140000001
20
4.6522649999999999
10
157.4377614
20
4.6522650000000016
42
-0.41421356237308982
10
156.9377614
20
5.1522649999999999
10
156.9377614
20
6.1226149999999997
10
156.9377614
20
9.3527550000000002
10
156.9377614
20
13.952595000000001
10
156.9377614
20
18.151795
42
-0.41421356237308854
10
157.4377614
20
18.651795
10
164.83776140000003
20
18.651795
10
181.96376140000001
20
18.651795
10
186.26376140000002
20
18.651795
10
188.23876139999999
20
18.651794999999993
42
-0.41421356237312756
10
188.73876139999999
20
18.151795
10
188.73876139999999
20
14.368226881687502
10
191.64115601878922
20
14.368226881687502
10
193.78676139999999
20
14.368226881687502
10
193.78676139999999
20
18.151795
42
-0.41421356237311585
10
194.28676140000005
20
18.651795000000007
10
198.63876139999999
20
18.651795
10
202.93676140000002
20
18.651795
10
207.28776140000011
20
18.651795000000007
42
-0.4142135623730534
10
207.78776140000005
20
18.151795
10
207.78776140000005
20
5.1522649999999999
42
-0.41421356237309503
10
207.28776140000005
20
4.6522650000000008
10
194.28676139999999
20
4.6522649999999901
42
-0.41421356237309698
10
193.78676139999999
20
5.1522649999999999
10
193.78676139999999
20
9.3527550000000002
10
193.78676139999999
20
10.368126881687495
10
191.64115601878922
20
10.368126881687495
10
188.73876139999999
20
10.368126881687495
10
188.73876139999999
20
9.3527550000000002
10
188.73876139999999
20
5.1522649999999999
42
-0.41421356237312817
0
LWPOLYLINE
5
111
100
AcDbEntity
8
0
100
AcDbPolyline
90
12
70
1
43
0.0
10
136.63776140000004
20
5.152264999999999
10
136.63776140000004
20
9.3527550000000002
10
136.63776140000004
20
13.952595000000001
10
136.63776140000004
20
18.151795
42
-0.41421356237310542
10
137.13776140000004
20
18.651795000000007
10
150.13876139999996
20
18.651795000000007
42
-0.41421356237309503
10
150.63876139999996
20
18.151795
10
150.63876139999999
20
13.952595000000001
10
150.63876139999999
20
9.3527550000000002
10
150.63876139999999
20
5.152264999999999
42
-0.4142135623730846
10
150.13876140000002
20
4.652264999999999
10
137.13776140000004
20
4.6522649999999919
42
-0.41421356237309503
0
LWPOLYLINE
5
112
100
AcDbEntity
8
0
100
AcDbPolyline
90
8
70
1
43
0.0
10
45.362461400000001
20
18.651795
10
32.361661400000003
20
18.651795
42
0.4142135623730937
10
31.861661400000003
20
18.151795
10
31.861661400000006
20
5.1522650000000025
42
0.41421356237309503
10
32.361661400000003
20
4.6522650000000016
10
45.362461400000001
20
4.6522650000000016
42
0.41421356237309503
10
45.862461400000001
20
5.1522650000000025
10
45.862461399999994
20
18.151794999999996
42
0.41421356237309764
0
LWPOLYLINE
5
113
100
AcDbEntity
8
0
100
AcDbPolyline
90
8
70
1
43
0.0
10
22.049961400000001
20
5.1522649999999981
10
22.049961400000001
20
18.151795
42
0.41421356237309503
10
21.549961400000001
20
18.651795
10
8.5504914000000021
20
18.651795000000003
42
0.41421356237309503
10
8.0504914000000021
20
18.151795
10
8.0504914000000021
20
5.1522649999999981
42
0.41421356237309503
10
8.5504914000000021
20
4.6522649999999981
10
21.549961400000001
20
4.6522649999999972
42
0.41421356237309503
0
LWPOLYLINE
5
114
100
AcDbEntity
8
0
100
AcDbPolyline
90
8
70
1
43
0.0
10
55.674261400000006
20
18.151795
10
55.674261400000006
20
5.1522650000000034
42
0.41421356237309503
10
56.174261399999999
20
4.6522650000000034
10
69.174961400000001
20
4.6522650000000034
42
0.41421356237308982
10
69.674961400000001
20
5.1522650000000052
10
69.674961400000001
20
18.151795000000003
42
0.41421356237309503
10
69.174961400000001
20
18.651795000000003
10
56.174261400000006
20
18.651795000000003
42
0.41421356237310025
0
ARC
5
115
100
AcDbEntity
8
0
100
AcDbCircle
10
3.4508460000000007
20
94.713594999999998
30
0
40
2.5
210
0
220
0
230
1
100
AcDbArc
50
90.000000000000057
51
180
0
ARC
5
116
100
AcDbEntity
8
0
100
AcDbCircle
10
3.4508460000000007
20
4.787550000000012
30
0
40
2.5
210
0
220
0
230
1
100
AcDbArc
50
180
51
270.00000000000011
0
ARC
5
117
100
AcDbEntity
8
0
100
AcDbCircle
10
283.82576140000003
20
4.787550000000012
30
0
40
2.4999999999999996
210
-0
220
0
230
1
100
AcDbArc
50
-89.999999999997399
51
0
0
ARC
5
118
100
AcDbEntity
8
0
100
AcDbCircle
10
283.82576140000003
20
94.713594999999998
30
0
40
2.5
210
0
220
0
230
1
100
AcDbArc
50
0
51
89.999999999998693
0
LINE
5
119
100
AcDbEntity
8
0
100
AcDbLine
10
281.82576139820009
20
42.052194999999976
30
0
11
286.32576139820003
21
42.052194999999976
31
0
0
LINE
5
120
100
AcDbEntity
8
0
100
AcDbLine
10
279.82576139820009
20
40.052694999999979
30
0
11
279.92276139820007
21
40.671394999999976
31
0
0
LINE
5
121
100
AcDbEntity
8
0
100
AcDbLine
10
279.92276139820007
20
39.433894999999993
30
0
11
279.82576139820009
21
40.052694999999979
31
0
0
LINE
5
122
100
AcDbEntity
8
0
100
AcDbLine
10
280.64976139820004
20
38.433395000000004
30
0
11
280.20576139820008
21
38.875794999999997
31
0
0
LINE
5
123
100
AcDbEntity
8
0
100
AcDbLine
10
280.20576139820008
20
41.226694999999971
30
0
11
280.64976139820004
21
41.670494999999974
31
0
0
LINE
5
124
100
AcDbEntity
8
0
100
AcDbLine
10
286.32576140000003
20
38.051694999999995
30
0
11
281.82576139820009
21
38.051694999999995
31
0
0
LINE
5
125
100
AcDbEntity
8
0
100
AcDbLine
10
281.20676139820006
20
38.149795000000005
30
0
11
280.64976139820004
21
38.433395000000004
31
0
0
LINE
5
126
100
AcDbEntity
8
0
100
AcDbLine
10
279.92276139820007
20
40.671394999999976
30
0
11
280.20576139820008
21
41.226694999999971
31
0
0
LINE
5
127
100
AcDbEntity
8
0
100
AcDbLine
10
280.20576139820008
20
38.875794999999997
30
0
11
279.92276139820007
21
39.433894999999993
31
0
0
LINE
5
128
100
AcDbEntity
8
0
100
AcDbLine
10
281.20676139820006
20
41.954494999999966
30
0
11
281.82576139820009
21
42.052194999999976
31
0
0
LINE
5
129
100
AcDbEntity
8
0
100
AcDbLine
10
281.82576139820009
20
38.051694999999995
30
0
11
281.20676139820006
21
38.149795000000005
31
0
0
LINE
5
130
100
AcDbEntity
8
0
100
AcDbLine
10
280.64976139820004
20
41.670494999999974
30
0
11
281.20676139820006
21
41.954494999999966
31
0
0
LINE
5
131
100
AcDbEntity
8
0
100
AcDbLine
10
286.32576139820003
20
42.052194999999976
30
0
11
286.32576140000003
21
43.051195000000007
31
0
0
LINE
5
132
100
AcDbEntity
8
0
100
AcDbLine
10
7.0672760017999892
20
41.226695000000007
30
0
11
7.3511560017999873
21
40.671394999999997
31
0
0
LINE
5
133
100
AcDbEntity
8
0
100
AcDbLine
10
6.6249260017999916
20
38.433395000000004
30
0
11
6.0682060017999913
21
38.149795000000005
31
0
0
LINE
5
134
100
AcDbEntity
8
0
100
AcDbLine
10
7.4489760017999886
20
40.051195000000007
30
0
11
7.3511560017999873
21
39.433895000000007
31
0
0
LINE
5
135
100
AcDbEntity
8
0
100
AcDbLine
10
5.4508460017999916
20
38.051694999999995
30
0
11
0.95084599999999964
21
38.051694999999995
31
0
0
LINE
5
136
100
AcDbEntity
8
0
100
AcDbLine
10
6.0682060017999913
20
38.149795000000005
30
0
11
5.4508460017999916
21
38.051694999999995
31
0
0
LINE
5
137
100
AcDbEntity
8
0
100
AcDbLine
10
7.0672760017999892
20
38.875795000000004
30
0
11
6.6249260017999916
21
38.433395000000004
31
0
0
LINE
5
138
100
AcDbEntity
8
0
100
AcDbLine
10
0.95084600179999978
20
42.052194999999998
30
0
11
5.4508460017999916
21
42.052194999999998
31
0
0
LINE
5
139
100
AcDbEntity
8
0
100
AcDbLine
10
7.3511560017999873
20
39.433895000000007
30
0
11
7.0672760017999892
21
38.875795000000004
31
0
0
LINE
5
140
100
AcDbEntity
8
0
100
AcDbLine
10
6.0682060017999913
20
41.954494999999987
30
0
11
6.6249260017999916
21
41.670494999999988
31
0
0
LINE
5
141
100
AcDbEntity
8
0
100
AcDbLine
10
6.6249260017999916
20
41.670494999999988
30
0
11
7.0672760017999892
21
41.226695000000007
31
0
0
LINE
5
142
100
AcDbEntity
8
0
100
AcDbLine
10
5.4508460017999916
20
42.052194999999998
30
0
11
6.0682060017999913
21
41.954494999999987
31
0
0
LINE
5
143
100
AcDbEntity
8
0
100
AcDbLine
10
7.3511560017999873
20
40.671394999999997
30
0
11
7.4489760017999886
21
40.051195000000007
31
0
0
LINE
5
144
100
AcDbEntity
8
0
100
AcDbLine
10
0.95084599999999986
20
43.051195000000007
30
0
11
0.95084600179999978
21
42.052194999999998
31
0
0
LWPOLYLINE
5
145
100
AcDbEntity
8
0
100
AcDbPolyline
90
8
70
1
43
0.0
10
16.787741400000005
20
94.851695000000007
10
3.7877413999999954
20
94.851695000000007
42
0.4142135623730846
10
3.2877413999999927
20
94.351695000000021
10
3.2877413999999971
20
81.351695000000021
42
0.41421356237309503
10
3.7877413999999954
20
80.851695000000007
10
16.787741399999998
20
80.851695000000007
42
0.414213562373069
10
17.287741399999998
20
81.351695000000021
10
17.287741400000005
20
94.351695000000021
42
0.4142135623730846
0
LWPOLYLINE
5
146
100
AcDbEntity
8
0
100
AcDbPolyline
90
8
70
1
43
0.0
10
36.337741399999999
20
81.351695000000021
10
36.337741400000006
20
94.351695000000021
42
0.4142135623730846
10
35.837741400000013
20
94.851695000000007
10
22.837741399999999
20
94.851695000000007
42
0.4142135623730846
10
22.337741399999995
20
94.351695000000021
10
22.337741399999999
20
81.351695000000021
42
0.41421356237309503
10
22.837741399999999
20
80.851695000000007
10
35.837741399999999
20
80.851695000000007
42
0.414213562373069
0
LWPOLYLINE
5
147
100
AcDbEntity
8
0
100
AcDbPolyline
90
8
70
1
43
0.0
10
73.937741400000021
20
94.851695000000007
10
60.937741400000007
20
94.851695000000007
42
0.4142135623730846
10
60.4377414
20
94.351695000000021
10
60.437741400000007
20
81.351695000000021
42
0.41421356237309503
10
60.937741400000007
20
80.851695000000007
10
73.937741400000021
20
80.851695000000007
42
0.41421356237306384
10
74.437741400000007
20
81.351695000000021
10
74.437741400000021
20
94.351695000000021
42
0.4142135623730846
0
LWPOLYLINE
5
148
100
AcDbEntity
8
0
100
AcDbPolyline
90
8
70
1
43
0.0
10
54.88774140000001
20
94.851695000000007
10
41.887741400000003
20
94.851695000000007
42
0.4142135623730846
10
41.38774140000001
20
94.351695000000021
10
41.38774140000001
20
81.351695000000021
42
0.41421356237309503
10
41.887741400000003
20
80.851695000000007
10
54.887741400000003
20
80.851695000000007
42
0.41421356237307422
10
55.38774140000001
20
81.351695000000021
10
55.38774140000001
20
94.351695000000021
42
0.4142135623730846
0
LWPOLYLINE
5
149
100
AcDbEntity
8
0
100
AcDbPolyline
90
8
70
1
43
0.0
10
137.13774140000001
20
80.851695000000007
42
-0.41421356237309503
10
136.63774140000001
20
81.351695000000021
10
136.63774140000001
20
94.351695000000021
42
-0.4142135623730846
10
137.13774140000001
20
94.851695000000007
10
150.13774140000004
20
94.851695000000007
42
-0.4142135623730846
10
150.63774140000004
20
94.351695000000021
10
150.63774140000001
20
81.351695000000021
42
-0.41421356237306384
10
150.13774140000004
20
80.851695000000007
0
LWPOLYLINE
5
150
100
AcDbEntity
8
0
100
AcDbPolyline
90
8
70
1
43
0.0
10
79.48774139999999
20
94.351695000000021
42
-0.4142135623730846
10
79.987741400000004
20
94.851695000000007
10
92.987741400000004
20
94.851695000000007
42
-0.4142135623730846
10
93.487741400000019
20
94.351695000000021
10
93.487741400000019
20
81.351695000000021
42
-0.41421356237307422
10
92.987741400000004
20
80.851695000000007
10
79.987741400000004
20
80.851695000000035
42
-0.41421356237309503
10
79.487741400000004
20
81.351695000000021
0
LWPOLYLINE
5
151
100
AcDbEntity
8
0
100
AcDbPolyline
90
8
70
1
43
0.0
10
131.08774140000003
20
94.851695000000007
42
-0.4142135623730846
10
131.58774140000003
20
94.351695000000021
10
131.58774140000003
20
81.351695000000021
42
-0.41421356237307422
10
131.08774140000003
20
80.851695000000007
10
118.0877414
20
80.851695000000035
42
-0.41421356237309503
10
117.58774140000001
20
81.351695000000021
10
117.5877414
20
94.351695000000021
42
-0.4142135623730846
10
118.0877414
20
94.851695000000007
0
LWPOLYLINE
5
152
100
AcDbEntity
8
0
100
AcDbPolyline
90
8
70
1
43
0.0
10
112.03774140000002
20
94.851695000000007
10
99.037741400000016
20
94.851695000000007
42
0.4142135623730846
10
98.537741400000002
20
94.351695000000021
10
98.537741400000002
20
81.351695000000021
42
0.41421356237309503
10
99.037741400000016
20
80.851695000000007
10
112.0377414
20
80.851695000000007
42
0.41421356237307422
10
112.53774140000002
20
81.351695000000021
10
112.53774140000002
20
94.351695000000021
42
0.4142135623730846
0
LWPOLYLINE
5
153
100
AcDbEntity
8
0
100
AcDbPolyline
90
8
70
1
43
0.0
10
188.7377414
20
81.351695000000021
10
188.7377414
20
94.351695000000021
42
0.4142135623730846
10
188.23774140000006
20
94.851695000000007
10
175.2377414
20
94.851695000000007
42
0.4142135623730846
10
174.73774140000003
20
94.351695000000021
10
174.73774140000003
20
81.351695000000021
42
0.41421356237309503
10
175.2377414
20
80.851695000000007
10
188.2377414
20
80.851695000000007
42
0.41421356237306384
0
LWPOLYLINE
5
154
100
AcDbEntity
8
0
100
AcDbPolyline
90
8
70
1
43
0.0
10
269.9877414
20
94.351695000000021
42
-0.4142135623730846
10
270.4877414
20
94.851695000000007
10
283.4877414
20
94.851695000000007
42
-0.4142135623730846
10
283.98774140000006
20
94.351695000000021
10
283.98774140000006
20
81.351695000000021
42
-0.4142135623730846
10
283.4877414
20
80.851695000000007
10
270.4877414
20
80.851695000000007
42
-0.41421356237309503
10
269.9877414
20
81.351695000000021
0
LWPOLYLINE
5
155
100
AcDbEntity
8
0
100
AcDbPolyline
90
8
70
1
43
0.0
10
169.68774139999999
20
81.351695000000021
10
169.68774139999999
20
94.351695000000021
42
0.4142135623730846
10
169.18774140000005
20
94.851695000000007
10
156.18774140000002
20
94.851695000000007
42
0.4142135623730846
10
155.68774140000002
20
94.351695000000021
10
155.68774140000002
20
81.351695000000021
42
0.41421356237309503
10
156.18774140000002
20
80.851695000000007
10
169.18774140000005
20
80.851695000000007
42
0.41421356237306384
0
LWPOLYLINE
5
156
100
AcDbEntity
8
0
100
AcDbPolyline
90
8
70
1
43
0.0
10
226.33774140000003
20
94.851695000000007
10
213.33774140000003
20
94.851695000000007
42
0.4142135623730846
10
212.83774140000003
20
94.351695000000021
10
212.83774140000003
20
81.351695000000021
42
0.41421356237309503
10
213.33774140000003
20
80.851695000000007
10
226.33774140000003
20
80.851695000000007
42
0.41421356237306384
10
226.83774140000003
20
81.351695000000021
10
226.83774140000003
20
94.351695000000021
42
0.4142135623730846
0
LWPOLYLINE
5
157
100
AcDbEntity
8
0
100
AcDbPolyline
90
8
70
1
43
0.0
10
251.43774140000005
20
80.851695000000007
10
264.43774140000005
20
80.851695000000007
42
0.4142135623730846
10
264.93774140000005
20
81.351695000000021
10
264.93774140000005
20
94.351695000000021
42
0.4142135623730846
10
264.43774140000005
20
94.851695000000007
10
251.43774140000005
20
94.851695000000007
42
0.4142135623730846
10
250.93774139999999
20
94.351695000000021
10
250.93774139999999
20
81.351695000000021
42
0.41421356237309503
0
LWPOLYLINE
5
158
100
AcDbEntity
8
0
100
AcDbPolyline
90
8
70
1
43
0.0
10
194.28774140000002
20
80.851695000000049
42
-0.41421356237309503
10
193.78774140000004
20
81.351695000000021
10
193.78774140000002
20
94.351695000000021
42
-0.4142135623730846
10
194.28774140000002
20
94.851695000000007
10
207.28774139999999
20
94.851695000000007
42
-0.4142135623730846
10
207.78774140000002
20
94.351695000000021
10
207.78774140000002
20
81.351695000000021
42
-0.41421356237306384
10
207.28774140000002
20
80.851695000000007
0
LWPOLYLINE
5
159
100
AcDbEntity
8
0
100
AcDbPolyline
90
8
70
1
43
0.0
10
231.88774140000004
20
94.351695000000021
42
-0.4142135623730846
10
232.38774140000004
20
94.851695000000007
10
245.38774140000001
20
94.851695000000049
42
-0.4142135623730846
10
245.88774140000004
20
94.351695000000021
10
245.88774140000004
20
81.351695000000021
42
-0.4142135623730846
10
245.38774140000001
20
80.851695000000007
10
232.38774140000004
20
80.851695000000007
42
-0.41421356237309503
10
231.88774140000004
20
81.351695000000021
0
LWPOLYLINE
5
160
100
AcDbEntity
8
0
100
AcDbPolyline
90
8
70
1
43
0.0
10
112.53774140000002
20
62.301695000000016
10
112.53774140000002
20
75.301695000000024
42
0.4142135623730846
10
112.03774140000002
20
75.801695000000009
10
99.037741400000016
20
75.801695000000009
42
0.4142135623730846
10
98.537741400000002
20
75.301695000000024
10
98.537741400000002
20
62.301695000000016
42
0.41421356237309503
10
99.037741400000016
20
61.801695000000009
10
112.0377414
20
61.801695000000009
42
0.41421356237307422
0
LWPOLYLINE
5
161
100
AcDbEntity
8
0
100
AcDbPolyline
90
8
70
1
43
0.0
10
54.88774140000001
20
75.801695000000009
10
41.887741400000003
20
75.801695000000009
42
0.4142135623730846
10
41.38774140000001
20
75.301695000000024
10
41.38774140000001
20
62.301695000000016
42
0.41421356237309503
10
41.887741400000003
20
61.801695000000009
10
54.887741400000003
20
61.801695000000009
42
0.41421356237307422
10
55.38774140000001
20
62.301695000000016
10
55.38774140000001
20
75.301695000000024
42
0.4142135623730846
0
LWPOLYLINE
5
162
100
AcDbEntity
8
0
100
AcDbPolyline
90
8
70
1
43
0.0
10
117.58774140000001
20
75.301695000000024
10
117.58774140000001
20
62.301695000000016
42
0.41421356237309503
10
118.0877414
20
61.801695000000009
10
131.08774140000003
20
61.801695000000009
42
0.41421356237307422
10
131.58774140000003
20
62.301695000000016
10
131.58774140000003
20
75.301695000000024
42
0.4142135623730846
10
131.08774140000003
20
75.801695000000009
10
118.0877414
20
75.801695000000009
42
0.4142135623730846
0
LWPOLYLINE
5
163
100
AcDbEntity
8
0
100
AcDbPolyline
90
8
70
1
43
0.0
10
92.987741400000004
20
75.801695000000009
42
-0.4142135623730846
10
93.487741400000019
20
75.301695000000024
10
93.487741400000019
20
62.301695000000016
42
-0.41421356237307422
10
92.987741400000004
20
61.801695000000009
10
79.987741400000004
20
61.801695000000024
42
-0.41421356237309503
10
79.487741400000004
20
62.301695000000016
10
79.48774139999999
20
75.301695000000024
42
-0.4142135623730846
10
79.987741400000004
20
75.801695000000009
0
LWPOLYLINE
5
164
100
AcDbEntity
8
0
100
AcDbPolyline
90
8
70
1
43
0.0
10
137.13774140000001
20
61.801695000000009
10
150.13774140000004
20
61.801695000000009
42
0.41421356237306384
10
150.63774140000001
20
62.301695000000016
10
150.63774140000004
20
75.301695000000024
42
0.4142135623730846
10
150.13774140000004
20
75.801695000000009
10
137.13774140000001
20
75.801695000000009
42
0.4142135623730846
10
136.63774140000001
20
75.301695000000024
10
136.63774140000001
20
62.301695000000016
42
0.41421356237309503
0
LWPOLYLINE
5
165
100
AcDbEntity
8
0
100
AcDbPolyline
90
8
70
1
43
0.0
10
156.18774140000002
20
61.801695000000009
10
169.18774140000005
20
61.801695000000009
42
0.41421356237306384
10
169.68774139999999
20
62.301695000000016
10
169.68774139999999
20
75.301695000000024
42
0.4142135623730846
10
169.18774140000005
20
75.801695000000009
10
156.18774140000002
20
75.801695000000009
42
0.4142135623730846
10
155.68774140000002
20
75.301695000000024
10
155.68774140000002
20
62.301695000000016
42
0.41421356237309503
0
LWPOLYLINE
5
166
100
AcDbEntity
8
0
100
AcDbPolyline
90
8
70
1
43
0.0
10
74.437741400000007
20
62.301695000000016
42
-0.41421356237306384
10
73.937741400000021
20
61.801695000000009
10
60.937741400000007
20
61.801695000000016
42
-0.41421356237309503
10
60.437741400000007
20
62.301695000000016
10
60.4377414
20
75.301695000000024
42
-0.4142135623730846
10
60.937741400000007
20
75.801695000000009
10
73.937741400000021
20
75.801695000000009
42
-0.4142135623730846
10
74.437741400000021
20
75.301695000000024
0
LWPOLYLINE
5
167
100
AcDbEntity
8
0
100
AcDbPolyline
90
8
70
1
43
0.0
10
16.787741400000005
20
75.801695000000009
10
3.7877413999999954
20
75.801695000000009
42
0.4142135623730846
10
3.2877413999999927
20
75.301695000000024
10
3.2877413999999971
20
62.301695000000016
42
0.41421356237309503
10
3.7877413999999954
20
61.801695000000009
10
16.787741399999998
20
61.801695000000009
42
0.414213562373069
10
17.287741399999998
20
62.301695000000016
10
17.287741400000005
20
75.301695000000024
42
0.4142135623730846
0
LWPOLYLINE
5
168
100
AcDbEntity
8
0
100
AcDbPolyline
90
8
70
1
43
0.0
10
35.837741400000013
20
75.801694999999995
42
-0.4142135623730846
10
36.337741400000006
20
75.301695000000024
10
36.337741399999999
20
62.301695000000016
42
-0.414213562373069
10
35.837741399999999
20
61.801695000000009
10
22.837741399999999
20
61.801695000000016
42
-0.41421356237309503
10
22.337741399999999
20
62.301695000000016
10
22.337741399999992
20
75.301695000000024
42
-0.4142135623730846
10
22.837741399999999
20
75.801695000000009
0
LWPOLYLINE
5
169
100
AcDbEntity
8
0
100
AcDbPolyline
90
8
70
1
43
0.0
10
188.23774140000006
20
75.801695000000009
10
175.2377414
20
75.801695000000009
42
0.4142135623730846
10
174.73774140000003
20
75.301695000000024
10
174.73774140000003
20
62.301695000000016
42
0.41421356237309503
10
175.2377414
20
61.801695000000009
10
188.2377414
20
61.801695000000009
42
0.41421356237306384
10
188.7377414
20
62.301695000000016
10
188.7377414
20
75.301695000000024
42
0.4142135623730846
0
LWPOLYLINE
5
170
100
AcDbEntity
8
0
100
AcDbPolyline
90
8
70
1
43
0.0
10
231.88774140000004
20
75.301695000000024
10
231.88774140000004
20
62.301695000000016
42
0.41421356237309503
10
232.38774140000004
20
61.801695000000009
10
245.38774140000001
20
61.801695000000009
42
0.4142135623730846
10
245.88774140000004
20
62.301695000000016
10
245.88774140000004
20
75.301695000000024
42
0.4142135623730846
10
245.38774140000001
20
75.801695000000009
10
232.38774140000004
20
75.801695000000009
42
0.4142135623730846
0
LWPOLYLINE
5
171
100
AcDbEntity
8
0
100
AcDbPolyline
90
8
70
1
43
0.0
10
264.93774140000005
20
62.301695000000016
42
-0.4142135623730846
10
264.43774140000005
20
61.801695000000009
10
251.43774140000005
20
61.801694999999974
42
-0.41421356237309503
10
250.93774139999999
20
62.301695000000016
10
250.93774140000005
20
75.301695000000024
42
-0.4142135623730846
10
251.43774140000005
20
75.801695000000009
10
264.43774140000005
20
75.801695000000009
42
-0.4142135623730846
10
264.93774140000005
20
75.301695000000024
0
LWPOLYLINE
5
172
100
AcDbEntity
8
0
100
AcDbPolyline
90
8
70
1
43
0.0
10
226.83774140000003
20
62.301695000000016
42
-0.41421356237306384
10
226.33774140000003
20
61.801695000000009
10
213.33774140000003
20
61.801695000000009
42
-0.41421356237309503
10
212.83774140000003
20
62.301695000000016
10
212.83774140000003
20
75.301695000000024
42
-0.4142135623730846
10
213.33774140000003
20
75.801695000000009
10
226.3377414
20
75.801695000000009
42
-0.4142135623730846
10
226.83774140000003
20
75.301695000000024
0
LWPOLYLINE
5
173
100
AcDbEntity
8
0
100
AcDbPolyline
90
8
70
1
43
0.0
10
283.4877414
20
75.801695000000009
42
-0.4142135623730846
10
283.98774140000006
20
75.301695000000024
10
283.98774140000006
20
62.301695000000016
42
-0.4142135623730846
10
283.4877414
20
61.801695000000009
10
270.4877414
20
61.801695000000009
42
-0.41421356237309503
10
269.9877414
20
62.301695000000016
10
269.9877414
20
75.301695000000024
42
-0.4142135623730846
10
270.4877414
20
75.801695000000009
0
LWPOLYLINE
5
174
100
AcDbEntity
8
0
100
AcDbPolyline
90
8
70
1
43
0.0
10
194.28774140000002
20
61.801695000000009
10
207.28774140000002
20
61.801695000000009
42
0.41421356237306384
10
207.78774140000002
20
62.301695000000016
10
207.78774140000002
20
75.301695000000024
42
0.4142135623730846
10
207.28774140000002
20
75.801695000000009
10
194.28774140000002
20
75.801695000000009
42
0.4142135623730846
10
193.78774140000004
20
75.301695000000024
10
193.78774140000004
20
62.301695000000016
42
0.41421356237309503
0
LWPOLYLINE
5
175
100
AcDbEntity
8
0
100
AcDbPolyline
90
8
70
1
43
0.0
10
41.887741400000003
20
42.751695000000005
10
54.887741400000003
20
42.751695000000005
42
0.41421356237307422
10
55.38774140000001
20
43.251695000000012
10
55.38774140000001
20
56.251695000000019
42
0.4142135623730846
10
54.88774140000001
20
56.751695000000012
10
41.887741400000003
20
56.751695000000012
42
0.4142135623730846
10
41.38774140000001
20
56.251695000000019
10
41.38774140000001
20
43.251695000000012
42
0.41421356237309503
0
LWPOLYLINE
5
176
100
AcDbEntity
8
0
100
AcDbPolyline
90
8
70
1
43
0.0
10
99.037741400000016
20
42.751695000000005
10
112.0377414
20
42.751695000000005
42
0.41421356237307422
10
112.53774140000002
20
43.251695000000012
10
112.53774140000002
20
56.251695000000019
42
0.4142135623730846
10
112.03774140000002
20
56.751695000000012
10
99.037741400000016
20
56.751695000000012
42
0.4142135623730846
10
98.537741400000002
20
56.251695000000019
10
98.537741400000002
20
43.251695000000012
42
0.41421356237309503
0
LWPOLYLINE
5
177
100
AcDbEntity
8
0
100
AcDbPolyline
90
8
70
1
43
0.0
10
79.487741400000004
20
56.251695000000019
10
79.487741400000004
20
43.251695000000012
42
0.41421356237309503
10
79.987741400000004
20
42.751695000000005
10
92.987741400000004
20
42.751695000000005
42
0.41421356237307422
10
93.487741400000019
20
43.251695000000012
10
93.487741400000019
20
56.251695000000019
42
0.4142135623730846
10
92.987741400000004
20
56.751695000000012
10
79.987741400000004
20
56.751695000000012
42
0.4142135623730846
0
LWPOLYLINE
5
178
100
AcDbEntity
8
0
100
AcDbPolyline
90
8
70
1
43
0.0
10
60.937741400000007
20
42.751695000000012
42
-0.41421356237309503
10
60.437741400000007
20
43.251695000000012
10
60.4377414
20
56.251695000000019
42
-0.4142135623730846
10
60.937741400000007
20
56.751695000000012
10
73.937741400000021
20
56.751695000000012
42
-0.4142135623730846
10
74.437741400000021
20
56.251695000000019
10
74.437741400000007
20
43.251695000000012
42
-0.41421356237306384
10
73.937741400000021
20
42.751695000000005
0
LWPOLYLINE
5
179
100
AcDbEntity
8
0
100
AcDbPolyline
90
8
70
1
43
0.0
10
3.2877413999999927
20
56.251695000000019
10
3.2877413999999971
20
43.251695000000012
42
0.41421356237309503
10
3.7877413999999954
20
42.751695000000005
10
16.787741399999998
20
42.751695000000005
42
0.414213562373069
10
17.287741399999998
20
43.251695000000012
10
17.287741400000005
20
56.251695000000019
42
0.4142135623730846
10
16.787741400000005
20
56.751695000000012
10
3.7877413999999954
20
56.751695000000012
42
0.4142135623730846
0
LWPOLYLINE
5
180
100
AcDbEntity
8
0
100
AcDbPolyline
90
8
70
1
43
0.0
10
117.5877414
20
56.251695000000019
42
-0.4142135623730846
10
118.0877414
20
56.751695000000012
10
131.08774140000003
20
56.751695000000012
42
-0.4142135623730846
10
131.58774140000003
20
56.251695000000019
10
131.58774140000003
20
43.251695000000012
42
-0.41421356237307422
10
131.08774140000003
20
42.751695000000005
10
118.0877414
20
42.751695000000026
42
-0.41421356237309503
10
117.58774140000001
20
43.251695000000012
0
LWPOLYLINE
5
181
100
AcDbEntity
8
0
100
AcDbPolyline
90
8
70
1
43
0.0
10
35.837741400000013
20
56.751694999999998
42
-0.4142135623730846
10
36.337741400000006
20
56.251695000000019
10
36.337741399999999
20
43.251695000000012
42
-0.414213562373069
10
35.837741399999999
20
42.751695000000005
10
22.837741399999999
20
42.751695000000012
42
-0.41421356237309503
10
22.337741399999999
20
43.251695000000012
10
22.337741399999992
20
56.251695000000019
42
-0.4142135623730846
10
22.837741399999999
20
56.751695000000012
0
LWPOLYLINE
5
182
100
AcDbEntity
8
0
100
AcDbPolyline
90
8
70
1
43
0.0
10
150.13774140000004
20
56.751695000000012
42
-0.4142135623730846
10
150.63774140000004
20
56.251695000000019
10
150.63774140000001
20
43.251695000000012
42
-0.41421356237306384
10
150.13774140000004
20
42.751695000000005
10
137.13774140000001
20
42.751695000000005
42
-0.41421356237309503
10
136.63774140000001
20
43.251695000000012
10
136.63774140000001
20
56.251695000000019
42
-0.4142135623730846
10
137.13774140000001
20
56.751695000000012
0
LWPOLYLINE
5
183
100
AcDbEntity
8
0
100
AcDbPolyline
90
8
70
1
43
0.0
10
155.68774139999999
20
56.251695000000019
42
-0.4142135623730846
10
156.18774140000002
20
56.751695000000012
10
169.18774140000005
20
56.75169499999997
42
-0.4142135623730846
10
169.68774139999999
20
56.251695000000019
10
169.68774139999999
20
43.251695000000012
42
-0.41421356237306384
10
169.18774140000005
20
42.751695000000005
10
156.18774140000002
20
42.751695000000026
42
-0.41421356237309503
10
155.68774140000002
20
43.251695000000012
0
LWPOLYLINE
5
184
100
AcDbEntity
8
0
100
AcDbPolyline
90
8
70
1
43
0.0
10
188.23774140000006
20
56.751695000000012
10
175.2377414
20
56.751695000000012
42
0.4142135623730846
10
174.73774140000003
20
56.251695000000019
10
174.73774140000003
20
43.251695000000012
42
0.41421356237309503
10
175.2377414
20
42.751695000000005
10
188.2377414
20
42.751695000000005
42
0.41421356237306384
10
188.7377414
20
43.251695000000012
10
188.7377414
20
56.251695000000019
42
0.4142135623730846
0
LWPOLYLINE
5
185
100
AcDbEntity
8
0
100
AcDbPolyline
90
8
70
1
43
0.0
10
207.78774140000002
20
43.251695000000012
42
-0.41421356237306384
10
207.28774140000002
20
42.751695000000005
10
194.28774140000002
20
42.751695000000041
42
-0.41421356237309503
10
193.78774140000004
20
43.251695000000012
10
193.78774140000002
20
56.251695000000019
42
-0.4142135623730846
10
194.28774140000002
20
56.751695000000012
10
207.28774139999999
20
56.751695000000012
42
-0.4142135623730846
10
207.78774140000002
20
56.251695000000019
0
LWPOLYLINE
5
186
100
AcDbEntity
8
0
100
AcDbPolyline
90
8
70
1
43
0.0
10
270.4877414
20
42.751695000000005
10
283.4877414
20
42.751695000000005
42
0.4142135623730846
10
283.98774140000006
20
43.251695000000012
10
283.98774140000006
20
56.251695000000019
42
0.4142135623730846
10
283.4877414
20
56.751695000000012
10
270.4877414
20
56.751695000000012
42
0.4142135623730846
10
269.9877414
20
56.251695000000019
10
269.9877414
20
43.251695000000012
42
0.41421356237309503
0
LWPOLYLINE
5
187
100
AcDbEntity
8
0
100
AcDbPolyline
90
8
70
1
43
0.0
10
212.83774140000003
20
56.251695000000019
42
-0.4142135623730846
10
213.33774140000003
20
56.751695000000012
10
226.3377414
20
56.751695000000012
42
-0.4142135623730846
10
226.83774140000003
20
56.251695000000019
10
226.83774140000003
20
43.251695000000012
42
-0.41421356237306384
10
226.33774140000003
20
42.751695000000005
10
213.33774140000003
20
42.751695000000005
42
-0.41421356237309503
10
212.83774140000003
20
43.251695000000012
0
LWPOLYLINE
5
188
100
AcDbEntity
8
0
100
AcDbPolyline
90
8
70
1
43
0.0
10
250.93774139999999
20
56.251695000000019
10
250.93774139999999
20
43.251695000000012
42
0.41421356237309503
10
251.43774140000005
20
42.751695000000005
10
264.43774140000005
20
42.751695000000005
42
0.4142135623730846
10
264.93774140000005
20
43.251695000000012
10
264.93774140000005
20
56.251695000000019
42
0.4142135623730846
10
264.43774140000005
20
56.751695000000012
10
251.43774140000005
20
56.751695000000012
42
0.4142135623730846
0
LWPOLYLINE
5
189
100
AcDbEntity
8
0
100
AcDbPolyline
90
8
70
1
43
0.0
10
232.38774140000004
20
42.751695000000005
10
245.38774140000001
20
42.751695000000005
42
0.4142135623730846
10
245.88774140000004
20
43.251695000000012
10
245.88774140000004
20
56.251695000000019
42
0.4142135623730846
10
245.38774140000001
20
56.751695000000012
10
232.38774140000004
20
56.751695000000012
42
0.4142135623730846
10
231.88774140000004
20
56.251695000000019
10
231.88774140000004
20
43.251695000000012
42
0.41421356237309503
0
LWPOLYLINE
5
190
100
AcDbEntity
8
0
100
AcDbPolyline
90
8
70
1
43
0.0
10
60.4377414
20
37.201695000000015
42
-0.4142135623730846
10
60.937741400000007
20
37.701695000000008
10
73.937741400000021
20
37.701695000000008
42
-0.4142135623730846
10
74.437741400000021
20
37.201695000000015
10
74.437741400000007
20
24.201695000000008
42
-0.41421356237306384
10
73.937741400000021
20
23.701695000000001
10
60.937741400000007
20
23.701695000000012
42
-0.41421356237309503
10
60.437741400000007
20
24.201695000000008
0
LWPOLYLINE
5
191
100
AcDbEntity
8
0
100
AcDbPolyline
90
8
70
1
43
0.0
10
93.487741400000019
20
24.201695000000008
42
-0.41421356237307422
10
92.987741400000004
20
23.701695000000001
10
79.987741400000004
20
23.701695000000022
42
-0.41421356237309503
10
79.487741400000004
20
24.201695000000008
10
79.48774139999999
20
37.201695000000015
42
-0.4142135623730846
10
79.987741400000004
20
37.701695000000008
10
92.987741400000004
20
37.701695000000008
42
-0.4142135623730846
10
93.487741400000019
20
37.201695000000015
0
LWPOLYLINE
5
192
100
AcDbEntity
8
0
100
AcDbPolyline
90
8
70
1
43
0.0
10
54.88774140000001
20
37.701695000000001
42
-0.4142135623730846
10
55.38774140000001
20
37.201695000000015
10
55.38774140000001
20
24.201695000000008
42
-0.41421356237307422
10
54.887741400000003
20
23.701695000000001
10
41.887741400000003
20
23.701695000000012
42
-0.41421356237309503
10
41.38774140000001
20
24.201695000000008
10
41.387741399999996
20
37.201695000000015
42
-0.4142135623730846
10
41.887741400000003
20
37.701695000000008
0
LWPOLYLINE
5
193
100
AcDbEntity
8
0
100
AcDbPolyline
90
8
70
1
43
0.0
10
17.287741399999998
20
24.201695000000008
10
17.287741400000005
20
37.201695000000015
42
0.4142135623730846
10
16.787741400000005
20
37.701695000000008
10
3.7877413999999954
20
37.701695000000008
42
0.4142135623730846
10
3.2877413999999927
20
37.201695000000015
10
3.2877413999999971
20
24.201695000000008
42
0.41421356237309503
10
3.7877413999999954
20
23.701695000000001
10
16.787741399999998
20
23.701695000000001
42
0.414213562373069
0
LWPOLYLINE
5
194
100
AcDbEntity
8
0
100
AcDbPolyline
90
8
70
1
43
0.0
10
22.337741399999995
20
37.201695000000015
10
22.337741399999999
20
24.201695000000008
42
0.41421356237309503
10
22.837741399999999
20
23.701695000000001
10
35.837741399999999
20
23.701695000000001
42
0.414213562373069
10
36.337741399999999
20
24.201695000000008
10
36.337741400000006
20
37.201695000000015
42
0.4142135623730846
10
35.837741400000013
20
37.701695000000008
10
22.837741399999999
20
37.701695000000008
42
0.4142135623730846
0
LWPOLYLINE
5
195
100
AcDbEntity
8
0
100
AcDbPolyline
90
8
70
1
43
0.0
10
232.38774140000004
20
23.701695000000001
42
-0.41421356237309503
10
231.88774140000004
20
24.201695000000008
10
231.88774140000004
20
37.201695000000015
42
-0.4142135623730846
10
232.38774140000004
20
37.701695000000008
10
245.38774140000001
20
37.701695000000043
42
-0.4142135623730846
10
245.88774140000004
20
37.201695000000015
10
245.88774140000004
20
24.201695000000008
42
-0.4142135623730846
10
245.38774140000001
20
23.701695000000001
0
LWPOLYLINE
5
196
100
AcDbEntity
8
0
100
AcDbPolyline
90
8
70
1
43
0.0
10
213.33774140000003
20
23.701695000000001
42
-0.41421356237309503
10
212.83774140000003
20
24.201695000000008
10
212.83774140000003
20
37.201695000000015
42
-0.4142135623730846
10
213.33774140000003
20
37.701695000000008
10
226.3377414
20
37.701695000000008
42
-0.4142135623730846
10
226.83774140000003
20
37.201695000000015
10
226.83774140000003
20
24.201695000000008
42
-0.41421356237306384
10
226.33774140000003
20
23.701695000000001
0
LWPOLYLINE
5
197
100
AcDbEntity
8
0
100
AcDbPolyline
90
8
70
1
43
0.0
10
207.78774140000002
20
24.201695000000008
42
-0.41421356237306384
10
207.28774140000002
20
23.701695000000001
10
194.28774140000002
20
23.701695000000036
42
-0.41421356237309503
10
193.78774140000004
20
24.201695000000008
10
193.78774140000002
20
37.201695000000015
42
-0.4142135623730846
10
194.28774140000002
20
37.701695000000008
10
207.28774139999999
20
37.701695000000008
42
-0.4142135623730846
10
207.78774140000002
20
37.201695000000015
0
LWPOLYLINE
5
198
100
AcDbEntity
8
0
100
AcDbPolyline
90
8
70
1
43
0.0
10
188.7377414
20
24.201695000000008
42
-0.41421356237306384
10
188.2377414
20
23.701695000000001
10
175.2377414
20
23.701695000000036
42
-0.41421356237309503
10
174.73774140000003
20
24.201695000000008
10
174.7377414
20
37.201695000000015
42
-0.4142135623730846
10
175.2377414
20
37.701695000000008
10
188.23774140000006
20
37.701694999999972
42
-0.4142135623730846
10
188.7377414
20
37.201695000000015
0
LWPOLYLINE
5
199
100
AcDbEntity
8
0
100
AcDbPolyline
90
8
70
1
43
0.0
10
251.43774140000005
20
23.701695000000001
10
264.43774140000005
20
23.701695000000001
42
0.4142135623730846
10
264.93774140000005
20
24.201695000000008
10
264.93774140000005
20
37.201695000000015
42
0.4142135623730846
10
264.43774140000005
20
37.701695000000008
10
251.43774140000005
20
37.701695000000008
42
0.4142135623730846
10
250.93774139999999
20
37.201695000000015
10
250.93774139999999
20
24.201695000000008
42
0.41421356237309503
0
LWPOLYLINE
5
200
100
AcDbEntity
8
0
100
AcDbPolyline
90
8
70
1
43
0.0
10
118.0877414
20
23.701695000000001
10
131.08774140000003
20
23.701695000000001
42
0.41421356237307422
10
131.58774140000003
20
24.201695000000008
10
131.58774140000003
20
37.201695000000015
42
0.4142135623730846
10
131.08774140000003
20
37.701695000000008
10
118.0877414
20
37.701695000000008
42
0.4142135623730846
10
117.58774140000001
20
37.201695000000015
10
117.58774140000001
20
24.201695000000008
42
0.41421356237309503
0
LWPOLYLINE
5
201
100
AcDbEntity
8
0
100
AcDbPolyline
90
8
70
1
43
0.0
10
112.53774140000002
20
24.201695000000008
10
112.53774140000002
20
37.201695000000015
42
0.4142135623730846
10
112.03774140000002
20
37.701695000000008
10
99.037741400000016
20
37.701695000000008
42
0.4142135623730846
10
98.537741400000002
20
37.201695000000015
10
98.537741400000002
20
24.201695000000008
42
0.41421356237309503
10
99.037741400000016
20
23.701695000000001
10
112.0377414
20
23.701695000000001
42
0.41421356237307422
0
LWPOLYLINE
5
202
100
AcDbEntity
8
0
100
AcDbPolyline
90
8
70
1
43
0.0
10
169.68774139999999
20
24.201695000000008
10
169.68774139999999
20
37.201695000000015
42
0.4142135623730846
10
169.18774140000005
20
37.701695000000008
10
156.18774140000002
20
37.701695000000008
42
0.4142135623730846
10
155.68774140000002
20
37.201695000000015
10
155.68774140000002
20
24.201695000000008
42
0.41421356237309503
10
156.18774140000002
20
23.701695000000001
10
169.18774140000005
20
23.701695000000001
42
0.41421356237306384
0
LWPOLYLINE
5
203
100
AcDbEntity
8
0
100
AcDbPolyline
90
8
70
1
43
0.0
10
137.13774140000001
20
23.701695000000001
42
-0.41421356237309503
10
136.63774140000001
20
24.201695000000008
10
136.63774140000001
20
37.201695000000015
42
-0.4142135623730846
10
137.13774140000001
20
37.701695000000008
10
150.13774140000004
20
37.701695000000008
42
-0.4142135623730846
10
150.63774140000004
20
37.201695000000015
10
150.63774140000001
20
24.201695000000008
42
-0.41421356237306384
10
150.13774140000004
20
23.701695000000001
0
LWPOLYLINE
5
204
100
AcDbEntity
8
0
100
AcDbPolyline
90
8
70
1
43
0.0
10
269.9877414
20
37.201695000000015
10
269.9877414
20
24.201695000000008
42
0.41421356237309503
10
270.4877414
20
23.701695000000001
10
283.4877414
20
23.701695000000001
42
0.4142135623730846
10
283.98774140000006
20
24.201695000000008
10
283.98774140000006
20
37.201695000000015
42
0.4142135623730846
10
283.4877414
20
37.701695000000008
10
270.4877414
20
37.701695000000008
42
0.4142135623730846
0
ENDSEC
0
SECTION
2
OBJECTS
0
DICTIONARY
5
C
100
AcDbDictionary
3
ACAD_GROUP
350
D
3
ACAD_MLINESTYLE
350
17
0
DICTIONARY
5
D
100
AcDbDictionary
0
DICTIONARY
5
1A
330
C
100
AcDbDictionary
0
DICTIONARY
5
17
100
AcDbDictionary
0
ENDSEC
0
EOF
