0
SECTION
2
HEADER
9
$INSUNITS
70
4
9
$ACADVER
1
AC1014
9
$HANDSEED
5
FFFF
0
ENDSEC
0
SECTION
2
TABLES
0
TABLE
2
VPORT
5
8
100
AcDbSymbolTable
0
ENDTAB
0
TABLE
2
LTYPE
5
5
100
AcDbSymbolTable
0
LTYPE
5
14
100
AcDbSymbolTableRecord
100
AcDbLinetypeTableRecord
2
BYBLOCK
70
0
0
LTYPE
5
15
100
AcDbSymbolTableRecord
100
AcDbLinetypeTableRecord
2
BYLAYER
70
0
0
ENDTAB
0
TABLE
2
LAYER
5
2
100
AcDbSymbolTable
70
2
0
LAYER
5
50
100
AcDbSymbolTableRecord
100
AcDbLayerTableRecord
2
0
70
0
6
CONTINUOUS
0
ENDTAB
0
TABLE
2
STYLE
5
3
100
AcDbSymbolTable
70
1
0
STYLE
5
11
100
AcDbSymbolTableRecord
100
AcDbTextStyleTableRecord
2
STANDARD
70
0
0
ENDTAB
0
TABLE
2
VIEW
5
6
100
AcDbSymbolTable
70
0
0
ENDTAB
0
TABLE
2
UCS
5
7
100
AcDbSymbolTable
70
0
0
ENDTAB
0
TABLE
2
APPID
5
9
100
AcDbSymbolTable
70
2
0
APPID
5
12
100
AcDbSymbolTableRecord
100
AcDbRegAppTableRecord
2
ACAD
70
0
0
ENDTAB
0
TABLE
2
DIMSTYLE
5
A
100
AcDbSymbolTable
70
1
0
ENDTAB
0
TABLE
2
BLOCK_RECORD
5
1
100
AcDbSymbolTable
70
1
0
BLOCK_RECORD
5
1F
100
AcDbSymbolTableRecord
100
AcDbBlockTableRecord
2
*MODEL_SPACE
0
BLOCK_RECORD
5
1B
100
AcDbSymbolTableRecord
100
AcDbBlockTableRecord
2
*PAPER_SPACE
0
ENDTAB
0
ENDSEC
0
SECTION
2
BLOCKS
0
BLOCK
5
20
100
AcDbEntity
100
AcDbBlockBegin
2
*MODEL_SPACE
0
ENDBLK
5
21
100
AcDbEntity
100
AcDbBlockEnd
0
BLOCK
5
1C
100
AcDbEntity
100
AcDbBlockBegin
2
*PAPER_SPACE
0
ENDBLK
5
1D
100
AcDbEntity
100
AcDbBlockEnd
0
ENDSEC
0
SECTION
2
ENTITIES
0
LWPOLYLINE
5
100
100
AcDbEntity
8
0
100
AcDbPolyline
90
8
70
1
43
0.0
10
116.82500000000002
20
-3.0249999999999999
42
-0.41421356237309503
10
117.32500000000002
20
-2.5249999999999999
10
130.32499999999999
20
-2.5249999999999928
42
-0.41421356237309503
10
130.82499999999999
20
-3.0249999999999999
10
130.82499999999999
20
-16.024999999999999
42
-0.41421356237309503
10
130.32499999999999
20
-16.525000000000002
10
117.32500000000002
20
-16.525000000000006
42
-0.41421356237309503
10
116.82500000000002
20
-16.024999999999999
0
LWPOLYLINE
5
101
100
AcDbEntity
8
0
100
AcDbPolyline
90
8
70
1
43
0.0
10
59.675000000000004
20
-16.024999999999999
10
59.675000000000004
20
-3.0249999999999999
42
-0.41421356237309503
10
60.174999999999997
20
-2.5249999999999999
10
73.174999999999997
20
-2.5250000000000017
42
-0.41421356237309503
10
73.674999999999997
20
-3.0249999999999999
10
73.674999999999997
20
-16.024999999999999
42
-0.41421356237309503
10
73.174999999999997
20
-16.525000000000002
10
60.174999999999997
20
-16.524999999999999
42
-0.41421356237309503
0
LWPOLYLINE
5
102
100
AcDbEntity
8
0
100
AcDbPolyline
90
8
70
1
43
0.0
10
92.724999999999994
20
-16.024999999999999
10
92.725000000000009
20
-3.0249999999999999
42
0.41421356237309503
10
92.224999999999994
20
-2.5249999999999999
10
79.224999999999994
20
-2.5249999999999999
42
0.41421356237309503
10
78.724999999999994
20
-3.0249999999999999
10
78.724999999999994
20
-16.024999999999999
42
0.41421356237309503
10
79.224999999999994
20
-16.525000000000002
10
92.224999999999994
20
-16.525000000000002
42
0.41421356237309503
0
LWPOLYLINE
5
103
100
AcDbEntity
8
0
100
AcDbPolyline
90
8
70
1
43
0.0
10
54.125000000000007
20
-16.524999999999999
10
41.125
20
-16.524999999999999
42
-0.41421356237309503
10
40.625
20
-16.024999999999999
10
40.625
20
-3.0249999999999999
42
-0.41421356237309503
10
41.125
20
-2.5249999999999999
10
54.125000000000007
20
-2.5250000000000017
42
-0.41421356237309503
10
54.625
20
-3.0249999999999999
10
54.625
20
-16.024999999999999
42
-0.41421356237309503
0
LWPOLYLINE
5
104
100
AcDbEntity
8
0
100
AcDbPolyline
90
8
70
1
43
0.0
10
111.27500000000001
20
-2.5249999999999928
42
-0.41421356237309503
10
111.77500000000002
20
-3.0249999999999999
10
111.77500000000002
20
-16.024999999999999
42
-0.41421356237309503
10
111.27500000000001
20
-16.525000000000002
10
98.275000000000006
20
-16.525000000000006
42
-0.41421356237309503
10
97.775000000000006
20
-16.024999999999999
10
97.775000000000006
20
-3.0249999999999999
42
-0.41421356237309503
10
98.275000000000006
20
-2.5249999999999999
0
LWPOLYLINE
5
105
100
AcDbEntity
8
0
100
AcDbPolyline
90
8
70
1
43
0.0
10
16.024999999999999
20
-16.524999999999999
10
3.0249999999999999
20
-16.525000000000002
42
-0.41421356237309503
10
2.5249999999999999
20
-16.024999999999999
10
2.5249999999999999
20
-3.0249999999999999
42
-0.41421356237309503
10
3.0249999999999999
20
-2.5249999999999999
10
16.024999999999999
20
-2.5249999999999995
42
-0.41421356237309503
10
16.524999999999999
20
-3.0249999999999999
10
16.525000000000002
20
-16.024999999999999
42
-0.41421356237309503
0
LWPOLYLINE
5
106
100
AcDbEntity
8
0
100
AcDbPolyline
90
8
70
1
43
0.0
10
35.075000000000003
20
-2.5250000000000017
42
-0.41421356237309503
10
35.575000000000003
20
-3.0249999999999999
10
35.575000000000003
20
-16.024999999999999
42
-0.41421356237309503
10
35.075000000000003
20
-16.524999999999999
10
22.074999999999999
20
-16.524999999999999
42
-0.41421356237309503
10
21.575000000000003
20
-16.024999999999999
10
21.575000000000003
20
-3.0249999999999999
42
-0.41421356237309503
10
22.074999999999999
20
-2.5249999999999999
0
LWPOLYLINE
5
107
100
AcDbEntity
8
0
100
AcDbPolyline
90
8
70
1
43
0.0
10
149.375
20
-2.5249999999999999
10
136.375
20
-2.5249999999999999
42
0.41421356237309503
10
135.875
20
-3.0249999999999999
10
135.875
20
-16.024999999999999
42
0.41421356237309503
10
136.375
20
-16.524999999999999
10
149.375
20
-16.525000000000002
42
0.41421356237309503
10
149.875
20
-16.024999999999999
10
149.875
20
-3.0249999999999999
42
0.41421356237309503
0
LWPOLYLINE
5
108
100
AcDbEntity
8
0
100
AcDbPolyline
90
8
70
1
43
0.0
10
207.02500000000003
20
-16.024999999999999
42
-0.41421356237309503
10
206.52500000000003
20
-16.525000000000002
10
193.52500000000003
20
-16.525000000000006
42
-0.41421356237309503
10
193.02500000000003
20
-16.024999999999999
10
193.02500000000003
20
-3.0249999999999999
42
-0.41421356237309503
10
193.52500000000003
20
-2.5249999999999999
10
206.52500000000003
20
-2.5249999999999928
42
-0.41421356237309503
10
207.02500000000003
20
-3.0249999999999999
0
LWPOLYLINE
5
109
100
AcDbEntity
8
0
100
AcDbPolyline
90
8
70
1
43
0.0
10
244.62500000000003
20
-2.5249999999999928
42
-0.41421356237309503
10
245.12500000000003
20
-3.0249999999999999
10
245.12500000000003
20
-16.024999999999999
42
-0.41421356237309503
10
244.62500000000003
20
-16.524999999999999
10
231.625
20
-16.525000000000006
42
-0.41421356237309503
10
231.125
20
-16.024999999999999
10
231.125
20
-3.0249999999999999
42
-0.41421356237309503
10
231.625
20
-2.5249999999999999
0
LWPOLYLINE
5
110
100
AcDbEntity
8
0
100
AcDbPolyline
90
8
70
1
43
0.0
10
154.92500000000001
20
-16.024999999999999
10
154.92500000000001
20
-3.0249999999999999
42
-0.41421356237309503
10
155.42500000000001
20
-2.5249999999999999
10
168.42500000000001
20
-2.5249999999999928
42
-0.41421356237309503
10
168.92500000000001
20
-3.0249999999999999
10
168.92500000000001
20
-16.024999999999999
42
-0.41421356237309503
10
168.42500000000001
20
-16.525000000000002
10
155.42500000000001
20
-16.525000000000006
42
-0.41421356237309503
0
LWPOLYLINE
5
111
100
AcDbEntity
8
0
100
AcDbPolyline
90
8
70
1
43
0.0
10
225.57500000000002
20
-2.5249999999999999
10
212.57499999999999
20
-2.5249999999999999
42
0.41421356237309503
10
212.07499999999999
20
-3.0249999999999999
10
212.07499999999999
20
-16.024999999999999
42
0.41421356237309503
10
212.57499999999999
20
-16.525000000000002
10
225.57500000000002
20
-16.525000000000002
42
0.41421356237309503
10
226.07500000000002
20
-16.024999999999999
10
226.07500000000002
20
-3.0249999999999999
42
0.41421356237309503
0
LWPOLYLINE
5
112
100
AcDbEntity
8
0
100
AcDbPolyline
90
8
70
1
43
0.0
10
250.17500000000001
20
-3.0249999999999999
42
-0.41421356237309503
10
250.67500000000001
20
-2.5249999999999999
10
263.67500000000001
20
-2.5249999999999928
42
-0.41421356237309503
10
264.17500000000007
20
-3.0249999999999999
10
264.17500000000007
20
-16.024999999999999
42
-0.41421356237309503
10
263.67500000000001
20
-16.524999999999999
10
250.67500000000001
20
-16.525000000000006
42
-0.41421356237309503
10
250.17500000000001
20
-16.024999999999999
0
LWPOLYLINE
5
113
100
AcDbEntity
8
0
100
AcDbPolyline
90
8
70
1
43
0.0
10
187.97499999999999
20
-16.024999999999999
10
187.97499999999999
20
-3.0249999999999999
42
0.41421356237309503
10
187.47499999999999
20
-2.5249999999999999
10
174.47500000000002
20
-2.5249999999999999
42
0.41421356237309503
10
173.97500000000002
20
-3.0249999999999999
10
173.97500000000002
20
-16.024999999999999
42
0.41421356237309503
10
174.47500000000002
20
-16.525000000000002
10
187.47499999999999
20
-16.525000000000002
42
0.41421356237309503
0
LWPOLYLINE
5
114
100
AcDbEntity
8
0
100
AcDbPolyline
90
8
70
1
43
0.0
10
283.22500000000002
20
-16.024999999999999
10
283.22500000000002
20
-3.0249999999999999
42
0.41421356237309503
10
282.72500000000002
20
-2.5249999999999999
10
269.72500000000002
20
-2.5249999999999999
42
0.41421356237309503
10
269.22500000000002
20
-3.0249999999999999
10
269.22500000000002
20
-16.024999999999999
42
0.41421356237309503
10
269.72500000000002
20
-16.524999999999999
10
282.72500000000002
20
-16.525000000000002
42
0.41421356237309503
0
LWPOLYLINE
5
115
100
AcDbEntity
8
0
100
AcDbPolyline
90
8
70
1
43
0.0
10
16.024999999999999
20
-21.575000000000003
10
3.0249999999999999
20
-21.575000000000003
42
0.41421356237309503
10
2.5249999999999999
20
-22.074999999999999
10
2.5249999999999999
20
-35.075000000000003
42
0.41421356237309503
10
3.0249999999999999
20
-35.575000000000003
10
16.024999999999999
20
-35.575000000000003
42
0.41421356237309503
10
16.524999999999999
20
-35.075000000000003
10
16.525000000000002
20
-22.074999999999999
42
0.41421356237309503
0
LWPOLYLINE
5
116
100
AcDbEntity
8
0
100
AcDbPolyline
90
8
70
1
43
0.0
10
98.275000000000006
20
-35.57500000000001
42
-0.41421356237309503
10
97.775000000000006
20
-35.075000000000003
10
97.775000000000006
20
-22.074999999999999
42
-0.41421356237309503
10
98.275000000000006
20
-21.575000000000003
10
111.27500000000001
20
-21.574999999999992
42
-0.41421356237309503
10
111.77500000000002
20
-22.074999999999999
10
111.77500000000002
20
-35.075000000000003
42
-0.41421356237309503
10
111.27500000000001
20
-35.575000000000003
0
LWPOLYLINE
5
117
100
AcDbEntity
8
0
100
AcDbPolyline
90
8
70
1
43
0.0
10
35.075000000000003
20
-21.575000000000003
10
22.074999999999999
20
-21.575000000000003
42
0.41421356237309503
10
21.575000000000003
20
-22.074999999999999
10
21.575000000000003
20
-35.075000000000003
42
0.41421356237309503
10
22.074999999999999
20
-35.575000000000003
10
35.075000000000003
20
-35.575000000000003
42
0.41421356237309503
10
35.575000000000003
20
-35.075000000000003
10
35.575000000000003
20
-22.074999999999999
42
0.41421356237309503
0
LWPOLYLINE
5
118
100
AcDbEntity
8
0
100
AcDbPolyline
90
8
70
1
43
0.0
10
54.125000000000007
20
-35.575000000000003
10
41.125
20
-35.575000000000003
42
-0.41421356237309503
10
40.625
20
-35.075000000000003
10
40.625
20
-22.074999999999999
42
-0.41421356237309503
10
41.125
20
-21.575000000000003
10
54.125000000000007
20
-21.575000000000003
42
-0.41421356237309503
10
54.625
20
-22.074999999999999
10
54.625
20
-35.075000000000003
42
-0.41421356237309503
0
LWPOLYLINE
5
119
100
AcDbEntity
8
0
100
AcDbPolyline
90
8
70
1
43
0.0
10
59.675000000000004
20
-22.074999999999999
42
-0.41421356237309503
10
60.174999999999997
20
-21.575000000000003
10
73.174999999999997
20
-21.575000000000003
42
-0.41421356237309503
10
73.674999999999997
20
-22.074999999999999
10
73.674999999999997
20
-35.075000000000003
42
-0.41421356237309503
10
73.174999999999997
20
-35.575000000000003
10
60.174999999999997
20
-35.575000000000003
42
-0.41421356237309503
10
59.675000000000004
20
-35.075000000000003
0
LWPOLYLINE
5
120
100
AcDbEntity
8
0
100
AcDbPolyline
90
8
70
1
43
0.0
10
92.224999999999994
20
-21.575000000000003
10
79.224999999999994
20
-21.575000000000003
42
0.41421356237309503
10
78.724999999999994
20
-22.074999999999999
10
78.724999999999994
20
-35.075000000000003
42
0.41421356237309503
10
79.224999999999994
20
-35.575000000000003
10
92.224999999999994
20
-35.575000000000003
42
0.41421356237309503
10
92.725000000000009
20
-35.075000000000003
10
92.725000000000009
20
-22.074999999999999
42
0.41421356237309503
0
LWPOLYLINE
5
121
100
AcDbEntity
8
0
100
AcDbPolyline
90
8
70
1
43
0.0
10
130.32499999999999
20
-21.575000000000003
10
117.32500000000002
20
-21.575000000000003
42
0.41421356237309503
10
116.82500000000002
20
-22.074999999999999
10
116.82500000000002
20
-35.075000000000003
42
0.41421356237309503
10
117.32500000000002
20
-35.575000000000003
10
130.32499999999999
20
-35.575000000000003
42
0.41421356237309503
10
130.82499999999999
20
-35.075000000000003
10
130.82499999999999
20
-22.074999999999999
42
0.41421356237309503
0
LWPOLYLINE
5
122
100
AcDbEntity
8
0
100
AcDbPolyline
90
8
70
1
43
0.0
10
149.375
20
-35.575000000000003
10
136.375
20
-35.57500000000001
42
-0.41421356237309503
10
135.875
20
-35.075000000000003
10
135.87500000000003
20
-22.074999999999999
42
-0.41421356237309503
10
136.375
20
-21.575000000000003
10
149.375
20
-21.574999999999992
42
-0.41421356237309503
10
149.875
20
-22.074999999999999
10
149.875
20
-35.075000000000003
42
-0.41421356237309503
0
LWPOLYLINE
5
123
100
AcDbEntity
8
0
100
AcDbPolyline
90
8
70
1
43
0.0
10
168.42500000000001
20
-21.575000000000003
10
155.42500000000001
20
-21.575000000000003
42
0.41421356237309503
10
154.92500000000001
20
-22.074999999999999
10
154.92500000000001
20
-35.075000000000003
42
0.41421356237309503
10
155.42500000000001
20
-35.575000000000003
10
168.42500000000001
20
-35.575000000000003
42
0.41421356237309503
10
168.92500000000001
20
-35.075000000000003
10
168.92500000000001
20
-22.074999999999999
42
0.41421356237309503
0
LWPOLYLINE
5
124
100
AcDbEntity
8
0
100
AcDbPolyline
90
8
70
1
43
0.0
10
250.67500000000001
20
-35.57500000000001
42
-0.41421356237309503
10
250.17500000000001
20
-35.075000000000003
10
250.17500000000001
20
-22.074999999999999
42
-0.41421356237309503
10
250.67500000000001
20
-21.575000000000003
10
263.67500000000001
20
-21.574999999999992
42
-0.41421356237309503
10
264.17500000000007
20
-22.074999999999999
10
264.17500000000007
20
-35.075000000000003
42
-0.41421356237309503
10
263.67500000000001
20
-35.575000000000003
0
LWPOLYLINE
5
125
100
AcDbEntity
8
0
100
AcDbPolyline
90
8
70
1
43
0.0
10
206.52500000000003
20
-35.575000000000003
10
193.52500000000003
20
-35.57500000000001
42
-0.41421356237309503
10
193.02500000000003
20
-35.075000000000003
10
193.02500000000003
20
-22.074999999999999
42
-0.41421356237309503
10
193.52500000000003
20
-21.575000000000003
10
206.52500000000003
20
-21.574999999999992
42
-0.41421356237309503
10
207.02500000000003
20
-22.074999999999999
10
207.02500000000003
20
-35.075000000000003
42
-0.41421356237309503
0
LWPOLYLINE
5
126
100
AcDbEntity
8
0
100
AcDbPolyline
90
8
70
1
43
0.0
10
244.62500000000003
20
-21.574999999999992
42
-0.41421356237309503
10
245.12500000000003
20
-22.074999999999999
10
245.12500000000003
20
-35.075000000000003
42
-0.41421356237309503
10
244.62500000000003
20
-35.575000000000003
10
231.625
20
-35.57500000000001
42
-0.41421356237309503
10
231.125
20
-35.075000000000003
10
231.125
20
-22.074999999999999
42
-0.41421356237309503
10
231.625
20
-21.575000000000003
0
LWPOLYLINE
5
127
100
AcDbEntity
8
0
100
AcDbPolyline
90
8
70
1
43
0.0
10
269.72500000000002
20
-35.57500000000001
42
-0.41421356237309503
10
269.22500000000002
20
-35.075000000000003
10
269.22500000000002
20
-22.074999999999999
42
-0.41421356237309503
10
269.72500000000002
20
-21.575000000000003
10
282.72500000000002
20
-21.574999999999992
42
-0.41421356237309503
10
283.22500000000002
20
-22.074999999999999
10
283.22500000000002
20
-35.075000000000003
42
-0.41421356237309503
10
282.72500000000002
20
-35.575000000000003
0
LWPOLYLINE
5
128
100
AcDbEntity
8
0
100
AcDbPolyline
90
8
70
1
43
0.0
10
16.524999999999999
20
-54.125000000000007
10
16.525000000000002
20
-41.125
42
0.41421356237309503
10
16.024999999999999
20
-40.625
10
3.0249999999999999
20
-40.625
42
0.41421356237309503
10
2.5249999999999999
20
-41.125
10
2.5249999999999999
20
-54.125000000000007
42
0.41421356237309503
10
3.0249999999999999
20
-54.625
10
16.024999999999999
20
-54.625
42
0.41421356237309503
0
LWPOLYLINE
5
129
100
AcDbEntity
8
0
100
AcDbPolyline
90
8
70
1
43
0.0
10
35.075000000000003
20
-54.625
10
22.074999999999999
20
-54.625
42
-0.41421356237309503
10
21.575000000000003
20
-54.125000000000007
10
21.575000000000003
20
-41.125
42
-0.41421356237309503
10
22.074999999999999
20
-40.625
10
35.075000000000003
20
-40.625
42
-0.41421356237309503
10
35.575000000000003
20
-41.125
10
35.575000000000003
20
-54.125000000000007
42
-0.41421356237309503
0
LWPOLYLINE
5
130
100
AcDbEntity
8
0
100
AcDbPolyline
90
8
70
1
43
0.0
10
187.47499999999999
20
-21.574999999999992
42
-0.41421356237309503
10
187.97499999999999
20
-22.074999999999999
10
187.97499999999999
20
-35.075000000000003
42
-0.41421356237309503
10
187.47499999999999
20
-35.575000000000003
10
174.47500000000002
20
-35.57500000000001
42
-0.41421356237309503
10
173.97500000000002
20
-35.075000000000003
10
173.97500000000002
20
-22.074999999999999
42
-0.41421356237309503
10
174.47500000000002
20
-21.575000000000003
0
LWPOLYLINE
5
131
100
AcDbEntity
8
0
100
AcDbPolyline
90
8
70
1
43
0.0
10
226.07500000000002
20
-35.075000000000003
10
226.07500000000002
20
-22.074999999999999
42
0.41421356237309503
10
225.57500000000002
20
-21.575000000000003
10
212.57499999999999
20
-21.575000000000003
42
0.41421356237309503
10
212.07499999999999
20
-22.074999999999999
10
212.07499999999999
20
-35.075000000000003
42
0.41421356237309503
10
212.57499999999999
20
-35.575000000000003
10
225.57500000000002
20
-35.575000000000003
42
0.41421356237309503
0
LWPOLYLINE
5
132
100
AcDbEntity
8
0
100
AcDbPolyline
90
8
70
1
43
0.0
10
149.375
20
-40.624999999999993
42
-0.41421356237309503
10
149.875
20
-41.125
10
149.875
20
-54.125000000000007
42
-0.41421356237309503
10
149.375
20
-54.625
10
136.375
20
-54.625000000000014
42
-0.41421356237309503
10
135.875
20
-54.125000000000007
10
135.87500000000003
20
-41.125
42
-0.41421356237309503
10
136.375
20
-40.625
0
LWPOLYLINE
5
133
100
AcDbEntity
8
0
100
AcDbPolyline
90
8
70
1
43
0.0
10
168.42500000000001
20
-40.625
10
155.42500000000001
20
-40.625
42
0.41421356237309503
10
154.92500000000001
20
-41.125
10
154.92500000000001
20
-54.125000000000007
42
0.41421356237309503
10
155.42500000000001
20
-54.625
10
168.42500000000001
20
-54.625
42
0.41421356237309503
10
168.92500000000001
20
-54.125000000000007
10
168.92500000000001
20
-41.125
42
0.41421356237309503
0
LWPOLYLINE
5
134
100
AcDbEntity
8
0
100
AcDbPolyline
90
8
70
1
43
0.0
10
92.724999999999994
20
-54.125000000000007
10
92.725000000000009
20
-41.125
42
0.41421356237309503
10
92.224999999999994
20
-40.625
10
79.224999999999994
20
-40.625
42
0.41421356237309503
10
78.724999999999994
20
-41.125
10
78.724999999999994
20
-54.125000000000007
42
0.41421356237309503
10
79.224999999999994
20
-54.625
10
92.224999999999994
20
-54.625
42
0.41421356237309503
0
LWPOLYLINE
5
135
100
AcDbEntity
8
0
100
AcDbPolyline
90
8
70
1
43
0.0
10
111.27500000000001
20
-40.625
10
98.275000000000006
20
-40.625
42
0.41421356237309503
10
97.77500000000002
20
-41.125
10
97.775000000000006
20
-54.125000000000007
42
0.41421356237309503
10
98.275000000000006
20
-54.625
10
111.27500000000001
20
-54.625
42
0.41421356237309503
10
111.77500000000002
20
-54.125000000000007
10
111.77500000000002
20
-41.125
42
0.41421356237309503
0
LWPOLYLINE
5
136
100
AcDbEntity
8
0
100
AcDbPolyline
90
8
70
1
43
0.0
10
59.675000000000004
20
-41.125
42
-0.41421356237309503
10
60.174999999999997
20
-40.625
10
73.174999999999997
20
-40.625
42
-0.41421356237309503
10
73.674999999999997
20
-41.125
10
73.674999999999997
20
-54.125000000000007
42
-0.41421356237309503
10
73.174999999999997
20
-54.625
10
60.174999999999997
20
-54.625
42
-0.41421356237309503
10
59.675000000000004
20
-54.125000000000007
0
LWPOLYLINE
5
137
100
AcDbEntity
8
0
100
AcDbPolyline
90
8
70
1
43
0.0
10
130.32499999999999
20
-40.625
10
117.32500000000002
20
-40.625
42
0.41421356237309503
10
116.82500000000002
20
-41.125
10
116.82500000000002
20
-54.125000000000007
42
0.41421356237309503
10
117.32500000000002
20
-54.625
10
130.32499999999999
20
-54.625
42
0.41421356237309503
10
130.82499999999999
20
-54.125000000000007
10
130.82499999999999
20
-41.125
42
0.41421356237309503
0
LWPOLYLINE
5
138
100
AcDbEntity
8
0
100
AcDbPolyline
90
8
70
1
43
0.0
10
187.47499999999999
20
-40.625
10
174.47500000000002
20
-40.625
42
0.41421356237309503
10
173.97500000000002
20
-41.125
10
173.97500000000002
20
-54.125000000000007
42
0.41421356237309503
10
174.47500000000002
20
-54.625
10
187.47499999999999
20
-54.625
42
0.41421356237309503
10
187.97499999999999
20
-54.125000000000007
10
187.97499999999999
20
-41.125
42
0.41421356237309503
0
LWPOLYLINE
5
139
100
AcDbEntity
8
0
100
AcDbPolyline
90
8
70
1
43
0.0
10
54.125000000000007
20
-40.625
42
-0.41421356237309503
10
54.625
20
-41.125
10
54.625
20
-54.125000000000007
42
-0.41421356237309503
10
54.125000000000007
20
-54.625
10
41.125
20
-54.625
42
-0.41421356237309503
10
40.625
20
-54.125000000000007
10
40.625
20
-41.125
42
-0.41421356237309503
10
41.125
20
-40.625
0
LWPOLYLINE
5
140
100
AcDbEntity
8
0
100
AcDbPolyline
90
8
70
1
43
0.0
10
2.5249999999999999
20
-73.174999999999997
10
2.5250000000000017
20
-60.174999999999997
42
-0.41421356237309503
10
3.0249999999999999
20
-59.675000000000004
10
16.024999999999999
20
-59.675000000000004
42
-0.41421356237309503
10
16.524999999999999
20
-60.174999999999997
10
16.524999999999999
20
-73.174999999999997
42
-0.41421356237309503
10
16.024999999999999
20
-73.674999999999997
10
3.0249999999999999
20
-73.674999999999997
42
-0.41421356237309503
0
LWPOLYLINE
5
141
100
AcDbEntity
8
0
100
AcDbPolyline
90
8
70
1
43
0.0
10
212.07499999999999
20
-41.125
42
-0.41421356237309503
10
212.57499999999999
20
-40.625
10
225.57500000000002
20
-40.624999999999993
42
-0.41421356237309503
10
226.07500000000002
20
-41.125
10
226.07500000000002
20
-54.125000000000007
42
-0.41421356237309503
10
225.57500000000002
20
-54.625
10
212.57499999999999
20
-54.625000000000014
42
-0.41421356237309503
10
212.07499999999999
20
-54.125000000000007
0
LWPOLYLINE
5
142
100
AcDbEntity
8
0
100
AcDbPolyline
90
8
70
1
43
0.0
10
244.62500000000003
20
-40.624999999999993
42
-0.41421356237309503
10
245.12500000000003
20
-41.125
10
245.12500000000003
20
-54.125000000000007
42
-0.41421356237309503
10
244.62500000000003
20
-54.625
10
231.625
20
-54.625000000000014
42
-0.41421356237309503
10
231.125
20
-54.125000000000007
10
231.125
20
-41.125
42
-0.41421356237309503
10
231.625
20
-40.625
0
LWPOLYLINE
5
143
100
AcDbEntity
8
0
100
AcDbPolyline
90
8
70
1
43
0.0
10
207.02500000000001
20
-54.125000000000007
10
207.02500000000003
20
-41.125
42
0.41421356237309503
10
206.52500000000003
20
-40.625
10
193.52500000000003
20
-40.625
42
0.41421356237309503
10
193.02500000000003
20
-41.125
10
193.02500000000003
20
-54.125000000000007
42
0.41421356237309503
10
193.52500000000003
20
-54.625
10
206.52500000000003
20
-54.625
42
0.41421356237309503
0
LWPOLYLINE
5
144
100
AcDbEntity
8
0
100
AcDbPolyline
90
8
70
1
43
0.0
10
264.17500000000007
20
-54.125000000000007
42
-0.41421356237309503
10
263.67500000000001
20
-54.625
10
250.67500000000001
20
-54.625000000000014
42
-0.41421356237309503
10
250.17500000000001
20
-54.125000000000007
10
250.17500000000001
20
-41.125
42
-0.41421356237309503
10
250.67500000000001
20
-40.625
10
263.67500000000001
20
-40.624999999999993
42
-0.41421356237309503
10
264.17500000000007
20
-41.125
0
LWPOLYLINE
5
145
100
AcDbEntity
8
0
100
AcDbPolyline
90
8
70
1
43
0.0
10
282.72500000000002
20
-40.625
10
269.72500000000002
20
-40.625
42
0.41421356237309503
10
269.22500000000002
20
-41.125
10
269.22500000000002
20
-54.125000000000007
42
0.41421356237309503
10
269.72500000000002
20
-54.625
10
282.72500000000002
20
-54.625
42
0.41421356237309503
10
283.22500000000002
20
-54.125000000000007
10
283.22500000000002
20
-41.125
42
0.41421356237309503
0
LWPOLYLINE
5
146
100
AcDbEntity
8
0
100
AcDbPolyline
90
8
70
1
43
0.0
10
54.125000000000007
20
-59.675000000000004
10
41.125
20
-59.675000000000004
42
0.41421356237309503
10
40.625
20
-60.174999999999997
10
40.625
20
-73.174999999999997
42
0.41421356237309503
10
41.125
20
-73.674999999999997
10
54.125000000000007
20
-73.674999999999997
42
0.41421356237309503
10
54.625
20
-73.174999999999997
10
54.625
20
-60.174999999999997
42
0.41421356237309503
0
LWPOLYLINE
5
147
100
AcDbEntity
8
0
100
AcDbPolyline
90
8
70
1
43
0.0
10
21.575000000000003
20
-73.174999999999997
10
21.575000000000003
20
-60.174999999999997
42
-0.41421356237309503
10
22.074999999999999
20
-59.675000000000004
10
35.075000000000003
20
-59.675000000000004
42
-0.41421356237309503
10
35.575000000000003
20
-60.174999999999997
10
35.575000000000003
20
-73.174999999999997
42
-0.41421356237309503
10
35.075000000000003
20
-73.674999999999997
10
22.074999999999999
20
-73.674999999999997
42
-0.41421356237309503
0
LWPOLYLINE
5
148
100
AcDbEntity
8
0
100
AcDbPolyline
90
8
70
1
43
0.0
10
149.375
20
-59.674999999999997
42
-0.41421356237309503
10
149.875
20
-60.174999999999997
10
149.875
20
-73.174999999999997
42
-0.41421356237309503
10
149.375
20
-73.674999999999997
10
136.375
20
-73.675000000000011
42
-0.41421356237309503
10
135.875
20
-73.174999999999997
10
135.87500000000003
20
-60.174999999999997
42
-0.41421356237309503
10
136.375
20
-59.675000000000004
0
LWPOLYLINE
5
149
100
AcDbEntity
8
0
100
AcDbPolyline
90
8
70
1
43
0.0
10
130.32499999999999
20
-73.674999999999997
10
117.32500000000002
20
-73.675000000000011
42
-0.41421356237309503
10
116.82500000000002
20
-73.174999999999997
10
116.82500000000002
20
-60.174999999999997
42
-0.41421356237309503
10
117.32500000000002
20
-59.675000000000004
10
130.32499999999999
20
-59.674999999999997
42
-0.41421356237309503
10
130.82499999999999
20
-60.174999999999997
10
130.82499999999999
20
-73.174999999999997
42
-0.41421356237309503
0
LWPOLYLINE
5
150
100
AcDbEntity
8
0
100
AcDbPolyline
90
8
70
1
43
0.0
10
168.42500000000001
20
-73.674999999999997
10
155.42500000000001
20
-73.675000000000011
42
-0.41421356237309503
10
154.92500000000001
20
-73.174999999999997
10
154.92500000000004
20
-60.174999999999997
42
-0.41421356237309503
10
155.42500000000001
20
-59.675000000000004
10
168.42500000000001
20
-59.674999999999997
42
-0.41421356237309503
10
168.92500000000001
20
-60.174999999999997
10
168.92500000000001
20
-73.174999999999997
42
-0.41421356237309503
0
LWPOLYLINE
5
151
100
AcDbEntity
8
0
100
AcDbPolyline
90
8
70
1
43
0.0
10
79.224999999999994
20
-73.674999999999997
42
-0.41421356237309503
10
78.724999999999994
20
-73.174999999999997
10
78.724999999999994
20
-60.174999999999997
42
-0.41421356237309503
10
79.224999999999994
20
-59.675000000000004
10
92.224999999999994
20
-59.674999999999997
42
-0.41421356237309503
10
92.724999999999994
20
-60.174999999999997
10
92.725000000000009
20
-73.174999999999997
42
-0.41421356237309503
10
92.224999999999994
20
-73.674999999999997
0
LWPOLYLINE
5
152
100
AcDbEntity
8
0
100
AcDbPolyline
90
8
70
1
43
0.0
10
73.174999999999997
20
-73.674999999999997
10
60.174999999999997
20
-73.674999999999997
42
-0.41421356237309503
10
59.675000000000004
20
-73.174999999999997
10
59.675000000000004
20
-60.174999999999997
42
-0.41421356237309503
10
60.174999999999997
20
-59.675000000000004
10
73.174999999999997
20
-59.675000000000004
42
-0.41421356237309503
10
73.674999999999997
20
-60.174999999999997
10
73.674999999999997
20
-73.174999999999997
42
-0.41421356237309503
0
LWPOLYLINE
5
153
100
AcDbEntity
8
0
100
AcDbPolyline
90
8
70
1
43
0.0
10
187.47499999999999
20
-59.675000000000004
10
174.47500000000002
20
-59.675000000000004
42
0.41421356237309503
10
173.97500000000002
20
-60.174999999999997
10
173.97500000000002
20
-73.174999999999997
42
0.41421356237309503
10
174.47500000000002
20
-73.674999999999997
10
187.47499999999999
20
-73.674999999999997
42
0.41421356237309503
10
187.97499999999999
20
-73.174999999999997
10
187.97499999999999
20
-60.174999999999997
42
0.41421356237309503
0
LWPOLYLINE
5
154
100
AcDbEntity
8
0
100
AcDbPolyline
90
8
70
1
43
0.0
10
111.27500000000001
20
-59.674999999999997
42
-0.41421356237309503
10
111.77500000000002
20
-60.174999999999997
10
111.77500000000002
20
-73.174999999999997
42
-0.41421356237309503
10
111.27500000000001
20
-73.674999999999997
10
98.275000000000006
20
-73.675000000000011
42
-0.41421356237309503
10
97.775000000000006
20
-73.174999999999997
10
97.775000000000006
20
-60.174999999999997
42
-0.41421356237309503
10
98.275000000000006
20
-59.675000000000004
0
LWPOLYLINE
5
155
100
AcDbEntity
8
0
100
AcDbPolyline
90
8
70
1
43
0.0
10
206.52500000000003
20
-59.675000000000004
10
193.52500000000003
20
-59.675000000000004
42
0.41421356237309503
10
193.02500000000003
20
-60.174999999999997
10
193.02500000000003
20
-73.174999999999997
42
0.41421356237309503
10
193.52500000000003
20
-73.674999999999997
10
206.52500000000003
20
-73.674999999999997
42
0.41421356237309503
10
207.02500000000003
20
-73.174999999999997
10
207.02500000000003
20
-60.174999999999997
42
0.41421356237309503
0
LWPOLYLINE
5
156
100
AcDbEntity
8
0
100
AcDbPolyline
90
8
70
1
43
0.0
10
26.387499999999999
20
-78.724999999999994
42
-0.41421356237309503
10
26.887499999999996
20
-79.224999999999994
10
26.887500000000006
20
-92.224999999999994
42
-0.41421356237309503
10
26.387499999999999
20
-92.725000000000009
10
25.387500000000003
20
-92.725000000000009
42
-0.41421356237309503
10
24.887499999999999
20
-92.224999999999994
10
24.887500000000003
20
-79.224999999999994
42
-0.41421356237309503
10
25.387500000000003
20
-78.724999999999994
0
LWPOLYLINE
5
157
100
AcDbEntity
8
0
100
AcDbPolyline
90
8
70
1
43
0.0
10
226.07500000000002
20
-73.174999999999997
10
226.07500000000002
20
-60.174999999999997
42
0.41421356237309503
10
225.57500000000002
20
-59.675000000000004
10
212.57499999999999
20
-59.675000000000004
42
0.41421356237309503
10
212.07499999999999
20
-60.174999999999997
10
212.07499999999999
20
-73.174999999999997
42
0.41421356237309503
10
212.57499999999999
20
-73.674999999999997
10
225.57500000000002
20
-73.674999999999997
42
0.41421356237309503
0
LWPOLYLINE
5
158
100
AcDbEntity
8
0
100
AcDbPolyline
90
8
70
1
43
0.0
10
250.17500000000001
20
-73.174999999999997
10
250.17500000000001
20
-60.174999999999997
42
-0.41421356237309503
10
250.67500000000001
20
-59.675000000000004
10
263.67500000000001
20
-59.674999999999997
42
-0.41421356237309503
10
264.17500000000007
20
-60.174999999999997
10
264.17500000000007
20
-73.174999999999997
42
-0.41421356237309503
10
263.67500000000001
20
-73.674999999999997
10
250.67500000000001
20
-73.675000000000011
42
-0.41421356237309503
0
LWPOLYLINE
5
159
100
AcDbEntity
8
0
100
AcDbPolyline
90
8
70
1
43
0.0
10
244.62500000000003
20
-73.674999999999997
10
231.625
20
-73.675000000000011
42
-0.41421356237309503
10
231.125
20
-73.174999999999997
10
231.125
20
-60.174999999999997
42
-0.41421356237309503
10
231.625
20
-59.675000000000004
10
244.62500000000003
20
-59.674999999999997
42
-0.41421356237309503
10
245.12500000000003
20
-60.174999999999997
10
245.12500000000003
20
-73.174999999999997
42
-0.41421356237309503
0
LWPOLYLINE
5
160
100
AcDbEntity
8
0
100
AcDbPolyline
90
8
70
1
43
0.0
10
3.1875000000000009
20
-78.724999999999994
10
2.1875000000000004
20
-78.724999999999994
42
0.41421356237309503
10
1.6875000000000007
20
-79.224999999999994
10
1.6875000000000007
20
-92.224999999999994
42
0.41421356237309503
10
2.1875000000000004
20
-92.724999999999994
10
3.1875000000000009
20
-92.725000000000009
42
0.41421356237309503
10
3.6875
20
-92.224999999999994
10
3.6875000000000009
20
-79.224999999999994
42
0.41421356237309503
0
LWPOLYLINE
5
161
100
AcDbEntity
8
0
100
AcDbPolyline
90
8
70
1
43
0.0
10
282.72500000000002
20
-59.675000000000004
10
269.72500000000002
20
-59.675000000000004
42
0.41421356237309503
10
269.22500000000002
20
-60.174999999999997
10
269.22500000000002
20
-73.174999999999997
42
0.41421356237309503
10
269.72500000000002
20
-73.674999999999997
10
282.72500000000002
20
-73.674999999999997
42
0.41421356237309503
10
283.22500000000002
20
-73.174999999999997
10
283.22500000000002
20
-60.174999999999997
42
0.41421356237309503
0
LWPOLYLINE
5
162
100
AcDbEntity
8
0
100
AcDbPolyline
90
8
70
1
43
0.0
10
20.787500000000001
20
-92.724999999999994
10
7.7875000000000005
20
-92.725000000000009
42
-0.41421356237309503
10
7.2874999999999996
20
-92.224999999999994
10
7.2875000000000023
20
-79.224999999999994
42
-0.41421356237309503
10
7.7875000000000005
20
-78.724999999999994
10
20.787500000000001
20
-78.724999999999994
42
-0.41421356237309503
10
21.287500000000001
20
-79.224999999999994
10
21.287500000000009
20
-92.224999999999994
42
-0.41421356237309503
0
LWPOLYLINE
5
163
100
AcDbEntity
8
0
100
AcDbPolyline
90
8
70
1
43
0.0
10
44.600000000000001
20
-78.724999999999994
10
31.600000000000001
20
-78.724999999999994
42
0.41421356237309503
10
31.100000000000001
20
-79.224999999999994
10
31.100000000000001
20
-92.224999999999994
42
0.41421356237309503
10
31.600000000000001
20
-92.724999999999994
10
44.600000000000001
20
-92.725000000000009
42
0.41421356237309503
10
45.100000000000009
20
-92.224999999999994
10
45.099999999999994
20
-79.224999999999994
42
0.41421356237309503
0
LWPOLYLINE
5
164
100
AcDbEntity
8
0
100
AcDbPolyline
90
8
70
1
43
0.0
10
72.512500000000003
20
-79.224999999999994
42
-0.41421356237309503
10
73.012500000000003
20
-78.724999999999994
10
74.012500000000017
20
-78.724999999999994
42
-0.41421356237309503
10
74.512500000000003
20
-79.224999999999994
10
74.512500000000017
20
-92.224999999999994
42
-0.41421356237309503
10
74.012500000000017
20
-92.725000000000009
10
73.012500000000003
20
-92.725000000000009
42
-0.41421356237309503
10
72.512500000000003
20
-92.224999999999994
0
LWPOLYLINE
5
165
100
AcDbEntity
8
0
100
AcDbPolyline
90
8
70
1
43
0.0
10
98.275000000000006
20
-92.725000000000009
42
-0.41421356237309503
10
97.775000000000006
20
-92.224999999999994
10
97.775000000000006
20
-79.224999999999994
42
-0.41421356237309503
10
98.275000000000006
20
-78.724999999999994
10
111.27500000000001
20
-78.724999999999994
42
-0.41421356237309503
10
111.77500000000002
20
-79.224999999999994
10
111.77500000000002
20
-92.224999999999994
42
-0.41421356237309503
10
111.27500000000001
20
-92.724999999999994
0
LWPOLYLINE
5
166
100
AcDbEntity
8
0
100
AcDbPolyline
90
8
70
1
43
0.0
10
68.412499999999994
20
-78.724999999999994
42
-0.41421356237309503
10
68.912499999999994
20
-79.224999999999994
10
68.912500000000009
20
-92.224999999999994
42
-0.41421356237309503
10
68.412499999999994
20
-92.725000000000009
10
55.412500000000009
20
-92.725000000000009
42
-0.41421356237309503
10
54.912500000000009
20
-92.224999999999994
10
54.912500000000009
20
-79.224999999999994
42
-0.41421356237309503
10
55.412500000000009
20
-78.724999999999994
0
LWPOLYLINE
5
167
100
AcDbEntity
8
0
100
AcDbPolyline
90
8
70
1
43
0.0
10
51.312500000000007
20
-92.224999999999994
10
51.312500000000007
20
-79.224999999999994
42
0.41421356237309503
10
50.812500000000007
20
-78.724999999999994
10
49.8125
20
-78.724999999999994
42
0.41421356237309503
10
49.3125
20
-79.224999999999994
10
49.3125
20
-92.224999999999994
42
0.41421356237309503
10
49.8125
20
-92.724999999999994
10
50.812500000000007
20
-92.725000000000009
42
0.41421356237309503
0
LWPOLYLINE
5
168
100
AcDbEntity
8
0
100
AcDbPolyline
90
8
70
1
43
0.0
10
149.375
20
-78.724999999999994
10
136.375
20
-78.724999999999994
42
0.41421356237309503
10
135.875
20
-79.224999999999994
10
135.875
20
-92.224999999999994
42
0.41421356237309503
10
136.375
20
-92.725000000000009
10
149.375
20
-92.725000000000009
42
0.41421356237309503
10
149.875
20
-92.224999999999994
10
149.875
20
-79.224999999999994
42
0.41421356237309503
0
LWPOLYLINE
5
169
100
AcDbEntity
8
0
100
AcDbPolyline
90
8
70
1
43
0.0
10
187.47499999999999
20
-78.724999999999994
10
174.47500000000002
20
-78.724999999999994
42
0.41421356237309503
10
173.97500000000002
20
-79.224999999999994
10
173.97500000000002
20
-92.224999999999994
42
0.41421356237309503
10
174.47500000000002
20
-92.724999999999994
10
187.47499999999999
20
-92.725000000000009
42
0.41421356237309503
10
187.97499999999999
20
-92.224999999999994
10
187.97499999999999
20
-79.224999999999994
42
0.41421356237309503
0
LWPOLYLINE
5
170
100
AcDbEntity
8
0
100
AcDbPolyline
90
8
70
1
43
0.0
10
241.15000000000003
20
-92.725000000000009
42
-0.41421356237309503
10
240.65000000000001
20
-92.224999999999994
10
240.65000000000001
20
-79.224999999999994
42
-0.41421356237309503
10
241.15000000000003
20
-78.724999999999994
10
254.15000000000003
20
-78.724999999999994
42
-0.41421356237309503
10
254.65000000000003
20
-79.224999999999994
10
254.65000000000003
20
-92.224999999999994
42
-0.41421356237309503
10
254.15000000000003
20
-92.725000000000009
0
LWPOLYLINE
5
171
100
AcDbEntity
8
0
100
AcDbPolyline
90
8
70
1
43
0.0
10
277.96249999999998
20
-92.724999999999994
10
264.96249999999998
20
-92.725000000000009
42
-0.41421356237309503
10
264.46249999999998
20
-92.224999999999994
10
264.46249999999998
20
-79.224999999999994
42
-0.41421356237309503
10
264.96249999999998
20
-78.724999999999994
10
277.96249999999998
20
-78.724999999999994
42
-0.41421356237309503
10
278.46250000000003
20
-79.224999999999994
10
278.46250000000003
20
-92.224999999999994
42
-0.41421356237309503
0
LWPOLYLINE
5
172
100
AcDbEntity
8
0
100
AcDbPolyline
90
8
70
1
43
0.0
10
283.5625
20
-92.724999999999994
10
282.5625
20
-92.725000000000009
42
-0.41421356237309503
10
282.0625
20
-92.224999999999994
10
282.0625
20
-79.224999999999994
42
-0.41421356237309503
10
282.5625
20
-78.724999999999994
10
283.5625
20
-78.724999999999994
42
-0.41421356237309503
10
284.0625
20
-79.224999999999994
10
284.06250000000006
20
-92.224999999999994
42
-0.41421356237309503
0
LWPOLYLINE
5
173
100
AcDbEntity
8
0
100
AcDbPolyline
90
8
70
1
43
0.0
10
211.23750000000001
20
-92.224999999999994
10
211.23750000000001
20
-79.224999999999994
42
-0.41421356237309503
10
211.73750000000001
20
-78.724999999999994
10
212.73750000000004
20
-78.724999999999994
42
-0.41421356237309503
10
213.23750000000004
20
-79.224999999999994
10
213.23750000000004
20
-92.224999999999994
42
-0.41421356237309503
10
212.73750000000004
20
-92.725000000000009
10
211.73750000000001
20
-92.725000000000009
42
-0.41421356237309503
0
LWPOLYLINE
5
174
100
AcDbEntity
8
0
100
AcDbPolyline
90
8
70
1
43
0.0
10
216.83750000000003
20
-92.224999999999994
10
216.83750000000001
20
-79.224999999999994
42
-0.41421356237309503
10
217.33750000000001
20
-78.724999999999994
10
230.33750000000001
20
-78.724999999999994
42
-0.41421356237309503
10
230.83750000000003
20
-79.224999999999994
10
230.83750000000003
20
-92.224999999999994
42
-0.41421356237309503
10
230.33750000000001
20
-92.725000000000009
10
217.33750000000001
20
-92.725000000000009
42
-0.41421356237309503
0
LWPOLYLINE
5
175
100
AcDbEntity
8
0
100
AcDbPolyline
90
8
70
1
43
0.0
10
235.9375
20
-92.724999999999994
10
234.93750000000003
20
-92.725000000000009
42
-0.41421356237309503
10
234.4375
20
-92.224999999999994
10
234.4375
20
-79.224999999999994
42
-0.41421356237309503
10
234.93750000000003
20
-78.724999999999994
10
235.9375
20
-78.724999999999994
42
-0.41421356237309503
10
236.4375
20
-79.224999999999994
10
236.4375
20
-92.224999999999994
42
-0.41421356237309503
0
LWPOLYLINE
5
176
100
AcDbEntity
8
0
100
AcDbPolyline
90
8
70
1
43
0.0
10
260.36250000000001
20
-78.724999999999994
10
259.36250000000001
20
-78.724999999999994
42
0.41421356237309503
10
258.86250000000001
20
-79.224999999999994
10
258.86250000000001
20
-92.224999999999994
42
0.41421356237309503
10
259.36250000000001
20
-92.724999999999994
10
260.36250000000001
20
-92.725000000000009
42
0.41421356237309503
10
260.86250000000001
20
-92.224999999999994
10
260.86250000000001
20
-79.224999999999994
42
0.41421356237309503
0
LWPOLYLINE
5
177
100
AcDbEntity
8
0
100
AcDbPolyline
90
8
70
1
43
0.0
10
88.599999999999994
20
-77.22499999999998
42
-0.41421356237309503
10
89.600000000000009
20
-78.224999999999994
10
89.599999999999994
20
-91.225000000000009
42
-0.41421356237309503
10
88.599999999999994
20
-92.224999999999994
10
82.849999999999994
20
-92.225000000000023
42
-0.41421356237309503
10
81.849999999999994
20
-91.225000000000009
10
81.849999999999994
20
-78.224999999999994
42
-0.41421356237309503
10
82.849999999999994
20
-77.224999999999994
0
LWPOLYLINE
5
178
100
AcDbEntity
8
0
100
AcDbPolyline
90
8
70
1
43
0.0
10
119.95000000000002
20
-78.224999999999994
42
-0.41421356237309503
10
120.95
20
-77.224999999999994
10
126.70000000000002
20
-77.224999999999994
42
-0.41421356237309503
10
127.70000000000002
20
-78.224999999999994
10
127.70000000000002
20
-91.225000000000009
42
-0.41421356237309503
10
126.70000000000002
20
-92.224999999999994
10
120.95
20
-92.225000000000023
42
-0.41421356237309503
10
119.94999999999999
20
-91.225000000000009
0
LWPOLYLINE
5
179
100
AcDbEntity
8
0
100
AcDbPolyline
90
8
70
1
43
0.0
10
158.05000000000001
20
-78.224999999999994
42
-0.41421356237309503
10
159.05000000000001
20
-77.224999999999994
10
164.80000000000001
20
-77.22499999999998
42
-0.41421356237309503
10
165.80000000000001
20
-78.224999999999994
10
165.79999999999998
20
-91.225000000000009
42
-0.41421356237309503
10
164.80000000000001
20
-92.224999999999994
10
159.05000000000001
20
-92.224999999999994
42
-0.41421356237309503
10
158.05000000000001
20
-91.225000000000009
0
LWPOLYLINE
5
180
100
AcDbEntity
8
0
100
AcDbPolyline
90
8
70
1
43
0.0
10
196.15000000000003
20
-78.224999999999994
42
-0.41421356237309503
10
197.15000000000003
20
-77.224999999999994
10
202.90000000000003
20
-77.22499999999998
42
-0.41421356237309503
10
203.90000000000003
20
-78.224999999999994
10
203.90000000000001
20
-91.225000000000009
42
-0.41421356237309503
10
202.90000000000003
20
-92.224999999999994
10
197.15000000000003
20
-92.225000000000023
42
-0.41421356237309503
10
196.15000000000003
20
-91.225000000000009
0
LWPOLYLINE
5
181
100
AcDbEntity
8
0
100
AcDbPolyline
90
56
70
1
43
0.0
10
82.425000000000068
20
4.4749999999999099
10
31.425000000000054
20
4.4750000000000156
42
0.41421356237308754
10
30.425000000000054
20
3.4749999999999659
10
30.425000000000047
20
2.9749999999999766
42
-0.41421356237308915
10
28.425000000000043
20
0.97499999999996534
10
1.0250000000000266
20
0.97499999999996578
42
0.41421356237309581
10
-0.974999999999972
20
-1.0249999999999915
10
-0.97499999999999742
20
-94.225000000000023
42
0.41421356237309931
10
1.0249999999999959
20
-96.225000000000037
10
22.925000000000011
20
-96.225000000000051
42
-0.41421356237309503
10
24.925000000000015
20
-98.225000000000051
10
24.925000000000033
20
-98.725000000000037
42
0.41421356237309631
10
25.925000000000018
20
-99.725000000000023
10
76.925000000000068
20
-99.725000000000037
42
0.41421356237309503
10
77.925000000000068
20
-98.725000000000037
10
77.925000000000082
20
-98.225000000000051
42
-0.41421356237309243
10
79.925000000000054
20
-96.225000000000051
10
114.37500000000003
20
-96.225000000000051
42
-0.41421356237309503
10
116.37500000000003
20
-98.225000000000051
10
116.37500000000004
20
-98.725000000000051
42
0.41421356237308982
10
117.37500000000004
20
-99.725000000000037
10
168.37500000000006
20
-99.725000000000051
42
0.4142135623730534
10
169.37500000000006
20
-98.725000000000051
10
169.37500000000006
20
-98.225000000000051
42
-0.41421356237310281
10
171.37500000000006
20
-96.225000000000051
10
205.82500000000013
20
-96.225000000000051
42
-0.41421356237309503
10
207.82500000000013
20
-98.225000000000051
10
207.82500000000013
20
-98.725000000000051
42
0.41421356237307944
10
208.82500000000016
20
-99.725000000000051
10
259.82500000000016
20
-99.725000000000094
42
0.41421356237309503
10
260.82500000000016
20
-98.725000000000051
10
260.8250000000001
20
-98.225000000000065
42
-0.41421356237309764
10
262.8250000000001
20
-96.225000000000051
10
284.72500000000008
20
-96.225000000000051
42
0.41421356237310281
10
286.72500000000008
20
-94.225000000000065
10
286.72500000000008
20
-1.0250000000000448
42
0.41421356237308304
10
284.72500000000008
20
0.974999999999973
10
257.3250000000001
20
0.97499999999996589
42
-0.41421356237308998
10
255.3250000000001
20
2.9749999999999592
10
255.32500000000005
20
3.4749999999999659
42
0.41421356237306739
10
254.3250000000001
20
4.4750000000000281
10
203.32500000000013
20
4.4750000000000156
42
0.4142135623730972
10
202.3250000000001
20
3.4749999999999659
10
202.32500000000013
20
2.9749999999999588
42
-0.41421356237308721
10
200.32500000000005
20
0.97499999999996534
10
171.37500000000006
20
0.97499999999998366
42
-0.41421356237308737
10
169.37500000000003
20
2.9749999999999592
10
169.37500000000003
20
3.4749999999999659
42
0.41421356237302759
10
168.37500000000006
20
4.4749999999999988
10
117.37500000000004
20
4.4750000000000334
42
0.41421356237307649
10
116.37500000000004
20
3.4749999999999659
10
116.37500000000003
20
2.9749999999999766
42
-0.41421356237309243
10
114.37500000000003
20
0.97499999999996534
10
85.425000000000054
20
0.97499999999994813
42
-0.41421356237309254
10
83.42500000000004
20
2.974999999999977
10
83.42500000000004
20
3.4749999999999659
42
0.41421356237308982
0
ENDSEC
0
SECTION
2
OBJECTS
0
DICTIONARY
5
C
100
AcDbDictionary
3
ACAD_GROUP
350
D
3
ACAD_MLINESTYLE
350
17
0
DICTIONARY
5
D
100
AcDbDictionary
0
DICTIONARY
5
1A
330
C
100
AcDbDictionary
0
DICTIONARY
5
17
100
AcDbDictionary
0
ENDSEC
0
EOF
