0
SECTION
2
HEADER
9
$INSUNITS
70
4
9
$ACADVER
1
AC1014
9
$HANDSEED
5
FFFF
0
ENDSEC
0
SECTION
2
TABLES
0
TABLE
2
VPORT
5
8
100
AcDbSymbolTable
0
ENDTAB
0
TABLE
2
LTYPE
5
5
100
AcDbSymbolTable
0
LTYPE
5
14
100
AcDbSymbolTableRecord
100
AcDbLinetypeTableRecord
2
BYBLOCK
70
0
0
LTYPE
5
15
100
AcDbSymbolTableRecord
100
AcDbLinetypeTableRecord
2
BYLAYER
70
0
0
ENDTAB
0
TABLE
2
LAYER
5
2
100
AcDbSymbolTable
70
2
0
LAYER
5
50
100
AcDbSymbolTableRecord
100
AcDbLayerTableRecord
2
0
70
0
6
CONTINUOUS
0
ENDTAB
0
TABLE
2
STYLE
5
3
100
AcDbSymbolTable
70
1
0
STYLE
5
11
100
AcDbSymbolTableRecord
100
AcDbTextStyleTableRecord
2
STANDARD
70
0
0
ENDTAB
0
TABLE
2
VIEW
5
6
100
AcDbSymbolTable
70
0
0
ENDTAB
0
TABLE
2
UCS
5
7
100
AcDbSymbolTable
70
0
0
ENDTAB
0
TABLE
2
APPID
5
9
100
AcDbSymbolTable
70
2
0
APPID
5
12
100
AcDbSymbolTableRecord
100
AcDbRegAppTableRecord
2
ACAD
70
0
0
ENDTAB
0
TABLE
2
DIMSTYLE
5
A
100
AcDbSymbolTable
70
1
0
ENDTAB
0
TABLE
2
BLOCK_RECORD
5
1
100
AcDbSymbolTable
70
1
0
BLOCK_RECORD
5
1F
100
AcDbSymbolTableRecord
100
AcDbBlockTableRecord
2
*MODEL_SPACE
0
BLOCK_RECORD
5
1B
100
AcDbSymbolTableRecord
100
AcDbBlockTableRecord
2
*PAPER_SPACE
0
ENDTAB
0
ENDSEC
0
SECTION
2
BLOCKS
0
BLOCK
5
20
100
AcDbEntity
100
AcDbBlockBegin
2
*MODEL_SPACE
0
ENDBLK
5
21
100
AcDbEntity
100
AcDbBlockEnd
0
BLOCK
5
1C
100
AcDbEntity
100
AcDbBlockBegin
2
*PAPER_SPACE
0
ENDBLK
5
1D
100
AcDbEntity
100
AcDbBlockEnd
0
ENDSEC
0
SECTION
2
ENTITIES
0
LWPOLYLINE
5
100
100
AcDbEntity
8
0
100
AcDbPolyline
90
8
70
1
43
0.0
10
254.88780059514949
20
-93.199635777733533
10
241.88680059514945
20
-93.199635777733533
42
0.41421356237309503
10
241.38680059514942
20
-93.699635777733548
10
241.38680059514942
20
-106.69916577773353
42
0.41421356237309503
10
241.88680059514945
20
-107.19916577773354
10
254.88780059514949
20
-107.19916577773354
42
0.4142135623730846
10
255.38780059514949
20
-106.69916577773355
10
255.38780059514949
20
-93.699635777733548
42
0.41421356237309503
0
LWPOLYLINE
5
101
100
AcDbEntity
8
0
100
AcDbPolyline
90
8
70
1
43
0.0
10
279.1998005951495
20
-106.69916577773355
10
279.1998005951495
20
-93.699635777733548
42
0.41421356237309503
10
278.6998005951495
20
-93.199635777733533
10
265.70080059514947
20
-93.199635777733533
42
0.41421356237309503
10
265.20080059514947
20
-93.699635777733548
10
265.20080059514947
20
-106.69916577773353
42
0.41421356237310542
10
265.70080059514947
20
-107.19916577773355
10
278.6998005951495
20
-107.19916577773355
42
0.41421356237309503
0
LWPOLYLINE
5
102
100
AcDbEntity
8
0
100
AcDbPolyline
90
8
70
1
43
0.0
10
218.07580059514947
20
-107.19916577773354
10
231.0748005951495
20
-107.19916577773354
42
0.41421356237309503
10
231.5748005951495
20
-106.69916577773353
10
231.5748005951495
20
-93.699635777733548
42
0.41421356237309503
10
231.0748005951495
20
-93.199635777733533
10
218.07580059514953
20
-93.199635777733533
42
0.41421356237309503
10
217.57580059514953
20
-93.699635777733548
10
217.57580059514953
20
-106.69916577773361
42
0.41421356237309503
0
LWPOLYLINE
5
103
100
AcDbEntity
8
0
100
AcDbPolyline
90
32
70
1
43
0.0
10
92.963900595149454
20
-107.19916577773354
10
79.963200595149445
20
-107.19916577773354
42
-0.41421356237309503
10
79.463200595149445
20
-106.69916577773353
10
79.463200595149445
20
-93.699635777733548
42
-0.41421356237309503
10
79.963200595149459
20
-93.199635777733533
10
84.314100595149441
20
-93.199635777733533
10
88.613000595149458
20
-93.199635777733533
10
92.963900595149454
20
-93.199635777733533
42
-0.41421356237309503
10
93.463900595149454
20
-93.699635777733548
10
93.463900595149454
20
-97.483203896046035
10
98.513200595149456
20
-97.483203896046035
10
98.513200595149456
20
-93.699635777733548
42
-0.41421356237307422
10
99.013200595149456
20
-93.199635777733533
10
100.98780059514945
20
-93.199635777733533
10
105.28780059514946
20
-93.199635777733533
10
122.03780059514946
20
-93.199635777733533
10
129.81280059514944
20
-93.199635777733519
42
-0.41421356237310542
10
130.31280059514944
20
-93.699635777733548
10
130.31280059514944
20
-93.42983577773353
10
130.31280059514944
20
-97.898835777733538
10
130.31280059514944
20
-102.49867577773355
10
130.31280059514944
20
-105.72881577773353
10
130.31280059514944
20
-106.69916577773353
42
-0.41421356237309503
10
129.81280059514944
20
-107.19916577773354
10
122.03780059514946
20
-107.19916577773354
10
99.01320059514947
20
-107.19916577773354
42
-0.41421356237309503
10
98.513200595149456
20
-106.69916577773351
10
98.513200595149456
20
-102.49867577773355
10
98.513200595149456
20
-101.48330389604604
10
93.463900595149454
20
-101.48330389604604
10
93.463900595149468
20
-102.49867577773355
10
93.463900595149454
20
-106.69916577773353
42
-0.41421356237309503
0
LWPOLYLINE
5
104
100
AcDbEntity
8
0
100
AcDbPolyline
90
33
70
1
43
0.0
10
188.21380059514948
20
-107.19916577773354
10
165.18780059514944
20
-107.19916577773354
10
157.41280059514946
20
-107.19916577773354
42
-0.41421356237309503
10
156.91280059514946
20
-106.69916577773353
10
156.91280059514946
20
-105.72881577773353
10
156.91280059514946
20
-102.49867577773355
10
156.91280059514946
20
-97.898835777733538
10
156.91280059514946
20
-93.699635777733562
42
-0.41421356237310542
10
157.41280059514946
20
-93.199635777733533
10
164.81280059514947
20
-93.199635777733533
10
181.93880059514947
20
-93.199635777733533
10
186.23880059514946
20
-93.199635777733533
10
188.21380059514945
20
-93.199635777733533
42
-0.41421356237313667
10
188.71380059514945
20
-93.699635777733548
10
188.71380059514945
20
-97.483203896046035
10
191.61619521393868
20
-97.483203896046035
10
193.76180059514945
20
-97.483203896046035
10
193.76180059514945
20
-93.699635777733548
42
-0.41421356237311585
10
194.26180059514948
20
-93.199635777733533
10
198.61380059514943
20
-93.199635777733533
10
202.91180059514946
20
-93.199635777733533
10
207.26280059514949
20
-93.199635777733533
42
-0.41421356237309503
10
207.76280059514949
20
-93.699635777733548
10
207.76280059514949
20
-106.69916577773353
42
-0.41421356237309503
10
207.26280059514949
20
-107.19916577773354
10
194.26180059514948
20
-107.19916577773355
42
-0.41421356237310542
10
193.76180059514945
20
-106.69916577773353
10
193.76180059514945
20
-102.49867577773355
10
193.76180059514945
20
-101.48330389604604
10
191.61619521393868
20
-101.48330389604604
10
188.71380059514945
20
-101.48330389604604
10
188.71380059514945
20
-102.49867577773355
10
188.71380059514945
20
-106.69916577773355
42
-0.41421356237310542
0
LWPOLYLINE
5
105
100
AcDbEntity
8
0
100
AcDbPolyline
90
12
70
1
43
0.0
10
136.61280059514948
20
-106.69916577773353
10
136.61280059514948
20
-102.49867577773355
10
136.61280059514948
20
-97.898835777733538
10
136.61280059514948
20
-93.699635777733548
42
-0.41421356237309503
10
137.11280059514948
20
-93.199635777733533
10
150.11380059514943
20
-93.199635777733533
42
-0.41421356237309503
10
150.61380059514943
20
-93.699635777733548
10
150.61380059514943
20
-97.898835777733538
10
150.61380059514943
20
-102.49867577773355
10
150.61380059514943
20
-106.69916577773355
42
-0.41421356237309503
10
150.11380059514943
20
-107.19916577773355
10
137.11280059514948
20
-107.19916577773354
42
-0.41421356237309503
0
LWPOLYLINE
5
106
100
AcDbEntity
8
0
100
AcDbPolyline
90
8
70
1
43
0.0
10
45.337500595149443
20
-93.199635777733533
10
32.336700595149445
20
-93.199635777733533
42
0.41421356237309503
10
31.836700595149445
20
-93.699635777733548
10
31.836700595149445
20
-106.69916577773353
42
0.41421356237309503
10
32.336700595149438
20
-107.19916577773354
10
45.337500595149436
20
-107.19916577773354
42
0.41421356237309503
10
45.837500595149436
20
-106.69916577773353
10
45.837500595149436
20
-93.699635777733533
42
0.4142135623730846
0
LWPOLYLINE
5
107
100
AcDbEntity
8
0
100
AcDbPolyline
90
8
70
1
43
0.0
10
22.025000595149443
20
-106.69916577773353
10
22.025000595149443
20
-93.699635777733548
42
0.41421356237309503
10
21.525000595149443
20
-93.199635777733533
10
8.5255305951494442
20
-93.199635777733533
42
0.41421356237309503
10
8.0255305951494442
20
-93.699635777733548
10
8.0255305951494442
20
-106.69916577773353
42
0.41421356237309503
10
8.5255305951494442
20
-107.19916577773354
10
21.525000595149443
20
-107.19916577773354
42
0.41421356237309503
0
LWPOLYLINE
5
108
100
AcDbEntity
8
0
100
AcDbPolyline
90
8
70
1
43
0.0
10
55.649300595149441
20
-93.699635777733533
10
55.649300595149441
20
-106.69916577773353
42
0.41421356237309503
10
56.149300595149441
20
-107.19916577773354
10
69.15000059514945
20
-107.19916577773354
42
0.41421356237308982
10
69.650000595149436
20
-106.69916577773353
10
69.650000595149436
20
-93.699635777733533
42
0.41421356237309503
10
69.150000595149436
20
-93.199635777733533
10
56.149300595149455
20
-93.199635777733533
42
0.41421356237310025
0
LWPOLYLINE
5
109
100
AcDbEntity
8
0
100
AcDbPolyline
90
8
70
1
43
0.0
10
36.312780595149441
20
-30.499735777733523
10
36.312780595149448
20
-17.499735777733516
42
0.4142135623730846
10
35.812780595149448
20
-16.999735777733527
10
22.812780595149441
20
-16.999735777733527
42
0.4142135623730846
10
22.312780595149437
20
-17.499735777733516
10
22.312780595149441
20
-30.499735777733523
42
0.41421356237309503
10
22.812780595149441
20
-30.99973577773353
10
35.812780595149441
20
-30.99973577773353
42
0.414213562373069
0
LWPOLYLINE
5
110
100
AcDbEntity
8
0
100
AcDbPolyline
90
8
70
1
43
0.0
10
73.912780595149457
20
-16.999735777733527
10
60.912780595149449
20
-16.999735777733527
42
0.4142135623730846
10
60.412780595149442
20
-17.499735777733516
10
60.412780595149449
20
-30.499735777733523
42
0.41421356237309503
10
60.912780595149449
20
-30.99973577773353
10
73.912780595149457
20
-30.99973577773353
42
0.41421356237306384
10
74.412780595149442
20
-30.499735777733523
10
74.412780595149457
20
-17.499735777733516
42
0.4142135623730846
0
LWPOLYLINE
5
111
100
AcDbEntity
8
0
100
AcDbPolyline
90
8
70
1
43
0.0
10
54.862780595149452
20
-16.999735777733527
10
41.862780595149445
20
-16.999735777733527
42
0.4142135623730846
10
41.362780595149445
20
-17.499735777733516
10
41.362780595149445
20
-30.499735777733523
42
0.41421356237309503
10
41.862780595149445
20
-30.99973577773353
10
54.862780595149445
20
-30.99973577773353
42
0.41421356237307422
10
55.362780595149452
20
-30.499735777733523
10
55.362780595149452
20
-17.499735777733516
42
0.4142135623730846
0
LWPOLYLINE
5
112
100
AcDbEntity
8
0
100
AcDbPolyline
90
8
70
1
43
0.0
10
137.11278059514945
20
-30.99973577773353
42
-0.41421356237309503
10
136.61278059514945
20
-30.499735777733523
10
136.61278059514945
20
-17.499735777733516
42
-0.4142135623730846
10
137.11278059514945
20
-16.999735777733527
10
150.11278059514947
20
-16.999735777733527
42
-0.4142135623730846
10
150.61278059514947
20
-17.499735777733516
10
150.61278059514945
20
-30.499735777733523
42
-0.41421356237306384
10
150.11278059514947
20
-30.99973577773353
0
LWPOLYLINE
5
113
100
AcDbEntity
8
0
100
AcDbPolyline
90
8
70
1
43
0.0
10
79.462780595149439
20
-17.499735777733516
42
-0.4142135623730846
10
79.962780595149439
20
-16.999735777733527
10
92.962780595149454
20
-16.999735777733527
42
-0.4142135623730846
10
93.462780595149454
20
-17.499735777733516
10
93.462780595149454
20
-30.499735777733523
42
-0.41421356237307422
10
92.962780595149454
20
-30.99973577773353
10
79.962780595149439
20
-30.999735777733513
42
-0.41421356237309503
10
79.462780595149454
20
-30.499735777733523
0
LWPOLYLINE
5
114
100
AcDbEntity
8
0
100
AcDbPolyline
90
8
70
1
43
0.0
10
131.06278059514946
20
-16.999735777733527
42
-0.4142135623730846
10
131.56278059514946
20
-17.499735777733516
10
131.56278059514946
20
-30.499735777733523
42
-0.41421356237307422
10
131.06278059514946
20
-30.99973577773353
10
118.06278059514945
20
-30.999735777733513
42
-0.41421356237309503
10
117.56278059514946
20
-30.499735777733523
10
117.56278059514943
20
-17.499735777733516
42
-0.4142135623730846
10
118.06278059514945
20
-16.999735777733527
0
LWPOLYLINE
5
115
100
AcDbEntity
8
0
100
AcDbPolyline
90
8
70
1
43
0.0
10
112.01278059514947
20
-16.999735777733527
10
99.012780595149451
20
-16.999735777733527
42
0.4142135623730846
10
98.512780595149451
20
-17.499735777733516
10
98.512780595149451
20
-30.499735777733523
42
0.41421356237309503
10
99.012780595149451
20
-30.99973577773353
10
112.01278059514945
20
-30.99973577773353
42
0.41421356237307422
10
112.51278059514945
20
-30.499735777733523
10
112.51278059514945
20
-17.499735777733516
42
0.4142135623730846
0
LWPOLYLINE
5
116
100
AcDbEntity
8
0
100
AcDbPolyline
90
8
70
1
43
0.0
10
188.71278059514947
20
-30.499735777733523
10
188.71278059514947
20
-17.499735777733516
42
0.4142135623730846
10
188.2127805951495
20
-16.999735777733527
10
175.21278059514944
20
-16.999735777733527
42
0.4142135623730846
10
174.71278059514947
20
-17.499735777733516
10
174.71278059514947
20
-30.499735777733523
42
0.41421356237309503
10
175.21278059514944
20
-30.99973577773353
10
188.21278059514947
20
-30.99973577773353
42
0.41421356237306384
0
LWPOLYLINE
5
117
100
AcDbEntity
8
0
100
AcDbPolyline
90
8
70
1
43
0.0
10
269.96278059514947
20
-17.499735777733516
42
-0.4142135623730846
10
270.46278059514947
20
-16.999735777733527
10
283.46278059514941
20
-16.999735777733527
42
-0.4142135623730846
10
283.96278059514947
20
-17.499735777733516
10
283.96278059514947
20
-30.499735777733523
42
-0.4142135623730846
10
283.46278059514947
20
-30.99973577773353
10
270.46278059514947
20
-30.99973577773353
42
-0.41421356237309503
10
269.96278059514947
20
-30.499735777733523
0
LWPOLYLINE
5
118
100
AcDbEntity
8
0
100
AcDbPolyline
90
8
70
1
43
0.0
10
169.66278059514946
20
-30.499735777733523
10
169.66278059514946
20
-17.499735777733516
42
0.4142135623730846
10
169.16278059514948
20
-16.999735777733527
10
156.16278059514946
20
-16.999735777733527
42
0.4142135623730846
10
155.66278059514946
20
-17.499735777733516
10
155.66278059514946
20
-30.499735777733523
42
0.41421356237309503
10
156.16278059514946
20
-30.99973577773353
10
169.16278059514948
20
-30.99973577773353
42
0.41421356237306384
0
LWPOLYLINE
5
119
100
AcDbEntity
8
0
100
AcDbPolyline
90
8
70
1
43
0.0
10
226.31278059514949
20
-16.999735777733527
10
213.31278059514946
20
-16.999735777733527
42
0.4142135623730846
10
212.81278059514946
20
-17.499735777733516
10
212.81278059514946
20
-30.499735777733523
42
0.41421356237309503
10
213.31278059514946
20
-30.99973577773353
10
226.31278059514949
20
-30.99973577773353
42
0.41421356237306384
10
226.81278059514949
20
-30.499735777733523
10
226.81278059514949
20
-17.499735777733516
42
0.4142135623730846
0
LWPOLYLINE
5
120
100
AcDbEntity
8
0
100
AcDbPolyline
90
8
70
1
43
0.0
10
251.41278059514948
20
-30.99973577773353
10
264.41278059514946
20
-30.99973577773353
42
0.4142135623730846
10
264.91278059514946
20
-30.499735777733523
10
264.91278059514946
20
-17.499735777733516
42
0.4142135623730846
10
264.41278059514946
20
-16.999735777733527
10
251.41278059514948
20
-16.999735777733527
42
0.4142135623730846
10
250.91278059514946
20
-17.499735777733516
10
250.91278059514946
20
-30.499735777733523
42
0.41421356237309503
0
LWPOLYLINE
5
121
100
AcDbEntity
8
0
100
AcDbPolyline
90
8
70
1
43
0.0
10
194.26278059514945
20
-30.999735777733495
42
-0.41421356237309503
10
193.76278059514948
20
-30.499735777733523
10
193.76278059514945
20
-17.499735777733516
42
-0.4142135623730846
10
194.26278059514945
20
-16.999735777733527
10
207.26278059514948
20
-16.999735777733527
42
-0.4142135623730846
10
207.76278059514948
20
-17.499735777733516
10
207.76278059514942
20
-30.499735777733523
42
-0.41421356237306384
10
207.26278059514948
20
-30.99973577773353
0
LWPOLYLINE
5
122
100
AcDbEntity
8
0
100
AcDbPolyline
90
8
70
1
43
0.0
10
231.86278059514947
20
-17.499735777733516
42
-0.4142135623730846
10
232.36278059514947
20
-16.999735777733527
10
245.36278059514942
20
-16.999735777733491
42
-0.4142135623730846
10
245.8627805951495
20
-17.499735777733516
10
245.86278059514945
20
-30.499735777733523
42
-0.4142135623730846
10
245.36278059514945
20
-30.99973577773353
10
232.36278059514947
20
-30.99973577773353
42
-0.41421356237309503
10
231.86278059514947
20
-30.499735777733523
0
LWPOLYLINE
5
123
100
AcDbEntity
8
0
100
AcDbPolyline
90
8
70
1
43
0.0
10
112.51278059514945
20
-49.549735777733524
10
112.51278059514945
20
-36.549735777733517
42
0.4142135623730846
10
112.01278059514947
20
-36.049735777733531
10
99.012780595149451
20
-36.049735777733531
42
0.4142135623730846
10
98.512780595149451
20
-36.549735777733517
10
98.512780595149451
20
-49.549735777733524
42
0.41421356237309503
10
99.012780595149451
20
-50.049735777733531
10
112.01278059514945
20
-50.049735777733531
42
0.41421356237307422
0
LWPOLYLINE
5
124
100
AcDbEntity
8
0
100
AcDbPolyline
90
8
70
1
43
0.0
10
54.862780595149452
20
-36.049735777733531
10
41.862780595149445
20
-36.049735777733531
42
0.4142135623730846
10
41.362780595149445
20
-36.549735777733517
10
41.362780595149445
20
-49.549735777733524
42
0.41421356237309503
10
41.862780595149445
20
-50.049735777733531
10
54.862780595149445
20
-50.049735777733531
42
0.41421356237307422
10
55.362780595149452
20
-49.549735777733524
10
55.362780595149452
20
-36.549735777733517
42
0.4142135623730846
0
LWPOLYLINE
5
125
100
AcDbEntity
8
0
100
AcDbPolyline
90
8
70
1
43
0.0
10
117.56278059514946
20
-36.549735777733517
10
117.56278059514946
20
-49.549735777733524
42
0.41421356237309503
10
118.06278059514945
20
-50.049735777733531
10
131.06278059514946
20
-50.049735777733531
42
0.41421356237307422
10
131.56278059514946
20
-49.549735777733524
10
131.56278059514946
20
-36.549735777733517
42
0.4142135623730846
10
131.06278059514946
20
-36.049735777733531
10
118.06278059514945
20
-36.049735777733531
42
0.4142135623730846
0
LWPOLYLINE
5
126
100
AcDbEntity
8
0
100
AcDbPolyline
90
8
70
1
43
0.0
10
92.962780595149454
20
-36.049735777733531
42
-0.4142135623730846
10
93.462780595149454
20
-36.549735777733517
10
93.462780595149454
20
-49.549735777733524
42
-0.41421356237307422
10
92.962780595149454
20
-50.049735777733531
10
79.962780595149439
20
-50.049735777733517
42
-0.41421356237309503
10
79.462780595149454
20
-49.549735777733524
10
79.462780595149439
20
-36.549735777733517
42
-0.4142135623730846
10
79.962780595149439
20
-36.049735777733531
0
LWPOLYLINE
5
127
100
AcDbEntity
8
0
100
AcDbPolyline
90
8
70
1
43
0.0
10
137.11278059514945
20
-50.049735777733531
10
150.11278059514947
20
-50.049735777733531
42
0.41421356237306384
10
150.61278059514945
20
-49.549735777733524
10
150.61278059514947
20
-36.549735777733517
42
0.4142135623730846
10
150.11278059514947
20
-36.049735777733531
10
137.11278059514945
20
-36.049735777733531
42
0.4142135623730846
10
136.61278059514945
20
-36.549735777733517
10
136.61278059514945
20
-49.549735777733524
42
0.41421356237309503
0
LWPOLYLINE
5
128
100
AcDbEntity
8
0
100
AcDbPolyline
90
8
70
1
43
0.0
10
156.16278059514946
20
-50.049735777733531
10
169.16278059514948
20
-50.049735777733531
42
0.41421356237306384
10
169.66278059514946
20
-49.549735777733524
10
169.66278059514946
20
-36.549735777733517
42
0.4142135623730846
10
169.16278059514948
20
-36.049735777733531
10
156.16278059514946
20
-36.049735777733531
42
0.4142135623730846
10
155.66278059514946
20
-36.549735777733517
10
155.66278059514946
20
-49.549735777733524
42
0.41421356237309503
0
LWPOLYLINE
5
129
100
AcDbEntity
8
0
100
AcDbPolyline
90
8
70
1
43
0.0
10
74.412780595149442
20
-49.549735777733524
42
-0.41421356237306384
10
73.912780595149457
20
-50.049735777733531
10
60.912780595149449
20
-50.049735777733524
42
-0.41421356237309503
10
60.412780595149449
20
-49.549735777733524
10
60.412780595149442
20
-36.549735777733517
42
-0.4142135623730846
10
60.912780595149449
20
-36.049735777733531
10
73.912780595149457
20
-36.049735777733531
42
-0.4142135623730846
10
74.412780595149457
20
-36.549735777733517
0
LWPOLYLINE
5
130
100
AcDbEntity
8
0
100
AcDbPolyline
90
8
70
1
43
0.0
10
16.762780595149447
20
-36.049735777733531
10
3.7627805951494375
20
-36.049735777733531
42
0.4142135623730846
10
3.2627805951494349
20
-36.549735777733517
10
3.2627805951494393
20
-49.549735777733524
42
0.41421356237309503
10
3.7627805951494375
20
-50.049735777733531
10
16.76278059514944
20
-50.049735777733531
42
0.414213562373069
10
17.26278059514944
20
-49.549735777733524
10
17.262780595149447
20
-36.549735777733517
42
0.4142135623730846
0
LWPOLYLINE
5
131
100
AcDbEntity
8
0
100
AcDbPolyline
90
8
70
1
43
0.0
10
35.812780595149448
20
-36.049735777733538
42
-0.4142135623730846
10
36.312780595149448
20
-36.549735777733517
10
36.312780595149441
20
-49.549735777733524
42
-0.414213562373069
10
35.812780595149441
20
-50.049735777733531
10
22.812780595149441
20
-50.049735777733524
42
-0.41421356237309503
10
22.312780595149441
20
-49.549735777733524
10
22.312780595149434
20
-36.549735777733517
42
-0.4142135623730846
10
22.812780595149441
20
-36.049735777733531
0
LWPOLYLINE
5
132
100
AcDbEntity
8
0
100
AcDbPolyline
90
8
70
1
43
0.0
10
188.2127805951495
20
-36.049735777733531
10
175.21278059514944
20
-36.049735777733531
42
0.4142135623730846
10
174.71278059514947
20
-36.549735777733517
10
174.71278059514947
20
-49.549735777733524
42
0.41421356237309503
10
175.21278059514944
20
-50.049735777733531
10
188.21278059514947
20
-50.049735777733531
42
0.41421356237306384
10
188.71278059514947
20
-49.549735777733524
10
188.71278059514947
20
-36.549735777733517
42
0.4142135623730846
0
LWPOLYLINE
5
133
100
AcDbEntity
8
0
100
AcDbPolyline
90
8
70
1
43
0.0
10
231.86278059514947
20
-36.549735777733517
10
231.86278059514947
20
-49.549735777733524
42
0.41421356237309503
10
232.36278059514947
20
-50.049735777733531
10
245.36278059514945
20
-50.049735777733531
42
0.4142135623730846
10
245.8627805951495
20
-49.549735777733524
10
245.8627805951495
20
-36.549735777733517
42
0.4142135623730846
10
245.36278059514945
20
-36.049735777733531
10
232.36278059514947
20
-36.049735777733531
42
0.4142135623730846
0
LWPOLYLINE
5
134
100
AcDbEntity
8
0
100
AcDbPolyline
90
8
70
1
43
0.0
10
264.91278059514946
20
-49.549735777733524
42
-0.4142135623730846
10
264.41278059514946
20
-50.049735777733531
10
251.41278059514948
20
-50.049735777733567
42
-0.41421356237309503
10
250.91278059514946
20
-49.549735777733524
10
250.91278059514948
20
-36.549735777733517
42
-0.4142135623730846
10
251.41278059514948
20
-36.049735777733531
10
264.41278059514946
20
-36.049735777733531
42
-0.4142135623730846
10
264.91278059514946
20
-36.549735777733517
0
LWPOLYLINE
5
135
100
AcDbEntity
8
0
100
AcDbPolyline
90
8
70
1
43
0.0
10
226.81278059514943
20
-49.549735777733524
42
-0.41421356237306384
10
226.31278059514949
20
-50.049735777733531
10
213.31278059514946
20
-50.049735777733531
42
-0.41421356237309503
10
212.81278059514946
20
-49.549735777733524
10
212.81278059514946
20
-36.549735777733517
42
-0.4142135623730846
10
213.31278059514946
20
-36.049735777733531
10
226.31278059514949
20
-36.049735777733531
42
-0.4142135623730846
10
226.81278059514949
20
-36.549735777733517
0
LWPOLYLINE
5
136
100
AcDbEntity
8
0
100
AcDbPolyline
90
8
70
1
43
0.0
10
283.46278059514941
20
-36.049735777733531
42
-0.4142135623730846
10
283.96278059514947
20
-36.549735777733517
10
283.96278059514947
20
-49.549735777733524
42
-0.4142135623730846
10
283.46278059514947
20
-50.049735777733531
10
270.46278059514947
20
-50.049735777733531
42
-0.41421356237309503
10
269.96278059514947
20
-49.549735777733524
10
269.96278059514947
20
-36.549735777733517
42
-0.4142135623730846
10
270.46278059514947
20
-36.049735777733531
0
LWPOLYLINE
5
137
100
AcDbEntity
8
0
100
AcDbPolyline
90
8
70
1
43
0.0
10
194.26278059514945
20
-50.049735777733531
10
207.26278059514948
20
-50.049735777733531
42
0.41421356237306384
10
207.76278059514948
20
-49.549735777733524
10
207.76278059514948
20
-36.549735777733517
42
0.4142135623730846
10
207.26278059514948
20
-36.049735777733531
10
194.26278059514945
20
-36.049735777733531
42
0.4142135623730846
10
193.76278059514948
20
-36.549735777733517
10
193.76278059514948
20
-49.549735777733524
42
0.41421356237309503
0
LWPOLYLINE
5
138
100
AcDbEntity
8
0
100
AcDbPolyline
90
8
70
1
43
0.0
10
41.862780595149445
20
-69.099735777733542
10
54.862780595149445
20
-69.099735777733542
42
0.41421356237307422
10
55.362780595149452
20
-68.599735777733528
10
55.362780595149452
20
-55.599735777733521
42
0.4142135623730846
10
54.862780595149452
20
-55.099735777733528
10
41.862780595149445
20
-55.099735777733528
42
0.4142135623730846
10
41.362780595149445
20
-55.599735777733521
10
41.362780595149445
20
-68.599735777733528
42
0.41421356237309503
0
LWPOLYLINE
5
139
100
AcDbEntity
8
0
100
AcDbPolyline
90
8
70
1
43
0.0
10
99.012780595149451
20
-69.099735777733542
10
112.01278059514945
20
-69.099735777733542
42
0.41421356237307422
10
112.51278059514945
20
-68.599735777733528
10
112.51278059514945
20
-55.599735777733521
42
0.4142135623730846
10
112.01278059514947
20
-55.099735777733528
10
99.012780595149451
20
-55.099735777733528
42
0.4142135623730846
10
98.512780595149451
20
-55.599735777733521
10
98.512780595149451
20
-68.599735777733528
42
0.41421356237309503
0
LWPOLYLINE
5
140
100
AcDbEntity
8
0
100
AcDbPolyline
90
8
70
1
43
0.0
10
79.462780595149439
20
-55.599735777733521
10
79.462780595149454
20
-68.599735777733528
42
0.41421356237309503
10
79.962780595149439
20
-69.099735777733542
10
92.962780595149454
20
-69.099735777733542
42
0.41421356237307422
10
93.462780595149454
20
-68.599735777733528
10
93.462780595149454
20
-55.599735777733521
42
0.4142135623730846
10
92.962780595149454
20
-55.099735777733528
10
79.962780595149439
20
-55.099735777733528
42
0.4142135623730846
0
LWPOLYLINE
5
141
100
AcDbEntity
8
0
100
AcDbPolyline
90
8
70
1
43
0.0
10
60.912780595149449
20
-69.099735777733528
42
-0.41421356237309503
10
60.412780595149449
20
-68.599735777733528
10
60.412780595149442
20
-55.599735777733521
42
-0.4142135623730846
10
60.912780595149449
20
-55.099735777733528
10
73.912780595149457
20
-55.099735777733528
42
-0.4142135623730846
10
74.412780595149457
20
-55.599735777733521
10
74.412780595149442
20
-68.599735777733528
42
-0.41421356237306384
10
73.912780595149457
20
-69.099735777733542
0
LWPOLYLINE
5
142
100
AcDbEntity
8
0
100
AcDbPolyline
90
8
70
1
43
0.0
10
3.2627805951494349
20
-55.599735777733521
10
3.2627805951494393
20
-68.599735777733528
42
0.41421356237309503
10
3.7627805951494375
20
-69.099735777733542
10
16.76278059514944
20
-69.099735777733542
42
0.414213562373069
10
17.26278059514944
20
-68.599735777733528
10
17.262780595149447
20
-55.599735777733521
42
0.4142135623730846
10
16.762780595149447
20
-55.099735777733528
10
3.7627805951494375
20
-55.099735777733528
42
0.4142135623730846
0
LWPOLYLINE
5
143
100
AcDbEntity
8
0
100
AcDbPolyline
90
8
70
1
43
0.0
10
117.56278059514943
20
-55.599735777733521
42
-0.4142135623730846
10
118.06278059514945
20
-55.099735777733528
10
131.06278059514946
20
-55.099735777733528
42
-0.4142135623730846
10
131.56278059514946
20
-55.599735777733521
10
131.56278059514946
20
-68.599735777733528
42
-0.41421356237307422
10
131.06278059514946
20
-69.099735777733542
10
118.06278059514945
20
-69.099735777733514
42
-0.41421356237309503
10
117.56278059514946
20
-68.599735777733528
0
LWPOLYLINE
5
144
100
AcDbEntity
8
0
100
AcDbPolyline
90
8
70
1
43
0.0
10
35.812780595149448
20
-55.099735777733542
42
-0.4142135623730846
10
36.312780595149448
20
-55.599735777733521
10
36.312780595149441
20
-68.599735777733528
42
-0.414213562373069
10
35.812780595149441
20
-69.099735777733542
10
22.812780595149441
20
-69.099735777733528
42
-0.41421356237309503
10
22.312780595149441
20
-68.599735777733528
10
22.312780595149434
20
-55.599735777733521
42
-0.4142135623730846
10
22.812780595149441
20
-55.099735777733528
0
LWPOLYLINE
5
145
100
AcDbEntity
8
0
100
AcDbPolyline
90
8
70
1
43
0.0
10
150.11278059514947
20
-55.099735777733528
42
-0.4142135623730846
10
150.61278059514947
20
-55.599735777733521
10
150.61278059514945
20
-68.599735777733528
42
-0.41421356237306384
10
150.11278059514947
20
-69.099735777733542
10
137.11278059514945
20
-69.099735777733542
42
-0.41421356237309503
10
136.61278059514945
20
-68.599735777733528
10
136.61278059514945
20
-55.599735777733521
42
-0.4142135623730846
10
137.11278059514945
20
-55.099735777733528
0
LWPOLYLINE
5
146
100
AcDbEntity
8
0
100
AcDbPolyline
90
8
70
1
43
0.0
10
155.66278059514946
20
-55.599735777733521
42
-0.4142135623730846
10
156.16278059514946
20
-55.099735777733528
10
169.16278059514946
20
-55.099735777733571
42
-0.4142135623730846
10
169.66278059514946
20
-55.599735777733521
10
169.66278059514948
20
-68.599735777733528
42
-0.41421356237306384
10
169.16278059514948
20
-69.099735777733542
10
156.16278059514946
20
-69.099735777733514
42
-0.41421356237309503
10
155.66278059514946
20
-68.599735777733528
0
LWPOLYLINE
5
147
100
AcDbEntity
8
0
100
AcDbPolyline
90
8
70
1
43
0.0
10
188.2127805951495
20
-55.099735777733528
10
175.21278059514944
20
-55.099735777733528
42
0.4142135623730846
10
174.71278059514947
20
-55.599735777733521
10
174.71278059514947
20
-68.599735777733528
42
0.41421356237309503
10
175.21278059514944
20
-69.099735777733542
10
188.21278059514947
20
-69.099735777733542
42
0.41421356237306384
10
188.71278059514947
20
-68.599735777733528
10
188.71278059514947
20
-55.599735777733521
42
0.4142135623730846
0
LWPOLYLINE
5
148
100
AcDbEntity
8
0
100
AcDbPolyline
90
8
70
1
43
0.0
10
207.76278059514942
20
-68.599735777733528
42
-0.41421356237306384
10
207.26278059514948
20
-69.099735777733542
10
194.26278059514945
20
-69.0997357777335
42
-0.41421356237309503
10
193.76278059514948
20
-68.599735777733528
10
193.76278059514945
20
-55.599735777733521
42
-0.4142135623730846
10
194.26278059514945
20
-55.099735777733528
10
207.26278059514948
20
-55.099735777733528
42
-0.4142135623730846
10
207.76278059514948
20
-55.599735777733521
0
LWPOLYLINE
5
149
100
AcDbEntity
8
0
100
AcDbPolyline
90
8
70
1
43
0.0
10
270.46278059514947
20
-69.099735777733542
10
283.46278059514947
20
-69.099735777733542
42
0.4142135623730846
10
283.96278059514947
20
-68.599735777733528
10
283.96278059514947
20
-55.599735777733521
42
0.4142135623730846
10
283.46278059514947
20
-55.099735777733528
10
270.46278059514947
20
-55.099735777733528
42
0.4142135623730846
10
269.96278059514947
20
-55.599735777733521
10
269.96278059514947
20
-68.599735777733528
42
0.41421356237309503
0
LWPOLYLINE
5
150
100
AcDbEntity
8
0
100
AcDbPolyline
90
8
70
1
43
0.0
10
212.81278059514946
20
-55.599735777733521
42
-0.4142135623730846
10
213.31278059514946
20
-55.099735777733528
10
226.31278059514949
20
-55.099735777733528
42
-0.4142135623730846
10
226.81278059514949
20
-55.599735777733521
10
226.81278059514943
20
-68.599735777733528
42
-0.41421356237306384
10
226.31278059514949
20
-69.099735777733542
10
213.31278059514946
20
-69.099735777733542
42
-0.41421356237309503
10
212.81278059514946
20
-68.599735777733528
0
LWPOLYLINE
5
151
100
AcDbEntity
8
0
100
AcDbPolyline
90
8
70
1
43
0.0
10
250.91278059514946
20
-55.599735777733521
10
250.91278059514946
20
-68.599735777733528
42
0.41421356237309503
10
251.41278059514948
20
-69.099735777733542
10
264.41278059514946
20
-69.099735777733542
42
0.4142135623730846
10
264.91278059514946
20
-68.599735777733528
10
264.91278059514946
20
-55.599735777733521
42
0.4142135623730846
10
264.41278059514946
20
-55.099735777733528
10
251.41278059514948
20
-55.099735777733528
42
0.4142135623730846
0
LWPOLYLINE
5
152
100
AcDbEntity
8
0
100
AcDbPolyline
90
8
70
1
43
0.0
10
232.36278059514947
20
-69.099735777733542
10
245.36278059514945
20
-69.099735777733542
42
0.4142135623730846
10
245.8627805951495
20
-68.599735777733528
10
245.8627805951495
20
-55.599735777733521
42
0.4142135623730846
10
245.36278059514945
20
-55.099735777733528
10
232.36278059514947
20
-55.099735777733528
42
0.4142135623730846
10
231.86278059514947
20
-55.599735777733521
10
231.86278059514947
20
-68.599735777733528
42
0.41421356237309503
0
LWPOLYLINE
5
153
100
AcDbEntity
8
0
100
AcDbPolyline
90
8
70
1
43
0.0
10
60.412780595149442
20
-74.649735777733525
42
-0.4142135623730846
10
60.912780595149449
20
-74.14973577773354
10
73.912780595149457
20
-74.14973577773354
42
-0.4142135623730846
10
74.412780595149457
20
-74.649735777733525
10
74.412780595149457
20
-87.64973577773354
42
-0.4142135623730534
10
73.912780595149457
20
-88.149735777733554
10
60.912780595149449
20
-88.149735777733554
42
-0.41421356237309503
10
60.412780595149449
20
-87.64973577773354
0
LWPOLYLINE
5
154
100
AcDbEntity
8
0
100
AcDbPolyline
90
8
70
1
43
0.0
10
93.462780595149468
20
-87.64973577773354
42
-0.41421356237306384
10
92.962780595149454
20
-88.149735777733554
10
79.962780595149439
20
-88.149735777733525
42
-0.41421356237309503
10
79.462780595149454
20
-87.64973577773354
10
79.462780595149439
20
-74.649735777733525
42
-0.4142135623730846
10
79.962780595149439
20
-74.14973577773354
10
92.962780595149454
20
-74.14973577773354
42
-0.4142135623730846
10
93.462780595149454
20
-74.649735777733525
0
LWPOLYLINE
5
155
100
AcDbEntity
8
0
100
AcDbPolyline
90
8
70
1
43
0.0
10
54.862780595149452
20
-74.14973577773354
42
-0.4142135623730846
10
55.362780595149452
20
-74.649735777733525
10
55.362780595149474
20
-87.64973577773354
42
-0.41421356237306384
10
54.862780595149445
20
-88.149735777733554
10
41.862780595149445
20
-88.149735777733554
42
-0.41421356237309503
10
41.362780595149445
20
-87.64973577773354
10
41.362780595149438
20
-74.649735777733525
42
-0.4142135623730846
10
41.862780595149445
20
-74.14973577773354
0
LWPOLYLINE
5
156
100
AcDbEntity
8
0
100
AcDbPolyline
90
8
70
1
43
0.0
10
17.26278059514944
20
-87.64973577773354
10
17.262780595149447
20
-74.649735777733525
42
0.4142135623730846
10
16.762780595149447
20
-74.14973577773354
10
3.7627805951494375
20
-74.14973577773354
42
0.4142135623730846
10
3.2627805951494349
20
-74.649735777733525
10
3.2627805951494393
20
-87.64973577773354
42
0.41421356237309503
10
3.7627805951494375
20
-88.149735777733554
10
16.76278059514944
20
-88.149735777733554
42
0.41421356237305862
0
LWPOLYLINE
5
157
100
AcDbEntity
8
0
100
AcDbPolyline
90
8
70
1
43
0.0
10
22.312780595149437
20
-74.649735777733525
10
22.312780595149441
20
-87.64973577773354
42
0.41421356237309503
10
22.812780595149441
20
-88.149735777733554
10
35.812780595149441
20
-88.149735777733554
42
0.41421356237305862
10
36.312780595149441
20
-87.64973577773354
10
36.312780595149448
20
-74.649735777733525
42
0.4142135623730846
10
35.812780595149448
20
-74.14973577773354
10
22.812780595149441
20
-74.14973577773354
42
0.4142135623730846
0
LWPOLYLINE
5
158
100
AcDbEntity
8
0
100
AcDbPolyline
90
8
70
1
43
0.0
10
232.36278059514947
20
-88.149735777733554
42
-0.41421356237309503
10
231.86278059514947
20
-87.64973577773354
10
231.86278059514947
20
-74.649735777733525
42
-0.4142135623730846
10
232.36278059514947
20
-74.14973577773354
10
245.36278059514942
20
-74.149735777733497
42
-0.4142135623730846
10
245.8627805951495
20
-74.649735777733525
10
245.8627805951495
20
-87.64973577773354
42
-0.41421356237307422
10
245.36278059514945
20
-88.149735777733554
0
LWPOLYLINE
5
159
100
AcDbEntity
8
0
100
AcDbPolyline
90
8
70
1
43
0.0
10
213.31278059514946
20
-88.149735777733554
42
-0.41421356237309503
10
212.81278059514946
20
-87.64973577773354
10
212.81278059514946
20
-74.649735777733525
42
-0.4142135623730846
10
213.31278059514946
20
-74.14973577773354
10
226.31278059514949
20
-74.14973577773354
42
-0.4142135623730846
10
226.81278059514949
20
-74.649735777733525
10
226.81278059514949
20
-87.64973577773354
42
-0.4142135623730534
10
226.31278059514949
20
-88.149735777733554
0
LWPOLYLINE
5
160
100
AcDbEntity
8
0
100
AcDbPolyline
90
8
70
1
43
0.0
10
207.76278059514948
20
-87.64973577773354
42
-0.4142135623730534
10
207.26278059514948
20
-88.149735777733554
10
194.26278059514945
20
-88.149735777733511
42
-0.41421356237309503
10
193.76278059514948
20
-87.64973577773354
10
193.76278059514945
20
-74.649735777733525
42
-0.4142135623730846
10
194.26278059514945
20
-74.14973577773354
10
207.26278059514948
20
-74.14973577773354
42
-0.4142135623730846
10
207.76278059514948
20
-74.649735777733525
0
LWPOLYLINE
5
161
100
AcDbEntity
8
0
100
AcDbPolyline
90
8
70
1
43
0.0
10
188.71278059514947
20
-87.64973577773354
42
-0.4142135623730534
10
188.21278059514947
20
-88.149735777733554
10
175.21278059514944
20
-88.149735777733511
42
-0.41421356237309503
10
174.71278059514947
20
-87.64973577773354
10
174.71278059514944
20
-74.649735777733525
42
-0.4142135623730846
10
175.21278059514944
20
-74.14973577773354
10
188.21278059514947
20
-74.149735777733568
42
-0.4142135623730846
10
188.71278059514947
20
-74.649735777733525
0
LWPOLYLINE
5
162
100
AcDbEntity
8
0
100
AcDbPolyline
90
8
70
1
43
0.0
10
251.41278059514948
20
-88.149735777733554
10
264.41278059514946
20
-88.149735777733554
42
0.41421356237307422
10
264.91278059514946
20
-87.64973577773354
10
264.91278059514946
20
-74.649735777733525
42
0.4142135623730846
10
264.41278059514946
20
-74.14973577773354
10
251.41278059514948
20
-74.14973577773354
42
0.4142135623730846
10
250.91278059514946
20
-74.649735777733525
10
250.91278059514946
20
-87.64973577773354
42
0.41421356237309503
0
LWPOLYLINE
5
163
100
AcDbEntity
8
0
100
AcDbPolyline
90
8
70
1
43
0.0
10
118.06278059514945
20
-88.149735777733554
10
131.06278059514946
20
-88.149735777733554
42
0.41421356237306384
10
131.56278059514946
20
-87.64973577773354
10
131.56278059514946
20
-74.649735777733525
42
0.4142135623730846
10
131.06278059514946
20
-74.14973577773354
10
118.06278059514945
20
-74.14973577773354
42
0.4142135623730846
10
117.56278059514946
20
-74.649735777733525
10
117.56278059514946
20
-87.64973577773354
42
0.41421356237309503
0
LWPOLYLINE
5
164
100
AcDbEntity
8
0
100
AcDbPolyline
90
8
70
1
43
0.0
10
112.51278059514945
20
-87.64973577773354
10
112.51278059514945
20
-74.649735777733525
42
0.4142135623730846
10
112.01278059514947
20
-74.14973577773354
10
99.012780595149451
20
-74.14973577773354
42
0.4142135623730846
10
98.512780595149451
20
-74.649735777733525
10
98.512780595149451
20
-87.64973577773354
42
0.41421356237309503
10
99.012780595149451
20
-88.149735777733554
10
112.01278059514945
20
-88.149735777733554
42
0.41421356237306384
0
LWPOLYLINE
5
165
100
AcDbEntity
8
0
100
AcDbPolyline
90
8
70
1
43
0.0
10
169.66278059514946
20
-87.64973577773354
10
169.66278059514946
20
-74.649735777733525
42
0.4142135623730846
10
169.16278059514948
20
-74.14973577773354
10
156.16278059514946
20
-74.14973577773354
42
0.4142135623730846
10
155.66278059514946
20
-74.649735777733525
10
155.66278059514946
20
-87.64973577773354
42
0.41421356237309503
10
156.16278059514946
20
-88.149735777733554
10
169.16278059514948
20
-88.149735777733554
42
0.4142135623730534
0
LWPOLYLINE
5
166
100
AcDbEntity
8
0
100
AcDbPolyline
90
8
70
1
43
0.0
10
137.11278059514945
20
-88.149735777733554
42
-0.41421356237309503
10
136.61278059514945
20
-87.64973577773354
10
136.61278059514945
20
-74.649735777733525
42
-0.4142135623730846
10
137.11278059514945
20
-74.14973577773354
10
150.11278059514947
20
-74.14973577773354
42
-0.4142135623730846
10
150.61278059514947
20
-74.649735777733525
10
150.61278059514947
20
-87.64973577773354
42
-0.4142135623730534
10
150.11278059514947
20
-88.149735777733554
0
LWPOLYLINE
5
167
100
AcDbEntity
8
0
100
AcDbPolyline
90
8
70
1
43
0.0
10
269.96278059514947
20
-74.649735777733525
10
269.96278059514947
20
-87.64973577773354
42
0.41421356237309503
10
270.46278059514947
20
-88.149735777733554
10
283.46278059514947
20
-88.149735777733554
42
0.41421356237307422
10
283.96278059514947
20
-87.64973577773354
10
283.96278059514947
20
-74.649735777733525
42
0.4142135623730846
10
283.46278059514947
20
-74.14973577773354
10
270.46278059514947
20
-74.14973577773354
42
0.4142135623730846
0
LWPOLYLINE
5
168
100
AcDbEntity
8
0
100
AcDbPolyline
90
8
70
1
43
0.0
10
17.262780595149447
20
-30.499735777733523
10
17.262780595149458
20
-17.499735777733516
42
0.4142135623730846
10
16.762780595149458
20
-16.999735777733527
10
3.7627805951494464
20
-16.999735777733527
42
0.4142135623730846
10
3.2627805951494437
20
-17.499735777733516
10
3.2627805951494482
20
-30.499735777733523
42
0.41421356237309503
10
3.7627805951494464
20
-30.99973577773353
10
16.762780595149451
20
-30.99973577773353
42
0.414213562373069
0
LINE
5
169
100
AcDbEntity
8
0
100
AcDbLine
10
30.907649399668273
20
-12.099735777773848
30
0
11
0.36278059515135297
21
-12.09973577777669
31
0
0
CIRCLE
5
170
100
AcDbEntity
8
0
100
AcDbCircle
10
-0.051432967224496196
20
-13.685522215406039
30
0
40
0.97999999999999998
210
0
220
-0
230
1
0
ARC
5
171
100
AcDbEntity
8
0
100
AcDbCircle
10
0.36278059514854633
20
-14.099735777740845
30
0
40
1.9999999999641549
210
0
220
-0
230
1
100
AcDbArc
50
89.999999999919595
51
180
0
LINE
5
172
100
AcDbEntity
8
0
100
AcDbLine
10
-1.6372194048155997
20
-14.099735777741005
30
0
11
-1.6372194048425293
21
-110.10173319854547
31
0
0
ELLIPSE
5
173
100
AcDbEntity
8
0
100
AcDbEllipse
10
0.36278059515742811
20
-110.10173299243611
30
0
11
-4.2616136000000005e-09
21
-2.0000000814057644
31
0.0
40
0.99999995929711605
41
4.7123890855701891
42
6.2831853114414669
0
CIRCLE
5
174
100
AcDbEntity
8
0
100
AcDbCircle
10
-0.05143296721550783
20
-110.516374611667
30
0
40
0.93000000000000016
210
0
220
-0
230
1
0
LINE
5
175
100
AcDbEntity
8
0
100
AcDbLine
10
0.36278059941957574
20
-112.10173307384188
30
0
11
15.258851226437589
21
-112.10173307384122
31
0
0
ARC
5
176
100
AcDbEntity
8
0
100
AcDbCircle
10
15.316350813247386
20
-109.80216104929247
30
0
40
2.2500000000004263
210
-0
220
0
230
1
100
AcDbArc
50
280.57051215220241
51
327.86507199583565
0
LINE
5
177
100
AcDbEntity
8
0
100
AcDbLine
10
15.258851226437589
20
-112.10173307384122
30
0
11
15.729103072897574
21
-112.01397830488922
31
0
0
ARC
5
178
100
AcDbEntity
8
0
100
AcDbCircle
10
19.296300561667596
20
-112.30216104929153
30
0
40
2.4499999999999922
210
0
220
0
230
1
100
AcDbArc
50
90.000000000005414
51
147.86507199580728
0
LINE
5
179
100
AcDbEntity
8
0
100
AcDbLine
10
19.296300561667366
20
-109.85216104929152
30
0
11
24.196181696927361
21
-109.85216104929192
31
0
0
ARC
5
180
100
AcDbEntity
8
0
100
AcDbCircle
10
24.196181696927582
20
-112.30216104929106
30
0
40
2.4500000000000068
210
0
220
-0
230
1
100
AcDbArc
50
32.13492800420314
51
90.000000000005159
0
ARC
5
181
100
AcDbEntity
8
0
100
AcDbCircle
10
28.176131445357342
20
-109.80216104929127
30
0
40
2.2500000000026561
210
0
220
0
230
1
100
AcDbArc
50
212.13492800403932
51
259.42948784780776
0
LINE
5
182
100
AcDbEntity
8
0
100
AcDbLine
10
28.233631032157547
20
-112.10173307383999
30
0
11
136.84193015815725
21
-112.10173307382995
31
0
0
LINE
5
183
100
AcDbEntity
8
0
100
AcDbLine
10
27.763379185707137
20
-112.0139783048903
30
0
11
28.233631032157547
21
-112.10173307383999
31
0
0
ARC
5
184
100
AcDbEntity
8
0
100
AcDbCircle
10
136.89942974495705
20
-109.80216104928121
30
0
40
2.2500000000095981
210
-0
220
0
230
1
100
AcDbArc
50
280.57051215345354
51
326.41967853628853
0
LINE
5
185
100
AcDbEntity
8
0
100
AcDbLine
10
136.84193015815725
20
-112.10173307382995
30
0
11
137.31218200465722
21
-112.01397830487798
31
0
0
ARC
5
186
100
AcDbEntity
8
0
100
AcDbCircle
10
140.81502433365728
20
-112.40173784219964
30
0
40
2.4499999999999926
210
0
220
0
230
1
100
AcDbArc
50
90.000000567021544
51
146.41967853631212
0
LINE
5
187
100
AcDbEntity
8
0
100
AcDbLine
10
140.81502430941111
20
-109.95173784219965
30
0
11
145.84361581005703
21
-109.95173784700057
31
0
0
ARC
5
188
100
AcDbEntity
8
0
100
AcDbCircle
10
145.84361578835723
20
-112.4017378421992
30
0
40
2.4500000000000042
210
0
220
-0
230
1
100
AcDbArc
50
33.580321463664752
51
89.999999492527678
0
ARC
5
189
100
AcDbEntity
8
0
100
AcDbCircle
10
149.75921037705697
20
-109.80216104928003
30
0
40
2.2499999999999925
210
0
220
0
230
1
100
AcDbArc
50
213.58032146375791
51
259.42948784905997
0
LINE
5
190
100
AcDbEntity
8
0
100
AcDbLine
10
149.3464581174556
20
-112.01397830488546
30
0
11
149.81670996385725
21
-112.10173307382875
31
0
0
LINE
5
191
100
AcDbEntity
8
0
100
AcDbLine
10
149.81670996385725
20
-112.10173307382875
30
0
11
258.99193015815683
21
-112.10173307381864
31
0
0
ARC
5
192
100
AcDbEntity
8
0
100
AcDbCircle
10
259.04942974495674
20
-109.8021610492699
30
0
40
2.2500000000095981
210
-0
220
0
230
1
100
AcDbArc
50
280.5705121534528
51
327.86507199545122
0
LINE
5
193
100
AcDbEntity
8
0
100
AcDbLine
10
258.99193015815683
20
-112.10173307381864
30
0
11
259.46218200465688
21
-112.01397830486667
31
0
0
ARC
5
194
100
AcDbEntity
8
0
100
AcDbCircle
10
263.02937949335694
20
-112.30216104926893
30
0
40
2.4499999999999922
210
0
220
0
230
1
100
AcDbArc
50
90.000000000006665
51
147.86507199591193
0
LINE
5
195
100
AcDbEntity
8
0
100
AcDbLine
10
263.02937949335666
20
-109.85216104926893
30
0
11
267.92926062865672
21
-109.85216104926936
31
0
0
ARC
5
196
100
AcDbEntity
8
0
100
AcDbCircle
10
267.92926062865695
20
-112.30216104926846
30
0
40
2.449999999999978
210
0
220
-0
230
1
100
AcDbArc
50
32.134928004098903
51
90.000000000005315
0
ARC
5
197
100
AcDbEntity
8
0
100
AcDbCircle
10
271.90921037705664
20
-109.8021610492687
30
0
40
2.2499999999772227
210
0
220
0
230
1
100
AcDbArc
50
212.13492800455953
51
259.42948784906014
0
LINE
5
198
100
AcDbEntity
8
0
100
AcDbLine
10
271.49645811745944
20
-112.01397830485178
30
0
11
271.96670996385683
21
-112.10173307381743
31
0
0
LINE
5
199
100
AcDbEntity
8
0
100
AcDbLine
10
271.96670996385683
20
-112.10173307381743
30
0
11
286.8627805922531
21
-112.10173307381532
31
0
0
ELLIPSE
5
200
100
AcDbEntity
8
0
100
AcDbEllipse
10
286.86278059515666
20
-110.10173299240955
30
0
11
2.08e-13
21
-2.0000000814057644
31
0.0
40
0.99999995929711605
41
6.28318530572772
42
7.8539815301080349
0
CIRCLE
5
201
100
AcDbEntity
8
0
100
AcDbCircle
10
287.27699415755677
20
-110.51637461164037
30
0
40
0.93000000000000016
210
0
220
-0
230
1
0
LINE
5
202
100
AcDbEntity
8
0
100
AcDbLine
10
288.86278059515666
20
-110.10173320014225
30
0
11
288.86278059514768
21
-14.099735777714066
31
0
0
ARC
5
203
100
AcDbEntity
8
0
100
AcDbCircle
10
286.86278059514774
20
-14.099735777714288
30
0
40
1.9999999999999218
210
0
220
-0
230
1
100
AcDbArc
50
0
51
90.000000000006523
0
CIRCLE
5
204
100
AcDbEntity
8
0
100
AcDbCircle
10
287.27699415754762
20
-13.68552221537942
30
0
40
0.93000000000000016
210
0
220
-0
230
1
0
LINE
5
205
100
AcDbEntity
8
0
100
AcDbLine
10
286.86278059514751
20
-12.099735777714296
30
0
11
256.3179117906476
21
-12.099735777752967
31
0
0
LINE
5
206
100
AcDbEntity
8
0
100
AcDbLine
10
256.3179117906476
20
-12.099735777752967
30
0
11
255.84294556944755
21
-12.185735777751265
31
0
0
ARC
5
207
100
AcDbEntity
8
0
100
AcDbCircle
10
256.24382460354775
20
-14.39973577770667
30
0
40
2.249999999951918
210
0
220
0
230
1
100
AcDbArc
50
100.26309589823448
51
145.5826112900622
0
ARC
5
208
100
AcDbEntity
8
0
100
AcDbCircle
10
252.44909141134764
20
-11.799735777664351
30
0
40
2.3499999999999943
210
-0
220
0
230
1
100
AcDbArc
50
270.00000000000557
51
325.58261128819811
0
LINE
5
209
100
AcDbEntity
8
0
100
AcDbLine
10
252.44909141134787
20
-14.149735777664345
30
0
11
248.70979311174793
21
-14.149735777748891
31
0
0
ARC
5
210
100
AcDbEntity
8
0
100
AcDbCircle
10
248.70979311174764
20
-11.799735777664679
30
0
40
2.3499999999999845
210
0
220
0
230
1
100
AcDbArc
50
214.41738871181357
51
270.00000000000693
0
ARC
5
211
100
AcDbEntity
8
0
100
AcDbCircle
10
244.91505991954782
20
-14.399735777707745
30
0
40
2.2500000000225202
210
0
220
-0
230
1
100
AcDbArc
50
34.417388709945328
51
79.736904101774456
0
LINE
5
212
100
AcDbEntity
8
0
100
AcDbLine
10
245.31593895366024
20
-12.185735777682872
30
0
11
244.84097273244765
21
-12.099735777754033
31
0
0
LINE
5
213
100
AcDbEntity
8
0
100
AcDbLine
10
244.84097273244765
20
-12.099735777754033
30
0
11
149.18645955054791
21
-12.099735777762888
31
0
0
LINE
5
214
100
AcDbEntity
8
0
100
AcDbLine
10
149.18645955054791
20
-12.099735777762888
30
0
11
148.71840345454797
21
-12.19426530641238
31
0
0
ARC
5
215
100
AcDbEntity
8
0
100
AcDbCircle
10
149.16382460354814
20
-14.3997357777166
30
0
40
2.2499999999492233
210
0
220
0
230
1
100
AcDbArc
50
101.41798031453531
51
145.58261129006354
0
ARC
5
216
100
AcDbEntity
8
0
100
AcDbCircle
10
145.36909141134794
20
-11.799735777674272
30
0
40
2.3499999999999943
210
-0
220
0
230
1
100
AcDbArc
50
270.00000000000557
51
325.58261128819788
0
LINE
5
217
100
AcDbEntity
8
0
100
AcDbLine
10
145.36909141134817
20
-14.149735777674266
30
0
11
141.62979311174814
21
-14.149735777758803
31
0
0
ARC
5
218
100
AcDbEntity
8
0
100
AcDbCircle
10
141.62979311174794
20
-11.7997357776746
30
0
40
2.3499999999999903
210
0
220
0
230
1
100
AcDbArc
50
214.41738871181323
51
270.00000000000483
0
ARC
5
219
100
AcDbEntity
8
0
100
AcDbCircle
10
137.83505991954814
20
-14.399735777717639
30
0
40
2.25000000002247
210
0
220
-0
230
1
100
AcDbArc
50
34.417388709945484
51
79.736904101775181
0
LINE
5
220
100
AcDbEntity
8
0
100
AcDbLine
10
138.23593895366054
20
-12.185735777692763
30
0
11
137.76097273244798
21
-12.09973577776398
31
0
0
LINE
5
221
100
AcDbEntity
8
0
100
AcDbLine
10
137.76097273244798
20
-12.09973577776398
30
0
11
42.384588457848231
21
-12.099735777772782
31
0
0
LINE
5
222
100
AcDbEntity
8
0
100
AcDbLine
10
42.384588457848231
20
-12.099735777772782
30
0
11
41.909622236638256
21
-12.18573577777109
31
0
0
ARC
5
223
100
AcDbEntity
8
0
100
AcDbCircle
10
42.310501270758451
20
-14.399735777726503
30
0
40
2.2499999999554903
210
0
220
0
230
1
100
AcDbArc
50
100.26309589873547
51
145.58261128977628
0
ARC
5
224
100
AcDbEntity
8
0
100
AcDbCircle
10
38.515768078558239
20
-11.799735777684166
30
0
40
2.3499999999999943
210
-0
220
0
230
1
100
AcDbArc
50
270.00000000000517
51
325.58261128847289
0
LINE
5
225
100
AcDbEntity
8
0
100
AcDbLine
10
38.515768078558452
20
-14.14973577768416
30
0
11
34.776469778958457
21
-14.149735777768697
31
0
0
ARC
5
226
100
AcDbEntity
8
0
100
AcDbCircle
10
34.776469778958237
20
-11.799735777684486
30
0
40
2.3500000000000005
210
0
220
0
230
1
100
AcDbArc
50
214.41738871153774
51
270.0000000000054
0
ARC
5
227
100
AcDbEntity
8
0
100
AcDbCircle
10
30.981736586758515
20
-14.399735777727525
30
0
40
2.2500000000224003
210
0
220
-0
230
1
100
AcDbArc
50
34.417388710234341
51
79.73690410127513
0
LINE
5
228
100
AcDbEntity
8
0
100
AcDbLine
10
31.382615620890228
20
-12.185735777706165
30
0
11
30.907649399668273
21
-12.099735777773848
31
0
0
ENDSEC
0
SECTION
2
OBJECTS
0
DICTIONARY
5
C
100
AcDbDictionary
3
ACAD_GROUP
350
D
3
ACAD_MLINESTYLE
350
17
0
DICTIONARY
5
D
100
AcDbDictionary
0
DICTIONARY
5
1A
330
C
100
AcDbDictionary
0
DICTIONARY
5
17
100
AcDbDictionary
0
ENDSEC
0
EOF
