0
SECTION
2
HEADER
9
$INSUNITS
70
4
9
$ACADVER
1
AC1014
9
$HANDSEED
5
FFFF
0
ENDSEC
0
SECTION
2
TABLES
0
TABLE
2
VPORT
5
8
100
AcDbSymbolTable
0
ENDTAB
0
TABLE
2
LTYPE
5
5
100
AcDbSymbolTable
0
LTYPE
5
14
100
AcDbSymbolTableRecord
100
AcDbLinetypeTableRecord
2
BYBLOCK
70
0
0
LTYPE
5
15
100
AcDbSymbolTableRecord
100
AcDbLinetypeTableRecord
2
BYLAYER
70
0
0
ENDTAB
0
TABLE
2
LAYER
5
2
100
AcDbSymbolTable
70
2
0
LAYER
5
50
100
AcDbSymbolTableRecord
100
AcDbLayerTableRecord
2
0
70
0
6
CONTINUOUS
0
ENDTAB
0
TABLE
2
STYLE
5
3
100
AcDbSymbolTable
70
1
0
STYLE
5
11
100
AcDbSymbolTableRecord
100
AcDbTextStyleTableRecord
2
STANDARD
70
0
0
ENDTAB
0
TABLE
2
VIEW
5
6
100
AcDbSymbolTable
70
0
0
ENDTAB
0
TABLE
2
UCS
5
7
100
AcDbSymbolTable
70
0
0
ENDTAB
0
TABLE
2
APPID
5
9
100
AcDbSymbolTable
70
2
0
APPID
5
12
100
AcDbSymbolTableRecord
100
AcDbRegAppTableRecord
2
ACAD
70
0
0
ENDTAB
0
TABLE
2
DIMSTYLE
5
A
100
AcDbSymbolTable
70
1
0
ENDTAB
0
TABLE
2
BLOCK_RECORD
5
1
100
AcDbSymbolTable
70
1
0
BLOCK_RECORD
5
1F
100
AcDbSymbolTableRecord
100
AcDbBlockTableRecord
2
*MODEL_SPACE
0
BLOCK_RECORD
5
1B
100
AcDbSymbolTableRecord
100
AcDbBlockTableRecord
2
*PAPER_SPACE
0
ENDTAB
0
ENDSEC
0
SECTION
2
BLOCKS
0
BLOCK
5
20
100
AcDbEntity
100
AcDbBlockBegin
2
*MODEL_SPACE
0
ENDBLK
5
21
100
AcDbEntity
100
AcDbBlockEnd
0
BLOCK
5
1C
100
AcDbEntity
100
AcDbBlockBegin
2
*PAPER_SPACE
0
ENDBLK
5
1D
100
AcDbEntity
100
AcDbBlockEnd
0
ENDSEC
0
SECTION
2
ENTITIES
0
LWPOLYLINE
5
100
100
AcDbEntity
8
0
100
AcDbPolyline
90
8
70
1
43
0.0
10
254.57906544467079
20
143.60761035644282
10
241.57806544467078
20
143.60761035644282
42
0.4142135623730846
10
241.07806544467076
20
143.10761035644282
10
241.07806544467076
20
130.10808035644283
42
0.41421356237309503
10
241.57806544467078
20
129.60808035644283
10
254.57906544467079
20
129.60808035644283
42
0.41421356237309503
10
255.07906544467085
20
130.10808035644283
10
255.07906544467085
20
143.10761035644279
42
0.41421356237310542
0
LWPOLYLINE
5
101
100
AcDbEntity
8
0
100
AcDbPolyline
90
8
70
1
43
0.0
10
278.89106544467086
20
130.10808035644283
10
278.89106544467086
20
143.10761035644282
42
0.41421356237309503
10
278.3910654446708
20
143.60761035644282
10
265.39206544467078
20
143.60761035644282
42
0.41421356237309503
10
264.89206544467083
20
143.10761035644282
10
264.89206544467083
20
130.10808035644283
42
0.41421356237310542
10
265.39206544467078
20
129.6080803564428
10
278.3910654446708
20
129.6080803564428
42
0.41421356237309503
0
LWPOLYLINE
5
102
100
AcDbEntity
8
0
100
AcDbPolyline
90
8
70
1
43
0.0
10
217.76706544467083
20
129.60808035644283
10
230.76606544467083
20
129.60808035644283
42
0.41421356237309503
10
231.2660654446708
20
130.10808035644283
10
231.2660654446708
20
143.10761035644279
42
0.41421356237310542
10
230.76606544467083
20
143.60761035644282
10
217.76706544467089
20
143.60761035644282
42
0.41421356237309503
10
217.26706544467083
20
143.10761035644282
10
217.26706544467083
20
130.10808035644277
42
0.41421356237309503
0
LWPOLYLINE
5
103
100
AcDbEntity
8
0
100
AcDbPolyline
90
31
70
1
43
0.0
10
92.655165444670772
20
129.60808035644283
10
79.654465444670777
20
129.60808035644283
42
-0.41421356237309503
10
79.154465444670777
20
130.10808035644283
10
79.154465444670777
20
143.10761035644282
42
-0.41421356237309503
10
79.654465444670791
20
143.60761035644282
10
84.005365444670758
20
143.60761035644282
10
88.30426544467079
20
143.60761035644282
10
92.655165444670772
20
143.60761035644282
42
-0.41421356237309503
10
93.155165444670786
20
143.10761035644282
10
93.155165444670786
20
139.32404223813032
10
98.204465444670774
20
139.32404223813032
10
98.204465444670774
20
143.10761035644282
42
-0.41421356237307422
10
98.704465444670788
20
143.60761035644282
10
100.67906544467078
20
143.60761035644282
10
104.97906544467079
20
143.60761035644282
10
121.72906544467079
20
143.60761035644282
10
129.50406544467077
20
143.60761035644282
42
-0.41421356237309503
10
130.00406544467077
20
143.10761035644282
10
130.00406544467077
20
138.90841035644283
10
130.00406544467077
20
134.30857035644283
10
130.00406544467077
20
131.07843035644282
10
130.00406544467077
20
130.10808035644285
42
-0.41421356237310542
10
129.50406544467077
20
129.60808035644283
10
121.72906544467079
20
129.60808035644283
10
98.704465444670802
20
129.60808035644283
42
-0.41421356237309503
10
98.204465444670774
20
130.10808035644285
10
98.204465444670774
20
134.30857035644283
10
98.204465444670774
20
135.32394223813031
10
93.155165444670786
20
135.32394223813031
10
93.1551654446708
20
134.30857035644283
10
93.155165444670786
20
130.10808035644283
42
-0.41421356237309503
0
LWPOLYLINE
5
104
100
AcDbEntity
8
0
100
AcDbPolyline
90
33
70
1
43
0.0
10
187.90506544467078
20
129.60808035644283
10
164.8790654446708
20
129.60808035644283
10
157.10406544467079
20
129.60808035644283
42
-0.41421356237309503
10
156.60406544467077
20
130.10808035644283
10
156.60406544467077
20
131.07843035644282
10
156.60406544467077
20
134.30857035644283
10
156.60406544467077
20
138.90841035644283
10
156.60406544467077
20
143.10761035644279
42
-0.41421356237310542
10
157.10406544467079
20
143.60761035644282
10
164.5040654446708
20
143.60761035644282
10
181.63006544467081
20
143.60761035644282
10
185.93006544467079
20
143.60761035644282
10
187.90506544467078
20
143.60761035644282
42
-0.41421356237310542
10
188.40506544467075
20
143.10761035644282
10
188.40506544467075
20
139.32404223813032
10
191.30746006346001
20
139.32404223813032
10
193.45306544467078
20
139.32404223813032
10
193.45306544467076
20
143.10761035644282
42
-0.41421356237313667
10
193.95306544467081
20
143.60761035644282
10
198.30506544467079
20
143.60761035644282
10
202.60306544467079
20
143.60761035644282
10
206.95406544467085
20
143.60761035644279
42
-0.41421356237309503
10
207.45406544467079
20
143.10761035644282
10
207.45406544467085
20
130.10808035644283
42
-0.41421356237309503
10
206.95406544467085
20
129.60808035644283
10
193.95306544467076
20
129.60808035644285
42
-0.41421356237309503
10
193.45306544467078
20
130.10808035644283
10
193.45306544467078
20
134.30857035644283
10
193.45306544467078
20
135.32394223813031
10
191.30746006346001
20
135.32394223813031
10
188.40506544467075
20
135.32394223813031
10
188.40506544467075
20
134.30857035644283
10
188.40506544467075
20
130.10808035644283
42
-0.41421356237310542
0
LWPOLYLINE
5
105
100
AcDbEntity
8
0
100
AcDbPolyline
90
12
70
1
43
0.0
10
136.30406544467081
20
130.10808035644283
10
136.30406544467081
20
134.30857035644283
10
136.30406544467081
20
138.90841035644283
10
136.30406544467081
20
143.10761035644282
42
-0.41421356237309503
10
136.80406544467081
20
143.60761035644282
10
149.80506544467076
20
143.60761035644285
42
-0.41421356237309503
10
150.30506544467076
20
143.10761035644282
10
150.30506544467076
20
138.90841035644283
10
150.30506544467076
20
134.30857035644283
10
150.30506544467076
20
130.10808035644283
42
-0.41421356237309503
10
149.80506544467076
20
129.60808035644283
10
136.80406544467081
20
129.60808035644283
42
-0.41421356237309503
0
LWPOLYLINE
5
106
100
AcDbEntity
8
0
100
AcDbPolyline
90
8
70
1
43
0.0
10
45.028765444670775
20
143.60761035644282
10
32.027965444670777
20
143.60761035644282
42
0.4142135623730846
10
31.52796544467077
20
143.10761035644282
10
31.52796544467077
20
130.10808035644283
42
0.41421356237309503
10
32.02796544467077
20
129.60808035644283
10
45.028765444670768
20
129.60808035644283
42
0.41421356237309503
10
45.528765444670761
20
130.10808035644283
10
45.528765444670761
20
143.10761035644282
42
0.41421356237309503
0
LWPOLYLINE
5
107
100
AcDbEntity
8
0
100
AcDbPolyline
90
8
70
1
43
0.0
10
21.716265444670771
20
130.10808035644283
10
21.716265444670771
20
143.10761035644282
42
0.41421356237309503
10
21.216265444670771
20
143.60761035644282
10
8.2167954446707725
20
143.60761035644282
42
0.41421356237309503
10
7.7167954446707725
20
143.10761035644282
10
7.7167954446707734
20
130.10808035644283
42
0.41421356237309503
10
8.2167954446707725
20
129.60808035644283
10
21.216265444670771
20
129.60808035644283
42
0.41421356237309243
0
LWPOLYLINE
5
108
100
AcDbEntity
8
0
100
AcDbPolyline
90
8
70
1
43
0.0
10
55.340565444670773
20
143.10761035644282
10
55.340565444670773
20
130.10808035644283
42
0.41421356237309503
10
55.840565444670773
20
129.60808035644283
10
68.841265444670782
20
129.60808035644283
42
0.41421356237308982
10
69.341265444670768
20
130.10808035644283
10
69.341265444670768
20
143.10761035644282
42
0.41421356237309503
10
68.841265444670768
20
143.60761035644282
10
55.84056544467078
20
143.60761035644282
42
0.41421356237310025
0
LWPOLYLINE
5
109
100
AcDbEntity
8
0
100
AcDbPolyline
90
8
70
1
43
0.0
10
16.454045444670776
20
219.80751035644283
10
3.4540454446707658
20
219.80751035644283
42
0.41421356237309503
10
2.9540454446707631
20
219.30751035644283
10
2.9540454446707676
20
206.30751035644283
42
0.41421356237309503
10
3.4540454446707658
20
205.80751035644283
10
16.454045444670768
20
205.80751035644283
42
0.41421356237305862
10
16.954045444670768
20
206.30751035644283
10
16.954045444670776
20
219.30751035644283
42
0.41421356237309503
0
LWPOLYLINE
5
110
100
AcDbEntity
8
0
100
AcDbPolyline
90
8
70
1
43
0.0
10
36.004045444670766
20
206.30751035644283
10
36.00404544467078
20
219.30751035644283
42
0.41421356237309503
10
35.50404544467078
20
219.80751035644283
10
22.504045444670769
20
219.80751035644283
42
0.41421356237309503
10
22.004045444670766
20
219.30751035644283
10
22.004045444670769
20
206.30751035644283
42
0.41421356237309503
10
22.504045444670769
20
205.80751035644283
10
35.504045444670773
20
205.80751035644283
42
0.41421356237305862
0
LWPOLYLINE
5
111
100
AcDbEntity
8
0
100
AcDbPolyline
90
8
70
1
43
0.0
10
73.604045444670788
20
219.80751035644283
10
60.604045444670774
20
219.80751035644283
42
0.41421356237309503
10
60.104045444670774
20
219.30751035644283
10
60.104045444670781
20
206.30751035644283
42
0.41421356237309503
10
60.604045444670774
20
205.80751035644283
10
73.604045444670788
20
205.80751035644283
42
0.4142135623730534
10
74.104045444670774
20
206.30751035644283
10
74.104045444670788
20
219.30751035644283
42
0.41421356237309503
0
LWPOLYLINE
5
112
100
AcDbEntity
8
0
100
AcDbPolyline
90
8
70
1
43
0.0
10
54.554045444670784
20
219.80751035644283
10
41.554045444670777
20
219.80751035644283
42
0.41421356237309503
10
41.054045444670777
20
219.30751035644283
10
41.054045444670777
20
206.30751035644283
42
0.41421356237309503
10
41.554045444670777
20
205.80751035644283
10
54.554045444670777
20
205.80751035644283
42
0.41421356237306384
10
55.054045444670777
20
206.30751035644283
10
55.054045444670777
20
219.30751035644283
42
0.41421356237309503
0
LWPOLYLINE
5
113
100
AcDbEntity
8
0
100
AcDbPolyline
90
8
70
1
43
0.0
10
136.80404544467078
20
205.80751035644283
42
-0.41421356237309503
10
136.30404544467078
20
206.30751035644283
10
136.30404544467081
20
219.30751035644283
42
-0.41421356237309503
10
136.80404544467078
20
219.80751035644283
10
149.80404544467081
20
219.80751035644286
42
-0.41421356237309503
10
150.30404544467081
20
219.30751035644283
10
150.30404544467081
20
206.30751035644283
42
-0.4142135623730534
10
149.80404544467081
20
205.80751035644283
0
LWPOLYLINE
5
114
100
AcDbEntity
8
0
100
AcDbPolyline
90
8
70
1
43
0.0
10
79.1540454446708
20
219.30751035644283
42
-0.41421356237309503
10
79.654045444670771
20
219.80751035644283
10
92.654045444670771
20
219.80751035644286
42
-0.41421356237309503
10
93.154045444670786
20
219.30751035644283
10
93.1540454446708
20
206.30751035644289
42
-0.41421356237306384
10
92.654045444670771
20
205.80751035644283
10
79.654045444670771
20
205.80751035644283
42
-0.41421356237309503
10
79.154045444670786
20
206.30751035644283
0
LWPOLYLINE
5
115
100
AcDbEntity
8
0
100
AcDbPolyline
90
8
70
1
43
0.0
10
130.75404544467079
20
219.80751035644286
42
-0.41421356237309503
10
131.25404544467079
20
219.30751035644283
10
131.25404544467079
20
206.30751035644289
42
-0.41421356237306384
10
130.75404544467079
20
205.80751035644283
10
117.75404544467078
20
205.80751035644283
42
-0.41421356237309503
10
117.25404544467079
20
206.30751035644283
10
117.25404544467081
20
219.30751035644283
42
-0.41421356237309503
10
117.75404544467078
20
219.80751035644283
0
LWPOLYLINE
5
116
100
AcDbEntity
8
0
100
AcDbPolyline
90
8
70
1
43
0.0
10
111.70404544467078
20
219.80751035644283
10
98.704045444670783
20
219.80751035644283
42
0.41421356237309503
10
98.204045444670783
20
219.30751035644283
10
98.204045444670783
20
206.30751035644283
42
0.41421356237309503
10
98.704045444670783
20
205.80751035644283
10
111.70404544467077
20
205.80751035644283
42
0.41421356237306384
10
112.20404544467078
20
206.30751035644283
10
112.20404544467078
20
219.30751035644283
42
0.41421356237309503
0
LWPOLYLINE
5
117
100
AcDbEntity
8
0
100
AcDbPolyline
90
8
70
1
43
0.0
10
188.40404544467077
20
206.30751035644283
10
188.40404544467077
20
219.30751035644283
42
0.41421356237309503
10
187.9040454446708
20
219.80751035644283
10
174.90404544467077
20
219.80751035644283
42
0.41421356237309503
10
174.40404544467077
20
219.30751035644283
10
174.40404544467077
20
206.30751035644283
42
0.41421356237309503
10
174.90404544467077
20
205.80751035644283
10
187.9040454446708
20
205.80751035644283
42
0.41421356237303258
0
LWPOLYLINE
5
118
100
AcDbEntity
8
0
100
AcDbPolyline
90
8
70
1
43
0.0
10
269.65404544467083
20
219.30751035644283
42
-0.41421356237309503
10
270.15404544467083
20
219.80751035644283
10
283.15404544467077
20
219.80751035644289
42
-0.41421356237309503
10
283.65404544467083
20
219.30751035644283
10
283.65404544467083
20
206.30751035644283
42
-0.41421356237307422
10
283.15404544467077
20
205.80751035644283
10
270.15404544467083
20
205.8075103564428
42
-0.41421356237309503
10
269.65404544467077
20
206.30751035644283
0
LWPOLYLINE
5
119
100
AcDbEntity
8
0
100
AcDbPolyline
90
8
70
1
43
0.0
10
169.35404544467076
20
206.30751035644283
10
169.35404544467076
20
219.30751035644283
42
0.41421356237309503
10
168.85404544467079
20
219.80751035644283
10
155.85404544467079
20
219.80751035644283
42
0.41421356237309503
10
155.35404544467079
20
219.30751035644283
10
155.35404544467079
20
206.30751035644283
42
0.41421356237309503
10
155.85404544467079
20
205.80751035644283
10
168.85404544467079
20
205.80751035644283
42
0.41421356237307422
0
LWPOLYLINE
5
120
100
AcDbEntity
8
0
100
AcDbPolyline
90
8
70
1
43
0.0
10
226.00404544467082
20
219.80751035644283
10
213.00404544467079
20
219.80751035644283
42
0.41421356237309503
10
212.50404544467079
20
219.30751035644283
10
212.50404544467079
20
206.30751035644283
42
0.41421356237309503
10
213.00404544467079
20
205.80751035644283
10
226.00404544467082
20
205.80751035644283
42
0.41421356237303258
10
226.50404544467079
20
206.30751035644283
10
226.50404544467079
20
219.30751035644283
42
0.41421356237309503
0
LWPOLYLINE
5
121
100
AcDbEntity
8
0
100
AcDbPolyline
90
8
70
1
43
0.0
10
251.10404544467082
20
205.80751035644283
10
264.10404544467076
20
205.80751035644283
42
0.41421356237307422
10
264.60404544467082
20
206.30751035644283
10
264.60404544467082
20
219.30751035644283
42
0.41421356237309503
10
264.10404544467076
20
219.80751035644283
10
251.10404544467082
20
219.80751035644283
42
0.41421356237309503
10
250.60404544467076
20
219.30751035644283
10
250.60404544467076
20
206.30751035644283
42
0.41421356237309503
0
LWPOLYLINE
5
122
100
AcDbEntity
8
0
100
AcDbPolyline
90
8
70
1
43
0.0
10
193.95404544467078
20
205.80751035644286
42
-0.41421356237309503
10
193.45404544467078
20
206.30751035644283
10
193.45404544467078
20
219.30751035644283
42
-0.41421356237309503
10
193.95404544467078
20
219.80751035644283
10
206.95404544467081
20
219.80751035644283
42
-0.41421356237309503
10
207.45404544467078
20
219.30751035644283
10
207.45404544467078
20
206.30751035644283
42
-0.41421356237303258
10
206.95404544467081
20
205.80751035644283
0
LWPOLYLINE
5
123
100
AcDbEntity
8
0
100
AcDbPolyline
90
8
70
1
43
0.0
10
231.55404544467081
20
219.30751035644283
42
-0.41421356237309503
10
232.05404544467081
20
219.80751035644283
10
245.05404544467075
20
219.80751035644289
42
-0.41421356237309503
10
245.55404544467081
20
219.30751035644283
10
245.55404544467081
20
206.30751035644283
42
-0.41421356237307422
10
245.05404544467075
20
205.80751035644283
10
232.05404544467081
20
205.80751035644286
42
-0.41421356237309503
10
231.55404544467081
20
206.30751035644283
0
LWPOLYLINE
5
124
100
AcDbEntity
8
0
100
AcDbPolyline
90
8
70
1
43
0.0
10
112.20404544467078
20
187.25751035644282
10
112.20404544467078
20
200.25751035644282
42
0.41421356237309503
10
111.70404544467078
20
200.75751035644285
10
98.704045444670783
20
200.75751035644285
42
0.41421356237309503
10
98.204045444670783
20
200.25751035644282
10
98.204045444670783
20
187.25751035644282
42
0.41421356237309503
10
98.704045444670783
20
186.75751035644282
10
111.70404544467077
20
186.75751035644282
42
0.41421356237306384
0
LWPOLYLINE
5
125
100
AcDbEntity
8
0
100
AcDbPolyline
90
8
70
1
43
0.0
10
54.554045444670784
20
200.75751035644285
10
41.554045444670777
20
200.75751035644285
42
0.41421356237309503
10
41.054045444670777
20
200.25751035644282
10
41.054045444670777
20
187.25751035644282
42
0.41421356237309503
10
41.554045444670777
20
186.75751035644282
10
54.554045444670777
20
186.75751035644282
42
0.41421356237306384
10
55.054045444670777
20
187.25751035644282
10
55.054045444670777
20
200.25751035644282
42
0.41421356237309503
0
LWPOLYLINE
5
126
100
AcDbEntity
8
0
100
AcDbPolyline
90
8
70
1
43
0.0
10
117.25404544467079
20
200.25751035644282
10
117.25404544467079
20
187.25751035644282
42
0.41421356237309503
10
117.75404544467078
20
186.75751035644282
10
130.75404544467079
20
186.75751035644282
42
0.41421356237306384
10
131.25404544467079
20
187.25751035644282
10
131.25404544467079
20
200.25751035644282
42
0.41421356237309503
10
130.75404544467079
20
200.75751035644285
10
117.75404544467078
20
200.75751035644285
42
0.41421356237309503
0
LWPOLYLINE
5
127
100
AcDbEntity
8
0
100
AcDbPolyline
90
8
70
1
43
0.0
10
92.654045444670771
20
200.75751035644285
42
-0.41421356237309503
10
93.154045444670786
20
200.25751035644282
10
93.1540454446708
20
187.25751035644288
42
-0.41421356237306384
10
92.654045444670771
20
186.75751035644282
10
79.654045444670771
20
186.75751035644282
42
-0.41421356237309503
10
79.154045444670786
20
187.25751035644282
10
79.154045444670771
20
200.25751035644282
42
-0.41421356237309503
10
79.654045444670771
20
200.75751035644285
0
LWPOLYLINE
5
128
100
AcDbEntity
8
0
100
AcDbPolyline
90
8
70
1
43
0.0
10
136.80404544467078
20
186.75751035644282
10
149.80404544467081
20
186.75751035644282
42
0.4142135623730534
10
150.30404544467078
20
187.25751035644282
10
150.30404544467081
20
200.25751035644282
42
0.41421356237309503
10
149.80404544467081
20
200.75751035644285
10
136.80404544467078
20
200.75751035644285
42
0.41421356237309503
10
136.30404544467078
20
200.25751035644282
10
136.30404544467078
20
187.25751035644282
42
0.41421356237309503
0
LWPOLYLINE
5
129
100
AcDbEntity
8
0
100
AcDbPolyline
90
8
70
1
43
0.0
10
155.85404544467079
20
186.75751035644282
10
168.85404544467079
20
186.75751035644282
42
0.41421356237307422
10
169.35404544467076
20
187.25751035644282
10
169.35404544467076
20
200.25751035644282
42
0.41421356237309503
10
168.85404544467079
20
200.75751035644285
10
155.85404544467079
20
200.75751035644285
42
0.41421356237309503
10
155.35404544467079
20
200.25751035644282
10
155.35404544467079
20
187.25751035644282
42
0.41421356237309503
0
LWPOLYLINE
5
130
100
AcDbEntity
8
0
100
AcDbPolyline
90
8
70
1
43
0.0
10
74.104045444670788
20
187.25751035644282
42
-0.4142135623730534
10
73.604045444670788
20
186.75751035644282
10
60.604045444670774
20
186.75751035644282
42
-0.41421356237309503
10
60.104045444670781
20
187.25751035644282
10
60.104045444670774
20
200.25751035644282
42
-0.41421356237309503
10
60.604045444670774
20
200.75751035644285
10
73.604045444670788
20
200.75751035644285
42
-0.41421356237309503
10
74.104045444670788
20
200.25751035644282
0
LWPOLYLINE
5
131
100
AcDbEntity
8
0
100
AcDbPolyline
90
8
70
1
43
0.0
10
16.454045444670776
20
200.75751035644285
10
3.4540454446707658
20
200.75751035644285
42
0.41421356237309503
10
2.9540454446707631
20
200.25751035644282
10
2.9540454446707676
20
187.25751035644282
42
0.41421356237309503
10
3.4540454446707658
20
186.75751035644282
10
16.454045444670768
20
186.75751035644282
42
0.41421356237305862
10
16.954045444670768
20
187.25751035644282
10
16.954045444670776
20
200.25751035644282
42
0.41421356237309503
0
LWPOLYLINE
5
132
100
AcDbEntity
8
0
100
AcDbPolyline
90
8
70
1
43
0.0
10
35.50404544467078
20
200.75751035644285
42
-0.41421356237309503
10
36.00404544467078
20
200.25751035644282
10
36.004045444670787
20
187.25751035644282
42
-0.41421356237305862
10
35.504045444670773
20
186.75751035644282
10
22.504045444670769
20
186.75751035644282
42
-0.41421356237309503
10
22.004045444670769
20
187.25751035644282
10
22.004045444670762
20
200.25751035644282
42
-0.41421356237309503
10
22.504045444670769
20
200.75751035644285
0
LWPOLYLINE
5
133
100
AcDbEntity
8
0
100
AcDbPolyline
90
8
70
1
43
0.0
10
187.9040454446708
20
200.75751035644285
10
174.90404544467077
20
200.75751035644285
42
0.41421356237309503
10
174.40404544467077
20
200.25751035644282
10
174.40404544467077
20
187.25751035644282
42
0.41421356237309503
10
174.90404544467077
20
186.75751035644282
10
187.9040454446708
20
186.75751035644282
42
0.41421356237303258
10
188.40404544467077
20
187.25751035644282
10
188.40404544467077
20
200.25751035644282
42
0.41421356237309503
0
LWPOLYLINE
5
134
100
AcDbEntity
8
0
100
AcDbPolyline
90
8
70
1
43
0.0
10
231.55404544467081
20
200.25751035644282
10
231.55404544467081
20
187.25751035644282
42
0.41421356237309503
10
232.05404544467081
20
186.75751035644282
10
245.05404544467075
20
186.75751035644282
42
0.41421356237307422
10
245.55404544467081
20
187.25751035644282
10
245.55404544467081
20
200.25751035644282
42
0.41421356237309503
10
245.05404544467075
20
200.75751035644285
10
232.05404544467081
20
200.75751035644285
42
0.41421356237309503
0
LWPOLYLINE
5
135
100
AcDbEntity
8
0
100
AcDbPolyline
90
8
70
1
43
0.0
10
264.60404544467082
20
187.25751035644282
42
-0.41421356237307422
10
264.10404544467076
20
186.75751035644282
10
251.10404544467082
20
186.75751035644279
42
-0.41421356237309503
10
250.60404544467076
20
187.25751035644282
10
250.60404544467079
20
200.25751035644282
42
-0.41421356237309503
10
251.10404544467082
20
200.75751035644285
10
264.10404544467076
20
200.75751035644288
42
-0.41421356237309503
10
264.60404544467082
20
200.25751035644282
0
LWPOLYLINE
5
136
100
AcDbEntity
8
0
100
AcDbPolyline
90
8
70
1
43
0.0
10
226.50404544467079
20
187.25751035644282
42
-0.41421356237303258
10
226.00404544467082
20
186.75751035644282
10
213.00404544467079
20
186.75751035644285
42
-0.41421356237309503
10
212.50404544467079
20
187.25751035644282
10
212.50404544467077
20
200.25751035644282
42
-0.41421356237309503
10
213.00404544467079
20
200.75751035644285
10
226.00404544467082
20
200.75751035644282
42
-0.41421356237309503
10
226.50404544467079
20
200.25751035644282
0
LWPOLYLINE
5
137
100
AcDbEntity
8
0
100
AcDbPolyline
90
8
70
1
43
0.0
10
283.15404544467077
20
200.75751035644288
42
-0.41421356237309503
10
283.65404544467083
20
200.25751035644282
10
283.65404544467083
20
187.25751035644282
42
-0.41421356237307422
10
283.15404544467077
20
186.75751035644282
10
270.15404544467083
20
186.75751035644279
42
-0.41421356237309503
10
269.65404544467077
20
187.25751035644282
10
269.65404544467083
20
200.25751035644282
42
-0.41421356237309503
10
270.15404544467083
20
200.75751035644285
0
LWPOLYLINE
5
138
100
AcDbEntity
8
0
100
AcDbPolyline
90
8
70
1
43
0.0
10
193.95404544467078
20
186.75751035644282
10
206.95404544467081
20
186.75751035644282
42
0.41421356237303258
10
207.45404544467078
20
187.25751035644282
10
207.45404544467078
20
200.25751035644282
42
0.41421356237309503
10
206.95404544467081
20
200.75751035644285
10
193.95404544467078
20
200.75751035644285
42
0.41421356237309503
10
193.45404544467078
20
200.25751035644282
10
193.45404544467078
20
187.25751035644282
42
0.41421356237309503
0
LWPOLYLINE
5
139
100
AcDbEntity
8
0
100
AcDbPolyline
90
8
70
1
43
0.0
10
41.554045444670777
20
167.70751035644281
10
54.554045444670777
20
167.70751035644281
42
0.4142135623730846
10
55.054045444670777
20
168.20751035644287
10
55.054045444670777
20
181.20751035644281
42
0.41421356237309503
10
54.554045444670784
20
181.70751035644284
10
41.554045444670777
20
181.70751035644284
42
0.41421356237309503
10
41.054045444670777
20
181.20751035644281
10
41.054045444670777
20
168.20751035644287
42
0.41421356237309503
0
LWPOLYLINE
5
140
100
AcDbEntity
8
0
100
AcDbPolyline
90
8
70
1
43
0.0
10
98.704045444670783
20
167.70751035644281
10
111.70404544467077
20
167.70751035644281
42
0.4142135623730846
10
112.20404544467078
20
168.20751035644287
10
112.20404544467078
20
181.20751035644281
42
0.41421356237309503
10
111.70404544467078
20
181.70751035644284
10
98.704045444670783
20
181.70751035644284
42
0.41421356237309503
10
98.204045444670783
20
181.20751035644281
10
98.204045444670783
20
168.20751035644287
42
0.41421356237309503
0
LWPOLYLINE
5
141
100
AcDbEntity
8
0
100
AcDbPolyline
90
8
70
1
43
0.0
10
79.154045444670771
20
181.20751035644281
10
79.154045444670786
20
168.20751035644287
42
0.41421356237309503
10
79.654045444670771
20
167.70751035644281
10
92.654045444670771
20
167.70751035644281
42
0.4142135623730846
10
93.154045444670786
20
168.20751035644287
10
93.154045444670786
20
181.20751035644281
42
0.41421356237309503
10
92.654045444670771
20
181.70751035644284
10
79.654045444670771
20
181.70751035644284
42
0.41421356237309503
0
LWPOLYLINE
5
142
100
AcDbEntity
8
0
100
AcDbPolyline
90
8
70
1
43
0.0
10
60.604045444670774
20
167.70751035644284
42
-0.41421356237309503
10
60.104045444670781
20
168.20751035644287
10
60.104045444670774
20
181.20751035644281
42
-0.41421356237309503
10
60.604045444670774
20
181.70751035644284
10
73.604045444670788
20
181.70751035644284
42
-0.41421356237309503
10
74.104045444670788
20
181.20751035644281
10
74.104045444670788
20
168.20751035644287
42
-0.41421356237307422
10
73.604045444670788
20
167.70751035644281
0
LWPOLYLINE
5
143
100
AcDbEntity
8
0
100
AcDbPolyline
90
8
70
1
43
0.0
10
2.9540454446707631
20
181.20751035644281
10
2.9540454446707676
20
168.20751035644287
42
0.41421356237309503
10
3.4540454446707658
20
167.70751035644281
10
16.454045444670768
20
167.70751035644281
42
0.41421356237307944
10
16.954045444670768
20
168.20751035644287
10
16.954045444670776
20
181.20751035644281
42
0.41421356237309503
10
16.454045444670776
20
181.70751035644284
10
3.4540454446707658
20
181.70751035644284
42
0.41421356237309503
0
LWPOLYLINE
5
144
100
AcDbEntity
8
0
100
AcDbPolyline
90
8
70
1
43
0.0
10
117.25404544467077
20
181.20751035644281
42
-0.41421356237309503
10
117.75404544467078
20
181.70751035644284
10
130.75404544467079
20
181.70751035644284
42
-0.41421356237309503
10
131.25404544467079
20
181.20751035644281
10
131.25404544467079
20
168.20751035644287
42
-0.4142135623730846
10
130.75404544467079
20
167.70751035644281
10
117.75404544467078
20
167.70751035644287
42
-0.41421356237309503
10
117.25404544467079
20
168.20751035644287
0
LWPOLYLINE
5
145
100
AcDbEntity
8
0
100
AcDbPolyline
90
8
70
1
43
0.0
10
35.50404544467078
20
181.70751035644284
42
-0.41421356237309503
10
36.00404544467078
20
181.20751035644281
10
36.004045444670787
20
168.20751035644287
42
-0.41421356237307944
10
35.504045444670773
20
167.70751035644281
10
22.504045444670769
20
167.70751035644284
42
-0.41421356237309503
10
22.004045444670769
20
168.20751035644287
10
22.004045444670762
20
181.20751035644281
42
-0.41421356237309503
10
22.504045444670769
20
181.70751035644284
0
LWPOLYLINE
5
146
100
AcDbEntity
8
0
100
AcDbPolyline
90
8
70
1
43
0.0
10
149.80404544467081
20
181.70751035644284
42
-0.41421356237309503
10
150.30404544467081
20
181.20751035644281
10
150.30404544467081
20
168.20751035644287
42
-0.41421356237307422
10
149.80404544467081
20
167.70751035644281
10
136.80404544467078
20
167.70751035644284
42
-0.41421356237309503
10
136.30404544467078
20
168.20751035644287
10
136.30404544467078
20
181.20751035644281
42
-0.41421356237309503
10
136.80404544467078
20
181.70751035644284
0
LWPOLYLINE
5
147
100
AcDbEntity
8
0
100
AcDbPolyline
90
8
70
1
43
0.0
10
155.35404544467076
20
181.20751035644281
42
-0.41421356237309503
10
155.85404544467079
20
181.70751035644284
10
168.85404544467079
20
181.70751035644281
42
-0.41421356237309503
10
169.35404544467076
20
181.20751035644281
10
169.35404544467082
20
168.20751035644287
42
-0.41421356237309503
10
168.85404544467079
20
167.70751035644281
10
155.85404544467079
20
167.70751035644287
42
-0.41421356237309503
10
155.35404544467079
20
168.20751035644287
0
LWPOLYLINE
5
148
100
AcDbEntity
8
0
100
AcDbPolyline
90
8
70
1
43
0.0
10
187.9040454446708
20
181.70751035644284
10
174.90404544467077
20
181.70751035644284
42
0.41421356237309503
10
174.40404544467077
20
181.20751035644281
10
174.40404544467077
20
168.20751035644287
42
0.41421356237309503
10
174.90404544467077
20
167.70751035644281
10
187.9040454446708
20
167.70751035644281
42
0.4142135623730534
10
188.40404544467077
20
168.20751035644287
10
188.40404544467077
20
181.20751035644281
42
0.41421356237309503
0
LWPOLYLINE
5
149
100
AcDbEntity
8
0
100
AcDbPolyline
90
8
70
1
43
0.0
10
207.45404544467078
20
168.20751035644287
42
-0.4142135623730534
10
206.95404544467081
20
167.70751035644281
10
193.95404544467078
20
167.70751035644287
42
-0.41421356237309503
10
193.45404544467078
20
168.20751035644287
10
193.45404544467075
20
181.20751035644281
42
-0.41421356237309503
10
193.95404544467078
20
181.70751035644284
10
206.95404544467081
20
181.70751035644281
42
-0.41421356237309503
10
207.45404544467078
20
181.20751035644281
0
LWPOLYLINE
5
150
100
AcDbEntity
8
0
100
AcDbPolyline
90
8
70
1
43
0.0
10
270.15404544467083
20
167.70751035644281
10
283.15404544467077
20
167.70751035644281
42
0.41421356237309503
10
283.65404544467083
20
168.20751035644287
10
283.65404544467083
20
181.20751035644281
42
0.41421356237309503
10
283.15404544467077
20
181.70751035644284
10
270.15404544467083
20
181.70751035644284
42
0.41421356237309503
10
269.65404544467077
20
181.20751035644281
10
269.65404544467077
20
168.20751035644287
42
0.41421356237309503
0
LWPOLYLINE
5
151
100
AcDbEntity
8
0
100
AcDbPolyline
90
8
70
1
43
0.0
10
212.50404544467077
20
181.20751035644281
42
-0.41421356237309503
10
213.00404544467079
20
181.70751035644284
10
226.00404544467082
20
181.70751035644281
42
-0.41421356237309503
10
226.50404544467079
20
181.20751035644281
10
226.50404544467079
20
168.20751035644287
42
-0.4142135623730534
10
226.00404544467082
20
167.70751035644281
10
213.00404544467079
20
167.70751035644287
42
-0.41421356237309503
10
212.50404544467079
20
168.20751035644287
0
LWPOLYLINE
5
152
100
AcDbEntity
8
0
100
AcDbPolyline
90
8
70
1
43
0.0
10
250.60404544467076
20
181.20751035644281
10
250.60404544467076
20
168.20751035644287
42
0.41421356237309503
10
251.10404544467082
20
167.70751035644281
10
264.10404544467076
20
167.70751035644281
42
0.41421356237309503
10
264.60404544467082
20
168.20751035644287
10
264.60404544467082
20
181.20751035644281
42
0.41421356237309503
10
264.10404544467076
20
181.70751035644284
10
251.10404544467082
20
181.70751035644284
42
0.41421356237309503
0
LWPOLYLINE
5
153
100
AcDbEntity
8
0
100
AcDbPolyline
90
8
70
1
43
0.0
10
232.05404544467081
20
167.70751035644281
10
245.05404544467075
20
167.70751035644281
42
0.41421356237309503
10
245.55404544467081
20
168.20751035644287
10
245.55404544467081
20
181.20751035644281
42
0.41421356237309503
10
245.05404544467075
20
181.70751035644284
10
232.05404544467081
20
181.70751035644284
42
0.41421356237309503
10
231.55404544467081
20
181.20751035644281
10
231.55404544467081
20
168.20751035644287
42
0.41421356237309503
0
LWPOLYLINE
5
154
100
AcDbEntity
8
0
100
AcDbPolyline
90
8
70
1
43
0.0
10
60.104045444670774
20
162.15751035644286
42
-0.41421356237307422
10
60.604045444670774
20
162.65751035644283
10
73.604045444670788
20
162.65751035644283
42
-0.41421356237307422
10
74.104045444670788
20
162.15751035644286
10
74.10404544467076
20
149.15751035644286
42
-0.41421356237307422
10
73.604045444670788
20
148.65751035644283
10
60.604045444670774
20
148.65751035644283
42
-0.41421356237309503
10
60.104045444670781
20
149.15751035644286
0
LWPOLYLINE
5
155
100
AcDbEntity
8
0
100
AcDbPolyline
90
8
70
1
43
0.0
10
93.154045444670771
20
149.15751035644286
42
-0.4142135623730846
10
92.654045444670771
20
148.65751035644283
10
79.654045444670771
20
148.65751035644286
42
-0.41421356237309503
10
79.154045444670786
20
149.15751035644286
10
79.154045444670771
20
162.15751035644286
42
-0.41421356237307422
10
79.654045444670771
20
162.65751035644283
10
92.654045444670771
20
162.65751035644283
42
-0.41421356237307422
10
93.154045444670786
20
162.15751035644286
0
LWPOLYLINE
5
156
100
AcDbEntity
8
0
100
AcDbPolyline
90
8
70
1
43
0.0
10
54.554045444670784
20
162.65751035644283
42
-0.41421356237307422
10
55.054045444670777
20
162.15751035644286
10
55.054045444670763
20
149.15751035644286
42
-0.4142135623730846
10
54.554045444670777
20
148.65751035644283
10
41.554045444670777
20
148.65751035644283
42
-0.41421356237309503
10
41.054045444670777
20
149.15751035644286
10
41.05404544467077
20
162.15751035644286
42
-0.41421356237307422
10
41.554045444670777
20
162.65751035644283
0
LWPOLYLINE
5
157
100
AcDbEntity
8
0
100
AcDbPolyline
90
8
70
1
43
0.0
10
16.954045444670768
20
149.15751035644286
10
16.954045444670776
20
162.15751035644286
42
0.41421356237307422
10
16.454045444670776
20
162.65751035644283
10
3.4540454446707658
20
162.65751035644283
42
0.41421356237307422
10
2.9540454446707631
20
162.15751035644286
10
2.9540454446707676
20
149.15751035644286
42
0.41421356237309503
10
3.4540454446707658
20
148.65751035644283
10
16.454045444670768
20
148.65751035644283
42
0.41421356237307944
0
LWPOLYLINE
5
158
100
AcDbEntity
8
0
100
AcDbPolyline
90
8
70
1
43
0.0
10
22.004045444670766
20
162.15751035644286
10
22.004045444670769
20
149.15751035644286
42
0.41421356237309503
10
22.504045444670769
20
148.65751035644283
10
35.504045444670773
20
148.65751035644283
42
0.41421356237307944
10
36.004045444670766
20
149.15751035644286
10
36.00404544467078
20
162.15751035644286
42
0.41421356237307422
10
35.50404544467078
20
162.65751035644283
10
22.504045444670769
20
162.65751035644283
42
0.41421356237307422
0
LWPOLYLINE
5
159
100
AcDbEntity
8
0
100
AcDbPolyline
90
8
70
1
43
0.0
10
232.05404544467081
20
148.65751035644286
42
-0.41421356237309503
10
231.55404544467081
20
149.15751035644286
10
231.55404544467078
20
162.15751035644286
42
-0.41421356237307422
10
232.05404544467081
20
162.65751035644283
10
245.05404544467075
20
162.65751035644286
42
-0.41421356237307422
10
245.55404544467081
20
162.15751035644286
10
245.55404544467078
20
149.15751035644286
42
-0.41421356237309503
10
245.05404544467075
20
148.65751035644283
0
LWPOLYLINE
5
160
100
AcDbEntity
8
0
100
AcDbPolyline
90
8
70
1
43
0.0
10
213.00404544467079
20
148.65751035644286
42
-0.41421356237309503
10
212.50404544467079
20
149.15751035644286
10
212.50404544467077
20
162.15751035644286
42
-0.41421356237307422
10
213.00404544467079
20
162.65751035644283
10
226.00404544467082
20
162.6575103564428
42
-0.41421356237307422
10
226.50404544467079
20
162.15751035644286
10
226.50404544467077
20
149.15751035644286
42
-0.4142135623730534
10
226.00404544467082
20
148.65751035644283
0
LWPOLYLINE
5
161
100
AcDbEntity
8
0
100
AcDbPolyline
90
8
70
1
43
0.0
10
207.45404544467075
20
149.15751035644286
42
-0.4142135623730534
10
206.95404544467081
20
148.65751035644283
10
193.95404544467078
20
148.65751035644286
42
-0.41421356237309503
10
193.45404544467078
20
149.15751035644286
10
193.45404544467075
20
162.15751035644286
42
-0.41421356237307422
10
193.95404544467078
20
162.65751035644283
10
206.95404544467081
20
162.6575103564428
42
-0.41421356237307422
10
207.45404544467078
20
162.15751035644286
0
LWPOLYLINE
5
162
100
AcDbEntity
8
0
100
AcDbPolyline
90
8
70
1
43
0.0
10
188.40404544467074
20
149.15751035644286
42
-0.4142135623730534
10
187.9040454446708
20
148.65751035644283
10
174.90404544467077
20
148.65751035644286
42
-0.41421356237309503
10
174.40404544467077
20
149.15751035644286
10
174.40404544467074
20
162.15751035644286
42
-0.41421356237307422
10
174.90404544467077
20
162.65751035644283
10
187.9040454446708
20
162.6575103564428
42
-0.41421356237307422
10
188.40404544467077
20
162.15751035644286
0
LWPOLYLINE
5
163
100
AcDbEntity
8
0
100
AcDbPolyline
90
8
70
1
43
0.0
10
251.10404544467082
20
148.65751035644283
10
264.10404544467076
20
148.65751035644283
42
0.41421356237309503
10
264.60404544467082
20
149.15751035644286
10
264.60404544467082
20
162.15751035644286
42
0.41421356237307422
10
264.10404544467076
20
162.65751035644283
10
251.10404544467082
20
162.65751035644283
42
0.41421356237307422
10
250.60404544467076
20
162.15751035644286
10
250.60404544467076
20
149.15751035644286
42
0.41421356237309503
0
LWPOLYLINE
5
164
100
AcDbEntity
8
0
100
AcDbPolyline
90
8
70
1
43
0.0
10
117.75404544467078
20
148.65751035644283
10
130.75404544467079
20
148.65751035644283
42
0.4142135623730846
10
131.25404544467079
20
149.15751035644286
10
131.25404544467079
20
162.15751035644286
42
0.41421356237307422
10
130.75404544467079
20
162.65751035644283
10
117.75404544467078
20
162.65751035644283
42
0.41421356237307422
10
117.25404544467079
20
162.15751035644286
10
117.25404544467079
20
149.15751035644286
42
0.41421356237309503
0
LWPOLYLINE
5
165
100
AcDbEntity
8
0
100
AcDbPolyline
90
8
70
1
43
0.0
10
112.20404544467078
20
149.15751035644286
10
112.20404544467078
20
162.15751035644286
42
0.41421356237307422
10
111.70404544467078
20
162.65751035644283
10
98.704045444670783
20
162.65751035644283
42
0.41421356237307422
10
98.204045444670783
20
162.15751035644286
10
98.204045444670783
20
149.15751035644286
42
0.41421356237309503
10
98.704045444670783
20
148.65751035644283
10
111.70404544467077
20
148.65751035644283
42
0.4142135623730846
0
LWPOLYLINE
5
166
100
AcDbEntity
8
0
100
AcDbPolyline
90
8
70
1
43
0.0
10
169.35404544467076
20
149.15751035644286
10
169.35404544467076
20
162.15751035644286
42
0.41421356237307422
10
168.85404544467079
20
162.65751035644283
10
155.85404544467079
20
162.65751035644283
42
0.41421356237307422
10
155.35404544467079
20
162.15751035644286
10
155.35404544467079
20
149.15751035644286
42
0.41421356237309503
10
155.85404544467079
20
148.65751035644283
10
168.85404544467079
20
148.65751035644283
42
0.41421356237309503
0
LWPOLYLINE
5
167
100
AcDbEntity
8
0
100
AcDbPolyline
90
8
70
1
43
0.0
10
136.80404544467078
20
148.65751035644283
42
-0.41421356237309503
10
136.30404544467078
20
149.15751035644286
10
136.30404544467078
20
162.15751035644286
42
-0.41421356237307422
10
136.80404544467078
20
162.65751035644283
10
149.80404544467081
20
162.65751035644283
42
-0.41421356237307422
10
150.30404544467081
20
162.15751035644286
10
150.30404544467078
20
149.15751035644286
42
-0.41421356237307422
10
149.80404544467081
20
148.65751035644283
0
LWPOLYLINE
5
168
100
AcDbEntity
8
0
100
AcDbPolyline
90
8
70
1
43
0.0
10
269.65404544467077
20
162.15751035644286
10
269.65404544467077
20
149.15751035644286
42
0.41421356237309503
10
270.15404544467083
20
148.65751035644283
10
283.15404544467077
20
148.65751035644283
42
0.41421356237309503
10
283.65404544467083
20
149.15751035644286
10
283.65404544467083
20
162.15751035644286
42
0.41421356237307422
10
283.15404544467077
20
162.65751035644283
10
270.15404544467083
20
162.65751035644283
42
0.41421356237307422
0
LWPOLYLINE
5
169
100
AcDbEntity
8
0
100
AcDbPolyline
90
8
70
1
43
0.0
10
294.35336544462507
20
130.9084153564437
10
294.35336544462507
20
218.50841535644196
10
282.35336544462643
20
230.50841535644196
10
4.25336544471606
20
230.50841535644193
10
-7.7466345552839417
20
218.50841535644014
10
-7.7466345552839417
20
130.9084153564437
10
4.2533654447160529
20
118.90841535644194
10
282.35336544462501
20
118.90841535644192
0
CIRCLE
5
170
100
AcDbEntity
8
0
100
AcDbCircle
10
19.478365766999509
20
227.05841535644265
30
0
40
1.6000000000000234
210
0
220
-0
230
1
0
CIRCLE
5
171
100
AcDbEntity
8
0
100
AcDbCircle
10
143.30336544467076
20
227.05841535644265
30
0
40
1.6000000000000234
210
0
220
-0
230
1
0
CIRCLE
5
172
100
AcDbEntity
8
0
100
AcDbCircle
10
267.12836512234253
20
227.05841535644265
30
0
40
1.6000000000000234
210
0
220
-0
230
1
0
CIRCLE
5
173
100
AcDbEntity
8
0
100
AcDbCircle
10
267.12836512234253
20
122.35841535644141
30
0
40
1.6000000000000234
210
0
220
-0
230
1
0
CIRCLE
5
174
100
AcDbEntity
8
0
100
AcDbCircle
10
290.90336544462519
20
174.70841535644189
30
0
40
1.6000000000000234
210
0
220
-0
230
1
0
CIRCLE
5
175
100
AcDbEntity
8
0
100
AcDbCircle
10
143.30336544467076
20
122.35841535644141
30
0
40
1.6000000000000234
210
0
220
-0
230
1
0
CIRCLE
5
176
100
AcDbEntity
8
0
100
AcDbCircle
10
19.478365766999509
20
122.35841535644141
30
0
40
1.6000000000000234
210
0
220
-0
230
1
0
CIRCLE
5
177
100
AcDbEntity
8
0
100
AcDbCircle
10
-4.2966345552845784
20
174.708415356442
30
0
40
1.6000000000000234
210
0
220
-0
230
1
0
ENDSEC
0
SECTION
2
OBJECTS
0
DICTIONARY
5
C
100
AcDbDictionary
3
ACAD_GROUP
350
D
3
ACAD_MLINESTYLE
350
17
0
DICTIONARY
5
D
100
AcDbDictionary
0
DICTIONARY
5
1A
330
C
100
AcDbDictionary
0
DICTIONARY
5
17
100
AcDbDictionary
0
ENDSEC
0
EOF
