0
SECTION
2
HEADER
9
$INSUNITS
70
4
9
$ACADVER
1
AC1014
9
$HANDSEED
5
FFFF
0
ENDSEC
0
SECTION
2
TABLES
0
TABLE
2
VPORT
5
8
100
AcDbSymbolTable
0
ENDTAB
0
TABLE
2
LTYPE
5
5
100
AcDbSymbolTable
0
LTYPE
5
14
100
AcDbSymbolTableRecord
100
AcDbLinetypeTableRecord
2
BYBLOCK
70
0
0
LTYPE
5
15
100
AcDbSymbolTableRecord
100
AcDbLinetypeTableRecord
2
BYLAYER
70
0
0
ENDTAB
0
TABLE
2
LAYER
5
2
100
AcDbSymbolTable
70
2
0
LAYER
5
50
100
AcDbSymbolTableRecord
100
AcDbLayerTableRecord
2
0
70
0
6
CONTINUOUS
0
ENDTAB
0
TABLE
2
STYLE
5
3
100
AcDbSymbolTable
70
1
0
STYLE
5
11
100
AcDbSymbolTableRecord
100
AcDbTextStyleTableRecord
2
STANDARD
70
0
0
ENDTAB
0
TABLE
2
VIEW
5
6
100
AcDbSymbolTable
70
0
0
ENDTAB
0
TABLE
2
UCS
5
7
100
AcDbSymbolTable
70
0
0
ENDTAB
0
TABLE
2
APPID
5
9
100
AcDbSymbolTable
70
2
0
APPID
5
12
100
AcDbSymbolTableRecord
100
AcDbRegAppTableRecord
2
ACAD
70
0
0
ENDTAB
0
TABLE
2
DIMSTYLE
5
A
100
AcDbSymbolTable
70
1
0
ENDTAB
0
TABLE
2
BLOCK_RECORD
5
1
100
AcDbSymbolTable
70
1
0
BLOCK_RECORD
5
1F
100
AcDbSymbolTableRecord
100
AcDbBlockTableRecord
2
*MODEL_SPACE
0
BLOCK_RECORD
5
1B
100
AcDbSymbolTableRecord
100
AcDbBlockTableRecord
2
*PAPER_SPACE
0
ENDTAB
0
ENDSEC
0
SECTION
2
BLOCKS
0
BLOCK
5
20
100
AcDbEntity
100
AcDbBlockBegin
2
*MODEL_SPACE
0
ENDBLK
5
21
100
AcDbEntity
100
AcDbBlockEnd
0
BLOCK
5
1C
100
AcDbEntity
100
AcDbBlockBegin
2
*PAPER_SPACE
0
ENDBLK
5
1D
100
AcDbEntity
100
AcDbBlockEnd
0
ENDSEC
0
SECTION
2
ENTITIES
0
LWPOLYLINE
5
100
100
AcDbEntity
8
0
100
AcDbPolyline
90
8
70
1
43
0.0
10
253.11879956863993
20
-119.5255439441915
10
240.1177995686399
20
-119.5255439441915
42
0.41421356237309503
10
239.6177995686399
20
-120.0255439441915
10
239.6177995686399
20
-133.02507394419149
42
0.41421356237309503
10
240.1177995686399
20
-133.52507394419149
10
253.11879956863993
20
-133.52507394419149
42
0.41421356237309503
10
253.61879956863993
20
-133.02507394419149
10
253.61879956863993
20
-120.0255439441915
42
0.41421356237309503
0
LWPOLYLINE
5
101
100
AcDbEntity
8
0
100
AcDbPolyline
90
8
70
1
43
0.0
10
277.43079956863994
20
-133.02507394419149
10
277.43079956863994
20
-120.0255439441915
42
0.41421356237309503
10
276.93079956863994
20
-119.5255439441915
10
263.93179956863992
20
-119.5255439441915
42
0.41421356237309503
10
263.43179956863992
20
-120.0255439441915
10
263.43179956863992
20
-133.02507394419149
42
0.41421356237310542
10
263.93179956863992
20
-133.52507394419152
10
276.93079956863994
20
-133.52507394419152
42
0.41421356237309503
0
LWPOLYLINE
5
102
100
AcDbEntity
8
0
100
AcDbPolyline
90
8
70
1
43
0.0
10
216.30679956863992
20
-133.52507394419149
10
229.30579956863994
20
-133.52507394419149
42
0.41421356237309503
10
229.80579956863994
20
-133.02507394419149
10
229.80579956863994
20
-120.0255439441915
42
0.41421356237309503
10
229.30579956863994
20
-119.5255439441915
10
216.30679956864
20
-119.5255439441915
42
0.41421356237309503
10
215.80679956864
20
-120.0255439441915
10
215.80679956864
20
-133.02507394419155
42
0.41421356237309503
0
LWPOLYLINE
5
103
100
AcDbEntity
8
0
100
AcDbPolyline
90
31
70
1
43
0.0
10
91.194899568639897
20
-133.52507394419149
10
78.194199568639903
20
-133.52507394419149
42
-0.41421356237309503
10
77.694199568639903
20
-133.02507394419149
10
77.694199568639903
20
-120.0255439441915
42
-0.41421356237309503
10
78.194199568639903
20
-119.5255439441915
10
82.545099568639898
20
-119.5255439441915
10
86.843999568639916
20
-119.5255439441915
10
91.194899568639897
20
-119.5255439441915
42
-0.41421356237309503
10
91.694899568639912
20
-120.0255439441915
10
91.694899568639912
20
-123.809112062504
10
96.744199568639914
20
-123.809112062504
10
96.744199568639914
20
-120.0255439441915
42
-0.41421356237307422
10
97.244199568639914
20
-119.5255439441915
10
99.218799568639909
20
-119.5255439441915
10
103.51879956863993
20
-119.5255439441915
10
120.26879956863992
20
-119.5255439441915
10
128.04379956863988
20
-119.5255439441915
42
-0.41421356237309503
10
128.54379956863991
20
-120.0255439441915
10
128.54379956863991
20
-124.22474394419149
10
128.54379956863991
20
-128.82458394419149
10
128.54379956863991
20
-132.05472394419149
10
128.54379956863991
20
-133.02507394419149
42
-0.41421356237309503
10
128.04379956863988
20
-133.52507394419149
10
120.26879956863992
20
-133.52507394419149
10
97.244199568639942
20
-133.52507394419149
42
-0.41421356237309503
10
96.744199568639914
20
-133.02507394419146
10
96.744199568639914
20
-128.82458394419149
10
96.744199568639914
20
-127.80921206250399
10
91.694899568639912
20
-127.80921206250399
10
91.694899568639926
20
-128.82458394419149
10
91.694899568639912
20
-133.02507394419149
42
-0.41421356237309503
0
LWPOLYLINE
5
104
100
AcDbEntity
8
0
100
AcDbPolyline
90
33
70
1
43
0.0
10
186.44479956863992
20
-133.52507394419149
10
163.41879956863991
20
-133.52507394419149
10
155.64379956863991
20
-133.52507394419149
42
-0.41421356237309503
10
155.14379956863991
20
-133.02507394419149
10
155.14379956863991
20
-132.05472394419149
10
155.14379956863991
20
-128.82458394419149
10
155.14379956863991
20
-124.22474394419149
10
155.14379956863991
20
-120.02554394419151
42
-0.41421356237310542
10
155.64379956863991
20
-119.5255439441915
10
163.04379956863994
20
-119.5255439441915
10
180.16979956863992
20
-119.5255439441915
10
184.46979956863993
20
-119.5255439441915
10
186.44479956863989
20
-119.5255439441915
42
-0.41421356237313667
10
186.94479956863989
20
-120.0255439441915
10
186.94479956863989
20
-123.809112062504
10
189.84719418742912
20
-123.809112062504
10
191.9927995686399
20
-123.809112062504
10
191.9927995686399
20
-120.0255439441915
42
-0.41421356237311585
10
192.49279956863995
20
-119.5255439441915
10
196.84479956863987
20
-119.5255439441915
10
201.14279956863993
20
-119.5255439441915
10
205.49379956863993
20
-119.5255439441915
42
-0.41421356237309503
10
205.99379956863996
20
-120.0255439441915
10
205.99379956863996
20
-133.02507394419149
42
-0.41421356237309503
10
205.49379956863993
20
-133.52507394419149
10
192.4927995686399
20
-133.52507394419149
42
-0.41421356237309503
10
191.9927995686399
20
-133.02507394419149
10
191.9927995686399
20
-128.82458394419149
10
191.9927995686399
20
-127.80921206250399
10
189.84719418742912
20
-127.80921206250399
10
186.94479956863989
20
-127.80921206250399
10
186.94479956863989
20
-128.82458394419149
10
186.94479956863989
20
-133.02507394419149
42
-0.41421356237310542
0
LWPOLYLINE
5
105
100
AcDbEntity
8
0
100
AcDbPolyline
90
12
70
1
43
0.0
10
134.84379956863992
20
-133.02507394419149
10
134.84379956863992
20
-128.82458394419149
10
134.84379956863992
20
-124.22474394419149
10
134.84379956863992
20
-120.0255439441915
42
-0.41421356237309503
10
135.34379956863995
20
-119.5255439441915
10
148.3447995686399
20
-119.5255439441915
42
-0.41421356237309503
10
148.8447995686399
20
-120.0255439441915
10
148.8447995686399
20
-124.22474394419149
10
148.8447995686399
20
-128.82458394419149
10
148.8447995686399
20
-133.02507394419149
42
-0.41421356237309503
10
148.3447995686399
20
-133.52507394419149
10
135.34379956863995
20
-133.52507394419149
42
-0.41421356237309503
0
LWPOLYLINE
5
106
100
AcDbEntity
8
0
100
AcDbPolyline
90
8
70
1
43
0.0
10
43.568499568639893
20
-119.5255439441915
10
30.567699568639899
20
-119.5255439441915
42
0.41421356237309503
10
30.067699568639895
20
-120.0255439441915
10
30.067699568639895
20
-133.02507394419149
42
0.41421356237309503
10
30.567699568639895
20
-133.52507394419149
10
43.568499568639893
20
-133.52507394419149
42
0.41421356237309503
10
44.068499568639879
20
-133.02507394419149
10
44.068499568639879
20
-120.02554394419148
42
0.41421356237309503
0
LWPOLYLINE
5
107
100
AcDbEntity
8
0
100
AcDbPolyline
90
8
70
1
43
0.0
10
20.255999568639893
20
-133.02507394419149
10
20.255999568639893
20
-120.0255439441915
42
0.41421356237309503
10
19.755999568639897
20
-119.5255439441915
10
6.7565295686398974
20
-119.5255439441915
42
0.41421356237309503
10
6.2565295686398965
20
-120.0255439441915
10
6.2565295686398983
20
-133.02507394419149
42
0.41421356237309503
10
6.7565295686398974
20
-133.52507394419149
10
19.755999568639897
20
-133.52507394419149
42
0.41421356237309243
0
LWPOLYLINE
5
108
100
AcDbEntity
8
0
100
AcDbPolyline
90
8
70
1
43
0.0
10
53.880299568639899
20
-120.02554394419148
10
53.880299568639899
20
-133.02507394419149
42
0.41421356237309503
10
54.380299568639892
20
-133.52507394419149
10
67.380999568639908
20
-133.52507394419149
42
0.4142135623730846
10
67.880999568639893
20
-133.02507394419149
10
67.880999568639893
20
-120.02554394419148
42
0.41421356237309503
10
67.380999568639893
20
-119.5255439441915
10
54.380299568639913
20
-119.5255439441915
42
0.41421356237310542
0
LWPOLYLINE
5
109
100
AcDbEntity
8
0
100
AcDbPolyline
90
8
70
1
43
0.0
10
14.9937795686399
20
-43.325643944191476
10
1.9937795686398907
20
-43.325643944191476
42
0.4142135623730846
10
1.493779568639888
20
-43.825643944191469
10
1.4937795686398925
20
-56.825643944191469
42
0.41421356237309503
10
1.9937795686398907
20
-57.325643944191484
10
14.993779568639894
20
-57.325643944191484
42
0.414213562373069
10
15.493779568639894
20
-56.825643944191469
10
15.493779568639901
20
-43.825643944191469
42
0.4142135623730846
0
LWPOLYLINE
5
110
100
AcDbEntity
8
0
100
AcDbPolyline
90
8
70
1
43
0.0
10
34.543779568639891
20
-56.825643944191469
10
34.543779568639906
20
-43.825643944191469
42
0.4142135623730846
10
34.043779568639906
20
-43.325643944191476
10
21.043779568639891
20
-43.325643944191476
42
0.4142135623730846
10
20.543779568639891
20
-43.825643944191469
10
20.543779568639895
20
-56.825643944191469
42
0.41421356237309503
10
21.043779568639891
20
-57.325643944191484
10
34.043779568639899
20
-57.325643944191484
42
0.414213562373069
0
LWPOLYLINE
5
111
100
AcDbEntity
8
0
100
AcDbPolyline
90
8
70
1
43
0.0
10
72.143779568639914
20
-43.325643944191476
10
59.143779568639907
20
-43.325643944191476
42
0.4142135623730846
10
58.6437795686399
20
-43.825643944191469
10
58.6437795686399
20
-56.825643944191469
42
0.41421356237309503
10
59.143779568639907
20
-57.325643944191484
10
72.143779568639914
20
-57.325643944191484
42
0.41421356237306384
10
72.6437795686399
20
-56.825643944191469
10
72.643779568639928
20
-43.825643944191469
42
0.4142135623730846
0
LWPOLYLINE
5
112
100
AcDbEntity
8
0
100
AcDbPolyline
90
8
70
1
43
0.0
10
53.093779568639903
20
-43.325643944191476
10
40.093779568639896
20
-43.325643944191476
42
0.4142135623730846
10
39.593779568639903
20
-43.825643944191469
10
39.593779568639903
20
-56.825643944191469
42
0.41421356237309503
10
40.093779568639896
20
-57.325643944191484
10
53.093779568639903
20
-57.325643944191484
42
0.41421356237307422
10
53.59377956863991
20
-56.825643944191469
10
53.59377956863991
20
-43.825643944191469
42
0.4142135623730846
0
LWPOLYLINE
5
113
100
AcDbEntity
8
0
100
AcDbPolyline
90
8
70
1
43
0.0
10
135.34377956863992
20
-57.325643944191484
42
-0.41421356237309503
10
134.84377956863992
20
-56.825643944191469
10
134.84377956863992
20
-43.825643944191469
42
-0.4142135623730846
10
135.34377956863992
20
-43.325643944191476
10
148.34377956863992
20
-43.325643944191476
42
-0.4142135623730846
10
148.84377956863995
20
-43.825643944191469
10
148.84377956863992
20
-56.825643944191469
42
-0.41421356237306384
10
148.34377956863992
20
-57.325643944191484
0
LWPOLYLINE
5
114
100
AcDbEntity
8
0
100
AcDbPolyline
90
8
70
1
43
0.0
10
77.693779568639897
20
-43.825643944191469
42
-0.4142135623730846
10
78.193779568639897
20
-43.325643944191476
10
91.193779568639911
20
-43.325643944191476
42
-0.4142135623730846
10
91.693779568639911
20
-43.825643944191469
10
91.693779568639911
20
-56.825643944191469
42
-0.41421356237307422
10
91.193779568639911
20
-57.325643944191484
10
78.193779568639897
20
-57.325643944191462
42
-0.41421356237309503
10
77.693779568639911
20
-56.825643944191469
0
LWPOLYLINE
5
115
100
AcDbEntity
8
0
100
AcDbPolyline
90
8
70
1
43
0.0
10
129.29377956863991
20
-43.325643944191476
42
-0.4142135623730846
10
129.79377956863993
20
-43.825643944191469
10
129.79377956863993
20
-56.825643944191469
42
-0.41421356237307422
10
129.29377956863991
20
-57.325643944191484
10
116.29377956863991
20
-57.325643944191462
42
-0.41421356237309503
10
115.79377956863992
20
-56.825643944191469
10
115.79377956863991
20
-43.825643944191469
42
-0.4142135623730846
10
116.29377956863991
20
-43.325643944191476
0
LWPOLYLINE
5
116
100
AcDbEntity
8
0
100
AcDbPolyline
90
8
70
1
43
0.0
10
110.24377956863992
20
-43.325643944191476
10
97.243779568639908
20
-43.325643944191476
42
0.4142135623730846
10
96.743779568639908
20
-43.825643944191469
10
96.743779568639908
20
-56.825643944191469
42
0.41421356237309503
10
97.243779568639908
20
-57.325643944191484
10
110.24377956863989
20
-57.325643944191484
42
0.41421356237307422
10
110.74377956863991
20
-56.825643944191469
10
110.74377956863991
20
-43.825643944191469
42
0.4142135623730846
0
LWPOLYLINE
5
117
100
AcDbEntity
8
0
100
AcDbPolyline
90
8
70
1
43
0.0
10
186.94377956863991
20
-56.825643944191469
10
186.94377956863991
20
-43.825643944191469
42
0.4142135623730846
10
186.44377956863994
20
-43.325643944191476
10
173.44377956863991
20
-43.325643944191476
42
0.4142135623730846
10
172.94377956863994
20
-43.825643944191469
10
172.94377956863994
20
-56.825643944191469
42
0.41421356237309503
10
173.44377956863991
20
-57.325643944191484
10
186.44377956863991
20
-57.325643944191484
42
0.41421356237306384
0
LWPOLYLINE
5
118
100
AcDbEntity
8
0
100
AcDbPolyline
90
8
70
1
43
0.0
10
268.19377956863991
20
-43.825643944191469
42
-0.4142135623730846
10
268.69377956863991
20
-43.325643944191476
10
281.69377956863991
20
-43.325643944191476
42
-0.4142135623730846
10
282.19377956863991
20
-43.825643944191469
10
282.19377956863991
20
-56.825643944191469
42
-0.4142135623730846
10
281.69377956863991
20
-57.325643944191484
10
268.69377956863991
20
-57.325643944191484
42
-0.41421356237309503
10
268.19377956863991
20
-56.825643944191469
0
LWPOLYLINE
5
119
100
AcDbEntity
8
0
100
AcDbPolyline
90
8
70
1
43
0.0
10
167.8937795686399
20
-56.825643944191469
10
167.8937795686399
20
-43.825643944191469
42
0.4142135623730846
10
167.39377956863993
20
-43.325643944191476
10
154.3937795686399
20
-43.325643944191476
42
0.4142135623730846
10
153.89377956863993
20
-43.825643944191469
10
153.89377956863993
20
-56.825643944191469
42
0.41421356237309503
10
154.3937795686399
20
-57.325643944191484
10
167.39377956863993
20
-57.325643944191484
42
0.41421356237306384
0
LWPOLYLINE
5
120
100
AcDbEntity
8
0
100
AcDbPolyline
90
8
70
1
43
0.0
10
224.54377956863993
20
-43.325643944191476
10
211.54377956863993
20
-43.325643944191476
42
0.4142135623730846
10
211.04377956863993
20
-43.825643944191469
10
211.04377956863993
20
-56.825643944191469
42
0.41421356237309503
10
211.54377956863993
20
-57.325643944191484
10
224.54377956863993
20
-57.325643944191484
42
0.41421356237306384
10
225.04377956863993
20
-56.825643944191469
10
225.04377956863993
20
-43.825643944191469
42
0.4142135623730846
0
LWPOLYLINE
5
121
100
AcDbEntity
8
0
100
AcDbPolyline
90
8
70
1
43
0.0
10
249.64377956863996
20
-57.325643944191484
10
262.6437795686399
20
-57.325643944191484
42
0.4142135623730846
10
263.14377956863996
20
-56.825643944191469
10
263.14377956863996
20
-43.825643944191469
42
0.4142135623730846
10
262.6437795686399
20
-43.325643944191476
10
249.64377956863996
20
-43.325643944191476
42
0.4142135623730846
10
249.1437795686399
20
-43.825643944191469
10
249.1437795686399
20
-56.825643944191469
42
0.41421356237309503
0
LWPOLYLINE
5
122
100
AcDbEntity
8
0
100
AcDbPolyline
90
8
70
1
43
0.0
10
192.49377956863992
20
-57.325643944191441
42
-0.41421356237309503
10
191.99377956863995
20
-56.825643944191469
10
191.99377956863992
20
-43.825643944191469
42
-0.4142135623730846
10
192.49377956863992
20
-43.325643944191476
10
205.49377956863992
20
-43.325643944191476
42
-0.4142135623730846
10
205.99377956863992
20
-43.825643944191469
10
205.99377956863989
20
-56.825643944191469
42
-0.41421356237306384
10
205.49377956863992
20
-57.325643944191484
0
LWPOLYLINE
5
123
100
AcDbEntity
8
0
100
AcDbPolyline
90
8
70
1
43
0.0
10
230.09377956863995
20
-43.825643944191469
42
-0.4142135623730846
10
230.59377956863995
20
-43.325643944191476
10
243.59377956863989
20
-43.325643944191441
42
-0.4142135623730846
10
244.09377956863995
20
-43.825643944191469
10
244.09377956863992
20
-56.825643944191469
42
-0.4142135623730846
10
243.59377956863992
20
-57.325643944191484
10
230.59377956863995
20
-57.325643944191484
42
-0.41421356237309503
10
230.09377956863995
20
-56.825643944191469
0
LWPOLYLINE
5
124
100
AcDbEntity
8
0
100
AcDbPolyline
90
8
70
1
43
0.0
10
110.74377956863991
20
-75.875643944191481
10
110.74377956863991
20
-62.875643944191467
42
0.4142135623730846
10
110.24377956863992
20
-62.375643944191481
10
97.243779568639908
20
-62.375643944191481
42
0.4142135623730846
10
96.743779568639908
20
-62.875643944191467
10
96.743779568639908
20
-75.875643944191481
42
0.41421356237309503
10
97.243779568639908
20
-76.375643944191481
10
110.24377956863989
20
-76.375643944191481
42
0.41421356237307422
0
LWPOLYLINE
5
125
100
AcDbEntity
8
0
100
AcDbPolyline
90
8
70
1
43
0.0
10
53.093779568639903
20
-62.375643944191481
10
40.093779568639896
20
-62.375643944191481
42
0.4142135623730846
10
39.593779568639903
20
-62.875643944191467
10
39.593779568639903
20
-75.875643944191481
42
0.41421356237309503
10
40.093779568639896
20
-76.375643944191481
10
53.093779568639903
20
-76.375643944191481
42
0.41421356237307422
10
53.59377956863991
20
-75.875643944191481
10
53.59377956863991
20
-62.875643944191467
42
0.4142135623730846
0
LWPOLYLINE
5
126
100
AcDbEntity
8
0
100
AcDbPolyline
90
8
70
1
43
0.0
10
115.79377956863992
20
-62.875643944191467
10
115.79377956863992
20
-75.875643944191481
42
0.41421356237309503
10
116.29377956863991
20
-76.375643944191481
10
129.29377956863991
20
-76.375643944191481
42
0.41421356237307422
10
129.79377956863993
20
-75.875643944191481
10
129.79377956863993
20
-62.875643944191467
42
0.4142135623730846
10
129.29377956863991
20
-62.375643944191481
10
116.29377956863991
20
-62.375643944191481
42
0.4142135623730846
0
LWPOLYLINE
5
127
100
AcDbEntity
8
0
100
AcDbPolyline
90
8
70
1
43
0.0
10
91.193779568639911
20
-62.375643944191481
42
-0.4142135623730846
10
91.693779568639911
20
-62.875643944191467
10
91.693779568639911
20
-75.875643944191481
42
-0.41421356237307422
10
91.193779568639911
20
-76.375643944191481
10
78.193779568639897
20
-76.375643944191467
42
-0.41421356237309503
10
77.693779568639911
20
-75.875643944191481
10
77.693779568639897
20
-62.875643944191467
42
-0.4142135623730846
10
78.193779568639897
20
-62.375643944191481
0
LWPOLYLINE
5
128
100
AcDbEntity
8
0
100
AcDbPolyline
90
8
70
1
43
0.0
10
135.34377956863992
20
-76.375643944191481
10
148.34377956863992
20
-76.375643944191481
42
0.41421356237306384
10
148.84377956863992
20
-75.875643944191481
10
148.84377956863995
20
-62.875643944191467
42
0.4142135623730846
10
148.34377956863992
20
-62.375643944191481
10
135.34377956863992
20
-62.375643944191481
42
0.4142135623730846
10
134.84377956863992
20
-62.875643944191467
10
134.84377956863992
20
-75.875643944191481
42
0.41421356237309503
0
LWPOLYLINE
5
129
100
AcDbEntity
8
0
100
AcDbPolyline
90
8
70
1
43
0.0
10
154.3937795686399
20
-76.375643944191481
10
167.39377956863993
20
-76.375643944191481
42
0.41421356237306384
10
167.8937795686399
20
-75.875643944191481
10
167.8937795686399
20
-62.875643944191467
42
0.4142135623730846
10
167.39377956863993
20
-62.375643944191481
10
154.3937795686399
20
-62.375643944191481
42
0.4142135623730846
10
153.89377956863993
20
-62.875643944191467
10
153.89377956863993
20
-75.875643944191481
42
0.41421356237309503
0
LWPOLYLINE
5
130
100
AcDbEntity
8
0
100
AcDbPolyline
90
8
70
1
43
0.0
10
72.6437795686399
20
-75.875643944191481
42
-0.41421356237306384
10
72.143779568639914
20
-76.375643944191481
10
59.143779568639907
20
-76.375643944191481
42
-0.41421356237309503
10
58.6437795686399
20
-75.875643944191481
10
58.6437795686399
20
-62.875643944191467
42
-0.4142135623730846
10
59.143779568639907
20
-62.375643944191481
10
72.143779568639914
20
-62.375643944191481
42
-0.4142135623730846
10
72.643779568639928
20
-62.875643944191467
0
LWPOLYLINE
5
131
100
AcDbEntity
8
0
100
AcDbPolyline
90
8
70
1
43
0.0
10
14.9937795686399
20
-62.375643944191481
10
1.9937795686398907
20
-62.375643944191481
42
0.4142135623730846
10
1.493779568639888
20
-62.875643944191467
10
1.4937795686398925
20
-75.875643944191481
42
0.41421356237309503
10
1.9937795686398907
20
-76.375643944191481
10
14.993779568639894
20
-76.375643944191481
42
0.414213562373069
10
15.493779568639894
20
-75.875643944191481
10
15.493779568639901
20
-62.875643944191467
42
0.4142135623730846
0
LWPOLYLINE
5
132
100
AcDbEntity
8
0
100
AcDbPolyline
90
8
70
1
43
0.0
10
34.043779568639906
20
-62.375643944191488
42
-0.4142135623730846
10
34.543779568639906
20
-62.875643944191467
10
34.543779568639891
20
-75.875643944191481
42
-0.414213562373069
10
34.043779568639899
20
-76.375643944191481
10
21.043779568639891
20
-76.375643944191467
42
-0.41421356237309503
10
20.543779568639895
20
-75.875643944191481
10
20.543779568639884
20
-62.875643944191467
42
-0.4142135623730846
10
21.043779568639891
20
-62.375643944191481
0
LWPOLYLINE
5
133
100
AcDbEntity
8
0
100
AcDbPolyline
90
8
70
1
43
0.0
10
186.44377956863994
20
-62.375643944191481
10
173.44377956863991
20
-62.375643944191481
42
0.4142135623730846
10
172.94377956863994
20
-62.875643944191467
10
172.94377956863994
20
-75.875643944191481
42
0.41421356237309503
10
173.44377956863991
20
-76.375643944191481
10
186.44377956863991
20
-76.375643944191481
42
0.41421356237306384
10
186.94377956863991
20
-75.875643944191481
10
186.94377956863991
20
-62.875643944191467
42
0.4142135623730846
0
LWPOLYLINE
5
134
100
AcDbEntity
8
0
100
AcDbPolyline
90
8
70
1
43
0.0
10
230.09377956863995
20
-62.875643944191467
10
230.09377956863995
20
-75.875643944191481
42
0.41421356237309503
10
230.59377956863995
20
-76.375643944191481
10
243.59377956863992
20
-76.375643944191481
42
0.4142135623730846
10
244.09377956863995
20
-75.875643944191481
10
244.09377956863995
20
-62.875643944191467
42
0.4142135623730846
10
243.59377956863992
20
-62.375643944191481
10
230.59377956863995
20
-62.375643944191481
42
0.4142135623730846
0
LWPOLYLINE
5
135
100
AcDbEntity
8
0
100
AcDbPolyline
90
8
70
1
43
0.0
10
263.14377956863996
20
-75.875643944191481
42
-0.4142135623730846
10
262.6437795686399
20
-76.375643944191481
10
249.64377956863996
20
-76.375643944191523
42
-0.41421356237309503
10
249.1437795686399
20
-75.875643944191481
10
249.14377956863996
20
-62.875643944191467
42
-0.4142135623730846
10
249.64377956863996
20
-62.375643944191481
10
262.6437795686399
20
-62.375643944191481
42
-0.4142135623730846
10
263.14377956863996
20
-62.875643944191467
0
LWPOLYLINE
5
136
100
AcDbEntity
8
0
100
AcDbPolyline
90
8
70
1
43
0.0
10
225.04377956863991
20
-75.875643944191481
42
-0.41421356237306384
10
224.54377956863993
20
-76.375643944191481
10
211.54377956863993
20
-76.375643944191481
42
-0.41421356237309503
10
211.04377956863993
20
-75.875643944191481
10
211.04377956863993
20
-62.875643944191467
42
-0.4142135623730846
10
211.54377956863993
20
-62.375643944191481
10
224.54377956863993
20
-62.375643944191481
42
-0.4142135623730846
10
225.04377956863993
20
-62.875643944191467
0
LWPOLYLINE
5
137
100
AcDbEntity
8
0
100
AcDbPolyline
90
8
70
1
43
0.0
10
281.69377956863991
20
-62.375643944191481
42
-0.4142135623730846
10
282.19377956863991
20
-62.875643944191467
10
282.19377956863991
20
-75.875643944191481
42
-0.4142135623730846
10
281.69377956863991
20
-76.375643944191481
10
268.69377956863991
20
-76.375643944191481
42
-0.41421356237309503
10
268.19377956863991
20
-75.875643944191481
10
268.19377956863991
20
-62.875643944191467
42
-0.4142135623730846
10
268.69377956863991
20
-62.375643944191481
0
LWPOLYLINE
5
138
100
AcDbEntity
8
0
100
AcDbPolyline
90
8
70
1
43
0.0
10
192.49377956863992
20
-76.375643944191481
10
205.49377956863992
20
-76.375643944191481
42
0.41421356237306384
10
205.99377956863992
20
-75.875643944191481
10
205.99377956863992
20
-62.875643944191467
42
0.4142135623730846
10
205.49377956863992
20
-62.375643944191481
10
192.49377956863992
20
-62.375643944191481
42
0.4142135623730846
10
191.99377956863995
20
-62.875643944191467
10
191.99377956863995
20
-75.875643944191481
42
0.41421356237309503
0
LWPOLYLINE
5
139
100
AcDbEntity
8
0
100
AcDbPolyline
90
8
70
1
43
0.0
10
40.093779568639896
20
-95.425643944191478
10
53.093779568639903
20
-95.425643944191478
42
0.41421356237307422
10
53.59377956863991
20
-94.925643944191478
10
53.59377956863991
20
-81.925643944191478
42
0.4142135623730846
10
53.093779568639903
20
-81.425643944191478
10
40.093779568639896
20
-81.425643944191478
42
0.4142135623730846
10
39.593779568639903
20
-81.925643944191478
10
39.593779568639903
20
-94.925643944191478
42
0.41421356237309503
0
LWPOLYLINE
5
140
100
AcDbEntity
8
0
100
AcDbPolyline
90
8
70
1
43
0.0
10
97.243779568639908
20
-95.425643944191478
10
110.24377956863989
20
-95.425643944191478
42
0.41421356237307422
10
110.74377956863991
20
-94.925643944191478
10
110.74377956863991
20
-81.925643944191478
42
0.4142135623730846
10
110.24377956863992
20
-81.425643944191478
10
97.243779568639908
20
-81.425643944191478
42
0.4142135623730846
10
96.743779568639908
20
-81.925643944191478
10
96.743779568639908
20
-94.925643944191478
42
0.41421356237309503
0
LWPOLYLINE
5
141
100
AcDbEntity
8
0
100
AcDbPolyline
90
8
70
1
43
0.0
10
77.693779568639897
20
-81.925643944191478
10
77.693779568639911
20
-94.925643944191478
42
0.41421356237309503
10
78.193779568639897
20
-95.425643944191478
10
91.193779568639911
20
-95.425643944191478
42
0.41421356237307422
10
91.693779568639911
20
-94.925643944191478
10
91.693779568639911
20
-81.925643944191478
42
0.4142135623730846
10
91.193779568639911
20
-81.425643944191478
10
78.193779568639897
20
-81.425643944191478
42
0.4142135623730846
0
LWPOLYLINE
5
142
100
AcDbEntity
8
0
100
AcDbPolyline
90
8
70
1
43
0.0
10
59.143779568639907
20
-95.425643944191478
42
-0.41421356237309503
10
58.6437795686399
20
-94.925643944191478
10
58.6437795686399
20
-81.925643944191478
42
-0.4142135623730846
10
59.143779568639907
20
-81.425643944191478
10
72.143779568639914
20
-81.425643944191478
42
-0.4142135623730846
10
72.643779568639928
20
-81.925643944191478
10
72.6437795686399
20
-94.925643944191478
42
-0.41421356237306384
10
72.143779568639914
20
-95.425643944191478
0
LWPOLYLINE
5
143
100
AcDbEntity
8
0
100
AcDbPolyline
90
8
70
1
43
0.0
10
1.493779568639888
20
-81.925643944191478
10
1.4937795686398925
20
-94.925643944191478
42
0.41421356237309503
10
1.9937795686398907
20
-95.425643944191478
10
14.993779568639894
20
-95.425643944191478
42
0.414213562373069
10
15.493779568639894
20
-94.925643944191478
10
15.493779568639901
20
-81.925643944191478
42
0.4142135623730846
10
14.9937795686399
20
-81.425643944191478
10
1.9937795686398907
20
-81.425643944191478
42
0.4142135623730846
0
LWPOLYLINE
5
144
100
AcDbEntity
8
0
100
AcDbPolyline
90
8
70
1
43
0.0
10
115.79377956863991
20
-81.925643944191478
42
-0.4142135623730846
10
116.29377956863991
20
-81.425643944191478
10
129.29377956863991
20
-81.425643944191478
42
-0.4142135623730846
10
129.79377956863993
20
-81.925643944191478
10
129.79377956863993
20
-94.925643944191478
42
-0.41421356237307422
10
129.29377956863991
20
-95.425643944191478
10
116.29377956863991
20
-95.425643944191464
42
-0.41421356237309503
10
115.79377956863992
20
-94.925643944191478
0
LWPOLYLINE
5
145
100
AcDbEntity
8
0
100
AcDbPolyline
90
8
70
1
43
0.0
10
34.043779568639906
20
-81.425643944191506
42
-0.4142135623730846
10
34.543779568639906
20
-81.925643944191478
10
34.543779568639891
20
-94.925643944191478
42
-0.414213562373069
10
34.043779568639899
20
-95.425643944191478
10
21.043779568639891
20
-95.425643944191478
42
-0.41421356237309503
10
20.543779568639895
20
-94.925643944191478
10
20.543779568639884
20
-81.925643944191478
42
-0.4142135623730846
10
21.043779568639891
20
-81.425643944191478
0
LWPOLYLINE
5
146
100
AcDbEntity
8
0
100
AcDbPolyline
90
8
70
1
43
0.0
10
148.34377956863992
20
-81.425643944191478
42
-0.4142135623730846
10
148.84377956863995
20
-81.925643944191478
10
148.84377956863992
20
-94.925643944191478
42
-0.41421356237306384
10
148.34377956863992
20
-95.425643944191478
10
135.34377956863992
20
-95.425643944191478
42
-0.41421356237309503
10
134.84377956863992
20
-94.925643944191478
10
134.84377956863992
20
-81.925643944191478
42
-0.4142135623730846
10
135.34377956863992
20
-81.425643944191478
0
LWPOLYLINE
5
147
100
AcDbEntity
8
0
100
AcDbPolyline
90
8
70
1
43
0.0
10
153.8937795686399
20
-81.925643944191478
42
-0.4142135623730846
10
154.3937795686399
20
-81.425643944191478
10
167.3937795686399
20
-81.425643944191521
42
-0.4142135623730846
10
167.8937795686399
20
-81.925643944191478
10
167.89377956863996
20
-94.925643944191478
42
-0.41421356237306384
10
167.39377956863993
20
-95.425643944191478
10
154.3937795686399
20
-95.425643944191464
42
-0.41421356237309503
10
153.89377956863993
20
-94.925643944191478
0
LWPOLYLINE
5
148
100
AcDbEntity
8
0
100
AcDbPolyline
90
8
70
1
43
0.0
10
186.44377956863994
20
-81.425643944191478
10
173.44377956863991
20
-81.425643944191478
42
0.4142135623730846
10
172.94377956863994
20
-81.925643944191478
10
172.94377956863994
20
-94.925643944191478
42
0.41421356237309503
10
173.44377956863991
20
-95.425643944191478
10
186.44377956863991
20
-95.425643944191478
42
0.41421356237306384
10
186.94377956863991
20
-94.925643944191478
10
186.94377956863991
20
-81.925643944191478
42
0.4142135623730846
0
LWPOLYLINE
5
149
100
AcDbEntity
8
0
100
AcDbPolyline
90
8
70
1
43
0.0
10
205.99377956863989
20
-94.925643944191478
42
-0.41421356237306384
10
205.49377956863992
20
-95.425643944191478
10
192.49377956863992
20
-95.425643944191449
42
-0.41421356237309503
10
191.99377956863995
20
-94.925643944191478
10
191.99377956863992
20
-81.925643944191478
42
-0.4142135623730846
10
192.49377956863992
20
-81.425643944191478
10
205.49377956863992
20
-81.425643944191478
42
-0.4142135623730846
10
205.99377956863992
20
-81.925643944191478
0
LWPOLYLINE
5
150
100
AcDbEntity
8
0
100
AcDbPolyline
90
8
70
1
43
0.0
10
268.69377956863991
20
-95.425643944191478
10
281.69377956863991
20
-95.425643944191478
42
0.4142135623730846
10
282.19377956863991
20
-94.925643944191478
10
282.19377956863991
20
-81.925643944191478
42
0.4142135623730846
10
281.69377956863991
20
-81.425643944191478
10
268.69377956863991
20
-81.425643944191478
42
0.4142135623730846
10
268.19377956863991
20
-81.925643944191478
10
268.19377956863991
20
-94.925643944191478
42
0.41421356237309503
0
LWPOLYLINE
5
151
100
AcDbEntity
8
0
100
AcDbPolyline
90
8
70
1
43
0.0
10
211.04377956863993
20
-81.925643944191478
42
-0.4142135623730846
10
211.54377956863993
20
-81.425643944191478
10
224.54377956863993
20
-81.425643944191478
42
-0.4142135623730846
10
225.04377956863993
20
-81.925643944191478
10
225.04377956863991
20
-94.925643944191478
42
-0.41421356237306384
10
224.54377956863993
20
-95.425643944191478
10
211.54377956863993
20
-95.425643944191478
42
-0.41421356237309503
10
211.04377956863993
20
-94.925643944191478
0
LWPOLYLINE
5
152
100
AcDbEntity
8
0
100
AcDbPolyline
90
8
70
1
43
0.0
10
249.1437795686399
20
-81.925643944191478
10
249.1437795686399
20
-94.925643944191478
42
0.41421356237309503
10
249.64377956863996
20
-95.425643944191478
10
262.6437795686399
20
-95.425643944191478
42
0.4142135623730846
10
263.14377956863996
20
-94.925643944191478
10
263.14377956863996
20
-81.925643944191478
42
0.4142135623730846
10
262.6437795686399
20
-81.425643944191478
10
249.64377956863996
20
-81.425643944191478
42
0.4142135623730846
0
LWPOLYLINE
5
153
100
AcDbEntity
8
0
100
AcDbPolyline
90
8
70
1
43
0.0
10
230.59377956863995
20
-95.425643944191478
10
243.59377956863992
20
-95.425643944191478
42
0.4142135623730846
10
244.09377956863995
20
-94.925643944191478
10
244.09377956863995
20
-81.925643944191478
42
0.4142135623730846
10
243.59377956863992
20
-81.425643944191478
10
230.59377956863995
20
-81.425643944191478
42
0.4142135623730846
10
230.09377956863995
20
-81.925643944191478
10
230.09377956863995
20
-94.925643944191478
42
0.41421356237309503
0
LWPOLYLINE
5
154
100
AcDbEntity
8
0
100
AcDbPolyline
90
8
70
1
43
0.0
10
58.6437795686399
20
-100.97564394419149
42
-0.41421356237309503
10
59.143779568639907
20
-100.47564394419148
10
72.143779568639914
20
-100.47564394419148
42
-0.41421356237309503
10
72.643779568639928
20
-100.97564394419149
10
72.643779568639928
20
-113.97564394419149
42
-0.4142135623730534
10
72.143779568639914
20
-114.47564394419149
10
59.143779568639907
20
-114.47564394419149
42
-0.41421356237309503
10
58.6437795686399
20
-113.97564394419149
0
LWPOLYLINE
5
155
100
AcDbEntity
8
0
100
AcDbPolyline
90
8
70
1
43
0.0
10
91.69377956863994
20
-113.97564394419149
42
-0.41421356237306384
10
91.193779568639911
20
-114.47564394419149
10
78.193779568639897
20
-114.47564394419148
42
-0.41421356237309503
10
77.693779568639911
20
-113.97564394419149
10
77.693779568639897
20
-100.97564394419149
42
-0.41421356237309503
10
78.193779568639897
20
-100.47564394419148
10
91.193779568639911
20
-100.47564394419148
42
-0.41421356237309503
10
91.693779568639911
20
-100.97564394419149
0
LWPOLYLINE
5
156
100
AcDbEntity
8
0
100
AcDbPolyline
90
8
70
1
43
0.0
10
53.093779568639903
20
-100.47564394419148
42
-0.41421356237309503
10
53.59377956863991
20
-100.97564394419149
10
53.593779568639931
20
-113.97564394419149
42
-0.41421356237306384
10
53.093779568639903
20
-114.47564394419149
10
40.093779568639896
20
-114.47564394419148
42
-0.41421356237309503
10
39.593779568639903
20
-113.97564394419149
10
39.593779568639889
20
-100.97564394419149
42
-0.41421356237309503
10
40.093779568639896
20
-100.47564394419148
0
LWPOLYLINE
5
157
100
AcDbEntity
8
0
100
AcDbPolyline
90
8
70
1
43
0.0
10
15.493779568639894
20
-113.97564394419149
10
15.493779568639901
20
-100.97564394419149
42
0.41421356237309503
10
14.9937795686399
20
-100.47564394419148
10
1.9937795686398907
20
-100.47564394419148
42
0.41421356237309503
10
1.493779568639888
20
-100.97564394419149
10
1.4937795686398925
20
-113.97564394419149
42
0.41421356237309503
10
1.9937795686398907
20
-114.47564394419149
10
14.993779568639894
20
-114.47564394419149
42
0.41421356237305862
0
LWPOLYLINE
5
158
100
AcDbEntity
8
0
100
AcDbPolyline
90
8
70
1
43
0.0
10
20.543779568639891
20
-100.97564394419149
10
20.543779568639895
20
-113.97564394419149
42
0.41421356237309503
10
21.043779568639891
20
-114.47564394419149
10
34.043779568639899
20
-114.47564394419149
42
0.41421356237305862
10
34.543779568639891
20
-113.97564394419149
10
34.543779568639906
20
-100.97564394419149
42
0.41421356237309503
10
34.043779568639906
20
-100.47564394419148
10
21.043779568639891
20
-100.47564394419148
42
0.41421356237309503
0
LWPOLYLINE
5
159
100
AcDbEntity
8
0
100
AcDbPolyline
90
8
70
1
43
0.0
10
230.59377956863995
20
-114.47564394419149
42
-0.41421356237309503
10
230.09377956863995
20
-113.97564394419149
10
230.09377956863995
20
-100.97564394419149
42
-0.41421356237309503
10
230.59377956863995
20
-100.47564394419148
10
243.59377956863992
20
-100.47564394419143
42
-0.41421356237309503
10
244.09377956863995
20
-100.97564394419149
10
244.09377956863995
20
-113.97564394419149
42
-0.41421356237307422
10
243.59377956863992
20
-114.47564394419149
0
LWPOLYLINE
5
160
100
AcDbEntity
8
0
100
AcDbPolyline
90
8
70
1
43
0.0
10
211.54377956863993
20
-114.47564394419149
42
-0.41421356237309503
10
211.04377956863993
20
-113.97564394419149
10
211.04377956863993
20
-100.97564394419149
42
-0.41421356237309503
10
211.54377956863993
20
-100.47564394419148
10
224.54377956863993
20
-100.47564394419148
42
-0.41421356237309503
10
225.04377956863993
20
-100.97564394419149
10
225.04377956863993
20
-113.97564394419149
42
-0.4142135623730534
10
224.54377956863993
20
-114.47564394419149
0
LWPOLYLINE
5
161
100
AcDbEntity
8
0
100
AcDbPolyline
90
8
70
1
43
0.0
10
205.99377956863992
20
-113.97564394419149
42
-0.4142135623730534
10
205.49377956863992
20
-114.47564394419149
10
192.49377956863992
20
-114.47564394419146
42
-0.41421356237309503
10
191.99377956863995
20
-113.97564394419149
10
191.99377956863992
20
-100.97564394419149
42
-0.41421356237309503
10
192.49377956863992
20
-100.47564394419148
10
205.49377956863992
20
-100.47564394419148
42
-0.41421356237309503
10
205.99377956863992
20
-100.97564394419149
0
LWPOLYLINE
5
162
100
AcDbEntity
8
0
100
AcDbPolyline
90
8
70
1
43
0.0
10
186.94377956863991
20
-113.97564394419149
42
-0.4142135623730534
10
186.44377956863991
20
-114.47564394419149
10
173.44377956863991
20
-114.47564394419146
42
-0.41421356237309503
10
172.94377956863994
20
-113.97564394419149
10
172.94377956863991
20
-100.97564394419149
42
-0.41421356237309503
10
173.44377956863991
20
-100.47564394419148
10
186.44377956863994
20
-100.47564394419152
42
-0.41421356237309503
10
186.94377956863991
20
-100.97564394419149
0
LWPOLYLINE
5
163
100
AcDbEntity
8
0
100
AcDbPolyline
90
8
70
1
43
0.0
10
249.64377956863996
20
-114.47564394419149
10
262.6437795686399
20
-114.47564394419149
42
0.41421356237307422
10
263.14377956863996
20
-113.97564394419149
10
263.14377956863996
20
-100.97564394419149
42
0.41421356237309503
10
262.6437795686399
20
-100.47564394419148
10
249.64377956863996
20
-100.47564394419148
42
0.41421356237309503
10
249.1437795686399
20
-100.97564394419149
10
249.1437795686399
20
-113.97564394419149
42
0.41421356237309503
0
LWPOLYLINE
5
164
100
AcDbEntity
8
0
100
AcDbPolyline
90
8
70
1
43
0.0
10
116.29377956863991
20
-114.47564394419149
10
129.29377956863991
20
-114.47564394419149
42
0.41421356237306384
10
129.79377956863993
20
-113.97564394419149
10
129.79377956863993
20
-100.97564394419149
42
0.41421356237309503
10
129.29377956863991
20
-100.47564394419148
10
116.29377956863991
20
-100.47564394419148
42
0.41421356237309503
10
115.79377956863992
20
-100.97564394419149
10
115.79377956863992
20
-113.97564394419149
42
0.41421356237309503
0
LWPOLYLINE
5
165
100
AcDbEntity
8
0
100
AcDbPolyline
90
8
70
1
43
0.0
10
110.74377956863991
20
-113.97564394419149
10
110.74377956863991
20
-100.97564394419149
42
0.41421356237309503
10
110.24377956863992
20
-100.47564394419148
10
97.243779568639908
20
-100.47564394419148
42
0.41421356237309503
10
96.743779568639908
20
-100.97564394419149
10
96.743779568639908
20
-113.97564394419149
42
0.41421356237309503
10
97.243779568639908
20
-114.47564394419149
10
110.24377956863989
20
-114.47564394419149
42
0.41421356237306384
0
LWPOLYLINE
5
166
100
AcDbEntity
8
0
100
AcDbPolyline
90
8
70
1
43
0.0
10
167.8937795686399
20
-113.97564394419149
10
167.8937795686399
20
-100.97564394419149
42
0.41421356237309503
10
167.39377956863993
20
-100.47564394419148
10
154.3937795686399
20
-100.47564394419148
42
0.41421356237309503
10
153.89377956863993
20
-100.97564394419149
10
153.89377956863993
20
-113.97564394419149
42
0.41421356237309503
10
154.3937795686399
20
-114.47564394419149
10
167.39377956863993
20
-114.47564394419149
42
0.4142135623730534
0
LWPOLYLINE
5
167
100
AcDbEntity
8
0
100
AcDbPolyline
90
8
70
1
43
0.0
10
135.34377956863992
20
-114.47564394419149
42
-0.41421356237309503
10
134.84377956863992
20
-113.97564394419149
10
134.84377956863992
20
-100.97564394419149
42
-0.41421356237309503
10
135.34377956863992
20
-100.47564394419148
10
148.34377956863992
20
-100.47564394419148
42
-0.41421356237309503
10
148.84377956863995
20
-100.97564394419149
10
148.84377956863995
20
-113.97564394419149
42
-0.4142135623730534
10
148.34377956863992
20
-114.47564394419149
0
LWPOLYLINE
5
168
100
AcDbEntity
8
0
100
AcDbPolyline
90
8
70
1
43
0.0
10
268.19377956863991
20
-100.97564394419149
10
268.19377956863991
20
-113.97564394419149
42
0.41421356237309503
10
268.69377956863991
20
-114.47564394419149
10
281.69377956863991
20
-114.47564394419149
42
0.41421356237307422
10
282.19377956863991
20
-113.97564394419149
10
282.19377956863991
20
-100.97564394419149
42
0.41421356237309503
10
281.69377956863991
20
-100.47564394419148
10
268.69377956863991
20
-100.47564394419148
42
0.41421356237309503
0
LWPOLYLINE
5
169
100
AcDbEntity
8
0
100
AcDbPolyline
90
40
70
1
43
0.0
10
89.311302280539891
20
-39.800643944191478
10
91.620703357274905
20
-35.800643944211693
42
-0.57735026919481336
10
96.816855780004886
20
-35.800643944211693
10
99.126256856739886
20
-39.800643944191478
42
0.26794919243320847
10
100.85830766433989
20
-40.800643944191528
10
182.82925147293992
20
-40.800643944191478
42
0.26794919243320725
10
184.5613022805166
20
-39.80064394417802
10
186.87070335727486
20
-35.800643944211672
42
-0.57735026919481491
10
192.06685578000491
20
-35.8006439442117
10
194.3762568567399
20
-39.800643944191478
42
0.26794919243320725
10
196.10830766433989
20
-40.800643944191549
10
275.07925147293986
20
-40.800643944191478
42
0.26794919243320597
10
276.81130228051671
20
-39.800643944178113
10
279.12070335727486
20
-35.800643944211657
42
-0.76732698798205456
10
284.71877956864006
20
-37.300643944191485
10
284.71877956864006
20
-139.55064394419145
42
-0.76732698798205756
10
279.12070335727486
20
-141.05064394417124
10
276.81130228053985
20
-137.05064394419148
42
0.26794919243320248
10
275.07925147293992
20
-136.05064394419119
10
196.10830766433989
20
-136.05064394419148
42
0.26794919243320797
10
194.37625685676323
20
-137.05064394420498
10
192.06685578000486
20
-141.05064394417124
42
-0.57735026919480981
10
186.87070335727495
20
-141.05064394417124
10
184.56130228053991
20
-137.05064394419148
42
0.26794919243320248
10
182.82925147293994
20
-136.05064394419145
10
100.85830766433989
20
-136.05064394419148
42
0.26794919243320975
10
99.126256856763291
20
-137.05064394420501
10
96.816855780004886
20
-141.05064394417127
42
-0.57735026919481336
10
91.620703357274891
20
-141.05064394417124
10
89.311302280539891
20
-137.05064394419148
42
0.26794919243320964
10
87.579251472939887
20
-136.05064394419156
10
8.6083076643398933
20
-136.05064394419148
42
0.26794919243320842
10
6.8762568567632396
20
-137.05064394420498
10
4.5668557800048779
20
-141.05064394417127
42
-0.76732698798204846
10
-1.0312204313601137
20
-139.55064394419145
10
-1.0312204313601057
20
-37.300643944191478
42
-0.76732698798205079
10
4.5668557800048788
20
-35.800643944211693
10
6.8762568567398938
20
-39.800643944191478
42
0.26794919243320775
10
8.6083076643398915
20
-40.800643944191449
10
87.579251472939902
20
-40.800643944191471
42
0.26794919243320725
0
CIRCLE
5
170
100
AcDbEntity
8
0
100
AcDbCircle
10
1.9687795686398935
20
-37.300643944191478
30
0
40
1.6000000000000159
210
0
220
-0
230
1
0
CIRCLE
5
171
100
AcDbEntity
8
0
100
AcDbCircle
10
1.9687795686398935
20
-139.55064394419145
30
0
40
1.5999999999999939
210
0
220
-0
230
1
0
CIRCLE
5
172
100
AcDbEntity
8
0
100
AcDbCircle
10
94.218779568639889
20
-139.55064394419145
30
0
40
1.6000000000000092
210
0
220
-0
230
1
0
CIRCLE
5
173
100
AcDbEntity
8
0
100
AcDbCircle
10
189.46877956863989
20
-139.55064394419145
30
0
40
1.5999999999999939
210
0
220
-0
230
1
0
CIRCLE
5
174
100
AcDbEntity
8
0
100
AcDbCircle
10
281.71877956863995
20
-139.55064394419145
30
0
40
1.6000000000000092
210
0
220
-0
230
1
0
CIRCLE
5
175
100
AcDbEntity
8
0
100
AcDbCircle
10
281.71877956863995
20
-37.300643944191478
30
0
40
1.6000000000000536
210
0
220
-0
230
1
0
CIRCLE
5
176
100
AcDbEntity
8
0
100
AcDbCircle
10
189.46877956863989
20
-37.300643944191478
30
0
40
1.599999999999985
210
0
220
-0
230
1
0
CIRCLE
5
177
100
AcDbEntity
8
0
100
AcDbCircle
10
94.218779568639889
20
-37.300643944191478
30
0
40
1.6000000000000145
210
0
220
-0
230
1
0
ENDSEC
0
SECTION
2
OBJECTS
0
DICTIONARY
5
C
100
AcDbDictionary
3
ACAD_GROUP
350
D
3
ACAD_MLINESTYLE
350
17
0
DICTIONARY
5
D
100
AcDbDictionary
0
DICTIONARY
5
1A
330
C
100
AcDbDictionary
0
DICTIONARY
5
17
100
AcDbDictionary
0
ENDSEC
0
EOF
