0
SECTION
2
HEADER
9
$INSUNITS
70
4
9
$ACADVER
1
AC1014
9
$HANDSEED
5
FFFF
0
ENDSEC
0
SECTION
2
TABLES
0
TABLE
2
VPORT
5
8
100
AcDbSymbolTable
0
ENDTAB
0
TABLE
2
LTYPE
5
5
100
AcDbSymbolTable
0
LTYPE
5
14
100
AcDbSymbolTableRecord
100
AcDbLinetypeTableRecord
2
BYBLOCK
70
0
0
LTYPE
5
15
100
AcDbSymbolTableRecord
100
AcDbLinetypeTableRecord
2
BYLAYER
70
0
0
ENDTAB
0
TABLE
2
LAYER
5
2
100
AcDbSymbolTable
70
2
0
LAYER
5
50
100
AcDbSymbolTableRecord
100
AcDbLayerTableRecord
2
0
70
0
6
CONTINUOUS
0
ENDTAB
0
TABLE
2
STYLE
5
3
100
AcDbSymbolTable
70
1
0
STYLE
5
11
100
AcDbSymbolTableRecord
100
AcDbTextStyleTableRecord
2
STANDARD
70
0
0
ENDTAB
0
TABLE
2
VIEW
5
6
100
AcDbSymbolTable
70
0
0
ENDTAB
0
TABLE
2
UCS
5
7
100
AcDbSymbolTable
70
0
0
ENDTAB
0
TABLE
2
APPID
5
9
100
AcDbSymbolTable
70
2
0
APPID
5
12
100
AcDbSymbolTableRecord
100
AcDbRegAppTableRecord
2
ACAD
70
0
0
ENDTAB
0
TABLE
2
DIMSTYLE
5
A
100
AcDbSymbolTable
70
1
0
ENDTAB
0
TABLE
2
BLOCK_RECORD
5
1
100
AcDbSymbolTable
70
1
0
BLOCK_RECORD
5
1F
100
AcDbSymbolTableRecord
100
AcDbBlockTableRecord
2
*MODEL_SPACE
0
BLOCK_RECORD
5
1B
100
AcDbSymbolTableRecord
100
AcDbBlockTableRecord
2
*PAPER_SPACE
0
ENDTAB
0
ENDSEC
0
SECTION
2
BLOCKS
0
BLOCK
5
20
100
AcDbEntity
100
AcDbBlockBegin
2
*MODEL_SPACE
0
ENDBLK
5
21
100
AcDbEntity
100
AcDbBlockEnd
0
BLOCK
5
1C
100
AcDbEntity
100
AcDbBlockBegin
2
*PAPER_SPACE
0
ENDBLK
5
1D
100
AcDbEntity
100
AcDbBlockEnd
0
ENDSEC
0
SECTION
2
ENTITIES
0
LWPOLYLINE
5
100
100
AcDbEntity
8
0
100
AcDbPolyline
90
8
70
1
43
0.0
10
512.60024238410961
20
16.308668757620673
10
512.60024238410961
20
28.808668757620673
42
0.41421356237309503
10
511.85024238410961
20
29.558668757620666
10
499.35024238410961
20
29.558668757620676
42
0.41421356237309503
10
498.60024238410966
20
28.808668757620673
10
498.60024238410966
20
16.308668757620673
42
0.41421356237309503
10
499.35024238410961
20
15.558668757620671
10
511.85024238410961
20
15.558668757620675
42
0.41421356237309503
0
LWPOLYLINE
5
101
100
AcDbEntity
8
0
100
AcDbPolyline
90
8
70
1
43
0.0
10
473.75024238410964
20
29.558668757620676
10
461.25024238410964
20
29.558668757620676
42
0.41421356237309503
10
460.50024238410964
20
28.808668757620673
10
460.50024238410964
20
16.30866875762068
42
0.41421356237309503
10
461.25024238410964
20
15.558668757620676
10
473.75024238410964
20
15.558668757620676
42
0.41421356237309503
10
474.50024238410958
20
16.308668757620673
10
474.50024238410958
20
28.808668757620673
42
0.41421356237309503
0
LWPOLYLINE
5
102
100
AcDbEntity
8
0
100
AcDbPolyline
90
8
70
1
43
0.0
10
479.55024238410965
20
16.308668757620673
10
479.55024238410954
20
28.808668757620673
42
-0.41421356237309503
10
480.30024238410959
20
29.558668757620676
10
492.80024238410959
20
29.558668757620701
42
-0.41421356237309503
10
493.55024238410965
20
28.808668757620673
10
493.55024238410965
20
16.30866875762068
42
-0.41421356237309503
10
492.80024238410959
20
15.558668757620676
10
480.30024238410959
20
15.558668757620717
42
-0.41421356237309503
0
LWPOLYLINE
5
103
100
AcDbEntity
8
0
100
AcDbPolyline
90
8
70
1
43
0.0
10
454.70024238410963
20
29.558668757620676
10
442.20024238410963
20
29.558668757620676
42
0.41421356237309503
10
441.45024238410963
20
28.808668757620673
10
441.45024238410963
20
16.308668757620673
42
0.41421356237309503
10
442.20024238410963
20
15.558668757620671
10
454.70024238410963
20
15.558668757620675
42
0.41421356237309503
10
455.45024238410963
20
16.308668757620673
10
455.45024238410963
20
28.808668757620673
42
0.41421356237309503
0
LWPOLYLINE
5
104
100
AcDbEntity
8
0
100
AcDbPolyline
90
8
70
1
43
0.0
10
530.90024238410956
20
29.558668757620701
42
-0.41421356237309503
10
531.65024238410967
20
28.808668757620673
10
531.65024238410967
20
16.308668757620673
42
-0.41421356237309503
10
530.90024238410956
20
15.558668757620675
10
518.40024238410956
20
15.558668757620717
42
-0.41421356237309503
10
517.65024238410967
20
16.308668757620673
10
517.65024238410956
20
28.808668757620673
42
-0.41421356237309503
10
518.40024238410956
20
29.558668757620676
0
LWPOLYLINE
5
105
100
AcDbEntity
8
0
100
AcDbPolyline
90
8
70
1
43
0.0
10
435.65024238410962
20
29.558668757620676
10
423.15024238410962
20
29.558668757620676
42
0.41421356237309503
10
422.40024238410962
20
28.808668757620673
10
422.40024238410962
20
16.308668757620673
42
0.41421356237309503
10
423.15024238410962
20
15.558668757620675
10
435.65024238410962
20
15.558668757620676
42
0.41421356237309503
10
436.40024238410956
20
16.308668757620673
10
436.40024238410967
20
28.808668757620673
42
0.41421356237309503
0
LWPOLYLINE
5
106
100
AcDbEntity
8
0
100
AcDbPolyline
90
8
70
1
43
0.0
10
550.70024238410963
20
16.308668757620673
10
550.70024238410963
20
28.808668757620673
42
0.41421356237309503
10
549.95024238410963
20
29.558668757620666
10
537.45024238410963
20
29.558668757620676
42
0.41421356237309503
10
536.70024238410963
20
28.808668757620673
10
536.70024238410963
20
16.308668757620673
42
0.41421356237309503
10
537.45024238410963
20
15.558668757620676
10
549.95024238410963
20
15.558668757620673
42
0.41421356237309503
0
LWPOLYLINE
5
107
100
AcDbEntity
8
0
100
AcDbPolyline
90
8
70
1
43
0.0
10
588.80024238410965
20
16.308668757620673
10
588.80024238410965
20
28.808668757620673
42
0.41421356237309503
10
588.05024238410965
20
29.558668757620676
10
575.55024238410965
20
29.558668757620676
42
0.41421356237309503
10
574.80024238410965
20
28.808668757620673
10
574.80024238410965
20
16.308668757620673
42
0.41421356237309503
10
575.55024238410965
20
15.558668757620675
10
588.05024238410965
20
15.558668757620675
42
0.41421356237309503
0
LWPOLYLINE
5
108
100
AcDbEntity
8
0
100
AcDbPolyline
90
8
70
1
43
0.0
10
555.75024238410958
20
16.308668757620673
10
555.75024238410958
20
28.808668757620673
42
-0.41421356237309503
10
556.5002423841097
20
29.558668757620676
10
569.0002423841097
20
29.558668757620701
42
-0.41421356237309503
10
569.7502423841097
20
28.808668757620673
10
569.7502423841097
20
16.308668757620673
42
-0.41421356237309503
10
569.0002423841097
20
15.558668757620676
10
556.5002423841097
20
15.558668757620646
42
-0.41421356237309503
0
LWPOLYLINE
5
109
100
AcDbEntity
8
0
100
AcDbPolyline
90
8
70
1
43
0.0
10
626.15024238410967
20
15.558668757620676
10
613.65024238410967
20
15.558668757620646
42
-0.41421356237309503
10
612.90024238410967
20
16.308668757620673
10
612.90024238410967
20
28.808668757620673
42
-0.41421356237309503
10
613.65024238410967
20
29.558668757620676
10
626.15024238410967
20
29.55866875762063
42
-0.41421356237309503
10
626.90024238410967
20
28.808668757620673
10
626.90024238410967
20
16.308668757620673
42
-0.41421356237309503
0
LWPOLYLINE
5
110
100
AcDbEntity
8
0
100
AcDbPolyline
90
8
70
1
43
0.0
10
631.95024238410963
20
16.308668757620673
10
631.95024238410963
20
28.808668757620673
42
-0.41421356237309503
10
632.70024238410963
20
29.558668757620676
10
645.20024238410974
20
29.558668757620559
42
-0.41421356237309503
10
645.95024238410952
20
28.808668757620673
10
645.95024238410974
20
16.308668757620673
42
-0.41421356237309503
10
645.20024238410974
20
15.558668757620675
10
632.70024238410963
20
15.558668757620717
42
-0.41421356237309503
0
LWPOLYLINE
5
111
100
AcDbEntity
8
0
100
AcDbPolyline
90
8
70
1
43
0.0
10
651.0002423841097
20
16.308668757620673
10
651.0002423841097
20
28.808668757620673
42
-0.41421356237309503
10
651.7502423841097
20
29.558668757620676
10
664.2502423841097
20
29.558668757620559
42
-0.41421356237309503
10
665.00024238410958
20
28.808668757620673
10
665.0002423841097
20
16.308668757620673
42
-0.41421356237309503
10
664.2502423841097
20
15.558668757620675
10
651.7502423841097
20
15.558668757620646
42
-0.41421356237309503
0
LWPOLYLINE
5
112
100
AcDbEntity
8
0
100
AcDbPolyline
90
8
70
1
43
0.0
10
683.30024238410965
20
29.558668757620676
10
670.80024238410965
20
29.558668757620676
42
0.41421356237309503
10
670.05024238410965
20
28.808668757620673
10
670.05024238410965
20
16.308668757620673
42
0.41421356237309503
10
670.80024238410965
20
15.558668757620675
10
683.30024238410965
20
15.558668757620675
42
0.41421356237309503
10
684.05024238410965
20
16.308668757620673
10
684.05024238410965
20
28.808668757620673
42
0.41421356237309503
0
LWPOLYLINE
5
113
100
AcDbEntity
8
0
100
AcDbPolyline
90
8
70
1
43
0.0
10
702.35024238410972
20
29.558668757620676
10
689.85024238410972
20
29.558668757620676
42
0.41421356237309503
10
689.10024238410972
20
28.808668757620673
10
689.10024238410972
20
16.308668757620673
42
0.41421356237309503
10
689.85024238410972
20
15.558668757620676
10
702.35024238410972
20
15.558668757620676
42
0.41421356237309503
10
703.10024238410961
20
16.308668757620673
10
703.10024238410961
20
28.808668757620673
42
0.41421356237309503
0
LWPOLYLINE
5
114
100
AcDbEntity
8
0
100
AcDbPolyline
90
8
70
1
43
0.0
10
593.85024238410961
20
28.808668757620673
42
-0.41421356237309503
10
594.60024238410961
20
29.558668757620676
10
607.10024238410961
20
29.55866875762063
42
-0.41421356237309503
10
607.85024238410961
20
28.808668757620673
10
607.85024238410972
20
16.308668757620673
42
-0.41421356237309503
10
607.10024238410961
20
15.558668757620676
10
594.60024238410961
20
15.558668757620646
42
-0.41421356237309503
10
593.85024238410961
20
16.308668757620673
0
LWPOLYLINE
5
115
100
AcDbEntity
8
0
100
AcDbPolyline
90
8
70
1
43
0.0
10
531.65024238410967
20
-2.7413312423793279
42
-0.41421356237309503
10
530.90024238410956
20
-3.4913312423793297
10
518.40024238410956
20
-3.4913312423792853
42
-0.41421356237309503
10
517.65024238410967
20
-2.7413312423793279
10
517.65024238410956
20
9.7586687576206756
42
-0.41421356237309503
10
518.40024238410956
20
10.508668757620679
10
530.90024238410956
20
10.508668757620704
42
-0.41421356237309503
10
531.65024238410967
20
9.7586687576206756
0
LWPOLYLINE
5
116
100
AcDbEntity
8
0
100
AcDbPolyline
90
8
70
1
43
0.0
10
498.60024238410966
20
-2.7413312423793279
10
498.60024238410961
20
9.7586687576206756
42
-0.41421356237309503
10
499.35024238410961
20
10.508668757620674
10
511.85024238410961
20
10.508668757620704
42
-0.41421356237309503
10
512.60024238410961
20
9.7586687576206756
10
512.60024238410961
20
-2.7413312423793279
42
-0.41421356237309503
10
511.85024238410961
20
-3.4913312423793297
10
499.35024238410961
20
-3.4913312423792853
42
-0.41421356237309503
0
LWPOLYLINE
5
117
100
AcDbEntity
8
0
100
AcDbPolyline
90
8
70
1
43
0.0
10
442.20024238410963
20
-3.4913312423793563
42
-0.41421356237309503
10
441.45024238410963
20
-2.7413312423793279
10
441.45024238410963
20
9.7586687576206756
42
-0.41421356237309503
10
442.20024238410963
20
10.508668757620674
10
454.70024238410963
20
10.508668757620633
42
-0.41421356237309503
10
455.45024238410963
20
9.7586687576206756
10
455.45024238410969
20
-2.7413312423793279
42
-0.41421356237309503
10
454.70024238410963
20
-3.4913312423793297
0
LWPOLYLINE
5
118
100
AcDbEntity
8
0
100
AcDbPolyline
90
8
70
1
43
0.0
10
492.80024238410959
20
10.508668757620704
42
-0.41421356237309503
10
493.55024238410965
20
9.7586687576206756
10
493.55024238410965
20
-2.7413312423793279
42
-0.41421356237309503
10
492.80024238410959
20
-3.4913312423793297
10
480.30024238410959
20
-3.4913312423792853
42
-0.41421356237309503
10
479.55024238410965
20
-2.7413312423793279
10
479.55024238410954
20
9.7586687576206756
42
-0.41421356237309503
10
480.30024238410959
20
10.508668757620674
0
LWPOLYLINE
5
119
100
AcDbEntity
8
0
100
AcDbPolyline
90
8
70
1
43
0.0
10
549.95024238410963
20
-3.4913312423793297
10
537.45024238410963
20
-3.4913312423793563
42
-0.41421356237309503
10
536.70024238410963
20
-2.7413312423793279
10
536.70024238410963
20
9.7586687576206756
42
-0.41421356237309503
10
537.45024238410963
20
10.508668757620679
10
549.95024238410963
20
10.508668757620704
42
-0.41421356237309503
10
550.70024238410963
20
9.7586687576206756
10
550.70024238410963
20
-2.7413312423793279
42
-0.41421356237309503
0
LWPOLYLINE
5
120
100
AcDbEntity
8
0
100
AcDbPolyline
90
8
70
1
43
0.0
10
422.40024238410962
20
9.7586687576206756
42
-0.41421356237309503
10
423.15024238410962
20
10.508668757620679
10
435.65024238410962
20
10.508668757620704
42
-0.41421356237309503
10
436.40024238410967
20
9.7586687576206756
10
436.40024238410967
20
-2.7413312423793279
42
-0.41421356237309503
10
435.65024238410962
20
-3.4913312423793297
10
423.15024238410962
20
-3.4913312423793563
42
-0.41421356237309503
10
422.40024238410962
20
-2.7413312423793279
0
LWPOLYLINE
5
121
100
AcDbEntity
8
0
100
AcDbPolyline
90
8
70
1
43
0.0
10
473.75024238410964
20
10.508668757620674
10
461.25024238410964
20
10.508668757620674
42
0.41421356237309503
10
460.50024238410964
20
9.7586687576206756
10
460.50024238410964
20
-2.7413312423793279
42
0.41421356237309503
10
461.25024238410964
20
-3.4913312423793297
10
473.75024238410964
20
-3.4913312423793297
42
0.41421356237309503
10
474.50024238410958
20
-2.7413312423793279
10
474.50024238410958
20
9.7586687576206756
42
0.41421356237309503
0
LWPOLYLINE
5
122
100
AcDbEntity
8
0
100
AcDbPolyline
90
8
70
1
43
0.0
10
569.0002423841097
20
10.508668757620674
10
556.5002423841097
20
10.508668757620674
42
0.41421356237309503
10
555.75024238410958
20
9.7586687576206756
10
555.75024238410958
20
-2.7413312423793279
42
0.41421356237309503
10
556.5002423841097
20
-3.4913312423793297
10
569.0002423841097
20
-3.4913312423793297
42
0.41421356237309503
10
569.7502423841097
20
-2.7413312423793279
10
569.7502423841097
20
9.7586687576206756
42
0.41421356237309503
0
LWPOLYLINE
5
123
100
AcDbEntity
8
0
100
AcDbPolyline
90
8
70
1
43
0.0
10
664.2502423841097
20
10.508668757620674
10
651.7502423841097
20
10.508668757620674
42
0.41421356237309503
10
651.0002423841097
20
9.7586687576206756
10
651.0002423841097
20
-2.7413312423793279
42
0.41421356237309503
10
651.7502423841097
20
-3.4913312423793297
10
664.2502423841097
20
-3.4913312423793297
42
0.41421356237309503
10
665.00024238410958
20
-2.7413312423793279
10
665.00024238410958
20
9.7586687576206756
42
0.41421356237309503
0
LWPOLYLINE
5
124
100
AcDbEntity
8
0
100
AcDbPolyline
90
8
70
1
43
0.0
10
593.85024238410961
20
9.7586687576206756
42
-0.41421356237309503
10
594.60024238410961
20
10.508668757620679
10
607.10024238410961
20
10.508668757620633
42
-0.41421356237309503
10
607.85024238410961
20
9.7586687576206756
10
607.85024238410972
20
-2.7413312423793279
42
-0.41421356237309503
10
607.10024238410961
20
-3.4913312423793297
10
594.60024238410961
20
-3.4913312423793563
42
-0.41421356237309503
10
593.85024238410961
20
-2.7413312423793279
0
LWPOLYLINE
5
125
100
AcDbEntity
8
0
100
AcDbPolyline
90
8
70
1
43
0.0
10
645.20024238410974
20
-3.4913312423793297
10
632.70024238410963
20
-3.4913312423792853
42
-0.41421356237309503
10
631.95024238410963
20
-2.7413312423793279
10
631.95024238410963
20
9.7586687576206756
42
-0.41421356237309503
10
632.70024238410963
20
10.508668757620679
10
645.20024238410974
20
10.508668757620562
42
-0.41421356237309503
10
645.95024238410952
20
9.7586687576206756
10
645.95024238410974
20
-2.7413312423793279
42
-0.41421356237309503
0
LWPOLYLINE
5
126
100
AcDbEntity
8
0
100
AcDbPolyline
90
8
70
1
43
0.0
10
683.30024238410965
20
10.508668757620674
10
670.80024238410965
20
10.508668757620674
42
0.41421356237309503
10
670.05024238410965
20
9.7586687576206756
10
670.05024238410965
20
-2.7413312423793279
42
0.41421356237309503
10
670.80024238410965
20
-3.4913312423793297
10
683.30024238410965
20
-3.4913312423793297
42
0.41421356237309503
10
684.05024238410965
20
-2.7413312423793279
10
684.05024238410965
20
9.7586687576206756
42
0.41421356237309503
0
LWPOLYLINE
5
127
100
AcDbEntity
8
0
100
AcDbPolyline
90
8
70
1
43
0.0
10
574.80024238410965
20
-2.7413312423793279
10
574.80024238410965
20
9.7586687576206756
42
-0.41421356237309503
10
575.55024238410965
20
10.508668757620674
10
588.05024238410965
20
10.508668757620704
42
-0.41421356237309503
10
588.80024238410965
20
9.7586687576206756
10
588.80024238410965
20
-2.7413312423793279
42
-0.41421356237309503
10
588.05024238410965
20
-3.4913312423793297
10
575.55024238410965
20
-3.4913312423793563
42
-0.41421356237309503
0
LWPOLYLINE
5
128
100
AcDbEntity
8
0
100
AcDbPolyline
90
8
70
1
43
0.0
10
626.15024238410967
20
10.508668757620633
42
-0.41421356237309503
10
626.90024238410967
20
9.7586687576206756
10
626.90024238410967
20
-2.7413312423793279
42
-0.41421356237309503
10
626.15024238410967
20
-3.4913312423793297
10
613.65024238410967
20
-3.4913312423793563
42
-0.41421356237309503
10
612.90024238410967
20
-2.7413312423793279
10
612.90024238410967
20
9.7586687576206756
42
-0.41421356237309503
10
613.65024238410967
20
10.508668757620679
0
LWPOLYLINE
5
129
100
AcDbEntity
8
0
100
AcDbPolyline
90
8
70
1
43
0.0
10
689.10024238410972
20
-2.7413312423793279
10
689.10024238410972
20
9.7586687576206756
42
-0.41421356237309503
10
689.85024238410972
20
10.508668757620679
10
702.35024238410972
20
10.508668757620562
42
-0.41421356237309503
10
703.10024238410961
20
9.7586687576206756
10
703.10024238410972
20
-2.7413312423793279
42
-0.41421356237309503
10
702.35024238410972
20
-3.4913312423793297
10
689.85024238410972
20
-3.4913312423793563
42
-0.41421356237309503
0
LWPOLYLINE
5
130
100
AcDbEntity
8
0
100
AcDbPolyline
90
8
70
1
43
0.0
10
435.65024238410962
20
-8.5413312423793251
10
423.15024238410962
20
-8.5413312423793251
42
0.41421356237309503
10
422.40024238410962
20
-9.2913312423793251
10
422.40024238410962
20
-21.791331242379325
42
0.41421356237309503
10
423.15024238410962
20
-22.541331242379329
10
435.65024238410962
20
-22.541331242379329
42
0.41421356237309503
10
436.40024238410956
20
-21.791331242379325
10
436.40024238410956
20
-9.2913312423793251
42
0.41421356237309503
0
LWPOLYLINE
5
131
100
AcDbEntity
8
0
100
AcDbPolyline
90
8
70
1
43
0.0
10
555.75024238410958
20
-21.791331242379325
10
555.75024238410958
20
-9.2913312423793251
42
-0.41421356237309503
10
556.5002423841097
20
-8.5413312423793251
10
569.0002423841097
20
-8.5413312423792966
42
-0.41421356237309503
10
569.7502423841097
20
-9.2913312423793251
10
569.7502423841097
20
-21.791331242379325
42
-0.41421356237309503
10
569.0002423841097
20
-22.541331242379329
10
556.5002423841097
20
-22.541331242379353
42
-0.41421356237309503
0
LWPOLYLINE
5
132
100
AcDbEntity
8
0
100
AcDbPolyline
90
8
70
1
43
0.0
10
460.50024238410964
20
-21.791331242379325
10
460.50024238410964
20
-9.2913312423793251
42
-0.41421356237309503
10
461.25024238410964
20
-8.5413312423793251
10
473.75024238410964
20
-8.5413312423793677
42
-0.41421356237309503
10
474.50024238410958
20
-9.2913312423793251
10
474.5002423841097
20
-21.791331242379325
42
-0.41421356237309503
10
473.75024238410964
20
-22.541331242379329
10
461.25024238410964
20
-22.541331242379353
42
-0.41421356237309503
0
LWPOLYLINE
5
133
100
AcDbEntity
8
0
100
AcDbPolyline
90
8
70
1
43
0.0
10
492.80024238410959
20
-8.5413312423793251
10
480.30024238410959
20
-8.5413312423793251
42
0.41421356237309503
10
479.55024238410965
20
-9.2913312423793251
10
479.55024238410965
20
-21.791331242379325
42
0.41421356237309503
10
480.30024238410959
20
-22.541331242379329
10
492.80024238410959
20
-22.541331242379329
42
0.41421356237309503
10
493.55024238410965
20
-21.791331242379325
10
493.55024238410965
20
-9.2913312423793251
42
0.41421356237309503
0
LWPOLYLINE
5
134
100
AcDbEntity
8
0
100
AcDbPolyline
90
8
70
1
43
0.0
10
454.70024238410963
20
-22.541331242379329
10
442.20024238410963
20
-22.541331242379353
42
-0.41421356237309503
10
441.45024238410963
20
-21.791331242379325
10
441.45024238410963
20
-9.2913312423793251
42
-0.41421356237309503
10
442.20024238410963
20
-8.5413312423793251
10
454.70024238410963
20
-8.5413312423793677
42
-0.41421356237309503
10
455.45024238410963
20
-9.2913312423793251
10
455.45024238410969
20
-21.791331242379325
42
-0.41421356237309503
0
LWPOLYLINE
5
135
100
AcDbEntity
8
0
100
AcDbPolyline
90
8
70
1
43
0.0
10
511.85024238410961
20
-8.5413312423793251
10
499.35024238410961
20
-8.5413312423793251
42
0.41421356237309503
10
498.60024238410966
20
-9.2913312423793251
10
498.60024238410966
20
-21.791331242379325
42
0.41421356237309503
10
499.35024238410961
20
-22.541331242379329
10
511.85024238410961
20
-22.541331242379329
42
0.41421356237309503
10
512.60024238410961
20
-21.791331242379325
10
512.60024238410961
20
-9.2913312423793251
42
0.41421356237309503
0
LWPOLYLINE
5
136
100
AcDbEntity
8
0
100
AcDbPolyline
90
8
70
1
43
0.0
10
531.65024238410967
20
-21.791331242379325
42
-0.41421356237309503
10
530.90024238410956
20
-22.541331242379329
10
518.40024238410956
20
-22.541331242379282
42
-0.41421356237309503
10
517.65024238410967
20
-21.791331242379325
10
517.65024238410956
20
-9.2913312423793251
42
-0.41421356237309503
10
518.40024238410956
20
-8.5413312423793251
10
530.90024238410956
20
-8.5413312423792966
42
-0.41421356237309503
10
531.65024238410967
20
-9.2913312423793251
0
LWPOLYLINE
5
137
100
AcDbEntity
8
0
100
AcDbPolyline
90
8
70
1
43
0.0
10
549.95024238410963
20
-22.541331242379329
10
537.45024238410963
20
-22.541331242379353
42
-0.41421356237309503
10
536.70024238410963
20
-21.791331242379325
10
536.70024238410963
20
-9.2913312423793251
42
-0.41421356237309503
10
537.45024238410963
20
-8.5413312423793251
10
549.95024238410963
20
-8.5413312423792966
42
-0.41421356237309503
10
550.70024238410963
20
-9.2913312423793251
10
550.70024238410963
20
-21.791331242379325
42
-0.41421356237309503
0
LWPOLYLINE
5
138
100
AcDbEntity
8
0
100
AcDbPolyline
90
8
70
1
43
0.0
10
574.80024238410965
20
-21.791331242379325
10
574.80024238410965
20
-9.2913312423793251
42
-0.41421356237309503
10
575.55024238410965
20
-8.5413312423793251
10
588.05024238410965
20
-8.5413312423792966
42
-0.41421356237309503
10
588.80024238410965
20
-9.2913312423793251
10
588.80024238410965
20
-21.791331242379325
42
-0.41421356237309503
10
588.05024238410965
20
-22.541331242379329
10
575.55024238410965
20
-22.541331242379353
42
-0.41421356237309503
0
LWPOLYLINE
5
139
100
AcDbEntity
8
0
100
AcDbPolyline
90
8
70
1
43
0.0
10
664.2502423841097
20
-8.5413312423794387
42
-0.41421356237309503
10
665.00024238410958
20
-9.2913312423793251
10
665.0002423841097
20
-21.791331242379325
42
-0.41421356237309503
10
664.2502423841097
20
-22.541331242379329
10
651.7502423841097
20
-22.541331242379353
42
-0.41421356237309503
10
651.0002423841097
20
-21.791331242379325
10
651.0002423841097
20
-9.2913312423793251
42
-0.41421356237309503
10
651.7502423841097
20
-8.5413312423793251
0
LWPOLYLINE
5
140
100
AcDbEntity
8
0
100
AcDbPolyline
90
8
70
1
43
0.0
10
612.90024238410967
20
-21.791331242379325
10
612.90024238410967
20
-9.2913312423793251
42
-0.41421356237309503
10
613.65024238410967
20
-8.5413312423793251
10
626.15024238410967
20
-8.5413312423793677
42
-0.41421356237309503
10
626.90024238410967
20
-9.2913312423793251
10
626.90024238410967
20
-21.791331242379325
42
-0.41421356237309503
10
626.15024238410967
20
-22.541331242379329
10
613.65024238410967
20
-22.541331242379353
42
-0.41421356237309503
0
LWPOLYLINE
5
141
100
AcDbEntity
8
0
100
AcDbPolyline
90
8
70
1
43
0.0
10
631.95024238410963
20
-9.2913312423793251
42
-0.41421356237309503
10
632.70024238410963
20
-8.5413312423793251
10
645.20024238410974
20
-8.5413312423794387
42
-0.41421356237309503
10
645.95024238410952
20
-9.2913312423793251
10
645.95024238410974
20
-21.791331242379325
42
-0.41421356237309503
10
645.20024238410974
20
-22.541331242379329
10
632.70024238410963
20
-22.541331242379282
42
-0.41421356237309503
10
631.95024238410963
20
-21.791331242379325
0
LWPOLYLINE
5
142
100
AcDbEntity
8
0
100
AcDbPolyline
90
8
70
1
43
0.0
10
593.85024238410961
20
-21.791331242379325
10
593.85024238410961
20
-9.2913312423793251
42
-0.41421356237309503
10
594.60024238410961
20
-8.5413312423793251
10
607.10024238410961
20
-8.5413312423793677
42
-0.41421356237309503
10
607.85024238410961
20
-9.2913312423793251
10
607.85024238410972
20
-21.791331242379325
42
-0.41421356237309503
10
607.10024238410961
20
-22.541331242379329
10
594.60024238410961
20
-22.541331242379353
42
-0.41421356237309503
0
LWPOLYLINE
5
143
100
AcDbEntity
8
0
100
AcDbPolyline
90
8
70
1
43
0.0
10
684.05024238410977
20
-21.791331242379325
42
-0.41421356237309503
10
683.30024238410965
20
-22.541331242379329
10
670.80024238410965
20
-22.541331242379353
42
-0.41421356237309503
10
670.05024238410965
20
-21.791331242379325
10
670.05024238410965
20
-9.2913312423793251
42
-0.41421356237309503
10
670.80024238410965
20
-8.5413312423793251
10
683.30024238410965
20
-8.5413312423794387
42
-0.41421356237309503
10
684.05024238410965
20
-9.2913312423793251
0
LWPOLYLINE
5
144
100
AcDbEntity
8
0
100
AcDbPolyline
90
8
70
1
43
0.0
10
436.40024238410956
20
-40.841331242379333
10
436.40024238410956
20
-28.341331242379329
42
0.41421356237309503
10
435.65024238410962
20
-27.591331242379326
10
423.15024238410962
20
-27.591331242379326
42
0.41421356237309503
10
422.40024238410962
20
-28.341331242379329
10
422.40024238410962
20
-40.841331242379333
42
0.41421356237309503
10
423.15024238410962
20
-41.591331242379326
10
435.65024238410962
20
-41.591331242379326
42
0.41421356237309503
0
LWPOLYLINE
5
145
100
AcDbEntity
8
0
100
AcDbPolyline
90
8
70
1
43
0.0
10
702.35024238410972
20
-22.541331242379329
10
689.85024238410972
20
-22.541331242379353
42
-0.41421356237309503
10
689.10024238410972
20
-21.791331242379325
10
689.10024238410972
20
-9.2913312423793251
42
-0.41421356237309503
10
689.85024238410972
20
-8.5413312423793251
10
702.35024238410972
20
-8.5413312423794387
42
-0.41421356237309503
10
703.10024238410961
20
-9.2913312423793251
10
703.10024238410972
20
-21.791331242379325
42
-0.41421356237309503
0
LWPOLYLINE
5
146
100
AcDbEntity
8
0
100
AcDbPolyline
90
40
70
1
43
0.0
10
498.00893380768747
20
33.35866875762072
10
429.79200096053216
20
33.358668757620734
42
-0.55007404733418785
10
428.88759200681943
20
34.785335424287368
42
1.5774574774057106
10
423.91334276139952
20
34.78533542428724
42
-0.55007404733412779
10
423.00893380768753
20
33.358668757620727
10
418.40046738410945
20
33.358668757620727
42
0.41421356237312884
10
417.40046738410939
20
32.358668757620734
10
417.40046738410939
20
-63.440661242379271
42
0.41421356237315748
10
418.40046738410945
20
-64.440661242379221
10
423.00893380768753
20
-64.440661242379377
42
-0.55007404733432863
10
423.91334276140014
20
-65.867327909046026
42
1.5774574774056456
10
428.88759200681903
20
-65.867327909046168
42
-0.55007404733401344
10
429.79200096053216
20
-64.440661242379292
10
498.00893380768747
20
-64.440661242379306
42
-0.55007404733418286
10
498.91334276140003
20
-65.867327909046026
42
1.577457477405668
10
503.88759200681932
20
-65.867327909046026
42
-0.55007404733412169
10
504.79200096053194
20
-64.440661242379292
10
620.70828380768739
20
-64.440661242379292
42
-0.5500740473341571
10
621.6126927613999
20
-65.867327909045997
42
1.5774574774057215
10
626.58694200681953
20
-65.867327909045997
42
-0.55007404733411902
10
627.49135096053215
20
-64.440661242379292
10
695.70828380768739
20
-64.440661242379292
42
-0.55007404733415999
10
696.61269276140001
20
-65.867327909046026
42
1.5774574774056866
10
701.58694200681964
20
-65.867327909046111
42
-0.55007404733427567
10
702.49135096053215
20
-64.440661242379321
10
707.09981738410977
20
-64.440661242379335
42
0.41421356237313928
10
708.09981738411
20
-63.440661242379321
10
708.09981738410988
20
32.358668757620691
42
0.41421356237292073
10
707.09981738410977
20
33.358668757620748
10
702.4913509605318
20
33.358668757620727
42
-0.55007404733415999
10
701.58694200681919
20
34.785335424287453
42
1.5774574774056704
10
696.61269276140024
20
34.785335424287517
42
-0.55007404733420628
10
695.70828380768739
20
33.358668757620691
10
627.49135096053215
20
33.358668757620656
42
-0.55007404733415222
10
626.58694200681953
20
34.785335424287346
42
1.5774574774057772
10
621.6126927613999
20
34.785335424287354
42
-0.55007404733418486
10
620.70828380768739
20
33.358668757620705
10
504.79200096053194
20
33.358668757620677
42
-0.55007404733412169
10
503.88759200681932
20
34.785335424287439
42
1.5774574774056891
10
498.91334276140003
20
34.785335424287418
42
-0.55007404733422505
0
CIRCLE
5
147
100
AcDbEntity
8
0
100
AcDbCircle
10
426.40046738410945
20
35.958668757620757
30
0
40
1.3500000000000734
210
0
220
0
230
1
0
CIRCLE
5
148
100
AcDbEntity
8
0
100
AcDbCircle
10
426.40046738410945
20
-67.040661242379272
30
0
40
1.3500000000000734
210
0
220
0
230
1
0
CIRCLE
5
149
100
AcDbEntity
8
0
100
AcDbCircle
10
501.40046738410973
20
-67.040661242379272
30
0
40
1.3499999999999623
210
0
220
0
230
1
0
CIRCLE
5
150
100
AcDbEntity
8
0
100
AcDbCircle
10
624.09981738410977
20
-67.040661242379286
30
0
40
1.3500000000000181
210
0
220
0
230
1
0
CIRCLE
5
151
100
AcDbEntity
8
0
100
AcDbCircle
10
699.09981738410977
20
-67.040661242379301
30
0
40
1.3500000000000181
210
0
220
0
230
1
0
CIRCLE
5
152
100
AcDbEntity
8
0
100
AcDbCircle
10
699.09981738410977
20
35.958668757620714
30
0
40
1.3500000000000181
210
0
220
0
230
1
0
CIRCLE
5
153
100
AcDbEntity
8
0
100
AcDbCircle
10
624.09981738410977
20
35.958668757620728
30
0
40
1.3500000000000181
210
0
220
0
230
1
0
CIRCLE
5
154
100
AcDbEntity
8
0
100
AcDbCircle
10
501.40046738410973
20
35.958668757620742
30
0
40
1.3499999999999623
210
0
220
0
230
1
0
LWPOLYLINE
5
155
100
AcDbEntity
8
0
100
AcDbPolyline
90
8
70
1
43
0.0
10
441.45024238410963
20
-41.091331242379326
10
441.45024238410969
20
-28.091331242379329
42
-0.41421356237309503
10
441.95024238410963
20
-27.591331242379333
10
454.95024238410963
20
-27.591331242379358
42
-0.41421356237309503
10
455.45024238410963
20
-28.091331242379329
10
455.45024238410963
20
-41.091331242379326
42
-0.41421356237309503
10
454.95024238410963
20
-41.591331242379326
10
441.95024238410963
20
-41.591331242379368
42
-0.41421356237309503
0
LWPOLYLINE
5
156
100
AcDbEntity
8
0
100
AcDbPolyline
90
8
70
1
43
0.0
10
460.50024238410964
20
-41.091331242379326
10
460.50024238410964
20
-28.091331242379329
42
-0.41421356237309503
10
461.00024238410958
20
-27.591331242379333
10
474.00024238410964
20
-27.591331242379358
42
-0.41421356237309503
10
474.50024238410958
20
-28.091331242379329
10
474.50024238410958
20
-41.091331242379326
42
-0.41421356237309503
10
474.00024238410964
20
-41.591331242379326
10
461.00024238410958
20
-41.591331242379297
42
-0.41421356237309503
0
LWPOLYLINE
5
157
100
AcDbEntity
8
0
100
AcDbPolyline
90
8
70
1
43
0.0
10
479.55024238410965
20
-41.091331242379326
10
479.55024238410965
20
-28.091331242379329
42
-0.41421356237309503
10
480.05024238410959
20
-27.591331242379333
10
493.05024238410965
20
-27.591331242379358
42
-0.41421356237309503
10
493.55024238410965
20
-28.091331242379329
10
493.55024238410965
20
-41.091331242379326
42
-0.41421356237313667
10
493.05024238410959
20
-41.591331242379326
10
480.05024238410959
20
-41.591331242379297
42
-0.41421356237309503
0
LWPOLYLINE
5
158
100
AcDbEntity
8
0
100
AcDbPolyline
90
8
70
1
43
0.0
10
498.60024238410966
20
-41.091331242379326
10
498.60024238410966
20
-28.091331242379329
42
-0.41421356237309503
10
499.10024238410961
20
-27.591331242379333
10
512.10024238410961
20
-27.591331242379358
42
-0.41421356237309503
10
512.60024238410961
20
-28.091331242379329
10
512.60024238410961
20
-41.091331242379326
42
-0.41421356237309503
10
512.10024238410961
20
-41.591331242379326
10
499.10024238410961
20
-41.591331242379297
42
-0.41421356237309503
0
LWPOLYLINE
5
159
100
AcDbEntity
8
0
100
AcDbPolyline
90
8
70
1
43
0.0
10
517.65024238410956
20
-41.091331242379326
10
517.65024238410967
20
-28.091331242379329
42
-0.41421356237309503
10
518.15024238410967
20
-27.591331242379333
10
531.15024238410967
20
-27.591331242379358
42
-0.41421356237309503
10
531.65024238410967
20
-28.091331242379329
10
531.65024238410967
20
-41.091331242379326
42
-0.41421356237309503
10
531.15024238410967
20
-41.591331242379326
10
518.15024238410967
20
-41.591331242379368
42
-0.41421356237309503
0
LWPOLYLINE
5
160
100
AcDbEntity
8
0
100
AcDbPolyline
90
8
70
1
43
0.0
10
536.70024238410963
20
-41.091331242379326
10
536.70024238410963
20
-28.091331242379329
42
-0.41421356237309503
10
537.20024238410963
20
-27.591331242379333
10
550.20024238410963
20
-27.591331242379287
42
-0.41421356237309503
10
550.70024238410963
20
-28.091331242379329
10
550.70024238410963
20
-41.091331242379326
42
-0.41421356237309503
10
550.20024238410963
20
-41.591331242379326
10
537.20024238410963
20
-41.591331242379368
42
-0.41421356237309503
0
LWPOLYLINE
5
161
100
AcDbEntity
8
0
100
AcDbPolyline
90
8
70
1
43
0.0
10
555.75024238410958
20
-41.091331242379326
10
555.7502423841097
20
-28.091331242379329
42
-0.41421356237309503
10
556.2502423841097
20
-27.591331242379333
10
569.25024238410958
20
-27.591331242379287
42
-0.41421356237309503
10
569.7502423841097
20
-28.091331242379329
10
569.75024238410958
20
-41.091331242379326
42
-0.41421356237309503
10
569.25024238410958
20
-41.591331242379326
10
556.2502423841097
20
-41.591331242379368
42
-0.41421356237309503
0
LWPOLYLINE
5
162
100
AcDbEntity
8
0
100
AcDbPolyline
90
8
70
1
43
0.0
10
574.80024238410965
20
-41.091331242379326
10
574.80024238410965
20
-28.091331242379329
42
-0.41421356237309503
10
575.30024238410965
20
-27.591331242379333
10
588.30024238410965
20
-27.591331242379287
42
-0.41421356237309503
10
588.80024238410965
20
-28.091331242379329
10
588.80024238410965
20
-41.091331242379326
42
-0.41421356237309503
10
588.30024238410965
20
-41.591331242379326
10
575.30024238410965
20
-41.591331242379368
42
-0.41421356237309503
0
LWPOLYLINE
5
163
100
AcDbEntity
8
0
100
AcDbPolyline
90
8
70
1
43
0.0
10
593.85024238410961
20
-41.091331242379326
10
593.85024238410961
20
-28.091331242379329
42
-0.41421356237309503
10
594.35024238410961
20
-27.591331242379333
10
607.35024238410961
20
-27.591331242379287
42
-0.41421356237309503
10
607.85024238410961
20
-28.091331242379329
10
607.85024238410961
20
-41.091331242379326
42
-0.41421356237309503
10
607.35024238410961
20
-41.591331242379326
10
594.35024238410961
20
-41.591331242379297
42
-0.41421356237309503
0
LWPOLYLINE
5
164
100
AcDbEntity
8
0
100
AcDbPolyline
90
8
70
1
43
0.0
10
612.90024238410967
20
-41.091331242379326
10
612.90024238410967
20
-28.091331242379329
42
-0.41421356237309503
10
613.40024238410956
20
-27.591331242379333
10
626.40024238410967
20
-27.591331242379287
42
-0.41421356237309503
10
626.90024238410967
20
-28.091331242379329
10
626.90024238410967
20
-41.091331242379326
42
-0.41421356237313667
10
626.40024238410956
20
-41.591331242379326
10
613.40024238410956
20
-41.591331242379297
42
-0.41421356237309503
0
LWPOLYLINE
5
165
100
AcDbEntity
8
0
100
AcDbPolyline
90
8
70
1
43
0.0
10
631.95024238410963
20
-41.091331242379326
10
631.95024238410963
20
-28.091331242379329
42
-0.41421356237309503
10
632.45024238410963
20
-27.591331242379333
10
645.45024238410963
20
-27.591331242379358
42
-0.41421356237309503
10
645.95024238410952
20
-28.091331242379329
10
645.95024238410952
20
-41.091331242379326
42
-0.41421356237309503
10
645.45024238410963
20
-41.591331242379326
10
632.45024238410963
20
-41.591331242379297
42
-0.41421356237309503
0
LWPOLYLINE
5
166
100
AcDbEntity
8
0
100
AcDbPolyline
90
8
70
1
43
0.0
10
651.0002423841097
20
-41.091331242379326
10
651.0002423841097
20
-28.091331242379329
42
-0.41421356237309503
10
651.5002423841097
20
-27.591331242379333
10
664.50024238410958
20
-27.591331242379358
42
-0.41421356237309503
10
665.00024238410958
20
-28.091331242379329
10
665.00024238410958
20
-41.091331242379326
42
-0.41421356237309503
10
664.50024238410958
20
-41.591331242379326
10
651.5002423841097
20
-41.591331242379297
42
-0.41421356237309503
0
LWPOLYLINE
5
167
100
AcDbEntity
8
0
100
AcDbPolyline
90
8
70
1
43
0.0
10
670.05024238410965
20
-41.091331242379326
10
670.05024238410965
20
-28.091331242379329
42
-0.41421356237309503
10
670.55024238410965
20
-27.591331242379333
10
683.55024238410965
20
-27.591331242379358
42
-0.41421356237309503
10
684.05024238410965
20
-28.091331242379329
10
684.05024238410965
20
-41.091331242379326
42
-0.41421356237309503
10
683.55024238410965
20
-41.591331242379326
10
670.55024238410965
20
-41.591331242379297
42
-0.41421356237309503
0
LWPOLYLINE
5
168
100
AcDbEntity
8
0
100
AcDbPolyline
90
8
70
1
43
0.0
10
689.10024238410972
20
-41.091331242379326
10
689.10024238410972
20
-28.091331242379329
42
-0.41421356237309503
10
689.60024238410961
20
-27.591331242379333
10
702.60024238410961
20
-27.591331242379358
42
-0.41421356237309503
10
703.10024238410961
20
-28.091331242379329
10
703.10024238410961
20
-41.091331242379326
42
-0.41421356237309503
10
702.60024238410961
20
-41.591331242379326
10
689.60024238410961
20
-41.591331242379297
42
-0.41421356237309503
0
LWPOLYLINE
5
169
100
AcDbEntity
8
0
100
AcDbPolyline
90
8
70
1
43
0.0
10
427.16274238410961
20
-60.141331242379309
10
427.16274238410966
20
-47.141331242379309
42
-0.41421356237309503
10
427.66274238410966
20
-46.641331242379309
10
440.66274238410961
20
-46.641331242379266
42
-0.41421356237309503
10
441.16274238410966
20
-47.141331242379309
10
441.16274238410961
20
-60.141331242379309
42
-0.41421356237309503
10
440.66274238410961
20
-60.641331242379302
10
427.66274238410966
20
-60.641331242379351
42
-0.41421356237309503
0
LWPOLYLINE
5
170
100
AcDbEntity
8
0
100
AcDbPolyline
90
8
70
1
43
0.0
10
453.35649238410963
20
-60.141331242379309
10
453.35649238410963
20
-47.141331242379309
42
-0.41421356237309503
10
453.85649238410963
20
-46.641331242379309
10
466.85649238410963
20
-46.641331242379266
42
-0.41421356237309503
10
467.35649238410963
20
-47.141331242379309
10
467.35649238410957
20
-60.141331242379309
42
-0.41421356237309503
10
466.85649238410963
20
-60.641331242379323
10
453.85649238410963
20
-60.64133124237928
42
-0.41421356237309503
0
LWPOLYLINE
5
171
100
AcDbEntity
8
0
100
AcDbPolyline
90
8
70
1
43
0.0
10
477.16899238410963
20
-60.141331242379309
10
477.16899238410969
20
-47.141331242379309
42
-0.41421356237309503
10
477.66899238410963
20
-46.641331242379309
10
490.66899238410963
20
-46.641331242379266
42
-0.41421356237309503
10
491.16899238410963
20
-47.141331242379309
10
491.16899238410963
20
-60.141331242379309
42
-0.41421356237309503
10
490.66899238410963
20
-60.641331242379323
10
477.66899238410963
20
-60.641331242379351
42
-0.41421356237309503
0
LWPOLYLINE
5
172
100
AcDbEntity
8
0
100
AcDbPolyline
90
8
70
1
43
0.0
10
517.65024238410956
20
-60.141331242379309
10
517.65024238410967
20
-47.141331242379309
42
-0.41421356237309503
10
518.15024238410967
20
-46.641331242379309
10
531.15024238410967
20
-46.641331242379337
42
-0.41421356237309503
10
531.65024238410967
20
-47.141331242379309
10
531.65024238410967
20
-60.141331242379309
42
-0.41421356237309503
10
531.15024238410967
20
-60.641331242379302
10
518.15024238410967
20
-60.641331242379351
42
-0.41421356237309503
0
LWPOLYLINE
5
173
100
AcDbEntity
8
0
100
AcDbPolyline
90
8
70
1
43
0.0
10
555.75024238410958
20
-60.141331242379309
10
555.7502423841097
20
-47.141331242379309
42
-0.41421356237309503
10
556.2502423841097
20
-46.641331242379309
10
569.25024238410958
20
-46.641331242379266
42
-0.41421356237309503
10
569.7502423841097
20
-47.141331242379309
10
569.7502423841097
20
-60.141331242379309
42
-0.41421356237309503
10
569.25024238410958
20
-60.641331242379323
10
556.2502423841097
20
-60.641331242379351
42
-0.41421356237309503
0
LWPOLYLINE
5
174
100
AcDbEntity
8
0
100
AcDbPolyline
90
8
70
1
43
0.0
10
593.85024238410961
20
-60.141331242379309
10
593.85024238410961
20
-47.141331242379309
42
-0.41421356237309503
10
594.35024238410961
20
-46.641331242379309
10
607.35024238410961
20
-46.641331242379266
42
-0.41421356237309503
10
607.85024238410961
20
-47.141331242379309
10
607.85024238410961
20
-60.141331242379309
42
-0.41421356237309503
10
607.35024238410961
20
-60.641331242379302
10
594.35024238410961
20
-60.64133124237928
42
-0.41421356237309503
0
LWPOLYLINE
5
175
100
AcDbEntity
8
0
100
AcDbPolyline
90
8
70
1
43
0.0
10
634.33149238410965
20
-60.141331242379309
10
634.33149238410965
20
-47.141331242379309
42
-0.41421356237309503
10
634.83149238410965
20
-46.641331242379309
10
647.83149238410965
20
-46.641331242379337
42
-0.41421356237309503
10
648.33149238410965
20
-47.141331242379309
10
648.33149238410965
20
-60.141331242379309
42
-0.41421356237309503
10
647.83149238410965
20
-60.641331242379302
10
634.83149238410965
20
-60.641331242379351
42
-0.41421356237309503
0
LWPOLYLINE
5
176
100
AcDbEntity
8
0
100
AcDbPolyline
90
8
70
1
43
0.0
10
658.14399238410965
20
-60.141331242379309
10
658.14399238410965
20
-47.141331242379309
42
-0.41421356237309503
10
658.64399238410965
20
-46.641331242379309
10
671.64399238410965
20
-46.641331242379337
42
-0.41421356237309503
10
672.14399238410965
20
-47.141331242379309
10
672.14399238410965
20
-60.141331242379309
42
-0.41421356237309503
10
671.64399238410965
20
-60.641331242379323
10
658.64399238410965
20
-60.64133124237928
42
-0.41421356237309503
0
LWPOLYLINE
5
177
100
AcDbEntity
8
0
100
AcDbPolyline
90
8
70
1
43
0.0
10
684.33774238410956
20
-60.141331242379309
10
684.33774238410956
20
-47.141331242379309
42
-0.41421356237309503
10
684.83774238410956
20
-46.641331242379309
10
697.83774238410956
20
-46.641331242379195
42
-0.41421356237309503
10
698.33774238410967
20
-47.141331242379309
10
698.33774238410956
20
-60.141331242379309
42
-0.41421356237309503
10
697.83774238410956
20
-60.641331242379302
10
684.83774238410956
20
-60.64133124237928
42
-0.41421356237309503
0
LWPOLYLINE
5
178
100
AcDbEntity
8
0
100
AcDbPolyline
90
8
70
1
43
0.0
10
501.60024238410972
20
-60.141331242379309
10
501.60024238410961
20
-46.141331242379295
42
-0.41421356237309503
10
502.10024238410961
20
-45.641331242379295
10
509.10024238410972
20
-45.641331242379309
42
-0.41421356237309503
10
509.60024238410966
20
-46.14133124237928
10
509.60024238410966
20
-60.141331242379238
42
-0.41421356237313667
10
509.10024238410961
20
-60.641331242379252
10
502.10024238410966
20
-60.641331242379344
42
-0.41421356237313145
0
LWPOLYLINE
5
179
100
AcDbEntity
8
0
100
AcDbPolyline
90
8
70
1
43
0.0
10
540.20024238410974
20
-60.141331242379309
10
540.20024238410974
20
-46.141331242379316
42
-0.41421356237313667
10
540.70024238410974
20
-45.641331242379323
10
546.70024238410963
20
-45.641331242379344
42
-0.41421356237309503
10
547.20024238410963
20
-46.141331242379316
10
547.20024238410963
20
-60.141331242379309
42
-0.41421356237309503
10
546.70024238410963
20
-60.641331242379309
10
540.70024238410963
20
-60.641331242379344
42
-0.41421356237313145
0
LWPOLYLINE
5
180
100
AcDbEntity
8
0
100
AcDbPolyline
90
8
70
1
43
0.0
10
585.30024238410965
20
-60.141331242379309
10
585.30024238410965
20
-46.141331242379316
42
0.41421356237301177
10
584.80024238410988
20
-45.64133124237933
10
578.80024238410965
20
-45.641331242379323
42
0.41421356237309503
10
578.30024238410965
20
-46.141331242379316
10
578.30024238410965
20
-60.141331242379309
42
0.41421356237313145
10
578.80024238410965
20
-60.641331242379344
10
584.80024238410988
20
-60.64133124237933
42
0.41421356237301177
0
LWPOLYLINE
5
181
100
AcDbEntity
8
0
100
AcDbPolyline
90
8
70
1
43
0.0
10
616.40024238410967
20
-60.141331242379309
10
616.40024238410967
20
-46.141331242379316
42
-0.4142135623730534
10
616.90024238410956
20
-45.641331242379323
10
622.90024238410979
20
-45.641331242379344
42
-0.41421356237301177
10
623.40024238410956
20
-46.141331242379316
10
623.40024238410956
20
-60.141331242379309
42
-0.41421356237309503
10
622.90024238410967
20
-60.641331242379309
10
616.90024238410967
20
-60.641331242379273
42
-0.41421356237325629
0
ENDSEC
0
SECTION
2
OBJECTS
0
DICTIONARY
5
C
100
AcDbDictionary
3
ACAD_GROUP
350
D
3
ACAD_MLINESTYLE
350
17
0
DICTIONARY
5
D
100
AcDbDictionary
0
DICTIONARY
5
1A
330
C
100
AcDbDictionary
0
DICTIONARY
5
17
100
AcDbDictionary
0
ENDSEC
0
EOF
