0
SECTION
2
HEADER
9
$INSUNITS
70
4
9
$ACADVER
1
AC1014
9
$HANDSEED
5
FFFF
0
ENDSEC
0
SECTION
2
TABLES
0
TABLE
2
VPORT
5
8
100
AcDbSymbolTable
0
ENDTAB
0
TABLE
2
LTYPE
5
5
100
AcDbSymbolTable
0
LTYPE
5
14
100
AcDbSymbolTableRecord
100
AcDbLinetypeTableRecord
2
BYBLOCK
70
0
0
LTYPE
5
15
100
AcDbSymbolTableRecord
100
AcDbLinetypeTableRecord
2
BYLAYER
70
0
0
ENDTAB
0
TABLE
2
LAYER
5
2
100
AcDbSymbolTable
70
2
0
LAYER
5
50
100
AcDbSymbolTableRecord
100
AcDbLayerTableRecord
2
0
70
0
6
CONTINUOUS
0
ENDTAB
0
TABLE
2
STYLE
5
3
100
AcDbSymbolTable
70
1
0
STYLE
5
11
100
AcDbSymbolTableRecord
100
AcDbTextStyleTableRecord
2
STANDARD
70
0
0
ENDTAB
0
TABLE
2
VIEW
5
6
100
AcDbSymbolTable
70
0
0
ENDTAB
0
TABLE
2
UCS
5
7
100
AcDbSymbolTable
70
0
0
ENDTAB
0
TABLE
2
APPID
5
9
100
AcDbSymbolTable
70
2
0
APPID
5
12
100
AcDbSymbolTableRecord
100
AcDbRegAppTableRecord
2
ACAD
70
0
0
ENDTAB
0
TABLE
2
DIMSTYLE
5
A
100
AcDbSymbolTable
70
1
0
ENDTAB
0
TABLE
2
BLOCK_RECORD
5
1
100
AcDbSymbolTable
70
1
0
BLOCK_RECORD
5
1F
100
AcDbSymbolTableRecord
100
AcDbBlockTableRecord
2
*MODEL_SPACE
0
BLOCK_RECORD
5
1B
100
AcDbSymbolTableRecord
100
AcDbBlockTableRecord
2
*PAPER_SPACE
0
ENDTAB
0
ENDSEC
0
SECTION
2
BLOCKS
0
BLOCK
5
20
100
AcDbEntity
100
AcDbBlockBegin
2
*MODEL_SPACE
0
ENDBLK
5
21
100
AcDbEntity
100
AcDbBlockEnd
0
BLOCK
5
1C
100
AcDbEntity
100
AcDbBlockBegin
2
*PAPER_SPACE
0
ENDBLK
5
1D
100
AcDbEntity
100
AcDbBlockEnd
0
ENDSEC
0
SECTION
2
ENTITIES
0
LWPOLYLINE
5
100
100
AcDbEntity
8
0
100
AcDbPolyline
90
8
70
1
43
0.0
10
-112.51830035951406
20
-37.065544873790316
42
-0.41421356237309503
10
-112.01830035951406
20
-36.56554487379033
10
-99.018300359514086
20
-36.565544873790316
42
-0.41421356237309503
10
-98.518300359514086
20
-37.065544873790316
10
-98.518300359514086
20
-50.065544873790344
42
-0.41421356237309503
10
-99.018300359514086
20
-50.565544873790351
10
-112.01830035951406
20
-50.565544873790351
42
-0.41421356237309503
10
-112.51830035951407
20
-50.065544873790344
0
LWPOLYLINE
5
101
100
AcDbEntity
8
0
100
AcDbPolyline
90
8
70
1
43
0.0
10
-35.81830035951409
20
-36.565544873790344
10
-22.818300359514083
20
-36.565544873790365
42
-0.41421356237309503
10
-22.318300359514112
20
-37.065544873790337
10
-22.318300359514076
20
-50.065544873790344
42
-0.41421356237309503
10
-22.818300359514083
20
-50.565544873790351
10
-35.81830035951409
20
-50.565544873790351
42
-0.41421356237309503
10
-36.318300359514097
20
-50.065544873790344
10
-36.318300359514083
20
-37.065544873790337
42
-0.41421356237309503
0
LWPOLYLINE
5
102
100
AcDbEntity
8
0
100
AcDbPolyline
90
8
70
1
43
0.0
10
-118.06830035951407
20
-36.565544873790316
42
-0.41421356237309503
10
-117.56830035951407
20
-37.065544873790316
10
-117.56830035951407
20
-50.065544873790344
42
-0.41421356237309503
10
-118.06830035951407
20
-50.565544873790351
10
-131.06830035951407
20
-50.565544873790316
42
-0.41421356237309503
10
-131.56830035951407
20
-50.065544873790309
10
-131.56830035951407
20
-37.065544873790316
42
-0.41421356237309503
10
-131.06830035951407
20
-36.56554487379033
0
LWPOLYLINE
5
103
100
AcDbEntity
8
0
100
AcDbPolyline
90
8
70
1
43
0.0
10
-79.968300359514075
20
-50.565544873790351
10
-92.968300359514089
20
-50.565544873790351
42
-0.41421356237309503
10
-93.468300359514103
20
-50.065544873790344
10
-93.468300359514075
20
-37.065544873790316
42
-0.41421356237309503
10
-92.968300359514089
20
-36.56554487379033
10
-79.968300359514075
20
-36.565544873790344
42
-0.41421356237309503
10
-79.468300359514103
20
-37.065544873790316
10
-79.46830035951406
20
-50.065544873790344
42
-0.41421356237309503
0
LWPOLYLINE
5
104
100
AcDbEntity
8
0
100
AcDbPolyline
90
8
70
1
43
0.0
10
-41.368300359514087
20
-37.065544873790337
10
-41.368300359514087
20
-50.065544873790344
42
-0.41421356237309503
10
-41.868300359514095
20
-50.565544873790351
10
-54.868300359514095
20
-50.565544873790351
42
-0.41421356237309503
10
-55.368300359514102
20
-50.065544873790344
10
-55.36830035951408
20
-37.065544873790316
42
-0.41421356237309503
10
-54.868300359514095
20
-36.56554487379033
10
-41.868300359514095
20
-36.56554487379033
42
-0.41421356237309503
0
LWPOLYLINE
5
105
100
AcDbEntity
8
0
100
AcDbPolyline
90
8
70
1
43
0.0
10
-60.418300359514092
20
-50.065544873790344
42
-0.41421356237309503
10
-60.918300359514099
20
-50.565544873790351
10
-73.918300359514106
20
-50.565544873790316
42
-0.41421356237309503
10
-74.418300359514078
20
-50.065544873790344
10
-74.418300359514092
20
-37.065544873790316
42
-0.41421356237309503
10
-73.918300359514106
20
-36.56554487379033
10
-60.918300359514099
20
-36.565544873790316
42
-0.41421356237309503
10
-60.418300359514092
20
-37.065544873790316
0
LWPOLYLINE
5
106
100
AcDbEntity
8
0
100
AcDbPolyline
90
8
70
1
43
0.0
10
-150.61830035951405
20
-37.065544873790316
42
-0.41421356237309503
10
-150.11830035951405
20
-36.56554487379033
10
-137.11830035951408
20
-36.565544873790316
42
-0.41421356237309503
10
-136.61830035951408
20
-37.065544873790316
10
-136.61830035951408
20
-50.065544873790309
42
-0.41421356237309503
10
-137.11830035951408
20
-50.565544873790316
10
-150.11830035951405
20
-50.565544873790316
42
-0.41421356237309503
10
-150.61830035951405
20
-50.065544873790309
0
LWPOLYLINE
5
107
100
AcDbEntity
8
0
100
AcDbPolyline
90
8
70
1
43
0.0
10
-156.16830035951406
20
-36.565544873790316
42
-0.41421356237309503
10
-155.66830035951406
20
-37.065544873790316
10
-155.66830035951406
20
-50.065544873790309
42
-0.41421356237309503
10
-156.16830035951406
20
-50.565544873790316
10
-169.16830035951406
20
-50.565544873790316
42
-0.41421356237309503
10
-169.66830035951406
20
-50.065544873790309
10
-169.66830035951403
20
-37.065544873790316
42
-0.41421356237309503
10
-169.16830035951406
20
-36.56554487379033
0
LWPOLYLINE
5
108
100
AcDbEntity
8
0
100
AcDbPolyline
90
8
70
1
43
0.0
10
-175.21830035951407
20
-36.565544873790316
42
-0.41421356237309503
10
-174.71830035951405
20
-37.065544873790316
10
-174.71830035951405
20
-50.065544873790309
42
-0.41421356237309503
10
-175.21830035951407
20
-50.565544873790316
10
-188.21830035951407
20
-50.565544873790316
42
-0.41421356237309503
10
-188.71830035951407
20
-50.065544873790309
10
-188.71830035951405
20
-37.065544873790316
42
-0.41421356237309503
10
-188.21830035951407
20
-36.56554487379033
0
LWPOLYLINE
5
109
100
AcDbEntity
8
0
100
AcDbPolyline
90
8
70
1
43
0.0
10
-194.26830035951409
20
-36.565544873790316
42
-0.41421356237309503
10
-193.76830035951406
20
-37.065544873790316
10
-193.76830035951406
20
-50.065544873790309
42
-0.41421356237309503
10
-194.26830035951409
20
-50.565544873790316
10
-207.26830035951406
20
-50.565544873790316
42
-0.41421356237309503
10
-207.76830035951406
20
-50.065544873790309
10
-207.76830035951406
20
-37.065544873790301
42
-0.41421356237309503
10
-207.26830035951406
20
-36.565544873790316
0
LWPOLYLINE
5
110
100
AcDbEntity
8
0
100
AcDbPolyline
90
8
70
1
43
0.0
10
-253.01205035951409
20
-50.065544873790309
10
-253.01205035951403
20
-37.065544873790301
42
-0.41421356237309503
10
-252.51205035951409
20
-36.565544873790316
10
-239.51205035951406
20
-36.565544873790294
42
-0.41421356237309503
10
-239.01205035951406
20
-37.065544873790301
10
-239.01205035951406
20
-50.065544873790309
42
-0.41421356237309503
10
-239.51205035951406
20
-50.565544873790316
10
-252.51205035951409
20
-50.565544873790316
42
-0.41421356237309503
0
LWPOLYLINE
5
111
100
AcDbEntity
8
0
100
AcDbPolyline
90
8
70
1
43
0.0
10
-213.3183003595141
20
-50.565544873790316
10
-226.3183003595141
20
-50.56554487379028
42
-0.41421356237309503
10
-226.81830035951407
20
-50.065544873790309
10
-226.81830035951407
20
-37.065544873790301
42
-0.41421356237309503
10
-226.3183003595141
20
-36.565544873790316
10
-213.3183003595141
20
-36.565544873790294
42
-0.41421356237309503
10
-212.81830035951407
20
-37.065544873790301
10
-212.81830035951407
20
-50.065544873790309
42
-0.41421356237309503
0
LWPOLYLINE
5
112
100
AcDbEntity
8
0
100
AcDbPolyline
90
8
70
1
43
0.0
10
-38.199550359514092
20
-31.515544873790358
42
-0.41421356237309503
10
-38.699550359514099
20
-31.015544873790351
10
-38.699550359514049
20
-18.015544873790343
42
-0.41421356237309503
10
-38.199550359514056
20
-17.515544873790354
10
-25.199550359514049
20
-17.515544873790372
42
-0.41421356237309503
10
-24.699550359514078
20
-18.015544873790343
10
-24.699550359514095
20
-31.015544873790351
42
-0.41421356237309503
10
-25.199550359514085
20
-31.51554487379034
0
LWPOLYLINE
5
113
100
AcDbEntity
8
0
100
AcDbPolyline
90
8
70
1
43
0.0
10
-59.630800359514062
20
-17.515544873790319
10
-46.630800359514055
20
-17.515544873790336
42
-0.41421356237309503
10
-46.130800359514048
20
-18.015544873790343
10
-46.130800359514097
20
-31.015544873790351
42
-0.41421356237309503
10
-46.63080035951409
20
-31.51554487379034
10
-59.630800359514097
20
-31.51554487379034
42
-0.41421356237309503
10
-60.130800359514105
20
-31.015544873790333
10
-60.130800359514069
20
-18.015544873790326
42
-0.41421356237309503
0
LWPOLYLINE
5
114
100
AcDbEntity
8
0
100
AcDbPolyline
90
8
70
1
43
0.0
10
-79.180800359514066
20
-18.015544873790326
42
-0.41421356237309503
10
-78.680800359514066
20
-17.515544873790336
10
-65.680800359514066
20
-17.515544873790319
42
-0.41421356237309503
10
-65.180800359514052
20
-18.015544873790326
10
-65.180800359514109
20
-31.015544873790333
42
-0.41421356237309503
10
-65.680800359514095
20
-31.515544873790322
10
-78.680800359514109
20
-31.515544873790304
42
-0.41421356237309503
10
-79.18080035951408
20
-31.015544873790333
0
LWPOLYLINE
5
115
100
AcDbEntity
8
0
100
AcDbPolyline
90
8
70
1
43
0.0
10
-160.93080035951405
20
-17.515544873790319
42
-0.41421356237309503
10
-160.43080035951405
20
-18.015544873790326
10
-160.43080035951405
20
-31.015544873790333
42
-0.41421356237309503
10
-160.93080035951405
20
-31.515544873790322
10
-173.93080035951408
20
-31.51554487379034
42
-0.41421356237309503
10
-174.43080035951408
20
-31.015544873790333
10
-174.43080035951402
20
-18.015544873790326
42
-0.41421356237309503
10
-173.93080035951408
20
-17.515544873790336
0
LWPOLYLINE
5
116
100
AcDbEntity
8
0
100
AcDbPolyline
90
8
70
1
43
0.0
10
-97.730800359514092
20
-31.51554487379034
42
-0.41421356237309503
10
-98.230800359514092
20
-31.015544873790333
10
-98.230800359514049
20
-18.015544873790326
42
-0.41421356237309503
10
-97.730800359514063
20
-17.515544873790336
10
-84.730800359514049
20
-17.515544873790354
42
-0.41421356237309503
10
-84.230800359514078
20
-18.015544873790326
10
-84.230800359514092
20
-31.015544873790333
42
-0.41421356237309503
10
-84.730800359514092
20
-31.515544873790322
0
LWPOLYLINE
5
117
100
AcDbEntity
8
0
100
AcDbPolyline
90
8
70
1
43
0.0
10
-122.83080035951407
20
-31.515544873790322
10
-135.83080035951406
20
-31.51554487379034
42
-0.41421356237309503
10
-136.33080035951406
20
-31.015544873790333
10
-136.33080035951406
20
-18.015544873790326
42
-0.41421356237309503
10
-135.83080035951406
20
-17.515544873790319
10
-122.83080035951407
20
-17.515544873790319
42
-0.41421356237309503
10
-122.33080035951406
20
-18.015544873790326
10
-122.33080035951409
20
-31.015544873790333
42
-0.41421356237309503
0
LWPOLYLINE
5
118
100
AcDbEntity
8
0
100
AcDbPolyline
90
8
70
1
43
0.0
10
-179.98080035951406
20
-31.515544873790322
10
-192.98080035951409
20
-31.51554487379034
42
-0.41421356237309503
10
-193.48080035951409
20
-31.015544873790333
10
-193.48080035951409
20
-18.015544873790326
42
-0.41421356237309503
10
-192.98080035951409
20
-17.515544873790319
10
-179.98080035951406
20
-17.515544873790319
42
-0.41421356237309503
10
-179.48080035951406
20
-18.015544873790326
10
-179.48080035951406
20
-31.015544873790333
42
-0.41421356237309503
0
LWPOLYLINE
5
119
100
AcDbEntity
8
0
100
AcDbPolyline
90
8
70
1
43
0.0
10
-116.78080035951407
20
-31.51554487379034
42
-0.41421356237309503
10
-117.28080035951407
20
-31.015544873790333
10
-117.28080035951407
20
-18.015544873790326
42
-0.41421356237309503
10
-116.78080035951407
20
-17.515544873790319
10
-103.78080035951406
20
-17.515544873790354
42
-0.41421356237309503
10
-103.28080035951409
20
-18.015544873790326
10
-103.2808003595141
20
-31.015544873790333
42
-0.41421356237309503
10
-103.7808003595141
20
-31.515544873790322
0
LWPOLYLINE
5
120
100
AcDbEntity
8
0
100
AcDbPolyline
90
8
70
1
43
0.0
10
-199.03080035951407
20
-17.515544873790301
42
-0.41421356237309503
10
-198.53080035951407
20
-18.015544873790308
10
-198.53080035951407
20
-31.015544873790315
42
-0.41421356237309503
10
-199.03080035951407
20
-31.515544873790304
10
-212.0308003595141
20
-31.515544873790322
42
-0.41421356237309503
10
-212.5308003595141
20
-31.015544873790315
10
-212.53080035951405
20
-18.015544873790308
42
-0.41421356237309503
10
-212.0308003595141
20
-17.515544873790319
0
LWPOLYLINE
5
121
100
AcDbEntity
8
0
100
AcDbPolyline
90
8
70
1
43
0.0
10
-231.08080035951406
20
-31.515544873790322
42
-0.41421356237309503
10
-231.58080035951406
20
-31.015544873790315
10
-231.58080035951406
20
-18.015544873790308
42
-0.41421356237309503
10
-231.08080035951406
20
-17.515544873790319
10
-218.08080035951406
20
-17.515544873790301
42
-0.41421356237309503
10
-217.58080035951406
20
-18.015544873790308
10
-217.58080035951409
20
-31.015544873790315
42
-0.41421356237309503
10
-218.08080035951406
20
-31.515544873790304
0
LWPOLYLINE
5
122
100
AcDbEntity
8
0
100
AcDbPolyline
90
8
70
1
43
0.0
10
-155.38080035951407
20
-18.015544873790326
42
-0.41421356237309503
10
-154.88080035951407
20
-17.515544873790336
10
-141.88080035951407
20
-17.515544873790319
42
-0.41421356237309503
10
-141.38080035951407
20
-18.015544873790326
10
-141.3808003595141
20
-31.015544873790333
42
-0.41421356237309503
10
-141.88080035951407
20
-31.515544873790322
10
-154.88080035951407
20
-31.51554487379034
42
-0.41421356237309503
10
-155.38080035951407
20
-31.015544873790333
0
LWPOLYLINE
5
123
100
AcDbEntity
8
0
100
AcDbPolyline
90
8
70
1
43
0.0
10
-88.705800359514058
20
-11.965544873790339
10
-88.705800359514058
20
1.034455126209668
42
-0.41421356237309503
10
-88.205800359514058
20
1.5344551262096751
10
-75.205800359514072
20
1.5344551262096751
42
-0.41421356237309503
10
-74.705800359514058
20
1.034455126209668
10
-74.705800359514086
20
-11.965544873790339
42
-0.41421356237309503
10
-75.205800359514072
20
-12.465544873790328
10
-88.205800359514058
20
-12.465544873790346
42
-0.41421356237309503
0
LWPOLYLINE
5
124
100
AcDbEntity
8
0
100
AcDbPolyline
90
8
70
1
43
0.0
10
-241.39330035951411
20
-31.015544873790315
42
-0.41421356237309503
10
-241.89330035951406
20
-31.515544873790304
10
-254.89330035951409
20
-31.515544873790322
42
-0.41421356237309503
10
-255.39330035951409
20
-31.015544873790315
10
-255.39330035951409
20
-18.015544873790308
42
-0.41421356237309503
10
-254.89330035951409
20
-17.515544873790319
10
-241.89330035951406
20
-17.515544873790301
42
-0.41421356237309503
10
-241.39330035951406
20
-18.015544873790308
0
LWPOLYLINE
5
125
100
AcDbEntity
8
0
100
AcDbPolyline
90
8
70
1
43
0.0
10
-107.7558003595141
20
1.034455126209668
42
-0.41421356237309503
10
-107.2558003595141
20
1.5344551262096751
10
-94.255800359514055
20
1.5344551262096395
42
-0.41421356237309503
10
-93.755800359514083
20
1.034455126209668
10
-93.755800359514069
20
-11.965544873790339
42
-0.41421356237309503
10
-94.255800359514055
20
-12.465544873790328
10
-107.2558003595141
20
-12.465544873790311
42
-0.41421356237309503
10
-107.75580035951407
20
-11.965544873790339
0
LWPOLYLINE
5
126
100
AcDbEntity
8
0
100
AcDbPolyline
90
8
70
1
43
0.0
10
-43.462050359514059
20
1.0344551262096502
42
-0.41421356237309503
10
-42.962050359514052
20
1.5344551262096573
10
-29.962050359514052
20
1.5344551262096218
42
-0.41421356237309503
10
-29.46205035951408
20
1.0344551262096502
10
-29.462050359514063
20
-11.965544873790357
42
-0.41421356237309503
10
-29.962050359514052
20
-12.465544873790346
10
-42.962050359514052
20
-12.465544873790364
42
-0.41421356237309503
10
-43.462050359514059
20
-11.965544873790357
0
LWPOLYLINE
5
127
100
AcDbEntity
8
0
100
AcDbPolyline
90
8
70
1
43
0.0
10
-56.15580035951406
20
1.5344551262096751
42
-0.41421356237309503
10
-55.655800359514053
20
1.034455126209668
10
-55.655800359514068
20
-11.965544873790339
42
-0.41421356237309503
10
-56.15580035951406
20
-12.465544873790328
10
-69.15580035951406
20
-12.465544873790311
42
-0.41421356237309503
10
-69.655800359514032
20
-11.965544873790339
10
-69.655800359514075
20
1.034455126209668
42
-0.41421356237309503
10
-69.15580035951406
20
1.5344551262096751
0
LWPOLYLINE
5
128
100
AcDbEntity
8
0
100
AcDbPolyline
90
8
70
1
43
0.0
10
-113.30580035951407
20
1.5344551262096751
42
-0.41421356237309503
10
-112.80580035951405
20
1.034455126209668
10
-112.80580035951408
20
-11.965544873790339
42
-0.41421356237309503
10
-113.30580035951407
20
-12.465544873790328
10
-126.30580035951408
20
-12.465544873790346
42
-0.41421356237309503
10
-126.80580035951408
20
-11.965544873790339
10
-126.80580035951408
20
1.034455126209668
42
-0.41421356237309503
10
-126.30580035951408
20
1.5344551262096751
0
LWPOLYLINE
5
129
100
AcDbEntity
8
0
100
AcDbPolyline
90
8
70
1
43
0.0
10
-132.35580035951409
20
1.5344551262096751
42
-0.41421356237309503
10
-131.85580035951406
20
1.034455126209668
10
-131.85580035951409
20
-11.965544873790339
42
-0.41421356237309503
10
-132.35580035951409
20
-12.465544873790328
10
-145.35580035951406
20
-12.465544873790346
42
-0.41421356237309503
10
-145.85580035951406
20
-11.965544873790339
10
-145.85580035951406
20
1.034455126209668
42
-0.41421356237309503
10
-145.35580035951406
20
1.5344551262096751
0
LWPOLYLINE
5
130
100
AcDbEntity
8
0
100
AcDbPolyline
90
8
70
1
43
0.0
10
-151.4058003595141
20
1.5344551262096751
42
-0.41421356237309503
10
-150.90580035951407
20
1.034455126209668
10
-150.9058003595141
20
-11.965544873790339
42
-0.41421356237309503
10
-151.4058003595141
20
-12.465544873790328
10
-164.40580035951405
20
-12.465544873790346
42
-0.41421356237309503
10
-164.90580035951407
20
-11.965544873790339
10
-164.90580035951407
20
1.034455126209668
42
-0.41421356237309503
10
-164.40580035951405
20
1.5344551262096751
0
LWPOLYLINE
5
131
100
AcDbEntity
8
0
100
AcDbPolyline
90
8
70
1
43
0.0
10
-183.95580035951409
20
-11.965544873790339
10
-183.95580035951409
20
1.034455126209668
42
-0.41421356237309503
10
-183.45580035951406
20
1.5344551262096751
10
-170.45580035951406
20
1.5344551262096751
42
-0.41421356237309503
10
-169.95580035951406
20
1.034455126209668
10
-169.95580035951406
20
-11.965544873790339
42
-0.41421356237309503
10
-170.45580035951406
20
-12.465544873790328
10
-183.45580035951406
20
-12.465544873790346
42
-0.41421356237309503
0
LWPOLYLINE
5
132
100
AcDbEntity
8
0
100
AcDbPolyline
90
8
70
1
43
0.0
10
-203.0058003595141
20
1.0344551262096857
42
-0.41421356237309503
10
-202.50580035951407
20
1.5344551262096928
10
-189.50580035951407
20
1.5344551262096751
42
-0.41421356237309503
10
-189.00580035951407
20
1.034455126209668
10
-189.00580035951407
20
-11.965544873790339
42
-0.41421356237309503
10
-189.50580035951407
20
-12.465544873790328
10
-202.50580035951407
20
-12.465544873790328
42
-0.41421356237309503
10
-203.0058003595141
20
-11.965544873790321
0
LWPOLYLINE
5
133
100
AcDbEntity
8
0
100
AcDbPolyline
90
8
70
1
43
0.0
10
-221.55580035951405
20
1.5344551262096928
10
-208.55580035951405
20
1.5344551262096928
42
-0.41421356237309503
10
-208.05580035951405
20
1.0344551262096857
10
-208.05580035951408
20
-11.965544873790321
42
-0.41421356237309503
10
-208.55580035951405
20
-12.465544873790311
10
-221.55580035951405
20
-12.465544873790328
42
-0.41421356237309503
10
-222.05580035951408
20
-11.965544873790321
10
-222.05580035951408
20
1.0344551262096857
42
-0.41421356237309503
0
LWPOLYLINE
5
134
100
AcDbEntity
8
0
100
AcDbPolyline
90
8
70
1
43
0.0
10
-259.6558003595141
20
-12.465544873790328
42
-0.41421356237309503
10
-260.1558003595141
20
-11.965544873790321
10
-260.1558003595141
20
1.0344551262096857
42
-0.41421356237309503
10
-259.6558003595141
20
1.5344551262096928
10
-246.65580035951407
20
1.5344551262096573
42
-0.41421356237309503
10
-246.1558003595141
20
1.0344551262096857
10
-246.1558003595141
20
-11.965544873790321
42
-0.41421356237309503
10
-246.65580035951407
20
-12.465544873790311
0
LWPOLYLINE
5
135
100
AcDbEntity
8
0
100
AcDbPolyline
90
8
70
1
43
0.0
10
-27.580800359514051
20
20.584455126209633
42
-0.41421356237309503
10
-27.080800359514079
20
20.084455126209662
10
-27.080800359514043
20
7.0844551262096545
42
-0.41421356237309503
10
-27.580800359514051
20
6.5844551262096473
10
-40.580800359514058
20
6.5844551262096473
42
-0.41421356237309503
10
-41.080800359514065
20
7.0844551262096545
10
-41.080800359514043
20
20.084455126209662
42
-0.41421356237309503
10
-40.580800359514058
20
20.584455126209651
0
LWPOLYLINE
5
136
100
AcDbEntity
8
0
100
AcDbPolyline
90
8
70
1
43
0.0
10
-66.774550359514066
20
20.584455126209669
10
-53.774550359514059
20
20.584455126209686
42
-0.41421356237309503
10
-53.274550359514052
20
20.084455126209679
10
-53.274550359514052
20
7.0844551262096722
42
-0.41421356237309503
10
-53.774550359514059
20
6.5844551262096651
10
-66.774550359514066
20
6.5844551262096651
42
-0.41421356237309503
10
-67.274550359514066
20
7.0844551262096722
10
-67.274550359514052
20
20.084455126209679
42
-0.41421356237309503
0
LWPOLYLINE
5
137
100
AcDbEntity
8
0
100
AcDbPolyline
90
8
70
1
43
0.0
10
-240.60580035951406
20
1.5344551262096928
10
-227.60580035951406
20
1.5344551262096573
42
-0.41421356237309503
10
-227.10580035951409
20
1.0344551262096857
10
-227.10580035951409
20
-11.965544873790321
42
-0.41421356237309503
10
-227.60580035951406
20
-12.465544873790311
10
-240.60580035951406
20
-12.465544873790328
42
-0.41421356237309503
10
-241.10580035951409
20
-11.965544873790321
10
-241.10580035951409
20
1.0344551262096857
42
-0.41421356237309503
0
LWPOLYLINE
5
138
100
AcDbEntity
8
0
100
AcDbPolyline
90
8
70
1
43
0.0
10
-94.255800359514055
20
20.584455126209651
42
-0.41421356237309503
10
-93.755800359514083
20
20.084455126209679
10
-93.755800359514041
20
7.0844551262096722
42
-0.41421356237309503
10
-94.255800359514055
20
6.5844551262096651
10
-107.2558003595141
20
6.5844551262097006
42
-0.41421356237309503
10
-107.75580035951407
20
7.0844551262096722
10
-107.75580035951408
20
20.084455126209679
42
-0.41421356237309503
10
-107.2558003595141
20
20.584455126209669
0
LWPOLYLINE
5
139
100
AcDbEntity
8
0
100
AcDbPolyline
90
8
70
1
43
0.0
10
-145.85580035951406
20
7.0844551262096722
10
-145.85580035951406
20
20.084455126209679
42
-0.41421356237309503
10
-145.35580035951406
20
20.584455126209669
10
-132.35580035951409
20
20.584455126209686
42
-0.41421356237309503
10
-131.85580035951406
20
20.084455126209679
10
-131.85580035951406
20
7.0844551262096722
42
-0.41421356237309503
10
-132.35580035951409
20
6.5844551262096651
10
-145.35580035951406
20
6.5844551262096651
42
-0.41421356237309503
0
LWPOLYLINE
5
140
100
AcDbEntity
8
0
100
AcDbPolyline
90
8
70
1
43
0.0
10
-183.95580035951409
20
7.0844551262096722
10
-183.95580035951406
20
20.084455126209679
42
-0.41421356237309503
10
-183.45580035951406
20
20.584455126209669
10
-170.45580035951406
20
20.584455126209686
42
-0.41421356237309503
10
-169.95580035951406
20
20.084455126209679
10
-169.95580035951406
20
7.0844551262096722
42
-0.41421356237309503
10
-170.45580035951406
20
6.5844551262096651
10
-183.45580035951406
20
6.5844551262096651
42
-0.41421356237309503
0
LWPOLYLINE
5
141
100
AcDbEntity
8
0
100
AcDbPolyline
90
8
70
1
43
0.0
10
-192.00580035951413
20
6.0844551262096758
42
-0.41421356237309503
10
-192.50580035951407
20
5.5844551262096864
10
-199.50580035951407
20
5.5844551262096864
42
-0.41421356237309503
10
-200.00580035951407
20
6.0844551262096935
10
-200.00580035951407
20
20.084455126209697
42
-0.41421356237309503
10
-199.50580035951407
20
20.584455126209686
10
-192.50580035951407
20
20.584455126209686
42
-0.41421356237309503
10
-192.00580035951407
20
20.084455126209679
0
LWPOLYLINE
5
142
100
AcDbEntity
8
0
100
AcDbPolyline
90
8
70
1
43
0.0
10
-78.205800359514072
20
5.5844551262096687
10
-85.205800359514043
20
5.5844551262096687
42
-0.41421356237309503
10
-85.705800359514058
20
6.0844551262096758
10
-85.705800359514029
20
20.084455126209679
42
-0.41421356237309503
10
-85.205800359514043
20
20.584455126209669
10
-78.205800359514072
20
20.584455126209686
42
-0.41421356237309503
10
-77.705800359514072
20
20.084455126209679
10
-77.705800359514072
20
6.0844551262096758
42
-0.41421356237309503
0
ARC
5
143
100
AcDbEntity
8
0
100
AcDbCircle
10
-192.50580035951407
20
6.0844551262096758
30
0
40
0.49999999999998934
210
0
220
0
230
1
100
AcDbArc
50
-90
51
0
0
LWPOLYLINE
5
144
100
AcDbEntity
8
0
100
AcDbPolyline
90
8
70
1
43
0.0
10
-115.80580035951407
20
20.084455126209679
10
-115.80580035951407
20
6.0844551262096758
42
-0.41421356237309503
10
-116.30580035951408
20
5.5844551262096687
10
-123.30580035951407
20
5.5844551262096331
42
-0.41421356237309503
10
-123.80580035951411
20
6.0844551262096758
10
-123.80580035951405
20
20.084455126209679
42
-0.41421356237309503
10
-123.30580035951407
20
20.584455126209669
10
-116.30580035951408
20
20.584455126209686
42
-0.41421356237309503
0
LINE
5
145
100
AcDbEntity
8
0
100
AcDbLine
10
-145.35580035951406
20
6.5844551262096651
30
0
11
-132.35580035951409
21
6.5844551262096651
31
0
0
LINE
5
146
100
AcDbEntity
8
0
100
AcDbLine
10
-85.205800359514043
20
5.5844551262096687
30
0
11
-78.205800359514072
21
5.5844551262096687
31
0
0
ARC
5
147
100
AcDbEntity
8
0
100
AcDbCircle
10
-85.205800359514043
20
20.084455126209679
30
0
40
0.49999999999998934
210
0
220
-0
230
1
100
AcDbArc
50
90
51
180
0
LINE
5
148
100
AcDbEntity
8
0
100
AcDbLine
10
-77.705800359514072
20
6.0844551262096758
30
0
11
-77.705800359514072
21
20.084455126209679
31
0
0
LINE
5
149
100
AcDbEntity
8
0
100
AcDbLine
10
-85.705800359514058
20
20.084455126209679
30
0
11
-85.705800359514058
21
6.0844551262096758
31
0
0
ARC
5
150
100
AcDbEntity
8
0
100
AcDbCircle
10
-132.35580035951409
20
7.0844551262096722
30
0
40
0.50000000000000711
210
0
220
0
230
1
100
AcDbArc
50
-90
51
0
0
LINE
5
151
100
AcDbEntity
8
0
100
AcDbLine
10
-145.85580035951406
20
20.084455126209679
30
0
11
-145.85580035951406
21
7.0844551262096722
31
0
0
LINE
5
152
100
AcDbEntity
8
0
100
AcDbLine
10
-131.85580035951406
20
7.0844551262096722
30
0
11
-131.85580035951406
21
20.084455126209679
31
0
0
ARC
5
153
100
AcDbEntity
8
0
100
AcDbCircle
10
-78.205800359514072
20
20.084455126209679
30
0
40
0.50000000000000711
210
-0
220
0
230
1
100
AcDbArc
50
0
51
90
0
LINE
5
154
100
AcDbEntity
8
0
100
AcDbLine
10
-199.50580035951407
20
5.5844551262096864
30
0
11
-192.50580035951407
21
5.5844551262096864
31
0
0
ARC
5
155
100
AcDbEntity
8
0
100
AcDbCircle
10
-132.35580035951409
20
20.084455126209679
30
0
40
0.50000000000000711
210
-0
220
0
230
1
100
AcDbArc
50
0
51
90
0
ARC
5
156
100
AcDbEntity
8
0
100
AcDbCircle
10
-85.205800359514043
20
6.0844551262096758
30
0
40
0.50000000000000711
210
0
220
0
230
1
100
AcDbArc
50
180
51
270
0
ARC
5
157
100
AcDbEntity
8
0
100
AcDbCircle
10
-145.35580035951406
20
7.0844551262096722
30
0
40
0.50000000000000711
210
0
220
0
230
1
100
AcDbArc
50
180
51
270
0
LINE
5
158
100
AcDbEntity
8
0
100
AcDbLine
10
-132.35580035951409
20
20.584455126209669
30
0
11
-145.35580035951406
21
20.584455126209669
31
0
0
ARC
5
159
100
AcDbEntity
8
0
100
AcDbCircle
10
-78.205800359514072
20
6.0844551262096758
30
0
40
0.50000000000000711
210
0
220
0
230
1
100
AcDbArc
50
-90
51
0
0
ARC
5
160
100
AcDbEntity
8
0
100
AcDbCircle
10
-192.50580035951407
20
20.084455126209679
30
0
40
0.50000000000000711
210
-0
220
0
230
1
100
AcDbArc
50
0
51
90
0
ARC
5
161
100
AcDbEntity
8
0
100
AcDbCircle
10
-199.50580035951407
20
20.084455126209697
30
0
40
0.49999999999998934
210
0
220
-0
230
1
100
AcDbArc
50
90
51
180
0
ARC
5
162
100
AcDbEntity
8
0
100
AcDbCircle
10
-199.50580035951407
20
6.0844551262096935
30
0
40
0.50000000000000711
210
0
220
0
230
1
100
AcDbArc
50
180
51
270
0
LINE
5
163
100
AcDbEntity
8
0
100
AcDbLine
10
-78.205800359514072
20
20.584455126209669
30
0
11
-85.205800359514043
21
20.584455126209669
31
0
0
ARC
5
164
100
AcDbEntity
8
0
100
AcDbCircle
10
-145.35580035951406
20
20.084455126209679
30
0
40
0.49999999999998934
210
0
220
-0
230
1
100
AcDbArc
50
90
51
180
0
LWPOLYLINE
5
165
100
AcDbEntity
8
0
100
AcDbPolyline
90
8
70
1
43
0.0
10
-208.05580035951405
20
20.084455126209697
10
-208.05580035951405
20
7.08445512620969
42
-0.41421356237309503
10
-208.55580035951405
20
6.5844551262096829
10
-221.55580035951405
20
6.5844551262096829
42
-0.41421356237309503
10
-222.05580035951408
20
7.08445512620969
10
-222.05580035951408
20
20.084455126209697
42
-0.41421356237309503
10
-221.55580035951405
20
20.584455126209686
10
-208.55580035951405
20
20.584455126209704
42
-0.41421356237309503
0
LWPOLYLINE
5
166
100
AcDbEntity
8
0
100
AcDbPolyline
90
8
70
1
43
0.0
10
-227.10580035951409
20
20.084455126209697
10
-227.10580035951406
20
7.08445512620969
42
-0.41421356237309503
10
-227.60580035951406
20
6.5844551262096829
10
-240.60580035951406
20
6.5844551262096829
42
-0.41421356237309503
10
-241.10580035951409
20
7.08445512620969
10
-241.10580035951409
20
20.084455126209697
42
-0.41421356237309503
10
-240.60580035951406
20
20.584455126209686
10
-227.60580035951406
20
20.584455126209669
42
-0.41421356237309503
0
LWPOLYLINE
5
167
100
AcDbEntity
8
0
100
AcDbPolyline
90
8
70
1
43
0.0
10
-153.9058003595141
20
6.0844551262096758
42
-0.41421356237309503
10
-154.40580035951407
20
5.5844551262096864
10
-161.4058003595141
20
5.5844551262096687
42
-0.41421356237309503
10
-161.9058003595141
20
6.0844551262096758
10
-161.90580035951405
20
20.084455126209679
42
-0.41421356237309503
10
-161.4058003595141
20
20.584455126209669
10
-154.40580035951407
20
20.584455126209686
42
-0.41421356237309503
10
-153.90580035951407
20
20.084455126209679
0
LINE
5
168
100
AcDbEntity
8
0
100
AcDbLine
10
-192.50580035951407
20
20.584455126209669
30
0
11
-199.50580035951407
21
20.584455126209686
31
0
0
LWPOLYLINE
5
169
100
AcDbEntity
8
0
100
AcDbPolyline
90
8
70
1
43
0.0
10
-246.15580035951407
20
7.08445512620969
42
-0.41421356237309503
10
-246.65580035951407
20
6.5844551262096829
10
-259.6558003595141
20
6.5844551262096829
42
-0.41421356237309503
10
-260.1558003595141
20
7.08445512620969
10
-260.1558003595141
20
20.084455126209697
42
-0.41421356237309503
10
-259.6558003595141
20
20.584455126209686
10
-246.65580035951407
20
20.584455126209669
42
-0.41421356237309503
10
-246.1558003595141
20
20.084455126209697
0
LINE
5
170
100
AcDbEntity
8
0
100
AcDbLine
10
-192.00580035951407
20
6.0844551262096758
30
0
11
-192.00580035951407
21
20.084455126209679
31
0
0
LINE
5
171
100
AcDbEntity
8
0
100
AcDbLine
10
-200.00580035951407
20
20.084455126209697
30
0
11
-200.00580035951407
21
6.0844551262096935
31
0
0
LINE
5
172
100
AcDbEntity
8
0
100
AcDbLine
10
-242.43226184852116
20
-54.134899581610895
30
0
11
-246.60441778037466
21
-58.307055513464391
31
0
0
ARC
5
173
100
AcDbEntity
8
0
100
AcDbCircle
10
-248.4959284200487
20
-56.415544873790317
30
0
40
2.675000000000054
210
0
220
0
230
1
100
AcDbArc
50
270.00000000000063
51
314.99999999999943
0
LINE
5
174
100
AcDbEntity
8
0
100
AcDbLine
10
-248.49592842004867
20
-59.090544873790371
30
0
11
-255.86567229897955
21
-59.090544873790378
31
0
0
ARC
5
175
100
AcDbEntity
8
0
100
AcDbCircle
10
-255.86567229897966
20
-56.415544873790509
30
0
40
2.6749999999998613
210
0
220
0
230
1
100
AcDbArc
50
224.99999999999912
51
270.00000000000244
0
LINE
5
176
100
AcDbEntity
8
0
100
AcDbLine
10
-257.75718293865361
20
-58.307055513464405
30
0
11
-261.89731099918811
21
-54.166927452929869
31
0
0
ARC
5
177
100
AcDbEntity
8
0
100
AcDbCircle
10
-260.00580035951384
20
-52.275416813255745
30
0
40
2.6750000000002316
210
0
220
0
230
1
100
AcDbArc
50
180
51
224.99999999999781
0
LINE
5
178
100
AcDbEntity
8
0
100
AcDbLine
10
-262.68080035951408
20
-52.275416813255845
30
0
11
-262.68080035951408
21
22.294327065675041
31
0
0
ARC
5
179
100
AcDbEntity
8
0
100
AcDbCircle
10
-260.00580035951401
20
22.294327065675013
30
0
40
2.6750000000000975
210
0
220
0
230
1
100
AcDbArc
50
135.00000000000205
51
180
0
LINE
5
180
100
AcDbEntity
8
0
100
AcDbLine
10
-261.89731099918816
20
24.18583770534903
30
0
11
-257.7571829386535
21
28.325965765883634
31
0
0
ARC
5
181
100
AcDbEntity
8
0
100
AcDbCircle
10
-255.86567229897955
20
26.434455126209787
30
0
40
2.6749999999998586
210
0
220
-0
230
1
100
AcDbArc
50
90
51
135.00000000000162
0
LINE
5
182
100
AcDbEntity
8
0
100
AcDbLine
10
-255.86567229897955
20
29.109455126209646
30
0
11
-248.49592842004867
21
29.109455126209607
31
0
0
ARC
5
183
100
AcDbEntity
8
0
100
AcDbCircle
10
-248.4959284200487
20
26.434455126209528
30
0
40
2.6750000000000846
210
0
220
-0
230
1
100
AcDbArc
50
45.000000000000966
51
89.999999999999389
0
LINE
5
184
100
AcDbEntity
8
0
100
AcDbLine
10
-246.60441778037466
20
28.32596576588363
30
0
11
-242.46428971984017
21
24.185837705349087
31
0
0
ARC
5
185
100
AcDbEntity
8
0
100
AcDbCircle
10
-239.86567229897955
20
26.784455126209679
30
0
40
3.6750000000000673
210
0
220
0
230
1
100
AcDbArc
50
224.99999999999972
51
269.99999999999955
0
ARC
5
186
100
AcDbEntity
8
0
100
AcDbCircle
10
-42.608428420048625
20
26.784455126209661
30
0
40
3.6750000000000238
210
-0
220
0
230
1
100
AcDbArc
50
270.00000000000023
51
315.00000000000006
0
LINE
5
187
100
AcDbEntity
8
0
100
AcDbLine
10
-40.009810999188048
20
24.185837705349087
30
0
11
-35.869682938653533
21
28.325965765883634
31
0
0
ARC
5
188
100
AcDbEntity
8
0
100
AcDbCircle
10
-33.978172298979473
20
26.434455126209613
30
0
40
2.6750000000000274
210
0
220
0
230
1
100
AcDbArc
50
90.000000000000611
51
135.0000000000006
0
LINE
5
189
100
AcDbEntity
8
0
100
AcDbLine
10
-33.978172298979501
20
29.109455126209642
30
0
11
-26.608428420048643
21
29.109455126209642
31
0
0
ARC
5
190
100
AcDbEntity
8
0
100
AcDbCircle
10
-26.608428420048654
20
26.434455126209649
30
0
40
2.6749999999999936
210
0
220
-0
230
1
100
AcDbArc
50
44.999999999999346
51
89.999999999999773
0
LINE
5
191
100
AcDbEntity
8
0
100
AcDbLine
10
-24.716917780374622
20
28.325965765883637
30
0
11
-20.576789719840065
21
24.185837705349087
31
0
0
ARC
5
192
100
AcDbEntity
8
0
100
AcDbCircle
10
-22.468300359514032
20
22.294327065675091
30
0
40
2.6749999999999519
210
0
220
0
230
1
100
AcDbArc
50
0
51
45.000000000000433
0
LINE
5
193
100
AcDbEntity
8
0
100
AcDbLine
10
-19.793300359514081
20
22.294327065675084
30
0
11
-19.793300359514078
21
-52.275416813255795
31
0
0
ARC
5
194
100
AcDbEntity
8
0
100
AcDbCircle
10
-22.468300359514082
20
-52.275416813255788
30
0
40
2.675000000000006
210
0
220
0
230
1
100
AcDbArc
50
315
51
360
0
LINE
5
195
100
AcDbEntity
8
0
100
AcDbLine
10
-20.576789719840065
20
-54.166927452929805
30
0
11
-24.71691778037464
21
-58.307055513464391
31
0
0
ARC
5
196
100
AcDbEntity
8
0
100
AcDbCircle
10
-26.608428420048618
20
-56.415544873790431
30
0
40
2.6749999999999385
210
0
220
0
230
1
100
AcDbArc
50
269.9999999999992
51
315.00000000000028
0
LINE
5
197
100
AcDbEntity
8
0
100
AcDbLine
10
-26.608428420048654
20
-59.090544873790371
30
0
11
-33.978172298979516
21
-59.090544873790371
31
0
0
ARC
5
198
100
AcDbEntity
8
0
100
AcDbCircle
10
-33.978172298979516
20
-56.415544873790381
30
0
40
2.6749999999999901
210
0
220
0
230
1
100
AcDbArc
50
225.00000000000011
51
270
0
LINE
5
199
100
AcDbEntity
8
0
100
AcDbLine
10
-35.869682938653519
20
-58.307055513464391
30
0
11
-40.009810999188105
21
-54.166927452929784
31
0
0
ARC
5
200
100
AcDbEntity
8
0
100
AcDbCircle
10
-42.608428420048682
20
-56.765544873790375
30
0
40
3.6750000000000291
210
0
220
-0
230
1
100
AcDbArc
50
45.000000000000156
51
90
0
LINE
5
201
100
AcDbEntity
8
0
100
AcDbLine
10
-42.608428420048682
20
-53.09054487379035
30
0
11
-239.86567229897958
21
-53.090544873790371
31
0
0
ARC
5
202
100
AcDbEntity
8
0
100
AcDbCircle
10
-239.86567229897696
20
-56.765544873790617
30
0
40
3.6750000000002458
210
0
220
0
230
1
100
AcDbArc
50
90.000000000040771
51
134.29624874210302
0
LINE
5
203
100
AcDbEntity
8
0
100
AcDbLine
10
-239.86567229897958
20
23.109455126209614
30
0
11
-42.608428420048611
21
23.109455126209639
31
0
0
CIRCLE
5
204
100
AcDbEntity
8
0
100
AcDbCircle
10
-252.18092842004864
20
26.359455126209639
30
0
40
1.25
210
0
220
-0
230
1
0
CIRCLE
5
205
100
AcDbEntity
8
0
100
AcDbCircle
10
-252.18067229897954
20
-56.340544873790378
30
0
40
1.25
210
0
220
-0
230
1
0
CIRCLE
5
206
100
AcDbEntity
8
0
100
AcDbCircle
10
-30.293172298979503
20
-56.340544873790378
30
0
40
1.25
210
0
220
-0
230
1
0
CIRCLE
5
207
100
AcDbEntity
8
0
100
AcDbCircle
10
-30.293428420048649
20
26.359455126209639
30
0
40
1.25
210
0
220
-0
230
1
0
ENDSEC
0
SECTION
2
OBJECTS
0
DICTIONARY
5
C
100
AcDbDictionary
3
ACAD_GROUP
350
D
3
ACAD_MLINESTYLE
350
17
0
DICTIONARY
5
D
100
AcDbDictionary
0
DICTIONARY
5
1A
330
C
100
AcDbDictionary
0
DICTIONARY
5
17
100
AcDbDictionary
0
ENDSEC
0
EOF
