0
SECTION
2
HEADER
9
$INSUNITS
70
4
9
$ACADVER
1
AC1014
9
$HANDSEED
5
FFFF
0
ENDSEC
0
SECTION
2
TABLES
0
TABLE
2
VPORT
5
8
100
AcDbSymbolTable
0
ENDTAB
0
TABLE
2
LTYPE
5
5
100
AcDbSymbolTable
0
LTYPE
5
14
100
AcDbSymbolTableRecord
100
AcDbLinetypeTableRecord
2
BYBLOCK
70
0
0
LTYPE
5
15
100
AcDbSymbolTableRecord
100
AcDbLinetypeTableRecord
2
BYLAYER
70
0
0
ENDTAB
0
TABLE
2
LAYER
5
2
100
AcDbSymbolTable
70
2
0
LAYER
5
50
100
AcDbSymbolTableRecord
100
AcDbLayerTableRecord
2
0
70
0
6
CONTINUOUS
0
ENDTAB
0
TABLE
2
STYLE
5
3
100
AcDbSymbolTable
70
1
0
STYLE
5
11
100
AcDbSymbolTableRecord
100
AcDbTextStyleTableRecord
2
STANDARD
70
0
0
ENDTAB
0
TABLE
2
VIEW
5
6
100
AcDbSymbolTable
70
0
0
ENDTAB
0
TABLE
2
UCS
5
7
100
AcDbSymbolTable
70
0
0
ENDTAB
0
TABLE
2
APPID
5
9
100
AcDbSymbolTable
70
2
0
APPID
5
12
100
AcDbSymbolTableRecord
100
AcDbRegAppTableRecord
2
ACAD
70
0
0
ENDTAB
0
TABLE
2
DIMSTYLE
5
A
100
AcDbSymbolTable
70
1
0
ENDTAB
0
TABLE
2
BLOCK_RECORD
5
1
100
AcDbSymbolTable
70
1
0
BLOCK_RECORD
5
1F
100
AcDbSymbolTableRecord
100
AcDbBlockTableRecord
2
*MODEL_SPACE
0
BLOCK_RECORD
5
1B
100
AcDbSymbolTableRecord
100
AcDbBlockTableRecord
2
*PAPER_SPACE
0
ENDTAB
0
ENDSEC
0
SECTION
2
BLOCKS
0
BLOCK
5
20
100
AcDbEntity
100
AcDbBlockBegin
2
*MODEL_SPACE
0
ENDBLK
5
21
100
AcDbEntity
100
AcDbBlockEnd
0
BLOCK
5
1C
100
AcDbEntity
100
AcDbBlockBegin
2
*PAPER_SPACE
0
ENDBLK
5
1D
100
AcDbEntity
100
AcDbBlockEnd
0
ENDSEC
0
SECTION
2
ENTITIES
0
LWPOLYLINE
5
100
100
AcDbEntity
8
0
100
AcDbPolyline
90
8
70
1
43
0.0
10
125.43903617629205
20
85.482670367234746
10
138.43903617629201
20
85.482670367234761
42
-0.41421356237309503
10
138.93903617629203
20
84.982670367234761
10
138.93903617629203
20
71.982670367234761
42
-0.41421356237309503
10
138.43903617629201
20
71.482670367234746
10
125.43903617629205
20
71.482670367234746
42
-0.41421356237309503
10
124.93903617629203
20
71.982670367234761
10
124.93903617629206
20
84.982670367234761
42
-0.41421356237309503
0
LWPOLYLINE
5
101
100
AcDbEntity
8
0
100
AcDbPolyline
90
8
70
1
43
0.0
10
86.839036176292012
20
104.03267036723476
42
-0.41421356237309503
10
87.339036176292026
20
104.53267036723476
10
100.33903617629204
20
104.53267036723474
42
-0.41421356237309503
10
100.83903617629203
20
104.03267036723476
10
100.83903617629204
20
91.032670367234772
42
-0.41421356237309503
10
100.33903617629204
20
90.532670367234758
10
87.339036176292026
20
90.532670367234772
42
-0.41421356237309503
10
86.839036176292041
20
91.032670367234772
0
LWPOLYLINE
5
102
100
AcDbEntity
8
0
100
AcDbPolyline
90
8
70
1
43
0.0
10
106.38903617629204
20
90.532670367234758
42
-0.41421356237309503
10
105.88903617629202
20
91.032670367234772
10
105.88903617629202
20
104.03267036723476
42
-0.41421356237309503
10
106.38903617629204
20
104.53267036723476
10
119.38903617629205
20
104.53267036723476
42
-0.41421356237309503
10
119.88903617629205
20
104.03267036723476
10
119.88903617629205
20
91.032670367234772
42
-0.41421356237309503
10
119.38903617629205
20
90.532670367234758
0
LWPOLYLINE
5
103
100
AcDbEntity
8
0
100
AcDbPolyline
90
8
70
1
43
0.0
10
125.43903617629205
20
90.532670367234758
42
-0.41421356237309503
10
124.93903617629203
20
91.032670367234772
10
124.93903617629203
20
104.03267036723476
42
-0.41421356237309503
10
125.43903617629205
20
104.53267036723476
10
138.43903617629201
20
104.53267036723476
42
-0.41421356237309503
10
138.93903617629203
20
104.03267036723476
10
138.93903617629203
20
91.032670367234772
42
-0.41421356237309503
10
138.43903617629201
20
90.532670367234758
0
LWPOLYLINE
5
104
100
AcDbEntity
8
0
100
AcDbPolyline
90
8
70
1
43
0.0
10
163.03903617629206
20
104.03267036723476
42
-0.41421356237309503
10
163.53903617629209
20
104.53267036723476
10
176.53903617629203
20
104.53267036723476
42
-0.41421356237309503
10
177.03903617629206
20
104.03267036723476
10
177.03903617629206
20
91.032670367234772
42
-0.41421356237309503
10
176.53903617629203
20
90.532670367234758
10
163.53903617629209
20
90.532670367234758
42
-0.41421356237309503
10
163.03903617629206
20
91.032670367234772
0
LWPOLYLINE
5
105
100
AcDbEntity
8
0
100
AcDbPolyline
90
8
70
1
43
0.0
10
195.58903617629201
20
104.53267036723476
42
-0.41421356237309503
10
196.08903617629204
20
104.03267036723476
10
196.08903617629204
20
91.032670367234772
42
-0.41421356237309503
10
195.58903617629201
20
90.532670367234758
10
182.58903617629204
20
90.532670367234758
42
-0.41421356237309503
10
182.08903617629204
20
91.032670367234772
10
182.08903617629204
20
104.03267036723476
42
-0.41421356237309503
10
182.58903617629204
20
104.53267036723476
0
LWPOLYLINE
5
106
100
AcDbEntity
8
0
100
AcDbPolyline
90
8
70
1
43
0.0
10
214.63903617629205
20
104.53267036723476
42
-0.41421356237309503
10
215.13903617629208
20
104.03267036723476
10
215.13903617629208
20
91.032670367234772
42
-0.41421356237309503
10
214.63903617629205
20
90.532670367234758
10
201.63903617629205
20
90.532670367234758
42
-0.41421356237309503
10
201.13903617629205
20
91.032670367234772
10
201.13903617629205
20
104.03267036723476
42
-0.41421356237309503
10
201.63903617629205
20
104.53267036723476
0
LWPOLYLINE
5
107
100
AcDbEntity
8
0
100
AcDbPolyline
90
8
70
1
43
0.0
10
157.48903617629202
20
90.532670367234758
10
144.48903617629205
20
90.532670367234758
42
-0.41421356237309503
10
143.98903617629205
20
91.032670367234772
10
143.98903617629205
20
104.03267036723476
42
-0.41421356237309503
10
144.48903617629205
20
104.53267036723476
10
157.48903617629202
20
104.53267036723476
42
-0.41421356237309503
10
157.98903617629205
20
104.03267036723476
10
157.98903617629205
20
91.032670367234772
42
-0.41421356237309503
0
LWPOLYLINE
5
108
100
AcDbEntity
8
0
100
AcDbPolyline
90
8
70
1
43
0.0
10
48.739036176292039
20
84.982670367234761
42
-0.41421356237309503
10
49.239036176292032
20
85.482670367234746
10
62.239036176292039
20
85.482670367234761
42
-0.41421356237309503
10
62.739036176292032
20
84.982670367234761
10
62.739036176292032
20
71.982670367234761
42
-0.41421356237309503
10
62.239036176292039
20
71.482670367234761
10
49.239036176292032
20
71.482670367234761
42
-0.41421356237309503
10
48.739036176292032
20
71.982670367234761
0
LWPOLYLINE
5
109
100
AcDbEntity
8
0
100
AcDbPolyline
90
8
70
1
43
0.0
10
100.83903617629204
20
71.982670367234761
42
-0.41421356237309503
10
100.33903617629204
20
71.482670367234761
10
87.339036176292026
20
71.482670367234761
42
-0.41421356237309503
10
86.839036176292041
20
71.982670367234761
10
86.839036176292041
20
84.982670367234761
42
-0.41421356237309503
10
87.339036176292026
20
85.482670367234746
10
100.33903617629204
20
85.482670367234746
42
-0.41421356237309503
10
100.83903617629203
20
84.982670367234761
0
LWPOLYLINE
5
110
100
AcDbEntity
8
0
100
AcDbPolyline
90
8
70
1
43
0.0
10
105.88903617629205
20
84.982670367234761
42
-0.41421356237309503
10
106.38903617629204
20
85.482670367234746
10
119.38903617629205
20
85.482670367234761
42
-0.41421356237309503
10
119.88903617629205
20
84.982670367234761
10
119.88903617629205
20
71.982670367234761
42
-0.41421356237309503
10
119.38903617629205
20
71.482670367234761
10
106.38903617629204
20
71.482670367234761
42
-0.41421356237309503
10
105.88903617629205
20
71.982670367234761
0
LWPOLYLINE
5
111
100
AcDbEntity
8
0
100
AcDbPolyline
90
8
70
1
43
0.0
10
67.789036176292043
20
84.982670367234761
42
-0.41421356237309503
10
68.289036176292029
20
85.482670367234746
10
81.289036176292043
20
85.482670367234746
42
-0.41421356237309503
10
81.789036176292029
20
84.982670367234761
10
81.789036176292029
20
71.982670367234761
42
-0.41421356237309503
10
81.289036176292043
20
71.482670367234761
10
68.289036176292029
20
71.482670367234761
42
-0.41421356237309503
10
67.789036176292029
20
71.982670367234761
0
LWPOLYLINE
5
112
100
AcDbEntity
8
0
100
AcDbPolyline
90
8
70
1
43
0.0
10
11.139036176292034
20
71.482670367234761
42
-0.41421356237309503
10
10.639036176292036
20
71.982670367234761
10
10.639036176292045
20
84.982670367234761
42
-0.41421356237309503
10
11.139036176292034
20
85.482670367234746
10
24.139036176292038
20
85.482670367234761
42
-0.41421356237309503
10
24.639036176292034
20
84.982670367234761
10
24.639036176292045
20
71.982670367234761
42
-0.41421356237309503
10
24.139036176292038
20
71.482670367234746
0
LWPOLYLINE
5
113
100
AcDbEntity
8
0
100
AcDbPolyline
90
8
70
1
43
0.0
10
239.23903617629205
20
104.03267036723476
42
-0.41421356237309503
10
239.73903617629205
20
104.53267036723476
10
252.73903617629205
20
104.53267036723476
42
-0.41421356237309503
10
253.23903617629207
20
104.03267036723476
10
253.23903617629207
20
91.032670367234772
42
-0.41421356237309503
10
252.73903617629205
20
90.532670367234758
10
239.73903617629205
20
90.532670367234758
42
-0.41421356237309503
10
239.23903617629205
20
91.032670367234772
0
LWPOLYLINE
5
114
100
AcDbEntity
8
0
100
AcDbPolyline
90
8
70
1
43
0.0
10
43.189036176292035
20
85.482670367234761
42
-0.41421356237309503
10
43.689036176292035
20
84.982670367234761
10
43.689036176292042
20
71.982670367234761
42
-0.41421356237309503
10
43.189036176292035
20
71.482670367234746
10
30.189036176292035
20
71.482670367234761
42
-0.41421356237309503
10
29.689036176292039
20
71.982670367234761
10
29.689036176292049
20
84.982670367234761
42
-0.41421356237309503
10
30.189036176292035
20
85.482670367234746
0
LWPOLYLINE
5
115
100
AcDbEntity
8
0
100
AcDbPolyline
90
8
70
1
43
0.0
10
220.18903617629203
20
91.032670367234772
10
220.18903617629203
20
104.03267036723476
42
-0.41421356237309503
10
220.68903617629203
20
104.53267036723476
10
233.68903617629203
20
104.53267036723476
42
-0.41421356237309503
10
234.18903617629206
20
104.03267036723476
10
234.18903617629206
20
91.032670367234772
42
-0.41421356237309503
10
233.68903617629203
20
90.532670367234758
10
220.68903617629203
20
90.532670367234758
42
-0.41421356237309503
0
LWPOLYLINE
5
116
100
AcDbEntity
8
0
100
AcDbPolyline
90
8
70
1
43
0.0
10
24.639036176292045
20
91.032670367234772
42
-0.41421356237309503
10
24.139036176292038
20
90.532670367234758
10
11.139036176292034
20
90.532670367234758
42
-0.41421356237309503
10
10.639036176292036
20
91.032670367234772
10
10.639036176292027
20
104.03267036723476
42
-0.41421356237309503
10
11.139036176292034
20
104.53267036723476
10
24.139036176292038
20
104.53267036723474
42
-0.41421356237309503
10
24.639036176292034
20
104.03267036723476
0
LWPOLYLINE
5
117
100
AcDbEntity
8
0
100
AcDbPolyline
90
8
70
1
43
0.0
10
30.189036176292035
20
90.532670367234758
42
-0.41421356237309503
10
29.689036176292039
20
91.032670367234772
10
29.689036176292028
20
104.03267036723476
42
-0.41421356237309503
10
30.189036176292035
20
104.53267036723476
10
43.189036176292035
20
104.53267036723474
42
-0.41421356237309503
10
43.689036176292035
20
104.03267036723476
10
43.689036176292042
20
91.032670367234772
42
-0.41421356237309503
10
43.189036176292035
20
90.532670367234758
0
LWPOLYLINE
5
118
100
AcDbEntity
8
0
100
AcDbPolyline
90
8
70
1
43
0.0
10
49.239036176292032
20
90.532670367234758
42
-0.41421356237309503
10
48.739036176292032
20
91.032670367234772
10
48.739036176292025
20
104.03267036723476
42
-0.41421356237309503
10
49.239036176292032
20
104.53267036723476
10
62.239036176292039
20
104.53267036723474
42
-0.41421356237309503
10
62.739036176292032
20
104.03267036723476
10
62.739036176292046
20
91.032670367234772
42
-0.41421356237309503
10
62.239036176292039
20
90.532670367234758
0
LWPOLYLINE
5
119
100
AcDbEntity
8
0
100
AcDbPolyline
90
8
70
1
43
0.0
10
81.289036176292043
20
90.532670367234758
10
68.289036176292029
20
90.532670367234758
42
-0.41421356237309503
10
67.789036176292029
20
91.032670367234772
10
67.789036176292029
20
104.03267036723476
42
-0.41421356237309503
10
68.289036176292029
20
104.53267036723476
10
81.289036176292043
20
104.53267036723474
42
-0.41421356237309503
10
81.789036176292029
20
104.03267036723476
10
81.789036176292043
20
91.032670367234772
42
-0.41421356237309503
0
LWPOLYLINE
5
120
100
AcDbEntity
8
0
100
AcDbPolyline
90
8
70
1
43
0.0
10
143.98903617629205
20
84.982670367234761
42
-0.41421356237309503
10
144.48903617629205
20
85.482670367234746
10
157.48903617629202
20
85.482670367234761
42
-0.41421356237309503
10
157.98903617629205
20
84.982670367234761
10
157.98903617629205
20
71.982670367234761
42
-0.41421356237309503
10
157.48903617629202
20
71.482670367234746
10
144.48903617629205
20
71.482670367234746
42
-0.41421356237309503
10
143.98903617629205
20
71.982670367234761
0
LWPOLYLINE
5
121
100
AcDbEntity
8
0
100
AcDbPolyline
90
8
70
1
43
0.0
10
10.639036176292036
20
65.932670367234763
42
-0.41421356237309503
10
11.139036176292034
20
66.432670367234749
10
24.139036176292038
20
66.432670367234749
42
-0.41421356237309503
10
24.639036176292034
20
65.932670367234763
10
24.639036176292034
20
52.932670367234749
42
-0.41421356237309503
10
24.139036176292038
20
52.432670367234749
10
11.139036176292034
20
52.432670367234749
42
-0.41421356237309503
10
10.639036176292036
20
52.932670367234749
0
LWPOLYLINE
5
122
100
AcDbEntity
8
0
100
AcDbPolyline
90
8
70
1
43
0.0
10
43.689036176292042
20
65.932670367234763
10
43.689036176292035
20
52.932670367234749
42
-0.41421356237309503
10
43.189036176292035
20
52.432670367234749
10
30.189036176292035
20
52.432670367234749
42
-0.41421356237309503
10
29.689036176292039
20
52.932670367234749
10
29.689036176292039
20
65.932670367234763
42
-0.41421356237309503
10
30.189036176292035
20
66.432670367234749
10
43.189036176292035
20
66.432670367234763
42
-0.41421356237309503
0
LWPOLYLINE
5
123
100
AcDbEntity
8
0
100
AcDbPolyline
90
8
70
1
43
0.0
10
215.13903617629205
20
84.982670367234761
10
215.13903617629208
20
71.982670367234761
42
-0.41421356237309503
10
214.63903617629205
20
71.482670367234746
10
201.63903617629205
20
71.482670367234746
42
-0.41421356237309503
10
201.13903617629205
20
71.982670367234761
10
201.13903617629205
20
84.982670367234761
42
-0.41421356237309503
10
201.63903617629205
20
85.482670367234746
10
214.63903617629205
20
85.482670367234732
42
-0.41421356237309503
0
LWPOLYLINE
5
124
100
AcDbEntity
8
0
100
AcDbPolyline
90
8
70
1
43
0.0
10
239.73903617629205
20
71.482670367234746
42
-0.41421356237309503
10
239.23903617629205
20
71.982670367234761
10
239.23903617629207
20
84.982670367234761
42
-0.41421356237309503
10
239.73903617629205
20
85.482670367234746
10
252.73903617629205
20
85.482670367234761
42
-0.41421356237309503
10
253.23903617629207
20
84.982670367234761
10
253.23903617629207
20
71.982670367234761
42
-0.41421356237309503
10
252.73903617629205
20
71.482670367234761
0
LWPOLYLINE
5
125
100
AcDbEntity
8
0
100
AcDbPolyline
90
8
70
1
43
0.0
10
176.53903617629203
20
71.482670367234746
10
163.53903617629209
20
71.482670367234746
42
-0.41421356237309503
10
163.03903617629206
20
71.982670367234761
10
163.03903617629209
20
84.982670367234761
42
-0.41421356237309503
10
163.53903617629209
20
85.482670367234746
10
176.53903617629203
20
85.482670367234761
42
-0.41421356237309503
10
177.03903617629206
20
84.982670367234761
10
177.03903617629206
20
71.982670367234761
42
-0.41421356237309503
0
LWPOLYLINE
5
126
100
AcDbEntity
8
0
100
AcDbPolyline
90
8
70
1
43
0.0
10
196.08903617629204
20
71.982670367234761
42
-0.41421356237309503
10
195.58903617629201
20
71.482670367234761
10
182.58903617629204
20
71.482670367234746
42
-0.41421356237309503
10
182.08903617629204
20
71.982670367234761
10
182.08903617629204
20
84.982670367234761
42
-0.41421356237309503
10
182.58903617629204
20
85.482670367234746
10
195.58903617629201
20
85.482670367234761
42
-0.41421356237309503
10
196.08903617629204
20
84.982670367234761
0
LWPOLYLINE
5
127
100
AcDbEntity
8
0
100
AcDbPolyline
90
8
70
1
43
0.0
10
220.18903617629203
20
71.982670367234761
10
220.18903617629206
20
84.982670367234761
42
-0.41421356237309503
10
220.68903617629203
20
85.482670367234746
10
233.68903617629203
20
85.482670367234761
42
-0.41421356237309503
10
234.18903617629206
20
84.982670367234761
10
234.18903617629206
20
71.982670367234761
42
-0.41421356237309503
10
233.68903617629203
20
71.482670367234761
10
220.68903617629203
20
71.482670367234746
42
-0.41421356237309503
0
LWPOLYLINE
5
128
100
AcDbEntity
8
0
100
AcDbPolyline
90
8
70
1
43
0.0
10
100.83903617629204
20
52.932670367234749
42
-0.41421356237309503
10
100.33903617629204
20
52.432670367234749
10
87.339036176292026
20
52.432670367234763
42
-0.41421356237309503
10
86.839036176292041
20
52.932670367234749
10
86.839036176292012
20
65.932670367234763
42
-0.41421356237309503
10
87.339036176292026
20
66.432670367234749
10
100.33903617629204
20
66.432670367234763
42
-0.41421356237309503
10
100.83903617629204
20
65.932670367234763
0
LWPOLYLINE
5
129
100
AcDbEntity
8
0
100
AcDbPolyline
90
8
70
1
43
0.0
10
106.38903617629204
20
52.432670367234742
42
-0.41421356237309503
10
105.88903617629202
20
52.932670367234749
10
105.88903617629202
20
65.932670367234763
42
-0.41421356237309503
10
106.38903617629204
20
66.432670367234749
10
119.38903617629205
20
66.432670367234763
42
-0.41421356237309503
10
119.88903617629205
20
65.932670367234763
10
119.88903617629205
20
52.932670367234749
42
-0.41421356237309503
10
119.38903617629205
20
52.432670367234749
0
LWPOLYLINE
5
130
100
AcDbEntity
8
0
100
AcDbPolyline
90
8
70
1
43
0.0
10
81.789036176292029
20
52.932670367234749
42
-0.41421356237309503
10
81.289036176292043
20
52.432670367234749
10
68.289036176292029
20
52.432670367234749
42
-0.41421356237309503
10
67.789036176292029
20
52.932670367234749
10
67.789036176292029
20
65.932670367234763
42
-0.41421356237309503
10
68.289036176292029
20
66.432670367234749
10
81.289036176292043
20
66.432670367234749
42
-0.41421356237309503
10
81.789036176292029
20
65.932670367234763
0
LWPOLYLINE
5
131
100
AcDbEntity
8
0
100
AcDbPolyline
90
8
70
1
43
0.0
10
62.239036176292039
20
66.432670367234749
42
-0.41421356237309503
10
62.739036176292032
20
65.932670367234763
10
62.739036176292032
20
52.932670367234749
42
-0.41421356237309503
10
62.239036176292039
20
52.432670367234749
10
49.239036176292032
20
52.432670367234749
42
-0.41421356237309503
10
48.739036176292032
20
52.932670367234749
10
48.739036176292032
20
65.932670367234763
42
-0.41421356237309503
10
49.239036176292032
20
66.432670367234749
0
LWPOLYLINE
5
132
100
AcDbEntity
8
0
100
AcDbPolyline
90
8
70
1
43
0.0
10
124.93903617629203
20
65.932670367234763
42
-0.41421356237309503
10
125.43903617629205
20
66.432670367234749
10
138.43903617629201
20
66.432670367234763
42
-0.41421356237309503
10
138.93903617629203
20
65.932670367234763
10
138.93903617629203
20
52.932670367234749
42
-0.41421356237309503
10
138.43903617629201
20
52.432670367234749
10
125.43903617629205
20
52.432670367234742
42
-0.41421356237309503
10
124.93903617629203
20
52.932670367234749
0
LWPOLYLINE
5
133
100
AcDbEntity
8
0
100
AcDbPolyline
90
8
70
1
43
0.0
10
143.98903617629205
20
52.932670367234749
10
143.98903617629205
20
65.932670367234763
42
-0.41421356237309503
10
144.48903617629205
20
66.432670367234749
10
157.48903617629202
20
66.432670367234763
42
-0.41421356237309503
10
157.98903617629205
20
65.932670367234763
10
157.98903617629205
20
52.932670367234749
42
-0.41421356237309503
10
157.48903617629202
20
52.432670367234749
10
144.48903617629205
20
52.432670367234742
42
-0.41421356237309503
0
LWPOLYLINE
5
134
100
AcDbEntity
8
0
100
AcDbPolyline
90
8
70
1
43
0.0
10
163.53903617629209
20
66.432670367234749
10
176.53903617629203
20
66.432670367234763
42
-0.41421356237309503
10
177.03903617629206
20
65.932670367234763
10
177.03903617629206
20
52.932670367234749
42
-0.41421356237309503
10
176.53903617629203
20
52.432670367234749
10
163.53903617629209
20
52.432670367234742
42
-0.41421356237309503
10
163.03903617629206
20
52.932670367234749
10
163.03903617629206
20
65.932670367234763
42
-0.41421356237309503
0
LWPOLYLINE
5
135
100
AcDbEntity
8
0
100
AcDbPolyline
90
8
70
1
43
0.0
10
182.58903617629204
20
52.432670367234742
42
-0.41421356237309503
10
182.08903617629204
20
52.932670367234749
10
182.08903617629204
20
65.932670367234763
42
-0.41421356237309503
10
182.58903617629204
20
66.432670367234749
10
195.58903617629201
20
66.432670367234763
42
-0.41421356237309503
10
196.08903617629204
20
65.932670367234763
10
196.08903617629204
20
52.932670367234749
42
-0.41421356237309503
10
195.58903617629201
20
52.432670367234749
0
LWPOLYLINE
5
136
100
AcDbEntity
8
0
100
AcDbPolyline
90
8
70
1
43
0.0
10
34.451536176292038
20
33.882670367234759
10
34.451536176292038
20
46.882670367234752
42
-0.41421356237309503
10
34.951536176292038
20
47.382670367234752
10
47.951536176292038
20
47.382670367234752
42
-0.41421356237309503
10
48.451536176292038
20
46.882670367234752
10
48.451536176292038
20
33.882670367234759
42
-0.41421356237309503
10
47.951536176292038
20
33.382670367234759
10
34.951536176292038
20
33.382670367234759
42
-0.41421356237309503
0
LWPOLYLINE
5
137
100
AcDbEntity
8
0
100
AcDbPolyline
90
8
70
1
43
0.0
10
252.73903617629205
20
52.432670367234749
10
239.73903617629205
20
52.432670367234742
42
-0.41421356237309503
10
239.23903617629205
20
52.932670367234749
10
239.23903617629205
20
65.932670367234763
42
-0.41421356237309503
10
239.73903617629205
20
66.432670367234749
10
252.73903617629205
20
66.432670367234763
42
-0.41421356237309503
10
253.23903617629207
20
65.932670367234763
10
253.23903617629207
20
52.932670367234749
42
-0.41421356237309503
0
LWPOLYLINE
5
138
100
AcDbEntity
8
0
100
AcDbPolyline
90
8
70
1
43
0.0
10
26.520286176292039
20
47.382670367234752
42
-0.41421356237309503
10
27.020286176292036
20
46.882670367234752
10
27.020286176292036
20
33.882670367234759
42
-0.41421356237309503
10
26.520286176292039
20
33.382670367234759
10
13.520286176292036
20
33.382670367234759
42
-0.41421356237309503
10
13.020286176292036
20
33.882670367234759
10
13.020286176292037
20
46.882670367234752
42
-0.41421356237309503
10
13.520286176292036
20
47.382670367234752
0
LWPOLYLINE
5
139
100
AcDbEntity
8
0
100
AcDbPolyline
90
8
70
1
43
0.0
10
220.18903617629203
20
52.932670367234749
10
220.18903617629203
20
65.932670367234763
42
-0.41421356237309503
10
220.68903617629203
20
66.432670367234749
10
233.68903617629203
20
66.432670367234763
42
-0.41421356237309503
10
234.18903617629206
20
65.932670367234763
10
234.18903617629206
20
52.932670367234749
42
-0.41421356237309503
10
233.68903617629203
20
52.432670367234749
10
220.68903617629203
20
52.432670367234742
42
-0.41421356237309503
0
LWPOLYLINE
5
140
100
AcDbEntity
8
0
100
AcDbPolyline
90
17
70
1
43
0.0
10
58.764036176292038
20
47.382670367234752
10
69.382786176292029
20
47.382670367234752
10
96.864036176292032
20
47.382670367234752
10
107.48278617629204
20
47.382670367234752
10
115.92078617629201
20
47.38267036723478
42
-0.41421356237310025
10
116.42078617629204
20
46.882670367234745
10
116.42078617629203
20
33.882670367234766
42
-0.41421356237309503
10
115.92078617629201
20
33.382670367234766
10
107.48278617629204
20
33.382670367234759
10
96.864036176292032
20
33.382670367234759
10
71.289036176292029
20
33.382670367234759
10
69.382786176292029
20
33.382670367234759
10
58.764036176292038
20
33.382670367234759
10
56.382786176292036
20
33.382670367234759
42
-0.41421356237309503
10
55.882786176292036
20
33.882670367234759
10
55.882786176292036
20
46.882670367234752
42
-0.41421356237309503
10
56.382786176292036
20
47.382670367234752
0
LWPOLYLINE
5
141
100
AcDbEntity
8
0
100
AcDbPolyline
90
8
70
1
43
0.0
10
201.13903617629205
20
65.932670367234763
42
-0.41421356237309503
10
201.63903617629205
20
66.432670367234749
10
214.63903617629205
20
66.432670367234735
42
-0.41421356237309503
10
215.13903617629205
20
65.932670367234763
10
215.13903617629208
20
52.932670367234749
42
-0.41421356237309503
10
214.63903617629205
20
52.432670367234749
10
201.63903617629205
20
52.432670367234742
42
-0.41421356237309503
10
201.13903617629205
20
52.932670367234749
0
LWPOLYLINE
5
142
100
AcDbEntity
8
0
100
AcDbPolyline
90
10
70
1
43
0.0
10
137.96403617629204
20
33.382670367234759
10
125.91403617629204
20
33.382670367234759
10
119.41403617629203
20
33.382670367234766
42
-0.41421356237308982
10
118.91403617629203
20
33.882670367234752
10
118.91403617629202
20
46.882670367234752
42
-0.41421356237309503
10
119.41403617629203
20
47.382670367234752
10
144.46403617629204
20
47.38267036723478
42
-0.41421356237310542
10
144.96403617629204
20
46.882670367234738
10
144.96403617629201
20
33.882670367234752
42
-0.41421356237308982
10
144.46403617629204
20
33.382670367234759
0
LWPOLYLINE
5
143
100
AcDbEntity
8
0
100
AcDbPolyline
90
17
70
1
43
0.0
10
156.39528617629202
20
33.382670367234759
10
147.95728617629206
20
33.382670367234731
42
-0.41421356237309503
10
147.45728617629203
20
33.882670367234759
10
147.45728617629203
20
46.882670367234752
42
-0.41421356237310542
10
147.95728617629206
20
47.382670367234745
10
156.39528617629202
20
47.382670367234752
10
167.01403617629205
20
47.382670367234752
10
194.49528617629204
20
47.382670367234752
10
205.11403617629202
20
47.382670367234752
10
207.49528617629204
20
47.382670367234766
42
-0.41421356237309503
10
207.99528617629204
20
46.882670367234752
10
207.99528617629204
20
33.882670367234759
42
-0.41421356237309503
10
207.49528617629204
20
33.382670367234759
10
205.11403617629202
20
33.382670367234759
10
194.49528617629204
20
33.382670367234759
10
192.58903617629204
20
33.382670367234759
10
167.01403617629205
20
33.382670367234759
0
LWPOLYLINE
5
144
100
AcDbEntity
8
0
100
AcDbPolyline
90
8
70
1
43
0.0
10
228.92653617629205
20
47.382670367234752
10
215.92653617629202
20
47.382670367234752
42
0.41421356237309503
10
215.42653617629202
20
46.882670367234752
10
215.42653617629202
20
33.882670367234759
42
0.41421356237309503
10
215.92653617629202
20
33.382670367234759
10
228.92653617629205
20
33.382670367234759
42
0.41421356237309503
10
229.42653617629205
20
33.882670367234759
10
229.42653617629205
20
46.882670367234752
42
0.41421356237309503
0
LWPOLYLINE
5
145
100
AcDbEntity
8
0
100
AcDbPolyline
90
8
70
1
43
0.0
10
236.85778617629205
20
46.882670367234752
10
236.85778617629205
20
33.882670367234759
42
0.41421356237309503
10
237.35778617629205
20
33.382670367234759
10
250.35778617629205
20
33.382670367234759
42
0.41421356237309503
10
250.85778617629202
20
33.882670367234759
10
250.85778617629202
20
46.882670367234752
42
0.41421356237309503
10
250.35778617629205
20
47.382670367234752
10
237.35778617629205
20
47.382670367234752
42
0.41421356237309503
0
LWPOLYLINE
5
146
100
AcDbEntity
8
0
100
AcDbPolyline
90
24
70
1
43
0.0
10
37.581929911808629
20
110.18267036723478
42
-0.77459666924147808
10
46.29614244077527
20
110.18267036723473
42
0.34199871311963109
10
47.748511195603065
20
109.05767036723476
10
216.12956115698054
20
109.05767036723481
42
0.34199871311967395
10
217.58192991180837
20
110.18267036723479
42
-0.77459666924148729
10
226.29614244077513
20
110.18267036723479
42
0.34199871311965929
10
227.74851119560284
20
109.05767036723481
10
256.2640361762916
20
109.05767036723481
42
-0.41421356237307078
10
257.7640361762916
20
107.55767036723481
10
257.7640361762916
20
30.357670367234846
42
-0.41421356237307422
10
256.2640361762916
20
28.857670367234824
10
227.74851119560282
20
28.857670367234856
42
0.34199871311963065
10
226.29614244077513
20
27.732670367234817
42
-0.77459666924146953
10
217.58192991180834
20
27.732670367234856
42
0.34199871311966162
10
216.12956115698066
20
28.857670367234824
10
47.748511195603101
20
28.857670367234785
42
0.34199871311963909
10
46.29614244077537
20
27.732670367234832
42
-0.77459666924148607
10
37.581929911808636
20
27.732670367234835
42
0.34199871311964453
10
36.129561156980827
20
28.857670367234824
10
7.6140361762920605
20
28.857670367234824
42
-0.41421356237310347
10
6.1140361762920392
20
30.357670367234782
10
6.1140361762920046
20
107.55767036723472
42
-0.41421356237309481
10
7.6140361762919895
20
109.05767036723472
10
36.129561156980877
20
109.05767036723473
42
0.34199871311965535
0
CIRCLE
5
147
100
AcDbEntity
8
0
100
AcDbCircle
10
41.939036176291964
20
111.05767036723475
30
0
40
1.1000000000000001
210
0
220
-0
230
1
0
CIRCLE
5
148
100
AcDbEntity
8
0
100
AcDbCircle
10
41.939036176291964
20
26.857670367234849
30
0
40
1.0999999999999968
210
0
220
-0
230
1
0
CIRCLE
5
149
100
AcDbEntity
8
0
100
AcDbCircle
10
221.93903617629175
20
26.857670367234849
30
0
40
1.1000000000000143
210
0
220
-0
230
1
0
CIRCLE
5
150
100
AcDbEntity
8
0
100
AcDbCircle
10
221.93903617629172
20
111.05767036723476
30
0
40
1.1000000000000001
210
0
220
-0
230
1
0
ENDSEC
0
SECTION
2
OBJECTS
0
DICTIONARY
5
C
100
AcDbDictionary
3
ACAD_GROUP
350
D
3
ACAD_MLINESTYLE
350
17
0
DICTIONARY
5
D
100
AcDbDictionary
0
DICTIONARY
5
1A
330
C
100
AcDbDictionary
0
DICTIONARY
5
17
100
AcDbDictionary
0
ENDSEC
0
EOF
