0
SECTION
2
HEADER
9
$INSUNITS
70
4
9
$ACADVER
1
AC1014
9
$HANDSEED
5
FFFF
0
ENDSEC
0
SECTION
2
TABLES
0
TABLE
2
VPORT
5
8
100
AcDbSymbolTable
0
ENDTAB
0
TABLE
2
LTYPE
5
5
100
AcDbSymbolTable
0
LTYPE
5
14
100
AcDbSymbolTableRecord
100
AcDbLinetypeTableRecord
2
BYBLOCK
70
0
0
LTYPE
5
15
100
AcDbSymbolTableRecord
100
AcDbLinetypeTableRecord
2
BYLAYER
70
0
0
ENDTAB
0
TABLE
2
LAYER
5
2
100
AcDbSymbolTable
70
2
0
LAYER
5
50
100
AcDbSymbolTableRecord
100
AcDbLayerTableRecord
2
0
70
0
6
CONTINUOUS
0
ENDTAB
0
TABLE
2
STYLE
5
3
100
AcDbSymbolTable
70
1
0
STYLE
5
11
100
AcDbSymbolTableRecord
100
AcDbTextStyleTableRecord
2
STANDARD
70
0
0
ENDTAB
0
TABLE
2
VIEW
5
6
100
AcDbSymbolTable
70
0
0
ENDTAB
0
TABLE
2
UCS
5
7
100
AcDbSymbolTable
70
0
0
ENDTAB
0
TABLE
2
APPID
5
9
100
AcDbSymbolTable
70
2
0
APPID
5
12
100
AcDbSymbolTableRecord
100
AcDbRegAppTableRecord
2
ACAD
70
0
0
ENDTAB
0
TABLE
2
DIMSTYLE
5
A
100
AcDbSymbolTable
70
1
0
ENDTAB
0
TABLE
2
BLOCK_RECORD
5
1
100
AcDbSymbolTable
70
1
0
BLOCK_RECORD
5
1F
100
AcDbSymbolTableRecord
100
AcDbBlockTableRecord
2
*MODEL_SPACE
0
BLOCK_RECORD
5
1B
100
AcDbSymbolTableRecord
100
AcDbBlockTableRecord
2
*PAPER_SPACE
0
ENDTAB
0
ENDSEC
0
SECTION
2
BLOCKS
0
BLOCK
5
20
100
AcDbEntity
100
AcDbBlockBegin
2
*MODEL_SPACE
0
ENDBLK
5
21
100
AcDbEntity
100
AcDbBlockEnd
0
BLOCK
5
1C
100
AcDbEntity
100
AcDbBlockBegin
2
*PAPER_SPACE
0
ENDBLK
5
1D
100
AcDbEntity
100
AcDbBlockEnd
0
ENDSEC
0
SECTION
2
ENTITIES
0
LWPOLYLINE
5
100
100
AcDbEntity
8
0
100
AcDbPolyline
90
8
70
1
43
0.0
10
130.77786611912802
20
-29.183853257437331
10
143.77786611912799
20
-29.183853257437313
42
-0.41421356237309503
10
144.27786611912799
20
-29.68385325743732
10
144.27786611912799
20
-42.683853257437327
42
-0.41421356237309503
10
143.77786611912799
20
-43.183853257437335
10
130.77786611912802
20
-43.183853257437335
42
-0.41421356237309503
10
130.27786611912799
20
-42.683853257437327
10
130.27786611912802
20
-29.68385325743732
42
-0.41421356237309503
0
LWPOLYLINE
5
101
100
AcDbEntity
8
0
100
AcDbPolyline
90
8
70
1
43
0.0
10
92.177866119127984
20
-10.633853257437327
42
-0.41421356237309503
10
92.677866119127984
20
-10.13385325743732
10
105.677866119128
20
-10.133853257437337
42
-0.41421356237309503
10
106.17786611912798
20
-10.633853257437327
10
106.177866119128
20
-23.633853257437316
42
-0.41421356237309503
10
105.677866119128
20
-24.133853257437323
10
92.677866119127984
20
-24.133853257437305
42
-0.41421356237309503
10
92.177866119127998
20
-23.633853257437316
0
LWPOLYLINE
5
102
100
AcDbEntity
8
0
100
AcDbPolyline
90
8
70
1
43
0.0
10
111.727866119128
20
-24.133853257437323
42
-0.41421356237309503
10
111.227866119128
20
-23.633853257437316
10
111.227866119128
20
-10.633853257437327
42
-0.41421356237309503
10
111.727866119128
20
-10.13385325743732
10
124.72786611912801
20
-10.13385325743732
42
-0.41421356237309503
10
125.22786611912801
20
-10.633853257437327
10
125.22786611912801
20
-23.633853257437316
42
-0.41421356237309503
10
124.72786611912801
20
-24.133853257437323
0
LWPOLYLINE
5
103
100
AcDbEntity
8
0
100
AcDbPolyline
90
8
70
1
43
0.0
10
130.77786611912802
20
-24.133853257437323
42
-0.41421356237309503
10
130.27786611912799
20
-23.633853257437316
10
130.27786611912799
20
-10.633853257437327
42
-0.41421356237309503
10
130.77786611912802
20
-10.13385325743732
10
143.77786611912799
20
-10.13385325743732
42
-0.41421356237309503
10
144.27786611912799
20
-10.633853257437327
10
144.27786611912799
20
-23.633853257437316
42
-0.41421356237309503
10
143.77786611912799
20
-24.133853257437323
0
LWPOLYLINE
5
104
100
AcDbEntity
8
0
100
AcDbPolyline
90
8
70
1
43
0.0
10
168.37786611912802
20
-10.633853257437327
42
-0.41421356237309503
10
168.87786611912802
20
-10.13385325743732
10
181.87786611912799
20
-10.13385325743732
42
-0.41421356237309503
10
182.37786611912799
20
-10.633853257437327
10
182.37786611912799
20
-23.633853257437316
42
-0.41421356237309503
10
181.87786611912799
20
-24.133853257437323
10
168.87786611912802
20
-24.133853257437323
42
-0.41421356237309503
10
168.37786611912802
20
-23.633853257437316
0
LWPOLYLINE
5
105
100
AcDbEntity
8
0
100
AcDbPolyline
90
8
70
1
43
0.0
10
200.92786611912797
20
-10.13385325743732
42
-0.41421356237309503
10
201.42786611912797
20
-10.633853257437327
10
201.42786611912797
20
-23.633853257437316
42
-0.41421356237309503
10
200.92786611912797
20
-24.133853257437323
10
187.927866119128
20
-24.133853257437323
42
-0.41421356237309503
10
187.427866119128
20
-23.633853257437316
10
187.427866119128
20
-10.633853257437327
42
-0.41421356237309503
10
187.927866119128
20
-10.13385325743732
0
LWPOLYLINE
5
106
100
AcDbEntity
8
0
100
AcDbPolyline
90
8
70
1
43
0.0
10
219.97786611912801
20
-10.13385325743732
42
-0.41421356237309503
10
220.47786611912801
20
-10.633853257437327
10
220.47786611912801
20
-23.633853257437316
42
-0.41421356237309503
10
219.97786611912801
20
-24.133853257437323
10
206.97786611912801
20
-24.133853257437323
42
-0.41421356237309503
10
206.47786611912801
20
-23.633853257437316
10
206.47786611912801
20
-10.633853257437327
42
-0.41421356237309503
10
206.97786611912801
20
-10.13385325743732
0
LWPOLYLINE
5
107
100
AcDbEntity
8
0
100
AcDbPolyline
90
8
70
1
43
0.0
10
162.82786611912798
20
-24.133853257437323
10
149.827866119128
20
-24.133853257437323
42
-0.41421356237309503
10
149.327866119128
20
-23.633853257437316
10
149.327866119128
20
-10.633853257437327
42
-0.41421356237309503
10
149.827866119128
20
-10.13385325743732
10
162.82786611912798
20
-10.13385325743732
42
-0.41421356237309503
10
163.32786611912798
20
-10.633853257437327
10
163.32786611912798
20
-23.633853257437316
42
-0.41421356237309503
0
LWPOLYLINE
5
108
100
AcDbEntity
8
0
100
AcDbPolyline
90
8
70
1
43
0.0
10
54.077866119128004
20
-29.68385325743732
42
-0.41421356237309503
10
54.577866119127989
20
-29.183853257437331
10
67.577866119128004
20
-29.18385325743732
42
-0.41421356237309503
10
68.077866119128004
20
-29.68385325743732
10
68.077866119128004
20
-42.683853257437327
42
-0.41421356237309503
10
67.577866119128004
20
-43.183853257437327
10
54.577866119127989
20
-43.183853257437327
42
-0.41421356237309503
10
54.077866119127989
20
-42.683853257437327
0
LWPOLYLINE
5
109
100
AcDbEntity
8
0
100
AcDbPolyline
90
8
70
1
43
0.0
10
106.17786611912798
20
-42.683853257437327
42
-0.41421356237309503
10
105.677866119128
20
-43.183853257437327
10
92.677866119127984
20
-43.18385325743732
42
-0.41421356237309503
10
92.177866119127998
20
-42.683853257437327
10
92.177866119127998
20
-29.68385325743732
42
-0.41421356237309503
10
92.677866119127984
20
-29.183853257437331
10
105.677866119128
20
-29.183853257437331
42
-0.41421356237309503
10
106.17786611912798
20
-29.68385325743732
0
LWPOLYLINE
5
110
100
AcDbEntity
8
0
100
AcDbPolyline
90
8
70
1
43
0.0
10
111.22786611912801
20
-29.68385325743732
42
-0.41421356237309503
10
111.727866119128
20
-29.183853257437331
10
124.72786611912801
20
-29.183853257437313
42
-0.41421356237309503
10
125.22786611912801
20
-29.68385325743732
10
125.227866119128
20
-42.683853257437327
42
-0.41421356237309503
10
124.72786611912801
20
-43.183853257437327
10
111.727866119128
20
-43.18385325743732
42
-0.41421356237309503
10
111.22786611912801
20
-42.683853257437327
0
LWPOLYLINE
5
111
100
AcDbEntity
8
0
100
AcDbPolyline
90
8
70
1
43
0.0
10
73.127866119128001
20
-29.68385325743732
42
-0.41421356237309503
10
73.627866119127987
20
-29.183853257437331
10
86.627866119128001
20
-29.183853257437331
42
-0.41421356237309503
10
87.127866119127987
20
-29.68385325743732
10
87.127866119128015
20
-42.683853257437327
42
-0.41421356237309503
10
86.627866119128001
20
-43.183853257437327
10
73.627866119127987
20
-43.183853257437327
42
-0.41421356237309503
10
73.127866119128001
20
-42.683853257437327
0
LWPOLYLINE
5
112
100
AcDbEntity
8
0
100
AcDbPolyline
90
8
70
1
43
0.0
10
16.477866119127992
20
-43.183853257437327
42
-0.41421356237309503
10
15.977866119127995
20
-42.683853257437327
10
15.977866119128004
20
-29.68385325743732
42
-0.41421356237309503
10
16.477866119127992
20
-29.183853257437331
10
29.477866119127995
20
-29.18385325743732
42
-0.41421356237309503
10
29.977866119127992
20
-29.68385325743732
10
29.977866119128002
20
-42.683853257437327
42
-0.41421356237309503
10
29.477866119127995
20
-43.183853257437335
0
LWPOLYLINE
5
113
100
AcDbEntity
8
0
100
AcDbPolyline
90
8
70
1
43
0.0
10
244.57786611912798
20
-10.633853257437327
42
-0.41421356237309503
10
245.07786611912798
20
-10.13385325743732
10
258.07786611912798
20
-10.13385325743732
42
-0.41421356237309503
10
258.57786611912798
20
-10.633853257437327
10
258.57786611912798
20
-23.633853257437316
42
-0.41421356237309503
10
258.07786611912798
20
-24.133853257437323
10
245.07786611912798
20
-24.133853257437323
42
-0.41421356237309503
10
244.57786611912798
20
-23.633853257437316
0
LWPOLYLINE
5
114
100
AcDbEntity
8
0
100
AcDbPolyline
90
8
70
1
43
0.0
10
48.527866119127992
20
-29.18385325743732
42
-0.41421356237309503
10
49.027866119127992
20
-29.68385325743732
10
49.027866119128007
20
-42.683853257437327
42
-0.41421356237309503
10
48.527866119127992
20
-43.183853257437335
10
35.527866119127999
20
-43.183853257437327
42
-0.41421356237309503
10
35.027866119127999
20
-42.683853257437327
10
35.027866119128007
20
-29.68385325743732
42
-0.41421356237309503
10
35.527866119127999
20
-29.183853257437331
0
LWPOLYLINE
5
115
100
AcDbEntity
8
0
100
AcDbPolyline
90
8
70
1
43
0.0
10
225.52786611912796
20
-23.633853257437316
10
225.52786611912796
20
-10.633853257437327
42
-0.41421356237309503
10
226.02786611912796
20
-10.13385325743732
10
239.02786611912799
20
-10.13385325743732
42
-0.41421356237309503
10
239.52786611912799
20
-10.633853257437327
10
239.52786611912799
20
-23.633853257437316
42
-0.41421356237309503
10
239.02786611912799
20
-24.133853257437323
10
226.02786611912796
20
-24.133853257437323
42
-0.41421356237309503
0
LWPOLYLINE
5
116
100
AcDbEntity
8
0
100
AcDbPolyline
90
8
70
1
43
0.0
10
29.977866119128002
20
-23.633853257437316
42
-0.41421356237309503
10
29.477866119127995
20
-24.133853257437323
10
16.477866119127992
20
-24.133853257437316
42
-0.41421356237309503
10
15.977866119127995
20
-23.633853257437316
10
15.977866119127986
20
-10.633853257437327
42
-0.41421356237309503
10
16.477866119127992
20
-10.13385325743732
10
29.477866119127995
20
-10.133853257437329
42
-0.41421356237309503
10
29.977866119127992
20
-10.633853257437327
0
LWPOLYLINE
5
117
100
AcDbEntity
8
0
100
AcDbPolyline
90
8
70
1
43
0.0
10
35.527866119127999
20
-24.133853257437316
42
-0.41421356237309503
10
35.027866119127999
20
-23.633853257437316
10
35.027866119127992
20
-10.633853257437327
42
-0.41421356237309503
10
35.527866119127999
20
-10.13385325743732
10
48.527866119127992
20
-10.133853257437329
42
-0.41421356237309503
10
49.027866119127992
20
-10.633853257437327
10
49.027866119128007
20
-23.633853257437316
42
-0.41421356237309503
10
48.527866119127992
20
-24.133853257437323
0
LWPOLYLINE
5
118
100
AcDbEntity
8
0
100
AcDbPolyline
90
8
70
1
43
0.0
10
54.577866119127989
20
-24.133853257437316
42
-0.41421356237309503
10
54.077866119127989
20
-23.633853257437316
10
54.077866119127982
20
-10.633853257437327
42
-0.41421356237309503
10
54.577866119127989
20
-10.13385325743732
10
67.577866119128004
20
-10.133853257437329
42
-0.41421356237309503
10
68.077866119128004
20
-10.633853257437327
10
68.077866119128004
20
-23.633853257437316
42
-0.41421356237309503
10
67.577866119128004
20
-24.133853257437323
0
LWPOLYLINE
5
119
100
AcDbEntity
8
0
100
AcDbPolyline
90
8
70
1
43
0.0
10
86.627866119128001
20
-24.133853257437323
10
73.627866119127987
20
-24.133853257437316
42
-0.41421356237309503
10
73.127866119128001
20
-23.633853257437316
10
73.127866119127987
20
-10.633853257437327
42
-0.41421356237309503
10
73.627866119127987
20
-10.13385325743732
10
86.627866119128001
20
-10.133853257437337
42
-0.41421356237309503
10
87.127866119127987
20
-10.633853257437327
10
87.127866119128015
20
-23.633853257437316
42
-0.41421356237309503
0
LWPOLYLINE
5
120
100
AcDbEntity
8
0
100
AcDbPolyline
90
8
70
1
43
0.0
10
149.327866119128
20
-29.68385325743732
42
-0.41421356237309503
10
149.827866119128
20
-29.183853257437331
10
162.82786611912798
20
-29.183853257437313
42
-0.41421356237309503
10
163.32786611912798
20
-29.68385325743732
10
163.32786611912798
20
-42.683853257437327
42
-0.41421356237309503
10
162.82786611912798
20
-43.183853257437335
10
149.827866119128
20
-43.183853257437335
42
-0.41421356237309503
10
149.327866119128
20
-42.683853257437327
0
LWPOLYLINE
5
121
100
AcDbEntity
8
0
100
AcDbPolyline
90
8
70
1
43
0.0
10
15.977866119127995
20
-48.733853257437325
42
-0.41421356237309503
10
16.477866119127992
20
-48.233853257437325
10
29.477866119127995
20
-48.233853257437325
42
-0.41421356237309503
10
29.977866119127992
20
-48.733853257437325
10
29.977866119127992
20
-61.733853257437332
42
-0.41421356237309503
10
29.477866119127995
20
-62.233853257437332
10
16.477866119127992
20
-62.233853257437332
42
-0.41421356237309503
10
15.977866119127995
20
-61.733853257437332
0
LWPOLYLINE
5
122
100
AcDbEntity
8
0
100
AcDbPolyline
90
8
70
1
43
0.0
10
49.027866119128007
20
-48.733853257437325
10
49.027866119127992
20
-61.733853257437332
42
-0.41421356237309503
10
48.527866119127992
20
-62.233853257437332
10
35.527866119127999
20
-62.233853257437332
42
-0.41421356237309503
10
35.027866119127999
20
-61.733853257437332
10
35.027866119127999
20
-48.733853257437325
42
-0.41421356237309503
10
35.527866119127999
20
-48.233853257437325
10
48.527866119127992
20
-48.233853257437318
42
-0.41421356237309503
0
LWPOLYLINE
5
123
100
AcDbEntity
8
0
100
AcDbPolyline
90
8
70
1
43
0.0
10
220.47786611912798
20
-29.68385325743732
10
220.47786611912801
20
-42.683853257437327
42
-0.41421356237309503
10
219.97786611912801
20
-43.183853257437335
10
206.97786611912801
20
-43.183853257437335
42
-0.41421356237309503
10
206.47786611912801
20
-42.683853257437327
10
206.47786611912801
20
-29.68385325743732
42
-0.41421356237309503
10
206.97786611912801
20
-29.183853257437331
10
219.97786611912801
20
-29.183853257437349
42
-0.41421356237309503
0
LWPOLYLINE
5
124
100
AcDbEntity
8
0
100
AcDbPolyline
90
8
70
1
43
0.0
10
245.07786611912798
20
-43.183853257437335
42
-0.41421356237309503
10
244.57786611912798
20
-42.683853257437327
10
244.57786611912803
20
-29.68385325743732
42
-0.41421356237309503
10
245.07786611912798
20
-29.183853257437331
10
258.07786611912798
20
-29.183853257437313
42
-0.41421356237309503
10
258.57786611912798
20
-29.68385325743732
10
258.57786611912798
20
-42.683853257437327
42
-0.41421356237309503
10
258.07786611912798
20
-43.183853257437327
0
LWPOLYLINE
5
125
100
AcDbEntity
8
0
100
AcDbPolyline
90
8
70
1
43
0.0
10
181.87786611912799
20
-43.183853257437335
10
168.87786611912802
20
-43.183853257437335
42
-0.41421356237309503
10
168.37786611912802
20
-42.683853257437327
10
168.37786611912804
20
-29.68385325743732
42
-0.41421356237309503
10
168.87786611912802
20
-29.183853257437331
10
181.87786611912799
20
-29.183853257437313
42
-0.41421356237309503
10
182.37786611912799
20
-29.68385325743732
10
182.37786611912799
20
-42.683853257437327
42
-0.41421356237309503
0
LWPOLYLINE
5
126
100
AcDbEntity
8
0
100
AcDbPolyline
90
8
70
1
43
0.0
10
201.42786611912797
20
-42.683853257437327
42
-0.41421356237309503
10
200.92786611912797
20
-43.183853257437327
10
187.927866119128
20
-43.183853257437335
42
-0.41421356237309503
10
187.427866119128
20
-42.683853257437327
10
187.427866119128
20
-29.68385325743732
42
-0.41421356237309503
10
187.927866119128
20
-29.183853257437331
10
200.92786611912797
20
-29.183853257437313
42
-0.41421356237309503
10
201.42786611912797
20
-29.68385325743732
0
LWPOLYLINE
5
127
100
AcDbEntity
8
0
100
AcDbPolyline
90
8
70
1
43
0.0
10
225.52786611912796
20
-42.683853257437327
10
225.52786611912802
20
-29.68385325743732
42
-0.41421356237309503
10
226.02786611912796
20
-29.183853257437331
10
239.02786611912799
20
-29.183853257437313
42
-0.41421356237309503
10
239.52786611912799
20
-29.68385325743732
10
239.52786611912799
20
-42.683853257437327
42
-0.41421356237309503
10
239.02786611912799
20
-43.183853257437327
10
226.02786611912796
20
-43.183853257437335
42
-0.41421356237309503
0
LWPOLYLINE
5
128
100
AcDbEntity
8
0
100
AcDbPolyline
90
8
70
1
43
0.0
10
106.17786611912798
20
-61.733853257437332
42
-0.41421356237309503
10
105.677866119128
20
-62.233853257437332
10
92.677866119127984
20
-62.233853257437318
42
-0.41421356237309503
10
92.177866119127998
20
-61.733853257437332
10
92.177866119127998
20
-48.733853257437325
42
-0.41421356237309503
10
92.677866119127984
20
-48.233853257437325
10
105.677866119128
20
-48.233853257437318
42
-0.41421356237309503
10
106.177866119128
20
-48.733853257437325
0
LWPOLYLINE
5
129
100
AcDbEntity
8
0
100
AcDbPolyline
90
8
70
1
43
0.0
10
111.727866119128
20
-62.233853257437339
42
-0.41421356237309503
10
111.227866119128
20
-61.733853257437332
10
111.22786611912801
20
-48.733853257437325
42
-0.41421356237309503
10
111.727866119128
20
-48.233853257437325
10
124.72786611912801
20
-48.233853257437318
42
-0.41421356237309503
10
125.22786611912801
20
-48.733853257437325
10
125.227866119128
20
-61.733853257437332
42
-0.41421356237309503
10
124.72786611912801
20
-62.233853257437332
0
LWPOLYLINE
5
130
100
AcDbEntity
8
0
100
AcDbPolyline
90
8
70
1
43
0.0
10
87.127866119128015
20
-61.733853257437332
42
-0.41421356237309503
10
86.627866119128001
20
-62.233853257437332
10
73.627866119127987
20
-62.233853257437332
42
-0.41421356237309503
10
73.127866119128001
20
-61.733853257437332
10
73.127866119128001
20
-48.733853257437325
42
-0.41421356237309503
10
73.627866119127987
20
-48.233853257437325
10
86.627866119128001
20
-48.233853257437332
42
-0.41421356237309503
10
87.127866119127987
20
-48.733853257437325
0
LWPOLYLINE
5
131
100
AcDbEntity
8
0
100
AcDbPolyline
90
8
70
1
43
0.0
10
67.577866119128004
20
-48.233853257437325
42
-0.41421356237309503
10
68.077866119128004
20
-48.733853257437325
10
68.077866119128004
20
-61.733853257437332
42
-0.41421356237309503
10
67.577866119128004
20
-62.233853257437332
10
54.577866119127989
20
-62.233853257437332
42
-0.41421356237309503
10
54.077866119127989
20
-61.733853257437332
10
54.077866119127989
20
-48.733853257437325
42
-0.41421356237309503
10
54.577866119127989
20
-48.233853257437325
0
LWPOLYLINE
5
132
100
AcDbEntity
8
0
100
AcDbPolyline
90
8
70
1
43
0.0
10
130.27786611912802
20
-48.733853257437325
42
-0.41421356237309503
10
130.77786611912802
20
-48.233853257437325
10
143.77786611912799
20
-48.233853257437318
42
-0.41421356237309503
10
144.27786611912799
20
-48.733853257437325
10
144.27786611912796
20
-61.733853257437332
42
-0.41421356237309503
10
143.77786611912799
20
-62.233853257437332
10
130.77786611912802
20
-62.233853257437339
42
-0.41421356237309503
10
130.27786611912799
20
-61.733853257437332
0
LWPOLYLINE
5
133
100
AcDbEntity
8
0
100
AcDbPolyline
90
8
70
1
43
0.0
10
149.327866119128
20
-61.733853257437332
10
149.327866119128
20
-48.733853257437325
42
-0.41421356237309503
10
149.827866119128
20
-48.233853257437325
10
162.82786611912798
20
-48.233853257437318
42
-0.41421356237309503
10
163.32786611912798
20
-48.733853257437325
10
163.32786611912798
20
-61.733853257437332
42
-0.41421356237309503
10
162.82786611912798
20
-62.233853257437332
10
149.827866119128
20
-62.233853257437339
42
-0.41421356237309503
0
LWPOLYLINE
5
134
100
AcDbEntity
8
0
100
AcDbPolyline
90
8
70
1
43
0.0
10
168.87786611912802
20
-48.233853257437325
10
181.87786611912799
20
-48.233853257437318
42
-0.41421356237309503
10
182.37786611912799
20
-48.733853257437325
10
182.37786611912799
20
-61.733853257437332
42
-0.41421356237309503
10
181.87786611912799
20
-62.233853257437332
10
168.87786611912802
20
-62.233853257437339
42
-0.41421356237309503
10
168.37786611912802
20
-61.733853257437332
10
168.37786611912802
20
-48.733853257437325
42
-0.41421356237309503
0
LWPOLYLINE
5
135
100
AcDbEntity
8
0
100
AcDbPolyline
90
8
70
1
43
0.0
10
187.927866119128
20
-62.233853257437339
42
-0.41421356237309503
10
187.427866119128
20
-61.733853257437332
10
187.427866119128
20
-48.733853257437325
42
-0.41421356237309503
10
187.927866119128
20
-48.233853257437325
10
200.92786611912797
20
-48.233853257437318
42
-0.41421356237309503
10
201.42786611912797
20
-48.733853257437325
10
201.42786611912797
20
-61.733853257437332
42
-0.41421356237309503
10
200.92786611912797
20
-62.233853257437332
0
LWPOLYLINE
5
136
100
AcDbEntity
8
0
100
AcDbPolyline
90
8
70
1
43
0.0
10
39.790366119127995
20
-80.783853257437315
10
39.790366119127995
20
-67.783853257437329
42
-0.41421356237309503
10
40.290366119127995
20
-67.283853257437329
10
53.290366119127995
20
-67.283853257437329
42
-0.41421356237309503
10
53.790366119127995
20
-67.783853257437329
10
53.790366119128009
20
-80.783853257437315
42
-0.41421356237309503
10
53.290366119127995
20
-81.283853257437329
10
40.290366119127995
20
-81.283853257437329
42
-0.41421356237309503
0
LWPOLYLINE
5
137
100
AcDbEntity
8
0
100
AcDbPolyline
90
8
70
1
43
0.0
10
258.07786611912798
20
-62.233853257437332
10
245.07786611912798
20
-62.233853257437339
42
-0.41421356237309503
10
244.57786611912798
20
-61.733853257437332
10
244.57786611912798
20
-48.733853257437325
42
-0.41421356237309503
10
245.07786611912798
20
-48.233853257437325
10
258.07786611912798
20
-48.233853257437318
42
-0.41421356237309503
10
258.57786611912798
20
-48.733853257437325
10
258.57786611912798
20
-61.733853257437332
42
-0.41421356237309503
0
LWPOLYLINE
5
138
100
AcDbEntity
8
0
100
AcDbPolyline
90
8
70
1
43
0.0
10
31.859116119127997
20
-67.283853257437329
42
-0.41421356237309503
10
32.359116119127989
20
-67.783853257437329
10
32.359116119128004
20
-80.783853257437315
42
-0.41421356237309503
10
31.859116119127997
20
-81.283853257437329
10
18.859116119127993
20
-81.283853257437329
42
-0.41421356237309503
10
18.359116119127993
20
-80.783853257437315
10
18.359116119127997
20
-67.783853257437329
42
-0.41421356237309503
10
18.859116119127993
20
-67.283853257437329
0
LWPOLYLINE
5
139
100
AcDbEntity
8
0
100
AcDbPolyline
90
8
70
1
43
0.0
10
225.52786611912796
20
-61.733853257437332
10
225.52786611912796
20
-48.733853257437325
42
-0.41421356237309503
10
226.02786611912796
20
-48.233853257437325
10
239.02786611912799
20
-48.233853257437318
42
-0.41421356237309503
10
239.52786611912799
20
-48.733853257437325
10
239.52786611912799
20
-61.733853257437332
42
-0.41421356237309503
10
239.02786611912799
20
-62.233853257437332
10
226.02786611912796
20
-62.233853257437339
42
-0.41421356237309503
0
LWPOLYLINE
5
140
100
AcDbEntity
8
0
100
AcDbPolyline
90
17
70
1
43
0.0
10
64.102866119127995
20
-67.283853257437329
10
74.721616119127987
20
-67.283853257437329
10
102.20286611912799
20
-67.283853257437329
10
112.821616119128
20
-67.283853257437329
10
121.25961611912797
20
-67.2838532574373
42
-0.41421356237310025
10
121.759616119128
20
-67.783853257437329
10
121.75961611912798
20
-80.783853257437315
42
-0.41421356237309503
10
121.25961611912798
20
-81.283853257437329
10
112.821616119128
20
-81.283853257437329
10
102.20286611912799
20
-81.283853257437329
10
76.627866119127987
20
-81.283853257437329
10
74.721616119127987
20
-81.283853257437329
10
64.102866119127995
20
-81.283853257437329
10
61.721616119127994
20
-81.283853257437329
42
-0.41421356237309503
10
61.221616119128001
20
-80.783853257437315
10
61.221616119128001
20
-67.783853257437329
42
-0.41421356237309503
10
61.721616119127994
20
-67.283853257437329
0
LWPOLYLINE
5
141
100
AcDbEntity
8
0
100
AcDbPolyline
90
8
70
1
43
0.0
10
206.47786611912801
20
-48.733853257437325
42
-0.41421356237309503
10
206.97786611912801
20
-48.233853257437325
10
219.97786611912801
20
-48.233853257437353
42
-0.41421356237309503
10
220.47786611912798
20
-48.733853257437325
10
220.47786611912801
20
-61.733853257437332
42
-0.41421356237309503
10
219.97786611912801
20
-62.233853257437332
10
206.97786611912801
20
-62.233853257437339
42
-0.41421356237309503
10
206.47786611912801
20
-61.733853257437332
0
LWPOLYLINE
5
142
100
AcDbEntity
8
0
100
AcDbPolyline
90
10
70
1
43
0.0
10
143.302866119128
20
-81.283853257437329
10
131.25286611912802
20
-81.283853257437329
10
124.75286611912799
20
-81.2838532574373
42
-0.4142135623730846
10
124.25286611912799
20
-80.783853257437329
10
124.25286611912799
20
-67.783853257437329
42
-0.41421356237309503
10
124.75286611912799
20
-67.283853257437329
10
149.802866119128
20
-67.2838532574373
42
-0.41421356237310542
10
150.30286611912803
20
-67.783853257437343
10
150.302866119128
20
-80.783853257437329
42
-0.4142135623730846
10
149.802866119128
20
-81.283853257437329
0
LWPOLYLINE
5
143
100
AcDbEntity
8
0
100
AcDbPolyline
90
17
70
1
43
0.0
10
161.73411611912798
20
-81.283853257437329
10
153.29611611912802
20
-81.283853257437343
42
-0.41421356237309503
10
152.79611611912799
20
-80.783853257437315
10
152.79611611912802
20
-67.783853257437329
42
-0.41421356237310542
10
153.29611611912802
20
-67.283853257437329
10
161.73411611912798
20
-67.283853257437329
10
172.35286611912798
20
-67.283853257437329
10
199.834116119128
20
-67.283853257437329
10
210.45286611912798
20
-67.283853257437329
10
212.83411611912797
20
-67.283853257437315
42
-0.41421356237309503
10
213.33411611912797
20
-67.783853257437329
10
213.33411611912797
20
-80.783853257437315
42
-0.41421356237309503
10
212.83411611912797
20
-81.283853257437329
10
210.45286611912798
20
-81.283853257437329
10
199.834116119128
20
-81.283853257437329
10
197.927866119128
20
-81.283853257437329
10
172.35286611912798
20
-81.283853257437329
0
LWPOLYLINE
5
144
100
AcDbEntity
8
0
100
AcDbPolyline
90
8
70
1
43
0.0
10
234.26536611912798
20
-67.283853257437329
10
221.26536611912798
20
-67.283853257437329
42
0.41421356237309503
10
220.76536611912798
20
-67.783853257437329
10
220.76536611912798
20
-80.783853257437315
42
0.41421356237309503
10
221.26536611912798
20
-81.283853257437329
10
234.26536611912798
20
-81.283853257437329
42
0.41421356237309503
10
234.76536611912798
20
-80.783853257437315
10
234.76536611912798
20
-67.783853257437329
42
0.41421356237309503
0
LWPOLYLINE
5
145
100
AcDbEntity
8
0
100
AcDbPolyline
90
8
70
1
43
0.0
10
242.19661611912798
20
-67.783853257437329
10
242.19661611912798
20
-80.783853257437315
42
0.41421356237309503
10
242.69661611912798
20
-81.283853257437329
10
255.69661611912801
20
-81.283853257437329
42
0.41421356237309503
10
256.19661611912795
20
-80.783853257437315
10
256.19661611912795
20
-67.783853257437329
42
0.41421356237309503
10
255.69661611912801
20
-67.283853257437329
10
242.69661611912798
20
-67.283853257437329
42
0.41421356237309503
0
LWPOLYLINE
5
146
100
AcDbEntity
8
0
100
AcDbPolyline
90
18
70
1
43
0.0
10
222.77786611912813
20
-5.6088532574402805
10
141.77786611912805
20
-5.6088532574391081
42
0.99999999999999989
10
132.77786611912808
20
-5.6088532574389305
10
51.777866119127921
20
-5.6088532574377359
42
0.99999999999999989
10
42.777866119127921
20
-5.6088532574376035
10
11.452866119127945
20
-5.608853257437123
10
11.452866119127414
20
-41.208853257437156
42
0.99999999999999989
10
11.452866119127281
20
-50.208853257437141
10
11.452866119126739
20
-85.808853257437192
10
72.777866119126813
20
-85.808853257438145
42
0.99999999999999989
10
81.777866119126799
20
-85.808853257438244
10
192.77786611912686
20
-85.808853257439935
42
0.99999999999999989
10
201.77786611912691
20
-85.808853257440035
10
263.10286611912682
20
-85.808853257440944
10
263.10286611912738
20
-50.208853257440886
42
0.99999999999999989
10
263.1028661191275
20
-41.208853257440921
10
263.10286611912801
20
-5.6088532574408898
10
231.77786611912811
20
-5.6088532574403827
42
0.99999999999999989
0
CIRCLE
5
147
100
AcDbEntity
8
0
100
AcDbCircle
10
47.27786611912795
20
-3.6088532574376764
30
0
40
1.1000000000000008
210
0
220
0
230
1
0
CIRCLE
5
148
100
AcDbEntity
8
0
100
AcDbCircle
10
137.27786611912808
20
-3.6088532574390086
30
0
40
1.1000000000000008
210
0
220
0
230
1
0
CIRCLE
5
149
100
AcDbEntity
8
0
100
AcDbCircle
10
227.27786611912816
20
-3.6088532574403587
30
0
40
1.1000000000000008
210
0
220
0
230
1
0
CIRCLE
5
150
100
AcDbEntity
8
0
100
AcDbCircle
10
265.1028661191275
20
-45.708853257440936
30
0
40
1.1000000000000008
210
0
220
0
230
1
0
CIRCLE
5
151
100
AcDbEntity
8
0
100
AcDbCircle
10
197.27786611912683
20
-87.808853257439949
30
0
40
1.1000000000000008
210
0
220
0
230
1
0
CIRCLE
5
152
100
AcDbEntity
8
0
100
AcDbCircle
10
77.27786611912677
20
-87.808853257438159
30
0
40
1.1000000000000008
210
0
220
0
230
1
0
CIRCLE
5
153
100
AcDbEntity
8
0
100
AcDbCircle
10
9.4528661191273464
20
-45.708853257437127
30
0
40
1.1000000000000008
210
0
220
0
230
1
0
ENDSEC
0
SECTION
2
OBJECTS
0
DICTIONARY
5
C
100
AcDbDictionary
3
ACAD_GROUP
350
D
3
ACAD_MLINESTYLE
350
17
0
DICTIONARY
5
D
100
AcDbDictionary
0
DICTIONARY
5
1A
330
C
100
AcDbDictionary
0
DICTIONARY
5
17
100
AcDbDictionary
0
ENDSEC
0
EOF
