0
SECTION
2
HEADER
9
$INSUNITS
70
4
9
$ACADVER
1
AC1014
9
$HANDSEED
5
FFFF
0
ENDSEC
0
SECTION
2
TABLES
0
TABLE
2
VPORT
5
8
100
AcDbSymbolTable
0
ENDTAB
0
TABLE
2
LTYPE
5
5
100
AcDbSymbolTable
0
LTYPE
5
14
100
AcDbSymbolTableRecord
100
AcDbLinetypeTableRecord
2
BYBLOCK
70
0
0
LTYPE
5
15
100
AcDbSymbolTableRecord
100
AcDbLinetypeTableRecord
2
BYLAYER
70
0
0
ENDTAB
0
TABLE
2
LAYER
5
2
100
AcDbSymbolTable
70
2
0
LAYER
5
50
100
AcDbSymbolTableRecord
100
AcDbLayerTableRecord
2
0
70
0
6
CONTINUOUS
0
ENDTAB
0
TABLE
2
STYLE
5
3
100
AcDbSymbolTable
70
1
0
STYLE
5
11
100
AcDbSymbolTableRecord
100
AcDbTextStyleTableRecord
2
STANDARD
70
0
0
ENDTAB
0
TABLE
2
VIEW
5
6
100
AcDbSymbolTable
70
0
0
ENDTAB
0
TABLE
2
UCS
5
7
100
AcDbSymbolTable
70
0
0
ENDTAB
0
TABLE
2
APPID
5
9
100
AcDbSymbolTable
70
2
0
APPID
5
12
100
AcDbSymbolTableRecord
100
AcDbRegAppTableRecord
2
ACAD
70
0
0
ENDTAB
0
TABLE
2
DIMSTYLE
5
A
100
AcDbSymbolTable
70
1
0
ENDTAB
0
TABLE
2
BLOCK_RECORD
5
1
100
AcDbSymbolTable
70
1
0
BLOCK_RECORD
5
1F
100
AcDbSymbolTableRecord
100
AcDbBlockTableRecord
2
*MODEL_SPACE
0
BLOCK_RECORD
5
1B
100
AcDbSymbolTableRecord
100
AcDbBlockTableRecord
2
*PAPER_SPACE
0
ENDTAB
0
ENDSEC
0
SECTION
2
BLOCKS
0
BLOCK
5
20
100
AcDbEntity
100
AcDbBlockBegin
2
*MODEL_SPACE
0
ENDBLK
5
21
100
AcDbEntity
100
AcDbBlockEnd
0
BLOCK
5
1C
100
AcDbEntity
100
AcDbBlockBegin
2
*PAPER_SPACE
0
ENDBLK
5
1D
100
AcDbEntity
100
AcDbBlockEnd
0
ENDSEC
0
SECTION
2
ENTITIES
0
LWPOLYLINE
5
100
100
AcDbEntity
8
0
100
AcDbPolyline
90
8
70
1
43
0.0
10
-242.60000000000002
20
24.574999999999992
42
-0.41421356237310025
10
-243.10000000000002
20
25.075000000000006
10
-243.10000000000002
20
38.075000000000003
42
-0.41421356237313145
10
-242.60000000000002
20
38.575000000000003
10
-229.60000000000002
20
38.575000000000024
42
-0.41421356237310281
10
-229.09999999999999
20
38.075000000000003
10
-229.10000000000002
20
25.07500000000001
42
-0.41421356237301959
10
-229.60000000000002
20
24.57500000000001
0
LWPOLYLINE
5
101
100
AcDbEntity
8
0
100
AcDbPolyline
90
8
70
1
43
0.0
10
-176.42499999999995
20
6.0250000000000004
10
-176.42499999999995
20
19.024999999999999
42
-0.41421356237301177
10
-175.92500000000001
20
19.524999999999999
10
-162.92500000000001
20
19.524999999999967
42
-0.41421356237313406
10
-162.42500000000004
20
19.024999999999999
10
-162.42500000000001
20
6.0250000000000012
42
-0.41421356237309309
10
-162.92500000000001
20
5.5250000000000012
10
-175.92500000000001
20
5.5250000000000208
42
-0.41421356237303714
0
LWPOLYLINE
5
102
100
AcDbEntity
8
0
100
AcDbPolyline
90
8
70
1
43
0.0
10
-86.725000000000023
20
19.524999999999999
42
-0.41421356237308982
10
-86.225000000000023
20
19.024999999999999
10
-86.225000000000023
20
6.0250000000000012
42
-0.41421356237308721
10
-86.725000000000023
20
5.5250000000000012
10
-99.724999999999994
20
5.524999999999995
42
-0.4142135623730937
10
-100.22500000000001
20
6.0250000000000004
10
-100.22500000000001
20
19.024999999999999
42
-0.41421356237313534
10
-99.724999999999994
20
19.524999999999999
0
LWPOLYLINE
5
103
100
AcDbEntity
8
0
100
AcDbPolyline
90
8
70
1
43
0.0
10
-10.525
20
19.525000000000002
42
-0.41421356237308982
10
-10.025000000000002
20
19.024999999999999
10
-10.024999999999995
20
6.0250000000000012
42
-0.41421356237308787
10
-10.525
20
5.5250000000000012
10
-23.524999999999999
20
5.5250000000000021
42
-0.41421356237309503
10
-24.024999999999999
20
6.0250000000000004
10
-24.024999999999999
20
19.024999999999999
42
-0.41421356237309503
10
-23.524999999999999
20
19.524999999999999
0
LWPOLYLINE
5
104
100
AcDbEntity
8
0
100
AcDbPolyline
90
8
70
1
43
0.0
10
-67.174999999999997
20
19.024999999999999
10
-67.174999999999997
20
6.0250000000000012
42
-0.41421356237309825
10
-67.674999999999997
20
5.5250000000000012
10
-80.674999999999983
20
5.5250000000000057
42
-0.41421356237311907
10
-81.174999999999983
20
6.0250000000000004
10
-81.174999999999983
20
19.024999999999999
42
-0.41421356237312101
10
-80.674999999999983
20
19.524999999999999
10
-67.674999999999997
20
19.524999999999999
42
-0.41421356237309503
0
LWPOLYLINE
5
105
100
AcDbEntity
8
0
100
AcDbPolyline
90
8
70
1
43
0.0
10
-157.375
20
19.024999999999999
42
-0.41421356237308593
10
-156.87500000000003
20
19.524999999999999
10
-143.875
20
19.525000000000002
42
-0.41421356237307294
10
-143.37500000000003
20
19.024999999999999
10
-143.37500000000003
20
6.0250000000000012
42
-0.41421356237305601
10
-143.875
20
5.5250000000000012
10
-156.87500000000003
20
5.5249999999999986
42
-0.41421356237309176
10
-157.375
20
6.0250000000000004
0
LWPOLYLINE
5
106
100
AcDbEntity
8
0
100
AcDbPolyline
90
8
70
1
43
0.0
10
-240.21875
20
19.524999999999999
10
-227.21875
20
19.524999999999999
42
-0.41421356237307033
10
-226.71875000000003
20
19.024999999999999
10
-226.71875
20
6.0250000000000012
42
-0.41421356237313212
10
-227.21875
20
5.5250000000000012
10
-240.21875
20
5.5249999999999861
42
-0.4142135623730781
10
-240.71875000000006
20
6.0250000000000004
10
-240.71875000000006
20
19.024999999999999
42
-0.4142135623730599
0
LWPOLYLINE
5
107
100
AcDbEntity
8
0
100
AcDbPolyline
90
8
70
1
43
0.0
10
-34.337499999999999
20
38.575000000000003
42
-0.41421356237309503
10
-33.837499999999999
20
38.075000000000003
10
-33.837499999999991
20
25.075000000000006
42
-0.41421356237309243
10
-34.337499999999991
20
24.57500000000001
10
-47.337499999999999
20
24.57500000000001
42
-0.41421356237310542
10
-47.837499999999991
20
25.075000000000006
10
-47.837499999999991
20
38.075000000000003
42
-0.41421356237307161
10
-47.337499999999999
20
38.575000000000003
0
LWPOLYLINE
5
108
100
AcDbEntity
8
0
100
AcDbPolyline
90
8
70
1
43
0.0
10
-66.387500000000003
20
38.575000000000003
10
-53.38750000000001
20
38.575000000000003
42
-0.41421356237309764
10
-52.887500000000003
20
38.075000000000003
10
-52.887500000000003
20
25.075000000000006
42
-0.41421356237311063
10
-53.387499999999989
20
24.57500000000001
10
-66.387500000000003
20
24.57500000000001
42
-0.41421356237309503
10
-66.887500000000003
20
25.075000000000006
10
-66.887499999999989
20
38.075000000000003
42
-0.41421356237312623
0
LWPOLYLINE
5
109
100
AcDbEntity
8
0
100
AcDbPolyline
90
8
70
1
43
0.0
10
-91.487499999999997
20
24.57500000000001
10
-104.48749999999998
20
24.574999999999999
42
-0.41421356237306384
10
-104.98750000000001
20
25.075000000000006
10
-104.98750000000001
20
38.075000000000003
42
-0.41421356237304041
10
-104.48749999999998
20
38.575000000000003
10
-91.487499999999997
20
38.57500000000001
42
-0.41421356237309243
10
-90.987499999999983
20
38.075000000000003
10
-90.987499999999983
20
25.075000000000006
42
-0.41421356237313145
0
LWPOLYLINE
5
110
100
AcDbEntity
8
0
100
AcDbPolyline
90
8
70
1
43
0.0
10
-162.13750000000002
20
38.075000000000003
42
-0.41421356237312884
10
-161.63749999999999
20
38.575000000000003
10
-148.63750000000005
20
38.575000000000017
42
-0.41421356237304563
10
-148.13750000000005
20
38.075000000000003
10
-148.13749999999999
20
25.075000000000006
42
-0.41421356237313145
10
-148.63749999999999
20
24.57500000000001
10
-161.63749999999999
20
24.575000000000017
42
-0.41421356237312623
10
-162.13750000000002
20
25.075000000000006
0
LWPOLYLINE
5
111
100
AcDbEntity
8
0
100
AcDbPolyline
90
8
70
1
43
0.0
10
-186.73750000000001
20
38.57499999999996
42
-0.41421356237306639
10
-186.23750000000001
20
38.075000000000003
10
-186.23750000000001
20
25.075000000000006
42
-0.41421356237304563
10
-186.73750000000001
20
24.57500000000001
10
-199.73750000000001
20
24.575000000000017
42
-0.41421356237312623
10
-200.23750000000004
20
25.075000000000006
10
-200.23750000000004
20
38.075000000000003
42
-0.41421356237312884
10
-199.73750000000001
20
38.575000000000003
0
LWPOLYLINE
5
112
100
AcDbEntity
8
0
100
AcDbPolyline
90
8
70
1
43
0.0
10
-195.47499999999999
20
6.0250000000000004
10
-195.47499999999999
20
19.024999999999999
42
-0.41421356237298318
10
-194.97500000000002
20
19.524999999999999
10
-181.97500000000002
20
19.525000000000013
42
-0.41421356237314055
10
-181.47500000000002
20
19.024999999999999
10
-181.47500000000002
20
6.0250000000000012
42
-0.41421356237313212
10
-181.97500000000002
20
5.5250000000000012
10
-194.97500000000002
20
5.5250000000000252
42
-0.41421356237309698
0
LWPOLYLINE
5
113
100
AcDbEntity
8
0
100
AcDbPolyline
90
8
70
1
43
0.0
10
-119.27500000000002
20
6.0250000000000004
10
-119.27500000000002
20
19.024999999999999
42
-0.41421356237310936
10
-118.77500000000001
20
19.524999999999999
10
-105.77500000000001
20
19.524999999999991
42
-0.41421356237311713
10
-105.27500000000002
20
19.024999999999999
10
-105.27500000000001
20
6.0250000000000012
42
-0.41421356237311713
10
-105.77500000000001
20
5.5250000000000012
10
-118.77500000000001
20
5.5250000000000199
42
-0.41421356237312101
0
LWPOLYLINE
5
114
100
AcDbEntity
8
0
100
AcDbPolyline
90
8
70
1
43
0.0
10
-29.074999999999996
20
6.0250000000000012
42
-0.41421356237309503
10
-29.574999999999999
20
5.5250000000000012
10
-42.575000000000003
20
5.5249999999999968
42
-0.41421356237308787
10
-43.075000000000003
20
6.0250000000000004
10
-43.07500000000001
20
19.024999999999999
42
-0.41421356237312495
10
-42.575000000000003
20
19.524999999999999
10
-29.57500000000001
20
19.524999999999999
42
-0.41421356237309243
10
-29.075000000000006
20
19.024999999999999
0
LWPOLYLINE
5
115
100
AcDbEntity
8
0
100
AcDbPolyline
90
8
70
1
43
0.0
10
-48.125000000000007
20
19.024999999999999
10
-48.125000000000007
20
6.0250000000000012
42
-0.41421356237309825
10
-48.625000000000007
20
5.5250000000000012
10
-61.625000000000021
20
5.525000000000011
42
-0.414213562373069
10
-62.125
20
6.0250000000000004
10
-62.125
20
19.024999999999999
42
-0.41421356237311974
10
-61.625000000000021
20
19.524999999999999
10
-48.625000000000007
20
19.525000000000002
42
-0.41421356237308721
0
LWPOLYLINE
5
116
100
AcDbEntity
8
0
100
AcDbPolyline
90
8
70
1
43
0.0
10
-137.82500000000002
20
5.5250000000000075
42
-0.4142135623730866
10
-138.32499999999999
20
6.0250000000000004
10
-138.32499999999999
20
19.024999999999999
42
-0.41421356237308593
10
-137.82500000000002
20
19.524999999999999
10
-124.82500000000002
20
19.524999999999991
42
-0.41421356237311713
10
-124.32500000000003
20
19.024999999999999
10
-124.32500000000003
20
6.0250000000000012
42
-0.41421356237304169
10
-124.82500000000002
20
5.5250000000000012
0
LWPOLYLINE
5
117
100
AcDbEntity
8
0
100
AcDbPolyline
90
8
70
1
43
0.0
10
-214.52500000000001
20
19.024999999999999
42
-0.41421356237307294
10
-214.02500000000003
20
19.524999999999999
10
-201.02500000000003
20
19.52499999999997
42
-0.41421356237309503
10
-200.52500000000006
20
19.024999999999999
10
-200.52500000000006
20
6.0250000000000012
42
-0.4142135623731022
10
-201.02500000000003
20
5.5250000000000012
10
-214.02500000000003
20
5.5249999999999808
42
-0.41421356237308138
10
-214.52500000000001
20
6.0250000000000004
0
LWPOLYLINE
5
118
100
AcDbEntity
8
0
100
AcDbPolyline
90
8
70
1
43
0.0
10
-85.9375
20
25.075000000000006
10
-85.937499999999986
20
38.075000000000003
42
-0.41421356237310802
10
-85.437500000000014
20
38.575000000000003
10
-72.4375
20
38.57500000000001
42
-0.41421356237308982
10
-71.9375
20
38.075000000000003
10
-71.9375
20
25.075000000000006
42
-0.41421356237313406
10
-72.4375
20
24.57500000000001
10
-85.437500000000014
20
24.574999999999999
42
-0.4142135623730846
0
LWPOLYLINE
5
119
100
AcDbEntity
8
0
100
AcDbPolyline
90
8
70
1
43
0.0
10
-12.906250000000002
20
24.57500000000001
10
-25.90625
20
24.57500000000001
42
-0.41421356237309503
10
-26.40625
20
25.075000000000006
10
-26.40625
20
38.075000000000003
42
-0.41421356237309503
10
-25.90625
20
38.575000000000003
10
-12.906250000000004
20
38.575000000000017
42
-0.41421356237309115
10
-12.40625
20
38.075000000000003
10
-12.406249999999993
20
25.07500000000001
42
-0.4142135623730937
0
ARC
5
120
100
AcDbEntity
8
0
100
AcDbCircle
10
-254.04794776119405
20
3.9582576555808151
30
0
40
0.49999999999996869
210
0
220
0
230
1
100
AcDbArc
50
101.18805575132092
51
232.12078032547848
0
ARC
5
121
100
AcDbEntity
8
0
100
AcDbCircle
10
-252.71250000000006
20
5.6750000000000007
30
0
40
2.6749999999999918
210
0
220
0
230
1
100
AcDbArc
50
232.12078032547907
51
270
0
LINE
5
122
100
AcDbEntity
8
0
100
AcDbLine
10
-252.71250000000006
20
3.0000000000000142
30
0
11
-5.1749999988183504
21
3.0000000000000004
31
0
0
ARC
5
123
100
AcDbEntity
8
0
100
AcDbCircle
10
-5.1750000003942507
20
5.6749999999989074
30
0
40
2.6749999999989078
210
0
220
0
230
1
100
AcDbArc
50
270.00000003375419
51
307.87921976709686
0
ARC
5
124
100
AcDbEntity
8
0
100
AcDbCircle
10
-3.8395522354588119
20
3.9582576564936001
30
0
40
0.50000000000000144
210
0
220
0
230
1
100
AcDbArc
50
-52.120780232902959
51
78.81194436038804
0
ARC
5
125
100
AcDbEntity
8
0
100
AcDbCircle
10
-6.0000000000000053
20
9.8499999999999996
30
0
40
1.4999999999999969
210
0
220
0
230
1
100
AcDbArc
50
180
51
269.99999999999994
0
LINE
5
126
100
AcDbEntity
8
0
100
AcDbLine
10
-6.0000000000000053
20
73.850000000000023
30
0
11
-5.1749999999999972
21
73.850000000000023
31
0
0
LINE
5
127
100
AcDbEntity
8
0
100
AcDbLine
10
-7.5000000000000018
20
9.8499999999999996
30
0
11
-7.499999999999992
21
72.350000000000023
31
0
0
ARC
5
128
100
AcDbEntity
8
0
100
AcDbCircle
10
-3.8395522388059722
20
74.808257655580817
30
0
40
0.49999999999999623
210
0
220
0
230
1
100
AcDbArc
50
-52.120780325478826
51
78.81194424867796
0
LINE
5
129
100
AcDbEntity
8
0
100
AcDbLine
10
-5.1750000003942498
20
8.3500000015748039
30
0
11
-6.0000000000000062
21
8.3500000000000032
31
0
0
ARC
5
130
100
AcDbEntity
8
0
100
AcDbCircle
10
-3.5000000000000004
20
5.6750000015748068
30
0
40
1.2499999999999998
210
0
220
0
230
1
100
AcDbArc
50
101.18805574742368
51
258.81194436038811
0
ARC
5
131
100
AcDbEntity
8
0
100
AcDbCircle
10
-5.1749999999999847
20
76.525000000000006
30
0
40
2.6749999999999918
210
0
220
0
230
1
100
AcDbArc
50
269.99999999999972
51
307.87921967452115
0
ARC
5
132
100
AcDbEntity
8
0
100
AcDbCircle
10
-3.4999999999999964
20
76.525000000000006
30
0
40
1.2499999999999953
210
0
220
0
230
1
100
AcDbArc
50
101.18805575132208
51
258.81194424867738
0
ARC
5
133
100
AcDbEntity
8
0
100
AcDbCircle
10
-3.8395522388059606
20
78.24174234441918
30
0
40
0.49999999999998612
210
0
220
0
230
1
100
AcDbArc
50
-78.811944248677634
51
52.120780325479103
0
ARC
5
134
100
AcDbEntity
8
0
100
AcDbCircle
10
-3.8395522386891545
20
7.3917423460170886
30
0
40
0.49999999999999922
210
0
220
0
230
1
100
AcDbArc
50
-78.811944252576424
51
52.120780340715108
0
ARC
5
135
100
AcDbEntity
8
0
100
AcDbCircle
10
-5.1749999999999847
20
76.525000000000006
30
0
40
2.6749999999999821
210
0
220
-0
230
1
100
AcDbArc
50
52.120780325478492
51
89.999999999999972
0
LINE
5
136
100
AcDbEntity
8
0
100
AcDbLine
10
-5.1749999999999829
20
79.199999999999989
30
0
11
-252.71250000000006
21
79.200000000000003
31
0
0
ARC
5
137
100
AcDbEntity
8
0
100
AcDbCircle
10
-5.1750000003942507
20
5.6749999999989074
30
0
40
2.6750000015758961
210
0
220
-0
230
1
100
AcDbArc
50
52.120780340714987
51
89.999999999999986
0
ARC
5
138
100
AcDbEntity
8
0
100
AcDbCircle
10
-6.0000000000000062
20
72.350000000000023
30
0
40
1.4999999999999858
210
0
220
-0
230
1
100
AcDbArc
50
89.999999999999972
51
180
0
ARC
5
139
100
AcDbEntity
8
0
100
AcDbCircle
10
-252.71250000000006
20
76.525000000000006
30
0
40
2.6750000000000007
210
0
220
-0
230
1
100
AcDbArc
50
90
51
127.87921967452094
0
ARC
5
140
100
AcDbEntity
8
0
100
AcDbCircle
10
-254.38749999999999
20
76.524999999999977
30
0
40
1.2499999999999964
210
0
220
0
230
1
100
AcDbArc
50
-78.81194424867968
51
78.81194424867968
0
LINE
5
141
100
AcDbEntity
8
0
100
AcDbLine
10
-252.71250000000006
20
73.84999999999998
30
0
11
-251.88750000000005
21
73.850000000000023
31
0
0
ARC
5
142
100
AcDbEntity
8
0
100
AcDbCircle
10
-251.88750000000005
20
72.34999999999998
30
0
40
1.5000000000000568
210
0
220
0
230
1
100
AcDbArc
50
0
51
90
0
LINE
5
143
100
AcDbEntity
8
0
100
AcDbLine
10
-250.38749999999999
20
72.34999999999998
30
0
11
-250.38750000000007
21
9.8500000000000032
31
0
0
ARC
5
144
100
AcDbEntity
8
0
100
AcDbCircle
10
-252.71250000000006
20
5.6750000000000007
30
0
40
2.6749999999999985
210
0
220
-0
230
1
100
AcDbArc
50
90
51
127.87921967452226
0
ARC
5
145
100
AcDbEntity
8
0
100
AcDbCircle
10
-254.04794776119405
20
7.3917423444191774
30
0
40
0.49999999999999289
210
0
220
0
230
1
100
AcDbArc
50
127.87921967452826
51
258.8119442486763
0
ARC
5
146
100
AcDbEntity
8
0
100
AcDbCircle
10
-254.38749999999999
20
5.674999999999998
30
0
40
1.2500000000000262
210
0
220
0
230
1
100
AcDbArc
50
-78.811944248678657
51
78.811944248679779
0
ARC
5
147
100
AcDbEntity
8
0
100
AcDbCircle
10
-254.04794776119405
20
74.808257655580817
30
0
40
0.49999999999999573
210
0
220
0
230
1
100
AcDbArc
50
101.18805575132397
51
232.12078032547967
0
ARC
5
148
100
AcDbEntity
8
0
100
AcDbCircle
10
-254.04794776119405
20
78.24174234441918
30
0
40
0.49999999999997902
210
0
220
0
230
1
100
AcDbArc
50
127.87921967452091
51
258.81194424867698
0
LINE
5
149
100
AcDbEntity
8
0
100
AcDbLine
10
-251.88749999999999
20
8.3499999999999979
30
0
11
-252.71250000000006
21
8.3499999999999996
31
0
0
ARC
5
150
100
AcDbEntity
8
0
100
AcDbCircle
10
-251.88750000000005
20
9.8500000000000369
30
0
40
1.500000000000038
210
0
220
0
230
1
100
AcDbArc
50
270.0000000000021
51
360
0
ARC
5
151
100
AcDbEntity
8
0
100
AcDbCircle
10
-252.71250000000006
20
76.525000000000006
30
0
40
2.6749999999999989
210
0
220
0
230
1
100
AcDbArc
50
232.12078032547939
51
270
0
CIRCLE
5
152
100
AcDbEntity
8
0
100
AcDbCircle
10
-45.600000000000016
20
11.275000000000002
30
0
40
0.75000000000000189
210
0
220
0
230
1
0
CIRCLE
5
153
100
AcDbEntity
8
0
100
AcDbCircle
10
-121.8
20
11.275000000000002
30
0
40
0.74999999999999301
210
0
220
0
230
1
0
CIRCLE
5
154
100
AcDbEntity
8
0
100
AcDbCircle
10
-83.700000000000017
20
11.275000000000002
30
0
40
0.74999999999999301
210
0
220
0
230
1
0
CIRCLE
5
155
100
AcDbEntity
8
0
100
AcDbCircle
10
-198
20
11.275000000000002
30
0
40
0.74999999999999301
210
0
220
0
230
1
0
CIRCLE
5
156
100
AcDbEntity
8
0
100
AcDbCircle
10
-178.94999999999999
20
11.275000000000002
30
0
40
0.74999999999999301
210
0
220
0
230
1
0
CIRCLE
5
157
100
AcDbEntity
8
0
100
AcDbCircle
10
-140.85000000000005
20
11.275000000000002
30
0
40
0.74999999999999301
210
0
220
0
230
1
0
CIRCLE
5
158
100
AcDbEntity
8
0
100
AcDbCircle
10
-159.90000000000003
20
11.275000000000002
30
0
40
0.74999999999999301
210
0
220
0
230
1
0
CIRCLE
5
159
100
AcDbEntity
8
0
100
AcDbCircle
10
-26.550000000000004
20
11.275000000000002
30
0
40
0.75000000000000189
210
0
220
0
230
1
0
CIRCLE
5
160
100
AcDbEntity
8
0
100
AcDbCircle
10
-102.75
20
11.275000000000002
30
0
40
0.74999999999999301
210
0
220
0
230
1
0
CIRCLE
5
161
100
AcDbEntity
8
0
100
AcDbCircle
10
-64.650000000000006
20
11.275000000000002
30
0
40
0.75000000000000189
210
0
220
0
230
1
0
LWPOLYLINE
5
162
100
AcDbEntity
8
0
100
AcDbPolyline
90
8
70
1
43
0.0
10
-124.03750000000001
20
25.075000000000006
10
-124.03750000000001
20
38.075000000000003
42
-0.41421356237306639
10
-123.53749999999999
20
38.575000000000003
10
-110.53750000000001
20
38.57500000000001
42
-0.41421356237309243
10
-110.03749999999999
20
38.075000000000003
10
-110.03749999999999
20
25.075000000000006
42
-0.41421356237313145
10
-110.53750000000001
20
24.57500000000001
10
-123.53749999999999
20
24.574999999999996
42
-0.41421356237305601
0
LWPOLYLINE
5
163
100
AcDbEntity
8
0
100
AcDbPolyline
90
8
70
1
43
0.0
10
-167.6875
20
24.57500000000001
10
-180.6875
20
24.57500000000001
42
-0.41421356237304818
10
-181.18750000000003
20
25.075000000000006
10
-181.18750000000003
20
38.075000000000003
42
-0.41421356237312884
10
-180.6875
20
38.575000000000003
10
-167.6875
20
38.575000000000053
42
-0.41421356237311846
10
-167.1875
20
38.075000000000003
10
-167.1875
20
25.075000000000006
42
-0.41421356237313145
0
LWPOLYLINE
5
164
100
AcDbEntity
8
0
100
AcDbPolyline
90
8
70
1
43
0.0
10
-143.08750000000001
20
38.075000000000003
42
-0.41421356237313145
10
-142.58750000000001
20
38.575000000000003
10
-129.58750000000003
20
38.575000000000003
42
-0.41421356237308721
10
-129.08750000000001
20
38.075000000000003
10
-129.08750000000001
20
25.075000000000006
42
-0.41421356237309243
10
-129.58750000000003
20
24.57500000000001
10
-142.58749999999998
20
24.57500000000001
42
-0.41421356237308982
10
-143.08750000000001
20
25.075000000000006
0
LWPOLYLINE
5
165
100
AcDbEntity
8
0
100
AcDbPolyline
90
8
70
1
43
0.0
10
-219.28750000000002
20
25.075000000000006
10
-219.28750000000002
20
38.075000000000003
42
-0.41421356237317569
10
-218.78749999999999
20
38.575000000000003
10
-205.78749999999999
20
38.574999999999974
42
-0.41421356237309503
10
-205.28750000000002
20
38.075000000000003
10
-205.28750000000002
20
25.075000000000006
42
-0.41421356237298318
10
-205.78749999999999
20
24.57500000000001
10
-218.78749999999999
20
24.574999999999992
42
-0.41421356237310025
0
LWPOLYLINE
5
166
100
AcDbEntity
8
0
100
AcDbPolyline
90
8
70
1
43
0.0
10
-17.168750000000024
20
57.125000000000021
10
-17.168750000000024
20
44.125000000000014
42
-0.41421356237309503
10
-17.668749999999996
20
43.625000000000043
10
-30.668749999999992
20
43.625000000000007
42
-0.41421356237309503
10
-31.168749999999999
20
44.125000000000014
10
-31.168749999999999
20
57.125000000000021
42
-0.41421356237309503
10
-30.668749999999992
20
57.625000000000028
10
-17.668749999999996
20
57.624999999999993
42
-0.41421356237309503
0
LWPOLYLINE
5
167
100
AcDbEntity
8
0
100
AcDbPolyline
90
8
70
1
43
0.0
10
-43.362499999999997
20
57.125000000000057
10
-43.362500000000033
20
44.125000000000014
42
-0.41421356237309503
10
-43.862500000000004
20
43.625000000000043
10
-56.862500000000011
20
43.625000000000043
42
-0.41421356237309503
10
-57.362499999999983
20
44.125000000000014
10
-57.362499999999983
20
57.125000000000057
42
-0.41421356237309503
10
-56.862500000000011
20
57.625000000000028
10
-43.862500000000004
20
57.625000000000064
42
-0.41421356237309503
0
LWPOLYLINE
5
168
100
AcDbEntity
8
0
100
AcDbPolyline
90
8
70
1
43
0.0
10
-62.412500000000009
20
57.125000000000057
10
-62.412500000000044
20
44.125000000000014
42
-0.41421356237309503
10
-62.912500000000016
20
43.625000000000043
10
-75.912500000000009
20
43.625000000000007
42
-0.41421356237309503
10
-76.412500000000009
20
44.125000000000014
10
-76.41249999999998
20
57.125000000000057
42
-0.41421356237309503
10
-75.912500000000009
20
57.625000000000028
10
-62.912500000000016
20
57.625000000000064
42
-0.41421356237309503
0
LWPOLYLINE
5
169
100
AcDbEntity
8
0
100
AcDbPolyline
90
8
70
1
43
0.0
10
-81.462500000000034
20
57.125000000000057
10
-81.462500000000034
20
44.125000000000014
42
-0.41421356237309503
10
-81.962500000000006
20
43.625000000000043
10
-94.962500000000048
20
43.625000000000043
42
-0.41421356237309503
10
-95.46250000000002
20
44.125000000000014
10
-95.46250000000002
20
57.125000000000057
42
-0.41421356237309503
10
-94.962500000000048
20
57.625000000000028
10
-81.962500000000006
20
57.625000000000028
42
-0.41421356237309503
0
LWPOLYLINE
5
170
100
AcDbEntity
8
0
100
AcDbPolyline
90
8
70
1
43
0.0
10
-100.51250000000002
20
57.125000000000057
10
-100.51250000000005
20
44.125000000000014
42
-0.41421356237309503
10
-101.01250000000002
20
43.625000000000043
10
-114.01250000000003
20
43.625000000000007
42
-0.41421356237309503
10
-114.51250000000003
20
44.125000000000014
10
-114.5125
20
57.125000000000057
42
-0.41421356237309503
10
-114.01250000000003
20
57.625000000000028
10
-101.01250000000002
20
57.625000000000064
42
-0.41421356237309503
0
LWPOLYLINE
5
171
100
AcDbEntity
8
0
100
AcDbPolyline
90
8
70
1
43
0.0
10
-119.56250000000003
20
57.125000000000057
10
-119.56250000000006
20
44.125000000000014
42
-0.41421356237309503
10
-120.06250000000003
20
43.625000000000043
10
-133.06250000000003
20
43.625000000000007
42
-0.41421356237309503
10
-133.56250000000003
20
44.125000000000014
10
-133.5625
20
57.125000000000057
42
-0.41421356237309503
10
-133.06250000000003
20
57.625000000000028
10
-120.06250000000003
20
57.625000000000064
42
-0.41421356237309503
0
LWPOLYLINE
5
172
100
AcDbEntity
8
0
100
AcDbPolyline
90
8
70
1
43
0.0
10
-138.61250000000004
20
57.125000000000057
10
-138.61250000000007
20
44.125000000000014
42
-0.41421356237309503
10
-139.11250000000004
20
43.625000000000043
10
-152.11250000000001
20
43.625000000000043
42
-0.41421356237309503
10
-152.61249999999998
20
44.125000000000014
10
-152.61249999999998
20
57.125000000000057
42
-0.41421356237309503
10
-152.11250000000001
20
57.625000000000028
10
-139.11250000000004
20
57.625000000000064
42
-0.41421356237309503
0
LWPOLYLINE
5
173
100
AcDbEntity
8
0
100
AcDbPolyline
90
8
70
1
43
0.0
10
-157.66250000000002
20
57.125000000000057
10
-157.66250000000002
20
44.125000000000014
42
-0.41421356237309503
10
-158.16249999999999
20
43.625000000000043
10
-171.16250000000002
20
43.625000000000043
42
-0.41421356237309503
10
-171.66249999999997
20
44.125000000000014
10
-171.66249999999997
20
57.125000000000057
42
-0.41421356237309503
10
-171.16250000000002
20
57.625000000000028
10
-158.16249999999999
20
57.625000000000028
42
-0.41421356237309503
0
LWPOLYLINE
5
174
100
AcDbEntity
8
0
100
AcDbPolyline
90
8
70
1
43
0.0
10
-176.71250000000001
20
57.125000000000057
10
-176.71250000000001
20
44.125000000000014
42
-0.41421356237309503
10
-177.21249999999998
20
43.625000000000043
10
-190.21250000000003
20
43.625000000000078
42
-0.41421356237309503
10
-190.71249999999998
20
44.12500000000005
10
-190.71250000000003
20
57.125000000000057
42
-0.41421356237309503
10
-190.21250000000003
20
57.625000000000064
10
-177.21249999999998
20
57.625000000000028
42
-0.41421356237309503
0
LWPOLYLINE
5
175
100
AcDbEntity
8
0
100
AcDbPolyline
90
8
70
1
43
0.0
10
-195.76249999999993
20
57.125000000000057
10
-195.76249999999999
20
44.12500000000005
42
-0.41421356237309503
10
-196.26249999999999
20
43.625000000000043
10
-209.26249999999996
20
43.625000000000007
42
-0.41421356237309503
10
-209.76249999999999
20
44.12500000000005
10
-209.76249999999996
20
57.125000000000057
42
-0.41421356237309503
10
-209.26249999999996
20
57.625000000000064
10
-196.26249999999999
20
57.625000000000099
42
-0.41421356237309503
0
LWPOLYLINE
5
176
100
AcDbEntity
8
0
100
AcDbPolyline
90
8
70
1
43
0.0
10
-214.81250000000003
20
57.125000000000057
10
-214.8125
20
44.12500000000005
42
-0.41421356237309503
10
-215.3125
20
43.625000000000043
10
-228.31249999999997
20
43.625000000000007
42
-0.41421356237309503
10
-228.8125
20
44.12500000000005
10
-228.81249999999997
20
57.125000000000057
42
-0.41421356237309503
10
-228.31249999999997
20
57.625000000000064
10
-215.3125
20
57.625000000000028
42
-0.41421356237309503
0
LWPOLYLINE
5
177
100
AcDbEntity
8
0
100
AcDbPolyline
90
8
70
1
43
0.0
10
-233.86250000000004
20
57.125000000000057
10
-233.86250000000001
20
44.12500000000005
42
-0.41421356237309503
10
-234.36250000000001
20
43.625000000000043
10
-247.36249999999998
20
43.625000000000007
42
-0.41421356237309503
10
-247.86250000000001
20
44.12500000000005
10
-247.86249999999998
20
57.125000000000057
42
-0.41421356237309503
10
-247.36249999999998
20
57.625000000000064
10
-234.36250000000001
20
57.625000000000028
42
-0.41421356237309503
0
LWPOLYLINE
5
178
100
AcDbEntity
8
0
100
AcDbPolyline
90
8
70
1
43
0.0
10
-233.86250000000004
20
76.175000000000068
10
-233.86250000000001
20
63.175000000000061
42
-0.41421356237309503
10
-234.36250000000001
20
62.675000000000054
10
-247.36249999999998
20
62.675000000000018
42
-0.41421356237309503
10
-247.86250000000001
20
63.175000000000061
10
-247.86249999999995
20
76.175000000000068
42
-0.41421356237309503
10
-247.36249999999998
20
76.67500000000004
10
-234.36250000000001
20
76.67500000000004
42
-0.41421356237309503
0
LWPOLYLINE
5
179
100
AcDbEntity
8
0
100
AcDbPolyline
90
8
70
1
43
0.0
10
-214.81250000000003
20
76.175000000000068
10
-214.8125
20
63.175000000000061
42
-0.41421356237309503
10
-215.3125
20
62.675000000000054
10
-228.31249999999997
20
62.675000000000018
42
-0.41421356237309503
10
-228.8125
20
63.175000000000061
10
-228.81249999999994
20
76.175000000000068
42
-0.41421356237309503
10
-228.31249999999997
20
76.67500000000004
10
-215.3125
20
76.67500000000004
42
-0.41421356237309503
0
LWPOLYLINE
5
180
100
AcDbEntity
8
0
100
AcDbPolyline
90
8
70
1
43
0.0
10
-195.76249999999993
20
76.175000000000068
10
-195.76249999999999
20
63.175000000000061
42
-0.41421356237309503
10
-196.26249999999999
20
62.675000000000054
10
-209.26249999999996
20
62.675000000000018
42
-0.41421356237309503
10
-209.76249999999999
20
63.175000000000061
10
-209.76249999999993
20
76.175000000000068
42
-0.41421356237309503
10
-209.26249999999996
20
76.67500000000004
10
-196.26249999999999
20
76.675000000000111
42
-0.41421356237309503
0
LWPOLYLINE
5
181
100
AcDbEntity
8
0
100
AcDbPolyline
90
8
70
1
43
0.0
10
-157.66250000000002
20
76.175000000000068
10
-157.66250000000002
20
63.175000000000026
42
-0.41421356237309503
10
-158.16249999999999
20
62.675000000000054
10
-171.16250000000002
20
62.675000000000054
42
-0.41421356237309503
10
-171.66249999999997
20
63.175000000000026
10
-171.66249999999997
20
76.175000000000068
42
-0.41421356237309503
10
-171.16250000000002
20
76.67500000000004
10
-158.16249999999999
20
76.67500000000004
42
-0.41421356237309503
0
LWPOLYLINE
5
182
100
AcDbEntity
8
0
100
AcDbPolyline
90
8
70
1
43
0.0
10
-149.11250000000004
20
76.67500000000004
10
-142.11250000000001
20
76.675000000000068
42
-0.41421356237309503
10
-141.61250000000001
20
76.175000000000068
10
-141.61250000000001
20
62.175000000000047
42
-0.41421356237309503
10
-142.11250000000001
20
61.67500000000004
10
-149.11250000000004
20
61.675000000000075
42
-0.41421356237309503
10
-149.61250000000001
20
62.175000000000047
10
-149.61250000000001
20
76.175000000000068
42
-0.41421356237309503
0
LWPOLYLINE
5
183
100
AcDbEntity
8
0
100
AcDbPolyline
90
8
70
1
43
0.0
10
-179.71249999999998
20
76.175000000000068
10
-179.71250000000001
20
62.175000000000047
42
-0.41421356237309503
10
-180.21250000000003
20
61.67500000000004
10
-187.21249999999998
20
61.67500000000004
42
-0.41421356237309503
10
-187.71250000000003
20
62.175000000000082
10
-187.71249999999995
20
76.175000000000068
42
-0.41421356237309503
10
-187.21249999999998
20
76.67500000000004
10
-180.21250000000003
20
76.675000000000111
42
-0.41421356237309503
0
LWPOLYLINE
5
184
100
AcDbEntity
8
0
100
AcDbPolyline
90
8
70
1
43
0.0
10
-120.06250000000003
20
62.675000000000054
10
-133.06250000000003
20
62.675000000000018
42
-0.41421356237309503
10
-133.56250000000003
20
63.175000000000026
10
-133.5625
20
76.175000000000068
42
-0.41421356237309503
10
-133.06250000000003
20
76.67500000000004
10
-120.06250000000003
20
76.675000000000068
42
-0.41421356237309503
10
-119.56250000000003
20
76.175000000000068
10
-119.56250000000006
20
63.175000000000026
42
-0.41421356237309503
0
LWPOLYLINE
5
185
100
AcDbEntity
8
0
100
AcDbPolyline
90
8
70
1
43
0.0
10
-81.462500000000034
20
76.175000000000068
10
-81.462500000000034
20
63.175000000000026
42
-0.41421356237309503
10
-81.962500000000006
20
62.675000000000054
10
-94.962500000000048
20
62.675000000000054
42
-0.41421356237309503
10
-95.46250000000002
20
63.175000000000026
10
-95.46250000000002
20
76.175000000000068
42
-0.41421356237309503
10
-94.962500000000048
20
76.67500000000004
10
-81.962500000000006
20
76.67500000000004
42
-0.41421356237309503
0
LWPOLYLINE
5
186
100
AcDbEntity
8
0
100
AcDbPolyline
90
8
70
1
43
0.0
10
-103.51250000000002
20
76.175000000000068
10
-103.51250000000002
20
62.175000000000047
42
-0.41421356237309503
10
-104.01250000000003
20
61.67500000000004
10
-111.01250000000002
20
61.675000000000004
42
-0.41421356237309503
10
-111.51250000000006
20
62.175000000000047
10
-111.51249999999999
20
76.175000000000068
42
-0.41421356237309503
10
-111.01250000000002
20
76.67500000000004
10
-104.01250000000003
20
76.675000000000068
42
-0.41421356237309503
0
LWPOLYLINE
5
187
100
AcDbEntity
8
0
100
AcDbPolyline
90
8
70
1
43
0.0
10
-65.912500000000023
20
61.67500000000004
10
-72.912499999999994
20
61.67500000000004
42
-0.41421356237309503
10
-73.412500000000009
20
62.175000000000047
10
-73.412499999999966
20
76.175000000000068
42
-0.41421356237309503
10
-72.912499999999994
20
76.67500000000004
10
-65.912500000000023
20
76.675000000000068
42
-0.41421356237309503
10
-65.412500000000023
20
76.175000000000068
10
-65.412500000000023
20
62.175000000000047
42
-0.41421356237309503
0
LWPOLYLINE
5
188
100
AcDbEntity
8
0
100
AcDbPolyline
90
8
70
1
43
0.0
10
-40.981249999999996
20
76.175000000000068
10
-40.981250000000031
20
63.175000000000026
42
-0.41421356237309503
10
-41.481250000000003
20
62.675000000000054
10
-54.48125000000001
20
62.675000000000018
42
-0.41421356237309503
10
-54.981250000000017
20
63.175000000000026
10
-54.981249999999982
20
76.175000000000068
42
-0.41421356237309503
10
-54.48125000000001
20
76.67500000000004
10
-41.481250000000003
20
76.675000000000068
42
-0.41421356237309503
0
LWPOLYLINE
5
189
100
AcDbEntity
8
0
100
AcDbPolyline
90
8
70
1
43
0.0
10
-14.787500000000025
20
76.17500000000004
10
-14.787499999999989
20
63.175000000000026
42
-0.41421356237309503
10
-15.287499999999996
20
62.675000000000018
10
-28.287500000000009
20
62.675000000000018
42
-0.41421356237309503
10
-28.787500000000016
20
63.175000000000026
10
-28.787500000000016
20
76.17500000000004
42
-0.41421356237309503
10
-28.287500000000009
20
76.67500000000004
10
-15.287499999999996
20
76.675000000000011
42
-0.41421356237309503
0
ENDSEC
0
SECTION
2
OBJECTS
0
DICTIONARY
5
C
100
AcDbDictionary
3
ACAD_GROUP
350
D
3
ACAD_MLINESTYLE
350
17
0
DICTIONARY
5
D
100
AcDbDictionary
0
DICTIONARY
5
1A
330
C
100
AcDbDictionary
0
DICTIONARY
5
17
100
AcDbDictionary
0
ENDSEC
0
EOF
