0
SECTION
2
HEADER
9
$INSUNITS
70
4
9
$ACADVER
1
AC1014
9
$HANDSEED
5
FFFF
0
ENDSEC
0
SECTION
2
TABLES
0
TABLE
2
VPORT
5
8
100
AcDbSymbolTable
0
ENDTAB
0
TABLE
2
LTYPE
5
5
100
AcDbSymbolTable
0
LTYPE
5
14
100
AcDbSymbolTableRecord
100
AcDbLinetypeTableRecord
2
BYBLOCK
70
0
0
LTYPE
5
15
100
AcDbSymbolTableRecord
100
AcDbLinetypeTableRecord
2
BYLAYER
70
0
0
ENDTAB
0
TABLE
2
LAYER
5
2
100
AcDbSymbolTable
70
2
0
LAYER
5
50
100
AcDbSymbolTableRecord
100
AcDbLayerTableRecord
2
0
70
0
6
CONTINUOUS
0
ENDTAB
0
TABLE
2
STYLE
5
3
100
AcDbSymbolTable
70
1
0
STYLE
5
11
100
AcDbSymbolTableRecord
100
AcDbTextStyleTableRecord
2
STANDARD
70
0
0
ENDTAB
0
TABLE
2
VIEW
5
6
100
AcDbSymbolTable
70
0
0
ENDTAB
0
TABLE
2
UCS
5
7
100
AcDbSymbolTable
70
0
0
ENDTAB
0
TABLE
2
APPID
5
9
100
AcDbSymbolTable
70
2
0
APPID
5
12
100
AcDbSymbolTableRecord
100
AcDbRegAppTableRecord
2
ACAD
70
0
0
ENDTAB
0
TABLE
2
DIMSTYLE
5
A
100
AcDbSymbolTable
70
1
0
ENDTAB
0
TABLE
2
BLOCK_RECORD
5
1
100
AcDbSymbolTable
70
1
0
BLOCK_RECORD
5
1F
100
AcDbSymbolTableRecord
100
AcDbBlockTableRecord
2
*MODEL_SPACE
0
BLOCK_RECORD
5
1B
100
AcDbSymbolTableRecord
100
AcDbBlockTableRecord
2
*PAPER_SPACE
0
ENDTAB
0
ENDSEC
0
SECTION
2
BLOCKS
0
BLOCK
5
20
100
AcDbEntity
100
AcDbBlockBegin
2
*MODEL_SPACE
0
ENDBLK
5
21
100
AcDbEntity
100
AcDbBlockEnd
0
BLOCK
5
1C
100
AcDbEntity
100
AcDbBlockBegin
2
*PAPER_SPACE
0
ENDBLK
5
1D
100
AcDbEntity
100
AcDbBlockEnd
0
ENDSEC
0
SECTION
2
ENTITIES
0
LWPOLYLINE
5
100
100
AcDbEntity
8
0
100
AcDbPolyline
90
8
70
1
43
0.0
10
113.79499504229474
20
71.715023944178597
42
-0.41421356237309503
10
113.29499504229474
20
72.215023944178597
10
113.29499504229474
20
85.215023944178597
42
-0.41421356237309503
10
113.79499504229474
20
85.715023944178611
10
126.79499504229472
20
85.715023944178611
42
-0.41421356237309503
10
127.29499504229473
20
85.215023944178597
10
127.29499504229473
20
72.215023944178597
42
-0.41421356237309503
10
126.79499504229472
20
71.715023944178597
0
LWPOLYLINE
5
101
100
AcDbEntity
8
0
100
AcDbPolyline
90
8
70
1
43
0.0
10
203.49499504229473
20
85.215023944178597
10
203.49499504229476
20
72.215023944178597
42
-0.41421356237309503
10
202.99499504229476
20
71.715023944178597
10
189.99499504229476
20
71.715023944178597
42
-0.41421356237309503
10
189.49499504229476
20
72.215023944178597
10
189.49499504229476
20
85.215023944178597
42
-0.41421356237309503
10
189.99499504229476
20
85.715023944178611
10
202.99499504229476
20
85.715023944178569
42
-0.41421356237309503
0
LWPOLYLINE
5
102
100
AcDbEntity
8
0
100
AcDbPolyline
90
8
70
1
43
0.0
10
209.04499504229474
20
71.715023944178597
42
-0.41421356237309503
10
208.54499504229472
20
72.215023944178597
10
208.54499504229472
20
85.215023944178597
42
-0.41421356237309503
10
209.04499504229474
20
85.715023944178611
10
222.04499504229474
20
85.715023944178611
42
-0.41421356237309503
10
222.54499504229474
20
85.215023944178597
10
222.54499504229474
20
72.215023944178597
42
-0.41421356237309503
10
222.04499504229474
20
71.715023944178597
0
LWPOLYLINE
5
103
100
AcDbEntity
8
0
100
AcDbPolyline
90
8
70
1
43
0.0
10
184.44499504229472
20
72.215023944178597
42
-0.41421356237309503
10
183.94499504229472
20
71.715023944178597
10
170.94499504229475
20
71.715023944178597
42
-0.41421356237309503
10
170.44499504229475
20
72.215023944178597
10
170.44499504229475
20
85.215023944178597
42
-0.41421356237309503
10
170.94499504229475
20
85.715023944178611
10
183.94499504229472
20
85.715023944178611
42
-0.41421356237309503
10
184.44499504229472
20
85.215023944178597
0
LWPOLYLINE
5
104
100
AcDbEntity
8
0
100
AcDbPolyline
90
8
70
1
43
0.0
10
145.84499504229473
20
85.715023944178611
42
-0.41421356237309503
10
146.34499504229473
20
85.215023944178597
10
146.34499504229473
20
72.215023944178597
42
-0.41421356237309503
10
145.84499504229473
20
71.715023944178597
10
132.84499504229476
20
71.715023944178597
42
-0.41421356237309503
10
132.34499504229473
20
72.215023944178597
10
132.34499504229473
20
85.215023944178597
42
-0.41421356237309503
10
132.84499504229476
20
85.715023944178611
0
LWPOLYLINE
5
105
100
AcDbEntity
8
0
100
AcDbPolyline
90
8
70
1
43
0.0
10
165.39499504229474
20
72.215023944178597
42
-0.41421356237309503
10
164.89499504229474
20
71.715023944178597
10
151.89499504229477
20
71.715023944178597
42
-0.41421356237309503
10
151.39499504229474
20
72.215023944178597
10
151.39499504229474
20
85.215023944178597
42
-0.41421356237309503
10
151.89499504229477
20
85.715023944178611
10
164.89499504229474
20
85.715023944178611
42
-0.41421356237309503
10
165.39499504229474
20
85.215023944178597
0
LWPOLYLINE
5
106
100
AcDbEntity
8
0
100
AcDbPolyline
90
8
70
1
43
0.0
10
18.54499504229473
20
66.6650239441786
10
31.544995042294733
20
66.6650239441786
42
-0.41421356237309503
10
32.04499504229473
20
66.165023944178614
10
32.044995042294737
20
53.1650239441786
42
-0.41421356237309503
10
31.544995042294733
20
52.665023944178593
10
18.54499504229473
20
52.6650239441786
42
-0.41421356237309503
10
18.04499504229473
20
53.1650239441786
10
18.04499504229474
20
66.165023944178614
42
-0.41421356237309503
0
LWPOLYLINE
5
107
100
AcDbEntity
8
0
100
AcDbPolyline
90
8
70
1
43
0.0
10
127.29499504229473
20
66.165023944178614
10
127.29499504229473
20
53.1650239441786
42
-0.41421356237309503
10
126.79499504229472
20
52.6650239441786
10
113.79499504229474
20
52.665023944178593
42
-0.41421356237309503
10
113.29499504229474
20
53.1650239441786
10
113.29499504229476
20
66.165023944178614
42
-0.41421356237309503
10
113.79499504229474
20
66.6650239441786
10
126.79499504229472
20
66.665023944178614
42
-0.41421356237309503
0
LWPOLYLINE
5
108
100
AcDbEntity
8
0
100
AcDbPolyline
90
8
70
1
43
0.0
10
146.34499504229473
20
53.1650239441786
42
-0.41421356237309503
10
145.84499504229473
20
52.6650239441786
10
132.84499504229476
20
52.665023944178593
42
-0.41421356237309503
10
132.34499504229473
20
53.1650239441786
10
132.34499504229476
20
66.165023944178614
42
-0.41421356237309503
10
132.84499504229476
20
66.6650239441786
10
145.84499504229473
20
66.665023944178614
42
-0.41421356237309503
10
146.34499504229473
20
66.165023944178614
0
LWPOLYLINE
5
109
100
AcDbEntity
8
0
100
AcDbPolyline
90
8
70
1
43
0.0
10
50.594995042294727
20
66.665023944178614
42
-0.41421356237309503
10
51.094995042294741
20
66.165023944178614
10
51.094995042294727
20
53.1650239441786
42
-0.41421356237309503
10
50.594995042294727
20
52.6650239441786
10
37.594995042294727
20
52.6650239441786
42
-0.41421356237309503
10
37.094995042294727
20
53.1650239441786
10
37.094995042294741
20
66.165023944178614
42
-0.41421356237309503
10
37.594995042294727
20
66.6650239441786
0
LWPOLYLINE
5
110
100
AcDbEntity
8
0
100
AcDbPolyline
90
8
70
1
43
0.0
10
108.24499504229476
20
53.1650239441786
42
-0.41421356237309503
10
107.74499504229475
20
52.6650239441786
10
94.744995042294732
20
52.665023944178593
42
-0.41421356237309503
10
94.244995042294732
20
53.1650239441786
10
94.244995042294747
20
66.165023944178614
42
-0.41421356237309503
10
94.744995042294732
20
66.6650239441786
10
107.74499504229475
20
66.665023944178614
42
-0.41421356237309503
10
108.24499504229476
20
66.165023944178614
0
LWPOLYLINE
5
111
100
AcDbEntity
8
0
100
AcDbPolyline
90
8
70
1
43
0.0
10
69.644995042294724
20
66.665023944178614
42
-0.41421356237309503
10
70.144995042294738
20
66.165023944178614
10
70.144995042294724
20
53.1650239441786
42
-0.41421356237309503
10
69.644995042294724
20
52.6650239441786
10
56.644995042294738
20
52.665023944178593
42
-0.41421356237309503
10
56.144995042294724
20
53.1650239441786
10
56.144995042294745
20
66.165023944178614
42
-0.41421356237309503
10
56.644995042294738
20
66.6650239441786
0
LWPOLYLINE
5
112
100
AcDbEntity
8
0
100
AcDbPolyline
90
8
70
1
43
0.0
10
-1.00500495770526
20
66.165023944178614
42
-0.41421356237309503
10
-0.50500495770527065
20
66.6650239441786
10
12.494995042294729
20
66.6650239441786
42
-0.41421356237309503
10
12.994995042294731
20
66.165023944178614
10
12.994995042294736
20
53.1650239441786
42
-0.41421356237309503
10
12.494995042294729
20
52.665023944178593
10
-0.50500495770527065
20
52.6650239441786
42
-0.41421356237309503
10
-1.0050049577052707
20
53.1650239441786
0
LWPOLYLINE
5
113
100
AcDbEntity
8
0
100
AcDbPolyline
90
8
70
1
43
0.0
10
89.19499504229475
20
53.1650239441786
42
-0.41421356237309503
10
88.694995042294735
20
52.6650239441786
10
75.694995042294721
20
52.665023944178593
42
-0.41421356237309503
10
75.194995042294721
20
53.1650239441786
10
75.194995042294735
20
66.165023944178614
42
-0.41421356237309503
10
75.694995042294721
20
66.6650239441786
10
88.694995042294735
20
66.6650239441786
42
-0.41421356237309503
10
89.194995042294721
20
66.165023944178614
0
LWPOLYLINE
5
114
100
AcDbEntity
8
0
100
AcDbPolyline
90
8
70
1
43
0.0
10
170.94499504229475
20
66.6650239441786
10
183.94499504229472
20
66.665023944178614
42
-0.41421356237309503
10
184.44499504229472
20
66.165023944178614
10
184.44499504229472
20
53.1650239441786
42
-0.41421356237309503
10
183.94499504229472
20
52.665023944178593
10
170.94499504229475
20
52.665023944178593
42
-0.41421356237309503
10
170.44499504229475
20
53.1650239441786
10
170.44499504229478
20
66.165023944178614
42
-0.41421356237309503
0
LWPOLYLINE
5
115
100
AcDbEntity
8
0
100
AcDbPolyline
90
8
70
1
43
0.0
10
51.094995042294741
20
47.115023944178603
10
51.094995042294727
20
34.115023944178596
42
-0.41421356237309503
10
50.594995042294727
20
33.615023944178603
10
37.594995042294727
20
33.615023944178603
42
-0.41421356237309503
10
37.094995042294727
20
34.115023944178596
10
37.094995042294727
20
47.115023944178603
42
-0.41421356237309503
10
37.594995042294727
20
47.615023944178603
10
50.594995042294727
20
47.61502394417861
42
-0.41421356237309503
0
LWPOLYLINE
5
116
100
AcDbEntity
8
0
100
AcDbPolyline
90
8
70
1
43
0.0
10
70.144995042294724
20
34.115023944178596
42
-0.41421356237309503
10
69.644995042294724
20
33.615023944178603
10
56.644995042294738
20
33.615023944178589
42
-0.41421356237309503
10
56.144995042294724
20
34.115023944178596
10
56.144995042294738
20
47.115023944178603
42
-0.41421356237309503
10
56.644995042294738
20
47.615023944178603
10
69.644995042294724
20
47.61502394417861
42
-0.41421356237309503
10
70.144995042294738
20
47.115023944178603
0
LWPOLYLINE
5
117
100
AcDbEntity
8
0
100
AcDbPolyline
90
8
70
1
43
0.0
10
202.99499504229476
20
66.665023944178614
42
-0.41421356237309503
10
203.49499504229476
20
66.165023944178614
10
203.49499504229476
20
53.1650239441786
42
-0.41421356237309503
10
202.99499504229476
20
52.6650239441786
10
189.99499504229476
20
52.665023944178593
42
-0.41421356237309503
10
189.49499504229476
20
53.1650239441786
10
189.49499504229479
20
66.165023944178614
42
-0.41421356237309503
10
189.99499504229476
20
66.6650239441786
0
LWPOLYLINE
5
118
100
AcDbEntity
8
0
100
AcDbPolyline
90
8
70
1
43
0.0
10
32.04499504229473
20
34.115023944178596
42
-0.41421356237309503
10
31.544995042294733
20
33.615023944178603
10
18.54499504229473
20
33.615023944178603
42
-0.41421356237309503
10
18.04499504229473
20
34.115023944178596
10
18.04499504229473
20
47.115023944178603
42
-0.41421356237309503
10
18.54499504229473
20
47.615023944178603
10
31.544995042294733
20
47.615023944178603
42
-0.41421356237309503
10
32.044995042294737
20
47.115023944178603
0
LWPOLYLINE
5
119
100
AcDbEntity
8
0
100
AcDbPolyline
90
8
70
1
43
0.0
10
222.04499504229474
20
66.665023944178614
42
-0.41421356237309503
10
222.54499504229474
20
66.165023944178614
10
222.54499504229474
20
53.1650239441786
42
-0.41421356237309503
10
222.04499504229474
20
52.6650239441786
10
209.04499504229474
20
52.665023944178593
42
-0.41421356237309503
10
208.54499504229472
20
53.1650239441786
10
208.54499504229472
20
66.165023944178614
42
-0.41421356237309503
10
209.04499504229474
20
66.6650239441786
0
LWPOLYLINE
5
120
100
AcDbEntity
8
0
100
AcDbPolyline
90
8
70
1
43
0.0
10
151.39499504229477
20
66.165023944178614
42
-0.41421356237309503
10
151.89499504229477
20
66.6650239441786
10
164.89499504229474
20
66.665023944178614
42
-0.41421356237309503
10
165.39499504229474
20
66.165023944178614
10
165.39499504229474
20
53.1650239441786
42
-0.41421356237309503
10
164.89499504229474
20
52.665023944178593
10
151.89499504229477
20
52.665023944178593
42
-0.41421356237309503
10
151.39499504229474
20
53.1650239441786
0
LWPOLYLINE
5
121
100
AcDbEntity
8
0
100
AcDbPolyline
90
8
70
1
43
0.0
10
12.994995042294729
20
34.115023944178596
42
-0.41421356237309503
10
12.494995042294729
20
33.615023944178603
10
-0.50500495770527065
20
33.615023944178603
42
-0.41421356237309503
10
-1.0050049577052707
20
34.115023944178596
10
-1.0050049577052689
20
47.115023944178603
42
-0.41421356237309503
10
-0.50500495770527065
20
47.615023944178603
10
12.494995042294729
20
47.615023944178603
42
-0.41421356237309503
10
12.994995042294729
20
47.115023944178603
0
LWPOLYLINE
5
122
100
AcDbEntity
8
0
100
AcDbPolyline
90
8
70
1
43
0.0
10
94.744995042294732
20
47.615023944178603
10
107.74499504229475
20
47.61502394417861
42
-0.41421356237309503
10
108.24499504229476
20
47.115023944178603
10
108.24499504229476
20
34.115023944178596
42
-0.41421356237309503
10
107.74499504229475
20
33.615023944178603
10
94.744995042294732
20
33.615023944178589
42
-0.41421356237309503
10
94.244995042294732
20
34.115023944178596
10
94.244995042294732
20
47.115023944178603
42
-0.41421356237309503
0
LWPOLYLINE
5
123
100
AcDbEntity
8
0
100
AcDbPolyline
90
8
70
1
43
0.0
10
203.49499504229473
20
47.115023944178603
10
203.49499504229476
20
34.115023944178596
42
-0.41421356237309503
10
202.99499504229476
20
33.615023944178603
10
189.99499504229476
20
33.615023944178589
42
-0.41421356237309503
10
189.49499504229476
20
34.115023944178596
10
189.49499504229476
20
47.115023944178603
42
-0.41421356237309503
10
189.99499504229476
20
47.615023944178603
10
202.99499504229476
20
47.615023944178574
42
-0.41421356237309503
0
LWPOLYLINE
5
124
100
AcDbEntity
8
0
100
AcDbPolyline
90
8
70
1
43
0.0
10
222.54499504229474
20
34.115023944178596
42
-0.41421356237309503
10
222.04499504229474
20
33.615023944178603
10
209.04499504229474
20
33.615023944178589
42
-0.41421356237309503
10
208.54499504229472
20
34.115023944178596
10
208.54499504229472
20
47.115023944178603
42
-0.41421356237309503
10
209.04499504229474
20
47.615023944178603
10
222.04499504229474
20
47.61502394417861
42
-0.41421356237309503
10
222.54499504229474
20
47.115023944178603
0
LWPOLYLINE
5
125
100
AcDbEntity
8
0
100
AcDbPolyline
90
8
70
1
43
0.0
10
126.79499504229472
20
47.61502394417861
42
-0.41421356237309503
10
127.29499504229473
20
47.115023944178603
10
127.29499504229473
20
34.115023944178596
42
-0.41421356237309503
10
126.79499504229472
20
33.615023944178603
10
113.79499504229474
20
33.615023944178589
42
-0.41421356237309503
10
113.29499504229474
20
34.115023944178596
10
113.29499504229474
20
47.115023944178603
42
-0.41421356237309503
10
113.79499504229474
20
47.615023944178603
0
LWPOLYLINE
5
126
100
AcDbEntity
8
0
100
AcDbPolyline
90
8
70
1
43
0.0
10
184.44499504229472
20
34.115023944178596
42
-0.41421356237309503
10
183.94499504229472
20
33.615023944178603
10
170.94499504229475
20
33.615023944178589
42
-0.41421356237309503
10
170.44499504229475
20
34.115023944178596
10
170.44499504229475
20
47.115023944178603
42
-0.41421356237309503
10
170.94499504229475
20
47.615023944178603
10
183.94499504229472
20
47.61502394417861
42
-0.41421356237309503
10
184.44499504229472
20
47.115023944178603
0
LWPOLYLINE
5
127
100
AcDbEntity
8
0
100
AcDbPolyline
90
8
70
1
43
0.0
10
145.84499504229473
20
47.61502394417861
42
-0.41421356237309503
10
146.34499504229473
20
47.115023944178603
10
146.34499504229473
20
34.115023944178596
42
-0.41421356237309503
10
145.84499504229473
20
33.615023944178603
10
132.84499504229476
20
33.615023944178589
42
-0.41421356237309503
10
132.34499504229473
20
34.115023944178596
10
132.34499504229476
20
47.115023944178603
42
-0.41421356237309503
10
132.84499504229476
20
47.615023944178603
0
LWPOLYLINE
5
128
100
AcDbEntity
8
0
100
AcDbPolyline
90
8
70
1
43
0.0
10
75.194995042294735
20
47.115023944178603
42
-0.41421356237309503
10
75.694995042294721
20
47.615023944178603
10
88.694995042294735
20
47.61502394417861
42
-0.41421356237309503
10
89.19499504229475
20
47.115023944178603
10
89.19499504229475
20
34.115023944178596
42
-0.41421356237309503
10
88.694995042294735
20
33.615023944178603
10
75.694995042294721
20
33.615023944178589
42
-0.41421356237309503
10
75.194995042294721
20
34.115023944178596
0
LWPOLYLINE
5
129
100
AcDbEntity
8
0
100
AcDbPolyline
90
8
70
1
43
0.0
10
165.39499504229474
20
34.115023944178596
42
-0.41421356237309503
10
164.89499504229474
20
33.615023944178603
10
151.89499504229477
20
33.615023944178589
42
-0.41421356237309503
10
151.39499504229474
20
34.115023944178596
10
151.39499504229477
20
47.115023944178603
42
-0.41421356237309503
10
151.89499504229477
20
47.615023944178603
10
164.89499504229474
20
47.61502394417861
42
-0.41421356237309503
10
165.39499504229474
20
47.115023944178603
0
LWPOLYLINE
5
130
100
AcDbEntity
8
0
100
AcDbPolyline
90
8
70
1
43
0.0
10
37.594995042294727
20
28.565023944178598
10
50.594995042294727
20
28.565023944178609
42
-0.41421356237309503
10
51.094995042294741
20
28.065023944178602
10
51.094995042294727
20
15.065023944178604
42
-0.41421356237309503
10
50.594995042294727
20
14.565023944178606
10
37.594995042294727
20
14.565023944178606
42
-0.41421356237309503
10
37.094995042294727
20
15.065023944178604
10
37.094995042294727
20
28.065023944178602
42
-0.41421356237309503
0
LWPOLYLINE
5
131
100
AcDbEntity
8
0
100
AcDbPolyline
90
10
70
1
43
0.0
10
69.644995042294724
20
28.565023944178609
42
-0.41421356237309503
10
70.144995042294738
20
28.065023944178602
10
70.144995042294724
20
15.065023944178604
42
-0.41421356237309503
10
69.644995042294724
20
14.565023944178606
10
56.644995042294738
20
14.565023944178597
42
-0.41421356237309503
10
56.144995042294724
20
15.065023944178604
10
56.144995042294738
20
28.065023944178602
42
-0.41421356237309503
10
56.644995042294738
20
28.565023944178598
10
60.144995042294731
20
28.565023944178598
10
66.144995042294724
20
28.565023944178598
0
LWPOLYLINE
5
132
100
AcDbEntity
8
0
100
AcDbPolyline
90
8
70
1
43
0.0
10
18.04499504229473
20
28.065023944178602
42
-0.41421356237309503
10
18.54499504229473
20
28.565023944178598
10
31.544995042294733
20
28.565023944178598
42
-0.41421356237309503
10
32.04499504229473
20
28.065023944178602
10
32.04499504229473
20
15.065023944178604
42
-0.41421356237309503
10
31.544995042294733
20
14.565023944178606
10
18.54499504229473
20
14.565023944178606
42
-0.41421356237309503
10
18.04499504229473
20
15.065023944178604
0
LWPOLYLINE
5
133
100
AcDbEntity
8
0
100
AcDbPolyline
90
20
70
1
43
0.0
10
104.24499504229475
20
28.565023944178598
10
106.65799504229471
20
28.565023944178598
10
107.74499504229475
20
28.565023944178609
42
-0.41421356237309503
10
108.24499504229476
20
28.065023944178602
10
108.24499504229476
20
15.065023944178604
42
-0.41421356237309503
10
107.74499504229475
20
14.565023944178606
10
107.15799504229473
20
14.565023944178606
10
76.281995042294724
20
14.565023944178606
10
75.694995042294721
20
14.565023944178597
42
-0.41421356237309503
10
75.194995042294721
20
15.065023944178604
10
75.194995042294735
20
28.065023944178602
42
-0.41421356237309503
10
75.694995042294721
20
28.565023944178598
10
76.781995042294739
20
28.565023944178598
10
82.781995042294753
20
28.565023944178598
10
85.219995042294727
20
28.565023944178598
10
88.694995042294735
20
28.565023944178598
10
94.744995042294732
20
28.565023944178598
10
98.219995042294741
20
28.565023944178598
10
98.244995042294761
20
28.565023944178598
10
100.65799504229473
20
28.565023944178598
0
LWPOLYLINE
5
134
100
AcDbEntity
8
0
100
AcDbPolyline
90
20
70
1
43
0.0
10
113.29499504229474
20
15.065023944178604
10
113.29499504229474
20
28.065023944178602
42
-0.41421356237309503
10
113.79499504229474
20
28.565023944178598
10
114.88199504229473
20
28.565023944178598
10
117.29499504229474
20
28.565023944178598
10
120.88199504229476
20
28.565023944178598
10
123.29499504229474
20
28.565023944178598
10
123.31999504229474
20
28.565023944178598
10
126.79499504229472
20
28.565023944178598
10
132.84499504229476
20
28.565023944178598
10
136.31999504229472
20
28.565023944178598
10
138.75799504229474
20
28.565023944178598
10
144.75799504229474
20
28.565023944178598
10
145.84499504229473
20
28.565023944178609
42
-0.41421356237309503
10
146.34499504229473
20
28.065023944178602
10
146.34499504229473
20
15.065023944178604
42
-0.41421356237309503
10
145.84499504229473
20
14.565023944178606
10
145.25799504229471
20
14.565023944178606
10
114.38199504229475
20
14.565023944178606
10
113.79499504229474
20
14.565023944178597
42
-0.41421356237309503
0
LWPOLYLINE
5
135
100
AcDbEntity
8
0
100
AcDbPolyline
90
8
70
1
43
0.0
10
170.94499504229475
20
14.565023944178597
42
-0.41421356237309503
10
170.44499504229475
20
15.065023944178604
10
170.44499504229475
20
28.065023944178602
42
-0.41421356237309503
10
170.94499504229475
20
28.565023944178598
10
183.94499504229472
20
28.565023944178609
42
-0.41421356237309503
10
184.44499504229472
20
28.065023944178602
10
184.44499504229472
20
15.065023944178604
42
-0.41421356237309503
10
183.94499504229472
20
14.565023944178606
0
LWPOLYLINE
5
136
100
AcDbEntity
8
0
100
AcDbPolyline
90
10
70
1
43
0.0
10
155.39499504229474
20
28.565023944178598
10
161.39499504229477
20
28.565023944178598
10
164.89499504229474
20
28.565023944178609
42
-0.41421356237309503
10
165.39499504229474
20
28.065023944178602
10
165.39499504229474
20
15.065023944178604
42
-0.41421356237309503
10
164.89499504229474
20
14.565023944178606
10
151.89499504229477
20
14.565023944178597
42
-0.41421356237309503
10
151.39499504229474
20
15.065023944178604
10
151.39499504229477
20
28.065023944178602
42
-0.41421356237309503
10
151.89499504229477
20
28.565023944178598
0
LWPOLYLINE
5
137
100
AcDbEntity
8
0
100
AcDbPolyline
90
8
70
1
43
0.0
10
189.99499504229476
20
28.565023944178598
10
202.99499504229476
20
28.565023944178609
42
-0.41421356237309503
10
203.49499504229476
20
28.065023944178602
10
203.49499504229476
20
15.065023944178604
42
-0.41421356237309503
10
202.99499504229476
20
14.565023944178606
10
189.99499504229476
20
14.565023944178597
42
-0.41421356237309503
10
189.49499504229476
20
15.065023944178604
10
189.49499504229476
20
28.065023944178602
42
-0.41421356237309503
0
LWPOLYLINE
5
138
100
AcDbEntity
8
0
100
AcDbPolyline
90
8
70
1
43
0.0
10
-1.0050049577052778
20
85.215023944178597
42
-0.41421356237309503
10
-0.50500495770527065
20
85.715023944178611
10
12.494995042294729
20
85.715023944178597
42
-0.41421356237309503
10
12.994995042294729
20
85.215023944178597
10
12.994995042294729
20
72.215023944178597
42
-0.41421356237309503
10
12.494995042294729
20
71.715023944178597
10
-0.50500495770527065
20
71.715023944178597
42
-0.41421356237309503
10
-1.0050049577052707
20
72.215023944178597
0
LWPOLYLINE
5
139
100
AcDbEntity
8
0
100
AcDbPolyline
90
8
70
1
43
0.0
10
32.04499504229473
20
72.215023944178597
42
-0.41421356237309503
10
31.544995042294733
20
71.715023944178597
10
18.54499504229473
20
71.715023944178597
42
-0.41421356237309503
10
18.04499504229473
20
72.215023944178597
10
18.044995042294723
20
85.215023944178597
42
-0.41421356237309503
10
18.54499504229473
20
85.715023944178611
10
31.544995042294733
20
85.715023944178611
42
-0.41421356237309503
10
32.044995042294737
20
85.215023944178597
0
LWPOLYLINE
5
140
100
AcDbEntity
8
0
100
AcDbPolyline
90
8
70
1
43
0.0
10
37.594995042294727
20
71.715023944178597
42
-0.41421356237309503
10
37.094995042294727
20
72.215023944178597
10
37.09499504229472
20
85.215023944178597
42
-0.41421356237309503
10
37.594995042294727
20
85.715023944178611
10
50.594995042294727
20
85.715023944178611
42
-0.41421356237309503
10
51.094995042294741
20
85.215023944178597
10
51.094995042294727
20
72.215023944178597
42
-0.41421356237309503
10
50.594995042294727
20
71.715023944178597
0
LWPOLYLINE
5
141
100
AcDbEntity
8
0
100
AcDbPolyline
90
8
70
1
43
0.0
10
69.644995042294724
20
71.715023944178597
10
56.644995042294738
20
71.715023944178597
42
-0.41421356237309503
10
56.144995042294724
20
72.215023944178597
10
56.144995042294724
20
85.215023944178597
42
-0.41421356237309503
10
56.644995042294738
20
85.715023944178611
10
69.644995042294724
20
85.715023944178611
42
-0.41421356237309503
10
70.144995042294738
20
85.215023944178597
10
70.144995042294724
20
72.215023944178597
42
-0.41421356237309503
0
LWPOLYLINE
5
142
100
AcDbEntity
8
0
100
AcDbPolyline
90
8
70
1
43
0.0
10
75.694995042294721
20
71.715023944178597
42
-0.41421356237309503
10
75.194995042294721
20
72.215023944178597
10
75.194995042294721
20
85.215023944178597
42
-0.41421356237309503
10
75.694995042294721
20
85.715023944178611
10
88.694995042294735
20
85.715023944178611
42
-0.41421356237309503
10
89.19499504229475
20
85.215023944178597
10
89.19499504229475
20
72.215023944178597
42
-0.41421356237309503
10
88.694995042294735
20
71.715023944178597
0
LWPOLYLINE
5
143
100
AcDbEntity
8
0
100
AcDbPolyline
90
8
70
1
43
0.0
10
94.744995042294732
20
71.715023944178597
42
-0.41421356237309503
10
94.244995042294732
20
72.215023944178597
10
94.244995042294732
20
85.215023944178597
42
-0.41421356237309503
10
94.744995042294732
20
85.715023944178611
10
107.74499504229475
20
85.715023944178611
42
-0.41421356237309503
10
108.24499504229476
20
85.215023944178597
10
108.24499504229476
20
72.215023944178597
42
-0.41421356237309503
10
107.74499504229475
20
71.715023944178597
0
LWPOLYLINE
5
144
100
AcDbEntity
8
0
100
AcDbPolyline
90
40
70
1
43
0.0
10
60.712635729395828
20
88.240023944178617
42
-0.19891236737965859
10
58.591315385836182
20
89.118703600618971
10
55.84867469871476
20
91.861344287778991
42
0.19891236737285403
10
53.727354355216768
20
92.740023944178631
10
35.212635729395828
20
92.740023944178631
42
0.19891236737965823
10
33.091315385836168
20
91.861344287738262
10
30.348674698702531
20
89.118703600575643
42
-0.19891236737376167
10
28.227354355195825
20
88.24002394418541
10
-2.7800049577041719
20
88.240023944178603
42
0.41421356237309548
10
-3.5300049577041657
20
87.490023944178603
10
-3.5300049577041737
20
12.790023944178603
42
0.41421356237309503
10
-2.7800049577041719
20
12.040023944178596
10
28.227354355195825
20
12.040023944178602
42
-0.19891236737965812
10
30.348674698755467
20
11.161344287738244
10
33.091315385895825
20
8.4187036005786027
42
0.19891236737353279
10
35.212635729395828
20
7.5400239441785999
10
53.727354355195828
20
7.5400239441786017
42
0.19891236737965809
10
55.848674698755474
20
8.4187036006189562
10
58.591315385892841
20
11.16134428778526
42
-0.19891236737330764
10
60.712635729395821
20
12.040023944171788
10
160.82735435519584
20
12.040023944178584
42
-0.1989123673857833
10
162.94867469880546
20
11.161344287688236
10
165.69131538589585
20
8.4187036005786009
42
0.19891236737966081
10
167.81263572949587
20
7.540023944178591
10
186.32735435519584
20
7.5400239441785981
42
0.19891236737965634
10
188.4486746987555
20
8.4187036006189366
10
191.19131538589102
20
11.161344287783434
42
-0.19891236737353155
10
193.31263572939582
20
12.040023944171791
10
224.31999504229583
20
12.040023944178602
42
0.41421356237309503
10
225.06999504229583
20
12.790023944178603
10
225.06999504229583
20
87.490023944178603
42
0.41421356237309503
10
224.31999504229583
20
88.240023944178603
10
193.31263572939582
20
88.240023944178603
42
-0.19891236737965695
10
191.19131538583619
20
89.118703600618957
10
188.44867469871477
20
91.861344287778977
42
0.19891236737466886
10
186.32735435519584
20
92.740023944178617
10
167.81263572939582
20
92.740023944178617
42
0.19891236737965692
10
165.69131538583619
20
91.861344287738262
10
162.94867469870255
20
89.118703600575657
42
-0.19891236737376133
10
160.82735435519584
20
88.240023944185424
0
ENDSEC
0
SECTION
2
OBJECTS
0
DICTIONARY
5
C
100
AcDbDictionary
3
ACAD_GROUP
350
D
3
ACAD_MLINESTYLE
350
17
0
DICTIONARY
5
D
100
AcDbDictionary
0
DICTIONARY
5
1A
330
C
100
AcDbDictionary
0
DICTIONARY
5
17
100
AcDbDictionary
0
ENDSEC
0
EOF
