0
SECTION
2
HEADER
9
$INSUNITS
70
4
9
$ACADVER
1
AC1014
9
$HANDSEED
5
FFFF
0
ENDSEC
0
SECTION
2
TABLES
0
TABLE
2
VPORT
5
8
100
AcDbSymbolTable
0
ENDTAB
0
TABLE
2
LTYPE
5
5
100
AcDbSymbolTable
0
LTYPE
5
14
100
AcDbSymbolTableRecord
100
AcDbLinetypeTableRecord
2
BYBLOCK
70
0
0
LTYPE
5
15
100
AcDbSymbolTableRecord
100
AcDbLinetypeTableRecord
2
BYLAYER
70
0
0
ENDTAB
0
TABLE
2
LAYER
5
2
100
AcDbSymbolTable
70
2
0
LAYER
5
50
100
AcDbSymbolTableRecord
100
AcDbLayerTableRecord
2
0
70
0
6
CONTINUOUS
0
ENDTAB
0
TABLE
2
STYLE
5
3
100
AcDbSymbolTable
70
1
0
STYLE
5
11
100
AcDbSymbolTableRecord
100
AcDbTextStyleTableRecord
2
STANDARD
70
0
0
ENDTAB
0
TABLE
2
VIEW
5
6
100
AcDbSymbolTable
70
0
0
ENDTAB
0
TABLE
2
UCS
5
7
100
AcDbSymbolTable
70
0
0
ENDTAB
0
TABLE
2
APPID
5
9
100
AcDbSymbolTable
70
2
0
APPID
5
12
100
AcDbSymbolTableRecord
100
AcDbRegAppTableRecord
2
ACAD
70
0
0
ENDTAB
0
TABLE
2
DIMSTYLE
5
A
100
AcDbSymbolTable
70
1
0
ENDTAB
0
TABLE
2
BLOCK_RECORD
5
1
100
AcDbSymbolTable
70
1
0
BLOCK_RECORD
5
1F
100
AcDbSymbolTableRecord
100
AcDbBlockTableRecord
2
*MODEL_SPACE
0
BLOCK_RECORD
5
1B
100
AcDbSymbolTableRecord
100
AcDbBlockTableRecord
2
*PAPER_SPACE
0
ENDTAB
0
ENDSEC
0
SECTION
2
BLOCKS
0
BLOCK
5
20
100
AcDbEntity
100
AcDbBlockBegin
2
*MODEL_SPACE
0
ENDBLK
5
21
100
AcDbEntity
100
AcDbBlockEnd
0
BLOCK
5
1C
100
AcDbEntity
100
AcDbBlockBegin
2
*PAPER_SPACE
0
ENDBLK
5
1D
100
AcDbEntity
100
AcDbBlockEnd
0
ENDSEC
0
SECTION
2
ENTITIES
0
LWPOLYLINE
5
100
100
AcDbEntity
8
0
100
AcDbPolyline
90
8
70
1
43
0.0
10
-187.14287353720431
20
66.715205872378604
42
-0.41421356237309503
10
-187.64287353720431
20
67.215205872378604
10
-187.64287353720431
20
80.215205872378604
42
-0.41421356237309503
10
-187.14287353720431
20
80.715205872378618
10
-174.14287353720431
20
80.715205872378618
42
-0.41421356237309503
10
-173.64287353720431
20
80.215205872378604
10
-173.64287353720431
20
67.215205872378604
42
-0.41421356237309503
10
-174.14287353720431
20
66.715205872378618
0
LWPOLYLINE
5
101
100
AcDbEntity
8
0
100
AcDbPolyline
90
8
70
1
43
0.0
10
-97.442873537204306
20
80.215205872378604
10
-97.442873537204264
20
67.215205872378604
42
-0.41421356237309503
10
-97.942873537204278
20
66.715205872378618
10
-110.94287353720429
20
66.715205872378604
42
-0.41421356237309503
10
-111.44287353720429
20
67.215205872378604
10
-111.44287353720429
20
80.215205872378604
42
-0.41421356237309503
10
-110.94287353720429
20
80.715205872378618
10
-97.942873537204278
20
80.715205872378576
42
-0.41421356237309503
0
LWPOLYLINE
5
102
100
AcDbEntity
8
0
100
AcDbPolyline
90
8
70
1
43
0.0
10
-91.892873537204309
20
66.715205872378604
42
-0.41421356237309503
10
-92.392873537204309
20
67.215205872378604
10
-92.392873537204309
20
80.215205872378604
42
-0.41421356237309503
10
-91.892873537204309
20
80.715205872378618
10
-78.892873537204309
20
80.715205872378618
42
-0.41421356237309503
10
-78.392873537204295
20
80.215205872378604
10
-78.392873537204309
20
67.215205872378604
42
-0.41421356237309503
10
-78.892873537204309
20
66.715205872378618
0
LWPOLYLINE
5
103
100
AcDbEntity
8
0
100
AcDbPolyline
90
8
70
1
43
0.0
10
-116.49287353720432
20
67.215205872378604
42
-0.41421356237309503
10
-116.99287353720433
20
66.715205872378618
10
-129.9928735372043
20
66.715205872378604
42
-0.41421356237309503
10
-130.4928735372043
20
67.215205872378604
10
-130.4928735372043
20
80.215205872378604
42
-0.41421356237309503
10
-129.9928735372043
20
80.715205872378618
10
-116.99287353720433
20
80.715205872378618
42
-0.41421356237309503
10
-116.49287353720432
20
80.215205872378604
0
LWPOLYLINE
5
104
100
AcDbEntity
8
0
100
AcDbPolyline
90
8
70
1
43
0.0
10
-155.0928735372043
20
80.715205872378618
42
-0.41421356237309503
10
-154.5928735372043
20
80.215205872378604
10
-154.5928735372043
20
67.215205872378604
42
-0.41421356237309503
10
-155.0928735372043
20
66.715205872378618
10
-168.0928735372043
20
66.715205872378561
42
-0.41421356237309503
10
-168.59287353720433
20
67.215205872378604
10
-168.5928735372043
20
80.215205872378604
42
-0.41421356237309503
10
-168.0928735372043
20
80.715205872378618
0
LWPOLYLINE
5
105
100
AcDbEntity
8
0
100
AcDbPolyline
90
8
70
1
43
0.0
10
-135.54287353720429
20
67.215205872378604
42
-0.41421356237309503
10
-136.04287353720429
20
66.715205872378618
10
-149.04287353720429
20
66.715205872378604
42
-0.41421356237309503
10
-149.54287353720429
20
67.215205872378604
10
-149.54287353720429
20
80.215205872378604
42
-0.41421356237309503
10
-149.04287353720429
20
80.715205872378618
10
-136.04287353720429
20
80.715205872378618
42
-0.41421356237309503
10
-135.54287353720429
20
80.215205872378604
0
LWPOLYLINE
5
106
100
AcDbEntity
8
0
100
AcDbPolyline
90
8
70
1
43
0.0
10
-282.39287353720431
20
61.665205872378607
10
-269.39287353720431
20
61.665205872378621
42
-0.41421356237309503
10
-268.89287353720431
20
61.165205872378614
10
-268.89287353720431
20
48.165205872378607
42
-0.41421356237309503
10
-269.39287353720431
20
47.6652058723786
10
-282.39287353720431
20
47.6652058723786
42
-0.41421356237309503
10
-282.89287353720431
20
48.165205872378607
10
-282.89287353720431
20
61.165205872378614
42
-0.41421356237309503
0
LWPOLYLINE
5
107
100
AcDbEntity
8
0
100
AcDbPolyline
90
8
70
1
43
0.0
10
-173.64287353720431
20
61.165205872378614
10
-173.64287353720431
20
48.165205872378607
42
-0.41421356237309503
10
-174.14287353720431
20
47.665205872378607
10
-187.14287353720431
20
47.6652058723786
42
-0.41421356237309503
10
-187.64287353720431
20
48.165205872378607
10
-187.64287353720425
20
61.165205872378614
42
-0.41421356237309503
10
-187.14287353720431
20
61.665205872378607
10
-174.14287353720431
20
61.665205872378621
42
-0.41421356237309503
0
LWPOLYLINE
5
108
100
AcDbEntity
8
0
100
AcDbPolyline
90
8
70
1
43
0.0
10
-154.5928735372043
20
48.165205872378607
42
-0.41421356237309503
10
-155.0928735372043
20
47.665205872378607
10
-168.0928735372043
20
47.665205872378564
42
-0.41421356237309503
10
-168.59287353720433
20
48.165205872378607
10
-168.59287353720424
20
61.165205872378614
42
-0.41421356237309503
10
-168.0928735372043
20
61.665205872378607
10
-155.0928735372043
20
61.665205872378621
42
-0.41421356237309503
10
-154.5928735372043
20
61.165205872378614
0
LWPOLYLINE
5
109
100
AcDbEntity
8
0
100
AcDbPolyline
90
8
70
1
43
0.0
10
-250.3428735372043
20
61.665205872378586
42
-0.41421356237309503
10
-249.84287353720433
20
61.165205872378614
10
-249.8428735372043
20
48.165205872378607
42
-0.41421356237309503
10
-250.3428735372043
20
47.665205872378607
10
-263.3428735372043
20
47.6652058723786
42
-0.41421356237309503
10
-263.8428735372043
20
48.165205872378607
10
-263.8428735372043
20
61.165205872378614
42
-0.41421356237309503
10
-263.3428735372043
20
61.665205872378607
0
LWPOLYLINE
5
110
100
AcDbEntity
8
0
100
AcDbPolyline
90
8
70
1
43
0.0
10
-192.69287353720429
20
48.165205872378607
42
-0.41421356237309503
10
-193.19287353720429
20
47.665205872378607
10
-206.19287353720432
20
47.6652058723786
42
-0.41421356237309503
10
-206.69287353720432
20
48.165205872378607
10
-206.69287353720426
20
61.165205872378614
42
-0.41421356237309503
10
-206.19287353720432
20
61.665205872378607
10
-193.19287353720429
20
61.665205872378621
42
-0.41421356237309503
10
-192.69287353720429
20
61.165205872378614
0
LWPOLYLINE
5
111
100
AcDbEntity
8
0
100
AcDbPolyline
90
8
70
1
43
0.0
10
-231.29287353720431
20
61.665205872378621
42
-0.41421356237309503
10
-230.79287353720431
20
61.165205872378614
10
-230.79287353720431
20
48.165205872378607
42
-0.41421356237309503
10
-231.29287353720431
20
47.665205872378607
10
-244.29287353720434
20
47.665205872378635
42
-0.41421356237309503
10
-244.79287353720429
20
48.165205872378607
10
-244.79287353720429
20
61.165205872378614
42
-0.41421356237309503
10
-244.29287353720434
20
61.665205872378607
0
LWPOLYLINE
5
112
100
AcDbEntity
8
0
100
AcDbPolyline
90
8
70
1
43
0.0
10
-301.94287353720432
20
61.165205872378614
42
-0.41421356237309503
10
-301.44287353720432
20
61.665205872378607
10
-288.44287353720432
20
61.665205872378621
42
-0.41421356237309503
10
-287.94287353720432
20
61.165205872378614
10
-287.94287353720432
20
48.165205872378607
42
-0.41421356237309503
10
-288.44287353720432
20
47.6652058723786
10
-301.44287353720432
20
47.665205872378635
42
-0.41421356237309503
10
-301.94287353720432
20
48.165205872378607
0
LWPOLYLINE
5
113
100
AcDbEntity
8
0
100
AcDbPolyline
90
8
70
1
43
0.0
10
-211.7428735372043
20
48.165205872378607
42
-0.41421356237309503
10
-212.2428735372043
20
47.665205872378607
10
-225.24287353720433
20
47.6652058723786
42
-0.41421356237309503
10
-225.74287353720433
20
48.165205872378607
10
-225.74287353720428
20
61.165205872378614
42
-0.41421356237309503
10
-225.24287353720433
20
61.665205872378607
10
-212.2428735372043
20
61.665205872378621
42
-0.41421356237309503
10
-211.7428735372043
20
61.165205872378614
0
LWPOLYLINE
5
114
100
AcDbEntity
8
0
100
AcDbPolyline
90
8
70
1
43
0.0
10
-129.9928735372043
20
61.665205872378607
10
-116.99287353720433
20
61.665205872378621
42
-0.41421356237309503
10
-116.49287353720432
20
61.165205872378614
10
-116.49287353720432
20
48.165205872378607
42
-0.41421356237309503
10
-116.99287353720433
20
47.6652058723786
10
-129.9928735372043
20
47.6652058723786
42
-0.41421356237309503
10
-130.4928735372043
20
48.165205872378607
10
-130.49287353720428
20
61.165205872378614
42
-0.41421356237309503
0
LWPOLYLINE
5
115
100
AcDbEntity
8
0
100
AcDbPolyline
90
8
70
1
43
0.0
10
-249.84287353720433
20
42.11520587237861
10
-249.8428735372043
20
29.115205872378603
42
-0.41421356237309503
10
-250.3428735372043
20
28.615205872378606
10
-263.3428735372043
20
28.615205872378596
42
-0.41421356237309503
10
-263.8428735372043
20
29.115205872378603
10
-263.8428735372043
20
42.11520587237861
42
-0.41421356237309503
10
-263.3428735372043
20
42.61520587237861
10
-250.3428735372043
20
42.615205872378581
42
-0.41421356237309503
0
LWPOLYLINE
5
116
100
AcDbEntity
8
0
100
AcDbPolyline
90
8
70
1
43
0.0
10
-230.79287353720431
20
29.115205872378603
42
-0.41421356237309503
10
-231.29287353720431
20
28.615205872378606
10
-244.29287353720434
20
28.615205872378631
42
-0.41421356237309503
10
-244.79287353720429
20
29.115205872378603
10
-244.79287353720434
20
42.11520587237861
42
-0.41421356237309503
10
-244.29287353720434
20
42.61520587237861
10
-231.29287353720431
20
42.615205872378617
42
-0.41421356237309503
10
-230.79287353720431
20
42.11520587237861
0
LWPOLYLINE
5
117
100
AcDbEntity
8
0
100
AcDbPolyline
90
8
70
1
43
0.0
10
-97.942873537204278
20
61.665205872378621
42
-0.41421356237309503
10
-97.442873537204264
20
61.165205872378614
10
-97.442873537204264
20
48.165205872378607
42
-0.41421356237309503
10
-97.942873537204278
20
47.665205872378607
10
-110.94287353720429
20
47.6652058723786
42
-0.41421356237309503
10
-111.44287353720429
20
48.165205872378607
10
-111.44287353720428
20
61.165205872378614
42
-0.41421356237309503
10
-110.94287353720429
20
61.665205872378607
0
LWPOLYLINE
5
118
100
AcDbEntity
8
0
100
AcDbPolyline
90
8
70
1
43
0.0
10
-268.89287353720431
20
29.115205872378603
42
-0.41421356237309503
10
-269.39287353720431
20
28.615205872378606
10
-282.39287353720431
20
28.615205872378596
42
-0.41421356237309503
10
-282.89287353720431
20
29.115205872378603
10
-282.89287353720431
20
42.11520587237861
42
-0.41421356237309503
10
-282.39287353720431
20
42.61520587237861
10
-269.39287353720431
20
42.615205872378617
42
-0.41421356237309503
10
-268.89287353720431
20
42.11520587237861
0
LWPOLYLINE
5
119
100
AcDbEntity
8
0
100
AcDbPolyline
90
8
70
1
43
0.0
10
-78.892873537204309
20
61.665205872378621
42
-0.41421356237309503
10
-78.392873537204295
20
61.165205872378614
10
-78.392873537204309
20
48.165205872378607
42
-0.41421356237309503
10
-78.892873537204309
20
47.665205872378607
10
-91.892873537204309
20
47.6652058723786
42
-0.41421356237309503
10
-92.392873537204309
20
48.165205872378607
10
-92.392873537204295
20
61.165205872378614
42
-0.41421356237309503
10
-91.892873537204309
20
61.665205872378607
0
LWPOLYLINE
5
120
100
AcDbEntity
8
0
100
AcDbPolyline
90
8
70
1
43
0.0
10
-149.54287353720429
20
61.165205872378614
42
-0.41421356237309503
10
-149.04287353720429
20
61.665205872378607
10
-136.04287353720429
20
61.665205872378621
42
-0.41421356237309503
10
-135.54287353720429
20
61.165205872378614
10
-135.54287353720429
20
48.165205872378607
42
-0.41421356237309503
10
-136.04287353720429
20
47.6652058723786
10
-149.04287353720429
20
47.6652058723786
42
-0.41421356237309503
10
-149.54287353720429
20
48.165205872378607
0
LWPOLYLINE
5
121
100
AcDbEntity
8
0
100
AcDbPolyline
90
8
70
1
43
0.0
10
-287.94287353720432
20
29.115205872378603
42
-0.41421356237309503
10
-288.44287353720432
20
28.615205872378606
10
-301.44287353720432
20
28.615205872378631
42
-0.41421356237309503
10
-301.94287353720432
20
29.115205872378603
10
-301.94287353720432
20
42.11520587237861
42
-0.41421356237309503
10
-301.44287353720432
20
42.61520587237861
10
-288.44287353720432
20
42.615205872378617
42
-0.41421356237309503
10
-287.94287353720432
20
42.11520587237861
0
LWPOLYLINE
5
122
100
AcDbEntity
8
0
100
AcDbPolyline
90
8
70
1
43
0.0
10
-206.19287353720432
20
42.61520587237861
10
-193.19287353720429
20
42.615205872378617
42
-0.41421356237309503
10
-192.69287353720429
20
42.11520587237861
10
-192.69287353720429
20
29.115205872378603
42
-0.41421356237309503
10
-193.19287353720429
20
28.615205872378606
10
-206.19287353720432
20
28.615205872378596
42
-0.41421356237309503
10
-206.69287353720432
20
29.115205872378603
10
-206.69287353720432
20
42.11520587237861
42
-0.41421356237309503
0
LWPOLYLINE
5
123
100
AcDbEntity
8
0
100
AcDbPolyline
90
8
70
1
43
0.0
10
-97.442873537204306
20
42.11520587237861
10
-97.442873537204264
20
29.115205872378603
42
-0.41421356237309503
10
-97.942873537204278
20
28.615205872378606
10
-110.94287353720429
20
28.615205872378596
42
-0.41421356237309503
10
-111.44287353720429
20
29.115205872378603
10
-111.44287353720429
20
42.11520587237861
42
-0.41421356237309503
10
-110.94287353720429
20
42.61520587237861
10
-97.942873537204278
20
42.615205872378581
42
-0.41421356237309503
0
LWPOLYLINE
5
124
100
AcDbEntity
8
0
100
AcDbPolyline
90
8
70
1
43
0.0
10
-78.392873537204309
20
29.115205872378603
42
-0.41421356237309503
10
-78.892873537204309
20
28.615205872378606
10
-91.892873537204309
20
28.615205872378596
42
-0.41421356237309503
10
-92.392873537204309
20
29.115205872378603
10
-92.392873537204309
20
42.11520587237861
42
-0.41421356237309503
10
-91.892873537204309
20
42.61520587237861
10
-78.892873537204309
20
42.615205872378617
42
-0.41421356237309503
10
-78.392873537204295
20
42.11520587237861
0
LWPOLYLINE
5
125
100
AcDbEntity
8
0
100
AcDbPolyline
90
8
70
1
43
0.0
10
-174.14287353720431
20
42.615205872378617
42
-0.41421356237309503
10
-173.64287353720431
20
42.11520587237861
10
-173.64287353720431
20
29.115205872378603
42
-0.41421356237309503
10
-174.14287353720431
20
28.615205872378606
10
-187.14287353720431
20
28.615205872378596
42
-0.41421356237309503
10
-187.64287353720431
20
29.115205872378603
10
-187.64287353720431
20
42.11520587237861
42
-0.41421356237309503
10
-187.14287353720431
20
42.61520587237861
0
LWPOLYLINE
5
126
100
AcDbEntity
8
0
100
AcDbPolyline
90
8
70
1
43
0.0
10
-116.49287353720432
20
29.115205872378603
42
-0.41421356237309503
10
-116.99287353720433
20
28.615205872378606
10
-129.9928735372043
20
28.615205872378596
42
-0.41421356237309503
10
-130.4928735372043
20
29.115205872378603
10
-130.4928735372043
20
42.11520587237861
42
-0.41421356237309503
10
-129.9928735372043
20
42.61520587237861
10
-116.99287353720433
20
42.615205872378617
42
-0.41421356237309503
10
-116.49287353720432
20
42.11520587237861
0
LWPOLYLINE
5
127
100
AcDbEntity
8
0
100
AcDbPolyline
90
8
70
1
43
0.0
10
-155.0928735372043
20
42.615205872378617
42
-0.41421356237309503
10
-154.5928735372043
20
42.11520587237861
10
-154.5928735372043
20
29.115205872378603
42
-0.41421356237309503
10
-155.0928735372043
20
28.615205872378606
10
-168.0928735372043
20
28.61520587237856
42
-0.41421356237309503
10
-168.59287353720433
20
29.115205872378603
10
-168.5928735372043
20
42.11520587237861
42
-0.41421356237309503
10
-168.0928735372043
20
42.61520587237861
0
LWPOLYLINE
5
128
100
AcDbEntity
8
0
100
AcDbPolyline
90
8
70
1
43
0.0
10
-225.74287353720433
20
42.11520587237861
42
-0.41421356237309503
10
-225.24287353720433
20
42.61520587237861
10
-212.2428735372043
20
42.615205872378617
42
-0.41421356237309503
10
-211.7428735372043
20
42.11520587237861
10
-211.7428735372043
20
29.115205872378603
42
-0.41421356237309503
10
-212.2428735372043
20
28.615205872378606
10
-225.24287353720433
20
28.615205872378596
42
-0.41421356237309503
10
-225.74287353720433
20
29.115205872378603
0
LWPOLYLINE
5
129
100
AcDbEntity
8
0
100
AcDbPolyline
90
8
70
1
43
0.0
10
-135.54287353720429
20
29.115205872378603
42
-0.41421356237309503
10
-136.04287353720429
20
28.615205872378606
10
-149.04287353720429
20
28.615205872378596
42
-0.41421356237309503
10
-149.54287353720429
20
29.115205872378603
10
-149.54287353720429
20
42.11520587237861
42
-0.41421356237309503
10
-149.04287353720429
20
42.61520587237861
10
-136.04287353720429
20
42.615205872378617
42
-0.41421356237309503
10
-135.54287353720429
20
42.11520587237861
0
LWPOLYLINE
5
130
100
AcDbEntity
8
0
100
AcDbPolyline
90
8
70
1
43
0.0
10
-263.3428735372043
20
23.565205872378606
10
-250.3428735372043
20
23.565205872378581
42
-0.41421356237309503
10
-249.84287353720433
20
23.065205872378609
10
-249.8428735372043
20
10.065205872378611
42
-0.41421356237309503
10
-250.3428735372043
20
9.5652058723786126
10
-263.3428735372043
20
9.5652058723786038
42
-0.41421356237309503
10
-263.8428735372043
20
10.065205872378611
10
-263.8428735372043
20
23.065205872378609
42
-0.41421356237309503
0
LWPOLYLINE
5
131
100
AcDbEntity
8
0
100
AcDbPolyline
90
10
70
1
43
0.0
10
-231.29287353720431
20
23.565205872378616
42
-0.41421356237309503
10
-230.79287353720431
20
23.065205872378609
10
-230.79287353720431
20
10.065205872378611
42
-0.41421356237309503
10
-231.29287353720431
20
9.5652058723786126
10
-244.29287353720434
20
9.5652058723786393
42
-0.41421356237309503
10
-244.79287353720429
20
10.065205872378611
10
-244.79287353720434
20
23.065205872378609
42
-0.41421356237309503
10
-244.29287353720434
20
23.565205872378606
10
-240.79287353720431
20
23.565205872378606
10
-234.79287353720429
20
23.565205872378606
0
LWPOLYLINE
5
132
100
AcDbEntity
8
0
100
AcDbPolyline
90
8
70
1
43
0.0
10
-282.89287353720431
20
23.065205872378609
42
-0.41421356237309503
10
-282.39287353720431
20
23.565205872378606
10
-269.39287353720431
20
23.565205872378616
42
-0.41421356237309503
10
-268.89287353720431
20
23.065205872378609
10
-268.89287353720431
20
10.065205872378611
42
-0.41421356237309503
10
-269.39287353720431
20
9.5652058723786126
10
-282.39287353720431
20
9.5652058723786038
42
-0.41421356237309503
10
-282.89287353720431
20
10.065205872378611
0
LWPOLYLINE
5
133
100
AcDbEntity
8
0
100
AcDbPolyline
90
20
70
1
43
0.0
10
-196.69287353720426
20
23.565205872378606
10
-194.27987353720431
20
23.565205872378606
10
-193.19287353720429
20
23.565205872378616
42
-0.41421356237309503
10
-192.69287353720429
20
23.065205872378609
10
-192.69287353720429
20
10.065205872378611
42
-0.41421356237309503
10
-193.19287353720429
20
9.5652058723786126
10
-193.77987353720431
20
9.5652058723786126
10
-224.65587353720429
20
9.5652058723786126
10
-225.24287353720433
20
9.5652058723786038
42
-0.41421356237309503
10
-225.74287353720433
20
10.065205872378611
10
-225.74287353720433
20
23.065205872378609
42
-0.41421356237309503
10
-225.24287353720433
20
23.565205872378606
10
-224.15587353720434
20
23.565205872378606
10
-218.15587353720431
20
23.565205872378606
10
-215.7178735372043
20
23.565205872378606
10
-212.2428735372043
20
23.565205872378606
10
-206.19287353720432
20
23.565205872378606
10
-202.7178735372043
20
23.565205872378606
10
-202.69287353720429
20
23.565205872378606
10
-200.27987353720434
20
23.565205872378606
0
LWPOLYLINE
5
134
100
AcDbEntity
8
0
100
AcDbPolyline
90
20
70
1
43
0.0
10
-187.64287353720431
20
10.065205872378611
10
-187.64287353720431
20
23.065205872378609
42
-0.41421356237309503
10
-187.14287353720431
20
23.565205872378606
10
-186.05587353720432
20
23.565205872378606
10
-183.64287353720428
20
23.565205872378606
10
-180.05587353720429
20
23.565205872378606
10
-177.64287353720431
20
23.565205872378606
10
-177.61787353720428
20
23.565205872378606
10
-174.14287353720431
20
23.565205872378606
10
-168.0928735372043
20
23.565205872378606
10
-164.61787353720433
20
23.565205872378606
10
-162.17987353720432
20
23.565205872378606
10
-156.17987353720432
20
23.565205872378606
10
-155.0928735372043
20
23.565205872378616
42
-0.41421356237309503
10
-154.5928735372043
20
23.065205872378609
10
-154.5928735372043
20
10.065205872378611
42
-0.41421356237309503
10
-155.0928735372043
20
9.5652058723786126
10
-155.67987353720434
20
9.5652058723786126
10
-186.55587353720426
20
9.5652058723786126
10
-187.14287353720431
20
9.5652058723786038
42
-0.41421356237309503
0
LWPOLYLINE
5
135
100
AcDbEntity
8
0
100
AcDbPolyline
90
8
70
1
43
0.0
10
-129.9928735372043
20
9.5652058723786038
42
-0.41421356237309503
10
-130.4928735372043
20
10.065205872378611
10
-130.4928735372043
20
23.065205872378609
42
-0.41421356237309503
10
-129.9928735372043
20
23.565205872378606
10
-116.99287353720433
20
23.565205872378616
42
-0.41421356237309503
10
-116.49287353720432
20
23.065205872378609
10
-116.49287353720432
20
10.065205872378611
42
-0.41421356237309503
10
-116.99287353720433
20
9.5652058723786126
0
LWPOLYLINE
5
136
100
AcDbEntity
8
0
100
AcDbPolyline
90
10
70
1
43
0.0
10
-145.54287353720429
20
23.565205872378606
10
-139.54287353720429
20
23.565205872378606
10
-136.04287353720429
20
23.565205872378616
42
-0.41421356237309503
10
-135.54287353720429
20
23.065205872378609
10
-135.54287353720429
20
10.065205872378611
42
-0.41421356237309503
10
-136.04287353720429
20
9.5652058723786126
10
-149.04287353720429
20
9.5652058723786038
42
-0.41421356237309503
10
-149.54287353720429
20
10.065205872378611
10
-149.54287353720429
20
23.065205872378609
42
-0.41421356237309503
10
-149.04287353720429
20
23.565205872378606
0
LWPOLYLINE
5
137
100
AcDbEntity
8
0
100
AcDbPolyline
90
8
70
1
43
0.0
10
-110.94287353720429
20
23.565205872378606
10
-97.942873537204278
20
23.565205872378616
42
-0.41421356237309503
10
-97.442873537204264
20
23.065205872378609
10
-97.442873537204264
20
10.065205872378611
42
-0.41421356237309503
10
-97.942873537204278
20
9.5652058723786126
10
-110.94287353720429
20
9.5652058723786038
42
-0.41421356237309503
10
-111.44287353720429
20
10.065205872378611
10
-111.44287353720429
20
23.065205872378609
42
-0.41421356237309503
0
LWPOLYLINE
5
138
100
AcDbEntity
8
0
100
AcDbPolyline
90
8
70
1
43
0.0
10
-301.94287353720432
20
80.215205872378604
42
-0.41421356237309503
10
-301.44287353720432
20
80.715205872378618
10
-288.44287353720432
20
80.715205872378618
42
-0.41421356237309503
10
-287.94287353720432
20
80.215205872378604
10
-287.94287353720432
20
67.215205872378604
42
-0.41421356237309503
10
-288.44287353720432
20
66.715205872378618
10
-301.44287353720432
20
66.715205872378633
42
-0.41421356237309503
10
-301.94287353720432
20
67.215205872378604
0
LWPOLYLINE
5
139
100
AcDbEntity
8
0
100
AcDbPolyline
90
8
70
1
43
0.0
10
-268.89287353720431
20
67.215205872378604
42
-0.41421356237309503
10
-269.39287353720431
20
66.715205872378618
10
-282.39287353720431
20
66.715205872378604
42
-0.41421356237309503
10
-282.89287353720431
20
67.215205872378604
10
-282.89287353720431
20
80.215205872378604
42
-0.41421356237309503
10
-282.39287353720431
20
80.715205872378618
10
-269.39287353720431
20
80.715205872378618
42
-0.41421356237309503
10
-268.89287353720431
20
80.215205872378604
0
LWPOLYLINE
5
140
100
AcDbEntity
8
0
100
AcDbPolyline
90
8
70
1
43
0.0
10
-263.3428735372043
20
66.715205872378604
42
-0.41421356237309503
10
-263.8428735372043
20
67.215205872378604
10
-263.8428735372043
20
80.215205872378604
42
-0.41421356237309503
10
-263.3428735372043
20
80.715205872378618
10
-250.3428735372043
20
80.715205872378576
42
-0.41421356237309503
10
-249.84287353720433
20
80.215205872378604
10
-249.8428735372043
20
67.215205872378604
42
-0.41421356237309503
10
-250.3428735372043
20
66.715205872378618
0
LWPOLYLINE
5
141
100
AcDbEntity
8
0
100
AcDbPolyline
90
8
70
1
43
0.0
10
-231.29287353720431
20
66.715205872378618
10
-244.29287353720434
20
66.715205872378633
42
-0.41421356237309503
10
-244.79287353720429
20
67.215205872378604
10
-244.79287353720434
20
80.215205872378604
42
-0.41421356237309503
10
-244.29287353720434
20
80.715205872378618
10
-231.29287353720431
20
80.715205872378618
42
-0.41421356237309503
10
-230.79287353720431
20
80.215205872378604
10
-230.79287353720431
20
67.215205872378604
42
-0.41421356237309503
0
LWPOLYLINE
5
142
100
AcDbEntity
8
0
100
AcDbPolyline
90
8
70
1
43
0.0
10
-225.24287353720433
20
66.715205872378604
42
-0.41421356237309503
10
-225.74287353720433
20
67.215205872378604
10
-225.74287353720433
20
80.215205872378604
42
-0.41421356237309503
10
-225.24287353720433
20
80.715205872378618
10
-212.2428735372043
20
80.715205872378618
42
-0.41421356237309503
10
-211.7428735372043
20
80.215205872378604
10
-211.7428735372043
20
67.215205872378604
42
-0.41421356237309503
10
-212.2428735372043
20
66.715205872378618
0
LWPOLYLINE
5
143
100
AcDbEntity
8
0
100
AcDbPolyline
90
8
70
1
43
0.0
10
-206.19287353720432
20
66.715205872378604
42
-0.41421356237309503
10
-206.69287353720432
20
67.215205872378604
10
-206.69287353720432
20
80.215205872378604
42
-0.41421356237309503
10
-206.19287353720432
20
80.715205872378618
10
-193.19287353720429
20
80.715205872378618
42
-0.41421356237309503
10
-192.69287353720429
20
80.215205872378604
10
-192.69287353720429
20
67.215205872378604
42
-0.41421356237309503
10
-193.19287353720429
20
66.715205872378618
0
ARC
5
144
100
AcDbEntity
8
0
100
AcDbCircle
10
-131.30449790055616
20
88.740067483954334
30
0
40
3.0414511845239698
210
0
220
0
230
1
100
AcDbArc
50
269.9863554399513
51
307.41570499779129
0
LINE
5
145
100
AcDbEntity
8
0
100
AcDbLine
10
-178.53379909423367
20
85.709863541259423
30
0
11
-131.30522219933144
21
85.698616385673532
31
0
0
LINE
5
146
100
AcDbEntity
8
0
100
AcDbLine
10
-201.8614475824688
20
85.71493021401885
30
0
11
-178.53379909423367
21
85.709863541259423
31
0
0
LINE
5
147
100
AcDbEntity
8
0
100
AcDbLine
10
-201.8614475824688
20
85.71493021401885
30
0
11
-245.04223163727406
21
85.715159246362617
31
0
0
ARC
5
148
100
AcDbEntity
8
0
100
AcDbCircle
10
-245.04221572516343
20
88.715159246320511
30
0
40
3.0000000000000693
210
0
220
0
230
1
100
AcDbArc
50
232.43140536275692
51
269.99969610107263
0
LINE
5
149
100
AcDbEntity
8
0
100
AcDbLine
10
-246.87134811596621
20
86.337287362278715
30
0
11
-251.75381173992915
21
90.093028965281974
31
0
0
ARC
5
150
100
AcDbEntity
8
0
100
AcDbCircle
10
-253.58294413073207
20
87.715157081240207
30
0
40
3.0000000000001279
210
0
220
-0
230
1
100
AcDbArc
50
52.431405362754404
51
90.000000010336279
0
LINE
5
151
100
AcDbEntity
8
0
100
AcDbLine
10
-253.58294413127328
20
90.715157081240307
30
0
11
-255.51256042237179
21
90.715157080892169
31
0
0
LINE
5
152
100
AcDbEntity
8
0
100
AcDbLine
10
-255.51255564570516
20
88.215138419220139
30
0
11
-255.51256042237179
21
90.715157080892169
31
0
0
ARC
5
153
100
AcDbEntity
8
0
100
AcDbCircle
10
-256.71255564578786
20
88.215136126388401
30
0
40
1.1999999999336453
210
0
220
0
230
1
100
AcDbArc
50
-180
51
0.00010947295970767115
0
LINE
5
154
100
AcDbEntity
8
0
100
AcDbLine
10
-257.91255564572151
20
88.215136126129593
30
0
11
-257.91255564601659
21
90.71515713875867
31
0
0
LINE
5
155
100
AcDbEntity
8
0
100
AcDbLine
10
-257.91255564601659
20
90.71515713875867
30
0
11
-259.84215664547293
21
90.715157138407093
31
0
0
ARC
5
156
100
AcDbEntity
8
0
100
AcDbCircle
10
-259.84215664492638
20
87.715157138407022
30
0
40
3.0000000000000604
210
0
220
0
230
1
100
AcDbArc
50
90.000000010438328
51
127.56859203926552
0
LINE
5
157
100
AcDbEntity
8
0
100
AcDbLine
10
-266.5537558551477
20
86.337284726231132
30
0
11
-261.67128892790868
21
90.093029105387629
31
0
0
ARC
5
158
100
AcDbEntity
8
0
100
AcDbCircle
10
-268.38300306743469
20
88.715067380404889
30
0
40
2.9999992856914739
210
-0
220
0
230
1
100
AcDbArc
50
270.00221524863377
51
307.57137185359784
0
LINE
5
159
100
AcDbEntity
8
0
100
AcDbLine
10
-268.3828870773151
20
85.715068096955704
30
0
11
-272.86252007789909
21
85.715157061486536
31
0
0
ARC
5
160
100
AcDbEntity
8
0
100
AcDbCircle
10
-303.94274820413699
20
82.714617254224265
30
0
40
2.9999999998495208
210
0
220
0
230
1
100
AcDbArc
50
90.000995123085772
51
180.01937697858847
0
LINE
5
161
100
AcDbEntity
8
0
100
AcDbLine
10
-306.94288861485268
20
81.811603017693557
30
0
11
-306.9427480324257
21
82.713602678016287
31
0
0
LINE
5
162
100
AcDbEntity
8
0
100
AcDbLine
10
-306.93399168093794
20
56.821949909676931
30
0
11
-306.94288861485268
21
81.811603017693557
31
0
0
ARC
5
163
100
AcDbEntity
8
0
100
AcDbCircle
10
-309.93399167716717
20
56.822098901807259
30
0
40
2.999999999928959
210
-0
220
0
230
1
100
AcDbArc
50
322.43140797202119
51
359.99715445991592
0
LINE
5
164
100
AcDbEntity
8
0
100
AcDbLine
10
-307.55611970988258
20
54.992966619336713
30
0
11
-311.32076046602606
21
50.098933636242819
31
0
0
ARC
5
165
100
AcDbEntity
8
0
100
AcDbCircle
10
-308.94288849871225
20
48.269801353693737
30
0
40
2.9999999999999938
210
0
220
0
230
1
100
AcDbArc
50
142.43140797117255
51
180
0
LINE
5
166
100
AcDbEntity
8
0
100
AcDbLine
10
-311.94288849871219
20
46.332514045162142
30
0
11
-311.94288849871231
21
48.269801353693737
31
0
0
LINE
5
167
100
AcDbEntity
8
0
100
AcDbLine
10
-308.45059265096029
20
46.332514046728583
30
0
11
-311.94288849871219
21
46.332514045162142
31
0
0
ARC
5
168
100
AcDbEntity
8
0
100
AcDbCircle
10
-308.45059265105886
20
45.132514046492801
30
0
40
1.2000000001814963
210
-0
220
0
230
1
100
AcDbArc
50
-89.998966062833432
51
89.999999995293805
0
LINE
5
169
100
AcDbEntity
8
0
100
AcDbLine
10
-308.45057099632947
20
43.932514046506689
30
0
11
-311.94288849849238
21
43.932451026617052
31
0
0
LINE
5
170
100
AcDbEntity
8
0
100
AcDbLine
10
-311.94288849814205
20
42.010588839499135
30
0
11
-311.94288849849238
21
43.932451026617052
31
0
0
ARC
5
171
100
AcDbEntity
8
0
100
AcDbCircle
10
-308.94288849814205
20
42.010588839499135
30
0
40
3.0000000000000071
210
0
220
0
230
1
100
AcDbArc
50
180
51
217.56859203926692
0
LINE
5
172
100
AcDbEntity
8
0
100
AcDbLine
10
-307.56501645509951
20
35.298989345327612
30
0
11
-311.32076046512259
21
40.1814565565168
31
0
0
ARC
5
173
100
AcDbEntity
8
0
100
AcDbCircle
10
-309.94286619016157
20
33.469864626470745
30
0
40
2.999977766528934
210
-0
220
0
230
1
100
AcDbArc
50
-0.00013935092486216412
51
37.568736416775209
0
LINE
5
174
100
AcDbEntity
8
0
100
AcDbLine
10
-306.94289246415332
20
31.808570450470079
30
0
11
-306.94288842364153
21
33.469857330127454
31
0
0
LINE
5
175
100
AcDbEntity
8
0
100
AcDbLine
10
-306.94295142657455
20
7.5657263229304208
30
0
11
-306.94289246415332
21
31.808570450470079
31
0
0
ARC
5
176
100
AcDbEntity
8
0
100
AcDbCircle
10
-303.94295142658342
20
7.5657190265330598
30
0
40
3.0000000000000338
210
0
220
0
230
1
100
AcDbArc
50
179.99986065169062
51
269.99885193123174
0
LINE
5
177
100
AcDbEntity
8
0
100
AcDbLine
10
-268.38295569964703
20
4.5650064899064366
30
0
11
-303.94301153932355
21
4.565719027135283
31
0
0
ARC
5
178
100
AcDbEntity
8
0
100
AcDbCircle
10
-268.38296067455309
20
1.5650064899104876
30
0
40
3.0000000000000742
210
0
220
-0
230
1
100
AcDbArc
50
52.431312957759083
51
89.99990498629306
0
LINE
5
179
100
AcDbEntity
8
0
100
AcDbLine
10
-266.55382444878876
20
3.9428754239767083
30
0
11
-261.67136346506061
21
0.18712331826821971
31
0
0
ARC
5
180
100
AcDbEntity
8
0
100
AcDbCircle
10
-259.84222723929628
20
2.5649922523344415
30
0
40
3.0000000000000755
210
0
220
0
230
1
100
AcDbArc
50
232.43131295775908
51
270.00024383137179
0
LINE
5
181
100
AcDbEntity
8
0
100
AcDbLine
10
-259.8422144723155
20
-0.43500774763846645
30
0
11
-257.91219891622916
21
-0.43594115586640947
31
0
0
LINE
5
182
100
AcDbEntity
8
0
100
AcDbLine
10
-257.91221848402893
20
2.0640798565744252
30
0
11
-257.91219891622916
21
-0.43594115586640947
31
0
0
ARC
5
183
100
AcDbEntity
8
0
100
AcDbCircle
10
-256.71221848412739
20
2.0640892489888936
30
0
40
1.200000000499599
210
0
220
-0
230
1
100
AcDbArc
50
0.00033899114610055165
51
180.00044845471592
0
LINE
5
184
100
AcDbEntity
8
0
100
AcDbLine
10
-255.51221848364878
20
2.0640963488126269
30
0
11
-255.51220369214818
21
-0.4359223127989742
31
0
0
LINE
5
185
100
AcDbEntity
8
0
100
AcDbLine
10
-255.51220369214818
20
-0.4359223127989742
30
0
11
-253.58301992849829
21
-0.43501958577250477
31
0
0
ARC
5
186
100
AcDbEntity
8
0
100
AcDbCircle
10
-253.58301721282376
20
2.5649819310110642
30
0
40
3.0000015167847982
210
0
220
0
230
1
100
AcDbArc
50
269.99994813446324
51
307.56853729328662
0
LINE
5
187
100
AcDbEntity
8
0
100
AcDbLine
10
-251.75388627709438
20
0.18710701405920238
30
0
11
-246.871417756592
21
3.9428394976035541
31
0
0
ARC
5
188
100
AcDbEntity
8
0
100
AcDbCircle
10
-245.04228930857596
20
1.5649645806536594
30
0
40
3.0000000000001661
210
0
220
-0
230
1
100
AcDbArc
50
89.999681434888601
51
127.56849963426951
0
LINE
5
189
100
AcDbEntity
8
0
100
AcDbLine
10
-245.04227262854573
20
4.5649645806074544
30
0
11
-201.86112999248678
21
4.5647244933878293
31
0
0
LINE
5
190
100
AcDbEntity
8
0
100
AcDbLine
10
-201.86112999248678
20
4.5647244933878293
30
0
11
-178.53348154425618
21
4.5699737559390936
31
0
0
LINE
5
191
100
AcDbEntity
8
0
100
AcDbLine
10
-178.53348154425618
20
4.5699737559390936
30
0
11
-131.30490473902739
21
4.5815905805676476
31
0
0
LINE
5
192
100
AcDbEntity
8
0
100
AcDbLine
10
-272.86252007789909
20
85.715157061486536
30
0
11
-303.94280030865991
21
85.714617253621299
31
0
0
ARC
5
193
100
AcDbEntity
8
0
100
AcDbCircle
10
-107.95766856844446
20
1.5712918426332567
30
0
40
2.9940371406536621
210
0
220
-0
230
1
100
AcDbArc
50
89.873362552022058
51
127.53277459510814
0
ARC
5
194
100
AcDbEntity
8
0
100
AcDbCircle
10
-76.409033205852069
20
7.57036678322347
30
0
40
2.999999999999996
210
-0
220
0
230
1
100
AcDbArc
50
-89.990835669137837
51
0.008038922795117533
0
LINE
5
195
100
AcDbEntity
8
0
100
AcDbLine
10
-73.40886989600827
20
8.4511678899386862
30
0
11
-73.409033235380591
21
7.5707877002353552
31
0
0
LINE
5
196
100
AcDbEntity
8
0
100
AcDbLine
10
-73.40886989600827
20
8.4511678899386862
30
0
11
-73.4045338319265
21
31.822048189914199
31
0
0
LINE
5
197
100
AcDbEntity
8
0
100
AcDbLine
10
-73.40424282286115
20
33.39055315304681
30
0
11
-73.4045338319265
21
31.822048189914199
31
0
0
ARC
5
198
100
AcDbEntity
8
0
100
AcDbCircle
10
-70.404242874494798
20
33.389996554756365
30
0
40
2.999999999999976
210
0
220
0
230
1
100
AcDbArc
50
142.53448436122699
51
179.98936975565181
0
LINE
5
199
100
AcDbEntity
8
0
100
AcDbLine
10
-72.785401641991257
20
35.21484803473345
30
0
11
-69.016495799057282
21
40.132707537405842
31
0
0
ARC
5
200
100
AcDbEntity
8
0
100
AcDbCircle
10
-71.395405552417742
20
41.960489905568593
30
0
40
3.0000000000000244
210
-0
220
0
230
1
100
AcDbArc
50
-37.536072397065119
51
0.032519164192294198
0
LINE
5
201
100
AcDbEntity
8
0
100
AcDbLine
10
-68.395406035615281
20
41.962192604932625
30
0
11
-68.394857047338093
21
43.932746867948758
31
0
0
LINE
5
202
100
AcDbEntity
8
0
100
AcDbLine
10
-71.887174547668593
20
43.932801404237125
30
0
11
-68.394857047338093
21
43.932746867948758
31
0
0
ARC
5
203
100
AcDbEntity
8
0
100
AcDbCircle
10
-71.887155810948173
20
45.132801404061532
30
0
40
1.2000000000567803
210
0
220
0
230
1
100
AcDbArc
50
90.000139206075573
51
269.99910538749828
0
LINE
5
204
100
AcDbEntity
8
0
100
AcDbLine
10
-71.887158726473402
20
46.332801404114775
30
0
11
-68.395437643566737
21
46.332809887615568
31
0
0
LINE
5
205
100
AcDbEntity
8
0
100
AcDbLine
10
-68.395437643566737
20
46.332809887615568
30
0
11
-68.395905624864668
21
48.267346406655079
31
0
0
ARC
5
206
100
AcDbEntity
8
0
100
AcDbCircle
10
-71.395905618459892
20
48.267150373820982
30
0
40
3.0000000000000315
210
0
220
-0
230
1
100
AcDbArc
50
0.0037439513492158669
51
37.572335981863233
0
LINE
5
207
100
AcDbEntity
8
0
100
AcDbLine
10
-69.018153179604951
20
50.09643803286194
30
0
11
-72.777641221345576
21
54.983064870183007
31
0
0
ARC
5
208
100
AcDbEntity
8
0
100
AcDbCircle
10
-70.399897257944758
20
56.812363545044931
30
0
40
2.9999999995567848
210
0
220
0
230
1
100
AcDbArc
50
179.98838470933589
51
217.57260143282014
0
LINE
5
209
100
AcDbEntity
8
0
100
AcDbLine
10
-73.394646195509836
20
82.715048720126219
30
0
11
-73.39989719585536
21
56.812971720237677
31
0
0
ARC
5
210
100
AcDbEntity
8
0
100
AcDbCircle
10
-76.394646195407589
20
82.715023944190875
30
0
40
3.0000000000000497
210
0
220
-0
230
1
100
AcDbArc
50
0.00047318550998506713
51
89.999919843409728
0
LINE
5
211
100
AcDbEntity
8
0
100
AcDbLine
10
-76.394641998418336
20
85.715023944187976
30
0
11
-107.95136862028147
21
85.71506809193238
31
0
0
LINE
5
212
100
AcDbEntity
8
0
100
AcDbLine
10
-107.95105103191457
20
4.5653216701105706
30
0
11
-76.408553362612253
21
4.5703668215983964
31
0
0
ARC
5
213
100
AcDbEntity
8
0
100
AcDbCircle
10
-116.49487015038348
20
2.5634329004472525
30
0
40
2.9976040854324753
210
0
220
0
230
1
100
AcDbArc
50
269.98626760078878
51
307.62456186550202
0
LINE
5
214
100
AcDbEntity
8
0
100
AcDbLine
10
-116.49558860287569
20
-0.43417109888746364
30
0
11
-118.42494289984687
21
-0.43484954019024857
31
0
0
LINE
5
215
100
AcDbEntity
8
0
100
AcDbLine
10
-118.42496245290587
20
2.0651722064003328
30
0
11
-118.42494289984687
21
-0.43484954019024857
31
0
0
LINE
5
216
100
AcDbEntity
8
0
100
AcDbLine
10
-109.78168134524296
20
3.9455782174603113
30
0
11
-114.66487856714559
21
0.18924650121909137
31
0
0
ARC
5
217
100
AcDbEntity
8
0
100
AcDbCircle
10
-131.30415663399586
20
1.540139488047968
30
0
40
3.0414511882884221
210
0
220
-0
230
1
100
AcDbArc
50
52.584743475715008
51
90.014093029534607
0
ARC
5
218
100
AcDbEntity
8
0
100
AcDbCircle
10
-122.72963796689308
20
2.5651131648974603
30
0
40
3.0000000000000386
210
0
220
0
230
1
100
AcDbArc
50
232.42171601704138
51
270.00055914869989
0
LINE
5
219
100
AcDbEntity
8
0
100
AcDbLine
10
-122.72960868993562
20
-0.43488683495972208
30
0
11
-120.82493805456107
21
-0.43486824730596285
31
0
0
LINE
5
220
100
AcDbEntity
8
0
100
AcDbLine
10
-120.82496245221466
20
2.0651511159072582
30
0
11
-120.82493805456107
21
-0.43486824730596285
31
0
0
ARC
5
221
100
AcDbEntity
8
0
100
AcDbCircle
10
-119.62496395584188
20
2.065163263595946
30
0
40
1.2000015029693303
210
0
220
-0
230
1
100
AcDbArc
50
0.00042698670295882301
51
180.00058001023271
0
LINE
5
222
100
AcDbEntity
8
0
100
AcDbLine
10
-129.45620935966565
20
3.9558208002323001
30
0
11
-124.55917245579543
21
0.18755064123651632
31
0
0
LINE
5
223
100
AcDbEntity
8
0
100
AcDbLine
10
-129.45653172021258
20
86.324400639344248
30
0
11
-124.57735085331366
21
90.07899137670654
31
0
0
ARC
5
224
100
AcDbEntity
8
0
100
AcDbCircle
10
-107.95800959188497
20
88.7090978675093
30
0
40
2.9940371389040275
210
0
220
0
230
1
100
AcDbArc
50
232.46767387309959
51
270.1270859173992
0
ARC
5
225
100
AcDbEntity
8
0
100
AcDbCircle
10
-116.49520340785357
20
87.716889987186235
30
0
40
2.9976040850871493
210
0
220
-0
230
1
100
AcDbArc
50
52.375886606588132
51
90.014180862767617
0
LINE
5
226
100
AcDbEntity
8
0
100
AcDbLine
10
-116.49594532308868
20
90.714493980460361
30
0
11
-118.42529962542147
21
90.715157320617294
31
0
0
LINE
5
227
100
AcDbEntity
8
0
100
AcDbLine
10
-118.42529961044379
20
88.215135573940699
30
0
11
-118.42529962542147
21
90.715157320617294
31
0
0
LINE
5
228
100
AcDbEntity
8
0
100
AcDbLine
10
-109.78200378343624
20
86.334797217144256
30
0
11
-114.66523040838636
21
90.091090709987952
31
0
0
ARC
5
229
100
AcDbEntity
8
0
100
AcDbCircle
10
-119.62530111329586
20
88.215135124064886
30
0
40
1.1999984962557526
210
0
220
0
230
1
100
AcDbArc
50
-180.00013154211121
51
2.1463536648682345e-05
0
LINE
5
230
100
AcDbEntity
8
0
100
AcDbLine
10
-120.82529960954845
20
88.215137879102571
30
0
11
-120.82529478021837
21
90.715157242431687
31
0
0
ARC
5
231
100
AcDbEntity
8
0
100
AcDbCircle
10
-122.74631823804927
20
87.71950731186628
30
0
40
2.986611036083715
210
0
220
0
230
1
100
AcDbArc
50
90.157077329943945
51
127.81256896736404
0
LINE
5
232
100
AcDbEntity
8
0
100
AcDbLine
10
-120.82529478021837
20
90.715157242431687
30
0
11
-122.75450607148937
21
90.706107124402365
31
0
0
ENDSEC
0
SECTION
2
OBJECTS
0
DICTIONARY
5
C
100
AcDbDictionary
3
ACAD_GROUP
350
D
3
ACAD_MLINESTYLE
350
17
0
DICTIONARY
5
D
100
AcDbDictionary
0
DICTIONARY
5
1A
330
C
100
AcDbDictionary
0
DICTIONARY
5
17
100
AcDbDictionary
0
ENDSEC
0
EOF
