0
SECTION
2
HEADER
9
$INSUNITS
70
4
9
$ACADVER
1
AC1014
9
$HANDSEED
5
FFFF
0
ENDSEC
0
SECTION
2
TABLES
0
TABLE
2
VPORT
5
8
100
AcDbSymbolTable
0
ENDTAB
0
TABLE
2
LTYPE
5
5
100
AcDbSymbolTable
0
LTYPE
5
14
100
AcDbSymbolTableRecord
100
AcDbLinetypeTableRecord
2
BYBLOCK
70
0
0
LTYPE
5
15
100
AcDbSymbolTableRecord
100
AcDbLinetypeTableRecord
2
BYLAYER
70
0
0
ENDTAB
0
TABLE
2
LAYER
5
2
100
AcDbSymbolTable
70
2
0
LAYER
5
50
100
AcDbSymbolTableRecord
100
AcDbLayerTableRecord
2
0
70
0
6
CONTINUOUS
0
ENDTAB
0
TABLE
2
STYLE
5
3
100
AcDbSymbolTable
70
1
0
STYLE
5
11
100
AcDbSymbolTableRecord
100
AcDbTextStyleTableRecord
2
STANDARD
70
0
0
ENDTAB
0
TABLE
2
VIEW
5
6
100
AcDbSymbolTable
70
0
0
ENDTAB
0
TABLE
2
UCS
5
7
100
AcDbSymbolTable
70
0
0
ENDTAB
0
TABLE
2
APPID
5
9
100
AcDbSymbolTable
70
2
0
APPID
5
12
100
AcDbSymbolTableRecord
100
AcDbRegAppTableRecord
2
ACAD
70
0
0
ENDTAB
0
TABLE
2
DIMSTYLE
5
A
100
AcDbSymbolTable
70
1
0
ENDTAB
0
TABLE
2
BLOCK_RECORD
5
1
100
AcDbSymbolTable
70
1
0
BLOCK_RECORD
5
1F
100
AcDbSymbolTableRecord
100
AcDbBlockTableRecord
2
*MODEL_SPACE
0
BLOCK_RECORD
5
1B
100
AcDbSymbolTableRecord
100
AcDbBlockTableRecord
2
*PAPER_SPACE
0
ENDTAB
0
ENDSEC
0
SECTION
2
BLOCKS
0
BLOCK
5
20
100
AcDbEntity
100
AcDbBlockBegin
2
*MODEL_SPACE
0
ENDBLK
5
21
100
AcDbEntity
100
AcDbBlockEnd
0
BLOCK
5
1C
100
AcDbEntity
100
AcDbBlockBegin
2
*PAPER_SPACE
0
ENDBLK
5
1D
100
AcDbEntity
100
AcDbBlockEnd
0
ENDSEC
0
SECTION
2
ENTITIES
0
LWPOLYLINE
5
100
100
AcDbEntity
8
0
100
AcDbPolyline
90
8
70
1
43
0.0
10
116.82500000000002
20
-3.0249999999999999
42
-0.41421356237309503
10
117.32500000000002
20
-2.5249999999999999
10
130.32499999999999
20
-2.5249999999999928
42
-0.41421356237309503
10
130.82499999999999
20
-3.0249999999999999
10
130.82499999999999
20
-16.024999999999999
42
-0.41421356237309503
10
130.32499999999999
20
-16.524999999999999
10
117.32500000000002
20
-16.525000000000006
42
-0.41421356237309503
10
116.82500000000002
20
-16.024999999999999
0
LWPOLYLINE
5
101
100
AcDbEntity
8
0
100
AcDbPolyline
90
8
70
1
43
0.0
10
193.52500000000003
20
-16.525000000000006
42
-0.41421356237309503
10
193.02500000000003
20
-16.024999999999999
10
193.02500000000003
20
-3.0249999999999999
42
-0.41421356237309503
10
193.52500000000003
20
-2.5249999999999999
10
206.52500000000003
20
-2.5249999999999928
42
-0.41421356237309503
10
207.02500000000001
20
-3.0249999999999999
10
207.02500000000003
20
-16.024999999999999
42
-0.41421356237309503
10
206.52500000000003
20
-16.525000000000002
0
LWPOLYLINE
5
102
100
AcDbEntity
8
0
100
AcDbPolyline
90
8
70
1
43
0.0
10
225.57500000000002
20
-2.5249999999999928
42
-0.41421356237309503
10
226.07500000000002
20
-3.0249999999999999
10
226.07500000000002
20
-16.024999999999999
42
-0.41421356237309503
10
225.57500000000002
20
-16.524999999999999
10
212.57499999999999
20
-16.525000000000006
42
-0.41421356237309503
10
212.07499999999999
20
-16.024999999999999
10
212.07499999999999
20
-3.0249999999999999
42
-0.41421356237309503
10
212.57499999999999
20
-2.5249999999999999
0
LWPOLYLINE
5
103
100
AcDbEntity
8
0
100
AcDbPolyline
90
8
70
1
43
0.0
10
135.875
20
-16.024999999999999
10
135.875
20
-3.0249999999999999
42
-0.41421356237309503
10
136.375
20
-2.5249999999999999
10
149.375
20
-2.5249999999999928
42
-0.41421356237309503
10
149.875
20
-3.0249999999999999
10
149.875
20
-16.024999999999999
42
-0.41421356237309503
10
149.375
20
-16.524999999999999
10
136.375
20
-16.525000000000006
42
-0.41421356237309503
0
LWPOLYLINE
5
104
100
AcDbEntity
8
0
100
AcDbPolyline
90
8
70
1
43
0.0
10
35.075000000000003
20
-21.575000000000003
42
-0.41421356237309503
10
35.575000000000003
20
-22.074999999999999
10
35.575000000000003
20
-35.075000000000003
42
-0.41421356237309503
10
35.075000000000003
20
-35.575000000000003
10
22.074999999999999
20
-35.575000000000003
42
-0.41421356237309503
10
21.575000000000003
20
-35.075000000000003
10
21.575000000000003
20
-22.074999999999999
42
-0.41421356237309503
10
22.074999999999999
20
-21.575000000000003
0
LWPOLYLINE
5
105
100
AcDbEntity
8
0
100
AcDbPolyline
90
8
70
1
43
0.0
10
155.42500000000001
20
-16.525000000000006
42
-0.41421356237309503
10
154.92500000000001
20
-16.024999999999999
10
154.92500000000001
20
-3.0249999999999999
42
-0.41421356237309503
10
155.42500000000001
20
-2.5249999999999999
10
168.42500000000001
20
-2.5249999999999928
42
-0.41421356237309503
10
168.92500000000001
20
-3.0249999999999999
10
168.92500000000001
20
-16.024999999999999
42
-0.41421356237309503
10
168.42500000000001
20
-16.524999999999999
0
LWPOLYLINE
5
106
100
AcDbEntity
8
0
100
AcDbPolyline
90
8
70
1
43
0.0
10
2.5249999999999999
20
-35.075000000000003
10
2.5250000000000017
20
-22.074999999999999
42
-0.41421356237309503
10
3.0249999999999999
20
-21.575000000000003
10
16.024999999999999
20
-21.574999999999996
42
-0.41421356237309503
10
16.525000000000002
20
-22.074999999999999
10
16.524999999999999
20
-35.075000000000003
42
-0.41421356237309503
10
16.024999999999999
20
-35.575000000000003
10
3.0249999999999999
20
-35.575000000000003
42
-0.41421356237309503
0
LWPOLYLINE
5
107
100
AcDbEntity
8
0
100
AcDbPolyline
90
8
70
1
43
0.0
10
187.97499999999999
20
-16.024999999999999
42
-0.41421356237309503
10
187.47499999999999
20
-16.525000000000002
10
174.47500000000002
20
-16.525000000000006
42
-0.41421356237309503
10
173.97500000000002
20
-16.024999999999999
10
173.97500000000002
20
-3.0249999999999999
42
-0.41421356237309503
10
174.47500000000002
20
-2.5249999999999999
10
187.47499999999999
20
-2.5249999999999928
42
-0.41421356237309503
10
187.97499999999999
20
-3.0249999999999999
0
LWPOLYLINE
5
108
100
AcDbEntity
8
0
100
AcDbPolyline
90
8
70
1
43
0.0
10
117.32500000000002
20
-35.57500000000001
42
-0.41421356237309503
10
116.82500000000002
20
-35.075000000000003
10
116.82500000000002
20
-22.074999999999999
42
-0.41421356237309503
10
117.32500000000002
20
-21.575000000000003
10
130.32499999999999
20
-21.574999999999992
42
-0.41421356237309503
10
130.82499999999999
20
-22.074999999999999
10
130.82499999999999
20
-35.075000000000003
42
-0.41421356237309503
10
130.32499999999999
20
-35.575000000000003
0
LWPOLYLINE
5
109
100
AcDbEntity
8
0
100
AcDbPolyline
90
8
70
1
43
0.0
10
54.125000000000007
20
-35.575000000000003
10
41.125
20
-35.575000000000003
42
-0.41421356237309503
10
40.625
20
-35.075000000000003
10
40.625
20
-22.074999999999999
42
-0.41421356237309503
10
41.125
20
-21.575000000000003
10
54.125000000000007
20
-21.575000000000003
42
-0.41421356237309503
10
54.625
20
-22.074999999999999
10
54.625
20
-35.075000000000003
42
-0.41421356237309503
0
LWPOLYLINE
5
110
100
AcDbEntity
8
0
100
AcDbPolyline
90
8
70
1
43
0.0
10
149.375
20
-21.574999999999992
42
-0.41421356237309503
10
149.875
20
-22.074999999999999
10
149.875
20
-35.075000000000003
42
-0.41421356237309503
10
149.375
20
-35.575000000000003
10
136.375
20
-35.57500000000001
42
-0.41421356237309503
10
135.875
20
-35.075000000000003
10
135.87500000000003
20
-22.074999999999999
42
-0.41421356237309503
10
136.375
20
-21.575000000000003
0
LWPOLYLINE
5
111
100
AcDbEntity
8
0
100
AcDbPolyline
90
8
70
1
43
0.0
10
59.675000000000004
20
-35.075000000000003
10
59.675000000000004
20
-22.074999999999999
42
-0.41421356237309503
10
60.174999999999997
20
-21.575000000000003
10
73.174999999999997
20
-21.575000000000003
42
-0.41421356237309503
10
73.674999999999997
20
-22.074999999999999
10
73.674999999999997
20
-35.075000000000003
42
-0.41421356237309503
10
73.174999999999997
20
-35.575000000000003
10
60.174999999999997
20
-35.575000000000003
42
-0.41421356237309503
0
LWPOLYLINE
5
112
100
AcDbEntity
8
0
100
AcDbPolyline
90
8
70
1
43
0.0
10
187.47499999999999
20
-35.575000000000003
10
174.47500000000002
20
-35.57500000000001
42
-0.41421356237309503
10
173.97500000000002
20
-35.075000000000003
10
173.97500000000002
20
-22.074999999999999
42
-0.41421356237309503
10
174.47500000000002
20
-21.575000000000003
10
187.47499999999999
20
-21.574999999999992
42
-0.41421356237309503
10
187.97499999999999
20
-22.074999999999999
10
187.97499999999999
20
-35.075000000000003
42
-0.41421356237309503
0
LWPOLYLINE
5
113
100
AcDbEntity
8
0
100
AcDbPolyline
90
8
70
1
43
0.0
10
79.224999999999994
20
-35.575000000000003
42
-0.41421356237309503
10
78.724999999999994
20
-35.075000000000003
10
78.724999999999994
20
-22.074999999999999
42
-0.41421356237309503
10
79.224999999999994
20
-21.575000000000003
10
92.224999999999994
20
-21.574999999999992
42
-0.41421356237309503
10
92.725000000000009
20
-22.074999999999999
10
92.725000000000009
20
-35.075000000000003
42
-0.41421356237309503
10
92.224999999999994
20
-35.575000000000003
0
LWPOLYLINE
5
114
100
AcDbEntity
8
0
100
AcDbPolyline
90
8
70
1
43
0.0
10
154.92500000000001
20
-35.075000000000003
10
154.92500000000004
20
-22.074999999999999
42
-0.41421356237309503
10
155.42500000000001
20
-21.575000000000003
10
168.42500000000001
20
-21.574999999999992
42
-0.41421356237309503
10
168.92500000000001
20
-22.074999999999999
10
168.92500000000001
20
-35.075000000000003
42
-0.41421356237309503
10
168.42500000000001
20
-35.575000000000003
10
155.42500000000001
20
-35.57500000000001
42
-0.41421356237309503
0
LWPOLYLINE
5
115
100
AcDbEntity
8
0
100
AcDbPolyline
90
8
70
1
43
0.0
10
111.77500000000002
20
-35.075000000000003
42
-0.41421356237309503
10
111.27500000000001
20
-35.575000000000003
10
98.275000000000006
20
-35.57500000000001
42
-0.41421356237309503
10
97.77500000000002
20
-35.075000000000003
10
97.775000000000006
20
-22.074999999999999
42
-0.41421356237309503
10
98.275000000000006
20
-21.575000000000003
10
111.27500000000001
20
-21.574999999999992
42
-0.41421356237309503
10
111.77500000000002
20
-22.074999999999999
0
LWPOLYLINE
5
116
100
AcDbEntity
8
0
100
AcDbPolyline
90
8
70
1
43
0.0
10
41.125
20
-54.625
42
-0.41421356237309503
10
40.625
20
-54.125000000000007
10
40.625
20
-41.125
42
-0.41421356237309503
10
41.125
20
-40.625
10
54.125000000000007
20
-40.625
42
-0.41421356237309503
10
54.625
20
-41.125
10
54.625
20
-54.125000000000007
42
-0.41421356237309503
10
54.125000000000007
20
-54.625
0
LWPOLYLINE
5
117
100
AcDbEntity
8
0
100
AcDbPolyline
90
8
70
1
43
0.0
10
206.52500000000003
20
-35.575000000000003
10
193.52500000000003
20
-35.57500000000001
42
-0.41421356237309503
10
193.02500000000003
20
-35.075000000000003
10
193.02500000000003
20
-22.074999999999999
42
-0.41421356237309503
10
193.52500000000003
20
-21.575000000000003
10
206.52500000000003
20
-21.574999999999992
42
-0.41421356237309503
10
207.02500000000001
20
-22.074999999999999
10
207.02500000000003
20
-35.075000000000003
42
-0.41421356237309503
0
LWPOLYLINE
5
118
100
AcDbEntity
8
0
100
AcDbPolyline
90
8
70
1
43
0.0
10
73.174999999999997
20
-40.625
42
-0.41421356237309503
10
73.674999999999997
20
-41.125
10
73.674999999999997
20
-54.125000000000007
42
-0.41421356237309503
10
73.174999999999997
20
-54.625
10
60.174999999999997
20
-54.625
42
-0.41421356237309503
10
59.675000000000004
20
-54.125000000000007
10
59.675000000000004
20
-41.125
42
-0.41421356237309503
10
60.174999999999997
20
-40.625
0
LWPOLYLINE
5
119
100
AcDbEntity
8
0
100
AcDbPolyline
90
8
70
1
43
0.0
10
212.07499999999999
20
-35.075000000000003
10
212.07499999999999
20
-22.074999999999999
42
-0.41421356237309503
10
212.57499999999999
20
-21.575000000000003
10
225.57500000000002
20
-21.574999999999992
42
-0.41421356237309503
10
226.07500000000002
20
-22.074999999999999
10
226.07500000000002
20
-35.075000000000003
42
-0.41421356237309503
10
225.57500000000002
20
-35.575000000000003
10
212.57499999999999
20
-35.57500000000001
42
-0.41421356237309503
0
LWPOLYLINE
5
120
100
AcDbEntity
8
0
100
AcDbPolyline
90
8
70
1
43
0.0
10
111.27500000000001
20
-54.625
10
98.275000000000006
20
-54.625000000000014
42
-0.41421356237309503
10
97.775000000000006
20
-54.125000000000007
10
97.775000000000006
20
-41.125
42
-0.41421356237309503
10
98.275000000000006
20
-40.625
10
111.27500000000001
20
-40.624999999999993
42
-0.41421356237309503
10
111.77500000000002
20
-41.125
10
111.77500000000002
20
-54.125000000000007
42
-0.41421356237309503
0
LWPOLYLINE
5
121
100
AcDbEntity
8
0
100
AcDbPolyline
90
8
70
1
43
0.0
10
3.0249999999999999
20
-54.625
42
-0.41421356237309503
10
2.5249999999999999
20
-54.125000000000007
10
2.5250000000000017
20
-41.125
42
-0.41421356237309503
10
3.0249999999999999
20
-40.625
10
16.024999999999999
20
-40.625
42
-0.41421356237309503
10
16.525000000000002
20
-41.125
10
16.524999999999999
20
-54.125000000000007
42
-0.41421356237309503
10
16.024999999999999
20
-54.625
0
LWPOLYLINE
5
122
100
AcDbEntity
8
0
100
AcDbPolyline
90
8
70
1
43
0.0
10
78.724999999999994
20
-54.125000000000007
10
78.724999999999994
20
-41.125
42
-0.41421356237309503
10
79.224999999999994
20
-40.625
10
92.224999999999994
20
-40.624999999999993
42
-0.41421356237309503
10
92.725000000000009
20
-41.125
10
92.725000000000009
20
-54.125000000000007
42
-0.41421356237309503
10
92.224999999999994
20
-54.625
10
79.224999999999994
20
-54.625
42
-0.41421356237309503
0
LWPOLYLINE
5
123
100
AcDbEntity
8
0
100
AcDbPolyline
90
8
70
1
43
0.0
10
35.575000000000003
20
-54.125000000000007
42
-0.41421356237309503
10
35.075000000000003
20
-54.625
10
22.074999999999999
20
-54.625
42
-0.41421356237309503
10
21.575000000000003
20
-54.125000000000007
10
21.575000000000003
20
-41.125
42
-0.41421356237309503
10
22.074999999999999
20
-40.625
10
35.075000000000003
20
-40.625
42
-0.41421356237309503
10
35.575000000000003
20
-41.125
0
LWPOLYLINE
5
124
100
AcDbEntity
8
0
100
AcDbPolyline
90
8
70
1
43
0.0
10
193.52500000000003
20
-54.625000000000014
42
-0.41421356237309503
10
193.02500000000003
20
-54.125000000000007
10
193.02500000000003
20
-41.125
42
-0.41421356237309503
10
193.52500000000003
20
-40.625
10
206.52500000000003
20
-40.624999999999993
42
-0.41421356237309503
10
207.02500000000001
20
-41.125
10
207.02500000000003
20
-54.125000000000007
42
-0.41421356237309503
10
206.52500000000003
20
-54.625
0
LWPOLYLINE
5
125
100
AcDbEntity
8
0
100
AcDbPolyline
90
8
70
1
43
0.0
10
130.32499999999999
20
-54.625
10
117.32500000000002
20
-54.625000000000014
42
-0.41421356237309503
10
116.82500000000002
20
-54.125000000000007
10
116.82500000000002
20
-41.125
42
-0.41421356237309503
10
117.32500000000002
20
-40.625
10
130.32499999999999
20
-40.624999999999993
42
-0.41421356237309503
10
130.82499999999999
20
-41.125
10
130.82499999999999
20
-54.125000000000007
42
-0.41421356237309503
0
LWPOLYLINE
5
126
100
AcDbEntity
8
0
100
AcDbPolyline
90
8
70
1
43
0.0
10
225.57500000000002
20
-40.624999999999993
42
-0.41421356237309503
10
226.07500000000002
20
-41.125
10
226.07500000000002
20
-54.125000000000007
42
-0.41421356237309503
10
225.57500000000002
20
-54.625
10
212.57499999999999
20
-54.625000000000014
42
-0.41421356237309503
10
212.07499999999999
20
-54.125000000000007
10
212.07499999999999
20
-41.125
42
-0.41421356237309503
10
212.57499999999999
20
-40.625
0
LWPOLYLINE
5
127
100
AcDbEntity
8
0
100
AcDbPolyline
90
8
70
1
43
0.0
10
135.875
20
-54.125000000000007
10
135.87500000000003
20
-41.125
42
-0.41421356237309503
10
136.375
20
-40.625
10
149.375
20
-40.624999999999993
42
-0.41421356237309503
10
149.875
20
-41.125
10
149.875
20
-54.125000000000007
42
-0.41421356237309503
10
149.375
20
-54.625
10
136.375
20
-54.625000000000014
42
-0.41421356237309503
0
LWPOLYLINE
5
128
100
AcDbEntity
8
0
100
AcDbPolyline
90
8
70
1
43
0.0
10
155.42500000000001
20
-54.625000000000014
42
-0.41421356237309503
10
154.92500000000001
20
-54.125000000000007
10
154.92500000000004
20
-41.125
42
-0.41421356237309503
10
155.42500000000001
20
-40.625
10
168.42500000000001
20
-40.624999999999993
42
-0.41421356237309503
10
168.92500000000001
20
-41.125
10
168.92500000000001
20
-54.125000000000007
42
-0.41421356237309503
10
168.42500000000001
20
-54.625
0
LWPOLYLINE
5
129
100
AcDbEntity
8
0
100
AcDbPolyline
90
8
70
1
43
0.0
10
187.97499999999999
20
-54.125000000000007
42
-0.41421356237309503
10
187.47499999999999
20
-54.625
10
174.47500000000002
20
-54.625000000000014
42
-0.41421356237309503
10
173.97500000000002
20
-54.125000000000007
10
173.97500000000002
20
-41.125
42
-0.41421356237309503
10
174.47500000000002
20
-40.625
10
187.47499999999999
20
-40.624999999999993
42
-0.41421356237309503
10
187.97499999999999
20
-41.125
0
LWPOLYLINE
5
130
100
AcDbEntity
8
0
100
AcDbPolyline
90
8
70
1
43
0.0
10
2.5250000000000017
20
-60.174999999999997
42
-0.41421356237309503
10
3.0250000000000021
20
-59.675000000000004
10
73.174999999999997
20
-59.675000000000004
42
-0.41421356237309503
10
73.674999999999997
20
-60.174999999999997
10
73.674999999999997
20
-73.174999999999997
42
-0.41421356237309503
10
73.174999999999997
20
-73.674999999999997
10
3.0249999999999999
20
-73.674999999999997
42
-0.41421356237309503
10
2.5249999999999999
20
-73.174999999999997
0
LWPOLYLINE
5
131
100
AcDbEntity
8
0
100
AcDbPolyline
90
20
70
1
43
0.0
10
92.224999999999994
20
-73.674999999999997
10
88.75
20
-73.674999999999997
10
86.812000000000026
20
-73.674999999999997
10
77.930750000000003
20
-73.674999999999983
42
-0.41421356237309503
10
77.430750000000018
20
-73.174999999999997
10
77.430750000000018
20
-60.174999999999997
42
-0.41421356237309503
10
77.930750000000003
20
-59.675000000000004
10
150.66925000000001
20
-59.674999999999997
42
-0.41421356237309503
10
151.16925000000003
20
-60.174999999999997
10
151.16925000000003
20
-73.174999999999997
42
-0.41421356237308982
10
150.66925000000001
20
-73.674999999999997
10
141.78799999999998
20
-73.674999999999997
10
139.84999999999999
20
-73.674999999999997
10
136.375
20
-73.674999999999997
10
130.32499999999999
20
-73.674999999999997
10
129.23124999999999
20
-73.674999999999997
10
127.32500000000002
20
-73.674999999999997
10
101.27500000000001
20
-73.674999999999997
10
99.368750000000006
20
-73.674999999999997
10
98.275000000000006
20
-73.674999999999997
0
LWPOLYLINE
5
132
100
AcDbEntity
8
0
100
AcDbPolyline
90
8
70
1
43
0.0
10
154.92500000000001
20
-73.174999999999997
10
154.92500000000004
20
-60.174999999999997
42
-0.41421356237309503
10
155.42500000000001
20
-59.675000000000004
10
225.57500000000002
20
-59.674999999999997
42
-0.41421356237309503
10
226.07500000000002
20
-60.174999999999997
10
226.07500000000002
20
-73.174999999999997
42
-0.41421356237309503
10
225.57500000000002
20
-73.674999999999997
10
155.42500000000001
20
-73.675000000000011
42
-0.41421356237309503
0
LWPOLYLINE
5
133
100
AcDbEntity
8
0
100
AcDbPolyline
90
8
70
1
43
0.0
10
41.125
20
-16.524999999999999
42
-0.41421356237309503
10
40.625
20
-16.024999999999999
10
40.625
20
-3.0249999999999999
42
-0.41421356237309503
10
41.125
20
-2.5249999999999999
10
54.125000000000007
20
-2.5250000000000017
42
-0.41421356237309503
10
54.625
20
-3.0249999999999999
10
54.625
20
-16.024999999999999
42
-0.41421356237309503
10
54.125000000000007
20
-16.525000000000002
0
LWPOLYLINE
5
134
100
AcDbEntity
8
0
100
AcDbPolyline
90
8
70
1
43
0.0
10
73.174999999999997
20
-2.5250000000000017
42
-0.41421356237309503
10
73.674999999999997
20
-3.0249999999999999
10
73.674999999999997
20
-16.024999999999999
42
-0.41421356237309503
10
73.174999999999997
20
-16.525000000000002
10
60.174999999999997
20
-16.524999999999999
42
-0.41421356237309503
10
59.675000000000004
20
-16.024999999999999
10
59.675000000000004
20
-3.0249999999999999
42
-0.41421356237309503
10
60.174999999999997
20
-2.5249999999999999
0
LWPOLYLINE
5
135
100
AcDbEntity
8
0
100
AcDbPolyline
90
8
70
1
43
0.0
10
3.0249999999999999
20
-16.525000000000002
42
-0.41421356237309503
10
2.5249999999999999
20
-16.024999999999999
10
2.5249999999999999
20
-3.0249999999999999
42
-0.41421356237309503
10
3.0249999999999999
20
-2.5249999999999999
10
16.024999999999999
20
-2.5249999999999995
42
-0.41421356237309503
10
16.525000000000002
20
-3.0249999999999999
10
16.525000000000002
20
-16.024999999999999
42
-0.41421356237309503
10
16.024999999999999
20
-16.524999999999999
0
LWPOLYLINE
5
136
100
AcDbEntity
8
0
100
AcDbPolyline
90
8
70
1
43
0.0
10
92.725000000000009
20
-16.024999999999999
42
-0.41421356237309503
10
92.224999999999994
20
-16.525000000000002
10
79.224999999999994
20
-16.524999999999999
42
-0.41421356237309503
10
78.724999999999994
20
-16.024999999999999
10
78.724999999999994
20
-3.0249999999999999
42
-0.41421356237309503
10
79.224999999999994
20
-2.5249999999999999
10
92.224999999999994
20
-2.5249999999999928
42
-0.41421356237309503
10
92.725000000000009
20
-3.0249999999999999
0
LWPOLYLINE
5
137
100
AcDbEntity
8
0
100
AcDbPolyline
90
8
70
1
43
0.0
10
35.575000000000003
20
-16.024999999999999
42
-0.41421356237309503
10
35.075000000000003
20
-16.525000000000002
10
22.074999999999999
20
-16.524999999999999
42
-0.41421356237309503
10
21.575000000000003
20
-16.024999999999999
10
21.575000000000003
20
-3.0249999999999999
42
-0.41421356237309503
10
22.074999999999999
20
-2.5249999999999999
10
35.075000000000003
20
-2.5250000000000017
42
-0.41421356237309503
10
35.575000000000003
20
-3.0249999999999999
0
LWPOLYLINE
5
138
100
AcDbEntity
8
0
100
AcDbPolyline
90
8
70
1
43
0.0
10
98.275000000000006
20
-16.525000000000006
42
-0.41421356237309503
10
97.775000000000006
20
-16.024999999999999
10
97.775000000000006
20
-3.0249999999999999
42
-0.41421356237309503
10
98.275000000000006
20
-2.5249999999999999
10
111.27500000000001
20
-2.5249999999999928
42
-0.41421356237309503
10
111.77500000000002
20
-3.0249999999999999
10
111.77500000000002
20
-16.024999999999999
42
-0.41421356237309503
10
111.27500000000001
20
-16.525000000000002
0
LWPOLYLINE
5
139
100
AcDbEntity
8
0
100
AcDbPolyline
90
28
70
1
43
0.0
10
-0.026722073142377362
20
-83.378858460707917
42
-0.84231883758724035
10
-10.903300858899199
20
-81.503300858899138
10
-10.903300858899176
20
-73.600000000000009
42
-0.3456017901622267
10
-7.8533008588991384
20
-69.714449845903388
42
0.34560179016223164
10
-4.8033008588991493
20
-65.828899691806811
10
-4.8033008588991066
20
-10.599999999999996
42
0.34560179016222808
10
-7.8533008588991375
20
-6.7144498459033741
42
-0.3456017901622247
10
-10.903300858899165
20
-2.8288996918068054
10
-10.903300858898994
20
5.3033008588991226
42
-0.8423188375872388
10
-0.026722073142461111
20
7.1788584607079802
10
1.3429898147121822
20
3.3253949983850006
42
0.31737364613907743
10
6.0542208734235103
20
9.9920072216264089e-15
10
222.54577912657618
20
-8.8817841970012523e-15
42
0.31737364613907537
10
227.25701018528832
20
3.3253949983849642
10
228.6267220731425
20
7.1788584607078887
42
-0.84231883758725346
10
239.50330085889925
20
5.3033008588991217
10
239.50330085889925
20
-2.8288996918068054
42
-0.34560179016223896
10
236.45330085889913
20
-6.7144498459033866
42
0.34560179016223408
10
233.40330085889912
20
-10.599999999999996
10
233.40330085889923
20
-65.599999999999994
42
0.34560179016223541
10
236.45330085889921
20
-69.485550154096543
42
-0.34560179016222603
10
239.50330085889925
20
-73.371100308193164
10
239.50330085889954
20
-81.503300858899166
42
-0.84231883758724635
10
228.62672207314228
20
-83.378858460708017
10
227.25701018528775
20
-79.525394998385195
42
0.31737364613910712
10
222.54577912657618
20
-76.200000000000045
10
6.0542208734235103
20
-76.200000000000031
42
0.3173736461390822
10
1.3429898147121833
20
-79.525394998384925
0
CIRCLE
5
140
100
AcDbEntity
8
0
100
AcDbCircle
10
-5.3033008588991137
20
-81.503300858899166
30
0
40
2.1000000000000001
210
0
220
-0
230
1
0
CIRCLE
5
141
100
AcDbEntity
8
0
100
AcDbCircle
10
-5.3033008588991137
20
5.3033008588991226
30
0
40
2.1000000000000001
210
0
220
-0
230
1
0
CIRCLE
5
142
100
AcDbEntity
8
0
100
AcDbCircle
10
233.90330085889923
20
5.3033008588991226
30
0
40
2.1000000000000085
210
0
220
-0
230
1
0
LWPOLYLINE
5
143
100
AcDbEntity
8
0
100
AcDbPolyline
90
4
70
1
43
0.0
10
230.59999928474417
20
-72.674999999999969
10
230.60000000000016
20
-3.5249999701976531
42
0.99999999999999989
10
228.60000000000025
20
-3.5249999701977242
10
228.59999928474446
20
-72.674999999999983
42
0.99999999999999989
0
CIRCLE
5
144
100
AcDbEntity
8
0
100
AcDbCircle
10
233.90330085889923
20
-81.503300858899124
30
0
40
2.1000000000000085
210
0
220
-0
230
1
0
LWPOLYLINE
5
145
100
AcDbEntity
8
0
100
AcDbPolyline
90
4
70
1
43
0.0
10
-7.1054273576010019e-14
20
-72.674999999999997
10
7.1525583678067051e-07
20
-3.5249999701976353
42
0.99999999999999989
10
-1.9999992847442982
20
-3.5249999701976797
10
-2.0000000000000284
20
-72.675000000000026
42
0.99999999999999989
0
ENDSEC
0
SECTION
2
OBJECTS
0
DICTIONARY
5
C
100
AcDbDictionary
3
ACAD_GROUP
350
D
3
ACAD_MLINESTYLE
350
17
0
DICTIONARY
5
D
100
AcDbDictionary
0
DICTIONARY
5
1A
330
C
100
AcDbDictionary
0
DICTIONARY
5
17
100
AcDbDictionary
0
ENDSEC
0
EOF
