0
SECTION
2
HEADER
9
$INSUNITS
70
4
9
$ACADVER
1
AC1014
9
$HANDSEED
5
FFFF
0
ENDSEC
0
SECTION
2
TABLES
0
TABLE
2
VPORT
5
8
100
AcDbSymbolTable
0
ENDTAB
0
TABLE
2
LTYPE
5
5
100
AcDbSymbolTable
0
LTYPE
5
14
100
AcDbSymbolTableRecord
100
AcDbLinetypeTableRecord
2
BYBLOCK
70
0
0
LTYPE
5
15
100
AcDbSymbolTableRecord
100
AcDbLinetypeTableRecord
2
BYLAYER
70
0
0
ENDTAB
0
TABLE
2
LAYER
5
2
100
AcDbSymbolTable
70
2
0
LAYER
5
50
100
AcDbSymbolTableRecord
100
AcDbLayerTableRecord
2
0
70
0
6
CONTINUOUS
0
ENDTAB
0
TABLE
2
STYLE
5
3
100
AcDbSymbolTable
70
1
0
STYLE
5
11
100
AcDbSymbolTableRecord
100
AcDbTextStyleTableRecord
2
STANDARD
70
0
0
ENDTAB
0
TABLE
2
VIEW
5
6
100
AcDbSymbolTable
70
0
0
ENDTAB
0
TABLE
2
UCS
5
7
100
AcDbSymbolTable
70
0
0
ENDTAB
0
TABLE
2
APPID
5
9
100
AcDbSymbolTable
70
2
0
APPID
5
12
100
AcDbSymbolTableRecord
100
AcDbRegAppTableRecord
2
ACAD
70
0
0
ENDTAB
0
TABLE
2
DIMSTYLE
5
A
100
AcDbSymbolTable
70
1
0
ENDTAB
0
TABLE
2
BLOCK_RECORD
5
1
100
AcDbSymbolTable
70
1
0
BLOCK_RECORD
5
1F
100
AcDbSymbolTableRecord
100
AcDbBlockTableRecord
2
*MODEL_SPACE
0
BLOCK_RECORD
5
1B
100
AcDbSymbolTableRecord
100
AcDbBlockTableRecord
2
*PAPER_SPACE
0
ENDTAB
0
ENDSEC
0
SECTION
2
BLOCKS
0
BLOCK
5
20
100
AcDbEntity
100
AcDbBlockBegin
2
*MODEL_SPACE
0
ENDBLK
5
21
100
AcDbEntity
100
AcDbBlockEnd
0
BLOCK
5
1C
100
AcDbEntity
100
AcDbBlockBegin
2
*PAPER_SPACE
0
ENDBLK
5
1D
100
AcDbEntity
100
AcDbBlockEnd
0
ENDSEC
0
SECTION
2
ENTITIES
0
LWPOLYLINE
5
100
100
AcDbEntity
8
0
100
AcDbPolyline
90
8
70
1
43
0.0
10
232.26749477308334
20
36.872907522512307
42
0.41421356237309503
10
232.76749477308334
20
37.372907522512321
10
232.76749477308334
20
50.372907522512321
42
0.41421356237309503
10
232.26749477308334
20
50.872907522512335
10
219.26749477308334
20
50.872907522512335
42
0.41421356237309503
10
218.76749477308334
20
50.372907522512321
10
218.76749477308334
20
37.372907522512321
42
0.41421356237309503
10
219.26749477308334
20
36.872907522512307
0
LWPOLYLINE
5
101
100
AcDbEntity
8
0
100
AcDbPolyline
90
8
70
1
43
0.0
10
194.16749477308332
20
146.12290752251232
10
181.16749477308335
20
146.12290752251232
42
0.41421356237309503
10
180.66749477308335
20
145.62290752251232
10
180.66749477308335
20
132.62290752251232
42
0.41421356237309503
10
181.16749477308335
20
132.12290752251232
10
194.16749477308332
20
132.12290752251232
42
0.41421356237309503
10
194.66749477308332
20
132.62290752251232
10
194.66749477308332
20
145.62290752251232
42
0.41421356237309503
0
LWPOLYLINE
5
102
100
AcDbEntity
8
0
100
AcDbPolyline
90
8
70
1
43
0.0
10
199.71749477308336
20
132.62290752251232
42
0.41421356237309503
10
200.21749477308336
20
132.12290752251232
10
213.21749477308339
20
132.12290752251232
42
0.41421356237309503
10
213.71749477308339
20
132.62290752251232
10
213.71749477308339
20
145.62290752251232
42
0.41421356237309503
10
213.21749477308339
20
146.12290752251232
10
200.21749477308336
20
146.12290752251232
42
0.41421356237309503
10
199.71749477308336
20
145.62290752251232
0
LWPOLYLINE
5
103
100
AcDbEntity
8
0
100
AcDbPolyline
90
8
70
1
43
0.0
10
328.01749477308334
20
132.62290752251232
10
328.01749477308334
20
145.62290752251232
42
0.41421356237309503
10
327.5174947730834
20
146.12290752251229
10
314.51749477308334
20
146.12290752251232
42
0.41421356237309503
10
314.01749477308334
20
145.62290752251232
10
314.01749477308334
20
132.62290752251232
42
0.41421356237309503
10
314.51749477308334
20
132.12290752251232
10
327.5174947730834
20
132.12290752251232
42
0.41421356237309503
0
LWPOLYLINE
5
104
100
AcDbEntity
8
0
100
AcDbPolyline
90
8
70
1
43
0.0
10
275.91749477308338
20
145.62290752251232
10
275.91749477308338
20
132.62290752251232
42
0.41421356237309503
10
276.41749477308338
20
132.12290752251232
10
289.41749477308338
20
132.12290752251232
42
0.41421356237309503
10
289.91749477308338
20
132.62290752251232
10
289.91749477308338
20
145.62290752251232
42
0.41421356237309503
10
289.41749477308338
20
146.12290752251232
10
276.41749477308338
20
146.12290752251232
42
0.41421356237309503
0
LWPOLYLINE
5
105
100
AcDbEntity
8
0
100
AcDbPolyline
90
8
70
1
43
0.0
10
232.26749477308334
20
132.12290752251232
42
0.41421356237309503
10
232.76749477308334
20
132.62290752251232
10
232.76749477308334
20
145.62290752251232
42
0.41421356237309503
10
232.26749477308334
20
146.12290752251232
10
219.26749477308334
20
146.12290752251232
42
0.41421356237309503
10
218.76749477308334
20
145.62290752251232
10
218.76749477308334
20
132.62290752251232
42
0.41421356237309503
10
219.26749477308334
20
132.12290752251232
0
LWPOLYLINE
5
106
100
AcDbEntity
8
0
100
AcDbPolyline
90
8
70
1
43
0.0
10
251.81749477308335
20
132.62290752251232
10
251.81749477308335
20
145.62290752251232
42
0.41421356237309503
10
251.31749477308335
20
146.12290752251232
10
238.31749477308335
20
146.12290752251232
42
0.41421356237309503
10
237.81749477308335
20
145.62290752251232
10
237.81749477308335
20
132.62290752251235
42
0.41421356237309503
10
238.31749477308335
20
132.12290752251232
10
251.31749477308335
20
132.12290752251232
42
0.41421356237309503
0
LWPOLYLINE
5
107
100
AcDbEntity
8
0
100
AcDbPolyline
90
8
70
1
43
0.0
10
308.46749477308333
20
132.12290752251232
42
0.41421356237309503
10
308.96749477308333
20
132.62290752251232
10
308.96749477308333
20
145.62290752251232
42
0.41421356237309503
10
308.46749477308333
20
146.12290752251232
10
295.46749477308333
20
146.12290752251232
42
0.41421356237309503
10
294.96749477308333
20
145.62290752251232
10
294.96749477308333
20
132.62290752251235
42
0.41421356237309503
10
295.46749477308333
20
132.12290752251232
0
LWPOLYLINE
5
108
100
AcDbEntity
8
0
100
AcDbPolyline
90
8
70
1
43
0.0
10
333.06749477308335
20
132.62290752251232
42
0.41421356237309503
10
333.56749477308335
20
132.12290752251238
10
346.56749477308335
20
132.12290752251232
42
0.41421356237309503
10
347.06749477308335
20
132.62290752251232
10
347.06749477308335
20
145.62290752251238
42
0.41421356237309503
10
346.56749477308335
20
146.12290752251232
10
333.56749477308335
20
146.12290752251232
42
0.41421356237309503
10
333.06749477308335
20
145.62290752251232
0
LWPOLYLINE
5
109
100
AcDbEntity
8
0
100
AcDbPolyline
90
8
70
1
43
0.0
10
257.36749477308337
20
146.12290752251232
42
0.41421356237309503
10
256.86749477308337
20
145.62290752251232
10
256.86749477308337
20
132.62290752251232
42
0.41421356237309503
10
257.36749477308337
20
132.12290752251232
10
270.36749477308337
20
132.12290752251232
42
0.41421356237309503
10
270.86749477308337
20
132.62290752251232
10
270.86749477308337
20
145.62290752251232
42
0.41421356237309503
10
270.36749477308337
20
146.12290752251232
0
LWPOLYLINE
5
110
100
AcDbEntity
8
0
100
AcDbPolyline
90
8
70
1
43
0.0
10
352.11749477308337
20
132.62290752251232
42
0.41421356237309503
10
352.61749477308337
20
132.12290752251238
10
365.61749477308342
20
132.12290752251232
42
0.41421356237309503
10
366.11749477308337
20
132.62290752251232
10
366.11749477308337
20
145.62290752251232
42
0.41421356237309503
10
365.61749477308342
20
146.12290752251229
10
352.61749477308337
20
146.12290752251232
42
0.41421356237309503
10
352.11749477308337
20
145.62290752251232
0
LWPOLYLINE
5
111
100
AcDbEntity
8
0
100
AcDbPolyline
90
8
70
1
43
0.0
10
104.96749477308335
20
113.07290752251232
10
117.96749477308336
20
113.07290752251232
42
0.41421356237309503
10
118.46749477308336
20
113.57290752251232
10
118.46749477308336
20
126.57290752251231
42
0.41421356237309503
10
117.96749477308336
20
127.07290752251232
10
104.96749477308335
20
127.07290752251232
42
0.41421356237309503
10
104.46749477308336
20
126.57290752251234
10
104.46749477308333
20
113.57290752251232
42
0.41421356237309503
0
LWPOLYLINE
5
112
100
AcDbEntity
8
0
100
AcDbPolyline
90
8
70
1
43
0.0
10
28.767494773083339
20
127.07290752251232
42
0.41421356237309503
10
28.267494773083342
20
126.57290752251234
10
28.267494773083342
20
113.57290752251232
42
0.41421356237309503
10
28.767494773083339
20
113.07290752251234
10
41.767494773083342
20
113.07290752251234
42
0.41421356237309503
10
42.267494773083349
20
113.57290752251232
10
42.267494773083342
20
126.57290752251234
42
0.41421356237309503
10
41.767494773083342
20
127.07290752251232
0
LWPOLYLINE
5
113
100
AcDbEntity
8
0
100
AcDbPolyline
90
8
70
1
43
0.0
10
47.31749477308334
20
113.57290752251232
42
0.41421356237309503
10
47.81749477308334
20
113.07290752251234
10
60.817494773083347
20
113.07290752251232
42
0.41421356237309503
10
61.31749477308334
20
113.57290752251232
10
61.31749477308334
20
126.57290752251234
42
0.41421356237309503
10
60.817494773083347
20
127.07290752251232
10
47.81749477308334
20
127.07290752251232
42
0.41421356237309503
10
47.31749477308334
20
126.57290752251234
0
LWPOLYLINE
5
114
100
AcDbEntity
8
0
100
AcDbPolyline
90
8
70
1
43
0.0
10
80.367494773083337
20
126.57290752251234
42
0.41421356237309503
10
79.867494773083337
20
127.07290752251232
10
66.867494773083337
20
127.07290752251232
42
0.41421356237309503
10
66.367494773083337
20
126.57290752251234
10
66.367494773083337
20
113.57290752251232
42
0.41421356237309503
10
66.867494773083337
20
113.07290752251234
10
79.867494773083337
20
113.07290752251234
42
0.41421356237309503
10
80.367494773083337
20
113.57290752251232
0
LWPOLYLINE
5
115
100
AcDbEntity
8
0
100
AcDbPolyline
90
8
70
1
43
0.0
10
371.16749477308338
20
145.62290752251232
10
371.16749477308338
20
132.62290752251232
42
0.41421356237309503
10
371.66749477308338
20
132.12290752251235
10
384.66749477308338
20
132.12290752251232
42
0.41421356237309503
10
385.16749477308338
20
132.62290752251232
10
385.16749477308338
20
145.62290752251232
42
0.41421356237309503
10
384.66749477308338
20
146.12290752251229
10
371.66749477308338
20
146.12290752251232
42
0.41421356237309503
0
LWPOLYLINE
5
116
100
AcDbEntity
8
0
100
AcDbPolyline
90
8
70
1
43
0.0
10
85.917494773083334
20
113.07290752251232
10
98.917494773083348
20
113.07290752251232
42
0.41421356237309503
10
99.417494773083334
20
113.57290752251232
10
99.417494773083334
20
126.57290752251234
42
0.41421356237309503
10
98.91749477308332
20
127.07290752251234
10
85.917494773083334
20
127.07290752251232
42
0.41421356237309503
10
85.41749477308332
20
126.57290752251234
10
85.41749477308332
20
113.57290752251232
42
0.41421356237309503
0
LWPOLYLINE
5
117
100
AcDbEntity
8
0
100
AcDbPolyline
90
8
70
1
43
0.0
10
137.01749477308334
20
113.07290752251234
42
0.41421356237309503
10
137.51749477308334
20
113.57290752251232
10
137.51749477308334
20
126.57290752251234
42
0.41421356237309503
10
137.01749477308334
20
127.07290752251234
10
124.01749477308336
20
127.07290752251232
42
0.41421356237309503
10
123.51749477308334
20
126.57290752251234
10
123.51749477308334
20
113.57290752251232
42
0.41421356237309503
10
124.01749477308336
20
113.07290752251232
0
LWPOLYLINE
5
118
100
AcDbEntity
8
0
100
AcDbPolyline
90
8
70
1
43
0.0
10
142.56749477308335
20
113.57290752251232
42
0.41421356237309503
10
143.06749477308335
20
113.07290752251231
10
156.06749477308335
20
113.07290752251234
42
0.41421356237309503
10
156.56749477308335
20
113.57290752251232
10
156.56749477308335
20
126.57290752251234
42
0.41421356237309503
10
156.06749477308335
20
127.07290752251234
10
143.06749477308335
20
127.07290752251232
42
0.41421356237309503
10
142.56749477308335
20
126.57290752251234
0
LWPOLYLINE
5
119
100
AcDbEntity
8
0
100
AcDbPolyline
90
8
70
1
43
0.0
10
270.86749477308337
20
113.57290752251232
10
270.86749477308337
20
126.57290752251234
42
0.41421356237309503
10
270.36749477308337
20
127.07290752251234
10
257.36749477308337
20
127.07290752251232
42
0.41421356237309503
10
256.86749477308337
20
126.57290752251234
10
256.86749477308337
20
113.57290752251232
42
0.41421356237309503
10
257.36749477308337
20
113.07290752251232
10
270.36749477308337
20
113.07290752251234
42
0.41421356237309503
0
LWPOLYLINE
5
120
100
AcDbEntity
8
0
100
AcDbPolyline
90
8
70
1
43
0.0
10
232.76749477308334
20
113.57290752251232
10
232.76749477308334
20
126.57290752251234
42
0.41421356237309503
10
232.26749477308334
20
127.07290752251234
10
219.26749477308334
20
127.07290752251232
42
0.41421356237309503
10
218.76749477308334
20
126.57290752251234
10
218.76749477308334
20
113.57290752251232
42
0.41421356237309503
10
219.26749477308334
20
113.07290752251231
10
232.26749477308334
20
113.07290752251234
42
0.41421356237309503
0
LWPOLYLINE
5
121
100
AcDbEntity
8
0
100
AcDbPolyline
90
8
70
1
43
0.0
10
251.31749477308335
20
127.07290752251232
10
238.31749477308335
20
127.07290752251232
42
0.41421356237309503
10
237.81749477308335
20
126.57290752251234
10
237.81749477308335
20
113.57290752251232
42
0.41421356237309503
10
238.31749477308335
20
113.07290752251232
10
251.31749477308335
20
113.07290752251232
42
0.41421356237309503
10
251.81749477308335
20
113.57290752251232
10
251.81749477308335
20
126.57290752251231
42
0.41421356237309503
0
LWPOLYLINE
5
122
100
AcDbEntity
8
0
100
AcDbPolyline
90
8
70
1
43
0.0
10
161.61749477308334
20
113.57290752251232
42
0.41421356237309503
10
162.11749477308337
20
113.07290752251231
10
175.11749477308337
20
113.07290752251232
42
0.41421356237309503
10
175.61749477308337
20
113.57290752251232
10
175.61749477308337
20
126.57290752251234
42
0.41421356237309503
10
175.11749477308337
20
127.07290752251234
10
162.11749477308334
20
127.07290752251232
42
0.41421356237309503
10
161.61749477308334
20
126.57290752251234
0
LWPOLYLINE
5
123
100
AcDbEntity
8
0
100
AcDbPolyline
90
8
70
1
43
0.0
10
194.16749477308332
20
127.07290752251232
10
181.16749477308335
20
127.07290752251232
42
0.41421356237309503
10
180.66749477308335
20
126.57290752251234
10
180.66749477308335
20
113.57290752251232
42
0.41421356237309503
10
181.16749477308335
20
113.07290752251231
10
194.16749477308332
20
113.07290752251234
42
0.41421356237309503
10
194.66749477308332
20
113.57290752251232
10
194.66749477308332
20
126.57290752251231
42
0.41421356237309503
0
LWPOLYLINE
5
124
100
AcDbEntity
8
0
100
AcDbPolyline
90
8
70
1
43
0.0
10
276.41749477308338
20
113.07290752251232
10
289.41749477308338
20
113.07290752251232
42
0.41421356237309503
10
289.91749477308338
20
113.57290752251232
10
289.91749477308338
20
126.57290752251231
42
0.41421356237309503
10
289.41749477308338
20
127.07290752251232
10
276.41749477308338
20
127.07290752251232
42
0.41421356237309503
10
275.91749477308338
20
126.57290752251234
10
275.91749477308338
20
113.57290752251232
42
0.41421356237309503
0
LWPOLYLINE
5
125
100
AcDbEntity
8
0
100
AcDbPolyline
90
8
70
1
43
0.0
10
213.71749477308339
20
126.57290752251234
42
0.41421356237309503
10
213.21749477308339
20
127.07290752251234
10
200.21749477308336
20
127.07290752251232
42
0.41421356237309503
10
199.71749477308336
20
126.57290752251234
10
199.71749477308336
20
113.57290752251232
42
0.41421356237309503
10
200.21749477308336
20
113.07290752251231
10
213.21749477308339
20
113.07290752251234
42
0.41421356237309503
10
213.71749477308339
20
113.57290752251232
0
LWPOLYLINE
5
126
100
AcDbEntity
8
0
100
AcDbPolyline
90
8
70
1
43
0.0
10
294.96749477308333
20
113.57290752251232
42
0.41421356237309503
10
295.46749477308333
20
113.07290752251231
10
308.46749477308333
20
113.07290752251234
42
0.41421356237309503
10
308.96749477308333
20
113.57290752251232
10
308.96749477308333
20
126.57290752251234
42
0.41421356237309503
10
308.46749477308333
20
127.07290752251234
10
295.46749477308333
20
127.07290752251232
42
0.41421356237309503
10
294.96749477308333
20
126.57290752251234
0
LWPOLYLINE
5
127
100
AcDbEntity
8
0
100
AcDbPolyline
90
8
70
1
43
0.0
10
384.66749477308338
20
127.07290752251232
10
371.66749477308338
20
127.07290752251232
42
0.41421356237309503
10
371.16749477308338
20
126.57290752251234
10
371.16749477308338
20
113.57290752251232
42
0.41421356237309503
10
371.66749477308338
20
113.07290752251234
10
384.66749477308338
20
113.07290752251234
42
0.41421356237309503
10
385.16749477308338
20
113.57290752251232
10
385.16749477308338
20
126.57290752251235
42
0.41421356237309503
0
LWPOLYLINE
5
128
100
AcDbEntity
8
0
100
AcDbPolyline
90
8
70
1
43
0.0
10
347.06749477308335
20
126.57290752251234
42
0.41421356237309503
10
346.56749477308335
20
127.07290752251231
10
333.56749477308335
20
127.07290752251232
42
0.41421356237309503
10
333.06749477308335
20
126.57290752251234
10
333.06749477308335
20
113.57290752251232
42
0.41421356237309503
10
333.56749477308335
20
113.07290752251235
10
346.56749477308335
20
113.07290752251234
42
0.41421356237309503
10
347.06749477308335
20
113.57290752251232
0
LWPOLYLINE
5
129
100
AcDbEntity
8
0
100
AcDbPolyline
90
8
70
1
43
0.0
10
366.11749477308337
20
113.57290752251232
10
366.11749477308337
20
126.57290752251234
42
0.41421356237309503
10
365.61749477308342
20
127.07290752251231
10
352.61749477308337
20
127.07290752251232
42
0.41421356237309503
10
352.11749477308337
20
126.57290752251234
10
352.11749477308337
20
113.5729075225123
42
0.41421356237309503
10
352.61749477308337
20
113.07290752251232
10
365.61749477308342
20
113.07290752251232
42
0.41421356237309503
0
LWPOLYLINE
5
130
100
AcDbEntity
8
0
100
AcDbPolyline
90
8
70
1
43
0.0
10
328.01749477308334
20
113.57290752251232
10
328.01749477308334
20
126.57290752251234
42
0.41421356237309503
10
327.5174947730834
20
127.07290752251231
10
314.51749477308334
20
127.07290752251232
42
0.41421356237309503
10
314.01749477308334
20
126.57290752251234
10
314.01749477308334
20
113.57290752251232
42
0.41421356237309503
10
314.51749477308334
20
113.07290752251232
10
327.5174947730834
20
113.07290752251234
42
0.41421356237309503
0
LWPOLYLINE
5
131
100
AcDbEntity
8
0
100
AcDbPolyline
90
19
70
1
43
0.0
10
42.267494773083349
20
94.522907522512327
10
42.267494773083349
20
97.997907522512335
10
42.267494773083349
20
100.43590752251234
10
42.267494773083349
20
106.43590752251234
10
42.267494773083342
20
107.52290752251234
42
0.41421356237309503
10
41.767494773083342
20
108.02290752251233
10
28.767494773083339
20
108.02290752251233
42
0.41421356237309503
10
28.267494773083342
20
107.52290752251234
10
28.267494773083342
20
99.935907522512338
10
28.267494773083342
20
83.059907522512319
10
28.267494773083342
20
76.059907522512319
10
28.267494773083342
20
75.47290752251233
42
0.41421356237309503
10
28.767494773083339
20
74.97290752251233
10
41.767494773083342
20
74.97290752251233
42
0.41421356237309503
10
42.267494773083342
20
75.47290752251233
10
42.267494773083349
20
76.559907522512319
10
42.267494773083349
20
82.559907522512333
10
42.267494773083349
20
84.997907522512321
10
42.267494773083349
20
88.47290752251233
0
LWPOLYLINE
5
132
100
AcDbEntity
8
0
100
AcDbPolyline
90
8
70
1
43
0.0
10
47.31749477308334
20
94.522907522512327
42
0.41421356237309503
10
47.81749477308334
20
94.022907522512327
10
60.817494773083347
20
94.022907522512327
42
0.41421356237309503
10
61.31749477308334
20
94.522907522512327
10
61.31749477308334
20
107.52290752251234
42
0.41421356237309503
10
60.817494773083347
20
108.02290752251233
10
47.81749477308334
20
108.02290752251233
42
0.41421356237309503
10
47.31749477308334
20
107.52290752251234
0
LWPOLYLINE
5
133
100
AcDbEntity
8
0
100
AcDbPolyline
90
8
70
1
43
0.0
10
162.11749477308337
20
94.022907522512327
10
175.11749477308337
20
94.022907522512327
42
0.41421356237309503
10
175.61749477308337
20
94.522907522512327
10
175.61749477308337
20
107.5229075225123
42
0.41421356237309503
10
175.11749477308337
20
108.02290752251233
10
162.11749477308337
20
108.02290752251233
42
0.41421356237309503
10
161.61749477308337
20
107.52290752251234
10
161.61749477308334
20
94.522907522512327
42
0.41421356237309503
0
LWPOLYLINE
5
134
100
AcDbEntity
8
0
100
AcDbPolyline
90
8
70
1
43
0.0
10
104.46749477308336
20
107.52290752251234
10
104.46749477308336
20
94.522907522512327
42
0.41421356237309503
10
104.96749477308336
20
94.022907522512313
10
117.96749477308336
20
94.022907522512327
42
0.41421356237309503
10
118.46749477308336
20
94.522907522512327
10
118.46749477308336
20
107.52290752251234
42
0.41421356237309503
10
117.96749477308336
20
108.02290752251236
10
104.96749477308335
20
108.02290752251233
42
0.41421356237309503
0
LWPOLYLINE
5
135
100
AcDbEntity
8
0
100
AcDbPolyline
90
8
70
1
43
0.0
10
85.917494773083334
20
108.02290752251233
42
0.41421356237309503
10
85.41749477308332
20
107.52290752251234
10
85.41749477308332
20
94.522907522512327
42
0.41421356237309503
10
85.917494773083334
20
94.022907522512327
10
98.917494773083348
20
94.022907522512327
42
0.41421356237309503
10
99.417494773083348
20
94.522907522512327
10
99.417494773083348
20
107.5229075225123
42
0.41421356237309503
10
98.917494773083348
20
108.02290752251233
0
LWPOLYLINE
5
136
100
AcDbEntity
8
0
100
AcDbPolyline
90
8
70
1
43
0.0
10
124.01749477308336
20
94.022907522512327
10
137.01749477308334
20
94.022907522512327
42
0.41421356237309503
10
137.51749477308334
20
94.522907522512327
10
137.51749477308334
20
107.5229075225123
42
0.41421356237309503
10
137.01749477308334
20
108.02290752251233
10
124.01749477308336
20
108.02290752251233
42
0.41421356237309503
10
123.51749477308334
20
107.52290752251234
10
123.51749477308334
20
94.522907522512327
42
0.41421356237309503
0
LWPOLYLINE
5
137
100
AcDbEntity
8
0
100
AcDbPolyline
90
8
70
1
43
0.0
10
156.56749477308335
20
107.52290752251234
42
0.41421356237309503
10
156.06749477308335
20
108.02290752251236
10
143.06749477308335
20
108.02290752251233
42
0.41421356237309503
10
142.56749477308335
20
107.52290752251234
10
142.56749477308335
20
94.522907522512327
42
0.41421356237309503
10
143.06749477308335
20
94.022907522512313
10
156.06749477308335
20
94.022907522512327
42
0.41421356237309503
10
156.56749477308335
20
94.522907522512327
0
LWPOLYLINE
5
138
100
AcDbEntity
8
0
100
AcDbPolyline
90
8
70
1
43
0.0
10
80.367494773083337
20
107.52290752251234
42
0.41421356237309503
10
79.867494773083337
20
108.02290752251233
10
66.867494773083337
20
108.02290752251233
42
0.41421356237309503
10
66.367494773083337
20
107.52290752251234
10
66.367494773083337
20
94.522907522512327
42
0.41421356237309503
10
66.867494773083337
20
94.022907522512327
10
79.867494773083337
20
94.022907522512327
42
0.41421356237309503
10
80.367494773083337
20
94.522907522512327
0
LWPOLYLINE
5
139
100
AcDbEntity
8
0
100
AcDbPolyline
90
8
70
1
43
0.0
10
194.66749477308332
20
107.52290752251234
42
0.41421356237309503
10
194.16749477308332
20
108.02290752251236
10
181.16749477308335
20
108.02290752251233
42
0.41421356237309503
10
180.66749477308335
20
107.52290752251234
10
180.66749477308335
20
94.522907522512327
42
0.41421356237309503
10
181.16749477308335
20
94.022907522512327
10
194.16749477308332
20
94.022907522512327
42
0.41421356237309503
10
194.66749477308332
20
94.522907522512327
0
LWPOLYLINE
5
140
100
AcDbEntity
8
0
100
AcDbPolyline
90
8
70
1
43
0.0
10
213.21749477308339
20
94.022907522512327
42
0.41421356237309503
10
213.71749477308339
20
94.522907522512327
10
213.71749477308333
20
107.52290752251234
42
0.41421356237309503
10
213.21749477308339
20
108.02290752251233
10
200.21749477308336
20
108.02290752251233
42
0.41421356237309503
10
199.71749477308336
20
107.52290752251234
10
199.71749477308336
20
94.522907522512327
42
0.41421356237309503
10
200.21749477308336
20
94.022907522512327
0
LWPOLYLINE
5
141
100
AcDbEntity
8
0
100
AcDbPolyline
90
8
70
1
43
0.0
10
276.41749477308338
20
94.022907522512327
10
289.41749477308338
20
94.022907522512327
42
0.41421356237309503
10
289.91749477308338
20
94.522907522512327
10
289.91749477308338
20
107.52290752251234
42
0.41421356237309503
10
289.41749477308338
20
108.02290752251233
10
276.41749477308338
20
108.02290752251233
42
0.41421356237309503
10
275.91749477308338
20
107.52290752251234
10
275.91749477308338
20
94.522907522512327
42
0.41421356237309503
0
LWPOLYLINE
5
142
100
AcDbEntity
8
0
100
AcDbPolyline
90
8
70
1
43
0.0
10
219.26749477308334
20
94.022907522512327
10
232.26749477308334
20
94.022907522512327
42
0.41421356237309503
10
232.76749477308334
20
94.522907522512327
10
232.76749477308334
20
107.52290752251234
42
0.41421356237309503
10
232.26749477308334
20
108.02290752251233
10
219.26749477308334
20
108.02290752251233
42
0.41421356237309503
10
218.76749477308334
20
107.52290752251234
10
218.76749477308334
20
94.522907522512327
42
0.41421356237309503
0
LWPOLYLINE
5
143
100
AcDbEntity
8
0
100
AcDbPolyline
90
8
70
1
43
0.0
10
270.86749477308337
20
107.52290752251234
42
0.41421356237309503
10
270.36749477308337
20
108.02290752251233
10
257.36749477308337
20
108.02290752251233
42
0.41421356237309503
10
256.86749477308337
20
107.52290752251234
10
256.86749477308337
20
94.522907522512327
42
0.41421356237309503
10
257.36749477308337
20
94.022907522512327
10
270.36749477308337
20
94.022907522512327
42
0.41421356237309503
10
270.86749477308337
20
94.522907522512327
0
LWPOLYLINE
5
144
100
AcDbEntity
8
0
100
AcDbPolyline
90
8
70
1
43
0.0
10
308.46749477308333
20
94.022907522512327
42
0.41421356237309503
10
308.96749477308333
20
94.522907522512327
10
308.96749477308333
20
107.52290752251234
42
0.41421356237309503
10
308.46749477308333
20
108.02290752251233
10
295.46749477308333
20
108.02290752251233
42
0.41421356237309503
10
294.96749477308333
20
107.52290752251234
10
294.96749477308333
20
94.522907522512327
42
0.41421356237309503
10
295.46749477308333
20
94.022907522512327
0
LWPOLYLINE
5
145
100
AcDbEntity
8
0
100
AcDbPolyline
90
8
70
1
43
0.0
10
314.01749477308334
20
94.522907522512327
42
0.41421356237309503
10
314.51749477308334
20
94.022907522512327
10
327.5174947730834
20
94.022907522512327
42
0.41421356237309503
10
328.01749477308334
20
94.522907522512327
10
328.01749477308334
20
107.52290752251234
42
0.41421356237309503
10
327.5174947730834
20
108.02290752251233
10
314.51749477308334
20
108.02290752251233
42
0.41421356237309503
10
314.01749477308334
20
107.52290752251234
0
LWPOLYLINE
5
146
100
AcDbEntity
8
0
100
AcDbPolyline
90
24
70
1
43
0.0
10
385.16749477308338
20
88.47290752251233
10
385.16749477308338
20
94.522907522512327
10
385.16749477308338
20
97.997907522512335
10
385.16749477308338
20
100.43590752251234
10
385.16749477308338
20
106.43590752251234
10
385.16749477308338
20
107.52290752251234
42
0.41421356237309503
10
384.66749477308338
20
108.02290752251233
10
371.66749477308338
20
108.02290752251233
42
0.41421356237309503
10
371.16749477308338
20
107.52290752251234
10
371.16749477308338
20
106.93590752251232
10
371.16749477308338
20
99.935907522512338
10
371.16749477308338
20
97.997907522512335
10
371.16749477308338
20
94.522907522512327
10
371.16749477308338
20
88.47290752251233
10
371.16749477308338
20
84.997907522512321
10
371.16749477308338
20
83.059907522512319
10
371.16749477308338
20
76.059907522512319
10
371.16749477308338
20
75.47290752251233
42
0.41421356237309503
10
371.66749477308338
20
74.97290752251233
10
384.66749477308338
20
74.97290752251233
42
0.41421356237309503
10
385.16749477308338
20
75.47290752251233
10
385.16749477308338
20
76.559907522512319
10
385.16749477308338
20
82.559907522512333
10
385.16749477308338
20
84.997907522512321
0
LWPOLYLINE
5
147
100
AcDbEntity
8
0
100
AcDbPolyline
90
8
70
1
43
0.0
10
352.11749477308337
20
94.522907522512327
42
0.41421356237309503
10
352.61749477308337
20
94.022907522512327
10
365.61749477308342
20
94.022907522512327
42
0.41421356237309503
10
366.11749477308337
20
94.522907522512327
10
366.11749477308337
20
107.52290752251234
42
0.41421356237309503
10
365.61749477308342
20
108.02290752251233
10
352.61749477308337
20
108.02290752251233
42
0.41421356237309503
10
352.11749477308337
20
107.52290752251234
0
LWPOLYLINE
5
148
100
AcDbEntity
8
0
100
AcDbPolyline
90
8
70
1
43
0.0
10
61.31749477308334
20
88.47290752251233
42
0.41421356237309503
10
60.817494773083347
20
88.972907522512344
10
47.81749477308334
20
88.972907522512344
42
0.41421356237309503
10
47.31749477308334
20
88.47290752251233
10
47.31749477308334
20
75.47290752251233
42
0.41421356237309503
10
47.81749477308334
20
74.97290752251233
10
60.817494773083347
20
74.97290752251233
42
0.41421356237309503
10
61.31749477308334
20
75.47290752251233
0
LWPOLYLINE
5
149
100
AcDbEntity
8
0
100
AcDbPolyline
90
8
70
1
43
0.0
10
333.56749477308335
20
94.022907522512327
10
346.56749477308335
20
94.022907522512327
42
0.41421356237309503
10
347.06749477308335
20
94.522907522512327
10
347.06749477308335
20
107.52290752251234
42
0.41421356237309503
10
346.56749477308335
20
108.02290752251233
10
333.56749477308335
20
108.02290752251233
42
0.41421356237309503
10
333.06749477308335
20
107.52290752251234
10
333.06749477308335
20
94.522907522512327
42
0.41421356237309503
0
LWPOLYLINE
5
150
100
AcDbEntity
8
0
100
AcDbPolyline
90
8
70
1
43
0.0
10
66.367494773083337
20
75.47290752251233
42
0.41421356237309503
10
66.867494773083337
20
74.97290752251233
10
79.867494773083337
20
74.97290752251233
42
0.41421356237309503
10
80.367494773083337
20
75.47290752251233
10
80.367494773083337
20
88.47290752251233
42
0.41421356237309503
10
79.867494773083337
20
88.972907522512344
10
66.867494773083337
20
88.972907522512344
42
0.41421356237309503
10
66.367494773083337
20
88.47290752251233
0
LWPOLYLINE
5
151
100
AcDbEntity
8
0
100
AcDbPolyline
90
8
70
1
43
0.0
10
194.16749477308332
20
74.97290752251233
42
0.41421356237309503
10
194.66749477308332
20
75.47290752251233
10
194.66749477308332
20
88.47290752251233
42
0.41421356237309503
10
194.16749477308332
20
88.972907522512344
10
181.16749477308335
20
88.972907522512344
42
0.41421356237309503
10
180.66749477308335
20
88.47290752251233
10
180.66749477308335
20
75.47290752251233
42
0.41421356237309503
10
181.16749477308335
20
74.97290752251233
0
LWPOLYLINE
5
152
100
AcDbEntity
8
0
100
AcDbPolyline
90
8
70
1
43
0.0
10
143.06749477308335
20
88.972907522512344
42
0.41421356237309503
10
142.56749477308335
20
88.47290752251233
10
142.56749477308335
20
75.47290752251233
42
0.41421356237309503
10
143.06749477308335
20
74.97290752251233
10
156.06749477308335
20
74.97290752251233
42
0.41421356237309503
10
156.56749477308335
20
75.47290752251233
10
156.56749477308335
20
88.47290752251233
42
0.41421356237309503
10
156.06749477308335
20
88.972907522512344
0
LWPOLYLINE
5
153
100
AcDbEntity
8
0
100
AcDbPolyline
90
8
70
1
43
0.0
10
218.76749477308334
20
75.47290752251233
42
0.41421356237309503
10
219.26749477308334
20
74.97290752251233
10
232.26749477308334
20
74.97290752251233
42
0.41421356237309503
10
232.76749477308334
20
75.47290752251233
10
232.76749477308334
20
88.47290752251233
42
0.41421356237309503
10
232.26749477308334
20
88.972907522512344
10
219.26749477308334
20
88.972907522512344
42
0.41421356237309503
10
218.76749477308334
20
88.47290752251233
0
LWPOLYLINE
5
154
100
AcDbEntity
8
0
100
AcDbPolyline
90
8
70
1
43
0.0
10
118.46749477308336
20
88.47290752251233
42
0.41421356237309503
10
117.96749477308336
20
88.972907522512344
10
104.96749477308335
20
88.972907522512344
42
0.41421356237309503
10
104.46749477308336
20
88.47290752251233
10
104.46749477308333
20
75.47290752251233
42
0.41421356237309503
10
104.96749477308335
20
74.97290752251233
10
117.96749477308336
20
74.97290752251233
42
0.41421356237309503
10
118.46749477308336
20
75.47290752251233
0
LWPOLYLINE
5
155
100
AcDbEntity
8
0
100
AcDbPolyline
90
8
70
1
43
0.0
10
175.11749477308337
20
74.97290752251233
42
0.41421356237309503
10
175.61749477308337
20
75.47290752251233
10
175.61749477308337
20
88.47290752251233
42
0.41421356237309503
10
175.11749477308337
20
88.972907522512344
10
162.11749477308337
20
88.972907522512344
42
0.41421356237309503
10
161.61749477308334
20
88.47290752251233
10
161.61749477308334
20
75.47290752251233
42
0.41421356237309503
10
162.11749477308337
20
74.97290752251233
0
LWPOLYLINE
5
156
100
AcDbEntity
8
0
100
AcDbPolyline
90
8
70
1
43
0.0
10
199.71749477308336
20
75.47290752251233
42
0.41421356237309503
10
200.21749477308336
20
74.97290752251233
10
213.21749477308339
20
74.97290752251233
42
0.41421356237309503
10
213.71749477308339
20
75.47290752251233
10
213.71749477308339
20
88.47290752251233
42
0.41421356237309503
10
213.21749477308339
20
88.972907522512344
10
200.21749477308336
20
88.972907522512344
42
0.41421356237309503
10
199.71749477308336
20
88.47290752251233
0
LWPOLYLINE
5
157
100
AcDbEntity
8
0
100
AcDbPolyline
90
8
70
1
43
0.0
10
137.01749477308334
20
88.972907522512344
10
124.01749477308336
20
88.972907522512344
42
0.41421356237309503
10
123.51749477308334
20
88.47290752251233
10
123.51749477308334
20
75.47290752251233
42
0.41421356237309503
10
124.01749477308336
20
74.97290752251233
10
137.01749477308334
20
74.97290752251233
42
0.41421356237309503
10
137.51749477308334
20
75.47290752251233
10
137.51749477308334
20
88.47290752251233
42
0.41421356237309503
0
LWPOLYLINE
5
158
100
AcDbEntity
8
0
100
AcDbPolyline
90
8
70
1
43
0.0
10
98.917494773083348
20
74.97290752251233
42
0.41421356237309503
10
99.417494773083348
20
75.47290752251233
10
99.417494773083334
20
88.47290752251233
42
0.41421356237309503
10
98.917494773083348
20
88.972907522512344
10
85.917494773083334
20
88.972907522512344
42
0.41421356237309503
10
85.41749477308332
20
88.47290752251233
10
85.41749477308332
20
75.47290752251233
42
0.41421356237309503
10
85.917494773083334
20
74.97290752251233
0
LWPOLYLINE
5
159
100
AcDbEntity
8
0
100
AcDbPolyline
90
8
70
1
43
0.0
10
365.61749477308342
20
74.97290752251233
42
0.41421356237309503
10
366.11749477308337
20
75.47290752251233
10
366.11749477308337
20
88.47290752251233
42
0.41421356237309503
10
365.61749477308342
20
88.972907522512344
10
352.61749477308337
20
88.972907522512344
42
0.41421356237309503
10
352.11749477308337
20
88.47290752251233
10
352.11749477308337
20
75.47290752251233
42
0.41421356237309503
10
352.61749477308337
20
74.97290752251233
0
LWPOLYLINE
5
160
100
AcDbEntity
8
0
100
AcDbPolyline
90
8
70
1
43
0.0
10
314.51749477308334
20
88.972907522512344
42
0.41421356237309503
10
314.01749477308334
20
88.47290752251233
10
314.01749477308334
20
75.47290752251233
42
0.41421356237309503
10
314.51749477308334
20
74.97290752251233
10
327.5174947730834
20
74.97290752251233
42
0.41421356237309503
10
328.01749477308334
20
75.47290752251233
10
328.01749477308334
20
88.47290752251233
42
0.41421356237309503
10
327.5174947730834
20
88.972907522512344
0
LWPOLYLINE
5
161
100
AcDbEntity
8
0
100
AcDbPolyline
90
18
70
1
43
0.0
10
42.267494773083349
20
50.372907522512321
10
42.267494773083349
20
56.422907522512332
10
42.267494773083349
20
59.897907522512327
10
42.267494773083349
20
62.335907522512315
10
42.267494773083349
20
68.335907522512329
10
42.267494773083349
20
69.422907522512332
42
0.41421356237309503
10
41.767494773083342
20
69.922907522512332
10
28.767494773083339
20
69.922907522512332
42
0.41421356237309503
10
28.267494773083342
20
69.422907522512332
10
28.267494773083342
20
68.835907522512329
10
28.267494773083342
20
37.959907522512339
10
28.267494773083342
20
37.372907522512321
42
0.41421356237309503
10
28.767494773083339
20
36.872907522512307
10
41.767494773083342
20
36.872907522512307
42
0.41421356237309503
10
42.267494773083342
20
37.372907522512321
10
42.267494773083349
20
38.459907522512339
10
42.267494773083349
20
44.459907522512339
10
42.267494773083349
20
46.897907522512327
0
LWPOLYLINE
5
162
100
AcDbEntity
8
0
100
AcDbPolyline
90
8
70
1
43
0.0
10
289.91749477308338
20
88.47290752251233
42
0.41421356237309503
10
289.41749477308338
20
88.972907522512344
10
276.41749477308338
20
88.972907522512344
42
0.41421356237309503
10
275.91749477308338
20
88.47290752251233
10
275.91749477308338
20
75.47290752251233
42
0.41421356237309503
10
276.41749477308338
20
74.97290752251233
10
289.41749477308338
20
74.97290752251233
42
0.41421356237309503
10
289.91749477308338
20
75.47290752251233
0
LWPOLYLINE
5
163
100
AcDbEntity
8
0
100
AcDbPolyline
90
8
70
1
43
0.0
10
346.56749477308335
20
74.97290752251233
42
0.41421356237309503
10
347.06749477308335
20
75.47290752251233
10
347.06749477308335
20
88.47290752251233
42
0.41421356237309503
10
346.56749477308335
20
88.972907522512344
10
333.56749477308335
20
88.972907522512344
42
0.41421356237309503
10
333.06749477308335
20
88.47290752251233
10
333.06749477308335
20
75.47290752251233
42
0.41421356237309503
10
333.56749477308335
20
74.97290752251233
0
LWPOLYLINE
5
164
100
AcDbEntity
8
0
100
AcDbPolyline
90
8
70
1
43
0.0
10
308.46749477308333
20
88.972907522512344
10
295.46749477308333
20
88.972907522512344
42
0.41421356237309503
10
294.96749477308333
20
88.47290752251233
10
294.96749477308333
20
75.47290752251233
42
0.41421356237309503
10
295.46749477308333
20
74.97290752251233
10
308.46749477308333
20
74.97290752251233
42
0.41421356237309503
10
308.96749477308333
20
75.47290752251233
10
308.96749477308333
20
88.47290752251233
42
0.41421356237309503
0
LWPOLYLINE
5
165
100
AcDbEntity
8
0
100
AcDbPolyline
90
8
70
1
43
0.0
10
270.36749477308337
20
74.97290752251233
42
0.41421356237309503
10
270.86749477308337
20
75.47290752251233
10
270.86749477308337
20
88.47290752251233
42
0.41421356237309503
10
270.36749477308337
20
88.972907522512344
10
257.36749477308337
20
88.972907522512344
42
0.41421356237309503
10
256.86749477308337
20
88.47290752251233
10
256.86749477308337
20
75.47290752251233
42
0.41421356237309503
10
257.36749477308337
20
74.97290752251233
0
LWPOLYLINE
5
166
100
AcDbEntity
8
0
100
AcDbPolyline
90
8
70
1
43
0.0
10
117.96749477308336
20
55.922907522512318
42
0.41421356237309503
10
118.46749477308336
20
56.422907522512332
10
118.46749477308336
20
69.422907522512332
42
0.41421356237309503
10
117.96749477308336
20
69.922907522512332
10
104.96749477308335
20
69.922907522512332
42
0.41421356237309503
10
104.46749477308336
20
69.422907522512332
10
104.46749477308336
20
56.422907522512332
42
0.41421356237309503
10
104.96749477308335
20
55.92290752251234
0
LWPOLYLINE
5
167
100
AcDbEntity
8
0
100
AcDbPolyline
90
8
70
1
43
0.0
10
66.867494773083337
20
69.922907522512332
42
0.41421356237309503
10
66.367494773083337
20
69.422907522512332
10
66.367494773083337
20
56.422907522512332
42
0.41421356237309503
10
66.867494773083337
20
55.92290752251234
10
79.867494773083337
20
55.92290752251234
42
0.41421356237309503
10
80.367494773083337
20
56.422907522512332
10
80.367494773083337
20
69.422907522512332
42
0.41421356237309503
10
79.867494773083337
20
69.922907522512332
0
LWPOLYLINE
5
168
100
AcDbEntity
8
0
100
AcDbPolyline
90
8
70
1
43
0.0
10
142.56749477308335
20
56.422907522512332
42
0.41421356237309503
10
143.06749477308335
20
55.922907522512318
10
156.06749477308335
20
55.922907522512318
42
0.41421356237309503
10
156.56749477308335
20
56.422907522512332
10
156.56749477308335
20
69.422907522512332
42
0.41421356237309503
10
156.06749477308335
20
69.922907522512332
10
143.06749477308335
20
69.922907522512332
42
0.41421356237309503
10
142.56749477308335
20
69.422907522512332
0
LWPOLYLINE
5
169
100
AcDbEntity
8
0
100
AcDbPolyline
90
8
70
1
43
0.0
10
98.917494773083348
20
55.922907522512318
42
0.41421356237309503
10
99.417494773083348
20
56.422907522512332
10
99.417494773083334
20
69.422907522512332
42
0.41421356237309503
10
98.917494773083348
20
69.922907522512332
10
85.917494773083334
20
69.922907522512332
42
0.41421356237309503
10
85.41749477308332
20
69.422907522512332
10
85.41749477308332
20
56.422907522512332
42
0.41421356237309503
10
85.917494773083334
20
55.922907522512318
0
LWPOLYLINE
5
170
100
AcDbEntity
8
0
100
AcDbPolyline
90
8
70
1
43
0.0
10
123.51749477308334
20
56.422907522512332
42
0.41421356237309503
10
124.01749477308336
20
55.922907522512318
10
137.01749477308334
20
55.922907522512318
42
0.41421356237309503
10
137.51749477308334
20
56.422907522512332
10
137.51749477308334
20
69.422907522512332
42
0.41421356237309503
10
137.01749477308334
20
69.922907522512332
10
124.01749477308336
20
69.922907522512332
42
0.41421356237309503
10
123.51749477308334
20
69.422907522512332
0
LWPOLYLINE
5
171
100
AcDbEntity
8
0
100
AcDbPolyline
90
8
70
1
43
0.0
10
60.817494773083347
20
69.922907522512332
10
47.81749477308334
20
69.922907522512332
42
0.41421356237309503
10
47.31749477308334
20
69.422907522512332
10
47.31749477308334
20
56.422907522512332
42
0.41421356237309503
10
47.81749477308334
20
55.92290752251234
10
60.817494773083347
20
55.92290752251234
42
0.41421356237309503
10
61.31749477308334
20
56.422907522512332
10
61.31749477308334
20
69.422907522512332
42
0.41421356237309503
0
LWPOLYLINE
5
172
100
AcDbEntity
8
0
100
AcDbPolyline
90
8
70
1
43
0.0
10
219.26749477308334
20
69.922907522512332
42
0.41421356237309503
10
218.76749477308334
20
69.422907522512332
10
218.76749477308334
20
56.422907522512332
42
0.41421356237309503
10
219.26749477308334
20
55.92290752251234
10
232.26749477308334
20
55.92290752251234
42
0.41421356237309503
10
232.76749477308334
20
56.422907522512332
10
232.76749477308334
20
69.422907522512332
42
0.41421356237309503
10
232.26749477308334
20
69.922907522512332
0
LWPOLYLINE
5
173
100
AcDbEntity
8
0
100
AcDbPolyline
90
8
70
1
43
0.0
10
257.36749477308337
20
55.92290752251234
10
270.36749477308337
20
55.92290752251234
42
0.41421356237309503
10
270.86749477308337
20
56.422907522512332
10
270.86749477308337
20
69.422907522512332
42
0.41421356237309503
10
270.36749477308337
20
69.922907522512332
10
257.36749477308337
20
69.922907522512332
42
0.41421356237309503
10
256.86749477308337
20
69.422907522512332
10
256.86749477308337
20
56.422907522512332
42
0.41421356237309503
0
LWPOLYLINE
5
174
100
AcDbEntity
8
0
100
AcDbPolyline
90
8
70
1
43
0.0
10
194.66749477308332
20
69.422907522512332
42
0.41421356237309503
10
194.16749477308332
20
69.922907522512332
10
181.16749477308335
20
69.922907522512332
42
0.41421356237309503
10
180.66749477308335
20
69.422907522512332
10
180.66749477308335
20
56.422907522512332
42
0.41421356237309503
10
181.16749477308335
20
55.922907522512318
10
194.16749477308332
20
55.92290752251234
42
0.41421356237309503
10
194.66749477308332
20
56.422907522512332
0
LWPOLYLINE
5
175
100
AcDbEntity
8
0
100
AcDbPolyline
90
8
70
1
43
0.0
10
213.21749477308339
20
69.922907522512332
10
200.21749477308336
20
69.922907522512332
42
0.41421356237309503
10
199.71749477308336
20
69.422907522512332
10
199.71749477308336
20
56.422907522512332
42
0.41421356237309503
10
200.21749477308336
20
55.92290752251234
10
213.21749477308339
20
55.92290752251234
42
0.41421356237309503
10
213.71749477308333
20
56.422907522512332
10
213.71749477308333
20
69.422907522512332
42
0.41421356237309503
0
LWPOLYLINE
5
176
100
AcDbEntity
8
0
100
AcDbPolyline
90
8
70
1
43
0.0
10
175.11749477308337
20
55.922907522512318
42
0.41421356237309503
10
175.61749477308337
20
56.422907522512332
10
175.61749477308337
20
69.422907522512332
42
0.41421356237309503
10
175.11749477308337
20
69.922907522512332
10
162.11749477308337
20
69.922907522512332
42
0.41421356237309503
10
161.61749477308334
20
69.422907522512332
10
161.61749477308334
20
56.422907522512332
42
0.41421356237309503
10
162.11749477308337
20
55.92290752251234
0
LWPOLYLINE
5
177
100
AcDbEntity
8
0
100
AcDbPolyline
90
24
70
1
43
0.0
10
385.16749477308338
20
62.335907522512315
10
385.16749477308338
20
68.335907522512329
10
385.16749477308338
20
69.422907522512332
42
0.41421356237309503
10
384.66749477308338
20
69.922907522512332
10
371.66749477308338
20
69.922907522512332
42
0.41421356237309503
10
371.16749477308338
20
69.422907522512332
10
371.16749477308338
20
68.835907522512329
10
371.16749477308338
20
61.835907522512308
10
371.16749477308338
20
59.897907522512327
10
371.16749477308338
20
56.422907522512332
10
371.16749477308338
20
50.372907522512321
10
371.16749477308338
20
46.897907522512327
10
371.16749477308338
20
44.959907522512324
10
371.16749477308338
20
37.959907522512339
10
371.16749477308338
20
37.372907522512321
42
0.41421356237309503
10
371.66749477308338
20
36.872907522512307
10
384.66749477308338
20
36.872907522512307
42
0.41421356237309503
10
385.16749477308338
20
37.372907522512321
10
385.16749477308338
20
38.459907522512339
10
385.16749477308338
20
44.459907522512339
10
385.16749477308338
20
46.897907522512327
10
385.16749477308338
20
50.372907522512321
10
385.16749477308338
20
56.422907522512332
10
385.16749477308338
20
59.897907522512327
0
LWPOLYLINE
5
178
100
AcDbEntity
8
0
100
AcDbPolyline
90
8
70
1
43
0.0
10
333.06749477308335
20
69.422907522512332
10
333.06749477308335
20
56.422907522512332
42
0.41421356237309503
10
333.56749477308335
20
55.922907522512318
10
346.56749477308335
20
55.922907522512318
42
0.41421356237309503
10
347.06749477308335
20
56.422907522512332
10
347.06749477308335
20
69.422907522512332
42
0.41421356237309503
10
346.56749477308335
20
69.922907522512332
10
333.56749477308335
20
69.922907522512332
42
0.41421356237309503
0
LWPOLYLINE
5
179
100
AcDbEntity
8
0
100
AcDbPolyline
90
8
70
1
43
0.0
10
289.41749477308338
20
55.922907522512318
42
0.41421356237309503
10
289.91749477308338
20
56.422907522512332
10
289.91749477308338
20
69.422907522512332
42
0.41421356237309503
10
289.41749477308338
20
69.922907522512332
10
276.41749477308338
20
69.922907522512332
42
0.41421356237309503
10
275.91749477308338
20
69.422907522512332
10
275.91749477308338
20
56.422907522512332
42
0.41421356237309503
10
276.41749477308338
20
55.922907522512318
0
LWPOLYLINE
5
180
100
AcDbEntity
8
0
100
AcDbPolyline
90
8
70
1
43
0.0
10
308.96749477308333
20
56.422907522512332
10
308.96749477308333
20
69.422907522512332
42
0.41421356237309503
10
308.46749477308333
20
69.922907522512332
10
295.46749477308333
20
69.922907522512332
42
0.41421356237309503
10
294.96749477308333
20
69.422907522512332
10
294.96749477308333
20
56.422907522512332
42
0.41421356237309503
10
295.46749477308333
20
55.92290752251234
10
308.46749477308333
20
55.92290752251234
42
0.41421356237309503
0
LWPOLYLINE
5
181
100
AcDbEntity
8
0
100
AcDbPolyline
90
8
70
1
43
0.0
10
365.61749477308342
20
69.922907522512332
10
352.61749477308337
20
69.922907522512332
42
0.41421356237309503
10
352.11749477308337
20
69.422907522512332
10
352.11749477308337
20
56.422907522512332
42
0.41421356237309503
10
352.61749477308337
20
55.922907522512318
10
365.61749477308342
20
55.922907522512318
42
0.41421356237309503
10
366.11749477308337
20
56.422907522512332
10
366.11749477308337
20
69.422907522512332
42
0.41421356237309503
0
LWPOLYLINE
5
182
100
AcDbEntity
8
0
100
AcDbPolyline
90
8
70
1
43
0.0
10
314.51749477308334
20
69.922907522512332
42
0.41421356237309503
10
314.01749477308334
20
69.422907522512332
10
314.01749477308334
20
56.422907522512332
42
0.41421356237309503
10
314.51749477308334
20
55.922907522512318
10
327.5174947730834
20
55.922907522512318
42
0.41421356237309503
10
328.01749477308334
20
56.422907522512332
10
328.01749477308334
20
69.422907522512332
42
0.41421356237309503
10
327.5174947730834
20
69.922907522512332
0
LWPOLYLINE
5
183
100
AcDbEntity
8
0
100
AcDbPolyline
90
8
70
1
43
0.0
10
61.31749477308334
20
37.372907522512321
10
61.31749477308334
20
50.372907522512321
42
0.41421356237309503
10
60.817494773083347
20
50.872907522512335
10
47.81749477308334
20
50.872907522512335
42
0.41421356237309503
10
47.31749477308334
20
50.372907522512321
10
47.31749477308334
20
37.372907522512321
42
0.41421356237309503
10
47.81749477308334
20
36.872907522512307
10
60.817494773083347
20
36.872907522512307
42
0.41421356237309503
0
LWPOLYLINE
5
184
100
AcDbEntity
8
0
100
AcDbPolyline
90
16
70
1
43
0.0
10
66.367494773083337
20
50.372907522512321
10
66.367494773083337
20
37.372907522512321
42
0.41421356237309503
10
66.867494773083337
20
36.872907522512307
10
67.45449477308334
20
36.872907522512307
10
74.45449477308334
20
36.872907522512307
10
127.49249477308334
20
36.872907522512307
10
136.43049477308335
20
36.872907522512307
10
137.01749477308334
20
36.872907522512307
42
0.41421356237309503
10
137.51749477308334
20
37.372907522512321
10
137.51749477308334
20
50.372907522512321
42
0.41421356237309503
10
137.01749477308334
20
50.872907522512314
10
135.93049477308335
20
50.872907522512314
10
129.93049477308335
20
50.872907522512314
10
73.95449477308334
20
50.872907522512314
10
67.954494773083354
20
50.872907522512314
10
66.867494773083337
20
50.872907522512314
42
0.41421356237309503
0
LWPOLYLINE
5
185
100
AcDbEntity
8
0
100
AcDbPolyline
90
8
70
1
43
0.0
10
143.06749477308335
20
50.872907522512314
42
0.41421356237309503
10
142.56749477308335
20
50.372907522512307
10
142.56749477308335
20
37.376677468981683
42
0.41421356237309503
10
143.06749477308335
20
36.876677468981654
10
213.21749477308333
20
36.876677468981661
42
0.41421356237312884
10
213.71749477308333
20
37.376677468981654
10
213.71749477308333
20
50.372907522512321
42
0.4142135623730534
10
213.21749477308342
20
50.872907522512335
0
LWPOLYLINE
5
186
100
AcDbEntity
8
0
100
AcDbPolyline
90
8
70
1
43
0.0
10
104.96749477308335
20
146.12290752251232
42
0.41421356237309503
10
104.46749477308333
20
145.62290752251232
10
104.46749477308336
20
132.62290752251232
42
0.41421356237309503
10
104.96749477308335
20
132.12290752251232
10
117.96749477308336
20
132.12290752251232
42
0.41421356237309503
10
118.46749477308336
20
132.62290752251232
10
118.46749477308336
20
145.62290752251232
42
0.41421356237309503
10
117.96749477308336
20
146.12290752251232
0
LWPOLYLINE
5
187
100
AcDbEntity
8
0
100
AcDbPolyline
90
8
70
1
43
0.0
10
137.51749477308334
20
132.62290752251232
10
137.51749477308334
20
145.62290752251232
42
0.41421356237309503
10
137.01749477308334
20
146.12290752251232
10
124.01749477308336
20
146.12290752251232
42
0.41421356237309503
10
123.51749477308334
20
145.62290752251232
10
123.51749477308334
20
132.62290752251232
42
0.41421356237309503
10
124.01749477308336
20
132.12290752251232
10
137.01749477308334
20
132.12290752251232
42
0.41421356237309503
0
LWPOLYLINE
5
188
100
AcDbEntity
8
0
100
AcDbPolyline
90
8
70
1
43
0.0
10
47.81749477308334
20
146.12290752251232
42
0.41421356237309503
10
47.31749477308334
20
145.62290752251232
10
47.31749477308334
20
132.62290752251232
42
0.41421356237309503
10
47.81749477308334
20
132.12290752251232
10
60.817494773083347
20
132.12290752251232
42
0.41421356237309503
10
61.31749477308334
20
132.62290752251232
10
61.31749477308334
20
145.62290752251232
42
0.41421356237309503
10
60.817494773083347
20
146.12290752251232
0
LWPOLYLINE
5
189
100
AcDbEntity
8
0
100
AcDbPolyline
90
8
70
1
43
0.0
10
80.367494773083337
20
145.62290752251232
42
0.41421356237309503
10
79.867494773083337
20
146.12290752251232
10
66.867494773083337
20
146.12290752251232
42
0.41421356237309503
10
66.367494773083337
20
145.62290752251232
10
66.367494773083337
20
132.62290752251232
42
0.41421356237309503
10
66.867494773083337
20
132.12290752251232
10
79.867494773083337
20
132.12290752251232
42
0.41421356237309503
10
80.367494773083337
20
132.62290752251232
0
LWPOLYLINE
5
190
100
AcDbEntity
8
0
100
AcDbPolyline
90
8
70
1
43
0.0
10
28.267494773083342
20
132.62290752251232
42
0.41421356237309503
10
28.767494773083339
20
132.12290752251232
10
41.767494773083342
20
132.12290752251232
42
0.41421356237309503
10
42.267494773083349
20
132.62290752251232
10
42.267494773083349
20
145.62290752251232
42
0.41421356237309503
10
41.767494773083342
20
146.12290752251232
10
28.767494773083339
20
146.12290752251232
42
0.41421356237309503
10
28.267494773083342
20
145.62290752251232
0
LWPOLYLINE
5
191
100
AcDbEntity
8
0
100
AcDbPolyline
90
8
70
1
43
0.0
10
98.917494773083348
20
146.12290752251232
10
85.917494773083334
20
146.12290752251232
42
0.41421356237309503
10
85.41749477308332
20
145.62290752251232
10
85.41749477308332
20
132.62290752251232
42
0.41421356237309503
10
85.917494773083334
20
132.12290752251232
10
98.917494773083348
20
132.12290752251232
42
0.41421356237309503
10
99.417494773083348
20
132.62290752251232
10
99.417494773083348
20
145.62290752251232
42
0.41421356237309503
0
LWPOLYLINE
5
192
100
AcDbEntity
8
0
100
AcDbPolyline
90
8
70
1
43
0.0
10
142.56749477308335
20
132.62290752251232
42
0.41421356237309503
10
143.06749477308335
20
132.12290752251232
10
156.06749477308335
20
132.12290752251232
42
0.41421356237309503
10
156.56749477308335
20
132.62290752251232
10
156.56749477308335
20
145.62290752251232
42
0.41421356237309503
10
156.06749477308335
20
146.12290752251232
10
143.06749477308335
20
146.12290752251232
42
0.41421356237309503
10
142.56749477308335
20
145.62290752251232
0
LWPOLYLINE
5
193
100
AcDbEntity
8
0
100
AcDbPolyline
90
8
70
1
43
0.0
10
161.61749477308334
20
132.62290752251232
42
0.41421356237309503
10
162.11749477308337
20
132.12290752251232
10
175.11749477308337
20
132.12290752251232
42
0.41421356237309503
10
175.61749477308337
20
132.62290752251232
10
175.61749477308337
20
145.62290752251232
42
0.41421356237309503
10
175.11749477308337
20
146.12290752251232
10
162.11749477308337
20
146.12290752251232
42
0.41421356237309503
10
161.61749477308334
20
145.62290752251232
0
LWPOLYLINE
5
194
100
AcDbEntity
8
0
100
AcDbPolyline
90
24
70
1
43
0.0
10
324.04249477308338
20
36.872907522512307
10
327.5174947730834
20
36.872907522512307
10
333.56749477308335
20
36.872907522512307
10
337.04249477308338
20
36.872907522512307
10
338.98049477308336
20
36.872907522512307
10
345.98049477308336
20
36.872907522512307
10
346.56749477308335
20
36.872907522512307
42
0.41421356237309503
10
347.06749477308335
20
37.372907522512321
10
347.06749477308335
20
50.372907522512321
42
0.41421356237309503
10
346.56749477308335
20
50.872907522512335
10
345.48049477308336
20
50.872907522512314
10
339.48049477308336
20
50.872907522512314
10
337.04249477308338
20
50.872907522512314
10
333.56749477308335
20
50.872907522512314
10
327.5174947730834
20
50.872907522512314
10
324.04249477308338
20
50.872907522512314
10
321.60449477308339
20
50.872907522512314
10
315.60449477308339
20
50.872907522512314
10
314.51749477308334
20
50.872907522512335
42
0.41421356237309503
10
314.01749477308334
20
50.372907522512321
10
314.01749477308334
20
37.372907522512321
42
0.41421356237309503
10
314.51749477308334
20
36.872907522512307
10
315.10449477308339
20
36.872907522512307
10
322.10449477308339
20
36.872907522512307
0
LINE
5
195
100
AcDbEntity
8
0
100
AcDbLine
10
260.86749477308337
20
50.872907522512314
30
0
11
260.84249477308339
21
50.872907522512314
31
0
0
LINE
5
196
100
AcDbEntity
8
0
100
AcDbLine
10
266.89249477308334
20
50.872907522512314
30
0
11
266.86749477308337
21
50.872907522512314
31
0
0
LINE
5
197
100
AcDbEntity
8
0
100
AcDbLine
10
289.44249477308335
20
50.872907522512314
30
0
11
289.41749477308338
21
50.872907522512314
31
0
0
LWPOLYLINE
5
198
100
AcDbEntity
8
0
100
AcDbPolyline
90
8
70
1
43
0.0
10
352.11749477308337
20
50.372907522512321
10
352.11749477308337
20
37.372907522512321
42
0.41421356237309503
10
352.61749477308337
20
36.872907522512307
10
365.61749477308342
20
36.872907522512307
42
0.41421356237309503
10
366.11749477308337
20
37.372907522512321
10
366.11749477308337
20
50.372907522512321
42
0.41421356237309503
10
365.61749477308342
20
50.872907522512314
10
352.61749477308337
20
50.872907522512335
42
0.41421356237309503
0
LWPOLYLINE
5
199
100
AcDbEntity
8
0
100
AcDbPolyline
90
12
70
1
43
0.0
10
251.81749477308335
20
69.422907522512332
42
0.41421356237309503
10
251.31749477308335
20
69.922907522512347
10
238.31749477308335
20
69.922907522512347
42
0.41421356237310025
10
237.81749477308335
20
69.422907522512347
10
237.81749477308335
20
37.3729075225123
42
0.41421356237309503
10
238.31749477308333
20
36.872907522512328
10
308.46749477308333
20
36.872907522512335
42
0.41421356237312884
10
308.96749477308333
20
37.372907522512328
10
308.96749477308333
20
50.372907522512335
42
0.41421356237307422
10
308.46749477308333
20
50.872907522512335
10
252.31749477308338
20
50.872907522512314
42
-0.41421356237309503
10
251.81749477308335
20
51.372907522512321
0
LWPOLYLINE
5
200
100
AcDbEntity
8
0
100
AcDbPolyline
90
19
70
1
43
0.0
10
237.81749477308335
20
107.52290752251234
10
237.81749477308335
20
99.935907522512338
10
237.81749477308335
20
83.059907522512319
10
237.81749477308335
20
76.059907522512319
10
237.81749477308335
20
75.47290752251233
42
0.41421356237309503
10
238.31749477308335
20
74.97290752251233
10
251.31749477308335
20
74.97290752251233
42
0.41421356237309503
10
251.81749477308335
20
75.47290752251233
10
251.81749477308335
20
76.559907522512319
10
251.81749477308335
20
82.559907522512333
10
251.81749477308335
20
84.997907522512321
10
251.81749477308335
20
88.47290752251233
10
251.81749477308335
20
94.522907522512327
10
251.81749477308335
20
97.997907522512335
10
251.81749477308335
20
100.43590752251234
10
251.81749477308335
20
106.43590752251234
10
251.81749477308335
20
107.52290752251234
42
0.41421356237309503
10
251.31749477308335
20
108.02290752251233
10
238.31749477308335
20
108.02290752251233
42
0.41421356237309503
0
ARC
5
201
100
AcDbEntity
8
0
100
AcDbCircle
10
387.29249477308343
20
148.24790752251238
30
0
40
0.99999999999994316
210
-0
220
0
230
1
100
AcDbArc
50
0
51
90.000000000003254
0
LINE
5
202
100
AcDbEntity
8
0
100
AcDbLine
10
387.29249477308338
20
149.24790752251232
30
0
11
369.41193349014463
21
149.24790752251232
31
0
0
ARC
5
203
100
AcDbEntity
8
0
100
AcDbCircle
10
369.41193349014452
20
149.74790752251226
30
0
40
0.49999999999997158
210
0
220
0
230
1
100
AcDbArc
50
180
51
270.00000000001302
0
LINE
5
204
100
AcDbEntity
8
0
100
AcDbLine
10
368.91193349014458
20
152.04790752251222
30
0
11
368.91193349014458
21
149.74790752251232
31
0
0
LINE
5
205
100
AcDbEntity
8
0
100
AcDbLine
10
368.91193349014458
20
152.04790752251222
30
0
11
367.44621431588189
21
154.20412517856707
31
0
0
ARC
5
206
100
AcDbEntity
8
0
100
AcDbCircle
10
367.36351259191161
20
154.14790752251218
30
0
40
0.09999999999977921
210
0
220
-0
230
1
100
AcDbArc
50
34.206455452945427
51
90.000000000097714
0
LINE
5
207
100
AcDbEntity
8
0
100
AcDbLine
10
367.31749477308341
20
154.24790752251198
30
0
11
367.36351259191144
21
154.24790752251198
31
0
0
ARC
5
208
100
AcDbEntity
8
0
100
AcDbCircle
10
367.31749477308347
20
154.1479075225119
30
0
40
0.10000000000006892
210
0
220
0
230
1
100
AcDbArc
50
90.000000000032571
51
180
0
LINE
5
209
100
AcDbEntity
8
0
100
AcDbLine
10
367.21749477308333
20
151.49790752251232
30
0
11
367.21749477308344
21
154.14790752251199
31
0
0
ARC
5
210
100
AcDbEntity
8
0
100
AcDbCircle
10
366.21749477308344
20
151.49790752251229
30
0
40
1.0000000000000142
210
0
220
0
230
1
100
AcDbArc
50
-180
51
0
0
LINE
5
211
100
AcDbEntity
8
0
100
AcDbLine
10
365.21749477308339
20
151.49790752251232
30
0
11
365.21749477308339
21
154.14790752251199
31
0
0
ARC
5
212
100
AcDbEntity
8
0
100
AcDbCircle
10
365.11749477308342
20
154.14790752251201
30
0
40
0.099999999999980105
210
-0
220
0
230
1
100
AcDbArc
50
0
51
90
0
LINE
5
213
100
AcDbEntity
8
0
100
AcDbLine
10
365.07147695425522
20
154.24790752251195
30
0
11
365.11749477308342
21
154.24790752251201
31
0
0
ARC
5
214
100
AcDbEntity
8
0
100
AcDbCircle
10
365.07147695425533
20
154.14790752251176
30
0
40
0.10000000000019327
210
0
220
0
230
1
100
AcDbArc
50
90.000000000065143
51
145.79354454697102
0
LINE
5
215
100
AcDbEntity
8
0
100
AcDbLine
10
363.52305605602226
20
152.04790752251225
30
0
11
364.98877523028477
21
154.20412517856701
31
0
0
LINE
5
216
100
AcDbEntity
8
0
100
AcDbLine
10
363.52305605602226
20
152.04790752251225
30
0
11
363.52305605602226
21
149.74790752251232
31
0
0
ARC
5
217
100
AcDbEntity
8
0
100
AcDbCircle
10
363.02305605602214
20
149.74790752251241
30
0
40
0.50000000000009592
210
-0
220
0
230
1
100
AcDbArc
50
270.00000000001302
51
360
0
LINE
5
218
100
AcDbEntity
8
0
100
AcDbLine
10
363.02305605602226
20
149.24790752251232
30
0
11
305.41193349014458
21
149.24790752251232
31
0
0
ARC
5
219
100
AcDbEntity
8
0
100
AcDbCircle
10
305.41193349014458
20
149.74790752251232
30
0
40
0.50000000000000711
210
0
220
0
230
1
100
AcDbArc
50
180
51
270
0
LINE
5
220
100
AcDbEntity
8
0
100
AcDbLine
10
304.91193349014458
20
152.04790752251222
30
0
11
304.91193349014458
21
149.74790752251232
31
0
0
LINE
5
221
100
AcDbEntity
8
0
100
AcDbLine
10
304.91193349014458
20
152.04790752251222
30
0
11
303.44621431588189
21
154.20412517856707
31
0
0
ARC
5
222
100
AcDbEntity
8
0
100
AcDbCircle
10
303.36351259191156
20
154.14790752251204
30
0
40
0.099999999999898448
210
0
220
-0
230
1
100
AcDbArc
50
34.206455452994454
51
90.000000000065143
0
LINE
5
223
100
AcDbEntity
8
0
100
AcDbLine
10
303.31749477308341
20
154.24790752251198
30
0
11
303.36351259191144
21
154.24790752251195
31
0
0
ARC
5
224
100
AcDbEntity
8
0
100
AcDbCircle
10
303.31749477308341
20
154.14790752251199
30
0
40
0.099999999999997868
210
0
220
-0
230
1
100
AcDbArc
50
90
51
180
0
LINE
5
225
100
AcDbEntity
8
0
100
AcDbLine
10
303.21749477308339
20
151.49790752251232
30
0
11
303.21749477308344
21
154.14790752251199
31
0
0
ARC
5
226
100
AcDbEntity
8
0
100
AcDbCircle
10
302.21749477308339
20
151.49790752251232
30
0
40
0.99999999999997868
210
0
220
0
230
1
100
AcDbArc
50
-180
51
0
0
LINE
5
227
100
AcDbEntity
8
0
100
AcDbLine
10
301.21749477308344
20
151.49790752251232
30
0
11
301.21749477308344
21
154.14790752251199
31
0
0
ARC
5
228
100
AcDbEntity
8
0
100
AcDbCircle
10
301.11749477308342
20
154.14790752251201
30
0
40
0.099999999999980105
210
-0
220
0
230
1
100
AcDbArc
50
0
51
90
0
LINE
5
229
100
AcDbEntity
8
0
100
AcDbLine
10
301.07147695425522
20
154.24790752251195
30
0
11
301.11749477308342
21
154.24790752251198
31
0
0
ARC
5
230
100
AcDbEntity
8
0
100
AcDbCircle
10
301.07147695425522
20
154.14790752251182
30
0
40
0.10000000000013998
210
0
220
0
230
1
100
AcDbArc
50
90
51
145.79354454696139
0
LINE
5
231
100
AcDbEntity
8
0
100
AcDbLine
10
299.52305605602226
20
152.04790752251225
30
0
11
300.98877523028477
21
154.20412517856701
31
0
0
LINE
5
232
100
AcDbEntity
8
0
100
AcDbLine
10
299.52305605602226
20
152.04790752251225
30
0
11
299.52305605602226
21
149.74790752251232
31
0
0
ARC
5
233
100
AcDbEntity
8
0
100
AcDbCircle
10
299.02305605602226
20
149.74790752251232
30
0
40
0.49999999999998934
210
-0
220
0
230
1
100
AcDbArc
50
-90
51
0
0
LINE
5
234
100
AcDbEntity
8
0
100
AcDbLine
10
299.02305605602226
20
149.24790752251232
30
0
11
241.41193349014458
21
149.24790752251232
31
0
0
ARC
5
235
100
AcDbEntity
8
0
100
AcDbCircle
10
241.41193349014463
20
149.74790752251238
30
0
40
0.50000000000007816
210
0
220
0
230
1
100
AcDbArc
50
180
51
269.99999999999346
0
LINE
5
236
100
AcDbEntity
8
0
100
AcDbLine
10
240.91193349014458
20
152.04790752251222
30
0
11
240.91193349014458
21
149.74790752251232
31
0
0
LINE
5
237
100
AcDbEntity
8
0
100
AcDbLine
10
240.91193349014458
20
152.04790752251222
30
0
11
239.44621431588186
21
154.20412517856707
31
0
0
ARC
5
238
100
AcDbEntity
8
0
100
AcDbCircle
10
239.36351259191159
20
154.14790752251204
30
0
40
0.099999999999869083
210
0
220
-0
230
1
100
AcDbArc
50
34.206455453012758
51
90.000000000048857
0
LINE
5
239
100
AcDbEntity
8
0
100
AcDbLine
10
239.31749477308341
20
154.24790752251198
30
0
11
239.3635125919115
21
154.24790752251192
31
0
0
ARC
5
240
100
AcDbEntity
8
0
100
AcDbCircle
10
239.31749477308335
20
154.14790752251201
30
0
40
0.099999999999980105
210
0
220
-0
230
1
100
AcDbArc
50
89.999999999967429
51
180
0
LINE
5
241
100
AcDbEntity
8
0
100
AcDbLine
10
239.21749477308339
20
151.49790752251232
30
0
11
239.21749477308339
21
154.14790752251199
31
0
0
ARC
5
242
100
AcDbEntity
8
0
100
AcDbCircle
10
238.21749477308339
20
151.49790752251232
30
0
40
1.0000000000000142
210
0
220
0
230
1
100
AcDbArc
50
-180
51
0
0
LINE
5
243
100
AcDbEntity
8
0
100
AcDbLine
10
237.21749477308336
20
151.49790752251232
30
0
11
237.21749477308339
21
154.14790752251199
31
0
0
ARC
5
244
100
AcDbEntity
8
0
100
AcDbCircle
10
237.11749477308345
20
154.14790752251201
30
0
40
0.099999999999944578
210
-0
220
0
230
1
100
AcDbArc
50
0
51
90
0
LINE
5
245
100
AcDbEntity
8
0
100
AcDbLine
10
237.07147695425519
20
154.24790752251195
30
0
11
237.11749477308345
21
154.24790752251195
31
0
0
ARC
5
246
100
AcDbEntity
8
0
100
AcDbCircle
10
237.07147695425527
20
154.14790752251182
30
0
40
0.10000000000013998
210
0
220
0
230
1
100
AcDbArc
50
90.000000000048857
51
145.79354454697969
0
LINE
5
247
100
AcDbEntity
8
0
100
AcDbLine
10
235.5230560560222
20
152.04790752251225
30
0
11
236.98877523028477
21
154.20412517856701
31
0
0
LINE
5
248
100
AcDbEntity
8
0
100
AcDbLine
10
235.5230560560222
20
152.04790752251225
30
0
11
235.5230560560222
21
149.74790752251232
31
0
0
ARC
5
249
100
AcDbEntity
8
0
100
AcDbCircle
10
235.02305605602217
20
149.74790752251238
30
0
40
0.5000000000000604
210
-0
220
0
230
1
100
AcDbArc
50
270.00000000000978
51
360
0
LINE
5
250
100
AcDbEntity
8
0
100
AcDbLine
10
235.02305605602226
20
149.24790752251232
30
0
11
177.41193349014458
21
149.24790752251232
31
0
0
ARC
5
251
100
AcDbEntity
8
0
100
AcDbCircle
10
177.41193349014455
20
149.74790752251232
30
0
40
0.50000000000000711
210
0
220
0
230
1
100
AcDbArc
50
180
51
270.00000000000324
0
LINE
5
252
100
AcDbEntity
8
0
100
AcDbLine
10
176.91193349014455
20
152.04790752251222
30
0
11
176.91193349014455
21
149.74790752251232
31
0
0
LINE
5
253
100
AcDbEntity
8
0
100
AcDbLine
10
176.91193349014455
20
152.04790752251222
30
0
11
175.44621431588183
21
154.20412517856707
31
0
0
ARC
5
254
100
AcDbEntity
8
0
100
AcDbCircle
10
175.36351259191156
20
154.14790752251201
30
0
40
0.099999999999879061
210
0
220
-0
230
1
100
AcDbArc
50
34.206455453026223
51
90.000000000032571
0
LINE
5
255
100
AcDbEntity
8
0
100
AcDbLine
10
175.31749477308338
20
154.24790752251198
30
0
11
175.3635125919115
21
154.24790752251192
31
0
0
ARC
5
256
100
AcDbEntity
8
0
100
AcDbCircle
10
175.31749477308341
20
154.14790752251196
30
0
40
0.10000000000001563
210
0
220
0
230
1
100
AcDbArc
50
90.000000000016286
51
180
0
LINE
5
257
100
AcDbEntity
8
0
100
AcDbLine
10
175.21749477308339
20
151.49790752251232
30
0
11
175.21749477308339
21
154.14790752251199
31
0
0
ARC
5
258
100
AcDbEntity
8
0
100
AcDbCircle
10
174.21749477308339
20
151.49790752251232
30
0
40
1.0000000000000142
210
0
220
0
230
1
100
AcDbArc
50
-180
51
0
0
LINE
5
259
100
AcDbEntity
8
0
100
AcDbLine
10
173.21749477308339
20
151.49790752251232
30
0
11
173.21749477308339
21
154.14790752251199
31
0
0
ARC
5
260
100
AcDbEntity
8
0
100
AcDbCircle
10
173.11749477308342
20
154.14790752251201
30
0
40
0.099999999999944578
210
-0
220
0
230
1
100
AcDbArc
50
0
51
90
0
LINE
5
261
100
AcDbEntity
8
0
100
AcDbLine
10
173.07147695425522
20
154.24790752251195
30
0
11
173.11749477308342
21
154.24790752251195
31
0
0
ARC
5
262
100
AcDbEntity
8
0
100
AcDbCircle
10
173.07147695425527
20
154.1479075225119
30
0
40
0.10000000000006892
210
0
220
0
230
1
100
AcDbArc
50
90.000000000032571
51
145.79354454700177
0
LINE
5
263
100
AcDbEntity
8
0
100
AcDbLine
10
171.52305605602223
20
152.04790752251225
30
0
11
172.98877523028483
21
154.20412517856701
31
0
0
LINE
5
264
100
AcDbEntity
8
0
100
AcDbLine
10
171.52305605602223
20
152.04790752251225
30
0
11
171.52305605602223
21
149.74790752251232
31
0
0
ARC
5
265
100
AcDbEntity
8
0
100
AcDbCircle
10
171.02305605602223
20
149.74790752251232
30
0
40
0.50000000000000711
210
-0
220
0
230
1
100
AcDbArc
50
-90
51
0
0
LINE
5
266
100
AcDbEntity
8
0
100
AcDbLine
10
171.02305605602223
20
149.24790752251232
30
0
11
113.41193349014458
21
149.24790752251232
31
0
0
ARC
5
267
100
AcDbEntity
8
0
100
AcDbCircle
10
113.41193349014455
20
149.74790752251232
30
0
40
0.49999999999998934
210
0
220
0
230
1
100
AcDbArc
50
180
51
270.00000000000324
0
LINE
5
268
100
AcDbEntity
8
0
100
AcDbLine
10
112.91193349014456
20
152.04790752251222
30
0
11
112.91193349014456
21
149.74790752251232
31
0
0
LINE
5
269
100
AcDbEntity
8
0
100
AcDbLine
10
112.91193349014456
20
152.04790752251222
30
0
11
111.44621431588185
21
154.20412517856707
31
0
0
ARC
5
270
100
AcDbEntity
8
0
100
AcDbCircle
10
111.36351259191156
20
154.14790752251201
30
0
40
0.09999999999990844
210
0
220
-0
230
1
100
AcDbArc
50
34.20645545302164
51
90.000000000048857
0
LINE
5
271
100
AcDbEntity
8
0
100
AcDbLine
10
111.3174947730834
20
154.24790752251198
30
0
11
111.36351259191147
21
154.24790752251192
31
0
0
ARC
5
272
100
AcDbEntity
8
0
100
AcDbCircle
10
111.31749477308344
20
154.14790752251196
30
0
40
0.1000000000000334
210
0
220
0
230
1
100
AcDbArc
50
90.000000000024428
51
180
0
LINE
5
273
100
AcDbEntity
8
0
100
AcDbLine
10
111.21749477308339
20
151.49790752251232
30
0
11
111.2174947730834
21
154.14790752251199
31
0
0
ARC
5
274
100
AcDbEntity
8
0
100
AcDbCircle
10
110.21749477308339
20
151.49790752251232
30
0
40
0.99999999999999645
210
0
220
0
230
1
100
AcDbArc
50
-180
51
0
0
LINE
5
275
100
AcDbEntity
8
0
100
AcDbLine
10
109.21749477308339
20
151.49790752251232
30
0
11
109.21749477308339
21
154.14790752251199
31
0
0
ARC
5
276
100
AcDbEntity
8
0
100
AcDbCircle
10
109.11749477308342
20
154.14790752251201
30
0
40
0.099999999999962341
210
-0
220
0
230
1
100
AcDbArc
50
0
51
90.000000000008143
0
LINE
5
277
100
AcDbEntity
8
0
100
AcDbLine
10
109.0714769542552
20
154.24790752251195
30
0
11
109.11749477308341
21
154.24790752251195
31
0
0
ARC
5
278
100
AcDbEntity
8
0
100
AcDbCircle
10
109.07147695425523
20
154.1479075225119
30
0
40
0.10000000000006892
210
0
220
0
230
1
100
AcDbArc
50
90.000000000016286
51
145.7935445469972
0
LINE
5
279
100
AcDbEntity
8
0
100
AcDbLine
10
107.52305605602223
20
152.04790752251225
30
0
11
108.9887752302848
21
154.20412517856701
31
0
0
LINE
5
280
100
AcDbEntity
8
0
100
AcDbLine
10
107.52305605602223
20
152.04790752251225
30
0
11
107.52305605602223
21
149.74790752251232
31
0
0
ARC
5
281
100
AcDbEntity
8
0
100
AcDbCircle
10
107.0230560560222
20
149.74790752251235
30
0
40
0.50000000000002487
210
-0
220
0
230
1
100
AcDbArc
50
270.00000000000324
51
360
0
ARC
5
282
100
AcDbEntity
8
0
100
AcDbCircle
10
49.411933490144584
20
149.74790752251235
30
0
40
0.50000000000002487
210
0
220
0
230
1
100
AcDbArc
50
180
51
269.99999999999591
0
LINE
5
283
100
AcDbEntity
8
0
100
AcDbLine
10
48.911933490144563
20
152.04790752251222
30
0
11
48.911933490144563
21
149.74790752251232
31
0
0
LINE
5
284
100
AcDbEntity
8
0
100
AcDbLine
10
48.911933490144563
20
152.04790752251222
30
0
11
47.446214315881846
21
154.20412517856707
31
0
0
ARC
5
285
100
AcDbEntity
8
0
100
AcDbCircle
10
47.363512591911544
20
154.14790752251201
30
0
40
0.09999999999990844
210
0
220
-0
230
1
100
AcDbArc
50
34.206455453017071
51
90.000000000040714
0
LINE
5
286
100
AcDbEntity
8
0
100
AcDbLine
10
47.317494773083396
20
154.24790752251198
30
0
11
47.363512591911473
21
154.24790752251192
31
0
0
ARC
5
287
100
AcDbEntity
8
0
100
AcDbCircle
10
47.317494773083411
20
154.14790752251196
30
0
40
0.10000000000001563
210
0
220
0
230
1
100
AcDbArc
50
90.000000000008143
51
180
0
LINE
5
288
100
AcDbEntity
8
0
100
AcDbLine
10
47.217494773083374
20
151.49790752251232
30
0
11
47.217494773083395
21
154.14790752251199
31
0
0
ARC
5
289
100
AcDbEntity
8
0
100
AcDbCircle
10
46.217494773083381
20
151.49790752251232
30
0
40
0.99999999999999645
210
0
220
0
230
1
100
AcDbArc
50
-180
51
0
0
LINE
5
290
100
AcDbEntity
8
0
100
AcDbLine
10
45.217494773083388
20
151.49790752251232
30
0
11
45.217494773083402
21
154.14790752251199
31
0
0
ARC
5
291
100
AcDbEntity
8
0
100
AcDbCircle
10
45.117494773083429
20
154.14790752251201
30
0
40
0.099999999999971223
210
-0
220
0
230
1
100
AcDbArc
50
0
51
90.000000000004079
0
LINE
5
292
100
AcDbEntity
8
0
100
AcDbLine
10
45.071476954255196
20
154.24790752251195
30
0
11
45.117494773083422
21
154.24790752251198
31
0
0
ARC
5
293
100
AcDbEntity
8
0
100
AcDbCircle
10
45.071476954255175
20
154.14790752251196
30
0
40
0.10000000000001563
210
0
220
-0
230
1
100
AcDbArc
50
89.999999999987793
51
145.79354454699694
0
LINE
5
294
100
AcDbEntity
8
0
100
AcDbLine
10
43.52305605602222
20
152.04790752251225
30
0
11
44.988775230284787
21
154.20412517856704
31
0
0
LINE
5
295
100
AcDbEntity
8
0
100
AcDbLine
10
43.52305605602222
20
152.04790752251225
30
0
11
43.52305605602222
21
149.74790752251232
31
0
0
ARC
5
296
100
AcDbEntity
8
0
100
AcDbCircle
10
43.023056056022249
20
149.74790752251232
30
0
40
0.49999999999997158
210
0
220
0
230
1
100
AcDbArc
50
-90.000000000004079
51
0
0
LINE
5
297
100
AcDbEntity
8
0
100
AcDbLine
10
43.023056056022213
20
149.24790752251232
30
0
11
26.142494773083378
21
149.24790752251232
31
0
0
LINE
5
298
100
AcDbEntity
8
0
100
AcDbLine
10
107.02305605602223
20
149.24790752251232
30
0
11
49.411933490144548
21
149.24790752251232
31
0
0
ARC
5
299
100
AcDbEntity
8
0
100
AcDbCircle
10
26.142494773083417
20
148.24790752251229
30
0
40
1.0000000000000142
210
0
220
0
230
1
100
AcDbArc
50
90.000000000002245
51
180
0
ARC
5
300
100
AcDbEntity
8
0
100
AcDbCircle
10
24.642494773083396
20
126.19234623957348
30
0
40
0.49999999999997158
210
0
220
0
230
1
100
AcDbArc
50
269.9999999999996
51
360
0
LINE
5
301
100
AcDbEntity
8
0
100
AcDbLine
10
23.967494773083402
20
125.69234623957348
30
0
11
24.642494773083392
21
125.69234623957351
31
0
0
LINE
5
302
100
AcDbEntity
8
0
100
AcDbLine
10
25.142494773083403
20
148.24790752251232
30
0
11
25.142494773083367
21
126.19234623957347
31
0
0
LINE
5
303
100
AcDbEntity
8
0
100
AcDbLine
10
23.967494773083402
20
120.30346880545116
30
0
11
24.642494773083392
21
120.30346880545116
31
0
0
ARC
5
304
100
AcDbEntity
8
0
100
AcDbCircle
10
24.642494773083445
20
119.8034688054512
30
0
40
0.49999999999995826
210
-0
220
0
230
1
100
AcDbArc
50
0
51
90.000000000006096
0
ARC
5
305
100
AcDbEntity
8
0
100
AcDbCircle
10
24.642494773083428
20
63.192346239573453
30
0
40
0.49999999999997158
210
0
220
0
230
1
100
AcDbArc
50
-90.000000000004079
51
0
0
LINE
5
306
100
AcDbEntity
8
0
100
AcDbLine
10
23.967494773083402
20
62.692346239573467
30
0
11
24.642494773083392
21
62.692346239573482
31
0
0
LINE
5
307
100
AcDbEntity
8
0
100
AcDbLine
10
25.142494773083403
20
119.80346880545116
30
0
11
25.142494773083399
21
63.192346239573467
31
0
0
LINE
5
308
100
AcDbEntity
8
0
100
AcDbLine
10
23.967494773083402
20
57.303468805451146
30
0
11
24.642494773083392
21
57.303468805451146
31
0
0
ARC
5
309
100
AcDbEntity
8
0
100
AcDbCircle
10
24.642494773083424
20
56.803468805451168
30
0
40
0.49999999999998046
210
-0
220
0
230
1
100
AcDbArc
50
0
51
90.000000000003652
0
ARC
5
310
100
AcDbEntity
8
0
100
AcDbCircle
10
26.142494773083413
20
34.747907522512321
30
0
40
1.0000000000000497
210
0
220
0
230
1
100
AcDbArc
50
180
51
270
0
LINE
5
311
100
AcDbEntity
8
0
100
AcDbLine
10
25.142494773083403
20
56.803468805451153
30
0
11
25.142494773083364
21
34.747907522512307
31
0
0
ARC
5
312
100
AcDbEntity
8
0
100
AcDbCircle
10
43.023056056022213
20
33.247907522512335
30
0
40
0.49999999999997158
210
-0
220
0
230
1
100
AcDbArc
50
0
51
90.000000000004079
0
LINE
5
313
100
AcDbEntity
8
0
100
AcDbLine
10
43.523056056022185
20
30.947907522512423
30
0
11
43.523056056022185
21
33.247907522512314
31
0
0
LINE
5
314
100
AcDbEntity
8
0
100
AcDbLine
10
43.523056056022185
20
30.947907522512423
30
0
11
44.988775230284901
21
28.79168986645757
31
0
0
ARC
5
315
100
AcDbEntity
8
0
100
AcDbCircle
10
45.071476954255232
20
28.847907522512635
30
0
40
0.099999999999952793
210
0
220
0
230
1
100
AcDbArc
50
214.20645545301295
51
270.00000000004479
0
LINE
5
316
100
AcDbEntity
8
0
100
AcDbLine
10
45.117494773083351
20
28.747907522512648
30
0
11
45.07147695425531
21
28.747907522512687
31
0
0
ARC
5
317
100
AcDbEntity
8
0
100
AcDbCircle
10
45.117494773083351
20
28.847907522512646
30
0
40
0.099999999999997868
210
-0
220
0
230
1
100
AcDbArc
50
270
51
360
0
LINE
5
318
100
AcDbEntity
8
0
100
AcDbLine
10
45.217494773083402
20
31.497907522512314
30
0
11
45.217494773083345
21
28.847907522512642
31
0
0
ARC
5
319
100
AcDbEntity
8
0
100
AcDbCircle
10
46.217494773083381
20
31.497907522512314
30
0
40
0.99999999999997868
210
0
220
-0
230
1
100
AcDbArc
50
0
51
180
0
LINE
5
320
100
AcDbEntity
8
0
100
AcDbLine
10
47.217494773083359
20
31.497907522512314
30
0
11
47.217494773083359
21
28.847907522512656
31
0
0
ARC
5
321
100
AcDbEntity
8
0
100
AcDbCircle
10
47.31749477308334
20
28.847907522512628
30
0
40
0.099999999999980105
210
0
220
0
230
1
100
AcDbArc
50
180
51
270.00000000000409
0
LINE
5
322
100
AcDbEntity
8
0
100
AcDbLine
10
47.363512591911565
20
28.747907522512666
30
0
11
47.317494773083347
21
28.747907522512651
31
0
0
ARC
5
323
100
AcDbEntity
8
0
100
AcDbCircle
10
47.363512591911601
20
28.847907522512667
30
0
40
0.10000000000000231
210
0
220
0
230
1
100
AcDbArc
50
269.99999999997965
51
325.79354454699529
0
LINE
5
324
100
AcDbEntity
8
0
100
AcDbLine
10
48.911933490144541
20
30.94790752251237
30
0
11
47.446214315881988
21
28.791689866457581
31
0
0
LINE
5
325
100
AcDbEntity
8
0
100
AcDbLine
10
48.911933490144541
20
30.94790752251237
30
0
11
48.911933490144541
21
33.247907522512314
31
0
0
ARC
5
326
100
AcDbEntity
8
0
100
AcDbCircle
10
49.411933490144548
20
33.247907522512307
30
0
40
0.50000000000000711
210
0
220
-0
230
1
100
AcDbArc
50
90
51
180
0
LINE
5
327
100
AcDbEntity
8
0
100
AcDbLine
10
49.411933490144548
20
33.747907522512307
30
0
11
107.0230560560222
21
33.747907522512307
31
0
0
ARC
5
328
100
AcDbEntity
8
0
100
AcDbCircle
10
107.02305605602217
20
33.247907522512286
30
0
40
0.50000000000002487
210
0
220
-0
230
1
100
AcDbArc
50
0
51
89.999999999996746
0
LINE
5
329
100
AcDbEntity
8
0
100
AcDbLine
10
107.52305605602218
20
30.947907522512423
30
0
11
107.52305605602218
21
33.247907522512314
31
0
0
LINE
5
330
100
AcDbEntity
8
0
100
AcDbLine
10
107.52305605602218
20
30.947907522512423
30
0
11
108.9887752302849
21
28.79168986645757
31
0
0
ARC
5
331
100
AcDbEntity
8
0
100
AcDbCircle
10
109.07147695425523
20
28.847907522512681
30
0
40
0.099999999999977759
210
0
220
0
230
1
100
AcDbArc
50
214.20645545303481
51
270.0000000000407
0
LINE
5
332
100
AcDbEntity
8
0
100
AcDbLine
10
109.11749477308335
20
28.747907522512648
30
0
11
109.0714769542553
21
28.747907522512701
31
0
0
ARC
5
333
100
AcDbEntity
8
0
100
AcDbCircle
10
109.11749477308335
20
28.847907522512635
30
0
40
0.099999999999988987
210
-0
220
0
230
1
100
AcDbArc
50
-90
51
0
0
LINE
5
334
100
AcDbEntity
8
0
100
AcDbLine
10
109.2174947730834
20
31.497907522512314
30
0
11
109.21749477308333
21
28.847907522512646
31
0
0
ARC
5
335
100
AcDbEntity
8
0
100
AcDbCircle
10
110.21749477308339
20
31.497907522512314
30
0
40
0.99999999999997868
210
0
220
-0
230
1
100
AcDbArc
50
0
51
180
0
LINE
5
336
100
AcDbEntity
8
0
100
AcDbLine
10
111.21749477308336
20
31.497907522512314
30
0
11
111.21749477308336
21
28.847907522512656
31
0
0
ARC
5
337
100
AcDbEntity
8
0
100
AcDbCircle
10
111.31749477308333
20
28.847907522512614
30
0
40
0.099999999999962341
210
0
220
0
230
1
100
AcDbArc
50
180
51
270.00000000000813
0
LINE
5
338
100
AcDbEntity
8
0
100
AcDbLine
10
111.36351259191157
20
28.747907522512666
30
0
11
111.31749477308334
21
28.747907522512651
31
0
0
ARC
5
339
100
AcDbEntity
8
0
100
AcDbCircle
10
111.3635125919116
20
28.847907522512685
30
0
40
0.10000000000002007
210
0
220
0
230
1
100
AcDbArc
50
269.99999999998369
51
325.79354454698347
0
LINE
5
340
100
AcDbEntity
8
0
100
AcDbLine
10
112.91193349014455
20
30.94790752251237
30
0
11
111.44621431588199
21
28.791689866457574
31
0
0
LINE
5
341
100
AcDbEntity
8
0
100
AcDbLine
10
112.91193349014455
20
30.94790752251237
30
0
11
112.91193349014455
21
33.247907522512314
31
0
0
ARC
5
342
100
AcDbEntity
8
0
100
AcDbCircle
10
113.41193349014458
20
33.247907522512278
30
0
40
0.50000000000003375
210
0
220
0
230
1
100
AcDbArc
50
90.000000000004889
51
180
0
LINE
5
343
100
AcDbEntity
8
0
100
AcDbLine
10
113.41193349014453
20
33.747907522512307
30
0
11
171.0230560560222
21
33.747907522512307
31
0
0
ARC
5
344
100
AcDbEntity
8
0
100
AcDbCircle
10
171.0230560560222
20
33.247907522512314
30
0
40
0.49999999999997158
210
0
220
0
230
1
100
AcDbArc
50
0
51
90
0
LINE
5
345
100
AcDbEntity
8
0
100
AcDbLine
10
171.5230560560222
20
30.947907522512423
30
0
11
171.52305605602214
21
33.247907522512314
31
0
0
LINE
5
346
100
AcDbEntity
8
0
100
AcDbLine
10
171.5230560560222
20
30.947907522512423
30
0
11
172.98877523028492
21
28.79168986645757
31
0
0
ARC
5
347
100
AcDbEntity
8
0
100
AcDbCircle
10
173.07147695425527
20
28.847907522512713
30
0
40
0.10000000000002462
210
0
220
0
230
1
100
AcDbArc
50
214.20645545304083
51
270.00000000001626
0
LINE
5
348
100
AcDbEntity
8
0
100
AcDbLine
10
173.11749477308337
20
28.747907522512648
30
0
11
173.0714769542553
21
28.747907522512701
31
0
0
ARC
5
349
100
AcDbEntity
8
0
100
AcDbCircle
10
173.11749477308339
20
28.847907522512635
30
0
40
0.099999999999988987
210
0
220
0
230
1
100
AcDbArc
50
-90.000000000016286
51
0
0
LINE
5
350
100
AcDbEntity
8
0
100
AcDbLine
10
173.21749477308342
20
31.497907522512314
30
0
11
173.21749477308339
21
28.847907522512646
31
0
0
ARC
5
351
100
AcDbEntity
8
0
100
AcDbCircle
10
174.21749477308339
20
31.497907522512314
30
0
40
0.99999999999997868
210
0
220
-0
230
1
100
AcDbArc
50
0
51
180
0
LINE
5
352
100
AcDbEntity
8
0
100
AcDbLine
10
175.21749477308336
20
31.497907522512314
30
0
11
175.21749477308336
21
28.847907522512656
31
0
0
ARC
5
353
100
AcDbEntity
8
0
100
AcDbCircle
10
175.31749477308335
20
28.847907522512624
30
0
40
0.099999999999980105
210
0
220
0
230
1
100
AcDbArc
50
180
51
270
0
LINE
5
354
100
AcDbEntity
8
0
100
AcDbLine
10
175.36351259191156
20
28.747907522512666
30
0
11
175.31749477308335
21
28.747907522512644
31
0
0
ARC
5
355
100
AcDbEntity
8
0
100
AcDbCircle
10
175.36351259191161
20
28.847907522512685
30
0
40
0.10000000000002007
210
0
220
0
230
1
100
AcDbArc
50
269.99999999996743
51
325.79354454697432
0
LINE
5
356
100
AcDbEntity
8
0
100
AcDbLine
10
176.91193349014455
20
30.94790752251237
30
0
11
175.44621431588197
21
28.791689866457574
31
0
0
LINE
5
357
100
AcDbEntity
8
0
100
AcDbLine
10
176.91193349014455
20
30.94790752251237
30
0
11
176.91193349014455
21
33.247907522512314
31
0
0
ARC
5
358
100
AcDbEntity
8
0
100
AcDbCircle
10
177.41193349014452
20
33.247907522512314
30
0
40
0.49999999999999822
210
0
220
-0
230
1
100
AcDbArc
50
90
51
180
0
LINE
5
359
100
AcDbEntity
8
0
100
AcDbLine
10
177.41193349014452
20
33.747907522512307
30
0
11
235.0230560560222
21
33.747907522512307
31
0
0
ARC
5
360
100
AcDbEntity
8
0
100
AcDbCircle
10
235.0230560560222
20
33.247907522512278
30
0
40
0.50000000000000711
210
0
220
-0
230
1
100
AcDbArc
50
0
51
90
0
LINE
5
361
100
AcDbEntity
8
0
100
AcDbLine
10
235.5230560560222
20
30.947907522512423
30
0
11
235.5230560560222
21
33.247907522512314
31
0
0
LINE
5
362
100
AcDbEntity
8
0
100
AcDbLine
10
235.5230560560222
20
30.947907522512423
30
0
11
236.98877523028494
21
28.79168986645757
31
0
0
ARC
5
363
100
AcDbEntity
8
0
100
AcDbCircle
10
237.07147695425522
20
28.847907522512564
30
0
40
0.09999999999988346
210
0
220
0
230
1
100
AcDbArc
50
214.20645545299763
51
270.00000000006514
0
LINE
5
364
100
AcDbEntity
8
0
100
AcDbLine
10
237.11749477308337
20
28.747907522512648
30
0
11
237.07147695425533
21
28.74790752251268
31
0
0
ARC
5
365
100
AcDbEntity
8
0
100
AcDbCircle
10
237.11749477308334
20
28.847907522512664
30
0
40
0.10000000000001563
210
-0
220
0
230
1
100
AcDbArc
50
270.00000000001626
51
360
0
LINE
5
366
100
AcDbEntity
8
0
100
AcDbLine
10
237.21749477308344
20
31.497907522512314
30
0
11
237.21749477308336
21
28.847907522512642
31
0
0
ARC
5
367
100
AcDbEntity
8
0
100
AcDbCircle
10
238.21749477308339
20
31.497907522512332
30
0
40
0.99999999999997868
210
-0
220
0
230
1
100
AcDbArc
50
0
51
180
0
LINE
5
368
100
AcDbEntity
8
0
100
AcDbLine
10
239.21749477308336
20
31.497907522512314
30
0
11
239.21749477308339
21
28.847907522512656
31
0
0
ARC
5
369
100
AcDbEntity
8
0
100
AcDbCircle
10
239.31749477308335
20
28.847907522512635
30
0
40
0.099999999999980105
210
0
220
0
230
1
100
AcDbArc
50
180
51
270
0
LINE
5
370
100
AcDbEntity
8
0
100
AcDbLine
10
239.36351259191156
20
28.747907522512666
30
0
11
239.31749477308335
21
28.747907522512655
31
0
0
ARC
5
371
100
AcDbEntity
8
0
100
AcDbCircle
10
239.36351259191161
20
28.847907522512685
30
0
40
0.10000000000002007
210
0
220
0
230
1
100
AcDbArc
50
269.99999999996743
51
325.79354454699597
0
LINE
5
372
100
AcDbEntity
8
0
100
AcDbLine
10
240.91193349014452
20
30.94790752251237
30
0
11
239.44621431588203
21
28.791689866457581
31
0
0
LINE
5
373
100
AcDbEntity
8
0
100
AcDbLine
10
240.91193349014452
20
30.94790752251237
30
0
11
240.91193349014452
21
33.247907522512314
31
0
0
ARC
5
374
100
AcDbEntity
8
0
100
AcDbCircle
10
241.41193349014455
20
33.247907522512278
30
0
40
0.50000000000002931
210
0
220
-0
230
1
100
AcDbArc
50
90
51
180
0
LINE
5
375
100
AcDbEntity
8
0
100
AcDbLine
10
241.41193349014455
20
33.747907522512307
30
0
11
299.0230560560222
21
33.747907522512307
31
0
0
ARC
5
376
100
AcDbEntity
8
0
100
AcDbCircle
10
299.02305605602226
20
33.247907522512335
30
0
40
0.49999999999997158
210
-0
220
0
230
1
100
AcDbArc
50
0
51
90.000000000006523
0
LINE
5
377
100
AcDbEntity
8
0
100
AcDbLine
10
299.5230560560222
20
30.947907522512423
30
0
11
299.5230560560222
21
33.247907522512314
31
0
0
LINE
5
378
100
AcDbEntity
8
0
100
AcDbLine
10
299.5230560560222
20
30.947907522512423
30
0
11
300.98877523028489
21
28.79168986645757
31
0
0
ARC
5
379
100
AcDbEntity
8
0
100
AcDbCircle
10
301.07147695425522
20
28.847907522512564
30
0
40
0.09999999999988346
210
0
220
0
230
1
100
AcDbArc
50
214.2064554529793
51
270.00000000006514
0
LINE
5
380
100
AcDbEntity
8
0
100
AcDbLine
10
301.11749477308337
20
28.747907522512648
30
0
11
301.07147695425533
21
28.74790752251268
31
0
0
ARC
5
381
100
AcDbEntity
8
0
100
AcDbCircle
10
301.11749477308331
20
28.847907522512664
30
0
40
0.10000000000001563
210
-0
220
0
230
1
100
AcDbArc
50
270.00000000003257
51
360
0
LINE
5
382
100
AcDbEntity
8
0
100
AcDbLine
10
301.21749477308344
20
31.497907522512314
30
0
11
301.21749477308333
21
28.847907522512642
31
0
0
ARC
5
383
100
AcDbEntity
8
0
100
AcDbCircle
10
302.21749477308339
20
31.497907522512296
30
0
40
0.99999999999997868
210
0
220
-0
230
1
100
AcDbArc
50
0
51
180
0
LINE
5
384
100
AcDbEntity
8
0
100
AcDbLine
10
303.21749477308339
20
31.497907522512314
30
0
11
303.21749477308339
21
28.847907522512656
31
0
0
ARC
5
385
100
AcDbEntity
8
0
100
AcDbCircle
10
303.31749477308335
20
28.847907522512635
30
0
40
0.099999999999980105
210
0
220
0
230
1
100
AcDbArc
50
180
51
270
0
LINE
5
386
100
AcDbEntity
8
0
100
AcDbLine
10
303.36351259191156
20
28.747907522512666
30
0
11
303.31749477308335
21
28.747907522512655
31
0
0
ARC
5
387
100
AcDbEntity
8
0
100
AcDbCircle
10
303.36351259191161
20
28.847907522512685
30
0
40
0.10000000000002007
210
0
220
0
230
1
100
AcDbArc
50
269.99999999996743
51
325.79354454698347
0
LINE
5
388
100
AcDbEntity
8
0
100
AcDbLine
10
304.91193349014458
20
30.94790752251237
30
0
11
303.446214315882
21
28.791689866457574
31
0
0
LINE
5
389
100
AcDbEntity
8
0
100
AcDbLine
10
304.91193349014458
20
30.94790752251237
30
0
11
304.91193349014458
21
33.247907522512314
31
0
0
ARC
5
390
100
AcDbEntity
8
0
100
AcDbCircle
10
305.41193349014452
20
33.247907522512321
30
0
40
0.49999999999998934
210
0
220
-0
230
1
100
AcDbArc
50
89.999999999993491
51
180
0
LINE
5
391
100
AcDbEntity
8
0
100
AcDbLine
10
305.41193349014458
20
33.747907522512307
30
0
11
363.0230560560222
21
33.7479075225123
31
0
0
ARC
5
392
100
AcDbEntity
8
0
100
AcDbCircle
10
363.02305605602226
20
33.247907522512307
30
0
40
0.49999999999997158
210
0
220
-0
230
1
100
AcDbArc
50
0
51
90.000000000006523
0
LINE
5
393
100
AcDbEntity
8
0
100
AcDbLine
10
363.5230560560222
20
30.947907522512423
30
0
11
363.52305605602226
21
33.247907522512314
31
0
0
LINE
5
394
100
AcDbEntity
8
0
100
AcDbLine
10
363.5230560560222
20
30.947907522512423
30
0
11
364.98877523028489
21
28.79168986645757
31
0
0
ARC
5
395
100
AcDbEntity
8
0
100
AcDbCircle
10
365.07147695425516
20
28.847907522512454
30
0
40
0.099999999999791672
210
0
220
0
230
1
100
AcDbArc
50
214.20645545294545
51
270.00000000009771
0
LINE
5
396
100
AcDbEntity
8
0
100
AcDbLine
10
365.11749477308337
20
28.747907522512648
30
0
11
365.07147695425533
21
28.747907522512666
31
0
0
ARC
5
397
100
AcDbEntity
8
0
100
AcDbCircle
10
365.11749477308342
20
28.847907522512571
30
0
40
0.099999999999922373
210
0
220
0
230
1
100
AcDbArc
50
-90.000000000032571
51
0
0
LINE
5
398
100
AcDbEntity
8
0
100
AcDbLine
10
365.21749477308339
20
31.497907522512314
30
0
11
365.21749477308333
21
28.847907522512646
31
0
0
ARC
5
399
100
AcDbEntity
8
0
100
AcDbCircle
10
366.21749477308344
20
31.497907522512349
30
0
40
0.99999999999994316
210
-0
220
0
230
1
100
AcDbArc
50
0
51
180
0
LINE
5
400
100
AcDbEntity
8
0
100
AcDbLine
10
367.21749477308333
20
31.497907522512314
30
0
11
367.21749477308333
21
28.847907522512656
31
0
0
ARC
5
401
100
AcDbEntity
8
0
100
AcDbCircle
10
367.31749477308335
20
28.847907522512656
30
0
40
0.099999999999980105
210
0
220
0
230
1
100
AcDbArc
50
180
51
270
0
LINE
5
402
100
AcDbEntity
8
0
100
AcDbLine
10
367.36351259191161
20
28.747907522512666
30
0
11
367.31749477308335
21
28.747907522512676
31
0
0
ARC
5
403
100
AcDbEntity
8
0
100
AcDbCircle
10
367.36351259191167
20
28.847907522512635
30
0
40
0.099999999999971223
210
0
220
0
230
1
100
AcDbArc
50
269.99999999996743
51
325.79354454698034
0
LINE
5
404
100
AcDbEntity
8
0
100
AcDbLine
10
368.91193349014458
20
30.94790752251237
30
0
11
367.446214315882
21
28.791689866457556
31
0
0
LINE
5
405
100
AcDbEntity
8
0
100
AcDbLine
10
368.91193349014458
20
30.94790752251237
30
0
11
368.91193349014458
21
33.247907522512314
31
0
0
ARC
5
406
100
AcDbEntity
8
0
100
AcDbCircle
10
369.41193349014452
20
33.247907522512321
30
0
40
0.49999999999998934
210
0
220
-0
230
1
100
AcDbArc
50
89.999999999986969
51
180
0
LINE
5
407
100
AcDbEntity
8
0
100
AcDbLine
10
369.41193349014463
20
33.747907522512307
30
0
11
387.29249477308338
21
33.747907522512307
31
0
0
ARC
5
408
100
AcDbEntity
8
0
100
AcDbCircle
10
387.29249477308343
20
34.74790752251225
30
0
40
0.99999999999994316
210
0
220
0
230
1
100
AcDbArc
50
-90.000000000003254
51
0
0
LINE
5
409
100
AcDbEntity
8
0
100
AcDbLine
10
388.29249477308338
20
34.7479075225123
30
0
11
388.29249477308338
21
56.803468805451153
31
0
0
ARC
5
410
100
AcDbEntity
8
0
100
AcDbCircle
10
388.79249477308338
20
56.803468805451161
30
0
40
0.49999999999998046
210
0
220
-0
230
1
100
AcDbArc
50
89.999999999993491
51
180
0
LINE
5
411
100
AcDbEntity
8
0
100
AcDbLine
10
389.46749477308339
20
57.303468805451146
30
0
11
388.79249477308343
21
57.303468805451139
31
0
0
LINE
5
412
100
AcDbEntity
8
0
100
AcDbLine
10
26.142494773083413
20
33.747907522512278
30
0
11
43.023056056022178
21
33.747907522512307
31
0
0
LINE
5
413
100
AcDbEntity
8
0
100
AcDbLine
10
389.46749477308339
20
62.692346239573467
30
0
11
388.79249477308338
21
62.692346239573467
31
0
0
ARC
5
414
100
AcDbEntity
8
0
100
AcDbCircle
10
388.79249477308338
20
63.192346239573432
30
0
40
0.49999999999997158
210
0
220
0
230
1
100
AcDbArc
50
180
51
270
0
ARC
5
415
100
AcDbEntity
8
0
100
AcDbCircle
10
388.79249477308338
20
119.80346880545116
30
0
40
0.49999999999998934
210
0
220
-0
230
1
100
AcDbArc
50
89.999999999993491
51
180
0
LINE
5
416
100
AcDbEntity
8
0
100
AcDbLine
10
389.46749477308339
20
120.30346880545116
30
0
11
388.79249477308343
21
120.30346880545116
31
0
0
LINE
5
417
100
AcDbEntity
8
0
100
AcDbLine
10
388.29249477308338
20
63.19234623957346
30
0
11
388.29249477308338
21
119.80346880545115
31
0
0
ARC
5
418
100
AcDbEntity
8
0
100
AcDbCircle
10
388.79249477308338
20
126.19234623957342
30
0
40
0.49999999999997158
210
0
220
0
230
1
100
AcDbArc
50
180
51
270
0
LINE
5
419
100
AcDbEntity
8
0
100
AcDbLine
10
388.29249477308338
20
126.19234623957347
30
0
11
388.29249477308338
21
148.24790752251232
31
0
0
LINE
5
420
100
AcDbEntity
8
0
100
AcDbLine
10
22.217494773083395
20
123.99790752251234
30
0
11
21.66749477308349
21
123.99790752251234
31
0
0
ARC
5
421
100
AcDbEntity
8
0
100
AcDbCircle
10
21.66749477308349
20
124.49790752251234
30
0
40
0.50000000000000266
210
0
220
0
230
1
100
AcDbArc
50
180
51
270
0
LINE
5
422
100
AcDbEntity
8
0
100
AcDbLine
10
21.167494773083494
20
124.79234623957348
30
0
11
21.16749477308349
21
124.49790752251235
31
0
0
ARC
5
423
100
AcDbEntity
8
0
100
AcDbCircle
10
22.067494773083499
20
124.79234623957348
30
0
40
0.90000000000001634
210
0
220
0
230
1
100
AcDbArc
50
90.000000000001123
51
180
0
LINE
5
424
100
AcDbEntity
8
0
100
AcDbLine
10
22.067494773083482
20
125.6923462395735
30
0
11
24.642494773083392
21
125.69234623957351
31
0
0
ARC
5
425
100
AcDbEntity
8
0
100
AcDbCircle
10
21.667494773083483
20
121.49790752251229
30
0
40
0.50000000000000711
210
0
220
0
230
1
100
AcDbArc
50
90.000000000001208
51
180
0
LINE
5
426
100
AcDbEntity
8
0
100
AcDbLine
10
21.167494773083476
20
121.49790752251229
30
0
11
21.167494773083469
21
121.20346880545115
31
0
0
ARC
5
427
100
AcDbEntity
8
0
100
AcDbCircle
10
22.067494773083482
20
121.20346880545117
30
0
40
0.9000000000000119
210
0
220
0
230
1
100
AcDbArc
50
180
51
269.99999999999886
0
LINE
5
428
100
AcDbEntity
8
0
100
AcDbLine
10
22.067494773083464
20
120.30346880545116
30
0
11
24.642494773083392
21
120.30346880545116
31
0
0
LINE
5
429
100
AcDbEntity
8
0
100
AcDbLine
10
22.217494773083395
20
121.99790752251231
30
0
11
21.667494773083472
21
121.99790752251231
31
0
0
ARC
5
430
100
AcDbEntity
8
0
100
AcDbCircle
10
22.217494773083395
20
122.99790752251232
30
0
40
1.0000000000000142
210
-0
220
0
230
1
100
AcDbArc
50
-90
51
90
0
LINE
5
431
100
AcDbEntity
8
0
100
AcDbLine
10
22.217494773083395
20
60.997907522512321
30
0
11
21.667494773083487
21
60.997907522512321
31
0
0
ARC
5
432
100
AcDbEntity
8
0
100
AcDbCircle
10
21.667494773083483
20
61.497907522512321
30
0
40
0.49999999999999822
210
0
220
0
230
1
100
AcDbArc
50
180
51
270.0000000000004
0
LINE
5
433
100
AcDbEntity
8
0
100
AcDbLine
10
21.167494773083494
20
61.792346239573483
30
0
11
21.167494773083483
21
61.497907522512321
31
0
0
ARC
5
434
100
AcDbEntity
8
0
100
AcDbCircle
10
22.067494773083492
20
61.792346239573476
30
0
40
0.89999999999999858
210
0
220
0
230
1
100
AcDbArc
50
90.000000000000242
51
180
0
LINE
5
435
100
AcDbEntity
8
0
100
AcDbLine
10
22.067494773083489
20
62.692346239573467
30
0
11
24.642494773083392
21
62.692346239573482
31
0
0
ARC
5
436
100
AcDbEntity
8
0
100
AcDbCircle
10
22.217494773083395
20
59.997907522512307
30
0
40
1.0000000000000142
210
-0
220
0
230
1
100
AcDbArc
50
-90
51
90
0
ARC
5
437
100
AcDbEntity
8
0
100
AcDbCircle
10
21.667494773083469
20
58.497907522512293
30
0
40
0.50000000000000711
210
0
220
-0
230
1
100
AcDbArc
50
90
51
180
0
LINE
5
438
100
AcDbEntity
8
0
100
AcDbLine
10
21.167494773083465
20
58.4979075225123
30
0
11
21.167494773083465
21
58.203468805451159
31
0
0
ARC
5
439
100
AcDbEntity
8
0
100
AcDbCircle
10
22.067494773083464
20
58.203468805451152
30
0
40
0.89999999999999858
210
0
220
0
230
1
100
AcDbArc
50
180
51
270
0
LINE
5
440
100
AcDbEntity
8
0
100
AcDbLine
10
22.067494773083464
20
57.303468805451146
30
0
11
24.642494773083392
21
57.303468805451146
31
0
0
LINE
5
441
100
AcDbEntity
8
0
100
AcDbLine
10
22.217494773083395
20
58.997907522512293
30
0
11
21.667494773083469
21
58.997907522512293
31
0
0
LINE
5
442
100
AcDbEntity
8
0
100
AcDbLine
10
391.76749477308334
20
121.99790752251234
30
0
11
391.21749477308344
21
121.99790752251231
31
0
0
ARC
5
443
100
AcDbEntity
8
0
100
AcDbCircle
10
391.76749477308334
20
121.49790752251236
30
0
40
0.49999999999997158
210
-0
220
0
230
1
100
AcDbArc
50
0
51
90
0
LINE
5
444
100
AcDbEntity
8
0
100
AcDbLine
10
392.26749477308329
20
121.49790752251229
30
0
11
392.26749477308329
21
121.20346880545115
31
0
0
ARC
5
445
100
AcDbEntity
8
0
100
AcDbCircle
10
391.36749477308331
20
121.20346880545115
30
0
40
0.89999999999999858
210
-0
220
0
230
1
100
AcDbArc
50
-90
51
0
0
LINE
5
446
100
AcDbEntity
8
0
100
AcDbLine
10
391.36749477308331
20
120.30346880545116
30
0
11
388.79249477308343
21
120.30346880545116
31
0
0
LINE
5
447
100
AcDbEntity
8
0
100
AcDbLine
10
391.21749477308344
20
123.99790752251234
30
0
11
391.76749477308334
21
123.99790752251234
31
0
0
ARC
5
448
100
AcDbEntity
8
0
100
AcDbCircle
10
391.76749477308334
20
124.49790752251226
30
0
40
0.49999999999993605
210
-0
220
0
230
1
100
AcDbArc
50
-90
51
0
0
LINE
5
449
100
AcDbEntity
8
0
100
AcDbLine
10
392.26749477308329
20
124.49790752251234
30
0
11
392.26749477308329
21
124.79234623957348
31
0
0
ARC
5
450
100
AcDbEntity
8
0
100
AcDbCircle
10
391.36749477308331
20
124.79234623957348
30
0
40
0.90000000000003411
210
0
220
-0
230
1
100
AcDbArc
50
0
51
90
0
LINE
5
451
100
AcDbEntity
8
0
100
AcDbLine
10
391.36749477308331
20
125.69234623957351
30
0
11
388.79249477308338
21
125.69234623957348
31
0
0
ARC
5
452
100
AcDbEntity
8
0
100
AcDbCircle
10
391.21749477308344
20
122.99790752251232
30
0
40
1.0000000000000142
210
0
220
-0
230
1
100
AcDbArc
50
90
51
270
0
ARC
5
453
100
AcDbEntity
8
0
100
AcDbCircle
10
391.21749477308344
20
59.997907522512278
30
0
40
0.99999999999997868
210
0
220
-0
230
1
100
AcDbArc
50
90
51
270
0
ARC
5
454
100
AcDbEntity
8
0
100
AcDbCircle
10
391.76749477308334
20
61.49790752251225
30
0
40
0.49999999999999822
210
-0
220
0
230
1
100
AcDbArc
50
-90
51
0
0
LINE
5
455
100
AcDbEntity
8
0
100
AcDbLine
10
392.26749477308329
20
61.792346239573476
30
0
11
392.26749477308329
21
61.497907522512264
31
0
0
ARC
5
456
100
AcDbEntity
8
0
100
AcDbCircle
10
391.36749477308337
20
61.792346239573483
30
0
40
0.89999999999996305
210
-0
220
0
230
1
100
AcDbArc
50
0
51
90.000000000003624
0
LINE
5
457
100
AcDbEntity
8
0
100
AcDbLine
10
391.36749477308331
20
62.692346239573446
30
0
11
388.79249477308338
21
62.692346239573467
31
0
0
LINE
5
458
100
AcDbEntity
8
0
100
AcDbLine
10
391.21749477308344
20
60.99790752251225
30
0
11
391.76749477308334
21
60.99790752251225
31
0
0
ARC
5
459
100
AcDbEntity
8
0
100
AcDbCircle
10
391.76749477308334
20
58.49790752251225
30
0
40
0.50000000000004263
210
0
220
-0
230
1
100
AcDbArc
50
0
51
90
0
LINE
5
460
100
AcDbEntity
8
0
100
AcDbLine
10
392.2674947730834
20
58.497907522512342
30
0
11
392.2674947730834
21
58.203468805451109
31
0
0
ARC
5
461
100
AcDbEntity
8
0
100
AcDbCircle
10
391.36749477308342
20
58.203468805451095
30
0
40
0.89999999999994529
210
0
220
0
230
1
100
AcDbArc
50
-90.000000000003624
51
0
0
LINE
5
462
100
AcDbEntity
8
0
100
AcDbLine
10
391.36749477308337
20
57.303468805451146
30
0
11
388.79249477308343
21
57.303468805451146
31
0
0
LINE
5
463
100
AcDbEntity
8
0
100
AcDbLine
10
391.21749477308344
20
58.997907522512293
30
0
11
391.76749477308334
21
58.997907522512293
31
0
0
ENDSEC
0
SECTION
2
OBJECTS
0
DICTIONARY
5
C
100
AcDbDictionary
3
ACAD_GROUP
350
D
3
ACAD_MLINESTYLE
350
17
0
DICTIONARY
5
D
100
AcDbDictionary
0
DICTIONARY
5
1A
330
C
100
AcDbDictionary
0
DICTIONARY
5
17
100
AcDbDictionary
0
ENDSEC
0
EOF
