0
SECTION
2
HEADER
9
$INSUNITS
70
4
9
$ACADVER
1
AC1014
9
$HANDSEED
5
FFFF
0
ENDSEC
0
SECTION
2
TABLES
0
TABLE
2
VPORT
5
8
100
AcDbSymbolTable
0
ENDTAB
0
TABLE
2
LTYPE
5
5
100
AcDbSymbolTable
0
LTYPE
5
14
100
AcDbSymbolTableRecord
100
AcDbLinetypeTableRecord
2
BYBLOCK
70
0
0
LTYPE
5
15
100
AcDbSymbolTableRecord
100
AcDbLinetypeTableRecord
2
BYLAYER
70
0
0
ENDTAB
0
TABLE
2
LAYER
5
2
100
AcDbSymbolTable
70
2
0
LAYER
5
50
100
AcDbSymbolTableRecord
100
AcDbLayerTableRecord
2
0
70
0
6
CONTINUOUS
0
ENDTAB
0
TABLE
2
STYLE
5
3
100
AcDbSymbolTable
70
1
0
STYLE
5
11
100
AcDbSymbolTableRecord
100
AcDbTextStyleTableRecord
2
STANDARD
70
0
0
ENDTAB
0
TABLE
2
VIEW
5
6
100
AcDbSymbolTable
70
0
0
ENDTAB
0
TABLE
2
UCS
5
7
100
AcDbSymbolTable
70
0
0
ENDTAB
0
TABLE
2
APPID
5
9
100
AcDbSymbolTable
70
2
0
APPID
5
12
100
AcDbSymbolTableRecord
100
AcDbRegAppTableRecord
2
ACAD
70
0
0
ENDTAB
0
TABLE
2
DIMSTYLE
5
A
100
AcDbSymbolTable
70
1
0
ENDTAB
0
TABLE
2
BLOCK_RECORD
5
1
100
AcDbSymbolTable
70
1
0
BLOCK_RECORD
5
1F
100
AcDbSymbolTableRecord
100
AcDbBlockTableRecord
2
*MODEL_SPACE
0
BLOCK_RECORD
5
1B
100
AcDbSymbolTableRecord
100
AcDbBlockTableRecord
2
*PAPER_SPACE
0
ENDTAB
0
ENDSEC
0
SECTION
2
BLOCKS
0
BLOCK
5
20
100
AcDbEntity
100
AcDbBlockBegin
2
*MODEL_SPACE
0
ENDBLK
5
21
100
AcDbEntity
100
AcDbBlockEnd
0
BLOCK
5
1C
100
AcDbEntity
100
AcDbBlockBegin
2
*PAPER_SPACE
0
ENDBLK
5
1D
100
AcDbEntity
100
AcDbBlockEnd
0
ENDSEC
0
SECTION
2
ENTITIES
0
LWPOLYLINE
5
100
100
AcDbEntity
8
0
100
AcDbPolyline
90
8
70
1
43
0.0
10
92.974998399999279
20
-112.5084113017395
42
-0.41421356237309503
10
92.474998399999293
20
-113.00841130173949
10
79.474998399999279
20
-113.0084113017395
42
-0.41421356237309503
10
78.974998399999279
20
-112.5084113017395
10
78.974998399999265
20
-99.508411301739486
42
-0.41421356237309503
10
79.474998399999279
20
-99.008411301739471
10
92.474998399999293
20
-99.008411301739471
42
-0.41421356237309503
10
92.974998399999293
20
-99.508411301739486
0
LWPOLYLINE
5
101
100
AcDbEntity
8
0
100
AcDbPolyline
90
8
70
1
43
0.0
10
16.274998399999287
20
-113.00841130173949
10
3.2749983999992867
20
-113.0084113017395
42
-0.41421356237309503
10
2.7749983999992867
20
-112.5084113017395
10
2.7749983999992796
20
-99.508411301739486
42
-0.41421356237309503
10
3.2749983999992871
20
-99.008411301739471
10
16.274998399999287
20
-99.008411301739471
42
-0.41421356237309503
10
16.774998399999287
20
-99.508411301739486
10
16.774998399999276
20
-112.5084113017395
42
-0.41421356237309503
0
LWPOLYLINE
5
102
100
AcDbEntity
8
0
100
AcDbPolyline
90
8
70
1
43
0.0
10
98.524998399999291
20
-113.0084113017395
42
-0.41421356237309503
10
98.024998399999276
20
-112.5084113017395
10
98.024998399999276
20
-99.508411301739486
42
-0.41421356237309503
10
98.524998399999291
20
-99.008411301739471
10
111.5249983999993
20
-99.008411301739471
42
-0.41421356237309503
10
112.0249983999993
20
-99.508411301739486
10
112.02499839999929
20
-112.5084113017395
42
-0.41421356237309503
10
111.5249983999993
20
-113.00841130173949
0
LWPOLYLINE
5
103
100
AcDbEntity
8
0
100
AcDbPolyline
90
8
70
1
43
0.0
10
60.424998399999282
20
-99.008411301739471
10
73.424998399999282
20
-99.008411301739471
42
-0.41421356237309503
10
73.924998399999282
20
-99.508411301739486
10
73.924998399999268
20
-112.5084113017395
42
-0.41421356237309503
10
73.424998399999282
20
-113.00841130173949
10
60.424998399999282
20
-113.0084113017395
42
-0.41421356237309503
10
59.924998399999289
20
-112.5084113017395
10
59.924998399999282
20
-99.508411301739486
42
-0.41421356237309503
0
LWPOLYLINE
5
104
100
AcDbEntity
8
0
100
AcDbPolyline
90
8
70
1
43
0.0
10
21.824998399999288
20
-112.5084113017395
10
21.824998399999277
20
-99.508411301739486
42
-0.41421356237309503
10
22.324998399999284
20
-99.008411301739471
10
35.324998399999288
20
-99.008411301739471
42
-0.41421356237309503
10
35.824998399999288
20
-99.508411301739486
10
35.824998399999274
20
-112.5084113017395
42
-0.41421356237309503
10
35.324998399999288
20
-113.00841130173949
10
22.324998399999284
20
-113.0084113017395
42
-0.41421356237309503
0
LWPOLYLINE
5
105
100
AcDbEntity
8
0
100
AcDbPolyline
90
8
70
1
43
0.0
10
40.874998399999278
20
-99.508411301739486
42
-0.41421356237309503
10
41.374998399999285
20
-99.008411301739471
10
54.374998399999292
20
-99.008411301739471
42
-0.41421356237309503
10
54.874998399999285
20
-99.508411301739486
10
54.874998399999278
20
-112.5084113017395
42
-0.41421356237309503
10
54.374998399999292
20
-113.00841130173949
10
41.374998399999285
20
-113.0084113017395
42
-0.41421356237309503
10
40.874998399999285
20
-112.5084113017395
0
LWPOLYLINE
5
106
100
AcDbEntity
8
0
100
AcDbPolyline
90
8
70
1
43
0.0
10
131.07499839999926
20
-112.5084113017395
42
-0.41421356237309503
10
130.57499839999929
20
-113.00841130173949
10
117.5749983999993
20
-113.0084113017395
42
-0.41421356237309503
10
117.07499839999929
20
-112.5084113017395
10
117.07499839999929
20
-99.508411301739486
42
-0.41421356237309503
10
117.5749983999993
20
-99.008411301739471
10
130.57499839999929
20
-99.008411301739471
42
-0.41421356237309503
10
131.07499839999929
20
-99.508411301739486
0
LWPOLYLINE
5
107
100
AcDbEntity
8
0
100
AcDbPolyline
90
8
70
1
43
0.0
10
136.6249983999993
20
-113.0084113017395
42
-0.41421356237309503
10
136.1249983999993
20
-112.5084113017395
10
136.1249983999993
20
-99.508411301739486
42
-0.41421356237309503
10
136.6249983999993
20
-99.008411301739471
10
149.6249983999993
20
-99.008411301739471
42
-0.41421356237309503
10
150.1249983999993
20
-99.508411301739486
10
150.12499839999927
20
-112.5084113017395
42
-0.41421356237309503
10
149.6249983999993
20
-113.00841130173949
0
LWPOLYLINE
5
108
100
AcDbEntity
8
0
100
AcDbPolyline
90
8
70
1
43
0.0
10
155.67499839999931
20
-113.0084113017395
42
-0.41421356237309503
10
155.17499839999931
20
-112.5084113017395
10
155.17499839999931
20
-99.508411301739486
42
-0.41421356237309503
10
155.67499839999931
20
-99.008411301739471
10
168.67499839999931
20
-99.008411301739471
42
-0.41421356237309503
10
169.17499839999931
20
-99.508411301739486
10
169.17499839999925
20
-112.5084113017395
42
-0.41421356237309503
10
168.67499839999931
20
-113.00841130173949
0
LWPOLYLINE
5
109
100
AcDbEntity
8
0
100
AcDbPolyline
90
8
70
1
43
0.0
10
174.72499839999929
20
-113.0084113017395
42
-0.41421356237309503
10
174.22499839999929
20
-112.5084113017395
10
174.22499839999929
20
-99.508411301739486
42
-0.41421356237309503
10
174.72499839999929
20
-99.008411301739471
10
187.72499839999927
20
-99.008411301739471
42
-0.41421356237309503
10
188.22499839999927
20
-99.508411301739486
10
188.22499839999927
20
-112.5084113017395
42
-0.41421356237309503
10
187.72499839999927
20
-113.00841130173949
0
LWPOLYLINE
5
110
100
AcDbEntity
8
0
100
AcDbPolyline
90
8
70
1
43
0.0
10
233.4687483999993
20
-99.508411301739486
10
233.46874839999927
20
-112.5084113017395
42
-0.41421356237309503
10
232.9687483999993
20
-113.00841130173949
10
219.9687483999993
20
-113.0084113017395
42
-0.41421356237309503
10
219.4687483999993
20
-112.5084113017395
10
219.4687483999993
20
-99.508411301739486
42
-0.41421356237309503
10
219.9687483999993
20
-99.008411301739471
10
232.9687483999993
20
-99.008411301739471
42
-0.41421356237309503
0
LWPOLYLINE
5
111
100
AcDbEntity
8
0
100
AcDbPolyline
90
8
70
1
43
0.0
10
193.7749983999993
20
-99.008411301739471
10
206.77499839999933
20
-99.008411301739514
42
-0.41421356237309503
10
207.27499839999928
20
-99.508411301739486
10
207.27499839999928
20
-112.5084113017395
42
-0.41421356237309503
10
206.77499839999933
20
-113.00841130173949
10
193.7749983999993
20
-113.0084113017395
42
-0.41421356237309503
10
193.2749983999993
20
-112.5084113017395
10
193.2749983999993
20
-99.508411301739486
42
-0.41421356237309503
0
LWPOLYLINE
5
112
100
AcDbEntity
8
0
100
AcDbPolyline
90
8
70
1
43
0.0
10
18.656248399999289
20
-118.05841130173947
42
-0.41421356237309503
10
19.156248399999289
20
-118.55841130173948
10
19.156248399999278
20
-131.55841130173948
42
-0.41421356237309503
10
18.656248399999292
20
-132.05841130173948
10
5.6562483999992876
20
-132.05841130173948
42
-0.41421356237309503
10
5.1562483999992867
20
-131.55841130173948
10
5.1562483999992983
20
-118.55841130173948
42
-0.41421356237309503
10
5.6562483999992867
20
-118.05841130173948
0
LWPOLYLINE
5
113
100
AcDbEntity
8
0
100
AcDbPolyline
90
8
70
1
43
0.0
10
40.087498399999291
20
-132.05841130173948
10
27.087498399999284
20
-132.05841130173948
42
-0.41421356237309503
10
26.587498399999284
20
-131.55841130173948
10
26.587498399999294
20
-118.55841130173948
42
-0.41421356237309503
10
27.087498399999284
20
-118.05841130173948
10
40.087498399999291
20
-118.05841130173948
42
-0.41421356237309503
10
40.587498399999291
20
-118.55841130173948
10
40.587498399999298
20
-131.55841130173948
42
-0.41421356237309503
0
LWPOLYLINE
5
114
100
AcDbEntity
8
0
100
AcDbPolyline
90
8
70
1
43
0.0
10
59.637498399999281
20
-131.55841130173948
42
-0.41421356237309503
10
59.137498399999295
20
-132.05841130173948
10
46.137498399999288
20
-132.05841130173948
42
-0.41421356237309503
10
45.637498399999288
20
-131.55841130173948
10
45.637498399999295
20
-118.55841130173948
42
-0.41421356237309503
10
46.137498399999288
20
-118.05841130173948
10
59.137498399999295
20
-118.05841130173948
42
-0.41421356237309503
10
59.637498399999288
20
-118.55841130173948
0
LWPOLYLINE
5
115
100
AcDbEntity
8
0
100
AcDbPolyline
90
8
70
1
43
0.0
10
141.38749839999929
20
-132.05841130173948
42
-0.41421356237309503
10
140.88749839999929
20
-131.55841130173948
10
140.88749839999929
20
-118.55841130173948
42
-0.41421356237309503
10
141.38749839999929
20
-118.05841130173948
10
154.38749839999929
20
-118.05841130173947
42
-0.41421356237309503
10
154.88749839999929
20
-118.55841130173948
10
154.88749839999929
20
-131.55841130173948
42
-0.41421356237309503
10
154.38749839999929
20
-132.05841130173948
0
LWPOLYLINE
5
116
100
AcDbEntity
8
0
100
AcDbPolyline
90
8
70
1
43
0.0
10
78.187498399999285
20
-118.05841130173948
42
-0.41421356237309503
10
78.687498399999285
20
-118.55841130173948
10
78.687498399999271
20
-131.55841130173948
42
-0.41421356237309503
10
78.187498399999285
20
-132.05841130173948
10
65.187498399999285
20
-132.05841130173948
42
-0.41421356237309503
10
64.687498399999285
20
-131.55841130173948
10
64.687498399999299
20
-118.55841130173948
42
-0.41421356237309503
10
65.187498399999285
20
-118.05841130173948
0
LWPOLYLINE
5
117
100
AcDbEntity
8
0
100
AcDbPolyline
90
8
70
1
43
0.0
10
103.28749839999929
20
-118.05841130173948
10
116.28749839999928
20
-118.05841130173947
42
-0.41421356237309503
10
116.78749839999929
20
-118.55841130173948
10
116.78749839999929
20
-131.55841130173948
42
-0.41421356237309503
10
116.28749839999928
20
-132.05841130173948
10
103.28749839999929
20
-132.05841130173948
42
-0.41421356237309503
10
102.78749839999929
20
-131.55841130173948
10
102.78749839999931
20
-118.55841130173948
42
-0.41421356237309503
0
LWPOLYLINE
5
118
100
AcDbEntity
8
0
100
AcDbPolyline
90
8
70
1
43
0.0
10
160.4374983999993
20
-118.05841130173948
10
173.4374983999993
20
-118.05841130173947
42
-0.41421356237309503
10
173.9374983999993
20
-118.55841130173948
10
173.9374983999993
20
-131.55841130173948
42
-0.41421356237309503
10
173.4374983999993
20
-132.05841130173948
10
160.4374983999993
20
-132.05841130173948
42
-0.41421356237309503
10
159.9374983999993
20
-131.55841130173948
10
159.9374983999993
20
-118.55841130173948
42
-0.41421356237309503
0
LWPOLYLINE
5
119
100
AcDbEntity
8
0
100
AcDbPolyline
90
8
70
1
43
0.0
10
97.237498399999282
20
-118.05841130173947
42
-0.41421356237309503
10
97.737498399999296
20
-118.55841130173948
10
97.737498399999296
20
-131.55841130173948
42
-0.41421356237309503
10
97.237498399999282
20
-132.05841130173948
10
84.237498399999282
20
-132.05841130173948
42
-0.41421356237309503
10
83.737498399999296
20
-131.55841130173948
10
83.737498399999296
20
-118.55841130173948
42
-0.41421356237309503
10
84.237498399999282
20
-118.05841130173948
0
LWPOLYLINE
5
120
100
AcDbEntity
8
0
100
AcDbPolyline
90
8
70
1
43
0.0
10
179.48749839999931
20
-132.05841130173948
42
-0.41421356237309503
10
178.98749839999931
20
-131.55841130173948
10
178.98749839999931
20
-118.55841130173948
42
-0.41421356237309503
10
179.48749839999931
20
-118.05841130173948
10
192.48749839999931
20
-118.05841130173947
42
-0.41421356237309503
10
192.98749839999931
20
-118.55841130173948
10
192.98749839999928
20
-131.55841130173948
42
-0.41421356237309503
10
192.48749839999931
20
-132.05841130173948
0
LWPOLYLINE
5
121
100
AcDbEntity
8
0
100
AcDbPolyline
90
8
70
1
43
0.0
10
211.53749839999929
20
-118.05841130173947
42
-0.41421356237309503
10
212.03749839999929
20
-118.55841130173948
10
212.03749839999929
20
-131.55841130173948
42
-0.41421356237309503
10
211.53749839999929
20
-132.05841130173948
10
198.53749839999927
20
-132.05841130173948
42
-0.41421356237309503
10
198.03749839999927
20
-131.55841130173948
10
198.03749839999932
20
-118.55841130173948
42
-0.41421356237309503
10
198.53749839999927
20
-118.05841130173948
0
LWPOLYLINE
5
122
100
AcDbEntity
8
0
100
AcDbPolyline
90
8
70
1
43
0.0
10
135.83749839999928
20
-131.55841130173948
42
-0.41421356237309503
10
135.3374983999993
20
-132.05841130173948
10
122.3374983999993
20
-132.05841130173948
42
-0.41421356237309503
10
121.8374983999993
20
-131.55841130173948
10
121.83749839999932
20
-118.55841130173948
42
-0.41421356237309503
10
122.3374983999993
20
-118.05841130173948
10
135.3374983999993
20
-118.05841130173947
42
-0.41421356237309503
10
135.8374983999993
20
-118.55841130173948
0
LWPOLYLINE
5
123
100
AcDbEntity
8
0
100
AcDbPolyline
90
8
70
1
43
0.0
10
69.162498399999279
20
-137.60841130173947
10
69.162498399999293
20
-150.60841130173947
42
-0.41421356237309503
10
68.662498399999279
20
-151.10841130173949
10
55.662498399999293
20
-151.10841130173949
42
-0.41421356237309503
10
55.162498399999293
20
-150.60841130173947
10
55.162498399999301
20
-137.60841130173947
42
-0.41421356237309503
10
55.662498399999293
20
-137.10841130173949
10
68.662498399999279
20
-137.10841130173947
42
-0.41421356237309503
0
LWPOLYLINE
5
124
100
AcDbEntity
8
0
100
AcDbPolyline
90
8
70
1
43
0.0
10
221.84999839999932
20
-118.55841130173948
42
-0.41421356237309503
10
222.34999839999929
20
-118.05841130173948
10
235.34999839999929
20
-118.05841130173947
42
-0.41421356237309503
10
235.84999839999932
20
-118.55841130173948
10
235.84999839999932
20
-131.55841130173948
42
-0.41421356237309503
10
235.34999839999929
20
-132.05841130173948
10
222.34999839999929
20
-132.05841130173948
42
-0.41421356237309503
10
221.84999839999929
20
-131.55841130173948
0
LWPOLYLINE
5
125
100
AcDbEntity
8
0
100
AcDbPolyline
90
8
70
1
43
0.0
10
88.212498399999305
20
-150.60841130173947
42
-0.41421356237309503
10
87.712498399999305
20
-151.10841130173949
10
74.712498399999291
20
-151.10841130173949
42
-0.41421356237309503
10
74.212498399999291
20
-150.60841130173947
10
74.212498399999305
20
-137.60841130173947
42
-0.41421356237309503
10
74.712498399999291
20
-137.10841130173949
10
87.712498399999305
20
-137.10841130173947
42
-0.41421356237309503
10
88.212498399999305
20
-137.60841130173947
0
LWPOLYLINE
5
126
100
AcDbEntity
8
0
100
AcDbPolyline
90
8
70
1
43
0.0
10
23.918748399999291
20
-150.60841130173947
42
-0.41421356237309503
10
23.418748399999284
20
-151.10841130173949
10
10.418748399999288
20
-151.10841130173949
42
-0.41421356237309503
10
9.918748399999286
20
-150.60841130173947
10
9.9187483999992985
20
-137.60841130173947
42
-0.41421356237309503
10
10.418748399999288
20
-137.10841130173949
10
23.418748399999284
20
-137.10841130173947
42
-0.41421356237309503
10
23.918748399999284
20
-137.60841130173947
0
LWPOLYLINE
5
127
100
AcDbEntity
8
0
100
AcDbPolyline
90
8
70
1
43
0.0
10
36.612498399999282
20
-151.10841130173949
42
-0.41421356237309503
10
36.112498399999289
20
-150.60841130173947
10
36.112498399999296
20
-137.60841130173947
42
-0.41421356237309503
10
36.612498399999282
20
-137.10841130173949
10
49.612498399999289
20
-137.10841130173947
42
-0.41421356237309503
10
50.112498399999282
20
-137.60841130173947
10
50.112498399999296
20
-150.60841130173947
42
-0.41421356237309503
10
49.612498399999289
20
-151.10841130173949
0
LWPOLYLINE
5
128
100
AcDbEntity
8
0
100
AcDbPolyline
90
8
70
1
43
0.0
10
93.762498399999288
20
-151.10841130173949
42
-0.41421356237309503
10
93.262498399999288
20
-150.60841130173947
10
93.262498399999302
20
-137.60841130173947
42
-0.41421356237309503
10
93.762498399999288
20
-137.10841130173949
10
106.76249839999929
20
-137.10841130173947
42
-0.41421356237309503
10
107.2624983999993
20
-137.60841130173947
10
107.2624983999993
20
-150.60841130173947
42
-0.41421356237309503
10
106.76249839999929
20
-151.10841130173949
0
LWPOLYLINE
5
129
100
AcDbEntity
8
0
100
AcDbPolyline
90
8
70
1
43
0.0
10
112.8124983999993
20
-151.10841130173949
42
-0.41421356237309503
10
112.3124983999993
20
-150.60841130173947
10
112.31249839999931
20
-137.60841130173947
42
-0.41421356237309503
10
112.8124983999993
20
-137.10841130173949
10
125.81249839999928
20
-137.10841130173947
42
-0.41421356237309503
10
126.3124983999993
20
-137.60841130173947
10
126.3124983999993
20
-150.60841130173947
42
-0.41421356237309503
10
125.81249839999928
20
-151.10841130173949
0
LWPOLYLINE
5
130
100
AcDbEntity
8
0
100
AcDbPolyline
90
8
70
1
43
0.0
10
131.86249839999931
20
-151.10841130173949
42
-0.41421356237309503
10
131.36249839999931
20
-150.60841130173947
10
131.36249839999931
20
-137.60841130173947
42
-0.41421356237309503
10
131.86249839999931
20
-137.10841130173949
10
144.86249839999931
20
-137.10841130173947
42
-0.41421356237309503
10
145.36249839999931
20
-137.60841130173947
10
145.36249839999931
20
-150.60841130173947
42
-0.41421356237309503
10
144.86249839999931
20
-151.10841130173949
0
LWPOLYLINE
5
131
100
AcDbEntity
8
0
100
AcDbPolyline
90
8
70
1
43
0.0
10
164.41249839999929
20
-137.60841130173947
10
164.41249839999929
20
-150.60841130173947
42
-0.41421356237309503
10
163.91249839999929
20
-151.10841130173949
10
150.91249839999929
20
-151.10841130173949
42
-0.41421356237309503
10
150.41249839999927
20
-150.60841130173947
10
150.41249839999929
20
-137.60841130173947
42
-0.41421356237309503
10
150.91249839999929
20
-137.10841130173949
10
163.91249839999929
20
-137.10841130173947
42
-0.41421356237309503
0
LWPOLYLINE
5
132
100
AcDbEntity
8
0
100
AcDbPolyline
90
8
70
1
43
0.0
10
183.4624983999993
20
-150.60841130173947
42
-0.41421356237309503
10
182.9624983999993
20
-151.10841130173949
10
169.9624983999993
20
-151.10841130173949
42
-0.41421356237309503
10
169.46249839999928
20
-150.60841130173947
10
169.46249839999928
20
-137.60841130173947
42
-0.41421356237309503
10
169.9624983999993
20
-137.10841130173949
10
182.9624983999993
20
-137.10841130173947
42
-0.41421356237309503
10
183.4624983999993
20
-137.60841130173947
0
LWPOLYLINE
5
133
100
AcDbEntity
8
0
100
AcDbPolyline
90
8
70
1
43
0.0
10
202.01249839999929
20
-151.10841130173949
10
189.01249839999929
20
-151.10841130173949
42
-0.41421356237309503
10
188.51249839999926
20
-150.60841130173947
10
188.51249839999929
20
-137.60841130173947
42
-0.41421356237309503
10
189.01249839999929
20
-137.10841130173949
10
202.01249839999929
20
-137.10841130173947
42
-0.41421356237309503
10
202.51249839999929
20
-137.60841130173947
10
202.51249839999929
20
-150.60841130173947
42
-0.41421356237309503
0
LWPOLYLINE
5
134
100
AcDbEntity
8
0
100
AcDbPolyline
90
8
70
1
43
0.0
10
240.11249839999931
20
-137.10841130173947
42
-0.41421356237309503
10
240.61249839999931
20
-137.60841130173947
10
240.61249839999931
20
-150.60841130173947
42
-0.41421356237309503
10
240.11249839999931
20
-151.10841130173949
10
227.11249839999931
20
-151.10841130173947
42
-0.41421356237309503
10
226.61249839999931
20
-150.60841130173947
10
226.61249839999931
20
-137.60841130173947
42
-0.41421356237309503
10
227.11249839999931
20
-137.10841130173949
0
LWPOLYLINE
5
135
100
AcDbEntity
8
0
100
AcDbPolyline
90
8
70
1
43
0.0
10
8.0374983999992882
20
-170.15841130173951
42
-0.41421356237309503
10
7.5374983999992873
20
-169.65841130173948
10
7.5374983999992811
20
-156.65841130173948
42
-0.41421356237309503
10
8.0374983999992882
20
-156.15841130173948
10
21.037498399999286
20
-156.15841130173948
42
-0.41421356237309503
10
21.537498399999286
20
-156.65841130173948
10
21.537498399999258
20
-169.65841130173948
42
-0.41421356237309503
10
21.037498399999286
20
-170.15841130173948
0
LWPOLYLINE
5
136
100
AcDbEntity
8
0
100
AcDbPolyline
90
8
70
1
43
0.0
10
47.231248399999288
20
-170.15841130173948
10
34.231248399999288
20
-170.15841130173951
42
-0.41421356237309503
10
33.731248399999288
20
-169.65841130173948
10
33.731248399999281
20
-156.65841130173948
42
-0.41421356237309503
10
34.231248399999288
20
-156.15841130173948
10
47.231248399999288
20
-156.15841130173948
42
-0.41421356237309503
10
47.731248399999295
20
-156.65841130173948
10
47.731248399999259
20
-169.65841130173948
42
-0.41421356237309503
0
LWPOLYLINE
5
137
100
AcDbEntity
8
0
100
AcDbPolyline
90
8
70
1
43
0.0
10
221.0624983999993
20
-151.10841130173949
10
208.0624983999993
20
-151.10841130173947
42
-0.41421356237309503
10
207.5624983999993
20
-150.60841130173947
10
207.5624983999993
20
-137.60841130173947
42
-0.41421356237309503
10
208.0624983999993
20
-137.10841130173949
10
221.0624983999993
20
-137.10841130173947
42
-0.41421356237309503
10
221.5624983999993
20
-137.60841130173947
10
221.5624983999993
20
-150.60841130173947
42
-0.41421356237309503
0
LWPOLYLINE
5
138
100
AcDbEntity
8
0
100
AcDbPolyline
90
8
70
1
43
0.0
10
74.712498399999291
20
-170.15841130173951
42
-0.41421356237309503
10
74.212498399999291
20
-169.65841130173948
10
74.212498399999291
20
-156.65841130173948
42
-0.41421356237309503
10
74.712498399999291
20
-156.15841130173948
10
87.712498399999305
20
-156.15841130173948
42
-0.41421356237309503
10
88.212498399999305
20
-156.65841130173948
10
88.212498399999276
20
-169.65841130173948
42
-0.41421356237309503
10
87.712498399999305
20
-170.15841130173948
0
LWPOLYLINE
5
139
100
AcDbEntity
8
0
100
AcDbPolyline
90
8
70
1
43
0.0
10
126.3124983999993
20
-156.65841130173948
10
126.31249839999926
20
-169.65841130173948
42
-0.41421356237309503
10
125.81249839999928
20
-170.15841130173948
10
112.8124983999993
20
-170.15841130173951
42
-0.41421356237309503
10
112.3124983999993
20
-169.65841130173948
10
112.3124983999993
20
-156.65841130173948
42
-0.41421356237309503
10
112.8124983999993
20
-156.15841130173948
10
125.81249839999928
20
-156.15841130173948
42
-0.41421356237309503
0
LWPOLYLINE
5
140
100
AcDbEntity
8
0
100
AcDbPolyline
90
8
70
1
43
0.0
10
164.41249839999929
20
-156.65841130173948
10
164.41249839999927
20
-169.65841130173948
42
-0.41421356237309503
10
163.91249839999929
20
-170.15841130173948
10
150.91249839999929
20
-170.15841130173951
42
-0.41421356237309503
10
150.41249839999927
20
-169.65841130173948
10
150.41249839999927
20
-156.65841130173948
42
-0.41421356237309503
10
150.91249839999929
20
-156.15841130173948
10
163.91249839999929
20
-156.15841130173948
42
-0.41421356237309503
0
LWPOLYLINE
5
141
100
AcDbEntity
8
0
100
AcDbPolyline
90
8
70
1
43
0.0
10
172.46249839999933
20
-155.65841130173948
42
-0.41421356237309503
10
172.9624983999993
20
-155.15841130173951
10
179.9624983999993
20
-155.15841130173948
42
-0.41421356237309503
10
180.4624983999993
20
-155.65841130173948
10
180.46249839999928
20
-169.65841130173948
42
-0.41421356237309503
10
179.9624983999993
20
-170.15841130173948
10
172.9624983999993
20
-170.15841130173951
42
-0.41421356237309503
10
172.4624983999993
20
-169.65841130173948
0
LWPOLYLINE
5
142
100
AcDbEntity
8
0
100
AcDbPolyline
90
8
70
1
43
0.0
10
58.662498399999293
20
-155.15841130173948
10
65.662498399999279
20
-155.15841130173951
42
-0.41421356237309503
10
66.162498399999279
20
-155.65841130173948
10
66.162498399999251
20
-169.65841130173948
42
-0.41421356237309503
10
65.662498399999279
20
-170.15841130173948
10
58.662498399999293
20
-170.15841130173951
42
-0.41421356237309503
10
58.162498399999293
20
-169.65841130173948
10
58.162498399999279
20
-155.65841130173948
42
-0.41421356237309503
0
ARC
5
143
100
AcDbEntity
8
0
100
AcDbCircle
10
172.9624983999993
20
-155.65841130173948
30
0
40
0.49999999999998934
210
0
220
-0
230
1
100
AcDbArc
50
90
51
180
0
LWPOLYLINE
5
144
100
AcDbEntity
8
0
100
AcDbPolyline
90
8
70
1
43
0.0
10
96.262498399999288
20
-169.65841130173948
10
96.262498399999288
20
-155.65841130173948
42
-0.41421356237309503
10
96.762498399999288
20
-155.15841130173948
10
103.7624983999993
20
-155.15841130173948
42
-0.41421356237309503
10
104.26249839999932
20
-155.65841130173948
10
104.26249839999927
20
-169.65841130173948
42
-0.41421356237309503
10
103.7624983999993
20
-170.15841130173948
10
96.762498399999288
20
-170.15841130173951
42
-0.41421356237309503
0
LINE
5
145
100
AcDbEntity
8
0
100
AcDbLine
10
125.81249839999928
20
-156.15841130173948
30
0
11
112.8124983999993
21
-156.15841130173948
31
0
0
LINE
5
146
100
AcDbEntity
8
0
100
AcDbLine
10
65.662498399999279
20
-155.15841130173948
30
0
11
58.662498399999293
21
-155.15841130173948
31
0
0
ARC
5
147
100
AcDbEntity
8
0
100
AcDbCircle
10
65.662498399999279
20
-169.65841130173948
30
0
40
0.49999999999997158
210
0
220
0
230
1
100
AcDbArc
50
-90
51
0
0
LINE
5
148
100
AcDbEntity
8
0
100
AcDbLine
10
58.162498399999293
20
-155.65841130173948
30
0
11
58.162498399999293
21
-169.65841130173948
31
0
0
LINE
5
149
100
AcDbEntity
8
0
100
AcDbLine
10
66.162498399999279
20
-169.65841130173948
30
0
11
66.162498399999279
21
-155.65841130173948
31
0
0
ARC
5
150
100
AcDbEntity
8
0
100
AcDbCircle
10
112.8124983999993
20
-156.65841130173948
30
0
40
0.50000000000000711
210
0
220
-0
230
1
100
AcDbArc
50
90
51
180
0
LINE
5
151
100
AcDbEntity
8
0
100
AcDbLine
10
126.3124983999993
20
-169.65841130173948
30
0
11
126.3124983999993
21
-156.65841130173948
31
0
0
LINE
5
152
100
AcDbEntity
8
0
100
AcDbLine
10
112.3124983999993
20
-156.65841130173948
30
0
11
112.3124983999993
21
-169.65841130173948
31
0
0
ARC
5
153
100
AcDbEntity
8
0
100
AcDbCircle
10
58.662498399999293
20
-169.65841130173948
30
0
40
0.49999999999999822
210
0
220
0
230
1
100
AcDbArc
50
180
51
270
0
LINE
5
154
100
AcDbEntity
8
0
100
AcDbLine
10
179.9624983999993
20
-155.15841130173948
30
0
11
172.9624983999993
21
-155.15841130173951
31
0
0
ARC
5
155
100
AcDbEntity
8
0
100
AcDbCircle
10
112.8124983999993
20
-169.65841130173948
30
0
40
0.50000000000000711
210
0
220
0
230
1
100
AcDbArc
50
180
51
270
0
ARC
5
156
100
AcDbEntity
8
0
100
AcDbCircle
10
65.662498399999279
20
-155.65841130173948
30
0
40
0.49999999999999822
210
0
220
0
230
1
100
AcDbArc
50
0
51
90
0
ARC
5
157
100
AcDbEntity
8
0
100
AcDbCircle
10
125.81249839999928
20
-156.65841130173948
30
0
40
0.50000000000000711
210
0
220
0
230
1
100
AcDbArc
50
0
51
90
0
LINE
5
158
100
AcDbEntity
8
0
100
AcDbLine
10
112.8124983999993
20
-170.15841130173948
30
0
11
125.81249839999928
21
-170.15841130173948
31
0
0
ARC
5
159
100
AcDbEntity
8
0
100
AcDbCircle
10
58.662498399999293
20
-155.65841130173948
30
0
40
0.50000000000000711
210
0
220
-0
230
1
100
AcDbArc
50
90
51
180
0
ARC
5
160
100
AcDbEntity
8
0
100
AcDbCircle
10
172.9624983999993
20
-169.65841130173948
30
0
40
0.50000000000000711
210
0
220
0
230
1
100
AcDbArc
50
180
51
270
0
ARC
5
161
100
AcDbEntity
8
0
100
AcDbCircle
10
179.9624983999993
20
-169.65841130173948
30
0
40
0.49999999999997158
210
0
220
0
230
1
100
AcDbArc
50
-90
51
0
0
ARC
5
162
100
AcDbEntity
8
0
100
AcDbCircle
10
179.9624983999993
20
-155.65841130173948
30
0
40
0.50000000000000711
210
0
220
0
230
1
100
AcDbArc
50
0
51
90
0
LINE
5
163
100
AcDbEntity
8
0
100
AcDbLine
10
58.662498399999293
20
-170.15841130173948
30
0
11
65.662498399999279
21
-170.15841130173948
31
0
0
ARC
5
164
100
AcDbEntity
8
0
100
AcDbCircle
10
125.81249839999928
20
-169.65841130173948
30
0
40
0.49999999999997158
210
0
220
0
230
1
100
AcDbArc
50
-90
51
0
0
LWPOLYLINE
5
165
100
AcDbEntity
8
0
100
AcDbPolyline
90
8
70
1
43
0.0
10
188.51249839999926
20
-169.65841130173948
10
188.51249839999926
20
-156.65841130173948
42
-0.41421356237309503
10
189.01249839999929
20
-156.15841130173948
10
202.01249839999929
20
-156.15841130173948
42
-0.41421356237309503
10
202.51249839999929
20
-156.65841130173948
10
202.51249839999926
20
-169.65841130173948
42
-0.41421356237309503
10
202.01249839999929
20
-170.15841130173948
10
189.01249839999929
20
-170.15841130173951
42
-0.41421356237309503
0
LWPOLYLINE
5
166
100
AcDbEntity
8
0
100
AcDbPolyline
90
8
70
1
43
0.0
10
207.5624983999993
20
-169.65841130173948
10
207.56249839999927
20
-156.65841130173948
42
-0.41421356237309503
10
208.0624983999993
20
-156.15841130173948
10
221.0624983999993
20
-156.15841130173948
42
-0.41421356237309503
10
221.5624983999993
20
-156.65841130173948
10
221.56249839999927
20
-169.65841130173948
42
-0.41421356237309503
10
221.0624983999993
20
-170.15841130173948
10
208.0624983999993
20
-170.15841130173948
42
-0.41421356237309503
0
LWPOLYLINE
5
167
100
AcDbEntity
8
0
100
AcDbPolyline
90
8
70
1
43
0.0
10
134.36249839999931
20
-155.65841130173948
42
-0.41421356237309503
10
134.86249839999931
20
-155.15841130173951
10
141.86249839999931
20
-155.15841130173948
42
-0.41421356237309503
10
142.36249839999931
20
-155.65841130173948
10
142.36249839999928
20
-169.65841130173948
42
-0.41421356237309503
10
141.86249839999931
20
-170.15841130173948
10
134.86249839999931
20
-170.15841130173951
42
-0.41421356237309503
10
134.36249839999928
20
-169.65841130173948
0
LINE
5
168
100
AcDbEntity
8
0
100
AcDbLine
10
172.9624983999993
20
-170.15841130173948
30
0
11
179.9624983999993
21
-170.15841130173948
31
0
0
LWPOLYLINE
5
169
100
AcDbEntity
8
0
100
AcDbPolyline
90
8
70
1
43
0.0
10
226.61249839999928
20
-156.65841130173948
42
-0.41421356237309503
10
227.11249839999931
20
-156.15841130173948
10
240.11249839999931
20
-156.15841130173948
42
-0.41421356237309503
10
240.61249839999931
20
-156.65841130173948
10
240.61249839999928
20
-169.65841130173948
42
-0.41421356237309503
10
240.11249839999931
20
-170.15841130173948
10
227.11249839999931
20
-170.15841130173948
42
-0.41421356237309503
10
226.61249839999931
20
-169.65841130173948
0
LINE
5
170
100
AcDbEntity
8
0
100
AcDbLine
10
172.4624983999993
20
-155.65841130173948
30
0
11
172.4624983999993
21
-169.65841130173948
31
0
0
LINE
5
171
100
AcDbEntity
8
0
100
AcDbLine
10
180.4624983999993
20
-169.65841130173948
30
0
11
180.4624983999993
21
-155.65841130173948
31
0
0
LWPOLYLINE
5
172
100
AcDbEntity
8
0
100
AcDbPolyline
90
8
70
1
43
0.0
10
243.38729339999901
20
-169.68381230174123
10
243.38729339999952
20
-99.483911301741173
42
0.41421356237308982
10
240.38729339999952
20
-96.483911301741117
10
2.9999999999992544
20
-96.483911301739425
42
0.41421356237309431
10
-7.8084897637829158e-13
20
-99.48391130173944
10
-1.2678746941219288e-12
20
-169.68381230173952
42
0.41421356237309198
10
2.9999999999987637
20
-172.68381230173955
10
240.38729339999901
20
-172.68381230174117
42
0.41421356237309853
0
CIRCLE
5
173
100
AcDbEntity
8
0
100
AcDbCircle
10
19.299694028557678
20
-106.00876130173957
30
0
40
0.75000001117587178
210
0
220
0
230
1
0
CIRCLE
5
174
100
AcDbEntity
8
0
100
AcDbCircle
10
38.349693876519218
20
-106.0087613017397
30
0
40
0.74999999999999822
210
0
220
0
230
1
0
CIRCLE
5
175
100
AcDbEntity
8
0
100
AcDbCircle
10
57.39969325529988
20
-106.00876130173984
30
0
40
0.75000000000000278
210
0
220
0
230
1
0
CIRCLE
5
176
100
AcDbEntity
8
0
100
AcDbCircle
10
31.649999999999139
20
-115.53391130173966
30
0
40
2.4999999999999996
210
0
220
0
230
1
0
CIRCLE
5
177
100
AcDbEntity
8
0
100
AcDbCircle
10
30.099999999998886
20
-150.28381230173972
30
0
40
2.5000000000000027
210
0
220
0
230
1
0
CIRCLE
5
178
100
AcDbEntity
8
0
100
AcDbCircle
10
107.84999999999923
20
-115.53391130174022
30
0
40
2.5000000000000084
210
0
220
0
230
1
0
CIRCLE
5
179
100
AcDbEntity
8
0
100
AcDbCircle
10
138.33729339999917
20
-134.63391130174045
30
0
40
2.5000000000000089
210
0
220
0
230
1
0
CIRCLE
5
180
100
AcDbEntity
8
0
100
AcDbCircle
10
182.58729339999906
20
-162.0338123017408
30
0
40
2.5000000000000027
210
0
220
0
230
1
0
CIRCLE
5
181
100
AcDbEntity
8
0
100
AcDbCircle
10
210.88729339999941
20
-113.23391130174093
30
0
40
2.5000000000000027
210
0
220
0
230
1
0
ENDSEC
0
SECTION
2
OBJECTS
0
DICTIONARY
5
C
100
AcDbDictionary
3
ACAD_GROUP
350
D
3
ACAD_MLINESTYLE
350
17
0
DICTIONARY
5
D
100
AcDbDictionary
0
DICTIONARY
5
1A
330
C
100
AcDbDictionary
0
DICTIONARY
5
17
100
AcDbDictionary
0
ENDSEC
0
EOF
