0
SECTION
2
HEADER
9
$INSUNITS
70
4
9
$ACADVER
1
AC1014
9
$HANDSEED
5
FFFF
0
ENDSEC
0
SECTION
2
TABLES
0
TABLE
2
VPORT
5
8
100
AcDbSymbolTable
0
ENDTAB
0
TABLE
2
LTYPE
5
5
100
AcDbSymbolTable
0
LTYPE
5
14
100
AcDbSymbolTableRecord
100
AcDbLinetypeTableRecord
2
BYBLOCK
70
0
0
LTYPE
5
15
100
AcDbSymbolTableRecord
100
AcDbLinetypeTableRecord
2
BYLAYER
70
0
0
ENDTAB
0
TABLE
2
LAYER
5
2
100
AcDbSymbolTable
70
2
0
LAYER
5
50
100
AcDbSymbolTableRecord
100
AcDbLayerTableRecord
2
0
70
0
6
CONTINUOUS
0
ENDTAB
0
TABLE
2
STYLE
5
3
100
AcDbSymbolTable
70
1
0
STYLE
5
11
100
AcDbSymbolTableRecord
100
AcDbTextStyleTableRecord
2
STANDARD
70
0
0
ENDTAB
0
TABLE
2
VIEW
5
6
100
AcDbSymbolTable
70
0
0
ENDTAB
0
TABLE
2
UCS
5
7
100
AcDbSymbolTable
70
0
0
ENDTAB
0
TABLE
2
APPID
5
9
100
AcDbSymbolTable
70
2
0
APPID
5
12
100
AcDbSymbolTableRecord
100
AcDbRegAppTableRecord
2
ACAD
70
0
0
ENDTAB
0
TABLE
2
DIMSTYLE
5
A
100
AcDbSymbolTable
70
1
0
ENDTAB
0
TABLE
2
BLOCK_RECORD
5
1
100
AcDbSymbolTable
70
1
0
BLOCK_RECORD
5
1F
100
AcDbSymbolTableRecord
100
AcDbBlockTableRecord
2
*MODEL_SPACE
0
BLOCK_RECORD
5
1B
100
AcDbSymbolTableRecord
100
AcDbBlockTableRecord
2
*PAPER_SPACE
0
ENDTAB
0
ENDSEC
0
SECTION
2
BLOCKS
0
BLOCK
5
20
100
AcDbEntity
100
AcDbBlockBegin
2
*MODEL_SPACE
0
ENDBLK
5
21
100
AcDbEntity
100
AcDbBlockEnd
0
BLOCK
5
1C
100
AcDbEntity
100
AcDbBlockBegin
2
*PAPER_SPACE
0
ENDBLK
5
1D
100
AcDbEntity
100
AcDbBlockEnd
0
ENDSEC
0
SECTION
2
ENTITIES
0
LWPOLYLINE
5
100
100
AcDbEntity
8
0
100
AcDbPolyline
90
8
70
1
43
0.0
10
109.44529763395023
20
-302.68180755479557
42
-0.41421356237309503
10
108.69529763395023
20
-301.93180755479557
10
108.6952976339502
20
-289.43180755479557
42
-0.41421356237309503
10
109.44529763395023
20
-288.68180755479557
10
121.94529763395023
20
-288.68180755479563
42
-0.41421356237309503
10
122.69529763395022
20
-289.43180755479557
10
122.69529763395019
20
-301.93180755479557
42
-0.41421356237309503
10
121.94529763395023
20
-302.68180755479557
0
LWPOLYLINE
5
101
100
AcDbEntity
8
0
100
AcDbPolyline
90
8
70
1
43
0.0
10
127.69529763395022
20
-301.93180755479557
10
127.6952976339502
20
-289.43180755479557
42
-0.41421356237309503
10
128.44529763395025
20
-288.68180755479557
10
140.94529763395025
20
-288.68180755479563
42
-0.41421356237309503
10
141.69529763395022
20
-289.43180755479557
10
141.69529763395019
20
-301.93180755479557
42
-0.41421356237309503
10
140.94529763395025
20
-302.68180755479557
10
128.44529763395025
20
-302.68180755479563
42
-0.41421356237309503
0
LWPOLYLINE
5
102
100
AcDbEntity
8
0
100
AcDbPolyline
90
8
70
1
43
0.0
10
27.695297633950176
20
-301.93180755479557
42
-0.41421356237309503
10
26.945297633950219
20
-302.68180755479557
10
14.445297633950219
20
-302.68180755479557
42
-0.41421356237309503
10
13.695297633950219
20
-301.93180755479557
10
13.69529763395019
20
-289.43180755479557
42
-0.41421356237309503
10
14.445297633950219
20
-288.68180755479557
10
26.945297633950219
20
-288.68180755479563
42
-0.41421356237309503
10
27.695297633950222
20
-289.43180755479557
0
LWPOLYLINE
5
103
100
AcDbEntity
8
0
100
AcDbPolyline
90
8
70
1
43
0.0
10
64.945297633950219
20
-288.68180755479563
42
-0.41421356237309503
10
65.695297633950219
20
-289.43180755479557
10
65.695297633950176
20
-301.93180755479557
42
-0.41421356237309503
10
64.945297633950219
20
-302.68180755479557
10
52.445297633950219
20
-302.68180755479557
42
-0.41421356237309503
10
51.695297633950219
20
-301.93180755479557
10
51.69529763395019
20
-289.43180755479557
42
-0.41421356237309503
10
52.445297633950219
20
-288.68180755479557
0
LWPOLYLINE
5
104
100
AcDbEntity
8
0
100
AcDbPolyline
90
8
70
1
43
0.0
10
102.94529763395022
20
-288.68180755479563
42
-0.41421356237309503
10
103.69529763395022
20
-289.43180755479557
10
103.69529763395019
20
-301.93180755479557
42
-0.41421356237309503
10
102.94529763395022
20
-302.68180755479557
10
90.445297633950219
20
-302.68180755479557
42
-0.41421356237309503
10
89.695297633950233
20
-301.93180755479557
10
89.69529763395019
20
-289.43180755479557
42
-0.41421356237309503
10
90.445297633950219
20
-288.68180755479557
0
LWPOLYLINE
5
105
100
AcDbEntity
8
0
100
AcDbPolyline
90
8
70
1
43
0.0
10
33.445297633950219
20
-302.68180755479557
42
-0.41421356237309503
10
32.695297633950219
20
-301.93180755479557
10
32.69529763395019
20
-289.43180755479557
42
-0.41421356237309503
10
33.445297633950219
20
-288.68180755479557
10
45.945297633950219
20
-288.68180755479557
42
-0.41421356237309503
10
46.695297633950226
20
-289.43180755479557
10
46.695297633950176
20
-301.93180755479557
42
-0.41421356237309503
10
45.945297633950219
20
-302.68180755479557
0
LWPOLYLINE
5
106
100
AcDbEntity
8
0
100
AcDbPolyline
90
8
70
1
43
0.0
10
159.94529763395022
20
-288.68180755479557
10
147.44529763395022
20
-288.68180755479557
42
0.41421356237309503
10
146.69529763395022
20
-289.43180755479557
10
146.69529763395022
20
-301.93180755479557
42
0.41421356237309503
10
147.44529763395022
20
-302.68180755479557
10
159.94529763395022
20
-302.68180755479557
42
0.41421356237309503
10
160.69529763395022
20
-301.93180755479557
10
160.69529763395022
20
-289.43180755479557
42
0.41421356237309503
0
LWPOLYLINE
5
107
100
AcDbEntity
8
0
100
AcDbPolyline
90
8
70
1
43
0.0
10
84.695297633950233
20
-301.93180755479557
10
84.695297633950233
20
-289.43180755479557
42
0.41421356237309503
10
83.945297633950219
20
-288.68180755479557
10
71.445297633950219
20
-288.68180755479557
42
0.41421356237309503
10
70.695297633950219
20
-289.43180755479557
10
70.695297633950219
20
-301.93180755479557
42
0.41421356237309503
10
71.445297633950219
20
-302.68180755479557
10
83.945297633950219
20
-302.68180755479557
42
0.41421356237309503
0
LWPOLYLINE
5
108
100
AcDbEntity
8
0
100
AcDbPolyline
90
8
70
1
43
0.0
10
178.94529763395025
20
-288.68180755479563
42
-0.41421356237309503
10
179.69529763395025
20
-289.43180755479557
10
179.69529763395019
20
-301.93180755479557
42
-0.41421356237309503
10
178.94529763395025
20
-302.68180755479557
10
166.44529763395019
20
-302.68180755479557
42
-0.41421356237309503
10
165.69529763395025
20
-301.93180755479557
10
165.69529763395019
20
-289.43180755479557
42
-0.41421356237309503
10
166.44529763395019
20
-288.68180755479557
0
LWPOLYLINE
5
109
100
AcDbEntity
8
0
100
AcDbPolyline
90
8
70
1
43
0.0
10
236.69529763395022
20
-301.93180755479557
10
236.69529763395022
20
-289.43180755479557
42
0.41421356237309503
10
235.94529763395025
20
-288.68180755479557
10
223.44529763395025
20
-288.68180755479557
42
0.41421356237309503
10
222.69529763395025
20
-289.43180755479557
10
222.69529763395025
20
-301.93180755479557
42
0.41421356237309503
10
223.44529763395025
20
-302.68180755479557
10
235.94529763395025
20
-302.68180755479557
42
0.41421356237309503
0
LWPOLYLINE
5
110
100
AcDbEntity
8
0
100
AcDbPolyline
90
8
70
1
43
0.0
10
46.695297633950226
20
-320.93180755479557
10
46.695297633950226
20
-308.43180755479557
42
0.41421356237309503
10
45.945297633950219
20
-307.68180755479557
10
33.445297633950219
20
-307.68180755479557
42
0.41421356237309503
10
32.695297633950219
20
-308.43180755479557
10
32.695297633950219
20
-320.93180755479557
42
0.41421356237309503
10
33.445297633950219
20
-321.68180755479557
10
45.945297633950219
20
-321.68180755479557
42
0.41421356237309503
0
LWPOLYLINE
5
111
100
AcDbEntity
8
0
100
AcDbPolyline
90
8
70
1
43
0.0
10
216.94529763395025
20
-288.68180755479557
10
204.44529763395025
20
-288.68180755479557
42
0.41421356237309503
10
203.69529763395022
20
-289.43180755479557
10
203.69529763395022
20
-301.93180755479557
42
0.41421356237309503
10
204.44529763395025
20
-302.68180755479557
10
216.94529763395025
20
-302.68180755479557
42
0.41421356237309503
10
217.69529763395025
20
-301.93180755479557
10
217.69529763395025
20
-289.43180755479557
42
0.41421356237309503
0
LWPOLYLINE
5
112
100
AcDbEntity
8
0
100
AcDbPolyline
90
8
70
1
43
0.0
10
185.44529763395022
20
-302.68180755479557
42
-0.41421356237309503
10
184.69529763395025
20
-301.93180755479557
10
184.69529763395019
20
-289.43180755479557
42
-0.41421356237309503
10
185.44529763395022
20
-288.68180755479557
10
197.94529763395022
20
-288.68180755479563
42
-0.41421356237309503
10
198.69529763395022
20
-289.43180755479557
10
198.69529763395019
20
-301.93180755479557
42
-0.41421356237309503
10
197.94529763395022
20
-302.68180755479557
0
LWPOLYLINE
5
113
100
AcDbEntity
8
0
100
AcDbPolyline
90
8
70
1
43
0.0
10
26.945297633950219
20
-307.68180755479557
10
14.445297633950219
20
-307.68180755479557
42
0.41421356237309503
10
13.695297633950219
20
-308.43180755479557
10
13.695297633950219
20
-320.93180755479557
42
0.41421356237309503
10
14.445297633950219
20
-321.68180755479557
10
26.945297633950219
20
-321.68180755479557
42
0.41421356237309503
10
27.695297633950222
20
-320.93180755479557
10
27.695297633950222
20
-308.43180755479557
42
0.41421356237309503
0
LWPOLYLINE
5
114
100
AcDbEntity
8
0
100
AcDbPolyline
90
8
70
1
43
0.0
10
65.695297633950176
20
-320.93180755479557
42
-0.41421356237309503
10
64.945297633950219
20
-321.68180755479557
10
52.445297633950219
20
-321.68180755479563
42
-0.41421356237309503
10
51.695297633950219
20
-320.93180755479557
10
51.69529763395019
20
-308.43180755479557
42
-0.41421356237309503
10
52.445297633950219
20
-307.68180755479557
10
64.945297633950219
20
-307.68180755479557
42
-0.41421356237309503
10
65.695297633950219
20
-308.43180755479557
0
LWPOLYLINE
5
115
100
AcDbEntity
8
0
100
AcDbPolyline
90
8
70
1
43
0.0
10
83.945297633950219
20
-307.68180755479557
10
71.445297633950219
20
-307.68180755479557
42
0.41421356237309503
10
70.695297633950219
20
-308.43180755479557
10
70.695297633950219
20
-320.93180755479557
42
0.41421356237309503
10
71.445297633950219
20
-321.68180755479557
10
83.945297633950219
20
-321.68180755479557
42
0.41421356237309503
10
84.695297633950233
20
-320.93180755479557
10
84.695297633950233
20
-308.43180755479557
42
0.41421356237309503
0
LWPOLYLINE
5
116
100
AcDbEntity
8
0
100
AcDbPolyline
90
8
70
1
43
0.0
10
160.69529763395019
20
-320.93180755479557
42
-0.41421356237309503
10
159.94529763395022
20
-321.68180755479557
10
147.44529763395022
20
-321.68180755479557
42
-0.41421356237309503
10
146.69529763395022
20
-320.93180755479557
10
146.69529763395019
20
-308.43180755479557
42
-0.41421356237309503
10
147.44529763395022
20
-307.68180755479557
10
159.94529763395022
20
-307.68180755479557
42
-0.41421356237309503
10
160.69529763395025
20
-308.43180755479557
0
LWPOLYLINE
5
117
100
AcDbEntity
8
0
100
AcDbPolyline
90
8
70
1
43
0.0
10
89.695297633950233
20
-320.93180755479557
10
89.69529763395019
20
-308.43180755479557
42
-0.41421356237309503
10
90.445297633950219
20
-307.68180755479557
10
102.94529763395022
20
-307.68180755479557
42
-0.41421356237309503
10
103.69529763395022
20
-308.43180755479557
10
103.69529763395019
20
-320.93180755479557
42
-0.41421356237309503
10
102.94529763395022
20
-321.68180755479557
10
90.445297633950219
20
-321.68180755479557
42
-0.41421356237309503
0
LWPOLYLINE
5
118
100
AcDbEntity
8
0
100
AcDbPolyline
90
8
70
1
43
0.0
10
184.69529763395025
20
-320.93180755479557
10
184.69529763395019
20
-308.43180755479557
42
-0.41421356237309503
10
185.44529763395022
20
-307.68180755479557
10
197.94529763395022
20
-307.68180755479557
42
-0.41421356237309503
10
198.69529763395022
20
-308.43180755479557
10
198.69529763395019
20
-320.93180755479557
42
-0.41421356237309503
10
197.94529763395022
20
-321.68180755479557
10
185.44529763395022
20
-321.68180755479557
42
-0.41421356237309503
0
LWPOLYLINE
5
119
100
AcDbEntity
8
0
100
AcDbPolyline
90
8
70
1
43
0.0
10
217.69529763395019
20
-320.93180755479557
42
-0.41421356237309503
10
216.94529763395025
20
-321.68180755479557
10
204.44529763395025
20
-321.68180755479557
42
-0.41421356237309503
10
203.69529763395025
20
-320.93180755479557
10
203.69529763395022
20
-308.43180755479557
42
-0.41421356237309503
10
204.44529763395025
20
-307.68180755479557
10
216.94529763395025
20
-307.68180755479557
42
-0.41421356237309503
10
217.69529763395025
20
-308.43180755479557
0
LWPOLYLINE
5
120
100
AcDbEntity
8
0
100
AcDbPolyline
90
8
70
1
43
0.0
10
235.94529763395025
20
-307.68180755479557
10
223.44529763395025
20
-307.68180755479557
42
0.41421356237309503
10
222.69529763395025
20
-308.43180755479557
10
222.69529763395025
20
-320.93180755479557
42
0.41421356237309503
10
223.44529763395025
20
-321.68180755479557
10
235.94529763395025
20
-321.68180755479557
42
0.41421356237309503
10
236.69529763395022
20
-320.93180755479557
10
236.69529763395022
20
-308.43180755479557
42
0.41421356237309503
0
LWPOLYLINE
5
121
100
AcDbEntity
8
0
100
AcDbPolyline
90
8
70
1
43
0.0
10
121.94529763395023
20
-321.68180755479557
10
109.44529763395023
20
-321.68180755479563
42
-0.41421356237309503
10
108.69529763395022
20
-320.93180755479557
10
108.6952976339502
20
-308.43180755479557
42
-0.41421356237309503
10
109.44529763395023
20
-307.68180755479557
10
121.94529763395023
20
-307.68180755479557
42
-0.41421356237309503
10
122.69529763395022
20
-308.43180755479557
10
122.69529763395019
20
-320.93180755479557
42
-0.41421356237309503
0
LWPOLYLINE
5
122
100
AcDbEntity
8
0
100
AcDbPolyline
90
8
70
1
43
0.0
10
140.94529763395025
20
-321.68180755479557
10
128.44529763395025
20
-321.68180755479563
42
-0.41421356237309503
10
127.69529763395022
20
-320.93180755479557
10
127.6952976339502
20
-308.43180755479557
42
-0.41421356237309503
10
128.44529763395025
20
-307.68180755479557
10
140.94529763395025
20
-307.68180755479557
42
-0.41421356237309503
10
141.69529763395022
20
-308.43180755479557
10
141.69529763395019
20
-320.93180755479557
42
-0.41421356237309503
0
LWPOLYLINE
5
123
100
AcDbEntity
8
0
100
AcDbPolyline
90
8
70
1
43
0.0
10
179.69529763395025
20
-320.93180755479557
10
179.69529763395025
20
-308.43180755479557
42
0.41421356237309503
10
178.94529763395025
20
-307.68180755479557
10
166.44529763395019
20
-307.68180755479557
42
0.41421356237309503
10
165.69529763395025
20
-308.43180755479557
10
165.69529763395025
20
-320.93180755479557
42
0.41421356237309503
10
166.44529763395019
20
-321.68180755479557
10
178.94529763395025
20
-321.68180755479557
42
0.41421356237309503
0
LWPOLYLINE
5
124
100
AcDbEntity
8
0
100
AcDbPolyline
90
8
70
1
43
0.0
10
51.69529763395019
20
-327.43180755479557
42
-0.41421356237309503
10
52.445297633950219
20
-326.68180755479557
10
64.945297633950219
20
-326.68180755479557
42
-0.41421356237309503
10
65.695297633950219
20
-327.43180755479557
10
65.695297633950247
20
-339.93180755479557
42
-0.41421356237309503
10
64.945297633950219
20
-340.68180755479557
10
52.445297633950219
20
-340.68180755479557
42
-0.41421356237309503
10
51.695297633950219
20
-339.93180755479557
0
LWPOLYLINE
5
125
100
AcDbEntity
8
0
100
AcDbPolyline
90
8
70
1
43
0.0
10
84.695297633950247
20
-339.93180755479557
42
-0.41421356237309503
10
83.945297633950219
20
-340.68180755479557
10
71.445297633950219
20
-340.68180755479557
42
-0.41421356237309503
10
70.695297633950219
20
-339.93180755479557
10
70.69529763395019
20
-327.43180755479557
42
-0.41421356237309503
10
71.445297633950219
20
-326.68180755479557
10
83.945297633950219
20
-326.68180755479557
42
-0.41421356237309503
10
84.695297633950233
20
-327.43180755479557
0
LWPOLYLINE
5
126
100
AcDbEntity
8
0
100
AcDbPolyline
90
8
70
1
43
0.0
10
103.69529763395022
20
-339.93180755479557
10
103.69529763395022
20
-327.43180755479557
42
0.41421356237309503
10
102.94529763395022
20
-326.68180755479557
10
90.445297633950219
20
-326.68180755479557
42
0.41421356237309503
10
89.695297633950233
20
-327.43180755479557
10
89.695297633950233
20
-339.93180755479557
42
0.41421356237309503
10
90.445297633950219
20
-340.68180755479557
10
102.94529763395022
20
-340.68180755479557
42
0.41421356237309503
0
LWPOLYLINE
5
127
100
AcDbEntity
8
0
100
AcDbPolyline
90
8
70
1
43
0.0
10
33.445297633950219
20
-340.68180755479557
42
-0.41421356237309503
10
32.695297633950219
20
-339.93180755479557
10
32.69529763395019
20
-327.43180755479557
42
-0.41421356237309503
10
33.445297633950219
20
-326.68180755479557
10
45.945297633950219
20
-326.68180755479557
42
-0.41421356237309503
10
46.695297633950226
20
-327.43180755479557
10
46.695297633950247
20
-339.93180755479557
42
-0.41421356237309503
10
45.945297633950219
20
-340.68180755479557
0
LWPOLYLINE
5
128
100
AcDbEntity
8
0
100
AcDbPolyline
90
8
70
1
43
0.0
10
109.44529763395023
20
-340.68180755479557
42
-0.41421356237309503
10
108.69529763395023
20
-339.93180755479557
10
108.6952976339502
20
-327.43180755479557
42
-0.41421356237309503
10
109.44529763395023
20
-326.68180755479557
10
121.94529763395023
20
-326.68180755479557
42
-0.41421356237309503
10
122.69529763395022
20
-327.43180755479557
10
122.69529763395026
20
-339.93180755479557
42
-0.41421356237309503
10
121.94529763395023
20
-340.68180755479557
0
LWPOLYLINE
5
129
100
AcDbEntity
8
0
100
AcDbPolyline
90
8
70
1
43
0.0
10
127.69529763395022
20
-339.93180755479557
10
127.6952976339502
20
-327.43180755479557
42
-0.41421356237309503
10
128.44529763395025
20
-326.68180755479557
10
140.94529763395025
20
-326.68180755479557
42
-0.41421356237309503
10
141.69529763395022
20
-327.43180755479557
10
141.69529763395025
20
-339.93180755479557
42
-0.41421356237309503
10
140.94529763395025
20
-340.68180755479557
10
128.44529763395025
20
-340.68180755479557
42
-0.41421356237309503
0
LWPOLYLINE
5
130
100
AcDbEntity
8
0
100
AcDbPolyline
90
8
70
1
43
0.0
10
26.945297633950219
20
-326.68180755479557
42
-0.41421356237309503
10
27.695297633950222
20
-327.43180755479557
10
27.695297633950247
20
-339.93180755479557
42
-0.41421356237309503
10
26.945297633950219
20
-340.68180755479557
10
14.445297633950219
20
-340.68180755479557
42
-0.41421356237309503
10
13.695297633950219
20
-339.93180755479557
10
13.69529763395019
20
-327.43180755479557
42
-0.41421356237309503
10
14.445297633950219
20
-326.68180755479557
0
LWPOLYLINE
5
131
100
AcDbEntity
8
0
100
AcDbPolyline
90
8
70
1
43
0.0
10
159.94529763395022
20
-326.68180755479557
10
147.44529763395022
20
-326.68180755479557
42
0.41421356237309503
10
146.69529763395022
20
-327.43180755479557
10
146.69529763395022
20
-339.93180755479557
42
0.41421356237309503
10
147.44529763395022
20
-340.68180755479557
10
159.94529763395022
20
-340.68180755479557
42
0.41421356237309503
10
160.69529763395025
20
-339.93180755479557
10
160.69529763395022
20
-327.43180755479557
42
0.41421356237309503
0
LWPOLYLINE
5
132
100
AcDbEntity
8
0
100
AcDbPolyline
90
8
70
1
43
0.0
10
14.445297633950219
20
-359.68180755479557
42
-0.41421356237309503
10
13.695297633950219
20
-358.93180755479557
10
13.695297633950261
20
-346.43180755479557
42
-0.41421356237309503
10
14.445297633950219
20
-345.68180755479557
10
29.320297633950219
20
-345.68180755479551
42
-0.41421356237309503
10
30.070297633950219
20
-346.43180755479557
10
30.070297633950247
20
-358.93180755479557
42
-0.41421356237309503
10
29.320297633950219
20
-359.68180755479557
0
LWPOLYLINE
5
133
100
AcDbEntity
8
0
100
AcDbPolyline
90
12
70
1
43
0.0
10
32.695297633950219
20
-358.93180755479557
10
32.695297633950261
20
-346.43180755479557
42
-0.41421356237309503
10
33.445297633950219
20
-345.68180755479557
10
45.945297633950219
20
-345.68180755479557
10
71.445297633950219
20
-345.68180755479557
10
83.945297633950219
20
-345.68180755479551
42
-0.41421356237309503
10
84.695297633950233
20
-346.43180755479557
10
84.695297633950247
20
-358.93180755479557
42
-0.41421356237309503
10
83.945297633950219
20
-359.68180755479557
10
71.445297633950219
20
-359.68180755479557
10
45.945297633950219
20
-359.68180755479557
10
33.445297633950219
20
-359.68180755479557
42
-0.41421356237309503
0
LWPOLYLINE
5
134
100
AcDbEntity
8
0
100
AcDbPolyline
90
8
70
1
43
0.0
10
179.69529763395028
20
-339.93180755479557
42
-0.41421356237309503
10
178.94529763395025
20
-340.68180755479557
10
166.44529763395019
20
-340.68180755479551
42
-0.41421356237309503
10
165.69529763395025
20
-339.93180755479557
10
165.69529763395019
20
-327.43180755479557
42
-0.41421356237309503
10
166.44529763395019
20
-326.68180755479557
10
178.94529763395025
20
-326.68180755479557
42
-0.41421356237309503
10
179.69529763395025
20
-327.43180755479557
0
LWPOLYLINE
5
135
100
AcDbEntity
8
0
100
AcDbPolyline
90
8
70
1
43
0.0
10
216.94529763395025
20
-326.68180755479557
42
-0.41421356237309503
10
217.69529763395025
20
-327.43180755479557
10
217.69529763395028
20
-339.93180755479557
42
-0.41421356237309503
10
216.94529763395025
20
-340.68180755479557
10
204.44529763395025
20
-340.68180755479557
42
-0.41421356237309503
10
203.69529763395022
20
-339.93180755479557
10
203.69529763395022
20
-327.43180755479557
42
-0.41421356237309503
10
204.44529763395025
20
-326.68180755479557
0
LWPOLYLINE
5
136
100
AcDbEntity
8
0
100
AcDbPolyline
90
8
70
1
43
0.0
10
185.44529763395022
20
-340.68180755479557
42
-0.41421356237309503
10
184.69529763395025
20
-339.93180755479557
10
184.69529763395019
20
-327.43180755479557
42
-0.41421356237309503
10
185.44529763395022
20
-326.68180755479557
10
197.94529763395022
20
-326.68180755479557
42
-0.41421356237309503
10
198.69529763395022
20
-327.43180755479557
10
198.69529763395025
20
-339.93180755479557
42
-0.41421356237309503
10
197.94529763395022
20
-340.68180755479557
0
LWPOLYLINE
5
137
100
AcDbEntity
8
0
100
AcDbPolyline
90
8
70
1
43
0.0
10
236.69529763395022
20
-339.93180755479557
10
236.69529763395022
20
-327.43180755479557
42
0.41421356237309503
10
235.94529763395025
20
-326.68180755479557
10
223.44529763395025
20
-326.68180755479557
42
0.41421356237309503
10
222.69529763395025
20
-327.43180755479557
10
222.69529763395025
20
-339.93180755479557
42
0.41421356237309503
10
223.44529763395025
20
-340.68180755479557
10
235.94529763395025
20
-340.68180755479557
42
0.41421356237309503
0
LWPOLYLINE
5
138
100
AcDbEntity
8
0
100
AcDbPolyline
90
16
70
1
43
0.0
10
102.94529763395022
20
-359.68180755479557
10
90.445297633950219
20
-359.68180755479557
10
89.13229763395023
20
-359.68180755479551
42
-0.41421356237306733
10
88.38229763395023
20
-358.93180755479563
10
88.382297633950273
20
-346.43180755479557
42
-0.41421356237309503
10
89.13229763395023
20
-345.68180755479557
10
90.445297633950219
20
-345.68180755479557
10
102.94529763395022
20
-345.68180755479557
10
147.44529763395022
20
-345.68180755479557
10
159.94529763395022
20
-345.68180755479557
10
161.25829763395021
20
-345.68180755479551
42
-0.41421356237312279
10
162.00829763395024
20
-346.43180755479563
10
162.00829763395021
20
-358.93180755479545
42
-0.41421356237308116
10
161.25829763395021
20
-359.68180755479557
10
159.94529763395022
20
-359.68180755479557
10
147.44529763395022
20
-359.68180755479557
0
LWPOLYLINE
5
139
100
AcDbEntity
8
0
100
AcDbPolyline
90
12
70
1
43
0.0
10
216.94529763395025
20
-345.68180755479557
42
-0.41421356237309503
10
217.69529763395025
20
-346.43180755479557
10
217.69529763395028
20
-358.93180755479557
42
-0.41421356237309503
10
216.94529763395025
20
-359.68180755479557
10
204.44529763395025
20
-359.68180755479557
10
178.94529763395025
20
-359.68180755479557
10
166.44529763395019
20
-359.68180755479551
42
-0.41421356237309503
10
165.69529763395025
20
-358.93180755479557
10
165.69529763395025
20
-346.43180755479557
42
-0.41421356237309503
10
166.44529763395019
20
-345.68180755479557
10
178.94529763395025
20
-345.68180755479557
10
204.44529763395025
20
-345.68180755479557
0
LWPOLYLINE
5
140
100
AcDbEntity
8
0
100
AcDbPolyline
90
8
70
1
43
0.0
10
236.69529763395022
20
-358.93180755479557
10
236.69529763395022
20
-346.43180755479557
42
0.41421356237309503
10
235.94529763395025
20
-345.68180755479557
10
221.07029763395022
20
-345.68180755479557
42
0.41421356237309503
10
220.32029763395025
20
-346.43180755479557
10
220.32029763395025
20
-358.93180755479557
42
0.41421356237309503
10
221.07029763395022
20
-359.68180755479557
10
235.94529763395025
20
-359.68180755479557
42
0.41421356237309503
0
SPLINE
5
141
100
AcDbEntity
8
0
100
AcDbSpline
70
0
71
3
72
8
73
4
74
0
42
0.000000001
43
0.0000000001
44
0.0000000001
40
0
40
0
40
0
40
0
40
1
40
1
40
1
40
1
10
241.69506106331539
20
-284.69790710346899
30
0
10
241.69506106331539
20
-284.13687442576418
30
0
10
241.2403093687675
20
-283.68195047678626
30
0
10
240.67910443663237
20
-283.68195047678626
30
0
0
LINE
5
142
100
AcDbEntity
8
0
100
AcDbLine
10
241.69506106331539
20
-284.69790710346899
30
0
11
241.69506106331539
21
-363.66571111611961
31
0
0
SPLINE
5
143
100
AcDbEntity
8
0
100
AcDbSpline
70
0
71
3
72
8
73
4
74
0
42
0.000000001
43
0.0000000001
44
0.0000000001
40
0
40
0
40
0
40
0
40
1
40
1
40
1
40
1
10
240.67910443663237
20
-364.68166774280235
30
0
10
241.2403093687675
20
-364.68166774280235
30
0
10
241.69506106331539
20
-364.22691604825445
30
0
10
241.69506106331539
20
-363.66571111611961
30
0
0
LINE
5
144
100
AcDbEntity
8
0
100
AcDbLine
10
240.67910443663237
20
-364.68166774280235
30
0
11
9.7114077935388821
21
-364.68166774280235
31
0
0
SPLINE
5
145
100
AcDbEntity
8
0
100
AcDbSpline
70
0
71
3
72
8
73
4
74
0
42
0.000000001
43
0.0000000001
44
0.0000000001
40
0
40
0
40
0
40
0
40
1
40
1
40
1
40
1
10
8.6954511668560031
20
-363.66571111611961
30
0
10
8.6954511668560031
20
-364.22691604825445
30
0
10
9.1503751158336399
20
-364.68166774280235
30
0
10
9.7114077935388821
20
-364.68166774280235
30
0
0
LINE
5
146
100
AcDbEntity
8
0
100
AcDbLine
10
8.6954511668560031
20
-363.66571111611961
30
0
11
8.6954511668560031
21
-284.69790710346899
31
0
0
SPLINE
5
147
100
AcDbEntity
8
0
100
AcDbSpline
70
0
71
3
72
8
73
4
74
0
42
0.000000001
43
0.0000000001
44
0.0000000001
40
0
40
0
40
0
40
0
40
1
40
1
40
1
40
1
10
9.7114077935388821
20
-283.68195047678626
30
0
10
9.1503751158336399
20
-283.68195047678626
30
0
10
8.6954511668560031
20
-284.13687442576418
30
0
10
8.6954511668560031
20
-284.69790710346899
30
0
0
LINE
5
148
100
AcDbEntity
8
0
100
AcDbLine
10
9.7114077935388821
20
-283.68195047678626
30
0
11
240.67910443663237
21
-283.68195047678631
31
0
0
SPLINE
5
149
100
AcDbEntity
8
0
100
AcDbSpline
70
2
71
3
72
14
73
10
74
0
42
0.000000001
43
0.0000000001
44
0.0000000001
40
0
40
0
40
0
40
0
40
1
40
1
40
2
40
2
40
3
40
3
40
4
40
4
40
4
40
4
10
31.295232350442177
20
-305.18171487197037
30
0
10
31.295232350442177
20
-304.57417349823174
30
0
10
30.802756935778604
20
-304.08169808356831
30
0
10
29.587674188301349
20
-304.08169808356831
30
0
10
29.095198773637634
20
-304.57417349823174
30
0
10
29.095198773637634
20
-305.789256245709
30
0
10
29.587674188301349
20
-306.28173166037243
30
0
10
30.802756935778604
20
-306.28173166037243
30
0
10
31.295232350442177
20
-305.789256245709
30
0
10
31.295232350442177
20
-305.18171487197037
30
0
0
SPLINE
5
150
100
AcDbEntity
8
0
100
AcDbSpline
70
0
71
3
72
15
73
11
74
0
42
0.000000001
43
0.0000000001
44
0.0000000001
40
0
40
0
40
0
40
0
40
1
40
1
40
2
40
2
40
2
40
3
40
3
40
4
40
4
40
4
40
4
10
31.295232350442177
20
-343.18155883875875
30
0
10
31.295232350442177
20
-342.57418971945015
30
0
10
30.802756935778604
20
-342.08188655921617
30
0
10
29.587674188301349
20
-342.08188655921617
30
0
10
29.095198773637634
20
-342.57418971945015
30
0
10
29.095198773637634
20
-343.18155883875875
30
0
10
29.095198773637634
20
-343.7892724669274
30
0
10
29.587674188301349
20
-344.28157562716137
30
0
10
30.802756935778604
20
-344.28157562716137
30
0
10
31.295232350442177
20
-343.7892724669274
30
0
10
31.295232350442177
20
-343.18155883875875
30
0
0
SPLINE
5
151
100
AcDbEntity
8
0
100
AcDbSpline
70
2
71
3
72
16
73
12
74
0
42
0.000000001
43
0.0000000001
44
0.0000000001
40
0
40
0
40
0
40
0
40
1
40
1
40
1
40
2
40
2
40
3
40
3
40
3
40
4
40
4
40
4
40
4
10
126.29527290348804
20
-324.18172298257957
30
0
10
126.29527290348804
20
-323.57418160884095
30
0
10
125.80262523439458
20
-323.08170619417695
30
0
10
125.1952561150857
20
-323.08170619417695
30
0
10
124.58771474134707
20
-323.08170619417695
30
0
10
124.0952393266835
20
-323.57418160884095
30
0
10
124.0952393266835
20
-324.7892643563182
30
0
10
124.58771474134707
20
-325.28156751655217
30
0
10
125.1952561150857
20
-325.28156751655217
30
0
10
125.80262523439458
20
-325.28156751655217
30
0
10
126.29527290348804
20
-324.7892643563182
30
0
10
126.29527290348804
20
-324.18172298257957
30
0
0
SPLINE
5
152
100
AcDbEntity
8
0
100
AcDbSpline
70
2
71
3
72
14
73
10
74
0
42
0.000000001
43
0.0000000001
44
0.0000000001
40
0
40
0
40
0
40
0
40
1
40
1
40
2
40
2
40
3
40
3
40
4
40
4
40
4
40
4
10
221.29531345653376
20
-305.18171487197037
30
0
10
221.29531345653376
20
-304.57417349823174
30
0
10
220.8026657874403
20
-304.08169808356831
30
0
10
219.58792754882268
20
-304.08169808356831
30
0
10
219.09527987972922
20
-304.57417349823174
30
0
10
219.09527987972922
20
-305.789256245709
30
0
10
219.58792754882268
20
-306.28173166037243
30
0
10
220.8026657874403
20
-306.28173166037243
30
0
10
221.29531345653376
20
-305.789256245709
30
0
10
221.29531345653376
20
-305.18171487197037
30
0
0
SPLINE
5
153
100
AcDbEntity
8
0
100
AcDbSpline
70
0
71
3
72
15
73
11
74
0
42
0.000000001
43
0.0000000001
44
0.0000000001
40
0
40
0
40
0
40
0
40
1
40
1
40
2
40
2
40
2
40
3
40
3
40
4
40
4
40
4
40
4
10
221.29531345653376
20
-343.18155883875875
30
0
10
221.29531345653376
20
-342.57418971945015
30
0
10
220.8026657874403
20
-342.08188655921617
30
0
10
219.58792754882268
20
-342.08188655921617
30
0
10
219.09527987972922
20
-342.57418971945015
30
0
10
219.09527987972922
20
-343.18155883875875
30
0
10
219.09527987972922
20
-343.7892724669274
30
0
10
219.58792754882268
20
-344.28157562716137
30
0
10
220.8026657874403
20
-344.28157562716137
30
0
10
221.29531345653376
20
-343.7892724669274
30
0
10
221.29531345653376
20
-343.18155883875875
30
0
0
ENDSEC
0
SECTION
2
OBJECTS
0
DICTIONARY
5
C
100
AcDbDictionary
3
ACAD_GROUP
350
D
3
ACAD_MLINESTYLE
350
17
0
DICTIONARY
5
D
100
AcDbDictionary
0
DICTIONARY
5
1A
330
C
100
AcDbDictionary
0
DICTIONARY
5
17
100
AcDbDictionary
0
ENDSEC
0
EOF
