0
SECTION
2
HEADER
9
$INSUNITS
70
4
9
$ACADVER
1
AC1014
9
$HANDSEED
5
FFFF
0
ENDSEC
0
SECTION
2
TABLES
0
TABLE
2
VPORT
5
8
100
AcDbSymbolTable
0
ENDTAB
0
TABLE
2
LTYPE
5
5
100
AcDbSymbolTable
0
LTYPE
5
14
100
AcDbSymbolTableRecord
100
AcDbLinetypeTableRecord
2
BYBLOCK
70
0
0
LTYPE
5
15
100
AcDbSymbolTableRecord
100
AcDbLinetypeTableRecord
2
BYLAYER
70
0
0
ENDTAB
0
TABLE
2
LAYER
5
2
100
AcDbSymbolTable
70
2
0
LAYER
5
50
100
AcDbSymbolTableRecord
100
AcDbLayerTableRecord
2
0
70
0
6
CONTINUOUS
0
ENDTAB
0
TABLE
2
STYLE
5
3
100
AcDbSymbolTable
70
1
0
STYLE
5
11
100
AcDbSymbolTableRecord
100
AcDbTextStyleTableRecord
2
STANDARD
70
0
0
ENDTAB
0
TABLE
2
VIEW
5
6
100
AcDbSymbolTable
70
0
0
ENDTAB
0
TABLE
2
UCS
5
7
100
AcDbSymbolTable
70
0
0
ENDTAB
0
TABLE
2
APPID
5
9
100
AcDbSymbolTable
70
2
0
APPID
5
12
100
AcDbSymbolTableRecord
100
AcDbRegAppTableRecord
2
ACAD
70
0
0
ENDTAB
0
TABLE
2
DIMSTYLE
5
A
100
AcDbSymbolTable
70
1
0
ENDTAB
0
TABLE
2
BLOCK_RECORD
5
1
100
AcDbSymbolTable
70
1
0
BLOCK_RECORD
5
1F
100
AcDbSymbolTableRecord
100
AcDbBlockTableRecord
2
*MODEL_SPACE
0
BLOCK_RECORD
5
1B
100
AcDbSymbolTableRecord
100
AcDbBlockTableRecord
2
*PAPER_SPACE
0
ENDTAB
0
ENDSEC
0
SECTION
2
BLOCKS
0
BLOCK
5
20
100
AcDbEntity
100
AcDbBlockBegin
2
*MODEL_SPACE
0
ENDBLK
5
21
100
AcDbEntity
100
AcDbBlockEnd
0
BLOCK
5
1C
100
AcDbEntity
100
AcDbBlockBegin
2
*PAPER_SPACE
0
ENDBLK
5
1D
100
AcDbEntity
100
AcDbBlockEnd
0
ENDSEC
0
SECTION
2
ENTITIES
0
LWPOLYLINE
5
100
100
AcDbEntity
8
0
100
AcDbPolyline
90
8
70
1
43
0.0
10
28.644936561584473
20
85.142924506610598
42
-0.41421356237309503
10
27.89493656158448
20
84.392924506610598
10
15.394936561584478
20
84.392924506610598
42
-0.41421356237309503
10
14.644936561584476
20
85.142924506610598
10
14.644936561584485
20
97.642924506610612
42
-0.41421356237309503
10
15.394936561584478
20
98.392924506610612
10
27.89493656158448
20
98.392924506610612
42
-0.41421356237309503
10
28.644936561584473
20
97.642924506610612
0
LWPOLYLINE
5
101
100
AcDbEntity
8
0
100
AcDbPolyline
90
8
70
1
43
0.0
10
47.644936561584473
20
85.142924506610598
42
-0.41421356237309503
10
46.89493656158448
20
84.392924506610598
10
34.39493656158448
20
84.392924506610584
42
-0.41421356237309503
10
33.644936561584473
20
85.142924506610598
10
33.644936561584487
20
97.642924506610612
42
-0.41421356237309503
10
34.39493656158448
20
98.392924506610612
10
46.89493656158448
20
98.392924506610612
42
-0.41421356237309503
10
47.644936561584473
20
97.642924506610612
0
LWPOLYLINE
5
102
100
AcDbEntity
8
0
100
AcDbPolyline
90
8
70
1
43
0.0
10
66.644936561584473
20
85.142924506610598
10
66.644936561584473
20
97.642924506610612
42
0.41421356237309503
10
65.894936561584487
20
98.392924506610612
10
53.394936561584487
20
98.392924506610612
42
0.41421356237309503
10
52.644936561584473
20
97.642924506610612
10
52.644936561584473
20
85.142924506610598
42
0.41421356237309503
10
53.394936561584487
20
84.392924506610598
10
65.894936561584487
20
84.392924506610598
42
0.41421356237309503
0
LWPOLYLINE
5
103
100
AcDbEntity
8
0
100
AcDbPolyline
90
8
70
1
43
0.0
10
-42.355063438415534
20
85.142924506610598
10
-42.355063438415513
20
97.642924506610612
42
-0.41421356237309503
10
-41.605063438415527
20
98.392924506610612
10
-29.105063438415527
20
98.392924506610626
42
-0.41421356237309503
10
-28.355063438415527
20
97.642924506610612
10
-28.355063438415534
20
85.142924506610598
42
-0.41421356237309503
10
-29.105063438415527
20
84.392924506610598
10
-41.605063438415527
20
84.392924506610584
42
-0.41421356237309503
0
LWPOLYLINE
5
104
100
AcDbEntity
8
0
100
AcDbPolyline
90
8
70
1
43
0.0
10
-61.35506343841552
20
97.642924506610612
42
-0.41421356237309503
10
-60.605063438415527
20
98.392924506610612
10
-48.105063438415527
20
98.392924506610626
42
-0.41421356237309503
10
-47.355063438415527
20
97.642924506610612
10
-47.355063438415534
20
85.142924506610598
42
-0.41421356237309503
10
-48.105063438415527
20
84.392924506610598
10
-60.605063438415527
20
84.392924506610598
42
-0.41421356237309503
10
-61.355063438415527
20
85.142924506610598
0
LWPOLYLINE
5
105
100
AcDbEntity
8
0
100
AcDbPolyline
90
8
70
1
43
0.0
10
-10.105063438415529
20
84.392924506610598
10
-22.605063438415527
20
84.392924506610598
42
-0.41421356237309503
10
-23.355063438415531
20
85.142924506610598
10
-23.35506343841552
20
97.642924506610612
42
-0.41421356237309503
10
-22.605063438415527
20
98.392924506610612
10
-10.105063438415529
20
98.392924506610626
42
-0.41421356237309503
10
-9.3550634384155273
20
97.642924506610612
10
-9.3550634384155362
20
85.142924506610598
42
-0.41421356237309503
0
LWPOLYLINE
5
106
100
AcDbEntity
8
0
100
AcDbPolyline
90
8
70
1
43
0.0
10
8.8949365615844744
20
98.392924506610612
10
-3.6050634384155256
20
98.392924506610612
42
0.41421356237309503
10
-4.3550634384155273
20
97.642924506610612
10
-4.3550634384155273
20
85.142924506610598
42
0.41421356237309503
10
-3.6050634384155256
20
84.392924506610598
10
8.8949365615844744
20
84.392924506610598
42
0.41421356237309503
10
9.6449365615844762
20
85.142924506610598
10
9.6449365615844762
20
97.642924506610612
42
0.41421356237309503
0
LWPOLYLINE
5
107
100
AcDbEntity
8
0
100
AcDbPolyline
90
8
70
1
43
0.0
10
84.894936561584473
20
98.392924506610612
10
72.394936561584473
20
98.392924506610612
42
0.41421356237309503
10
71.644936561584473
20
97.642924506610612
10
71.644936561584473
20
85.142924506610598
42
0.41421356237309503
10
72.394936561584473
20
84.392924506610598
10
84.894936561584473
20
84.392924506610598
42
0.41421356237309503
10
85.644936561584473
20
85.142924506610598
10
85.644936561584473
20
97.642924506610612
42
0.41421356237309503
0
LWPOLYLINE
5
108
100
AcDbEntity
8
0
100
AcDbPolyline
90
8
70
1
43
0.0
10
-22.605063438415527
20
65.392924506610612
42
-0.41421356237309503
10
-23.355063438415531
20
66.142924506610612
10
-23.35506343841552
20
78.642924506610612
42
-0.41421356237309503
10
-22.605063438415527
20
79.392924506610598
10
-10.105063438415529
20
79.392924506610612
42
-0.41421356237309503
10
-9.3550634384155273
20
78.642924506610612
10
-9.3550634384155185
20
66.142924506610612
42
-0.41421356237309503
10
-10.105063438415529
20
65.392924506610598
0
LWPOLYLINE
5
109
100
AcDbEntity
8
0
100
AcDbPolyline
90
8
70
1
43
0.0
10
-48.105063438415527
20
79.392924506610612
42
-0.41421356237309503
10
-47.355063438415527
20
78.642924506610612
10
-47.355063438415513
20
66.142924506610612
42
-0.41421356237309503
10
-48.105063438415527
20
65.392924506610598
10
-60.605063438415527
20
65.392924506610612
42
-0.41421356237309503
10
-61.355063438415527
20
66.142924506610612
10
-61.35506343841552
20
78.642924506610612
42
-0.41421356237309503
10
-60.605063438415527
20
79.392924506610598
0
LWPOLYLINE
5
110
100
AcDbEntity
8
0
100
AcDbPolyline
90
8
70
1
43
0.0
10
8.8949365615844744
20
79.392924506610598
10
-3.6050634384155256
20
79.392924506610598
42
0.41421356237309503
10
-4.3550634384155273
20
78.642924506610612
10
-4.3550634384155273
20
66.142924506610612
42
0.41421356237309503
10
-3.6050634384155256
20
65.392924506610598
10
8.8949365615844744
20
65.392924506610598
42
0.41421356237309503
10
9.6449365615844762
20
66.142924506610612
10
9.6449365615844762
20
78.642924506610612
42
0.41421356237309503
0
LWPOLYLINE
5
111
100
AcDbEntity
8
0
100
AcDbPolyline
90
8
70
1
43
0.0
10
104.6449365615845
20
85.142924506610598
10
104.6449365615845
20
97.642924506610612
42
0.41421356237309503
10
103.8949365615845
20
98.392924506610612
10
91.394936561584473
20
98.392924506610612
42
0.41421356237309503
10
90.644936561584473
20
97.642924506610612
10
90.644936561584473
20
85.142924506610598
42
0.41421356237309503
10
91.394936561584473
20
84.392924506610598
10
103.8949365615845
20
84.392924506610598
42
0.41421356237309503
0
LWPOLYLINE
5
112
100
AcDbEntity
8
0
100
AcDbPolyline
90
8
70
1
43
0.0
10
148.3949365615845
20
84.392924506610598
42
-0.41421356237309503
10
147.6449365615845
20
85.142924506610598
10
147.6449365615845
20
97.642924506610612
42
-0.41421356237309503
10
148.3949365615845
20
98.392924506610612
10
160.8949365615845
20
98.392924506610612
42
-0.41421356237309503
10
161.64493656158447
20
97.642924506610612
10
161.64493656158447
20
85.142924506610598
42
-0.41421356237309503
10
160.8949365615845
20
84.392924506610598
0
LWPOLYLINE
5
113
100
AcDbEntity
8
0
100
AcDbPolyline
90
8
70
1
43
0.0
10
128.64493656158453
20
97.642924506610612
42
-0.41421356237309503
10
129.3949365615845
20
98.392924506610612
10
141.8949365615845
20
98.392924506610612
42
-0.41421356237309503
10
142.6449365615845
20
97.642924506610612
10
142.6449365615845
20
85.142924506610598
42
-0.41421356237309503
10
141.8949365615845
20
84.392924506610598
10
129.3949365615845
20
84.392924506610598
42
-0.41421356237309503
10
128.64493656158453
20
85.142924506610598
0
LWPOLYLINE
5
114
100
AcDbEntity
8
0
100
AcDbPolyline
90
8
70
1
43
0.0
10
-29.105063438415527
20
79.392924506610612
42
-0.41421356237309503
10
-28.355063438415527
20
78.642924506610612
10
-28.355063438415517
20
66.142924506610612
42
-0.41421356237309503
10
-29.105063438415527
20
65.392924506610598
10
-41.605063438415527
20
65.392924506610598
42
-0.41421356237309503
10
-42.355063438415534
20
66.142924506610612
10
-42.355063438415513
20
78.642924506610612
42
-0.41421356237309503
10
-41.605063438415527
20
79.392924506610598
0
LWPOLYLINE
5
115
100
AcDbEntity
8
0
100
AcDbPolyline
90
8
70
1
43
0.0
10
110.39493656158449
20
84.392924506610598
42
-0.41421356237309503
10
109.6449365615845
20
85.142924506610598
10
109.6449365615845
20
97.642924506610612
42
-0.41421356237309503
10
110.39493656158449
20
98.392924506610612
10
122.89493656158449
20
98.392924506610612
42
-0.41421356237309503
10
123.64493656158447
20
97.642924506610612
10
123.64493656158447
20
85.142924506610598
42
-0.41421356237309503
10
122.89493656158449
20
84.392924506610598
0
LWPOLYLINE
5
116
100
AcDbEntity
8
0
100
AcDbPolyline
90
8
70
1
43
0.0
10
160.8949365615845
20
65.392924506610598
10
148.3949365615845
20
65.392924506610626
42
-0.41421356237309503
10
147.6449365615845
20
66.142924506610612
10
147.6449365615845
20
78.642924506610612
42
-0.41421356237309503
10
148.3949365615845
20
79.392924506610598
10
160.8949365615845
20
79.392924506610598
42
-0.41421356237309503
10
161.64493656158447
20
78.642924506610612
10
161.64493656158447
20
66.142924506610612
42
-0.41421356237309503
0
LWPOLYLINE
5
117
100
AcDbEntity
8
0
100
AcDbPolyline
90
8
70
1
43
0.0
10
47.644936561584473
20
66.142924506610612
10
47.644936561584473
20
78.642924506610612
42
0.41421356237309503
10
46.89493656158448
20
79.392924506610598
10
34.39493656158448
20
79.392924506610598
42
0.41421356237309503
10
33.644936561584473
20
78.642924506610612
10
33.644936561584473
20
66.142924506610612
42
0.41421356237309503
10
34.39493656158448
20
65.392924506610598
10
46.89493656158448
20
65.392924506610598
42
0.41421356237309503
0
LWPOLYLINE
5
118
100
AcDbEntity
8
0
100
AcDbPolyline
90
8
70
1
43
0.0
10
52.644936561584473
20
66.142924506610612
10
52.644936561584494
20
78.642924506610612
42
-0.41421356237309503
10
53.394936561584487
20
79.392924506610598
10
65.894936561584487
20
79.392924506610598
42
-0.41421356237309503
10
66.644936561584473
20
78.642924506610612
10
66.644936561584501
20
66.142924506610612
42
-0.41421356237309503
10
65.894936561584487
20
65.392924506610598
10
53.394936561584487
20
65.392924506610598
42
-0.41421356237309503
0
LWPOLYLINE
5
119
100
AcDbEntity
8
0
100
AcDbPolyline
90
8
70
1
43
0.0
10
84.894936561584473
20
65.392924506610598
10
72.394936561584473
20
65.392924506610626
42
-0.41421356237309503
10
71.644936561584473
20
66.142924506610612
10
71.644936561584473
20
78.642924506610612
42
-0.41421356237309503
10
72.394936561584473
20
79.392924506610598
10
84.894936561584473
20
79.392924506610598
42
-0.41421356237309503
10
85.644936561584473
20
78.642924506610612
10
85.644936561584487
20
66.142924506610612
42
-0.41421356237309503
0
LWPOLYLINE
5
120
100
AcDbEntity
8
0
100
AcDbPolyline
90
8
70
1
43
0.0
10
109.6449365615845
20
66.142924506610612
10
109.6449365615845
20
78.642924506610612
42
-0.41421356237309503
10
110.39493656158449
20
79.392924506610598
10
122.89493656158449
20
79.392924506610598
42
-0.41421356237309503
10
123.64493656158447
20
78.642924506610612
10
123.6449365615845
20
66.142924506610612
42
-0.41421356237309503
10
122.89493656158449
20
65.392924506610598
10
110.39493656158449
20
65.392924506610626
42
-0.41421356237309503
0
LWPOLYLINE
5
121
100
AcDbEntity
8
0
100
AcDbPolyline
90
8
70
1
43
0.0
10
90.644936561584473
20
78.642924506610612
42
-0.41421356237309503
10
91.394936561584473
20
79.392924506610598
10
103.8949365615845
20
79.392924506610598
42
-0.41421356237309503
10
104.6449365615845
20
78.642924506610612
10
104.64493656158452
20
66.142924506610612
42
-0.41421356237309503
10
103.8949365615845
20
65.392924506610598
10
91.394936561584473
20
65.392924506610626
42
-0.41421356237309503
10
90.644936561584473
20
66.142924506610612
0
LWPOLYLINE
5
122
100
AcDbEntity
8
0
100
AcDbPolyline
90
8
70
1
43
0.0
10
27.89493656158448
20
79.392924506610598
10
15.394936561584478
20
79.392924506610598
42
0.41421356237309503
10
14.644936561584476
20
78.642924506610612
10
14.644936561584476
20
66.142924506610612
42
0.41421356237309503
10
15.394936561584478
20
65.392924506610598
10
27.89493656158448
20
65.392924506610598
42
0.41421356237309503
10
28.644936561584473
20
66.142924506610612
10
28.644936561584473
20
78.642924506610612
42
0.41421356237309503
0
LWPOLYLINE
5
123
100
AcDbEntity
8
0
100
AcDbPolyline
90
8
70
1
43
0.0
10
141.8949365615845
20
79.392924506610598
10
129.3949365615845
20
79.392924506610598
42
0.41421356237309503
10
128.64493656158447
20
78.642924506610612
10
128.64493656158447
20
66.142924506610612
42
0.41421356237309503
10
129.3949365615845
20
65.392924506610598
10
141.8949365615845
20
65.392924506610598
42
0.41421356237309503
10
142.6449365615845
20
66.142924506610612
10
142.6449365615845
20
78.642924506610612
42
0.41421356237309503
0
LWPOLYLINE
5
124
100
AcDbEntity
8
0
100
AcDbPolyline
90
8
70
1
43
0.0
10
65.894936561584487
20
60.392924506610612
10
53.394936561584487
20
60.392924506610612
42
0.41421356237309503
10
52.644936561584473
20
59.642924506610612
10
52.644936561584473
20
47.142924506610612
42
0.41421356237309503
10
53.394936561584487
20
46.392924506610605
10
65.894936561584487
20
46.392924506610605
42
0.41421356237309503
10
66.644936561584473
20
47.142924506610612
10
66.644936561584473
20
59.642924506610612
42
0.41421356237309503
0
LWPOLYLINE
5
125
100
AcDbEntity
8
0
100
AcDbPolyline
90
8
70
1
43
0.0
10
9.6449365615844762
20
47.142924506610612
10
9.6449365615844762
20
59.642924506610612
42
0.41421356237309503
10
8.8949365615844744
20
60.392924506610612
10
-3.6050634384155256
20
60.392924506610612
42
0.41421356237309503
10
-4.3550634384155273
20
59.642924506610612
10
-4.3550634384155273
20
47.142924506610612
42
0.41421356237309503
10
-3.6050634384155256
20
46.392924506610605
10
8.8949365615844744
20
46.392924506610605
42
0.41421356237309503
0
LWPOLYLINE
5
126
100
AcDbEntity
8
0
100
AcDbPolyline
90
8
70
1
43
0.0
10
-22.605063438415527
20
46.392924506610605
42
-0.41421356237309503
10
-23.355063438415531
20
47.142924506610612
10
-23.355063438415531
20
59.642924506610612
42
-0.41421356237309503
10
-22.605063438415527
20
60.392924506610612
10
-10.105063438415529
20
60.392924506610612
42
-0.41421356237309503
10
-9.3550634384155273
20
59.642924506610612
10
-9.3550634384155273
20
47.142924506610612
42
-0.41421356237309503
10
-10.105063438415529
20
46.392924506610605
0
LWPOLYLINE
5
127
100
AcDbEntity
8
0
100
AcDbPolyline
90
8
70
1
43
0.0
10
28.64493656158448
20
47.142924506610612
42
-0.41421356237309503
10
27.89493656158448
20
46.392924506610605
10
15.394936561584478
20
46.392924506610605
42
-0.41421356237309503
10
14.644936561584476
20
47.142924506610612
10
14.644936561584476
20
59.642924506610612
42
-0.41421356237309503
10
15.394936561584478
20
60.392924506610612
10
27.89493656158448
20
60.392924506610598
42
-0.41421356237309503
10
28.644936561584473
20
59.642924506610612
0
LWPOLYLINE
5
128
100
AcDbEntity
8
0
100
AcDbPolyline
90
8
70
1
43
0.0
10
-41.605063438415527
20
46.392924506610598
42
-0.41421356237309503
10
-42.355063438415534
20
47.142924506610612
10
-42.355063438415527
20
59.642924506610612
42
-0.41421356237309503
10
-41.605063438415527
20
60.392924506610612
10
-29.105063438415527
20
60.392924506610612
42
-0.41421356237309503
10
-28.355063438415527
20
59.642924506610612
10
-28.355063438415527
20
47.142924506610612
42
-0.41421356237309503
10
-29.105063438415527
20
46.392924506610605
0
LWPOLYLINE
5
129
100
AcDbEntity
8
0
100
AcDbPolyline
90
8
70
1
43
0.0
10
-48.105063438415527
20
60.392924506610612
42
-0.41421356237309503
10
-47.355063438415527
20
59.642924506610612
10
-47.355063438415527
20
47.142924506610612
42
-0.41421356237309503
10
-48.105063438415527
20
46.392924506610605
10
-60.605063438415527
20
46.392924506610605
42
-0.41421356237309503
10
-61.355063438415527
20
47.142924506610612
10
-61.355063438415527
20
59.642924506610612
42
-0.41421356237309503
10
-60.605063438415527
20
60.392924506610612
0
LWPOLYLINE
5
130
100
AcDbEntity
8
0
100
AcDbPolyline
90
8
70
1
43
0.0
10
46.89493656158448
20
60.392924506610612
10
34.39493656158448
20
60.392924506610612
42
0.41421356237309503
10
33.644936561584487
20
59.642924506610612
10
33.644936561584487
20
47.142924506610612
42
0.41421356237309503
10
34.39493656158448
20
46.392924506610605
10
46.89493656158448
20
46.392924506610605
42
0.41421356237309503
10
47.644936561584473
20
47.142924506610612
10
47.644936561584473
20
59.642924506610612
42
0.41421356237309503
0
LWPOLYLINE
5
131
100
AcDbEntity
8
0
100
AcDbPolyline
90
8
70
1
43
0.0
10
84.894936561584473
20
60.392924506610612
10
72.394936561584473
20
60.392924506610612
42
0.41421356237309503
10
71.644936561584473
20
59.642924506610612
10
71.644936561584473
20
47.142924506610612
42
0.41421356237309503
10
72.394936561584473
20
46.392924506610605
10
84.894936561584473
20
46.392924506610605
42
0.41421356237309503
10
85.644936561584473
20
47.142924506610612
10
85.644936561584473
20
59.642924506610612
42
0.41421356237309503
0
LWPOLYLINE
5
132
100
AcDbEntity
8
0
100
AcDbPolyline
90
8
70
1
43
0.0
10
104.6449365615845
20
47.142924506610612
42
-0.41421356237309503
10
103.8949365615845
20
46.392924506610605
10
91.394936561584473
20
46.392924506610612
42
-0.41421356237309503
10
90.644936561584473
20
47.142924506610612
10
90.644936561584473
20
59.642924506610612
42
-0.41421356237309503
10
91.394936561584473
20
60.392924506610612
10
103.8949365615845
20
60.392924506610598
42
-0.41421356237309503
10
104.6449365615845
20
59.642924506610612
0
LWPOLYLINE
5
133
100
AcDbEntity
8
0
100
AcDbPolyline
90
8
70
1
43
0.0
10
123.64493656158447
20
47.142924506610612
10
123.64493656158447
20
59.642924506610612
42
0.41421356237309503
10
122.89493656158449
20
60.392924506610612
10
110.39493656158449
20
60.392924506610612
42
0.41421356237309503
10
109.6449365615845
20
59.642924506610612
10
109.6449365615845
20
47.142924506610612
42
0.41421356237309503
10
110.39493656158449
20
46.392924506610605
10
122.89493656158449
20
46.392924506610605
42
0.41421356237309503
0
LWPOLYLINE
5
134
100
AcDbEntity
8
0
100
AcDbPolyline
90
8
70
1
43
0.0
10
141.8949365615845
20
60.392924506610612
10
129.3949365615845
20
60.392924506610612
42
0.41421356237309503
10
128.64493656158447
20
59.642924506610612
10
128.64493656158447
20
47.142924506610612
42
0.41421356237309503
10
129.3949365615845
20
46.392924506610605
10
141.8949365615845
20
46.392924506610605
42
0.41421356237309503
10
142.6449365615845
20
47.142924506610612
10
142.6449365615845
20
59.642924506610612
42
0.41421356237309503
0
LWPOLYLINE
5
135
100
AcDbEntity
8
0
100
AcDbPolyline
90
8
70
1
43
0.0
10
160.8949365615845
20
60.392924506610598
42
-0.41421356237309503
10
161.64493656158447
20
59.642924506610612
10
161.64493656158447
20
47.142924506610612
42
-0.41421356237309503
10
160.8949365615845
20
46.392924506610605
10
148.3949365615845
20
46.392924506610612
42
-0.41421356237309503
10
147.6449365615845
20
47.142924506610612
10
147.6449365615845
20
59.642924506610612
42
-0.41421356237309503
10
148.3949365615845
20
60.392924506610612
0
LWPOLYLINE
5
136
100
AcDbEntity
8
0
100
AcDbPolyline
90
8
70
1
43
0.0
10
109.6449365615845
20
104.1429245066106
10
109.6449365615845
20
116.64292450661063
42
-0.41421356237309503
10
110.39493656158449
20
117.39292450661061
10
122.89493656158449
20
117.39292450661061
42
-0.41421356237309503
10
123.64493656158447
20
116.64292450661063
10
123.64493656158447
20
104.1429245066106
42
-0.41421356237309503
10
122.89493656158449
20
103.39292450661061
10
110.39493656158449
20
103.39292450661061
42
-0.41421356237309503
0
LWPOLYLINE
5
137
100
AcDbEntity
8
0
100
AcDbPolyline
90
8
70
1
43
0.0
10
66.644936561584473
20
104.1429245066106
42
-0.41421356237309503
10
65.894936561584487
20
103.39292450661061
10
53.394936561584487
20
103.3929245066106
42
-0.41421356237309503
10
52.644936561584473
20
104.1429245066106
10
52.644936561584494
20
116.64292450661063
42
-0.41421356237309503
10
53.394936561584487
20
117.39292450661061
10
65.894936561584487
20
117.39292450661061
42
-0.41421356237309503
10
66.644936561584473
20
116.64292450661063
0
LWPOLYLINE
5
138
100
AcDbEntity
8
0
100
AcDbPolyline
90
8
70
1
43
0.0
10
-23.35506343841552
20
116.64292450661063
42
-0.41421356237309503
10
-22.605063438415527
20
117.39292450661061
10
-10.105063438415529
20
117.39292450661061
42
-0.41421356237309503
10
-9.3550634384155273
20
116.64292450661063
10
-9.3550634384155362
20
104.1429245066106
42
-0.41421356237309503
10
-10.105063438415529
20
103.39292450661061
10
-22.605063438415527
20
103.3929245066106
42
-0.41421356237309503
10
-23.355063438415531
20
104.1429245066106
0
LWPOLYLINE
5
139
100
AcDbEntity
8
0
100
AcDbPolyline
90
8
70
1
43
0.0
10
46.89493656158448
20
103.39292450661061
10
34.39493656158448
20
103.3929245066106
42
-0.41421356237309503
10
33.644936561584473
20
104.1429245066106
10
33.644936561584487
20
116.64292450661063
42
-0.41421356237309503
10
34.39493656158448
20
117.39292450661061
10
46.89493656158448
20
117.39292450661061
42
-0.41421356237309503
10
47.644936561584473
20
116.64292450661063
10
47.644936561584473
20
104.1429245066106
42
-0.41421356237309503
0
LWPOLYLINE
5
140
100
AcDbEntity
8
0
100
AcDbPolyline
90
8
70
1
43
0.0
10
71.644936561584473
20
116.64292450661063
42
-0.41421356237309503
10
72.394936561584473
20
117.39292450661061
10
84.894936561584473
20
117.39292450661061
42
-0.41421356237309503
10
85.644936561584473
20
116.64292450661063
10
85.644936561584473
20
104.1429245066106
42
-0.41421356237309503
10
84.894936561584473
20
103.39292450661061
10
72.394936561584473
20
103.39292450661061
42
-0.41421356237309503
10
71.644936561584473
20
104.1429245066106
0
LWPOLYLINE
5
141
100
AcDbEntity
8
0
100
AcDbPolyline
90
8
70
1
43
0.0
10
28.644936561584473
20
104.1429245066106
42
-0.41421356237309503
10
27.89493656158448
20
103.39292450661061
10
15.394936561584478
20
103.3929245066106
42
-0.41421356237309503
10
14.644936561584476
20
104.1429245066106
10
14.644936561584485
20
116.64292450661063
42
-0.41421356237309503
10
15.394936561584478
20
117.39292450661061
10
27.89493656158448
20
117.39292450661061
42
-0.41421356237309503
10
28.644936561584473
20
116.64292450661063
0
LWPOLYLINE
5
142
100
AcDbEntity
8
0
100
AcDbPolyline
90
8
70
1
43
0.0
10
-28.355063438415527
20
104.1429245066106
10
-28.355063438415527
20
116.64292450661063
42
0.41421356237309503
10
-29.105063438415527
20
117.39292450661061
10
-41.605063438415527
20
117.39292450661061
42
0.41421356237309503
10
-42.355063438415534
20
116.64292450661063
10
-42.355063438415534
20
104.1429245066106
42
0.41421356237309503
10
-41.605063438415527
20
103.39292450661061
10
-29.105063438415527
20
103.39292450661061
42
0.41421356237309503
0
LWPOLYLINE
5
143
100
AcDbEntity
8
0
100
AcDbPolyline
90
8
70
1
43
0.0
10
128.64493656158453
20
104.1429245066106
10
128.64493656158453
20
116.64292450661063
42
-0.41421356237309503
10
129.3949365615845
20
117.39292450661061
10
141.8949365615845
20
117.39292450661061
42
-0.41421356237309503
10
142.6449365615845
20
116.64292450661063
10
142.6449365615845
20
104.1429245066106
42
-0.41421356237309503
10
141.8949365615845
20
103.39292450661061
10
129.3949365615845
20
103.39292450661061
42
-0.41421356237309503
0
LWPOLYLINE
5
144
100
AcDbEntity
8
0
100
AcDbPolyline
90
8
70
1
43
0.0
10
8.8949365615844744
20
117.39292450661061
10
-3.6050634384155256
20
117.39292450661061
42
0.41421356237309503
10
-4.3550634384155273
20
116.64292450661063
10
-4.3550634384155273
20
104.1429245066106
42
0.41421356237309503
10
-3.6050634384155256
20
103.39292450661061
10
8.8949365615844744
20
103.39292450661061
42
0.41421356237309503
10
9.6449365615844762
20
104.1429245066106
10
9.6449365615844762
20
116.64292450661063
42
0.41421356237309503
0
LWPOLYLINE
5
145
100
AcDbEntity
8
0
100
AcDbPolyline
90
8
70
1
43
0.0
10
161.64493656158447
20
104.1429245066106
10
161.64493656158447
20
116.64292450661063
42
0.41421356237309503
10
160.8949365615845
20
117.39292450661061
10
148.3949365615845
20
117.39292450661061
42
0.41421356237309503
10
147.6449365615845
20
116.64292450661063
10
147.6449365615845
20
104.1429245066106
42
0.41421356237309503
10
148.3949365615845
20
103.39292450661061
10
160.8949365615845
20
103.39292450661061
42
0.41421356237309503
0
LWPOLYLINE
5
146
100
AcDbEntity
8
0
100
AcDbPolyline
90
8
70
1
43
0.0
10
103.8949365615845
20
117.39292450661061
42
-0.41421356237309503
10
104.6449365615845
20
116.64292450661063
10
104.6449365615845
20
104.1429245066106
42
-0.41421356237309503
10
103.8949365615845
20
103.39292450661061
10
91.394936561584473
20
103.39292450661061
42
-0.41421356237309503
10
90.644936561584473
20
104.1429245066106
10
90.644936561584473
20
116.64292450661063
42
-0.41421356237309503
10
91.394936561584473
20
117.39292450661061
0
LWPOLYLINE
5
147
100
AcDbEntity
8
0
100
AcDbPolyline
90
8
70
1
43
0.0
10
-48.105063438415527
20
117.39292450661061
42
-0.41421356237309503
10
-47.355063438415527
20
116.64292450661063
10
-47.355063438415534
20
104.1429245066106
42
-0.41421356237309503
10
-48.105063438415527
20
103.39292450661061
10
-60.605063438415527
20
103.3929245066106
42
-0.41421356237309503
10
-61.355063438415527
20
104.1429245066106
10
-61.35506343841552
20
116.64292450661063
42
-0.41421356237309503
10
-60.605063438415527
20
117.39292450661061
0
LWPOLYLINE
5
148
100
AcDbEntity
8
0
100
AcDbPolyline
90
8
70
1
43
0.0
10
161.64510726928714
20
119.89323921913503
10
-61.354899406433105
20
119.89323921913503
42
0.41421356237309398
10
-63.854899406433105
20
117.39323921913503
10
-63.854899406433105
20
27.393239219135133
42
0.41421356237309293
10
-61.354899406433105
20
24.893239219135133
10
161.64510726928714
20
24.893239219135136
42
0.41421356237310181
10
164.14510726928714
20
27.393239219135133
10
164.14510726928714
20
117.39323921913503
42
0.41421356237310336
0
CIRCLE
5
149
100
AcDbEntity
8
0
100
AcDbCircle
10
-44.850244363663961
20
43.893219907230083
30
0
40
1.250000000000002
210
0
220
0
230
1
0
CIRCLE
5
150
100
AcDbEntity
8
0
100
AcDbCircle
10
-44.861780975511621
20
100.87487926789763
30
0
40
1.2500000000000084
210
0
220
0
230
1
0
CIRCLE
5
151
100
AcDbEntity
8
0
100
AcDbCircle
10
50.144937572602998
20
81.894511543959226
30
0
40
1.250000000000002
210
0
220
0
230
1
0
CIRCLE
5
152
100
AcDbEntity
8
0
100
AcDbCircle
10
145.14912774340968
20
100.895622285401
30
0
40
1.2499999999999996
210
0
220
0
230
1
0
CIRCLE
5
153
100
AcDbEntity
8
0
100
AcDbCircle
10
145.140886996912
20
43.89294949408179
30
0
40
1.2499999999999958
210
0
220
0
230
1
0
LWPOLYLINE
5
154
100
AcDbEntity
8
0
100
AcDbPolyline
90
8
70
1
43
0.0
10
-58.980063438415584
20
27.892924506610619
10
-58.980063438415549
20
40.892924506610626
42
-0.41421356237309503
10
-58.480063438415542
20
41.392924506610633
10
-45.48006343841557
20
41.392924506610669
42
-0.41421356237309503
10
-44.980063438415527
20
40.892924506610626
10
-44.980063438415563
20
27.892924506610619
42
-0.41421356237309503
10
-45.48006343841557
20
27.392924506610612
10
-58.480063438415542
20
27.392924506610576
42
-0.41421356237309503
0
LWPOLYLINE
5
155
100
AcDbEntity
8
0
100
AcDbPolyline
90
8
70
1
43
0.0
10
-35.230063438415584
20
27.892924506610619
10
-35.230063438415549
20
40.892924506610626
42
-0.41421356237309503
10
-34.730063438415542
20
41.392924506610633
10
-21.73006343841557
20
41.392924506610669
42
-0.41421356237309503
10
-21.230063438415527
20
40.892924506610626
10
-21.230063438415563
20
27.892924506610619
42
-0.41421356237309503
10
-21.73006343841557
20
27.392924506610612
10
-34.730063438415542
20
27.392924506610576
42
-0.41421356237309503
0
LWPOLYLINE
5
156
100
AcDbEntity
8
0
100
AcDbPolyline
90
8
70
1
43
0.0
10
-11.480063438415584
20
27.892924506610619
10
-11.480063438415549
20
40.892924506610626
42
-0.41421356237309503
10
-10.980063438415542
20
41.392924506610633
10
2.01993656158443
20
41.392924506610669
42
-0.41421356237309503
10
2.5199365615844727
20
40.892924506610626
10
2.5199365615844371
20
27.892924506610619
42
-0.41421356237309503
10
2.01993656158443
20
27.392924506610612
10
-10.980063438415542
20
27.392924506610576
42
-0.41421356237309503
0
LWPOLYLINE
5
157
100
AcDbEntity
8
0
100
AcDbPolyline
90
28
70
1
43
0.0
10
12.269936561584451
20
40.892924506610626
42
-0.41421356237309503
10
12.769936561584458
20
41.392924506610633
10
13.831936561584399
20
41.392924506610633
10
19.831936561584484
20
41.392924506610633
10
22.269936561584416
20
41.392924506610633
10
25.76993656158443
20
41.392924506610633
10
35.206936561584428
20
41.392924506610633
10
35.269936561584458
20
41.392924506610633
10
37.707936561584461
20
41.392924506610633
10
41.206936561584442
20
41.392924506610633
10
43.644936561584444
20
41.392924506610633
10
43.707936561584404
20
41.392924506610633
10
56.581936561584456
20
41.392924506610633
10
56.644936561584416
20
41.392924506610633
10
59.082936561584418
20
41.392924506610633
10
62.58193656158447
20
41.392924506610633
10
65.019936561584473
20
41.392924506610633
10
65.082936561584432
20
41.392924506610633
10
74.51993656158443
20
41.392924506610633
10
78.019936561584444
20
41.392924506610633
10
80.457936561584447
20
41.392924506610633
10
86.457936561584461
20
41.392924506610633
10
87.519936561584473
20
41.392924506610598
42
-0.41421356237309503
10
88.019936561584444
20
40.892924506610626
10
88.019936561584473
20
27.892924506610619
42
-0.41421356237309503
10
87.519936561584473
20
27.392924506610612
10
12.769936561584458
20
27.392924506610576
42
-0.41421356237309503
10
12.269936561584416
20
27.892924506610619
0
LWPOLYLINE
5
158
100
AcDbEntity
8
0
100
AcDbPolyline
90
8
70
1
43
0.0
10
97.769936561584387
20
27.892924506610619
10
97.769936561584501
20
40.892924506610626
42
-0.41421356237309503
10
98.269936561584501
20
41.392924506610633
10
111.26993656158447
20
41.392924506610598
42
-0.41421356237309503
10
111.76993656158444
20
40.892924506610626
10
111.76993656158447
20
27.892924506610619
42
-0.41421356237309503
10
111.26993656158447
20
27.392924506610612
10
98.269936561584501
20
27.392924506610505
42
-0.41421356237309503
0
LWPOLYLINE
5
159
100
AcDbEntity
8
0
100
AcDbPolyline
90
8
70
1
43
0.0
10
121.51993656158439
20
27.892924506610619
10
121.5199365615845
20
40.892924506610626
42
-0.41421356237309503
10
122.0199365615845
20
41.392924506610633
10
135.01993656158447
20
41.392924506610598
42
-0.41421356237309503
10
135.51993656158444
20
40.892924506610626
10
135.51993656158447
20
27.892924506610619
42
-0.41421356237309503
10
135.01993656158447
20
27.392924506610612
10
122.0199365615845
20
27.392924506610505
42
-0.41421356237309503
0
LWPOLYLINE
5
160
100
AcDbEntity
8
0
100
AcDbPolyline
90
8
70
1
43
0.0
10
145.26993656158439
20
27.892924506610619
10
145.2699365615845
20
40.892924506610626
42
-0.41421356237309503
10
145.7699365615845
20
41.392924506610633
10
158.76993656158447
20
41.392924506610598
42
-0.41421356237309503
10
159.26993656158444
20
40.892924506610626
10
159.26993656158447
20
27.892924506610619
42
-0.41421356237309503
10
158.76993656158447
20
27.392924506610612
10
145.7699365615845
20
27.392924506610505
42
-0.41421356237309503
0
ENDSEC
0
SECTION
2
OBJECTS
0
DICTIONARY
5
C
100
AcDbDictionary
3
ACAD_GROUP
350
D
3
ACAD_MLINESTYLE
350
17
0
DICTIONARY
5
D
100
AcDbDictionary
0
DICTIONARY
5
1A
330
C
100
AcDbDictionary
0
DICTIONARY
5
17
100
AcDbDictionary
0
ENDSEC
0
EOF
