0
SECTION
2
HEADER
9
$INSUNITS
70
4
9
$ACADVER
1
AC1014
9
$HANDSEED
5
FFFF
0
ENDSEC
0
SECTION
2
TABLES
0
TABLE
2
VPORT
5
8
100
AcDbSymbolTable
0
ENDTAB
0
TABLE
2
LTYPE
5
5
100
AcDbSymbolTable
0
LTYPE
5
14
100
AcDbSymbolTableRecord
100
AcDbLinetypeTableRecord
2
BYBLOCK
70
0
0
LTYPE
5
15
100
AcDbSymbolTableRecord
100
AcDbLinetypeTableRecord
2
BYLAYER
70
0
0
ENDTAB
0
TABLE
2
LAYER
5
2
100
AcDbSymbolTable
70
2
0
LAYER
5
50
100
AcDbSymbolTableRecord
100
AcDbLayerTableRecord
2
0
70
0
6
CONTINUOUS
0
ENDTAB
0
TABLE
2
STYLE
5
3
100
AcDbSymbolTable
70
1
0
STYLE
5
11
100
AcDbSymbolTableRecord
100
AcDbTextStyleTableRecord
2
STANDARD
70
0
0
ENDTAB
0
TABLE
2
VIEW
5
6
100
AcDbSymbolTable
70
0
0
ENDTAB
0
TABLE
2
UCS
5
7
100
AcDbSymbolTable
70
0
0
ENDTAB
0
TABLE
2
APPID
5
9
100
AcDbSymbolTable
70
2
0
APPID
5
12
100
AcDbSymbolTableRecord
100
AcDbRegAppTableRecord
2
ACAD
70
0
0
ENDTAB
0
TABLE
2
DIMSTYLE
5
A
100
AcDbSymbolTable
70
1
0
ENDTAB
0
TABLE
2
BLOCK_RECORD
5
1
100
AcDbSymbolTable
70
1
0
BLOCK_RECORD
5
1F
100
AcDbSymbolTableRecord
100
AcDbBlockTableRecord
2
*MODEL_SPACE
0
BLOCK_RECORD
5
1B
100
AcDbSymbolTableRecord
100
AcDbBlockTableRecord
2
*PAPER_SPACE
0
ENDTAB
0
ENDSEC
0
SECTION
2
BLOCKS
0
BLOCK
5
20
100
AcDbEntity
100
AcDbBlockBegin
2
*MODEL_SPACE
0
ENDBLK
5
21
100
AcDbEntity
100
AcDbBlockEnd
0
BLOCK
5
1C
100
AcDbEntity
100
AcDbBlockBegin
2
*PAPER_SPACE
0
ENDBLK
5
1D
100
AcDbEntity
100
AcDbBlockEnd
0
ENDSEC
0
SECTION
2
ENTITIES
0
LWPOLYLINE
5
100
100
AcDbEntity
8
0
100
AcDbPolyline
90
8
70
1
43
0.0
10
225.0502794649833
20
-99.77087840363447
10
212.05027946498333
20
-99.77087840363447
42
-0.41421356237309503
10
211.55027946498333
20
-99.27087840363447
10
211.55027946498333
20
-86.27087840363447
42
-0.41421356237309503
10
212.05027946498333
20
-85.77087840363447
10
225.0502794649833
20
-85.77087840363447
42
-0.41421356237309503
10
225.5502794649833
20
-86.27087840363447
10
225.5502794649833
20
-99.27087840363447
42
-0.41421356237309503
0
LWPOLYLINE
5
101
100
AcDbEntity
8
0
100
AcDbPolyline
90
8
70
1
43
0.0
10
92.050279464983319
20
-85.77087840363447
42
-0.41421356237309503
10
92.550279464983319
20
-86.27087840363447
10
92.550279464983319
20
-99.27087840363447
42
-0.41421356237309503
10
92.050279464983319
20
-99.77087840363447
10
79.050279464983305
20
-99.770878403634455
42
-0.41421356237309503
10
78.550279464983305
20
-99.27087840363447
10
78.550279464983305
20
-86.27087840363447
42
-0.41421356237309503
10
79.050279464983305
20
-85.77087840363447
0
LWPOLYLINE
5
102
100
AcDbEntity
8
0
100
AcDbPolyline
90
8
70
1
43
0.0
10
155.0502794649833
20
-99.77087840363447
42
-0.41421356237309503
10
154.5502794649833
20
-99.27087840363447
10
154.5502794649833
20
-86.27087840363447
42
-0.41421356237309503
10
155.0502794649833
20
-85.77087840363447
10
168.0502794649833
20
-85.77087840363447
42
-0.41421356237309503
10
168.5502794649833
20
-86.27087840363447
10
168.5502794649833
20
-99.27087840363447
42
-0.41421356237309503
10
168.0502794649833
20
-99.77087840363447
0
LWPOLYLINE
5
103
100
AcDbEntity
8
0
100
AcDbPolyline
90
8
70
1
43
0.0
10
136.0502794649833
20
-99.77087840363447
42
-0.41421356237309503
10
135.5502794649833
20
-99.27087840363447
10
135.5502794649833
20
-86.27087840363447
42
-0.41421356237309503
10
136.0502794649833
20
-85.77087840363447
10
149.0502794649833
20
-85.77087840363447
42
-0.41421356237309503
10
149.5502794649833
20
-86.27087840363447
10
149.5502794649833
20
-99.27087840363447
42
-0.41421356237309503
10
149.0502794649833
20
-99.77087840363447
0
LWPOLYLINE
5
104
100
AcDbEntity
8
0
100
AcDbPolyline
90
8
70
1
43
0.0
10
174.05027946498333
20
-99.77087840363447
42
-0.41421356237309503
10
173.5502794649833
20
-99.27087840363447
10
173.5502794649833
20
-86.27087840363447
42
-0.41421356237309503
10
174.05027946498333
20
-85.77087840363447
10
187.0502794649833
20
-85.77087840363447
42
-0.41421356237309503
10
187.5502794649833
20
-86.27087840363447
10
187.5502794649833
20
-99.27087840363447
42
-0.41421356237309503
10
187.0502794649833
20
-99.77087840363447
0
LWPOLYLINE
5
105
100
AcDbEntity
8
0
100
AcDbPolyline
90
8
70
1
43
0.0
10
192.5502794649833
20
-86.27087840363447
42
-0.41421356237309503
10
193.0502794649833
20
-85.77087840363447
10
206.0502794649833
20
-85.77087840363447
42
-0.41421356237309503
10
206.55027946498333
20
-86.27087840363447
10
206.55027946498333
20
-99.27087840363447
42
-0.41421356237309503
10
206.0502794649833
20
-99.77087840363447
10
193.0502794649833
20
-99.77087840363447
42
-0.41421356237309503
10
192.5502794649833
20
-99.27087840363447
0
LWPOLYLINE
5
106
100
AcDbEntity
8
0
100
AcDbPolyline
90
8
70
1
43
0.0
10
116.5502794649833
20
-86.27087840363447
42
-0.41421356237309503
10
117.05027946498332
20
-85.77087840363447
10
130.0502794649833
20
-85.77087840363447
42
-0.41421356237309503
10
130.5502794649833
20
-86.27087840363447
10
130.5502794649833
20
-99.27087840363447
42
-0.41421356237309503
10
130.0502794649833
20
-99.77087840363447
10
117.05027946498332
20
-99.77087840363447
42
-0.41421356237309503
10
116.5502794649833
20
-99.27087840363447
0
LWPOLYLINE
5
107
100
AcDbEntity
8
0
100
AcDbPolyline
90
8
70
1
43
0.0
10
16.050279464983305
20
-104.77087840363447
10
3.0502794649833054
20
-104.77087840363447
42
0.41421356237309503
10
2.5502794649833054
20
-105.27087840363447
10
2.5502794649833054
20
-118.27087840363447
42
0.41421356237309503
10
3.0502794649833054
20
-118.77087840363447
10
16.050279464983305
20
-118.77087840363447
42
0.41421356237309503
10
16.550279464983305
20
-118.27087840363447
10
16.550279464983305
20
-105.27087840363447
42
0.41421356237309503
0
LWPOLYLINE
5
108
100
AcDbEntity
8
0
100
AcDbPolyline
90
8
70
1
43
0.0
10
111.5502794649833
20
-99.27087840363447
10
111.5502794649833
20
-86.27087840363447
42
0.41421356237309503
10
111.05027946498332
20
-85.77087840363447
10
98.050279464983305
20
-85.77087840363447
42
0.41421356237309503
10
97.550279464983305
20
-86.27087840363447
10
97.550279464983305
20
-99.27087840363447
42
0.41421356237309503
10
98.050279464983305
20
-99.77087840363447
10
111.05027946498332
20
-99.77087840363447
42
0.41421356237309503
0
LWPOLYLINE
5
109
100
AcDbEntity
8
0
100
AcDbPolyline
90
8
70
1
43
0.0
10
41.050279464983312
20
-118.77087840363447
42
-0.41421356237309503
10
40.550279464983312
20
-118.27087840363447
10
40.550279464983319
20
-105.27087840363447
42
-0.41421356237309503
10
41.050279464983312
20
-104.77087840363447
10
54.050279464983305
20
-104.77087840363446
42
-0.41421356237309503
10
54.550279464983305
20
-105.27087840363447
10
54.550279464983319
20
-118.27087840363447
42
-0.41421356237309503
10
54.050279464983305
20
-118.77087840363447
0
LWPOLYLINE
5
110
100
AcDbEntity
8
0
100
AcDbPolyline
90
8
70
1
43
0.0
10
21.550279464983319
20
-105.27087840363447
42
-0.41421356237309503
10
22.050279464983305
20
-104.77087840363447
10
35.050279464983305
20
-104.77087840363446
42
-0.41421356237309503
10
35.550279464983305
20
-105.27087840363447
10
35.550279464983312
20
-118.27087840363447
42
-0.41421356237309503
10
35.050279464983305
20
-118.77087840363447
10
22.050279464983305
20
-118.77087840363447
42
-0.41421356237309503
10
21.550279464983308
20
-118.27087840363447
0
LWPOLYLINE
5
111
100
AcDbEntity
8
0
100
AcDbPolyline
90
8
70
1
43
0.0
10
2.5502794649833049
20
-99.27087840363447
10
2.5502794649832983
20
-86.27087840363447
42
-0.41421356237309503
10
3.0502794649833054
20
-85.77087840363447
10
16.050279464983305
20
-85.77087840363447
42
-0.41421356237309503
10
16.550279464983305
20
-86.27087840363447
10
16.550279464983312
20
-99.27087840363447
42
-0.41421356237309503
10
16.050279464983305
20
-99.77087840363447
10
3.0502794649833054
20
-99.77087840363447
42
-0.41421356237309503
0
LWPOLYLINE
5
112
100
AcDbEntity
8
0
100
AcDbPolyline
90
8
70
1
43
0.0
10
35.050279464983305
20
-85.77087840363447
42
-0.41421356237309503
10
35.550279464983305
20
-86.27087840363447
10
35.550279464983312
20
-99.27087840363447
42
-0.41421356237309503
10
35.050279464983305
20
-99.77087840363447
10
22.050279464983305
20
-99.770878403634455
42
-0.41421356237309503
10
21.550279464983308
20
-99.27087840363447
10
21.550279464983298
20
-86.27087840363447
42
-0.41421356237309503
10
22.050279464983305
20
-85.77087840363447
0
LWPOLYLINE
5
113
100
AcDbEntity
8
0
100
AcDbPolyline
90
8
70
1
43
0.0
10
54.050279464983305
20
-99.77087840363447
10
41.050279464983312
20
-99.77087840363447
42
-0.41421356237309503
10
40.550279464983305
20
-99.27087840363447
10
40.550279464983305
20
-86.27087840363447
42
-0.41421356237309503
10
41.050279464983312
20
-85.77087840363447
10
54.050279464983305
20
-85.77087840363447
42
-0.41421356237309503
10
54.550279464983305
20
-86.27087840363447
10
54.550279464983319
20
-99.27087840363447
42
-0.41421356237309503
0
LWPOLYLINE
5
114
100
AcDbEntity
8
0
100
AcDbPolyline
90
8
70
1
43
0.0
10
73.050279464983305
20
-99.77087840363447
10
60.050279464983305
20
-99.770878403634455
42
-0.41421356237309503
10
59.550279464983305
20
-99.27087840363447
10
59.550279464983298
20
-86.27087840363447
42
-0.41421356237309503
10
60.050279464983305
20
-85.77087840363447
10
73.050279464983305
20
-85.77087840363447
42
-0.41421356237309503
10
73.550279464983305
20
-86.27087840363447
10
73.550279464983319
20
-99.27087840363447
42
-0.41421356237309503
0
LINE
5
115
100
AcDbEntity
8
0
100
AcDbLine
10
225.54966905305022
20
-83.270949864630097
30
0
11
2.5502900758981184
21
-83.270949864630097
31
0
0
SPLINE
5
116
100
AcDbEntity
8
0
100
AcDbSpline
70
0
71
3
72
8
73
4
74
0
42
0.000000001
43
0.0000000001
44
0.0000000001
40
0
40
0
40
0
40
0
40
1
40
1
40
1
40
1
10
2.5502900758981184
20
-83.270949864630097
30
0
10
1.1694985669984703
20
-83.270949864630097
30
0
10
0.050361536893603898
20
-84.390086894734964
30
0
10
0.050361536893603898
20
-85.77087840363447
30
0
0
LINE
5
117
100
AcDbEntity
8
0
100
AcDbLine
10
0.050361536893603787
20
-85.770878403634484
30
0
11
0.050361536893603898
21
-156.77070925920248
31
0
0
SPLINE
5
118
100
AcDbEntity
8
0
100
AcDbSpline
70
0
71
3
72
8
73
4
74
0
42
0.000000001
43
0.0000000001
44
0.0000000001
40
0
40
0
40
0
40
0
40
1
40
1
40
1
40
1
10
0.050361536893603898
20
-156.77070925920248
30
0
10
0.050361536893603898
20
-158.15150076810198
30
0
10
1.1694985669984703
20
-159.27081005263688
30
0
10
2.5502900758981184
20
-159.27081005263688
30
0
0
LINE
5
119
100
AcDbEntity
8
0
100
AcDbLine
10
2.5502900758981188
20
-159.27081005263685
30
0
11
225.54966905305022
21
-159.27081005263688
31
0
0
SPLINE
5
120
100
AcDbEntity
8
0
100
AcDbSpline
70
0
71
3
72
8
73
4
74
0
42
0.000000001
43
0.0000000001
44
0.0000000001
40
0
40
0
40
0
40
0
40
1
40
1
40
1
40
1
10
225.54966905305022
20
-159.27081005263688
30
0
10
226.93046056195001
20
-159.27081005263688
30
0
10
228.04976984648448
20
-158.15150076810198
30
0
10
228.04976984648448
20
-156.77070925920248
30
0
0
LINE
5
121
100
AcDbEntity
8
0
100
AcDbLine
10
228.04976984648448
20
-156.77070925920245
30
0
11
228.04976984648448
21
-85.77087840363447
31
0
0
SPLINE
5
122
100
AcDbEntity
8
0
100
AcDbSpline
70
0
71
3
72
8
73
4
74
0
42
0.000000001
43
0.0000000001
44
0.0000000001
40
0
40
0
40
0
40
0
40
1
40
1
40
1
40
1
10
228.04976984648448
20
-85.77087840363447
30
0
10
228.04976984648448
20
-84.390086894734964
30
0
10
226.93046056195001
20
-83.270949864630097
30
0
10
225.54966905305022
20
-83.270949864630097
30
0
0
LWPOLYLINE
5
123
100
AcDbEntity
8
0
100
AcDbPolyline
90
8
70
1
43
0.0
10
111.55027946498333
20
-118.27087840363424
42
-0.41421356237309503
10
111.05027946498332
20
-118.77087840363424
10
98.050279464983305
20
-118.77087840363424
42
-0.41421356237309503
10
97.550279464983305
20
-118.27087840363424
10
97.550279464983305
20
-105.27087840363424
42
-0.41421356237309503
10
98.050279464983305
20
-104.77087840363424
10
111.05027946498332
20
-104.77087840363426
42
-0.41421356237309503
10
111.5502794649833
20
-105.27087840363424
0
LWPOLYLINE
5
124
100
AcDbEntity
8
0
100
AcDbPolyline
90
8
70
1
43
0.0
10
116.5502794649833
20
-105.27087840363424
42
-0.41421356237309503
10
117.05027946498332
20
-104.77087840363424
10
130.0502794649833
20
-104.77087840363424
42
-0.41421356237309503
10
130.5502794649833
20
-105.27087840363424
10
130.5502794649833
20
-118.27087840363424
42
-0.41421356237309503
10
130.0502794649833
20
-118.77087840363424
10
117.05027946498332
20
-118.77087840363424
42
-0.41421356237309503
10
116.5502794649833
20
-118.27087840363424
0
LWPOLYLINE
5
125
100
AcDbEntity
8
0
100
AcDbPolyline
90
8
70
1
43
0.0
10
92.550279464983305
20
-118.27087840363424
10
92.550279464983319
20
-105.27087840363424
42
0.41421356237309503
10
92.050279464983319
20
-104.77087840363424
10
79.050279464983305
20
-104.77087840363424
42
0.41421356237309503
10
78.550279464983305
20
-105.27087840363424
10
78.550279464983305
20
-118.27087840363424
42
0.41421356237309503
10
79.050279464983305
20
-118.77087840363424
10
92.050279464983319
20
-118.77087840363424
42
0.41421356237309503
0
LWPOLYLINE
5
126
100
AcDbEntity
8
0
100
AcDbPolyline
90
8
70
1
43
0.0
10
135.5502794649833
20
-105.27087840363424
42
-0.41421356237309503
10
136.0502794649833
20
-104.77087840363424
10
149.0502794649833
20
-104.77087840363424
42
-0.41421356237309503
10
149.5502794649833
20
-105.27087840363424
10
149.5502794649833
20
-118.27087840363424
42
-0.41421356237309503
10
149.0502794649833
20
-118.77087840363424
10
136.0502794649833
20
-118.77087840363424
42
-0.41421356237309503
10
135.5502794649833
20
-118.27087840363424
0
LWPOLYLINE
5
127
100
AcDbEntity
8
0
100
AcDbPolyline
90
8
70
1
43
0.0
10
168.0502794649833
20
-104.77087840363424
10
155.0502794649833
20
-104.77087840363424
42
0.41421356237309503
10
154.5502794649833
20
-105.27087840363424
10
154.5502794649833
20
-118.27087840363424
42
0.41421356237309503
10
155.0502794649833
20
-118.77087840363424
10
168.0502794649833
20
-118.77087840363424
42
0.41421356237309503
10
168.5502794649833
20
-118.27087840363424
10
168.5502794649833
20
-105.27087840363424
42
0.41421356237309503
0
LWPOLYLINE
5
128
100
AcDbEntity
8
0
100
AcDbPolyline
90
8
70
1
43
0.0
10
73.550279464983319
20
-118.27087840363424
42
-0.41421356237309503
10
73.050279464983305
20
-118.77087840363424
10
60.050279464983305
20
-118.77087840363423
42
-0.41421356237309503
10
59.550279464983305
20
-118.27087840363424
10
59.550279464983298
20
-105.27087840363424
42
-0.41421356237309503
10
60.050279464983305
20
-104.77087840363424
10
73.050279464983305
20
-104.77087840363424
42
-0.41421356237309503
10
73.550279464983305
20
-105.27087840363424
0
LWPOLYLINE
5
129
100
AcDbEntity
8
0
100
AcDbPolyline
90
8
70
1
43
0.0
10
225.0502794649833
20
-104.77087840363424
42
-0.41421356237309503
10
225.5502794649833
20
-105.27087840363424
10
225.5502794649833
20
-118.27087840363424
42
-0.41421356237309503
10
225.0502794649833
20
-118.77087840363424
10
212.05027946498333
20
-118.77087840363424
42
-0.41421356237309503
10
211.55027946498333
20
-118.27087840363424
10
211.55027946498333
20
-105.27087840363424
42
-0.41421356237309503
10
212.05027946498333
20
-104.77087840363424
0
LWPOLYLINE
5
130
100
AcDbEntity
8
0
100
AcDbPolyline
90
8
70
1
43
0.0
10
187.0502794649833
20
-104.77087840363424
10
174.05027946498333
20
-104.77087840363424
42
0.41421356237309503
10
173.5502794649833
20
-105.27087840363424
10
173.5502794649833
20
-118.27087840363424
42
0.41421356237309503
10
174.05027946498333
20
-118.77087840363424
10
187.0502794649833
20
-118.77087840363424
42
0.41421356237309503
10
187.5502794649833
20
-118.27087840363424
10
187.5502794649833
20
-105.27087840363424
42
0.41421356237309503
0
LWPOLYLINE
5
131
100
AcDbEntity
8
0
100
AcDbPolyline
90
8
70
1
43
0.0
10
206.55027946498333
20
-118.27087840363424
42
-0.41421356237309503
10
206.0502794649833
20
-118.77087840363424
10
193.0502794649833
20
-118.77087840363424
42
-0.41421356237309503
10
192.5502794649833
20
-118.27087840363424
10
192.5502794649833
20
-105.27087840363424
42
-0.41421356237309503
10
193.0502794649833
20
-104.77087840363424
10
206.0502794649833
20
-104.77087840363424
42
-0.41421356237309503
10
206.55027946498333
20
-105.27087840363424
0
LWPOLYLINE
5
132
100
AcDbEntity
8
0
100
AcDbPolyline
90
8
70
1
43
0.0
10
54.050279464983305
20
-137.77087840363424
10
41.050279464983312
20
-137.77087840363424
42
-0.41421356237309503
10
40.550279464983312
20
-137.27087840363424
10
40.550279464983319
20
-124.27087840363424
42
-0.41421356237309503
10
41.050279464983312
20
-123.77087840363424
10
54.050279464983305
20
-123.77087840363423
42
-0.41421356237309503
10
54.550279464983305
20
-124.27087840363424
10
54.550279464983319
20
-137.27087840363424
42
-0.41421356237309503
0
LWPOLYLINE
5
133
100
AcDbEntity
8
0
100
AcDbPolyline
90
8
70
1
43
0.0
10
168.0502794649833
20
-137.77087840363401
10
155.0502794649833
20
-137.77087840363401
42
-0.41421356237309503
10
154.5502794649833
20
-137.27087840363401
10
154.5502794649833
20
-124.27087840363401
42
-0.41421356237309503
10
155.0502794649833
20
-123.77087840363401
10
168.0502794649833
20
-123.77087840363401
42
-0.41421356237309503
10
168.5502794649833
20
-124.27087840363401
10
168.5502794649833
20
-137.27087840363401
42
-0.41421356237309503
0
LWPOLYLINE
5
134
100
AcDbEntity
8
0
100
AcDbPolyline
90
8
70
1
43
0.0
10
73.050279464983305
20
-123.77087840363401
42
-0.41421356237309503
10
73.550279464983305
20
-124.27087840363401
10
73.550279464983319
20
-137.27087840363401
42
-0.41421356237309503
10
73.050279464983305
20
-137.77087840363401
10
60.050279464983305
20
-137.77087840363401
42
-0.41421356237309503
10
59.550279464983305
20
-137.27087840363401
10
59.550279464983298
20
-124.27087840363401
42
-0.41421356237309503
10
60.050279464983305
20
-123.77087840363401
0
LWPOLYLINE
5
135
100
AcDbEntity
8
0
100
AcDbPolyline
90
8
70
1
43
0.0
10
92.550279464983319
20
-137.27087840363401
42
-0.41421356237309503
10
92.050279464983319
20
-137.77087840363401
10
79.050279464983305
20
-137.77087840363401
42
-0.41421356237309503
10
78.550279464983305
20
-137.27087840363401
10
78.550279464983305
20
-124.27087840363401
42
-0.41421356237309503
10
79.050279464983305
20
-123.77087840363401
10
92.050279464983319
20
-123.77087840363401
42
-0.41421356237309503
10
92.550279464983319
20
-124.27087840363401
0
LWPOLYLINE
5
136
100
AcDbEntity
8
0
100
AcDbPolyline
90
8
70
1
43
0.0
10
111.05027946498332
20
-123.77087840363401
10
98.050279464983305
20
-123.77087840363401
42
0.41421356237309503
10
97.550279464983305
20
-124.27087840363401
10
97.550279464983305
20
-137.27087840363401
42
0.41421356237309503
10
98.050279464983305
20
-137.77087840363401
10
111.05027946498332
20
-137.77087840363401
42
0.41421356237309503
10
111.5502794649833
20
-137.27087840363401
10
111.5502794649833
20
-124.27087840363401
42
0.41421356237309503
0
LWPOLYLINE
5
137
100
AcDbEntity
8
0
100
AcDbPolyline
90
8
70
1
43
0.0
10
149.0502794649833
20
-137.77087840363401
10
136.0502794649833
20
-137.77087840363401
42
-0.41421356237309503
10
135.5502794649833
20
-137.27087840363401
10
135.5502794649833
20
-124.27087840363401
42
-0.41421356237309503
10
136.0502794649833
20
-123.77087840363401
10
149.0502794649833
20
-123.77087840363401
42
-0.41421356237309503
10
149.5502794649833
20
-124.27087840363401
10
149.5502794649833
20
-137.27087840363401
42
-0.41421356237309503
0
LWPOLYLINE
5
138
100
AcDbEntity
8
0
100
AcDbPolyline
90
8
70
1
43
0.0
10
21.550279464983319
20
-124.27087840363424
42
-0.41421356237309503
10
22.050279464983305
20
-123.77087840363424
10
35.050279464983305
20
-123.77087840363423
42
-0.41421356237309503
10
35.550279464983305
20
-124.27087840363424
10
35.550279464983312
20
-137.27087840363424
42
-0.41421356237309503
10
35.050279464983305
20
-137.77087840363424
10
22.050279464983305
20
-137.77087840363424
42
-0.41421356237309503
10
21.550279464983308
20
-137.27087840363424
0
LWPOLYLINE
5
139
100
AcDbEntity
8
0
100
AcDbPolyline
90
8
70
1
43
0.0
10
117.05027946498332
20
-137.77087840363401
42
-0.41421356237309503
10
116.5502794649833
20
-137.27087840363401
10
116.5502794649833
20
-124.27087840363401
42
-0.41421356237309503
10
117.05027946498332
20
-123.77087840363401
10
130.0502794649833
20
-123.77087840363401
42
-0.41421356237309503
10
130.5502794649833
20
-124.27087840363401
10
130.5502794649833
20
-137.27087840363401
42
-0.41421356237309503
10
130.0502794649833
20
-137.77087840363401
0
LWPOLYLINE
5
140
100
AcDbEntity
8
0
100
AcDbPolyline
90
8
70
1
43
0.0
10
187.5502794649833
20
-137.27087840363401
10
187.5502794649833
20
-124.27087840363401
42
0.41421356237309503
10
187.0502794649833
20
-123.77087840363401
10
174.05027946498333
20
-123.77087840363401
42
0.41421356237309503
10
173.5502794649833
20
-124.27087840363401
10
173.5502794649833
20
-137.27087840363401
42
0.41421356237309503
10
174.05027946498333
20
-137.77087840363401
10
187.0502794649833
20
-137.77087840363401
42
0.41421356237309503
0
LWPOLYLINE
5
141
100
AcDbEntity
8
0
100
AcDbPolyline
90
8
70
1
43
0.0
10
225.5502794649833
20
-137.27087840363401
10
225.5502794649833
20
-124.27087840363401
42
0.41421356237309503
10
225.0502794649833
20
-123.77087840363401
10
212.05027946498333
20
-123.77087840363401
42
0.41421356237309503
10
211.55027946498333
20
-124.27087840363401
10
211.55027946498333
20
-137.27087840363401
42
0.41421356237309503
10
212.05027946498333
20
-137.77087840363401
10
225.0502794649833
20
-137.77087840363401
42
0.41421356237309503
0
LWPOLYLINE
5
142
100
AcDbEntity
8
0
100
AcDbPolyline
90
8
70
1
43
0.0
10
192.5502794649833
20
-137.27087840363401
10
192.5502794649833
20
-124.27087840363401
42
-0.41421356237309503
10
193.0502794649833
20
-123.77087840363401
10
206.0502794649833
20
-123.77087840363401
42
-0.41421356237309503
10
206.55027946498333
20
-124.27087840363401
10
206.55027946498333
20
-137.27087840363401
42
-0.41421356237309503
10
206.0502794649833
20
-137.77087840363401
10
193.0502794649833
20
-137.77087840363401
42
-0.41421356237309503
0
CIRCLE
5
143
100
AcDbEntity
8
0
100
AcDbCircle
10
57.050213614291323
20
-140.27080194202767
30
0
40
1.5000000000000036
210
0
220
0
230
1
0
CIRCLE
5
144
100
AcDbEntity
8
0
100
AcDbCircle
10
19.050283520287863
20
-121.27079383141847
30
0
40
1.5000000000000036
210
0
220
0
230
1
0
CIRCLE
5
145
100
AcDbEntity
8
0
100
AcDbCircle
10
57.050260473285881
20
-102.27078572080927
30
0
40
1.5000000000000036
210
0
220
0
230
1
0
CIRCLE
5
146
100
AcDbEntity
8
0
100
AcDbCircle
10
171.04996395294822
20
-102.27078572080927
30
0
40
1.4999999999999973
210
0
220
0
230
1
0
CIRCLE
5
147
100
AcDbEntity
8
0
100
AcDbCircle
10
209.04998017416648
20
-121.27079383141847
30
0
40
1.5000000000000036
210
0
220
0
230
1
0
CIRCLE
5
148
100
AcDbEntity
8
0
100
AcDbCircle
10
171.04996395294822
20
-140.27080194202767
30
0
40
1.5000000000000024
210
0
220
0
230
1
0
LWPOLYLINE
5
149
100
AcDbEntity
8
0
100
AcDbPolyline
90
8
70
1
43
0.0
10
2.5502794649833049
20
-137.27087840363447
10
2.5502794649832961
20
-124.27087840363448
42
-0.41421356237309503
10
3.0502794649833032
20
-123.77087840363447
10
16.050279464983301
20
-123.77087840363447
42
-0.41421356237309503
10
16.550279464983308
20
-124.27087840363448
10
16.550279464983308
20
-137.27087840363447
42
-0.41421356237309503
10
16.050279464983301
20
-137.77087840363447
10
3.0502794649833032
20
-137.77087840363447
42
-0.41421356237309503
0
LWPOLYLINE
5
150
100
AcDbEntity
8
0
100
AcDbPolyline
90
8
70
1
43
0.0
10
4.9252794649833032
20
-156.27087840363447
10
4.9252794649832943
20
-143.27087840363447
42
-0.41421356237309503
10
5.4252794649833014
20
-142.77087840363447
10
18.425279464983308
20
-142.77087840363447
42
-0.41421356237309503
10
18.925279464983305
20
-143.27087840363447
10
18.925279464983316
20
-156.27087840363447
42
-0.41421356237309503
10
18.425279464983308
20
-156.77087840363447
10
5.4252794649833014
20
-156.77087840363447
42
-0.41421356237309503
0
LWPOLYLINE
5
151
100
AcDbEntity
8
0
100
AcDbPolyline
90
8
70
1
43
0.0
10
28.675279464983312
20
-156.27087840363447
10
28.675279464983294
20
-143.27087840363447
42
-0.41421356237309503
10
29.175279464983301
20
-142.77087840363447
10
42.175279464983305
20
-142.77087840363447
42
-0.41421356237309503
10
42.675279464983298
20
-143.27087840363447
10
42.675279464983319
20
-156.27087840363447
42
-0.41421356237309503
10
42.175279464983305
20
-156.77087840363447
10
29.175279464983301
20
-156.77087840363447
42
-0.41421356237309503
0
LWPOLYLINE
5
152
100
AcDbEntity
8
0
100
AcDbPolyline
90
8
70
1
43
0.0
10
52.425279464983312
20
-156.27087840363447
10
52.425279464983312
20
-143.27087840363447
42
-0.41421356237309503
10
52.925279464983319
20
-142.77087840363447
10
65.925279464983305
20
-142.77087840363447
42
-0.41421356237309503
10
66.425279464983305
20
-143.27087840363447
10
66.425279464983319
20
-156.27087840363447
42
-0.41421356237309503
10
65.925279464983305
20
-156.77087840363447
10
52.925279464983319
20
-156.77087840363447
42
-0.41421356237309503
0
LWPOLYLINE
5
153
100
AcDbEntity
8
0
100
AcDbPolyline
90
28
70
1
43
0.0
10
76.175279464983305
20
-143.27087840363447
42
-0.41421356237309503
10
76.675279464983319
20
-142.77087840363447
10
77.737279464983288
20
-142.77087840363447
10
83.737279464983331
20
-142.77087840363447
10
86.175279464983305
20
-142.77087840363447
10
89.675279464983305
20
-142.77087840363447
10
99.112279464983317
20
-142.77087840363447
10
99.175279464983319
20
-142.77087840363447
10
101.61327946498331
20
-142.77087840363447
10
105.11227946498332
20
-142.77087840363447
10
107.5502794649833
20
-142.77087840363447
10
107.61327946498329
20
-142.77087840363447
10
120.48727946498332
20
-142.77087840363447
10
120.5502794649833
20
-142.77087840363447
10
122.98827946498328
20
-142.77087840363447
10
126.48727946498333
20
-142.77087840363447
10
128.92527946498333
20
-142.77087840363447
10
128.98827946498329
20
-142.77087840363447
10
138.4252794649833
20
-142.77087840363447
10
141.9252794649833
20
-142.77087840363447
10
144.36327946498329
20
-142.77087840363447
10
150.36327946498332
20
-142.77087840363447
10
151.42527946498333
20
-142.7708784036345
42
-0.41421356237309503
10
151.9252794649833
20
-143.27087840363447
10
151.92527946498333
20
-156.27087840363447
42
-0.41421356237311585
10
151.4252794649833
20
-156.77087840363447
10
76.675279464983319
20
-156.77087840363447
42
-0.41421356237309503
10
76.175279464983305
20
-156.27087840363447
0
LWPOLYLINE
5
154
100
AcDbEntity
8
0
100
AcDbPolyline
90
8
70
1
43
0.0
10
161.6752794649833
20
-156.27087840363447
10
161.6752794649833
20
-143.27087840363447
42
-0.41421356237309503
10
162.17527946498333
20
-142.77087840363447
10
175.1752794649833
20
-142.77087840363447
42
-0.41421356237309503
10
175.6752794649833
20
-143.27087840363447
10
175.6752794649833
20
-156.27087840363447
42
-0.41421356237309503
10
175.1752794649833
20
-156.77087840363447
10
162.17527946498333
20
-156.77087840363447
42
-0.41421356237309503
0
LWPOLYLINE
5
155
100
AcDbEntity
8
0
100
AcDbPolyline
90
8
70
1
43
0.0
10
185.4252794649833
20
-156.27087840363447
10
185.4252794649833
20
-143.27087840363447
42
-0.41421356237309503
10
185.92527946498333
20
-142.77087840363447
10
198.92527946498333
20
-142.7708784036345
42
-0.41421356237309503
10
199.4252794649833
20
-143.27087840363447
10
199.42527946498333
20
-156.27087840363447
42
-0.41421356237309503
10
198.92527946498333
20
-156.77087840363447
10
185.92527946498333
20
-156.77087840363447
42
-0.41421356237309503
0
LWPOLYLINE
5
156
100
AcDbEntity
8
0
100
AcDbPolyline
90
8
70
1
43
0.0
10
209.1752794649833
20
-156.27087840363447
10
209.1752794649833
20
-143.27087840363447
42
-0.41421356237309503
10
209.67527946498333
20
-142.77087840363447
10
222.67527946498333
20
-142.7708784036345
42
-0.41421356237309503
10
223.1752794649833
20
-143.27087840363447
10
223.17527946498333
20
-156.27087840363447
42
-0.41421356237309503
10
222.67527946498333
20
-156.77087840363447
10
209.67527946498333
20
-156.77087840363447
42
-0.41421356237309503
0
ENDSEC
0
SECTION
2
OBJECTS
0
DICTIONARY
5
C
100
AcDbDictionary
3
ACAD_GROUP
350
D
3
ACAD_MLINESTYLE
350
17
0
DICTIONARY
5
D
100
AcDbDictionary
0
DICTIONARY
5
1A
330
C
100
AcDbDictionary
0
DICTIONARY
5
17
100
AcDbDictionary
0
ENDSEC
0
EOF
