0
SECTION
2
HEADER
9
$INSUNITS
70
4
9
$ACADVER
1
AC1014
9
$HANDSEED
5
FFFF
0
ENDSEC
0
SECTION
2
TABLES
0
TABLE
2
VPORT
5
8
100
AcDbSymbolTable
0
ENDTAB
0
TABLE
2
LTYPE
5
5
100
AcDbSymbolTable
0
LTYPE
5
14
100
AcDbSymbolTableRecord
100
AcDbLinetypeTableRecord
2
BYBLOCK
70
0
0
LTYPE
5
15
100
AcDbSymbolTableRecord
100
AcDbLinetypeTableRecord
2
BYLAYER
70
0
0
ENDTAB
0
TABLE
2
LAYER
5
2
100
AcDbSymbolTable
70
2
0
LAYER
5
50
100
AcDbSymbolTableRecord
100
AcDbLayerTableRecord
2
0
70
0
6
CONTINUOUS
0
ENDTAB
0
TABLE
2
STYLE
5
3
100
AcDbSymbolTable
70
1
0
STYLE
5
11
100
AcDbSymbolTableRecord
100
AcDbTextStyleTableRecord
2
STANDARD
70
0
0
ENDTAB
0
TABLE
2
VIEW
5
6
100
AcDbSymbolTable
70
0
0
ENDTAB
0
TABLE
2
UCS
5
7
100
AcDbSymbolTable
70
0
0
ENDTAB
0
TABLE
2
APPID
5
9
100
AcDbSymbolTable
70
2
0
APPID
5
12
100
AcDbSymbolTableRecord
100
AcDbRegAppTableRecord
2
ACAD
70
0
0
ENDTAB
0
TABLE
2
DIMSTYLE
5
A
100
AcDbSymbolTable
70
1
0
ENDTAB
0
TABLE
2
BLOCK_RECORD
5
1
100
AcDbSymbolTable
70
1
0
BLOCK_RECORD
5
1F
100
AcDbSymbolTableRecord
100
AcDbBlockTableRecord
2
*MODEL_SPACE
0
BLOCK_RECORD
5
1B
100
AcDbSymbolTableRecord
100
AcDbBlockTableRecord
2
*PAPER_SPACE
0
ENDTAB
0
ENDSEC
0
SECTION
2
BLOCKS
0
BLOCK
5
20
100
AcDbEntity
100
AcDbBlockBegin
2
*MODEL_SPACE
0
ENDBLK
5
21
100
AcDbEntity
100
AcDbBlockEnd
0
BLOCK
5
1C
100
AcDbEntity
100
AcDbBlockBegin
2
*PAPER_SPACE
0
ENDBLK
5
1D
100
AcDbEntity
100
AcDbBlockEnd
0
ENDSEC
0
SECTION
2
ENTITIES
0
LWPOLYLINE
5
100
100
AcDbEntity
8
0
100
AcDbPolyline
90
8
70
1
43
0.0
10
108.85451203630139
20
-105.60728665453517
42
-0.41421356237309503
10
108.10451203630139
20
-104.85728665453519
10
108.10451203630139
20
-92.357286654535187
42
-0.41421356237309503
10
108.85451203630139
20
-91.607286654535187
10
121.35451203630139
20
-91.607286654535187
42
-0.41421356237309503
10
122.10451203630137
20
-92.357286654535187
10
122.1045120363014
20
-104.85728665453519
42
-0.41421356237309503
10
121.35451203630139
20
-105.60728665453519
0
LWPOLYLINE
5
101
100
AcDbEntity
8
0
100
AcDbPolyline
90
8
70
1
43
0.0
10
127.10451203630137
20
-104.85728665453519
10
127.1045120363014
20
-92.357286654535187
42
-0.41421356237309503
10
127.85451203630139
20
-91.607286654535187
10
140.3545120363014
20
-91.607286654535187
42
-0.41421356237309503
10
141.10451203630137
20
-92.357286654535187
10
141.1045120363014
20
-104.85728665453519
42
-0.41421356237309503
10
140.3545120363014
20
-105.60728665453519
10
127.85451203630139
20
-105.60728665453519
42
-0.41421356237309503
0
LWPOLYLINE
5
102
100
AcDbEntity
8
0
100
AcDbPolyline
90
8
70
1
43
0.0
10
27.104512036301387
20
-104.85728665453519
42
-0.41421356237309503
10
26.354512036301372
20
-105.60728665453519
10
13.854512036301372
20
-105.60728665453517
42
-0.41421356237309503
10
13.104512036301372
20
-104.85728665453519
10
13.104512036301379
20
-92.357286654535187
42
-0.41421356237309503
10
13.854512036301372
20
-91.607286654535187
10
26.354512036301372
20
-91.607286654535187
42
-0.41421356237309503
10
27.104512036301376
20
-92.357286654535187
0
LWPOLYLINE
5
103
100
AcDbEntity
8
0
100
AcDbPolyline
90
8
70
1
43
0.0
10
64.354512036301372
20
-91.607286654535187
42
-0.41421356237309503
10
65.104512036301372
20
-92.357286654535187
10
65.104512036301387
20
-104.85728665453519
42
-0.41421356237309503
10
64.354512036301372
20
-105.60728665453519
10
51.854512036301372
20
-105.60728665453517
42
-0.41421356237309503
10
51.104512036301372
20
-104.85728665453519
10
51.104512036301379
20
-92.357286654535187
42
-0.41421356237309503
10
51.854512036301372
20
-91.607286654535187
0
LWPOLYLINE
5
104
100
AcDbEntity
8
0
100
AcDbPolyline
90
8
70
1
43
0.0
10
102.35451203630137
20
-91.607286654535187
42
-0.41421356237309503
10
103.10451203630137
20
-92.357286654535187
10
103.10451203630139
20
-104.85728665453519
42
-0.41421356237309503
10
102.35451203630137
20
-105.60728665453519
10
89.854512036301372
20
-105.60728665453517
42
-0.41421356237309503
10
89.104512036301387
20
-104.85728665453519
10
89.104512036301387
20
-92.357286654535187
42
-0.41421356237309503
10
89.854512036301372
20
-91.607286654535187
0
LWPOLYLINE
5
105
100
AcDbEntity
8
0
100
AcDbPolyline
90
8
70
1
43
0.0
10
32.854512036301372
20
-105.60728665453517
42
-0.41421356237309503
10
32.104512036301372
20
-104.85728665453519
10
32.104512036301379
20
-92.357286654535187
42
-0.41421356237309503
10
32.854512036301372
20
-91.607286654535187
10
45.354512036301372
20
-91.607286654535173
42
-0.41421356237309503
10
46.104512036301379
20
-92.357286654535187
10
46.104512036301379
20
-104.85728665453519
42
-0.41421356237309503
10
45.354512036301372
20
-105.60728665453519
0
LWPOLYLINE
5
106
100
AcDbEntity
8
0
100
AcDbPolyline
90
8
70
1
43
0.0
10
159.35451203630137
20
-91.607286654535187
10
146.85451203630137
20
-91.607286654535187
42
0.41421356237309503
10
146.10451203630137
20
-92.357286654535187
10
146.10451203630137
20
-104.85728665453519
42
0.41421356237309503
10
146.85451203630137
20
-105.60728665453519
10
159.35451203630137
20
-105.60728665453519
42
0.41421356237309503
10
160.10451203630137
20
-104.85728665453519
10
160.10451203630137
20
-92.357286654535187
42
0.41421356237309503
0
LWPOLYLINE
5
107
100
AcDbEntity
8
0
100
AcDbPolyline
90
8
70
1
43
0.0
10
84.104512036301387
20
-104.85728665453519
10
84.104512036301387
20
-92.357286654535187
42
0.41421356237309503
10
83.354512036301372
20
-91.607286654535187
10
70.854512036301372
20
-91.607286654535187
42
0.41421356237309503
10
70.104512036301372
20
-92.357286654535187
10
70.104512036301372
20
-104.85728665453519
42
0.41421356237309503
10
70.854512036301372
20
-105.60728665453519
10
83.354512036301372
20
-105.60728665453519
42
0.41421356237309503
0
LWPOLYLINE
5
108
100
AcDbEntity
8
0
100
AcDbPolyline
90
8
70
1
43
0.0
10
178.3545120363014
20
-91.607286654535187
42
-0.41421356237309503
10
179.1045120363014
20
-92.357286654535187
10
179.1045120363014
20
-104.85728665453519
42
-0.41421356237309503
10
178.3545120363014
20
-105.60728665453519
10
165.85451203630134
20
-105.60728665453513
42
-0.41421356237309503
10
165.1045120363014
20
-104.85728665453519
10
165.10451203630137
20
-92.357286654535187
42
-0.41421356237309503
10
165.85451203630134
20
-91.607286654535187
0
LWPOLYLINE
5
109
100
AcDbEntity
8
0
100
AcDbPolyline
90
8
70
1
43
0.0
10
236.10451203630137
20
-104.85728665453519
10
236.10451203630137
20
-92.357286654535187
42
0.41421356237309503
10
235.3545120363014
20
-91.607286654535187
10
222.8545120363014
20
-91.607286654535187
42
0.41421356237309503
10
222.1045120363014
20
-92.357286654535187
10
222.1045120363014
20
-104.85728665453519
42
0.41421356237309503
10
222.8545120363014
20
-105.60728665453519
10
235.3545120363014
20
-105.60728665453519
42
0.41421356237309503
0
LWPOLYLINE
5
110
100
AcDbEntity
8
0
100
AcDbPolyline
90
8
70
1
43
0.0
10
46.104512036301379
20
-123.85728665453519
10
46.104512036301379
20
-111.35728665453519
42
0.41421356237309503
10
45.354512036301372
20
-110.60728665453519
10
32.854512036301372
20
-110.60728665453519
42
0.41421356237309503
10
32.104512036301372
20
-111.35728665453519
10
32.104512036301372
20
-123.85728665453519
42
0.41421356237309503
10
32.854512036301372
20
-124.60728665453519
10
45.354512036301372
20
-124.60728665453519
42
0.41421356237309503
0
LWPOLYLINE
5
111
100
AcDbEntity
8
0
100
AcDbPolyline
90
8
70
1
43
0.0
10
216.3545120363014
20
-91.607286654535187
10
203.8545120363014
20
-91.607286654535187
42
0.41421356237309503
10
203.10451203630137
20
-92.357286654535187
10
203.10451203630137
20
-104.85728665453519
42
0.41421356237309503
10
203.8545120363014
20
-105.60728665453519
10
216.3545120363014
20
-105.60728665453519
42
0.41421356237309503
10
217.1045120363014
20
-104.85728665453519
10
217.1045120363014
20
-92.357286654535187
42
0.41421356237309503
0
LWPOLYLINE
5
112
100
AcDbEntity
8
0
100
AcDbPolyline
90
8
70
1
43
0.0
10
184.85451203630137
20
-105.60728665453517
42
-0.41421356237309503
10
184.1045120363014
20
-104.85728665453519
10
184.1045120363014
20
-92.357286654535187
42
-0.41421356237309503
10
184.85451203630137
20
-91.607286654535187
10
197.35451203630137
20
-91.607286654535187
42
-0.41421356237309503
10
198.10451203630137
20
-92.357286654535187
10
198.10451203630137
20
-104.85728665453519
42
-0.41421356237309503
10
197.35451203630137
20
-105.60728665453519
0
LWPOLYLINE
5
113
100
AcDbEntity
8
0
100
AcDbPolyline
90
8
70
1
43
0.0
10
26.354512036301372
20
-110.60728665453519
10
13.854512036301372
20
-110.60728665453519
42
0.41421356237309503
10
13.104512036301372
20
-111.35728665453519
10
13.104512036301372
20
-123.85728665453519
42
0.41421356237309503
10
13.854512036301372
20
-124.60728665453519
10
26.354512036301372
20
-124.60728665453519
42
0.41421356237309503
10
27.104512036301376
20
-123.85728665453519
10
27.104512036301376
20
-111.35728665453519
42
0.41421356237309503
0
LWPOLYLINE
5
114
100
AcDbEntity
8
0
100
AcDbPolyline
90
8
70
1
43
0.0
10
65.104512036301387
20
-123.85728665453519
42
-0.41421356237309503
10
64.354512036301372
20
-124.60728665453519
10
51.854512036301372
20
-124.60728665453519
42
-0.41421356237309503
10
51.104512036301372
20
-123.85728665453519
10
51.104512036301379
20
-111.35728665453519
42
-0.41421356237309503
10
51.854512036301372
20
-110.60728665453519
10
64.354512036301372
20
-110.60728665453517
42
-0.41421356237309503
10
65.104512036301372
20
-111.35728665453519
0
LWPOLYLINE
5
115
100
AcDbEntity
8
0
100
AcDbPolyline
90
8
70
1
43
0.0
10
83.354512036301372
20
-110.60728665453519
10
70.854512036301372
20
-110.60728665453519
42
0.41421356237309503
10
70.104512036301372
20
-111.35728665453519
10
70.104512036301372
20
-123.85728665453519
42
0.41421356237309503
10
70.854512036301372
20
-124.60728665453519
10
83.354512036301372
20
-124.60728665453519
42
0.41421356237309503
10
84.104512036301387
20
-123.85728665453519
10
84.104512036301387
20
-111.35728665453519
42
0.41421356237309503
0
LWPOLYLINE
5
116
100
AcDbEntity
8
0
100
AcDbPolyline
90
8
70
1
43
0.0
10
160.1045120363014
20
-123.85728665453519
42
-0.41421356237309503
10
159.35451203630137
20
-124.60728665453519
10
146.85451203630137
20
-124.60728665453517
42
-0.41421356237309503
10
146.10451203630137
20
-123.85728665453519
10
146.10451203630137
20
-111.35728665453519
42
-0.41421356237309503
10
146.85451203630137
20
-110.60728665453519
10
159.35451203630137
20
-110.60728665453516
42
-0.41421356237309503
10
160.1045120363014
20
-111.35728665453519
0
LWPOLYLINE
5
117
100
AcDbEntity
8
0
100
AcDbPolyline
90
8
70
1
43
0.0
10
89.104512036301387
20
-123.85728665453519
10
89.104512036301387
20
-111.35728665453519
42
-0.41421356237309503
10
89.854512036301372
20
-110.60728665453519
10
102.35451203630137
20
-110.60728665453519
42
-0.41421356237309503
10
103.10451203630137
20
-111.35728665453519
10
103.10451203630139
20
-123.85728665453519
42
-0.41421356237309503
10
102.35451203630137
20
-124.60728665453519
10
89.854512036301372
20
-124.60728665453517
42
-0.41421356237309503
0
LWPOLYLINE
5
118
100
AcDbEntity
8
0
100
AcDbPolyline
90
8
70
1
43
0.0
10
184.1045120363014
20
-123.85728665453519
10
184.1045120363014
20
-111.35728665453519
42
-0.41421356237309503
10
184.85451203630137
20
-110.60728665453519
10
197.35451203630137
20
-110.60728665453519
42
-0.41421356237309503
10
198.10451203630137
20
-111.35728665453519
10
198.10451203630137
20
-123.85728665453519
42
-0.41421356237309503
10
197.35451203630137
20
-124.60728665453519
10
184.85451203630137
20
-124.60728665453517
42
-0.41421356237309503
0
LWPOLYLINE
5
119
100
AcDbEntity
8
0
100
AcDbPolyline
90
8
70
1
43
0.0
10
217.10451203630143
20
-123.85728665453519
42
-0.41421356237309503
10
216.3545120363014
20
-124.60728665453519
10
203.8545120363014
20
-124.60728665453517
42
-0.41421356237309503
10
203.1045120363014
20
-123.85728665453519
10
203.1045120363014
20
-111.35728665453519
42
-0.41421356237309503
10
203.8545120363014
20
-110.60728665453519
10
216.3545120363014
20
-110.60728665453519
42
-0.41421356237309503
10
217.1045120363014
20
-111.35728665453519
0
LWPOLYLINE
5
120
100
AcDbEntity
8
0
100
AcDbPolyline
90
8
70
1
43
0.0
10
235.3545120363014
20
-110.60728665453519
10
222.8545120363014
20
-110.60728665453519
42
0.41421356237309503
10
222.1045120363014
20
-111.35728665453519
10
222.1045120363014
20
-123.85728665453519
42
0.41421356237309503
10
222.8545120363014
20
-124.60728665453519
10
235.3545120363014
20
-124.60728665453519
42
0.41421356237309503
10
236.10451203630137
20
-123.85728665453519
10
236.10451203630137
20
-111.35728665453519
42
0.41421356237309503
0
LWPOLYLINE
5
121
100
AcDbEntity
8
0
100
AcDbPolyline
90
8
70
1
43
0.0
10
121.35451203630139
20
-124.60728665453519
10
108.85451203630139
20
-124.60728665453519
42
-0.41421356237309503
10
108.10451203630137
20
-123.85728665453519
10
108.10451203630139
20
-111.35728665453519
42
-0.41421356237309503
10
108.85451203630139
20
-110.60728665453519
10
121.35451203630139
20
-110.60728665453519
42
-0.41421356237309503
10
122.10451203630137
20
-111.35728665453519
10
122.1045120363014
20
-123.85728665453519
42
-0.41421356237309503
0
LWPOLYLINE
5
122
100
AcDbEntity
8
0
100
AcDbPolyline
90
8
70
1
43
0.0
10
140.3545120363014
20
-124.60728665453519
10
127.85451203630139
20
-124.60728665453519
42
-0.41421356237309503
10
127.10451203630137
20
-123.85728665453519
10
127.1045120363014
20
-111.35728665453519
42
-0.41421356237309503
10
127.85451203630139
20
-110.60728665453519
10
140.3545120363014
20
-110.60728665453519
42
-0.41421356237309503
10
141.10451203630137
20
-111.35728665453519
10
141.1045120363014
20
-123.85728665453519
42
-0.41421356237309503
0
LWPOLYLINE
5
123
100
AcDbEntity
8
0
100
AcDbPolyline
90
8
70
1
43
0.0
10
179.1045120363014
20
-123.85728665453519
10
179.1045120363014
20
-111.35728665453519
42
0.41421356237309503
10
178.3545120363014
20
-110.60728665453519
10
165.85451203630134
20
-110.60728665453519
42
0.41421356237309503
10
165.1045120363014
20
-111.35728665453519
10
165.1045120363014
20
-123.85728665453519
42
0.41421356237309503
10
165.85451203630134
20
-124.60728665453519
10
178.3545120363014
20
-124.60728665453519
42
0.41421356237309503
0
LWPOLYLINE
5
124
100
AcDbEntity
8
0
100
AcDbPolyline
90
8
70
1
43
0.0
10
51.104512036301379
20
-130.35728665453519
42
-0.41421356237309503
10
51.854512036301372
20
-129.60728665453519
10
64.354512036301372
20
-129.60728665453519
42
-0.41421356237309503
10
65.104512036301372
20
-130.35728665453519
10
65.104512036301372
20
-142.85728665453519
42
-0.41421356237309503
10
64.354512036301372
20
-143.60728665453519
10
51.854512036301372
20
-143.60728665453519
42
-0.41421356237309503
10
51.104512036301372
20
-142.85728665453519
0
LWPOLYLINE
5
125
100
AcDbEntity
8
0
100
AcDbPolyline
90
8
70
1
43
0.0
10
84.104512036301372
20
-142.85728665453519
42
-0.41421356237309503
10
83.354512036301372
20
-143.60728665453519
10
70.854512036301372
20
-143.60728665453519
42
-0.41421356237309503
10
70.104512036301372
20
-142.85728665453519
10
70.104512036301387
20
-130.35728665453519
42
-0.41421356237309503
10
70.854512036301372
20
-129.60728665453519
10
83.354512036301372
20
-129.60728665453519
42
-0.41421356237309503
10
84.104512036301387
20
-130.35728665453519
0
LWPOLYLINE
5
126
100
AcDbEntity
8
0
100
AcDbPolyline
90
8
70
1
43
0.0
10
103.10451203630137
20
-142.85728665453519
10
103.10451203630137
20
-130.35728665453519
42
0.41421356237309503
10
102.35451203630137
20
-129.60728665453519
10
89.854512036301372
20
-129.60728665453519
42
0.41421356237309503
10
89.104512036301387
20
-130.35728665453519
10
89.104512036301387
20
-142.85728665453519
42
0.41421356237309503
10
89.854512036301372
20
-143.60728665453519
10
102.35451203630137
20
-143.60728665453519
42
0.41421356237309503
0
LWPOLYLINE
5
127
100
AcDbEntity
8
0
100
AcDbPolyline
90
8
70
1
43
0.0
10
32.854512036301372
20
-143.60728665453519
42
-0.41421356237309503
10
32.104512036301372
20
-142.85728665453519
10
32.104512036301379
20
-130.35728665453519
42
-0.41421356237309503
10
32.854512036301372
20
-129.60728665453519
10
45.354512036301372
20
-129.60728665453519
42
-0.41421356237309503
10
46.104512036301379
20
-130.35728665453519
10
46.104512036301358
20
-142.85728665453519
42
-0.41421356237309503
10
45.354512036301372
20
-143.60728665453519
0
LWPOLYLINE
5
128
100
AcDbEntity
8
0
100
AcDbPolyline
90
8
70
1
43
0.0
10
108.85451203630139
20
-143.60728665453519
42
-0.41421356237309503
10
108.10451203630139
20
-142.85728665453519
10
108.10451203630139
20
-130.35728665453519
42
-0.41421356237309503
10
108.85451203630139
20
-129.60728665453519
10
121.35451203630139
20
-129.60728665453519
42
-0.41421356237309503
10
122.10451203630137
20
-130.35728665453519
10
122.10451203630137
20
-142.85728665453519
42
-0.41421356237309503
10
121.35451203630139
20
-143.60728665453519
0
LWPOLYLINE
5
129
100
AcDbEntity
8
0
100
AcDbPolyline
90
8
70
1
43
0.0
10
127.10451203630137
20
-142.85728665453519
10
127.1045120363014
20
-130.35728665453519
42
-0.41421356237309503
10
127.85451203630139
20
-129.60728665453519
10
140.3545120363014
20
-129.60728665453519
42
-0.41421356237309503
10
141.10451203630137
20
-130.35728665453519
10
141.10451203630137
20
-142.85728665453519
42
-0.41421356237309503
10
140.3545120363014
20
-143.60728665453519
10
127.85451203630139
20
-143.60728665453519
42
-0.41421356237309503
0
LWPOLYLINE
5
130
100
AcDbEntity
8
0
100
AcDbPolyline
90
8
70
1
43
0.0
10
26.354512036301372
20
-129.60728665453519
42
-0.41421356237309503
10
27.104512036301376
20
-130.35728665453519
10
27.104512036301365
20
-142.85728665453519
42
-0.41421356237309503
10
26.354512036301372
20
-143.60728665453519
10
13.854512036301372
20
-143.60728665453519
42
-0.41421356237309503
10
13.104512036301372
20
-142.85728665453519
10
13.104512036301379
20
-130.35728665453519
42
-0.41421356237309503
10
13.854512036301372
20
-129.60728665453519
0
LWPOLYLINE
5
131
100
AcDbEntity
8
0
100
AcDbPolyline
90
8
70
1
43
0.0
10
159.35451203630137
20
-129.60728665453519
10
146.85451203630137
20
-129.60728665453519
42
0.41421356237309503
10
146.10451203630137
20
-130.35728665453519
10
146.10451203630137
20
-142.85728665453519
42
0.41421356237309503
10
146.85451203630137
20
-143.60728665453519
10
159.35451203630137
20
-143.60728665453519
42
0.41421356237309503
10
160.1045120363014
20
-142.85728665453519
10
160.10451203630137
20
-130.35728665453519
42
0.41421356237309503
0
LWPOLYLINE
5
132
100
AcDbEntity
8
0
100
AcDbPolyline
90
8
70
1
43
0.0
10
13.854512036301372
20
-162.60728665453516
42
-0.41421356237309503
10
13.104512036301372
20
-161.85728665453519
10
13.104512036301362
20
-149.35728665453519
42
-0.41421356237309503
10
13.854512036301372
20
-148.60728665453519
10
28.729512036301372
20
-148.60728665453519
42
-0.41421356237309503
10
29.479512036301372
20
-149.35728665453519
10
29.479512036301401
20
-161.85728665453519
42
-0.41421356237309503
10
28.729512036301372
20
-162.60728665453519
0
LWPOLYLINE
5
133
100
AcDbEntity
8
0
100
AcDbPolyline
90
12
70
1
43
0.0
10
32.104512036301372
20
-161.85728665453519
10
32.104512036301365
20
-149.35728665453519
42
-0.41421356237309503
10
32.854512036301372
20
-148.60728665453519
10
45.354512036301372
20
-148.60728665453519
10
70.854512036301372
20
-148.60728665453519
10
83.354512036301372
20
-148.60728665453519
42
-0.41421356237309503
10
84.104512036301387
20
-149.35728665453519
10
84.104512036301401
20
-161.85728665453519
42
-0.41421356237309503
10
83.354512036301372
20
-162.60728665453519
10
70.854512036301372
20
-162.60728665453519
10
45.354512036301372
20
-162.60728665453519
10
32.854512036301372
20
-162.60728665453516
42
-0.41421356237309503
0
LWPOLYLINE
5
134
100
AcDbEntity
8
0
100
AcDbPolyline
90
8
70
1
43
0.0
10
179.1045120363014
20
-142.85728665453519
42
-0.41421356237309503
10
178.3545120363014
20
-143.60728665453519
10
165.85451203630134
20
-143.60728665453513
42
-0.41421356237309503
10
165.1045120363014
20
-142.85728665453519
10
165.10451203630137
20
-130.35728665453519
42
-0.41421356237309503
10
165.85451203630134
20
-129.60728665453519
10
178.3545120363014
20
-129.60728665453519
42
-0.41421356237309503
10
179.1045120363014
20
-130.35728665453519
0
LWPOLYLINE
5
135
100
AcDbEntity
8
0
100
AcDbPolyline
90
8
70
1
43
0.0
10
216.3545120363014
20
-129.60728665453519
42
-0.41421356237309503
10
217.1045120363014
20
-130.35728665453519
10
217.1045120363014
20
-142.85728665453519
42
-0.41421356237309503
10
216.3545120363014
20
-143.60728665453519
10
203.8545120363014
20
-143.60728665453522
42
-0.41421356237309503
10
203.10451203630137
20
-142.85728665453519
10
203.1045120363014
20
-130.35728665453519
42
-0.41421356237309503
10
203.8545120363014
20
-129.60728665453519
0
LWPOLYLINE
5
136
100
AcDbEntity
8
0
100
AcDbPolyline
90
8
70
1
43
0.0
10
184.85451203630137
20
-143.60728665453519
42
-0.41421356237309503
10
184.1045120363014
20
-142.85728665453519
10
184.1045120363014
20
-130.35728665453519
42
-0.41421356237309503
10
184.85451203630137
20
-129.60728665453519
10
197.35451203630137
20
-129.60728665453519
42
-0.41421356237309503
10
198.10451203630137
20
-130.35728665453519
10
198.10451203630137
20
-142.85728665453519
42
-0.41421356237309503
10
197.35451203630137
20
-143.60728665453519
0
LWPOLYLINE
5
137
100
AcDbEntity
8
0
100
AcDbPolyline
90
8
70
1
43
0.0
10
236.10451203630137
20
-142.85728665453519
10
236.10451203630137
20
-130.35728665453519
42
0.41421356237309503
10
235.3545120363014
20
-129.60728665453519
10
222.8545120363014
20
-129.60728665453519
42
0.41421356237309503
10
222.1045120363014
20
-130.35728665453519
10
222.1045120363014
20
-142.85728665453519
42
0.41421356237309503
10
222.8545120363014
20
-143.60728665453519
10
235.3545120363014
20
-143.60728665453519
42
0.41421356237309503
0
LWPOLYLINE
5
138
100
AcDbEntity
8
0
100
AcDbPolyline
90
16
70
1
43
0.0
10
102.35451203630137
20
-162.60728665453519
10
89.854512036301372
20
-162.60728665453519
10
88.541512036301384
20
-162.60728665453516
42
-0.41421356237308116
10
87.791512036301384
20
-161.85728665453522
10
87.79151203630137
20
-149.35728665453519
42
-0.41421356237309503
10
88.541512036301384
20
-148.60728665453519
10
89.854512036301372
20
-148.60728665453519
10
102.35451203630137
20
-148.60728665453519
10
146.85451203630137
20
-148.60728665453519
10
159.35451203630137
20
-148.60728665453519
10
160.66751203630133
20
-148.60728665453516
42
-0.41421356237310197
10
161.41751203630139
20
-149.35728665453522
10
161.41751203630136
20
-161.85728665453519
42
-0.41421356237308116
10
160.66751203630136
20
-162.60728665453519
10
159.35451203630137
20
-162.60728665453519
10
146.85451203630137
20
-162.60728665453519
0
LWPOLYLINE
5
139
100
AcDbEntity
8
0
100
AcDbPolyline
90
12
70
1
43
0.0
10
216.3545120363014
20
-148.60728665453519
42
-0.41421356237309503
10
217.1045120363014
20
-149.35728665453519
10
217.10451203630143
20
-161.85728665453519
42
-0.41421356237309503
10
216.3545120363014
20
-162.60728665453519
10
203.8545120363014
20
-162.60728665453519
10
178.3545120363014
20
-162.60728665453519
10
165.85451203630134
20
-162.60728665453513
42
-0.41421356237309503
10
165.1045120363014
20
-161.85728665453519
10
165.10451203630134
20
-149.35728665453519
42
-0.41421356237309503
10
165.85451203630134
20
-148.60728665453519
10
178.3545120363014
20
-148.60728665453519
10
203.8545120363014
20
-148.60728665453519
0
LWPOLYLINE
5
140
100
AcDbEntity
8
0
100
AcDbPolyline
90
8
70
1
43
0.0
10
236.10451203630137
20
-161.85728665453519
10
236.10451203630137
20
-149.35728665453519
42
0.41421356237309503
10
235.3545120363014
20
-148.60728665453519
10
220.47951203630137
20
-148.60728665453519
42
0.41421356237309503
10
219.7295120363014
20
-149.35728665453519
10
219.7295120363014
20
-161.85728665453519
42
0.41421356237309503
10
220.47951203630137
20
-162.60728665453519
10
235.3545120363014
20
-162.60728665453519
42
0.41421356237309503
0
LINE
5
141
100
AcDbEntity
8
0
100
AcDbLine
10
236.10390162436829
20
-89.107358115530815
30
0
11
13.104522647216186
21
-89.107358115530815
31
0
0
SPLINE
5
142
100
AcDbEntity
8
0
100
AcDbSpline
70
0
71
3
72
8
73
4
74
0
42
0.000000001
43
0.0000000001
44
0.0000000001
40
0
40
0
40
0
40
0
40
1
40
1
40
1
40
1
10
13.104522647216186
20
-89.107358115530815
30
0
10
11.723731138316538
20
-89.107358115530815
30
0
10
10.604594108211671
20
-90.226495145635681
30
0
10
10.604594108211671
20
-91.607286654535187
30
0
0
LINE
5
143
100
AcDbEntity
8
0
100
AcDbLine
10
10.604594108211671
20
-91.607286654535201
30
0
11
10.604594108211671
21
-162.60711751010319
31
0
0
SPLINE
5
144
100
AcDbEntity
8
0
100
AcDbSpline
70
0
71
3
72
8
73
4
74
0
42
0.000000001
43
0.0000000001
44
0.0000000001
40
0
40
0
40
0
40
0
40
1
40
1
40
1
40
1
10
10.604594108211671
20
-162.60711751010319
30
0
10
10.604594108211671
20
-163.9879090190027
30
0
10
11.723731138316538
20
-165.10721830353759
30
0
10
13.104522647216186
20
-165.10721830353759
30
0
0
LINE
5
145
100
AcDbEntity
8
0
100
AcDbLine
10
13.104522647216186
20
-165.10721830353759
30
0
11
236.10390162436829
21
-165.10721830353759
31
0
0
SPLINE
5
146
100
AcDbEntity
8
0
100
AcDbSpline
70
0
71
3
72
8
73
4
74
0
42
0.000000001
43
0.0000000001
44
0.0000000001
40
0
40
0
40
0
40
0
40
1
40
1
40
1
40
1
10
236.10390162436829
20
-165.10721830353759
30
0
10
237.48469313326808
20
-165.10721830353759
30
0
10
238.60400241780255
20
-163.9879090190027
30
0
10
238.60400241780255
20
-162.60711751010319
30
0
0
LINE
5
147
100
AcDbEntity
8
0
100
AcDbLine
10
238.60400241780255
20
-162.60711751010319
30
0
11
238.60400241780255
21
-91.607286654535201
31
0
0
SPLINE
5
148
100
AcDbEntity
8
0
100
AcDbSpline
70
0
71
3
72
8
73
4
74
0
42
0.000000001
43
0.0000000001
44
0.0000000001
40
0
40
0
40
0
40
0
40
1
40
1
40
1
40
1
10
238.60400241780255
20
-91.607286654535187
30
0
10
238.60400241780255
20
-90.226495145635681
30
0
10
237.48469313326808
20
-89.107358115530815
30
0
10
236.10390162436829
20
-89.107358115530815
30
0
0
SPLINE
5
149
100
AcDbEntity
8
0
100
AcDbSpline
70
0
71
3
72
17
73
13
74
0
42
0.000000001
43
0.0000000001
44
0.0000000001
40
0
40
0
40
0
40
0
40
1
40
1
40
1
40
2
40
2
40
2
40
3
40
3
40
3
40
4
40
4
40
4
40
4
10
69.604492369470847
20
-108.10719397170999
30
0
10
69.604492369470847
20
-107.00269856813406
30
0
10
68.708941589185315
20
-106.10732004227827
30
0
10
67.60444618560939
20
-106.10732004227827
30
0
10
66.499778527603723
20
-106.10732004227827
30
0
10
65.604400001747933
20
-107.00269856813406
30
0
10
65.604400001747933
20
-108.10719397170999
30
0
10
65.604400001747933
20
-109.21186162971594
30
0
10
66.499778527603723
20
-110.10724015557173
30
0
10
67.60444618560939
20
-110.10724015557173
30
0
10
68.708941589185315
20
-110.10724015557173
30
0
10
69.604492369470847
20
-109.21186162971594
30
0
10
69.604492369470847
20
-108.10719397170999
30
0
0
SPLINE
5
150
100
AcDbEntity
8
0
100
AcDbSpline
70
2
71
3
72
16
73
12
74
0
42
0.000000001
43
0.0000000001
44
0.0000000001
40
0
40
0
40
0
40
0
40
1
40
1
40
1
40
2
40
2
40
3
40
3
40
3
40
4
40
4
40
4
40
4
10
31.604476148252445
20
-127.10720208231919
30
0
10
31.604476148252445
20
-126.00270667874327
30
0
10
30.709097622396655
20
-125.10715589845802
30
0
10
29.60442996439113
20
-125.10715589845802
30
0
10
28.499934560815205
20
-125.10715589845802
30
0
10
27.604556034959415
20
-126.00270667874327
30
0
10
27.604556034959415
20
-128.21169748589512
30
0
10
28.499934560815205
20
-129.10707601175091
30
0
10
29.60442996439113
20
-129.10707601175091
30
0
10
30.709097622396655
20
-129.10707601175091
30
0
10
31.604476148252445
20
-128.21169748589512
30
0
10
31.604476148252445
20
-127.10720208231919
30
0
0
SPLINE
5
151
100
AcDbEntity
8
0
100
AcDbSpline
70
2
71
3
72
16
73
12
74
0
42
0.000000001
43
0.0000000001
44
0.0000000001
40
0
40
0
40
0
40
0
40
1
40
1
40
1
40
2
40
2
40
3
40
3
40
3
40
4
40
4
40
4
40
4
10
69.604492369470847
20
-146.10721019292839
30
0
10
69.604492369470847
20
-145.00271478935247
30
0
10
68.708941589185315
20
-144.10733626349668
30
0
10
67.60444618560939
20
-144.10733626349668
30
0
10
66.499778527603723
20
-144.10733626349668
30
0
10
65.604400001747933
20
-145.00271478935247
30
0
10
65.604400001747933
20
-147.21170559650432
30
0
10
66.499778527603723
20
-148.10708412236011
30
0
10
67.60444618560939
20
-148.10708412236011
30
0
10
68.708941589185315
20
-148.10708412236011
30
0
10
69.604492369470847
20
-147.21170559650432
30
0
10
69.604492369470847
20
-146.10721019292839
30
0
0
SPLINE
5
152
100
AcDbEntity
8
0
100
AcDbSpline
70
2
71
3
72
16
73
12
74
0
42
0.000000001
43
0.0000000001
44
0.0000000001
40
0
40
0
40
0
40
0
40
1
40
1
40
1
40
2
40
2
40
3
40
3
40
3
40
4
40
4
40
4
40
4
10
183.60419652426629
20
-146.10721019292839
30
0
10
183.60419652426629
20
-145.00271478935247
30
0
10
182.7088179984105
20
-144.10733626349668
30
0
10
181.60432259483457
20
-144.10733626349668
30
0
10
180.49948268239916
20
-144.10733626349668
30
0
10
179.60410415654337
20
-145.00271478935247
30
0
10
179.60410415654337
20
-147.21170559650432
30
0
10
180.49948268239916
20
-148.10708412236011
30
0
10
181.60432259483457
20
-148.10708412236011
30
0
10
182.7088179984105
20
-148.10708412236011
30
0
10
183.60419652426629
20
-147.21170559650432
30
0
10
183.60419652426629
20
-146.10721019292839
30
0
0
SPLINE
5
153
100
AcDbEntity
8
0
100
AcDbSpline
70
2
71
3
72
16
73
12
74
0
42
0.000000001
43
0.0000000001
44
0.0000000001
40
0
40
0
40
0
40
0
40
1
40
1
40
1
40
2
40
2
40
3
40
3
40
3
40
4
40
4
40
4
40
4
10
221.60421274548455
20
-127.10720208231919
30
0
10
221.60421274548455
20
-126.00270667874327
30
0
10
220.70883421962876
20
-125.10715589845802
30
0
10
219.60399430719349
20
-125.10715589845802
30
0
10
218.49949890361756
20
-125.10715589845802
30
0
10
217.60412037776177
20
-126.00270667874327
30
0
10
217.60412037776177
20
-128.21169748589512
30
0
10
218.49949890361756
20
-129.10707601175091
30
0
10
219.60399430719349
20
-129.10707601175091
30
0
10
220.70883421962876
20
-129.10707601175091
30
0
10
221.60421274548455
20
-128.21169748589512
30
0
10
221.60421274548455
20
-127.10720208231919
30
0
0
SPLINE
5
154
100
AcDbEntity
8
0
100
AcDbSpline
70
0
71
3
72
17
73
13
74
0
42
0.000000001
43
0.0000000001
44
0.0000000001
40
0
40
0
40
0
40
0
40
1
40
1
40
1
40
2
40
2
40
2
40
3
40
3
40
3
40
4
40
4
40
4
40
4
10
183.60419652426629
20
-108.10719397170999
30
0
10
183.60419652426629
20
-107.00269856813406
30
0
10
182.7088179984105
20
-106.10732004227827
30
0
10
181.60432259483457
20
-106.10732004227827
30
0
10
180.49948268239916
20
-106.10732004227827
30
0
10
179.60410415654337
20
-107.00269856813406
30
0
10
179.60410415654337
20
-108.10719397170999
30
0
10
179.60410415654337
20
-109.21186162971594
30
0
10
180.49948268239916
20
-110.10724015557173
30
0
10
181.60432259483457
20
-110.10724015557173
30
0
10
182.7088179984105
20
-110.10724015557173
30
0
10
183.60419652426629
20
-109.21186162971594
30
0
10
183.60419652426629
20
-108.10719397170999
30
0
0
ENDSEC
0
SECTION
2
OBJECTS
0
DICTIONARY
5
C
100
AcDbDictionary
3
ACAD_GROUP
350
D
3
ACAD_MLINESTYLE
350
17
0
DICTIONARY
5
D
100
AcDbDictionary
0
DICTIONARY
5
1A
330
C
100
AcDbDictionary
0
DICTIONARY
5
17
100
AcDbDictionary
0
ENDSEC
0
EOF
