0
SECTION
2
HEADER
9
$INSUNITS
70
4
9
$ACADVER
1
AC1014
9
$HANDSEED
5
FFFF
0
ENDSEC
0
SECTION
2
TABLES
0
TABLE
2
VPORT
5
8
100
AcDbSymbolTable
0
ENDTAB
0
TABLE
2
LTYPE
5
5
100
AcDbSymbolTable
0
LTYPE
5
14
100
AcDbSymbolTableRecord
100
AcDbLinetypeTableRecord
2
BYBLOCK
70
0
0
LTYPE
5
15
100
AcDbSymbolTableRecord
100
AcDbLinetypeTableRecord
2
BYLAYER
70
0
0
ENDTAB
0
TABLE
2
LAYER
5
2
100
AcDbSymbolTable
70
2
0
LAYER
5
50
100
AcDbSymbolTableRecord
100
AcDbLayerTableRecord
2
0
70
0
6
CONTINUOUS
0
ENDTAB
0
TABLE
2
STYLE
5
3
100
AcDbSymbolTable
70
1
0
STYLE
5
11
100
AcDbSymbolTableRecord
100
AcDbTextStyleTableRecord
2
STANDARD
70
0
0
ENDTAB
0
TABLE
2
VIEW
5
6
100
AcDbSymbolTable
70
0
0
ENDTAB
0
TABLE
2
UCS
5
7
100
AcDbSymbolTable
70
0
0
ENDTAB
0
TABLE
2
APPID
5
9
100
AcDbSymbolTable
70
2
0
APPID
5
12
100
AcDbSymbolTableRecord
100
AcDbRegAppTableRecord
2
ACAD
70
0
0
ENDTAB
0
TABLE
2
DIMSTYLE
5
A
100
AcDbSymbolTable
70
1
0
ENDTAB
0
TABLE
2
BLOCK_RECORD
5
1
100
AcDbSymbolTable
70
1
0
BLOCK_RECORD
5
1F
100
AcDbSymbolTableRecord
100
AcDbBlockTableRecord
2
*MODEL_SPACE
0
BLOCK_RECORD
5
1B
100
AcDbSymbolTableRecord
100
AcDbBlockTableRecord
2
*PAPER_SPACE
0
ENDTAB
0
ENDSEC
0
SECTION
2
BLOCKS
0
BLOCK
5
20
100
AcDbEntity
100
AcDbBlockBegin
2
*MODEL_SPACE
0
ENDBLK
5
21
100
AcDbEntity
100
AcDbBlockEnd
0
BLOCK
5
1C
100
AcDbEntity
100
AcDbBlockBegin
2
*PAPER_SPACE
0
ENDBLK
5
1D
100
AcDbEntity
100
AcDbBlockEnd
0
ENDSEC
0
SECTION
2
ENTITIES
0
LWPOLYLINE
5
100
100
AcDbEntity
8
0
100
AcDbPolyline
90
8
70
1
43
0.0
10
1.0249999999999937
20
93.827958056019881
42
-0.41421356237309503
10
1.5250000000000008
20
94.327958056019895
10
14.525000000000002
20
94.327958056019895
42
-0.41421356237309503
10
15.025000000000002
20
93.827958056019881
10
15.025000000000009
20
80.827958056019895
42
-0.41421356237309503
10
14.525000000000002
20
80.327958056019895
10
1.5250000000000008
20
80.327958056019895
42
-0.41421356237309503
10
1.0250000000000008
20
80.827958056019895
0
LWPOLYLINE
5
101
100
AcDbEntity
8
0
100
AcDbPolyline
90
8
70
1
43
0.0
10
115.325
20
93.827958056019881
42
-0.41421356237309503
10
115.82500000000002
20
94.327958056019895
10
128.82499999999999
20
94.327958056019895
42
-0.41421356237309503
10
129.32499999999999
20
93.827958056019881
10
129.32499999999999
20
80.827958056019895
42
-0.41421356237309503
10
128.82499999999999
20
80.327958056019895
10
115.82500000000002
20
80.327958056019895
42
-0.41421356237309503
10
115.325
20
80.827958056019895
0
LWPOLYLINE
5
102
100
AcDbEntity
8
0
100
AcDbPolyline
90
8
70
1
43
0.0
10
20.075000000000003
20
80.827958056019895
10
20.074999999999996
20
93.827958056019881
42
-0.41421356237309503
10
20.575000000000003
20
94.327958056019895
10
33.575000000000003
20
94.327958056019895
42
-0.41421356237309503
10
34.075000000000003
20
93.827958056019881
10
34.07500000000001
20
80.827958056019895
42
-0.41421356237309503
10
33.575000000000003
20
80.327958056019895
10
20.575000000000003
20
80.327958056019895
42
-0.41421356237309503
0
LWPOLYLINE
5
103
100
AcDbEntity
8
0
100
AcDbPolyline
90
8
70
1
43
0.0
10
53.125000000000014
20
80.827958056019895
42
-0.41421356237309503
10
52.625000000000014
20
80.327958056019895
10
39.625
20
80.327958056019895
42
-0.41421356237309503
10
39.125
20
80.827958056019895
10
39.124999999999993
20
93.827958056019881
42
-0.41421356237309503
10
39.625
20
94.327958056019895
10
52.625000000000014
20
94.327958056019867
42
-0.41421356237309503
10
53.125
20
93.827958056019881
0
LWPOLYLINE
5
104
100
AcDbEntity
8
0
100
AcDbPolyline
90
8
70
1
43
0.0
10
72.175000000000011
20
80.827958056019895
42
-0.41421356237309503
10
71.675000000000011
20
80.327958056019895
10
58.674999999999997
20
80.327958056019909
42
-0.41421356237309503
10
58.175000000000011
20
80.827958056019895
10
58.17499999999999
20
93.827958056019881
42
-0.41421356237309503
10
58.674999999999997
20
94.327958056019895
10
71.675000000000011
20
94.327958056019867
42
-0.41421356237309503
10
72.174999999999997
20
93.827958056019881
0
LWPOLYLINE
5
105
100
AcDbEntity
8
0
100
AcDbPolyline
90
8
70
1
43
0.0
10
90.724999999999994
20
94.327958056019895
42
-0.41421356237309503
10
91.225000000000009
20
93.827958056019881
10
91.225000000000009
20
80.827958056019895
42
-0.41421356237309503
10
90.724999999999994
20
80.327958056019895
10
77.724999999999994
20
80.327958056019909
42
-0.41421356237309503
10
77.224999999999994
20
80.827958056019895
10
77.22499999999998
20
93.827958056019881
42
-0.41421356237309503
10
77.724999999999994
20
94.327958056019895
0
LWPOLYLINE
5
106
100
AcDbEntity
8
0
100
AcDbPolyline
90
8
70
1
43
0.0
10
109.77500000000001
20
94.327958056019895
42
-0.41421356237309503
10
110.27500000000002
20
93.827958056019881
10
110.27500000000002
20
80.827958056019895
42
-0.41421356237309503
10
109.77500000000001
20
80.327958056019895
10
96.775000000000006
20
80.327958056019909
42
-0.41421356237309503
10
96.275000000000006
20
80.827958056019895
10
96.274999999999991
20
93.827958056019881
42
-0.41421356237309503
10
96.775000000000006
20
94.327958056019895
0
LWPOLYLINE
5
107
100
AcDbEntity
8
0
100
AcDbPolyline
90
8
70
1
43
0.0
10
134.375
20
93.827958056019881
42
-0.41421356237309503
10
134.875
20
94.327958056019895
10
147.875
20
94.327958056019895
42
-0.41421356237309503
10
148.375
20
93.827958056019881
10
148.375
20
80.827958056019895
42
-0.41421356237309503
10
147.875
20
80.327958056019895
10
134.875
20
80.327958056019895
42
-0.41421356237309503
10
134.375
20
80.827958056019895
0
LWPOLYLINE
5
108
100
AcDbEntity
8
0
100
AcDbPolyline
90
8
70
1
43
0.0
10
192.02500000000003
20
80.327958056019895
42
-0.41421356237309503
10
191.52500000000003
20
80.827958056019895
10
191.52500000000003
20
93.827958056019881
42
-0.41421356237309503
10
192.02500000000003
20
94.327958056019895
10
205.02500000000003
20
94.327958056019853
42
-0.41421356237309503
10
205.52500000000003
20
93.827958056019881
10
205.52500000000006
20
80.827958056019895
42
-0.41421356237309503
10
205.02500000000003
20
80.327958056019895
0
LWPOLYLINE
5
109
100
AcDbEntity
8
0
100
AcDbPolyline
90
8
70
1
43
0.0
10
230.12500000000003
20
80.327958056019895
42
-0.41421356237309503
10
229.62500000000003
20
80.827958056019895
10
229.62500000000003
20
93.827958056019881
42
-0.41421356237309503
10
230.12500000000003
20
94.327958056019895
10
243.12500000000003
20
94.327958056019895
42
-0.41421356237309503
10
243.62500000000006
20
93.827958056019881
10
243.62500000000006
20
80.827958056019895
42
-0.41421356237309503
10
243.12500000000003
20
80.327958056019895
0
LWPOLYLINE
5
110
100
AcDbEntity
8
0
100
AcDbPolyline
90
8
70
1
43
0.0
10
153.42500000000001
20
80.827958056019895
10
153.42500000000001
20
93.827958056019881
42
-0.41421356237309503
10
153.92500000000001
20
94.327958056019895
10
166.92500000000001
20
94.327958056019895
42
-0.41421356237309503
10
167.42500000000004
20
93.827958056019881
10
167.42500000000004
20
80.827958056019895
42
-0.41421356237309503
10
166.92500000000001
20
80.327958056019895
10
153.92500000000001
20
80.327958056019895
42
-0.41421356237309503
0
LWPOLYLINE
5
111
100
AcDbEntity
8
0
100
AcDbPolyline
90
8
70
1
43
0.0
10
224.07500000000002
20
94.327958056019895
42
-0.41421356237309503
10
224.57500000000005
20
93.827958056019881
10
224.57500000000005
20
80.827958056019895
42
-0.41421356237309503
10
224.07500000000002
20
80.327958056019895
10
211.07500000000002
20
80.327958056019895
42
-0.41421356237309503
10
210.57500000000002
20
80.827958056019895
10
210.57500000000002
20
93.827958056019881
42
-0.41421356237309503
10
211.07500000000002
20
94.327958056019895
0
LWPOLYLINE
5
112
100
AcDbEntity
8
0
100
AcDbPolyline
90
8
70
1
43
0.0
10
172.47500000000002
20
80.827958056019895
10
172.47500000000002
20
93.827958056019881
42
-0.41421356237309503
10
172.97500000000002
20
94.327958056019895
10
185.97499999999999
20
94.327958056019895
42
-0.41421356237309503
10
186.47500000000002
20
93.827958056019881
10
186.47500000000002
20
80.827958056019895
42
-0.41421356237309503
10
185.97499999999999
20
80.327958056019895
10
172.97500000000002
20
80.327958056019895
42
-0.41421356237309503
0
LWPOLYLINE
5
113
100
AcDbEntity
8
0
100
AcDbPolyline
90
8
70
1
43
0.0
10
262.67500000000007
20
80.827958056019895
42
-0.41421356237309503
10
262.17500000000007
20
80.327958056019895
10
249.17500000000004
20
80.327958056019895
42
-0.41421356237309503
10
248.67500000000004
20
80.827958056019895
10
248.67500000000004
20
93.827958056019881
42
-0.41421356237309503
10
249.17500000000004
20
94.327958056019895
10
262.17500000000007
20
94.327958056019895
42
-0.41421356237309503
10
262.67500000000007
20
93.827958056019881
0
LWPOLYLINE
5
114
100
AcDbEntity
8
0
100
AcDbPolyline
90
8
70
1
43
0.0
10
268.22500000000002
20
80.327958056019895
42
-0.41421356237309503
10
267.72500000000002
20
80.827958056019895
10
267.72500000000002
20
93.827958056019881
42
-0.41421356237309503
10
268.22500000000002
20
94.327958056019895
10
281.22500000000008
20
94.327958056019895
42
-0.41421356237309503
10
281.72500000000008
20
93.827958056019881
10
281.72500000000008
20
80.827958056019895
42
-0.41421356237309503
10
281.22500000000008
20
80.327958056019895
0
LWPOLYLINE
5
115
100
AcDbEntity
8
0
100
AcDbPolyline
90
8
70
1
43
0.0
10
72.174999999999997
20
61.777958056019884
42
-0.41421356237309503
10
71.675000000000011
20
61.277958056019884
10
58.674999999999997
20
61.277958056019898
42
-0.41421356237309503
10
58.175000000000011
20
61.777958056019884
10
58.175000000000011
20
74.777958056019884
42
-0.41421356237309503
10
58.674999999999997
20
75.277958056019884
10
71.675000000000011
20
75.277958056019884
42
-0.41421356237309503
10
72.174999999999997
20
74.777958056019884
0
LWPOLYLINE
5
116
100
AcDbEntity
8
0
100
AcDbPolyline
90
8
70
1
43
0.0
10
90.724999999999994
20
61.277958056019877
10
77.724999999999994
20
61.277958056019898
42
-0.41421356237309503
10
77.224999999999994
20
61.777958056019884
10
77.224999999999994
20
74.777958056019884
42
-0.41421356237309503
10
77.724999999999994
20
75.277958056019884
10
90.724999999999994
20
75.277958056019898
42
-0.41421356237309503
10
91.225000000000009
20
74.777958056019884
10
91.225000000000009
20
61.777958056019884
42
-0.41421356237309503
0
LWPOLYLINE
5
117
100
AcDbEntity
8
0
100
AcDbPolyline
90
8
70
1
43
0.0
10
109.77500000000001
20
75.277958056019898
42
-0.41421356237309503
10
110.27500000000002
20
74.777958056019884
10
110.27500000000002
20
61.777958056019884
42
-0.41421356237309503
10
109.77500000000001
20
61.277958056019877
10
96.775000000000006
20
61.277958056019877
42
-0.41421356237309503
10
96.274999999999991
20
61.777958056019884
10
96.275000000000006
20
74.777958056019884
42
-0.41421356237309503
10
96.775000000000006
20
75.277958056019884
0
LWPOLYLINE
5
118
100
AcDbEntity
8
0
100
AcDbPolyline
90
8
70
1
43
0.0
10
300.27499999999998
20
94.327958056019895
42
-0.41421356237309503
10
300.77499999999998
20
93.827958056019881
10
300.77499999999998
20
80.827958056019895
42
-0.41421356237309503
10
300.27499999999998
20
80.327958056019895
10
287.27499999999998
20
80.327958056019924
42
-0.41421356237309503
10
286.77500000000003
20
80.827958056019895
10
286.77499999999998
20
93.827958056019881
42
-0.41421356237309503
10
287.27499999999998
20
94.327958056019895
0
LWPOLYLINE
5
119
100
AcDbEntity
8
0
100
AcDbPolyline
90
8
70
1
43
0.0
10
306.32499999999999
20
80.327958056019895
42
-0.41421356237309503
10
305.82499999999999
20
80.827958056019895
10
305.82499999999999
20
93.827958056019881
42
-0.41421356237309503
10
306.32499999999999
20
94.327958056019895
10
319.32500000000005
20
94.327958056019853
42
-0.41421356237309503
10
319.82500000000005
20
93.827958056019881
10
319.82500000000005
20
80.827958056019895
42
-0.41421356237309503
10
319.32500000000005
20
80.327958056019895
0
LWPOLYLINE
5
120
100
AcDbEntity
8
0
100
AcDbPolyline
90
8
70
1
43
0.0
10
1.5250000000000008
20
61.277958056019884
42
-0.41421356237309503
10
1.0250000000000008
20
61.777958056019884
10
1.0250000000000115
20
74.777958056019884
42
-0.41421356237309503
10
1.5250000000000008
20
75.277958056019884
10
14.525000000000002
20
75.277958056019884
42
-0.41421356237309503
10
15.025000000000002
20
74.777958056019884
10
15.025000000000009
20
61.777958056019884
42
-0.41421356237309503
10
14.525000000000002
20
61.277958056019877
0
LWPOLYLINE
5
121
100
AcDbEntity
8
0
100
AcDbPolyline
90
8
70
1
43
0.0
10
20.575000000000003
20
61.277958056019884
42
-0.41421356237309503
10
20.075000000000003
20
61.777958056019884
10
20.07500000000001
20
74.777958056019884
42
-0.41421356237309503
10
20.575000000000003
20
75.277958056019884
10
33.575000000000003
20
75.277958056019898
42
-0.41421356237309503
10
34.075000000000003
20
74.777958056019884
10
34.075000000000003
20
61.777958056019884
42
-0.41421356237309503
10
33.575000000000003
20
61.277958056019884
0
LWPOLYLINE
5
122
100
AcDbEntity
8
0
100
AcDbPolyline
90
8
70
1
43
0.0
10
53.125000000000007
20
61.777958056019884
42
-0.41421356237309503
10
52.625000000000014
20
61.277958056019884
10
39.625
20
61.277958056019884
42
-0.41421356237309503
10
39.125
20
61.777958056019884
10
39.125000000000007
20
74.777958056019884
42
-0.41421356237309503
10
39.625
20
75.277958056019884
10
52.625000000000014
20
75.277958056019884
42
-0.41421356237309503
10
53.125
20
74.777958056019884
0
LWPOLYLINE
5
123
100
AcDbEntity
8
0
100
AcDbPolyline
90
8
70
1
43
0.0
10
211.07500000000002
20
61.277958056019877
42
-0.41421356237309503
10
210.57500000000002
20
61.777958056019884
10
210.57500000000005
20
74.777958056019884
42
-0.41421356237309503
10
211.07500000000002
20
75.277958056019884
10
224.07500000000002
20
75.277958056019898
42
-0.41421356237309503
10
224.57500000000005
20
74.777958056019884
10
224.57500000000005
20
61.777958056019884
42
-0.41421356237309503
10
224.07500000000002
20
61.277958056019884
0
LWPOLYLINE
5
124
100
AcDbEntity
8
0
100
AcDbPolyline
90
8
70
1
43
0.0
10
153.92500000000001
20
75.277958056019884
10
166.92500000000001
20
75.277958056019898
42
-0.41421356237309503
10
167.42500000000004
20
74.777958056019884
10
167.42500000000004
20
61.777958056019884
42
-0.41421356237309503
10
166.92500000000001
20
61.277958056019877
10
153.92500000000001
20
61.277958056019877
42
-0.41421356237309503
10
153.42500000000001
20
61.777958056019884
10
153.42500000000004
20
74.777958056019884
42
-0.41421356237309503
0
LWPOLYLINE
5
125
100
AcDbEntity
8
0
100
AcDbPolyline
90
8
70
1
43
0.0
10
115.82500000000002
20
75.277958056019884
10
128.82499999999999
20
75.277958056019898
42
-0.41421356237309503
10
129.32499999999999
20
74.777958056019884
10
129.32499999999999
20
61.777958056019884
42
-0.41421356237309503
10
128.82499999999999
20
61.277958056019884
10
115.82500000000002
20
61.277958056019877
42
-0.41421356237309503
10
115.325
20
61.777958056019884
10
115.32500000000002
20
74.777958056019884
42
-0.41421356237309503
0
LWPOLYLINE
5
126
100
AcDbEntity
8
0
100
AcDbPolyline
90
8
70
1
43
0.0
10
186.47500000000002
20
74.777958056019884
10
186.47500000000002
20
61.777958056019884
42
-0.41421356237309503
10
185.97499999999999
20
61.277958056019877
10
172.97500000000002
20
61.277958056019877
42
-0.41421356237309503
10
172.47500000000002
20
61.777958056019884
10
172.47500000000002
20
74.777958056019884
42
-0.41421356237309503
10
172.97500000000002
20
75.277958056019884
10
185.97499999999999
20
75.277958056019898
42
-0.41421356237309503
0
LWPOLYLINE
5
127
100
AcDbEntity
8
0
100
AcDbPolyline
90
8
70
1
43
0.0
10
134.875
20
61.277958056019877
42
-0.41421356237309503
10
134.375
20
61.777958056019884
10
134.37500000000003
20
74.777958056019884
42
-0.41421356237309503
10
134.875
20
75.277958056019884
10
147.875
20
75.277958056019898
42
-0.41421356237309503
10
148.375
20
74.777958056019884
10
148.375
20
61.777958056019884
42
-0.41421356237309503
10
147.875
20
61.277958056019884
0
LWPOLYLINE
5
128
100
AcDbEntity
8
0
100
AcDbPolyline
90
8
70
1
43
0.0
10
230.12500000000003
20
61.277958056019877
42
-0.41421356237309503
10
229.62500000000003
20
61.777958056019884
10
229.62500000000006
20
74.777958056019884
42
-0.41421356237309503
10
230.12500000000003
20
75.277958056019884
10
243.12500000000003
20
75.277958056019898
42
-0.41421356237309503
10
243.62500000000006
20
74.777958056019884
10
243.62500000000006
20
61.777958056019884
42
-0.41421356237309503
10
243.12500000000003
20
61.277958056019884
0
LWPOLYLINE
5
129
100
AcDbEntity
8
0
100
AcDbPolyline
90
8
70
1
43
0.0
10
249.17500000000004
20
61.277958056019877
42
-0.41421356237309503
10
248.67500000000004
20
61.777958056019884
10
248.67500000000007
20
74.777958056019884
42
-0.41421356237309503
10
249.17500000000004
20
75.277958056019884
10
262.17500000000007
20
75.277958056019898
42
-0.41421356237309503
10
262.67500000000007
20
74.777958056019884
10
262.67500000000007
20
61.777958056019884
42
-0.41421356237309503
10
262.17500000000007
20
61.277958056019884
0
LWPOLYLINE
5
130
100
AcDbEntity
8
0
100
AcDbPolyline
90
8
70
1
43
0.0
10
191.52500000000003
20
61.777958056019884
10
191.52500000000003
20
74.777958056019884
42
-0.41421356237309503
10
192.02500000000003
20
75.277958056019884
10
205.02500000000003
20
75.277958056019898
42
-0.41421356237309503
10
205.52500000000006
20
74.777958056019884
10
205.52500000000006
20
61.777958056019884
42
-0.41421356237309503
10
205.02500000000003
20
61.277958056019884
10
192.02500000000003
20
61.277958056019877
42
-0.41421356237309503
0
LWPOLYLINE
5
131
100
AcDbEntity
8
0
100
AcDbPolyline
90
8
70
1
43
0.0
10
33.575000000000003
20
42.227958056019887
10
20.575000000000003
20
42.227958056019887
42
-0.41421356237309503
10
20.075000000000003
20
42.72795805601988
10
20.075000000000003
20
55.727958056019887
42
-0.41421356237309503
10
20.575000000000003
20
56.227958056019887
10
33.575000000000003
20
56.227958056019887
42
-0.41421356237309503
10
34.075000000000003
20
55.727958056019887
10
34.075000000000003
20
42.72795805601988
42
-0.41421356237309503
0
LWPOLYLINE
5
132
100
AcDbEntity
8
0
100
AcDbPolyline
90
8
70
1
43
0.0
10
286.77500000000003
20
74.777958056019884
42
-0.41421356237309503
10
287.27499999999998
20
75.277958056019884
10
300.27499999999998
20
75.277958056019898
42
-0.41421356237309503
10
300.77499999999998
20
74.777958056019884
10
300.77499999999998
20
61.777958056019884
42
-0.41421356237309503
10
300.27499999999998
20
61.277958056019877
10
287.27499999999998
20
61.277958056019912
42
-0.41421356237309503
10
286.77500000000003
20
61.777958056019884
0
LWPOLYLINE
5
133
100
AcDbEntity
8
0
100
AcDbPolyline
90
8
70
1
43
0.0
10
53.125000000000007
20
42.72795805601988
42
-0.41421356237309503
10
52.625000000000014
20
42.227958056019887
10
39.625
20
42.227958056019887
42
-0.41421356237309503
10
39.125
20
42.72795805601988
10
39.125
20
55.727958056019887
42
-0.41421356237309503
10
39.625
20
56.227958056019887
10
52.625000000000014
20
56.22795805601988
42
-0.41421356237309503
10
53.125
20
55.727958056019887
0
LWPOLYLINE
5
134
100
AcDbEntity
8
0
100
AcDbPolyline
90
8
70
1
43
0.0
10
281.22500000000008
20
61.277958056019877
10
268.22500000000002
20
61.277958056019877
42
-0.41421356237309503
10
267.72500000000002
20
61.777958056019884
10
267.72500000000008
20
74.777958056019884
42
-0.41421356237309503
10
268.22500000000002
20
75.277958056019884
10
281.22500000000008
20
75.277958056019898
42
-0.41421356237309503
10
281.72500000000008
20
74.777958056019884
10
281.72500000000008
20
61.777958056019884
42
-0.41421356237309503
0
LWPOLYLINE
5
135
100
AcDbEntity
8
0
100
AcDbPolyline
90
8
70
1
43
0.0
10
58.674999999999997
20
42.227958056019894
42
-0.41421356237309503
10
58.175000000000011
20
42.72795805601988
10
58.174999999999997
20
55.727958056019887
42
-0.41421356237309503
10
58.674999999999997
20
56.227958056019887
10
71.675000000000011
20
56.22795805601988
42
-0.41421356237309503
10
72.174999999999997
20
55.727958056019887
10
72.174999999999997
20
42.72795805601988
42
-0.41421356237309503
10
71.675000000000011
20
42.227958056019887
0
LWPOLYLINE
5
136
100
AcDbEntity
8
0
100
AcDbPolyline
90
8
70
1
43
0.0
10
1.0250000000000026
20
55.727958056019887
42
-0.41421356237309503
10
1.5250000000000008
20
56.227958056019887
10
14.525000000000002
20
56.227958056019887
42
-0.41421356237309503
10
15.024999999999999
20
55.727958056019887
10
15.024999999999999
20
42.72795805601988
42
-0.41421356237309503
10
14.525000000000002
20
42.227958056019887
10
1.5250000000000008
20
42.227958056019887
42
-0.41421356237309503
10
1.0250000000000008
20
42.72795805601988
0
LWPOLYLINE
5
137
100
AcDbEntity
8
0
100
AcDbPolyline
90
8
70
1
43
0.0
10
305.82500000000005
20
74.777958056019884
42
-0.41421356237309503
10
306.32499999999999
20
75.277958056019884
10
319.32500000000005
20
75.277958056019855
42
-0.41421356237309503
10
319.82500000000005
20
74.777958056019884
10
319.82500000000005
20
61.777958056019884
42
-0.41421356237309503
10
319.32500000000005
20
61.277958056019877
10
306.32499999999999
20
61.277958056019912
42
-0.41421356237309503
10
305.82500000000005
20
61.777958056019884
0
LWPOLYLINE
5
138
100
AcDbEntity
8
0
100
AcDbPolyline
90
8
70
1
43
0.0
10
77.724999999999994
20
42.227958056019894
42
-0.41421356237309503
10
77.224999999999994
20
42.72795805601988
10
77.224999999999994
20
55.727958056019887
42
-0.41421356237309503
10
77.724999999999994
20
56.227958056019887
10
90.724999999999994
20
56.227958056019894
42
-0.41421356237309503
10
91.225000000000009
20
55.727958056019887
10
91.224999999999994
20
42.72795805601988
42
-0.41421356237309503
10
90.724999999999994
20
42.227958056019887
0
LWPOLYLINE
5
139
100
AcDbEntity
8
0
100
AcDbPolyline
90
8
70
1
43
0.0
10
153.92500000000001
20
42.227958056019872
42
-0.41421356237309503
10
153.42500000000001
20
42.72795805601988
10
153.42500000000001
20
55.727958056019887
42
-0.41421356237309503
10
153.92500000000001
20
56.227958056019887
10
166.92500000000001
20
56.227958056019894
42
-0.41421356237309503
10
167.42500000000004
20
55.727958056019887
10
167.42500000000004
20
42.72795805601988
42
-0.41421356237309503
10
166.92500000000001
20
42.227958056019887
0
LWPOLYLINE
5
140
100
AcDbEntity
8
0
100
AcDbPolyline
90
8
70
1
43
0.0
10
147.875
20
42.227958056019887
10
134.875
20
42.227958056019872
42
-0.41421356237309503
10
134.375
20
42.72795805601988
10
134.375
20
55.727958056019887
42
-0.41421356237309503
10
134.875
20
56.227958056019887
10
147.875
20
56.227958056019894
42
-0.41421356237309503
10
148.375
20
55.727958056019887
10
148.375
20
42.72795805601988
42
-0.41421356237309503
0
LWPOLYLINE
5
141
100
AcDbEntity
8
0
100
AcDbPolyline
90
8
70
1
43
0.0
10
224.57500000000005
20
42.72795805601988
42
-0.41421356237309503
10
224.07500000000002
20
42.227958056019887
10
211.07500000000002
20
42.227958056019872
42
-0.41421356237309503
10
210.57500000000002
20
42.72795805601988
10
210.57500000000002
20
55.727958056019887
42
-0.41421356237309503
10
211.07500000000002
20
56.227958056019887
10
224.07500000000002
20
56.227958056019894
42
-0.41421356237309503
10
224.57500000000005
20
55.727958056019887
0
LWPOLYLINE
5
142
100
AcDbEntity
8
0
100
AcDbPolyline
90
8
70
1
43
0.0
10
205.02500000000003
20
56.227958056019894
42
-0.41421356237309503
10
205.52500000000006
20
55.727958056019887
10
205.52500000000006
20
42.72795805601988
42
-0.41421356237309503
10
205.02500000000003
20
42.227958056019887
10
192.02500000000003
20
42.227958056019872
42
-0.41421356237309503
10
191.52500000000003
20
42.72795805601988
10
191.52500000000003
20
55.727958056019887
42
-0.41421356237309503
10
192.02500000000003
20
56.227958056019887
0
LWPOLYLINE
5
143
100
AcDbEntity
8
0
100
AcDbPolyline
90
8
70
1
43
0.0
10
109.77500000000001
20
42.227958056019887
10
96.775000000000006
20
42.227958056019894
42
-0.41421356237309503
10
96.275000000000006
20
42.72795805601988
10
96.275000000000006
20
55.727958056019887
42
-0.41421356237309503
10
96.775000000000006
20
56.227958056019887
10
109.77500000000001
20
56.227958056019894
42
-0.41421356237309503
10
110.27500000000002
20
55.727958056019887
10
110.27500000000001
20
42.72795805601988
42
-0.41421356237309503
0
LWPOLYLINE
5
144
100
AcDbEntity
8
0
100
AcDbPolyline
90
8
70
1
43
0.0
10
115.325
20
42.72795805601988
10
115.32500000000002
20
55.727958056019887
42
-0.41421356237309503
10
115.82500000000002
20
56.227958056019887
10
128.82499999999999
20
56.227958056019894
42
-0.41421356237309503
10
129.32499999999999
20
55.727958056019887
10
129.32499999999999
20
42.72795805601988
42
-0.41421356237309503
10
128.82499999999999
20
42.227958056019887
10
115.82500000000002
20
42.227958056019872
42
-0.41421356237309503
0
LWPOLYLINE
5
145
100
AcDbEntity
8
0
100
AcDbPolyline
90
8
70
1
43
0.0
10
230.12500000000003
20
42.227958056019872
42
-0.41421356237309503
10
229.62500000000003
20
42.72795805601988
10
229.62500000000003
20
55.727958056019887
42
-0.41421356237309503
10
230.12500000000003
20
56.227958056019887
10
243.12500000000003
20
56.227958056019894
42
-0.41421356237309503
10
243.62500000000006
20
55.727958056019887
10
243.62500000000006
20
42.72795805601988
42
-0.41421356237309503
10
243.12500000000003
20
42.227958056019887
0
LWPOLYLINE
5
146
100
AcDbEntity
8
0
100
AcDbPolyline
90
8
70
1
43
0.0
10
172.97500000000002
20
42.227958056019872
42
-0.41421356237309503
10
172.47500000000002
20
42.72795805601988
10
172.47500000000002
20
55.727958056019887
42
-0.41421356237309503
10
172.97500000000002
20
56.227958056019887
10
185.97499999999999
20
56.227958056019894
42
-0.41421356237309503
10
186.47500000000002
20
55.727958056019887
10
186.47500000000002
20
42.72795805601988
42
-0.41421356237309503
10
185.97499999999999
20
42.227958056019887
0
LWPOLYLINE
5
147
100
AcDbEntity
8
0
100
AcDbPolyline
90
8
70
1
43
0.0
10
306.32499999999999
20
42.227958056019872
42
-0.41421356237309503
10
305.82499999999999
20
42.72795805601988
10
305.82499999999999
20
55.727958056019887
42
-0.41421356237309503
10
306.32499999999999
20
56.227958056019887
10
319.32500000000005
20
56.227958056019858
42
-0.41421356237309503
10
319.82500000000005
20
55.727958056019887
10
319.82500000000005
20
42.72795805601988
42
-0.41421356237309503
10
319.32500000000005
20
42.227958056019887
0
LWPOLYLINE
5
148
100
AcDbEntity
8
0
100
AcDbPolyline
90
8
70
1
43
0.0
10
300.27499999999998
20
56.227958056019894
42
-0.41421356237309503
10
300.77499999999998
20
55.727958056019887
10
300.77499999999998
20
42.72795805601988
42
-0.41421356237309503
10
300.27499999999998
20
42.227958056019887
10
287.27499999999998
20
42.227958056019872
42
-0.41421356237309503
10
286.77499999999998
20
42.72795805601988
10
286.77499999999998
20
55.727958056019887
42
-0.41421356237309503
10
287.27499999999998
20
56.227958056019887
0
LWPOLYLINE
5
149
100
AcDbEntity
8
0
100
AcDbPolyline
90
8
70
1
43
0.0
10
248.67500000000004
20
42.72795805601988
10
248.67500000000004
20
55.727958056019887
42
-0.41421356237309503
10
249.17500000000004
20
56.227958056019887
10
262.17500000000007
20
56.227958056019894
42
-0.41421356237309503
10
262.67500000000007
20
55.727958056019887
10
262.67500000000007
20
42.72795805601988
42
-0.41421356237309503
10
262.17500000000007
20
42.227958056019887
10
249.17500000000004
20
42.227958056019872
42
-0.41421356237309503
0
LWPOLYLINE
5
150
100
AcDbEntity
8
0
100
AcDbPolyline
90
8
70
1
43
0.0
10
267.72500000000002
20
42.72795805601988
10
267.72500000000002
20
55.727958056019887
42
-0.41421356237309503
10
268.22500000000002
20
56.227958056019887
10
281.22500000000008
20
56.227958056019894
42
-0.41421356237309503
10
281.72500000000008
20
55.727958056019887
10
281.72500000000008
20
42.72795805601988
42
-0.41421356237309503
10
281.22500000000008
20
42.227958056019887
10
268.22500000000002
20
42.227958056019872
42
-0.41421356237309503
0
LWPOLYLINE
5
151
100
AcDbEntity
8
0
100
AcDbPolyline
90
8
70
1
43
0.0
10
322.35000000000008
20
95.352958056019887
10
322.34999999999991
20
22.15295805601988
42
-0.41421356237309503
10
320.85000000000002
20
20.65295805601999
10
9.1848509936051509e-17
20
20.65295805601988
42
-0.41421356237309503
10
-1.5000000000000002
20
22.15295805601988
10
-1.5000000000000036
20
95.352958056019887
42
-0.41421356237309503
10
0
20
96.852958056019887
10
320.85000000000002
20
96.852958056019943
42
-0.41421356237309503
0
CIRCLE
5
152
100
AcDbEntity
8
0
100
AcDbCircle
10
17.550000000000001
20
78.302958056019889
30
0
40
1.0999999999999872
210
0
220
-0
230
1
0
CIRCLE
5
153
100
AcDbEntity
8
0
100
AcDbCircle
10
17.550000000000001
20
42.182958056019885
30
0
40
1.1000000000000161
210
0
220
-0
230
1
0
CIRCLE
5
154
100
AcDbEntity
8
0
100
AcDbCircle
10
28.66
20
58.752958056019878
30
0
40
0.89999999999997737
210
0
220
-0
230
1
0
CIRCLE
5
155
100
AcDbEntity
8
0
100
AcDbCircle
10
112.80000000000001
20
39.702958056019881
30
0
40
1.1000000000000094
210
0
220
-0
230
1
0
CIRCLE
5
156
100
AcDbEntity
8
0
100
AcDbCircle
10
131.84999999999999
20
78.402958056019884
30
0
40
1.0999999999999941
210
0
220
-0
230
1
0
CIRCLE
5
157
100
AcDbEntity
8
0
100
AcDbCircle
10
146.13999999999999
20
58.752958056019878
30
0
40
0.9000000000000058
210
0
220
-0
230
1
0
CIRCLE
5
158
100
AcDbEntity
8
0
100
AcDbCircle
10
246.15000000000003
20
77.802958056019889
30
0
40
1.100000000000019
210
0
220
-0
230
1
0
CIRCLE
5
159
100
AcDbEntity
8
0
100
AcDbCircle
10
208.05000000000004
20
39.702958056019881
30
0
40
1.1000000000000161
210
0
220
-0
230
1
0
CIRCLE
5
160
100
AcDbEntity
8
0
100
AcDbCircle
10
303.30000000000001
20
77.802958056019889
30
0
40
1.0999999999999983
210
0
220
-0
230
1
0
CIRCLE
5
161
100
AcDbEntity
8
0
100
AcDbCircle
10
303.30000000000001
20
39.202958056019881
30
0
40
1.1000000000000578
210
0
220
-0
230
1
0
CIRCLE
5
162
100
AcDbEntity
8
0
100
AcDbCircle
10
282.66000000000008
20
58.752958056019878
30
0
40
0.89999999999999858
210
0
220
-0
230
1
0
LWPOLYLINE
5
163
100
AcDbEntity
8
0
100
AcDbPolyline
90
16
70
1
43
0.0
10
8.6120000000000019
20
37.177958056019882
10
11.050000000000002
20
37.177958056019882
10
14.525000000000002
20
37.177958056019882
10
20.575000000000003
20
37.177958056019882
10
24.050000000000004
20
37.177958056019882
10
26.488000000000007
20
37.177958056019882
10
32.488
20
37.177958056019882
10
33.575000000000003
20
37.177958056019889
42
-0.41421356237309503
10
34.075000000000003
20
36.677958056019889
10
34.074999999999996
20
23.677958056019889
42
-0.41421356237309503
10
33.575000000000003
20
23.177958056019889
10
1.525000000000003
20
23.177958056019889
42
-0.41421356237309503
10
1.0250000000000026
20
23.677958056019889
10
1.0250000000000026
20
36.677958056019889
42
-0.41421356237309503
10
1.5250000000000008
20
37.177958056019882
10
2.612000000000001
20
37.177958056019882
0
LWPOLYLINE
5
164
100
AcDbEntity
8
0
100
AcDbPolyline
90
8
70
1
43
0.0
10
39.125
20
23.677958056019889
10
39.125000000000007
20
36.677958056019889
42
-0.41421356237309503
10
39.625
20
37.177958056019882
10
52.625000000000014
20
37.177958056019875
42
-0.41421356237309503
10
53.125
20
36.677958056019889
10
53.125000000000007
20
23.677958056019889
42
-0.41421356237309503
10
52.625000000000014
20
23.177958056019889
10
39.625
20
23.177958056019882
42
-0.41421356237309503
0
LWPOLYLINE
5
165
100
AcDbEntity
8
0
100
AcDbPolyline
90
8
70
1
43
0.0
10
58.175000000000011
20
23.677958056019889
10
58.174999999999997
20
36.677958056019889
42
-0.41421356237309503
10
58.674999999999997
20
37.177958056019882
10
71.675000000000011
20
37.177958056019875
42
-0.41421356237309503
10
72.174999999999997
20
36.677958056019889
10
72.174999999999997
20
23.677958056019889
42
-0.41421356237309503
10
71.675000000000011
20
23.177958056019889
10
58.674999999999997
20
23.177958056019897
42
-0.41421356237309503
0
LINE
5
166
100
AcDbEntity
8
0
100
AcDbLine
10
77.224999999999994
20
36.677958056019889
30
0
11
77.224999999999994
21
23.677958056019889
31
0
0
ARC
5
167
100
AcDbEntity
8
0
100
AcDbCircle
10
77.724999999999994
20
23.677958056019889
30
0
40
0.49999999999998934
210
0
220
0
230
1
100
AcDbArc
50
180
51
270
0
LINE
5
168
100
AcDbEntity
8
0
100
AcDbLine
10
77.724999999999994
20
23.177958056019897
30
0
11
90.724999999999994
21
23.177958056019889
31
0
0
ARC
5
169
100
AcDbEntity
8
0
100
AcDbCircle
10
77.724999999999994
20
36.677958056019889
30
0
40
0.49999999999999822
210
0
220
-0
230
1
100
AcDbArc
50
90
51
180
0
LINE
5
170
100
AcDbEntity
8
0
100
AcDbLine
10
90.724999999999994
20
37.177958056019875
30
0
11
77.724999999999994
21
37.177958056019882
31
0
0
LINE
5
171
100
AcDbEntity
8
0
100
AcDbLine
10
100.27500000000002
20
37.177958056019882
30
0
11
97.862000000000009
21
37.177958056019882
31
0
0
LINE
5
172
100
AcDbEntity
8
0
100
AcDbLine
10
106.77500000000001
20
23.177958056019889
30
0
11
96.775000000000006
21
23.177958056019882
31
0
0
LINE
5
173
100
AcDbEntity
8
0
100
AcDbLine
10
106.77500000000001
20
23.177958056019889
30
0
11
109.77500000000001
21
23.177958056019889
31
0
0
LINE
5
174
100
AcDbEntity
8
0
100
AcDbLine
10
109.77500000000001
20
23.177958056019889
30
0
11
115.82500000000002
21
23.177958056019889
31
0
0
LINE
5
175
100
AcDbEntity
8
0
100
AcDbLine
10
115.82500000000002
20
23.177958056019889
30
0
11
119.3
21
23.177958056019889
31
0
0
LINE
5
176
100
AcDbEntity
8
0
100
AcDbLine
10
119.3
20
23.177958056019889
30
0
11
121.23800000000001
21
23.177958056019889
31
0
0
LINE
5
177
100
AcDbEntity
8
0
100
AcDbLine
10
128.82499999999999
20
23.177958056019889
30
0
11
121.23800000000001
21
23.177958056019889
31
0
0
ARC
5
178
100
AcDbEntity
8
0
100
AcDbCircle
10
128.82499999999999
20
23.677958056019889
30
0
40
0.49999999999999822
210
-0
220
0
230
1
100
AcDbArc
50
-90
51
0
0
LINE
5
179
100
AcDbEntity
8
0
100
AcDbLine
10
129.32499999999999
20
23.677958056019889
30
0
11
129.32499999999999
21
36.677958056019889
31
0
0
ARC
5
180
100
AcDbEntity
8
0
100
AcDbCircle
10
128.82499999999999
20
36.677958056019889
30
0
40
0.50000000000000711
210
0
220
-0
230
1
100
AcDbArc
50
0
51
90
0
LINE
5
181
100
AcDbEntity
8
0
100
AcDbLine
10
128.82499999999999
20
37.177958056019889
30
0
11
127.738
21
37.177958056019882
31
0
0
LINE
5
182
100
AcDbEntity
8
0
100
AcDbLine
10
127.738
20
37.177958056019882
30
0
11
121.738
21
37.177958056019882
31
0
0
LINE
5
183
100
AcDbEntity
8
0
100
AcDbLine
10
121.738
20
37.177958056019882
30
0
11
119.3
21
37.177958056019882
31
0
0
LINE
5
184
100
AcDbEntity
8
0
100
AcDbLine
10
119.3
20
37.177958056019882
30
0
11
115.82500000000002
21
37.177958056019882
31
0
0
LINE
5
185
100
AcDbEntity
8
0
100
AcDbLine
10
115.82500000000002
20
37.177958056019882
30
0
11
109.77500000000001
21
37.177958056019882
31
0
0
LINE
5
186
100
AcDbEntity
8
0
100
AcDbLine
10
109.77500000000001
20
37.177958056019882
30
0
11
106.30000000000001
21
37.177958056019882
31
0
0
LINE
5
187
100
AcDbEntity
8
0
100
AcDbLine
10
106.30000000000001
20
37.177958056019882
30
0
11
106.27500000000001
21
37.177958056019882
31
0
0
LINE
5
188
100
AcDbEntity
8
0
100
AcDbLine
10
103.86200000000001
20
37.177958056019882
30
0
11
100.27500000000002
21
37.177958056019882
31
0
0
LINE
5
189
100
AcDbEntity
8
0
100
AcDbLine
10
106.27500000000001
20
37.177958056019882
30
0
11
103.86200000000001
21
37.177958056019882
31
0
0
LWPOLYLINE
5
190
100
AcDbEntity
8
0
100
AcDbPolyline
90
8
70
1
43
0.0
10
134.375
20
23.677958056019889
10
134.375
20
36.677958056019889
42
-0.41421356237309503
10
134.875
20
37.177958056019882
10
147.875
20
37.177958056019889
42
-0.41421356237309503
10
148.375
20
36.677958056019889
10
148.375
20
23.677958056019889
42
-0.41421356237309503
10
147.875
20
23.177958056019889
10
134.875
20
23.177958056019882
42
-0.41421356237309503
0
LWPOLYLINE
5
191
100
AcDbEntity
8
0
100
AcDbPolyline
90
8
70
1
43
0.0
10
153.42500000000001
20
23.677958056019889
10
153.42500000000001
20
36.677958056019889
42
-0.41421356237309503
10
153.92500000000001
20
37.177958056019882
10
166.92500000000001
20
37.177958056019889
42
-0.41421356237309503
10
167.42500000000004
20
36.677958056019889
10
167.42500000000004
20
23.677958056019889
42
-0.41421356237309503
10
166.92500000000001
20
23.177958056019889
10
153.92500000000001
20
23.177958056019882
42
-0.41421356237309503
0
LWPOLYLINE
5
192
100
AcDbEntity
8
0
100
AcDbPolyline
90
8
70
1
43
0.0
10
172.47500000000002
20
23.677958056019889
10
172.47500000000002
20
36.677958056019889
42
-0.41421356237309503
10
172.97500000000002
20
37.177958056019882
10
185.97499999999999
20
37.177958056019889
42
-0.41421356237309503
10
186.47500000000002
20
36.677958056019889
10
186.47500000000002
20
23.677958056019889
42
-0.41421356237309503
10
185.97499999999999
20
23.177958056019889
10
172.97500000000002
20
23.177958056019882
42
-0.41421356237309503
0
ARC
5
193
100
AcDbEntity
8
0
100
AcDbCircle
10
192.02500000000003
20
36.677958056019889
30
0
40
0.49999999999999822
210
0
220
-0
230
1
100
AcDbArc
50
90
51
180
0
LINE
5
194
100
AcDbEntity
8
0
100
AcDbLine
10
191.52500000000003
20
36.677958056019889
30
0
11
191.52500000000003
21
23.677958056019889
31
0
0
ARC
5
195
100
AcDbEntity
8
0
100
AcDbCircle
10
192.02500000000003
20
23.677958056019889
30
0
40
0.50000000000000711
210
0
220
0
230
1
100
AcDbArc
50
180
51
270
0
LINE
5
196
100
AcDbEntity
8
0
100
AcDbLine
10
192.02500000000003
20
23.177958056019882
30
0
11
192.61200000000002
21
23.177958056019889
31
0
0
LINE
5
197
100
AcDbEntity
8
0
100
AcDbLine
10
199.61200000000002
20
23.177958056019889
30
0
11
192.61200000000002
21
23.177958056019889
31
0
0
LINE
5
198
100
AcDbEntity
8
0
100
AcDbLine
10
199.61200000000002
20
23.177958056019889
30
0
11
201.55000000000004
21
23.177958056019889
31
0
0
LINE
5
199
100
AcDbEntity
8
0
100
AcDbLine
10
201.55000000000004
20
23.177958056019889
30
0
11
205.02500000000003
21
23.177958056019889
31
0
0
LINE
5
200
100
AcDbEntity
8
0
100
AcDbLine
10
205.02500000000003
20
23.177958056019889
30
0
11
211.07500000000002
21
23.177958056019889
31
0
0
LINE
5
201
100
AcDbEntity
8
0
100
AcDbLine
10
211.07500000000002
20
23.177958056019889
30
0
11
214.07500000000002
21
23.177958056019889
31
0
0
LINE
5
202
100
AcDbEntity
8
0
100
AcDbLine
10
223.48800000000006
20
23.177958056019889
30
0
11
214.07500000000002
21
23.177958056019889
31
0
0
LINE
5
203
100
AcDbEntity
8
0
100
AcDbLine
10
222.98800000000003
20
37.177958056019882
30
0
11
220.57500000000002
21
37.177958056019882
31
0
0
LINE
5
204
100
AcDbEntity
8
0
100
AcDbLine
10
220.57500000000002
20
37.177958056019882
30
0
11
216.98800000000003
21
37.177958056019882
31
0
0
LINE
5
205
100
AcDbEntity
8
0
100
AcDbLine
10
216.98800000000003
20
37.177958056019882
30
0
11
214.57500000000005
21
37.177958056019882
31
0
0
LINE
5
206
100
AcDbEntity
8
0
100
AcDbLine
10
214.57500000000005
20
37.177958056019882
30
0
11
214.55000000000007
21
37.177958056019882
31
0
0
LINE
5
207
100
AcDbEntity
8
0
100
AcDbLine
10
214.55000000000007
20
37.177958056019882
30
0
11
211.07500000000002
21
37.177958056019882
31
0
0
LINE
5
208
100
AcDbEntity
8
0
100
AcDbLine
10
211.07500000000002
20
37.177958056019882
30
0
11
205.02500000000003
21
37.177958056019882
31
0
0
LINE
5
209
100
AcDbEntity
8
0
100
AcDbLine
10
205.02500000000003
20
37.177958056019882
30
0
11
201.55000000000004
21
37.177958056019882
31
0
0
LINE
5
210
100
AcDbEntity
8
0
100
AcDbLine
10
201.55000000000004
20
37.177958056019882
30
0
11
199.11200000000002
21
37.177958056019882
31
0
0
LINE
5
211
100
AcDbEntity
8
0
100
AcDbLine
10
193.11200000000002
20
37.177958056019882
30
0
11
192.02500000000003
21
37.177958056019882
31
0
0
LINE
5
212
100
AcDbEntity
8
0
100
AcDbLine
10
199.11200000000002
20
37.177958056019882
30
0
11
193.11200000000002
21
37.177958056019882
31
0
0
LINE
5
213
100
AcDbEntity
8
0
100
AcDbLine
10
230.12500000000003
20
23.177958056019882
30
0
11
243.12500000000003
21
23.177958056019889
31
0
0
ARC
5
214
100
AcDbEntity
8
0
100
AcDbCircle
10
243.12500000000003
20
23.677958056019889
30
0
40
0.49999999999999822
210
-0
220
0
230
1
100
AcDbArc
50
-90
51
0
0
LINE
5
215
100
AcDbEntity
8
0
100
AcDbLine
10
243.62500000000006
20
23.677958056019889
30
0
11
243.62500000000006
21
36.677958056019889
31
0
0
ARC
5
216
100
AcDbEntity
8
0
100
AcDbCircle
10
243.12500000000003
20
36.677958056019889
30
0
40
0.50000000000000711
210
0
220
-0
230
1
100
AcDbArc
50
0
51
90
0
LINE
5
217
100
AcDbEntity
8
0
100
AcDbLine
10
243.12500000000003
20
37.177958056019889
30
0
11
230.12500000000003
21
37.177958056019882
31
0
0
LWPOLYLINE
5
218
100
AcDbEntity
8
0
100
AcDbPolyline
90
8
70
1
43
0.0
10
248.67500000000004
20
23.677958056019889
10
248.67500000000004
20
36.677958056019889
42
-0.41421356237309503
10
249.17500000000004
20
37.177958056019882
10
262.17500000000007
20
37.177958056019889
42
-0.41421356237309503
10
262.67500000000007
20
36.677958056019889
10
262.67500000000007
20
23.677958056019889
42
-0.41421356237309503
10
262.17500000000007
20
23.177958056019889
10
249.17500000000004
20
23.177958056019882
42
-0.41421356237309503
0
LWPOLYLINE
5
219
100
AcDbEntity
8
0
100
AcDbPolyline
90
22
70
1
43
0.0
10
268.22500000000002
20
37.177958056019882
10
269.31200000000001
20
37.177958056019882
10
275.31200000000007
20
37.177958056019882
10
277.75
20
37.177958056019882
10
281.22500000000008
20
37.177958056019882
10
287.27499999999998
20
37.177958056019882
10
290.75
20
37.177958056019882
10
293.18800000000005
20
37.177958056019882
10
299.18799999999999
20
37.177958056019882
10
300.27499999999998
20
37.177958056019889
42
-0.41421356237309503
10
300.77499999999998
20
36.677958056019889
10
300.77499999999998
20
23.677958056019889
42
-0.41421356237309503
10
300.27499999999998
20
23.177958056019889
10
292.68800000000005
20
23.177958056019889
10
290.75
20
23.177958056019889
10
287.27499999999998
20
23.177958056019889
10
281.22500000000008
20
23.177958056019889
10
277.75
20
23.177958056019889
10
275.81200000000001
20
23.177958056019889
10
268.22500000000002
20
23.177958056019882
42
-0.41421356237309503
10
267.72500000000002
20
23.677958056019889
10
267.72500000000002
20
36.677958056019889
42
-0.41421356237309503
0
LWPOLYLINE
5
220
100
AcDbEntity
8
0
100
AcDbPolyline
90
8
70
1
43
0.0
10
305.82500000000005
20
23.677958056019889
10
305.82499999999999
20
36.677958056019889
42
-0.41421356237309503
10
306.32499999999999
20
37.177958056019882
10
319.32500000000005
20
37.177958056019861
42
-0.41421356237309503
10
319.82500000000005
20
36.677958056019889
10
319.82500000000005
20
23.677958056019889
42
-0.41421356237309503
10
319.32500000000005
20
23.177958056019889
10
306.32499999999999
20
23.177958056019918
42
-0.41421356237309503
0
LINE
5
221
100
AcDbEntity
8
0
100
AcDbLine
10
90.724999999999994
20
37.177958056019875
30
0
11
97.862000000000009
21
37.177958056019882
31
0
0
LINE
5
222
100
AcDbEntity
8
0
100
AcDbLine
10
96.775000000000006
20
23.177958056019882
30
0
11
90.724999999999994
21
23.177958056019889
31
0
0
LINE
5
223
100
AcDbEntity
8
0
100
AcDbLine
10
222.98800000000003
20
37.177958056019882
30
0
11
230.12500000000003
21
37.177958056019882
31
0
0
LINE
5
224
100
AcDbEntity
8
0
100
AcDbLine
10
230.12500000000003
20
23.177958056019882
30
0
11
223.48800000000006
21
23.177958056019889
31
0
0
ENDSEC
0
SECTION
2
OBJECTS
0
DICTIONARY
5
C
100
AcDbDictionary
3
ACAD_GROUP
350
D
3
ACAD_MLINESTYLE
350
17
0
DICTIONARY
5
D
100
AcDbDictionary
0
DICTIONARY
5
1A
330
C
100
AcDbDictionary
0
DICTIONARY
5
17
100
AcDbDictionary
0
ENDSEC
0
EOF
