0
SECTION
2
HEADER
9
$INSUNITS
70
4
9
$ACADVER
1
AC1014
9
$HANDSEED
5
FFFF
0
ENDSEC
0
SECTION
2
TABLES
0
TABLE
2
VPORT
5
8
100
AcDbSymbolTable
0
ENDTAB
0
TABLE
2
LTYPE
5
5
100
AcDbSymbolTable
0
LTYPE
5
14
100
AcDbSymbolTableRecord
100
AcDbLinetypeTableRecord
2
BYBLOCK
70
0
0
LTYPE
5
15
100
AcDbSymbolTableRecord
100
AcDbLinetypeTableRecord
2
BYLAYER
70
0
0
ENDTAB
0
TABLE
2
LAYER
5
2
100
AcDbSymbolTable
70
2
0
LAYER
5
50
100
AcDbSymbolTableRecord
100
AcDbLayerTableRecord
2
0
70
0
6
CONTINUOUS
0
ENDTAB
0
TABLE
2
STYLE
5
3
100
AcDbSymbolTable
70
1
0
STYLE
5
11
100
AcDbSymbolTableRecord
100
AcDbTextStyleTableRecord
2
STANDARD
70
0
0
ENDTAB
0
TABLE
2
VIEW
5
6
100
AcDbSymbolTable
70
0
0
ENDTAB
0
TABLE
2
UCS
5
7
100
AcDbSymbolTable
70
0
0
ENDTAB
0
TABLE
2
APPID
5
9
100
AcDbSymbolTable
70
2
0
APPID
5
12
100
AcDbSymbolTableRecord
100
AcDbRegAppTableRecord
2
ACAD
70
0
0
ENDTAB
0
TABLE
2
DIMSTYLE
5
A
100
AcDbSymbolTable
70
1
0
ENDTAB
0
TABLE
2
BLOCK_RECORD
5
1
100
AcDbSymbolTable
70
1
0
BLOCK_RECORD
5
1F
100
AcDbSymbolTableRecord
100
AcDbBlockTableRecord
2
*MODEL_SPACE
0
BLOCK_RECORD
5
1B
100
AcDbSymbolTableRecord
100
AcDbBlockTableRecord
2
*PAPER_SPACE
0
ENDTAB
0
ENDSEC
0
SECTION
2
BLOCKS
0
BLOCK
5
20
100
AcDbEntity
100
AcDbBlockBegin
2
*MODEL_SPACE
0
ENDBLK
5
21
100
AcDbEntity
100
AcDbBlockEnd
0
BLOCK
5
1C
100
AcDbEntity
100
AcDbBlockBegin
2
*PAPER_SPACE
0
ENDBLK
5
1D
100
AcDbEntity
100
AcDbBlockEnd
0
ENDSEC
0
SECTION
2
ENTITIES
0
LWPOLYLINE
5
100
100
AcDbEntity
8
0
100
AcDbPolyline
90
8
70
1
43
0.0
10
-150.3247614
20
-92.678971784262089
10
-137.3257614
20
-92.678971784262089
42
0.4142135623730846
10
-136.82576140000003
20
-92.178971784262075
10
-136.8257614
20
-79.179671784262069
42
0.41421356237309503
10
-137.3257614
20
-78.679671784262069
10
-150.3247614
20
-78.679671784262069
42
0.4142135623730846
10
-150.8247614
20
-79.179671784262055
10
-150.8247614
20
-92.17897178426206
42
0.41421356237309503
0
LWPOLYLINE
5
101
100
AcDbEntity
8
0
100
AcDbPolyline
90
8
70
1
43
0.0
10
-112.72476140000001
20
-22.029671784262025
10
-112.72476140000001
20
-35.028971784262033
42
0.41421356237309503
10
-112.22476139999999
20
-35.528971784262033
10
-99.224061399999982
20
-35.528971784262033
42
0.41421356237309503
10
-98.724061399999982
20
-35.028971784262033
10
-98.724061399999968
20
-22.029671784262025
42
0.41421356237309503
10
-99.224061399999982
20
-21.529671784262021
10
-112.22476139999999
20
-21.529671784262025
42
0.41421356237309503
0
LWPOLYLINE
5
102
100
AcDbEntity
8
0
100
AcDbPolyline
90
8
70
1
43
0.0
10
-112.72476140000001
20
-41.07967178426204
10
-112.72476140000001
20
-54.078971784262045
42
0.41421356237309503
10
-112.22476139999999
20
-54.578971784262052
10
-99.224061399999982
20
-54.578971784262045
42
0.41421356237309503
10
-98.724061399999982
20
-54.078971784262045
10
-98.724061399999968
20
-41.07967178426204
42
0.41421356237309503
10
-99.224061399999982
20
-40.57967178426204
10
-112.22476139999999
20
-40.57967178426204
42
0.41421356237309503
0
LWPOLYLINE
5
103
100
AcDbEntity
8
0
100
AcDbPolyline
90
8
70
1
43
0.0
10
-150.8247614
20
-41.07967178426204
10
-150.8247614
20
-54.078971784262045
42
0.41421356237309503
10
-150.3247614
20
-54.578971784262052
10
-137.3257614
20
-54.578971784262045
42
0.41421356237309503
10
-136.82576140000003
20
-54.078971784262045
10
-136.8257614
20
-41.07967178426204
42
0.41421356237309503
10
-137.3257614
20
-40.57967178426204
10
-150.3247614
20
-40.57967178426204
42
0.41421356237309503
0
LWPOLYLINE
5
104
100
AcDbEntity
8
0
100
AcDbPolyline
90
8
70
1
43
0.0
10
-227.02476140000002
20
-79.179671784262055
10
-227.02476140000002
20
-92.17897178426206
42
0.41421356237309503
10
-226.52476140000002
20
-92.678971784262089
10
-213.52576139999999
20
-92.678971784262075
42
0.4142135623730846
10
-213.02576139999999
20
-92.178971784262075
10
-213.02576139999999
20
-79.179671784262069
42
0.41421356237309503
10
-213.52576139999999
20
-78.679671784262069
10
-226.52476140000002
20
-78.679671784262069
42
0.4142135623730846
0
LWPOLYLINE
5
105
100
AcDbEntity
8
0
100
AcDbPolyline
90
8
70
1
43
0.0
10
-193.97576140000001
20
-92.178971784262075
10
-193.97576140000001
20
-79.179671784262069
42
0.41421356237309503
10
-194.47576140000001
20
-78.679671784262069
10
-207.47476140000003
20
-78.679671784262069
42
0.4142135623730846
10
-207.97476140000001
20
-79.179671784262055
10
-207.97476140000003
20
-92.17897178426206
42
0.41421356237309503
10
-207.47476140000003
20
-92.678971784262089
10
-194.47576140000001
20
-92.678971784262075
42
0.4142135623730846
0
LWPOLYLINE
5
106
100
AcDbEntity
8
0
100
AcDbPolyline
90
8
70
1
43
0.0
10
-213.02576139999999
20
-73.128971784262077
10
-213.02576139999999
20
-60.129671784262058
42
0.41421356237309503
10
-213.52576139999999
20
-59.629671784262058
10
-226.52476140000002
20
-59.629671784262058
42
0.41421356237309503
10
-227.02476140000002
20
-60.129671784262058
10
-227.02476140000002
20
-73.128971784262077
42
0.41421356237309503
10
-226.52476140000002
20
-73.628971784262077
10
-213.52576139999999
20
-73.628971784262077
42
0.41421356237309503
0
LWPOLYLINE
5
107
100
AcDbEntity
8
0
100
AcDbPolyline
90
8
70
1
43
0.0
10
-213.02576139999999
20
-15.979171784262023
10
-213.02576139999999
20
-2.9796417842620109
42
0.41421356237309503
10
-213.52576139999999
20
-2.4796417842620109
10
-226.52476140000002
20
-2.4796417842620104
42
0.4142135623730947
10
-227.02476140000002
20
-2.9796417842620104
10
-227.02476140000002
20
-15.979171784262023
42
0.41421356237309503
10
-226.52476140000002
20
-16.479171784262022
10
-213.52576139999999
20
-16.479171784262022
42
0.41421356237309503
0
LWPOLYLINE
5
108
100
AcDbEntity
8
0
100
AcDbPolyline
90
8
70
1
43
0.0
10
-207.97476140000001
20
-2.9796417842620104
10
-207.97476140000001
20
-15.979171784262023
42
0.41421356237309503
10
-207.47476140000003
20
-16.479171784262022
10
-194.47576140000001
20
-16.479171784262022
42
0.41421356237309503
10
-193.97576140000001
20
-15.979171784262023
10
-193.97576140000001
20
-2.9796417842620109
42
0.41421356237309503
10
-194.47576140000001
20
-2.4796417842620109
10
-207.47476140000003
20
-2.4796417842620104
42
0.4142135623730947
0
LWPOLYLINE
5
109
100
AcDbEntity
8
0
100
AcDbPolyline
90
8
70
1
43
0.0
10
-207.47476140000003
20
-54.578971784262052
10
-194.47576140000001
20
-54.578971784262052
42
0.41421356237309503
10
-193.97576140000001
20
-54.078971784262045
10
-193.97576140000001
20
-41.07967178426204
42
0.41421356237309503
10
-194.47576140000001
20
-40.57967178426204
10
-207.47476140000003
20
-40.57967178426204
42
0.41421356237309503
10
-207.97476140000001
20
-41.07967178426204
10
-207.97476140000003
20
-54.078971784262045
42
0.41421356237309503
0
LWPOLYLINE
5
110
100
AcDbEntity
8
0
100
AcDbPolyline
90
8
70
1
43
0.0
10
-193.97576140000001
20
-73.128971784262077
10
-193.97576140000001
20
-60.129671784262058
42
0.41421356237309503
10
-194.47576140000001
20
-59.629671784262058
10
-207.47476140000003
20
-59.629671784262058
42
0.41421356237309503
10
-207.97476140000001
20
-60.129671784262058
10
-207.97476140000003
20
-73.128971784262077
42
0.41421356237309503
10
-207.47476140000003
20
-73.628971784262077
10
-194.47576140000001
20
-73.628971784262077
42
0.41421356237309503
0
LWPOLYLINE
5
111
100
AcDbEntity
8
0
100
AcDbPolyline
90
8
70
1
43
0.0
10
-226.52476140000002
20
-35.528971784262033
10
-213.52576139999999
20
-35.528971784262033
42
0.41421356237309503
10
-213.02576139999999
20
-35.028971784262033
10
-213.02576139999999
20
-22.029671784262025
42
0.41421356237309503
10
-213.52576139999999
20
-21.529671784262021
10
-226.52476140000002
20
-21.529671784262025
42
0.41421356237309503
10
-227.02476140000002
20
-22.029671784262025
10
-227.02476140000002
20
-35.028971784262033
42
0.41421356237309503
0
LWPOLYLINE
5
112
100
AcDbEntity
8
0
100
AcDbPolyline
90
8
70
1
43
0.0
10
-36.024761399999974
20
-16.479171784262022
10
-23.025461399999969
20
-16.479171784262022
42
0.41421356237309503
10
-22.525461399999969
20
-15.979171784262023
10
-22.525461399999969
20
-2.9796417842620104
42
0.41421356237309503
10
-23.025461399999969
20
-2.4796417842620104
10
-36.024761399999974
20
-2.47964178426201
42
0.41421356237309503
10
-36.524761399999981
20
-2.9796417842620104
10
-36.524761399999974
20
-15.979171784262023
42
0.41421356237309503
0
LWPOLYLINE
5
113
100
AcDbEntity
8
0
100
AcDbPolyline
90
8
70
1
43
0.0
10
-61.125461399999985
20
-78.679671784262069
10
-74.124761399999983
20
-78.679671784262069
42
0.4142135623730846
10
-74.624761399999983
20
-79.179671784262055
10
-74.624761399999983
20
-92.17897178426206
42
0.41421356237309503
10
-74.124761399999983
20
-92.678971784262089
10
-61.125461399999985
20
-92.678971784262075
42
0.4142135623730846
10
-60.625461399999985
20
-92.178971784262075
10
-60.625461399999985
20
-79.179671784262069
42
0.41421356237309503
0
LWPOLYLINE
5
114
100
AcDbEntity
8
0
100
AcDbPolyline
90
8
70
1
43
0.0
10
-131.77476139999999
20
-79.179671784262055
10
-131.77476139999999
20
-92.17897178426206
42
0.41421356237310542
10
-131.27476139999996
20
-92.678971784262089
10
-118.27376139999998
20
-92.678971784262075
42
0.4142135623730846
10
-117.7737614
20
-92.178971784262075
10
-117.77376139999998
20
-79.179671784262069
42
0.41421356237310542
10
-118.2737614
20
-78.679671784262069
10
-131.27476139999999
20
-78.679671784262069
42
0.4142135623730846
0
LWPOLYLINE
5
115
100
AcDbEntity
8
0
100
AcDbPolyline
90
8
70
1
43
0.0
10
-131.77476139999999
20
-22.029671784262025
10
-131.77476139999999
20
-35.028971784262033
42
0.41421356237310542
10
-131.27476139999996
20
-35.528971784262033
10
-118.27376139999998
20
-35.528971784262033
42
0.41421356237309503
10
-117.7737614
20
-35.028971784262033
10
-117.77376139999998
20
-22.029671784262025
42
0.41421356237310542
10
-118.2737614
20
-21.529671784262021
10
-131.27476139999999
20
-21.529671784262025
42
0.41421356237309503
0
LWPOLYLINE
5
116
100
AcDbEntity
8
0
100
AcDbPolyline
90
8
70
1
43
0.0
10
-117.7737614
20
-73.128971784262077
10
-117.7737614
20
-60.129671784262058
42
0.41421356237310542
10
-118.2737614
20
-59.629671784262058
10
-131.27476139999999
20
-59.629671784262058
42
0.41421356237309503
10
-131.77476139999999
20
-60.129671784262058
10
-131.77476139999999
20
-73.128971784262077
42
0.41421356237310542
10
-131.27476139999996
20
-73.628971784262077
10
-118.27376139999998
20
-73.628971784262077
42
0.41421356237309503
0
LWPOLYLINE
5
117
100
AcDbEntity
8
0
100
AcDbPolyline
90
8
70
1
43
0.0
10
-188.92476139999999
20
-22.029671784262025
10
-188.92476139999999
20
-35.028971784262033
42
0.41421356237309503
10
-188.42476139999999
20
-35.528971784262033
10
-175.4257614
20
-35.528971784262033
42
0.41421356237309503
10
-174.9257614
20
-35.028971784262033
10
-174.9257614
20
-22.029671784262025
42
0.41421356237309503
10
-175.4257614
20
-21.529671784262021
10
-188.42476139999999
20
-21.529671784262025
42
0.41421356237309503
0
LWPOLYLINE
5
118
100
AcDbEntity
8
0
100
AcDbPolyline
90
8
70
1
43
0.0
10
-226.52476140000002
20
-54.578971784262052
10
-213.52576139999999
20
-54.578971784262052
42
0.41421356237309503
10
-213.02576139999999
20
-54.078971784262045
10
-213.02576139999999
20
-41.07967178426204
42
0.41421356237309503
10
-213.52576139999999
20
-40.57967178426204
10
-226.52476140000002
20
-40.57967178426204
42
0.41421356237309503
10
-227.02476140000002
20
-41.07967178426204
10
-227.02476140000002
20
-54.078971784262045
42
0.41421356237309503
0
LWPOLYLINE
5
119
100
AcDbEntity
8
0
100
AcDbPolyline
90
8
70
1
43
0.0
10
-60.625461399999985
20
-73.128971784262077
10
-60.625461399999985
20
-60.129671784262058
42
0.41421356237309503
10
-61.125461399999985
20
-59.629671784262058
10
-74.124761399999983
20
-59.629671784262058
42
0.41421356237309503
10
-74.624761399999983
20
-60.129671784262058
10
-74.624761399999983
20
-73.128971784262077
42
0.41421356237309503
10
-74.124761399999983
20
-73.628971784262077
10
-61.125461399999985
20
-73.628971784262077
42
0.41421356237309503
0
LWPOLYLINE
5
120
100
AcDbEntity
8
0
100
AcDbPolyline
90
8
70
1
43
0.0
10
-174.9257614
20
-92.178971784262075
10
-174.9257614
20
-79.179671784262069
42
0.41421356237309503
10
-175.4257614
20
-78.679671784262069
10
-188.42476139999999
20
-78.679671784262069
42
0.4142135623730846
10
-188.92476139999999
20
-79.179671784262055
10
-188.92476139999999
20
-92.17897178426206
42
0.41421356237309503
10
-188.42476139999999
20
-92.678971784262089
10
-175.4257614
20
-92.678971784262075
42
0.4142135623730846
0
LWPOLYLINE
5
121
100
AcDbEntity
8
0
100
AcDbPolyline
90
8
70
1
43
0.0
10
-169.87476140000001
20
-41.07967178426204
10
-169.87476140000001
20
-54.078971784262045
42
0.41421356237309503
10
-169.37476140000001
20
-54.578971784262052
10
-156.37576139999999
20
-54.578971784262045
42
0.41421356237309503
10
-155.87576139999999
20
-54.078971784262045
10
-155.87576139999999
20
-41.07967178426204
42
0.41421356237309503
10
-156.37576139999999
20
-40.57967178426204
10
-169.37476140000001
20
-40.57967178426204
42
0.41421356237309503
0
LWPOLYLINE
5
122
100
AcDbEntity
8
0
100
AcDbPolyline
90
8
70
1
43
0.0
10
-42.07546139999998
20
-59.629671784262058
10
-55.074761399999979
20
-59.629671784262058
42
0.41421356237309503
10
-55.574761399999979
20
-60.129671784262058
10
-55.574761399999979
20
-73.128971784262077
42
0.41421356237309503
10
-55.074761399999979
20
-73.628971784262077
10
-42.07546139999998
20
-73.628971784262077
42
0.41421356237309503
10
-41.575461399999973
20
-73.128971784262077
10
-41.57546139999998
20
-60.129671784262058
42
0.41421356237309503
0
LWPOLYLINE
5
123
100
AcDbEntity
8
0
100
AcDbPolyline
90
8
70
1
43
0.0
10
-17.47496139999997
20
-22.029671784262025
10
-17.47496139999997
20
-35.028971784262033
42
0.41421356237309503
10
-16.97496139999997
20
-35.528971784262033
10
-3.9754113999999658
20
-35.528971784262033
42
0.41421356237309503
10
-3.4754113999999654
20
-35.028971784262033
10
-3.4754113999999658
20
-22.029671784262025
42
0.41421356237309537
10
-3.9754113999999663
20
-21.529671784262021
10
-16.97496139999997
20
-21.529671784262021
42
0.41421356237309503
0
LWPOLYLINE
5
124
100
AcDbEntity
8
0
100
AcDbPolyline
90
8
70
1
43
0.0
10
-55.574761399999979
20
-2.9796417842620104
10
-55.574761399999979
20
-15.979171784262023
42
0.41421356237309503
10
-55.074761399999979
20
-16.479171784262022
10
-42.07546139999998
20
-16.479171784262022
42
0.41421356237309503
10
-41.575461399999973
20
-15.979171784262023
10
-41.57546139999998
20
-2.9796417842620104
42
0.41421356237309503
10
-42.07546139999998
20
-2.4796417842620104
10
-55.074761399999979
20
-2.47964178426201
42
0.41421356237309503
0
LWPOLYLINE
5
125
100
AcDbEntity
8
0
100
AcDbPolyline
90
8
70
1
43
0.0
10
-42.07546139999998
20
-21.529671784262021
10
-55.074761399999979
20
-21.529671784262021
42
0.41421356237309503
10
-55.574761399999979
20
-22.029671784262025
10
-55.574761399999979
20
-35.028971784262033
42
0.41421356237309503
10
-55.074761399999979
20
-35.528971784262033
10
-42.07546139999998
20
-35.528971784262033
42
0.41421356237309503
10
-41.575461399999973
20
-35.028971784262033
10
-41.57546139999998
20
-22.029671784262025
42
0.41421356237309503
0
LWPOLYLINE
5
126
100
AcDbEntity
8
0
100
AcDbPolyline
90
8
70
1
43
0.0
10
-22.525461399999969
20
-92.178971784262075
10
-22.525461399999969
20
-79.179671784262069
42
0.41421356237309503
10
-23.025461399999969
20
-78.679671784262069
10
-36.024761399999974
20
-78.679671784262069
42
0.4142135623730846
10
-36.524761399999981
20
-79.179671784262055
10
-36.524761399999974
20
-92.17897178426206
42
0.41421356237309503
10
-36.024761399999974
20
-92.678971784262089
10
-23.025461399999969
20
-92.678971784262075
42
0.4142135623730846
0
LWPOLYLINE
5
127
100
AcDbEntity
8
0
100
AcDbPolyline
90
8
70
1
43
0.0
10
-3.4754113999999654
20
-15.979171784262023
10
-3.4754113999999654
20
-2.9796417842620104
42
0.41421356237309537
10
-3.9754113999999663
20
-2.4796417842620104
10
-16.97496139999997
20
-2.47964178426201
42
0.41421356237309503
10
-17.47496139999997
20
-2.9796417842620104
10
-17.47496139999997
20
-15.979171784262023
42
0.41421356237309503
10
-16.97496139999997
20
-16.479171784262022
10
-3.9754113999999658
20
-16.479171784262022
42
0.41421356237309503
0
LWPOLYLINE
5
128
100
AcDbEntity
8
0
100
AcDbPolyline
90
8
70
1
43
0.0
10
-22.525461399999969
20
-54.078971784262045
10
-22.525461399999969
20
-41.07967178426204
42
0.41421356237309503
10
-23.025461399999969
20
-40.57967178426204
10
-36.024761399999974
20
-40.57967178426204
42
0.41421356237309503
10
-36.524761399999981
20
-41.07967178426204
10
-36.524761399999974
20
-54.078971784262045
42
0.41421356237309503
10
-36.024761399999974
20
-54.578971784262052
10
-23.025461399999969
20
-54.578971784262045
42
0.41421356237309503
0
LWPOLYLINE
5
129
100
AcDbEntity
8
0
100
AcDbPolyline
90
8
70
1
43
0.0
10
-23.025461399999969
20
-21.529671784262021
10
-36.024761399999974
20
-21.529671784262021
42
0.41421356237309503
10
-36.524761399999981
20
-22.029671784262025
10
-36.524761399999974
20
-35.028971784262033
42
0.41421356237309503
10
-36.024761399999974
20
-35.528971784262033
10
-23.025461399999969
20
-35.528971784262033
42
0.41421356237309503
10
-22.525461399999969
20
-35.028971784262033
10
-22.525461399999969
20
-22.029671784262025
42
0.41421356237309503
0
LWPOLYLINE
5
130
100
AcDbEntity
8
0
100
AcDbPolyline
90
8
70
1
43
0.0
10
-61.125461399999985
20
-21.529671784262021
10
-74.124761399999983
20
-21.529671784262021
42
0.41421356237309503
10
-74.624761399999983
20
-22.029671784262025
10
-74.624761399999983
20
-35.028971784262033
42
0.41421356237309503
10
-74.124761399999983
20
-35.528971784262033
10
-61.125461399999985
20
-35.528971784262033
42
0.41421356237309503
10
-60.625461399999985
20
-35.028971784262033
10
-60.625461399999985
20
-22.029671784262025
42
0.41421356237309503
0
LWPOLYLINE
5
131
100
AcDbEntity
8
0
100
AcDbPolyline
90
8
70
1
43
0.0
10
-3.9754113999999663
20
-78.679671784262069
10
-16.97496139999997
20
-78.679671784262069
42
0.4142135623730846
10
-17.47496139999997
20
-79.179671784262055
10
-17.47496139999997
20
-92.17897178426206
42
0.41421356237309503
10
-16.97496139999997
20
-92.678971784262089
10
-3.975411399999965
20
-92.678971784262075
42
0.4142135623730846
10
-3.4754113999999654
20
-92.178971784262075
10
-3.4754113999999658
20
-79.179671784262069
42
0.41421356237309537
0
LWPOLYLINE
5
132
100
AcDbEntity
8
0
100
AcDbPolyline
90
8
70
1
43
0.0
10
-16.97496139999997
20
-73.628971784262077
10
-3.9754113999999658
20
-73.628971784262077
42
0.41421356237309503
10
-3.4754113999999654
20
-73.128971784262077
10
-3.4754113999999658
20
-60.129671784262058
42
0.41421356237309537
10
-3.9754113999999663
20
-59.629671784262058
10
-16.97496139999997
20
-59.629671784262058
42
0.41421356237309503
10
-17.47496139999997
20
-60.129671784262058
10
-17.47496139999997
20
-73.128971784262077
42
0.41421356237309503
0
LWPOLYLINE
5
133
100
AcDbEntity
8
0
100
AcDbPolyline
90
8
70
1
43
0.0
10
-61.125461399999985
20
-2.4796417842620104
10
-74.124761399999983
20
-2.4796417842620104
42
0.41421356237309503
10
-74.624761399999983
20
-2.9796417842620104
10
-74.624761399999983
20
-15.979171784262023
42
0.41421356237309503
10
-74.124761399999983
20
-16.479171784262022
10
-61.125461399999985
20
-16.479171784262022
42
0.41421356237309503
10
-60.625461399999985
20
-15.979171784262023
10
-60.625461399999985
20
-2.9796417842620104
42
0.41421356237309503
0
LWPOLYLINE
5
134
100
AcDbEntity
8
0
100
AcDbPolyline
90
8
70
1
43
0.0
10
-188.92476139999999
20
-41.07967178426204
10
-188.92476139999999
20
-54.078971784262045
42
0.41421356237309503
10
-188.42476139999999
20
-54.578971784262052
10
-175.4257614
20
-54.578971784262045
42
0.41421356237309503
10
-174.9257614
20
-54.078971784262045
10
-174.9257614
20
-41.07967178426204
42
0.41421356237309503
10
-175.4257614
20
-40.57967178426204
10
-188.42476139999999
20
-40.57967178426204
42
0.41421356237309503
0
LWPOLYLINE
5
135
100
AcDbEntity
8
0
100
AcDbPolyline
90
8
70
1
43
0.0
10
-60.625461399999985
20
-54.078971784262045
10
-60.625461399999985
20
-41.07967178426204
42
0.41421356237309503
10
-61.125461399999985
20
-40.57967178426204
10
-74.124761399999983
20
-40.57967178426204
42
0.41421356237309503
10
-74.624761399999983
20
-41.07967178426204
10
-74.624761399999983
20
-54.078971784262045
42
0.41421356237309503
10
-74.124761399999983
20
-54.578971784262052
10
-61.125461399999985
20
-54.578971784262045
42
0.41421356237309503
0
LWPOLYLINE
5
136
100
AcDbEntity
8
0
100
AcDbPolyline
90
8
70
1
43
0.0
10
-174.9257614
20
-15.979171784262023
10
-174.9257614
20
-2.9796417842620109
42
0.41421356237309503
10
-175.4257614
20
-2.4796417842620109
10
-188.42476139999999
20
-2.4796417842620104
42
0.4142135623730947
10
-188.92476139999999
20
-2.9796417842620104
10
-188.92476139999999
20
-15.979171784262023
42
0.41421356237309503
10
-188.42476139999999
20
-16.479171784262022
10
-175.4257614
20
-16.479171784262022
42
0.41421356237309503
0
LWPOLYLINE
5
137
100
AcDbEntity
8
0
100
AcDbPolyline
90
8
70
1
43
0.0
10
-169.37476140000001
20
-35.528971784262033
10
-156.37576139999999
20
-35.528971784262033
42
0.41421356237309503
10
-155.87576139999999
20
-35.028971784262033
10
-155.87576139999999
20
-22.029671784262025
42
0.41421356237309503
10
-156.37576139999999
20
-21.529671784262021
10
-169.37476140000001
20
-21.529671784262025
42
0.41421356237309503
10
-169.87476140000001
20
-22.029671784262025
10
-169.87476140000001
20
-35.028971784262033
42
0.41421356237309503
0
LWPOLYLINE
5
138
100
AcDbEntity
8
0
100
AcDbPolyline
90
8
70
1
43
0.0
10
-188.92476139999999
20
-60.129671784262058
10
-188.92476139999999
20
-73.128971784262077
42
0.41421356237309503
10
-188.42476139999999
20
-73.628971784262077
10
-175.4257614
20
-73.628971784262077
42
0.41421356237309503
10
-174.9257614
20
-73.128971784262077
10
-174.9257614
20
-60.129671784262058
42
0.41421356237309503
10
-175.4257614
20
-59.629671784262058
10
-188.42476139999999
20
-59.629671784262058
42
0.41421356237309503
0
LWPOLYLINE
5
139
100
AcDbEntity
8
0
100
AcDbPolyline
90
8
70
1
43
0.0
10
-137.3257614
20
-21.529671784262021
10
-150.3247614
20
-21.529671784262021
42
0.41421356237309503
10
-150.8247614
20
-22.029671784262025
10
-150.8247614
20
-35.028971784262033
42
0.41421356237309503
10
-150.3247614
20
-35.528971784262033
10
-137.3257614
20
-35.528971784262033
42
0.41421356237309503
10
-136.82576140000003
20
-35.028971784262033
10
-136.8257614
20
-22.029671784262025
42
0.41421356237309503
0
LWPOLYLINE
5
140
100
AcDbEntity
8
0
100
AcDbPolyline
90
8
70
1
43
0.0
10
-112.22476139999999
20
-73.628971784262077
10
-99.224061399999982
20
-73.628971784262077
42
0.41421356237309503
10
-98.724061399999982
20
-73.128971784262077
10
-98.724061399999968
20
-60.129671784262058
42
0.41421356237309503
10
-99.224061399999982
20
-59.629671784262058
10
-112.22476139999999
20
-59.629671784262058
42
0.41421356237309503
10
-112.72476140000001
20
-60.129671784262058
10
-112.72476140000001
20
-73.128971784262077
42
0.41421356237309503
0
LWPOLYLINE
5
141
100
AcDbEntity
8
0
100
AcDbPolyline
90
8
70
1
43
0.0
10
-98.724061399999982
20
-92.178971784262075
10
-98.724061399999982
20
-79.179671784262069
42
0.41421356237309503
10
-99.224061399999982
20
-78.679671784262069
10
-112.22476139999999
20
-78.679671784262069
42
0.4142135623730846
10
-112.72476140000001
20
-79.179671784262055
10
-112.72476140000001
20
-92.17897178426206
42
0.41421356237309503
10
-112.22476139999999
20
-92.678971784262089
10
-99.224061399999982
20
-92.678971784262075
42
0.4142135623730846
0
LWPOLYLINE
5
142
100
AcDbEntity
8
0
100
AcDbPolyline
90
8
70
1
43
0.0
10
-80.175461399999989
20
-78.679671784262069
10
-93.17476139999998
20
-78.679671784262069
42
0.4142135623730846
10
-93.674761399999966
20
-79.179671784262055
10
-93.674761399999994
20
-92.17897178426206
42
0.41421356237309503
10
-93.17476139999998
20
-92.678971784262089
10
-80.175461399999989
20
-92.678971784262075
42
0.4142135623730846
10
-79.675461399999989
20
-92.178971784262075
10
-79.675461399999989
20
-79.179671784262069
42
0.41421356237309503
0
LWPOLYLINE
5
143
100
AcDbEntity
8
0
100
AcDbPolyline
90
8
70
1
43
0.0
10
-137.3257614
20
-59.629671784262058
10
-150.3247614
20
-59.629671784262058
42
0.41421356237309503
10
-150.8247614
20
-60.129671784262058
10
-150.8247614
20
-73.128971784262077
42
0.41421356237309503
10
-150.3247614
20
-73.628971784262077
10
-137.3257614
20
-73.628971784262077
42
0.41421356237309503
10
-136.82576140000003
20
-73.128971784262077
10
-136.8257614
20
-60.129671784262058
42
0.41421356237309503
0
LWPOLYLINE
5
144
100
AcDbEntity
8
0
100
AcDbPolyline
90
8
70
1
43
0.0
10
-55.574761399999979
20
-41.07967178426204
10
-55.574761399999979
20
-54.078971784262045
42
0.41421356237309503
10
-55.074761399999979
20
-54.578971784262052
10
-42.07546139999998
20
-54.578971784262045
42
0.41421356237309503
10
-41.575461399999973
20
-54.078971784262045
10
-41.57546139999998
20
-41.07967178426204
42
0.41421356237309503
10
-42.07546139999998
20
-40.57967178426204
10
-55.074761399999979
20
-40.57967178426204
42
0.41421356237309503
0
LWPOLYLINE
5
145
100
AcDbEntity
8
0
100
AcDbPolyline
90
8
70
1
43
0.0
10
-207.47476140000003
20
-35.528971784262033
10
-194.47576140000001
20
-35.528971784262033
42
0.41421356237309503
10
-193.97576140000001
20
-35.028971784262033
10
-193.97576140000001
20
-22.029671784262025
42
0.41421356237309503
10
-194.47576140000001
20
-21.529671784262021
10
-207.47476140000003
20
-21.529671784262025
42
0.41421356237309503
10
-207.97476140000001
20
-22.029671784262025
10
-207.97476140000003
20
-35.028971784262033
42
0.41421356237309503
0
LWPOLYLINE
5
146
100
AcDbEntity
8
0
100
AcDbPolyline
90
8
70
1
43
0.0
10
-93.674761399999966
20
-41.07967178426204
10
-93.674761399999966
20
-54.078971784262045
42
0.41421356237309503
10
-93.17476139999998
20
-54.578971784262052
10
-80.175461399999989
20
-54.578971784262045
42
0.41421356237309503
10
-79.675461399999989
20
-54.078971784262045
10
-79.675461399999989
20
-41.07967178426204
42
0.41421356237309503
10
-80.175461399999989
20
-40.57967178426204
10
-93.17476139999998
20
-40.57967178426204
42
0.41421356237309503
0
LWPOLYLINE
5
147
100
AcDbEntity
8
0
100
AcDbPolyline
90
8
70
1
43
0.0
10
-93.674761399999966
20
-60.129671784262058
10
-93.674761399999966
20
-73.128971784262077
42
0.41421356237309503
10
-93.17476139999998
20
-73.628971784262077
10
-80.175461399999989
20
-73.628971784262077
42
0.41421356237309503
10
-79.675461399999989
20
-73.128971784262077
10
-79.675461399999989
20
-60.129671784262058
42
0.41421356237309503
10
-80.175461399999989
20
-59.629671784262058
10
-93.17476139999998
20
-59.629671784262058
42
0.41421356237309503
0
LWPOLYLINE
5
148
100
AcDbEntity
8
0
100
AcDbPolyline
90
8
70
1
43
0.0
10
-80.175461399999989
20
-21.529671784262021
10
-93.17476139999998
20
-21.529671784262021
42
0.41421356237309503
10
-93.674761399999966
20
-22.029671784262025
10
-93.674761399999994
20
-35.028971784262033
42
0.41421356237309503
10
-93.17476139999998
20
-35.528971784262033
10
-80.175461399999989
20
-35.528971784262033
42
0.41421356237309503
10
-79.675461399999989
20
-35.028971784262033
10
-79.675461399999989
20
-22.029671784262025
42
0.41421356237309503
0
LWPOLYLINE
5
149
100
AcDbEntity
8
0
100
AcDbPolyline
90
8
70
1
43
0.0
10
-156.37576139999999
20
-59.629671784262058
10
-169.37476140000001
20
-59.629671784262058
42
0.41421356237309503
10
-169.87476140000001
20
-60.129671784262058
10
-169.87476140000001
20
-73.128971784262077
42
0.41421356237309503
10
-169.37476140000001
20
-73.628971784262077
10
-156.37576139999999
20
-73.628971784262077
42
0.41421356237309503
10
-155.87576139999999
20
-73.128971784262077
10
-155.87576139999999
20
-60.129671784262058
42
0.41421356237309503
0
LWPOLYLINE
5
150
100
AcDbEntity
8
0
100
AcDbPolyline
90
8
70
1
43
0.0
10
-155.87576139999999
20
-92.178971784262075
10
-155.87576139999999
20
-79.179671784262069
42
0.41421356237309503
10
-156.37576139999999
20
-78.679671784262069
10
-169.37476140000001
20
-78.679671784262069
42
0.4142135623730846
10
-169.87476140000001
20
-79.179671784262055
10
-169.87476140000001
20
-92.17897178426206
42
0.41421356237309503
10
-169.37476140000001
20
-92.678971784262089
10
-156.37576139999999
20
-92.678971784262075
42
0.4142135623730846
0
LWPOLYLINE
5
151
100
AcDbEntity
8
0
100
AcDbPolyline
90
8
70
1
43
0.0
10
-169.87476140000001
20
-2.9796417842620104
10
-169.87476140000001
20
-15.979171784262023
42
0.41421356237309503
10
-169.37476140000001
20
-16.479171784262022
10
-156.37576139999999
20
-16.479171784262022
42
0.41421356237309503
10
-155.87576139999999
20
-15.979171784262023
10
-155.87576139999999
20
-2.9796417842620109
42
0.41421356237309503
10
-156.37576139999999
20
-2.4796417842620109
10
-169.37476140000001
20
-2.4796417842620104
42
0.4142135623730947
0
LWPOLYLINE
5
152
100
AcDbEntity
8
0
100
AcDbPolyline
90
8
70
1
43
0.0
10
-117.7737614
20
-54.078971784262045
10
-117.7737614
20
-41.07967178426204
42
0.41421356237310542
10
-118.2737614
20
-40.57967178426204
10
-131.27476139999999
20
-40.57967178426204
42
0.41421356237309503
10
-131.77476139999999
20
-41.07967178426204
10
-131.77476139999999
20
-54.078971784262045
42
0.41421356237310542
10
-131.27476139999996
20
-54.578971784262052
10
-118.27376139999998
20
-54.578971784262045
42
0.41421356237309503
0
LWPOLYLINE
5
153
100
AcDbEntity
8
0
100
AcDbPolyline
90
8
70
1
43
0.0
10
-36.524761399999981
20
-60.129671784262058
10
-36.524761399999981
20
-73.128971784262077
42
0.41421356237309503
10
-36.024761399999974
20
-73.628971784262077
10
-23.025461399999969
20
-73.628971784262077
42
0.41421356237309503
10
-22.525461399999969
20
-73.128971784262077
10
-22.525461399999969
20
-60.129671784262058
42
0.41421356237309503
10
-23.025461399999969
20
-59.629671784262058
10
-36.024761399999974
20
-59.629671784262058
42
0.41421356237309503
0
LWPOLYLINE
5
154
100
AcDbEntity
8
0
100
AcDbPolyline
90
8
70
1
43
0.0
10
-55.574761399999979
20
-79.179671784262055
10
-55.574761399999979
20
-92.17897178426206
42
0.41421356237309503
10
-55.074761399999979
20
-92.678971784262089
10
-42.07546139999998
20
-92.678971784262075
42
0.4142135623730846
10
-41.575461399999973
20
-92.178971784262075
10
-41.57546139999998
20
-79.179671784262069
42
0.41421356237309503
10
-42.07546139999998
20
-78.679671784262069
10
-55.074761399999979
20
-78.679671784262069
42
0.4142135623730846
0
LWPOLYLINE
5
155
100
AcDbEntity
8
0
100
AcDbPolyline
90
8
70
1
43
0.0
10
-3.4754113999999654
20
-54.078971784262045
10
-3.4754113999999654
20
-41.07967178426204
42
0.41421356237309537
10
-3.9754113999999663
20
-40.57967178426204
10
-16.97496139999997
20
-40.57967178426204
42
0.41421356237309503
10
-17.47496139999997
20
-41.07967178426204
10
-17.47496139999997
20
-54.078971784262045
42
0.41421356237309503
10
-16.97496139999997
20
-54.578971784262052
10
-3.9754113999999658
20
-54.578971784262045
42
0.41421356237309503
0
CIRCLE
5
156
100
AcDbEntity
8
0
100
AcDbCircle
10
-58.10026139999998
20
4.8621126897170752
30
0
40
1.5000000000000011
210
-7.4622514549130506e-50
220
2.4651903288156619e-32
230
1
0
CIRCLE
5
157
100
AcDbEntity
8
0
100
AcDbCircle
10
-172.40026140000001
20
-105.01958485824107
30
0
40
1.5000000000000211
210
-7.4622514549130506e-50
220
2.4651903288156619e-32
230
1
0
CIRCLE
5
158
100
AcDbEntity
8
0
100
AcDbCircle
10
-172.40026140000001
20
4.8621126897170743
30
0
40
1.5000000000000211
210
-7.4622514549130506e-50
220
2.4651903288156619e-32
230
1
0
CIRCLE
5
159
100
AcDbEntity
8
0
100
AcDbCircle
10
-58.10026139999998
20
-105.01958485824107
30
0
40
1.5000000000000011
210
-7.4622514549130506e-50
220
2.4651903288156619e-32
230
1
0
LWPOLYLINE
5
160
100
AcDbEntity
8
0
100
AcDbPolyline
90
46
70
1
43
0.0
10
-61.212802791182298
20
-101.54458485824108
10
-169.28772000881804
20
-101.54458485824108
42
0.20644506325850984
10
-170.15026140000001
20
-103.54458485824108
10
-170.15026140000001
20
-105.51958485824109
42
-0.41421356237309503
10
-171.40026140000001
20
-106.76958485824109
10
-173.40026140000003
20
-106.76958485824109
42
-0.41421356237309503
10
-174.65026140000003
20
-105.51958485824109
10
-174.65026140000003
20
-103.54458485824105
42
0.20644506325851064
10
-175.512802791182
20
-101.54458485824108
10
-224.54976139999999
20
-101.54458485824111
42
-0.41421356237309764
10
-226.54976140000002
20
-99.544584858241066
10
-226.54976140000002
20
-94.728771784262079
10
-237.0757614
20
-94.728771784262136
42
-0.41421356237309764
10
-239.07576140000003
20
-92.728771784262079
10
-239.0757614
20
-2.4287003842620019
42
-0.41421356237309614
10
-237.0757614
20
-0.42870038426198914
10
-175.51280279118217
20
-0.42870038426183782
42
0.20644506325851159
10
-174.65026140000003
20
1.5712996157379966
10
-174.65026140000003
20
5.3621126897170743
42
-0.41421356237309503
10
-173.40026140000003
20
6.6121126897170672
10
-171.40026140000001
20
6.612112689717085
42
-0.41421356237309503
10
-170.15026140000001
20
5.362112689717085
10
-170.15026140000001
20
1.5712996157379906
42
0.20644506325852144
10
-169.28772000881804
20
-0.42870038426199902
10
-61.212802791182298
20
-0.42870038426199908
42
0.20644506325852782
10
-60.350261399999987
20
1.5712996157379977
10
-60.350261399999987
20
5.3621126897170859
42
-0.4142135623730927
10
-59.10026139999998
20
6.6121126897170868
10
-57.100261399999972
20
6.6121126897170761
42
-0.41421356237309503
10
-55.850261399999972
20
5.3621126897170761
10
-55.850261399999972
20
1.5712996157379922
42
0.20644506325852846
10
-54.987720008817682
20
-0.42870038426199858
10
6.5741540000000462
20
-0.42870038426200602
42
-0.41421356237309459
10
8.5741540000000498
20
-2.4287003842620081
10
8.5741540000000285
20
-92.728771784262079
42
-0.41421356237309326
10
6.574154000000048
20
-94.728771784262079
10
-3.950411399999965
20
-94.728771784262079
10
-3.9504113999999491
20
-99.544584858241066
42
-0.4142135623730947
10
-5.9504113999999575
20
-101.54458485824108
10
-54.987720008817682
20
-101.54458485824108
42
0.20644506325852541
10
-55.850261399999972
20
-103.54458485824108
10
-55.850261399999972
20
-105.51958485824109
42
-0.41421356237309503
10
-57.100261399999972
20
-106.76958485824109
10
-59.10026139999998
20
-106.76958485824109
42
-0.41421356237309503
10
-60.350261399999987
20
-105.51958485824109
10
-60.350261399999994
20
-103.54458485824108
42
0.20644506325853271
0
LWPOLYLINE
5
161
100
AcDbEntity
8
0
100
AcDbPolyline
90
42
70
1
43
0.0
10
-102.52978657190235
20
-17.449301784262019
42
-0.087069820931592434
10
-102.70001519199901
20
-17.479171784262036
10
-111.01341139999997
20
-17.479171784262039
42
-0.41421356237307549
10
-111.51341139999998
20
-16.979171784262029
10
-111.51341139999998
20
-16.729171784262032
42
0.41421356237309503
10
-111.76341139999998
20
-16.479171784262029
10
-118.73741139999998
20
-16.479171784262029
42
0.41421356237309764
10
-118.98741139999998
20
-16.729171784262036
10
-118.98741139999998
20
-16.979171784262029
42
-0.41421356237309631
10
-119.48741139999998
20
-17.479171784262036
10
-127.80120760800101
20
-17.479171784262032
42
-0.087069820931601954
10
-127.97143622809769
20
-17.449301784262019
10
-128.30120760800099
20
-17.449301784262026
42
-0.4054903643355352
10
-128.80098450400061
20
-16.964236784262038
42
0.4054903643355266
10
-129.3007614
20
-16.479171784262022
10
-142.61341139999996
20
-16.479171784262032
42
0.41421356237309503
10
-142.86341139999996
20
-16.729171784262032
10
-142.86341139999996
20
-16.979171784262029
42
-0.41421356237309631
10
-143.36341139999999
20
-17.479171784262036
10
-149.11341139999996
20
-17.479171784262039
42
-0.41421356237309631
10
-149.61341139999999
20
-16.979171784262029
10
-149.61341139999999
20
-16.729171784262032
42
0.41421356237310281
10
-149.86341139999996
20
-16.479171784262043
10
-150.3247614
20
-16.479171784262029
42
-0.41421356237309503
10
-150.8247614
20
-15.979171784262023
10
-150.8247614
20
-2.9796417842620104
42
-0.4142135623730947
10
-150.3247614
20
-2.4796417842620104
10
-80.173761399999989
20
-2.4796417842620122
42
-0.41421356237309503
10
-79.673761400000004
20
-2.9796417842620104
10
-79.673761400000004
20
-15.979171784262023
42
-0.41421356237309503
10
-80.173761399999989
20
-16.479171784262022
10
-80.637411399999976
20
-16.479171784262043
42
0.41421356237312362
10
-80.887411399999976
20
-16.729171784262032
10
-80.887411399999948
20
-16.979171784262029
42
-0.41421356237310414
10
-81.387411399999962
20
-17.479171784262029
10
-87.137411399999991
20
-17.479171784262039
42
-0.41421356237309631
10
-87.637411400000005
20
-16.979171784262029
10
-87.637411400000005
20
-16.729171784262032
42
0.41421356237309503
10
-87.887411400000005
20
-16.479171784262029
10
-101.20046139999998
20
-16.479171784262022
42
0.40549036433552388
10
-101.70023829599938
20
-16.964236784262038
42
-0.40549036433553542
10
-102.20001519199899
20
-17.449301784262023
0
LWPOLYLINE
5
162
100
AcDbEntity
8
0
100
AcDbPolyline
90
42
70
1
43
0.0
10
-102.52978657190233
20
-17.449301784262005
42
-0.087069820931555977
10
-102.700015191999
20
-17.479171784262025
10
-111.01341139999995
20
-17.479171784262025
42
-0.41421356237309503
10
-111.51341139999997
20
-16.979171784262018
10
-111.51341139999997
20
-16.729171784262018
42
0.41421356237312623
10
-111.76341139999997
20
-16.479171784262022
10
-118.73741139999996
20
-16.479171784262018
42
0.41421356237310281
10
-118.98741139999997
20
-16.729171784262025
10
-118.98741139999997
20
-16.979171784262014
42
-0.41421356237309764
10
-119.48741139999997
20
-17.479171784262025
10
-127.80120760800099
20
-17.479171784262022
42
-0.087069820931559211
10
-127.97143622809764
20
-17.449301784262008
10
-128.30120760800096
20
-17.449301784262008
42
-0.40549036433553004
10
-128.80098450400058
20
-16.964236784262027
42
0.40549036433555219
10
-129.30076139999997
20
-16.479171784262011
10
-142.61341139999993
20
-16.479171784262022
42
0.41421356237313145
10
-142.86341139999993
20
-16.729171784262022
10
-142.86341139999993
20
-16.979171784262014
42
-0.41421356237309764
10
-143.36341139999996
20
-17.479171784262025
10
-149.11341139999993
20
-17.479171784262025
42
-0.41421356237309503
10
-149.61341139999996
20
-16.979171784262018
10
-149.61341139999996
20
-16.729171784262018
42
0.41421356237307683
10
-149.86341139999993
20
-16.479171784262011
10
-150.32476139999997
20
-16.479171784262014
42
-0.41421356237309243
10
-150.82476139999997
20
-15.979171784262011
10
-150.8247614
20
-2.9796417842620082
42
-0.41421356237310514
10
-150.32476139999997
20
-2.4796417842620073
10
-80.173761399999975
20
-2.4796417842620055
42
-0.41421356237309731
10
-79.673761399999975
20
-2.9796417842620082
10
-79.673761399999975
20
-15.979171784262011
42
-0.41421356237309764
10
-80.173761399999975
20
-16.479171784262011
10
-80.637411399999962
20
-16.479171784262029
42
0.41421356237313145
10
-80.887411399999962
20
-16.729171784262018
10
-80.887411399999948
20
-16.979171784262018
42
-0.41421356237309503
10
-81.387411399999948
20
-17.479171784262025
10
-87.137411399999976
20
-17.479171784262007
42
-0.41421356237309764
10
-87.637411399999962
20
-16.979171784262014
10
-87.637411399999991
20
-16.729171784262022
42
0.41421356237310025
10
-87.887411399999991
20
-16.479171784262014
10
-101.20046139999997
20
-16.479171784262011
42
0.40549036433555219
10
-101.70023829599936
20
-16.964236784262027
42
-0.40549036433553004
10
-102.20001519199897
20
-17.449301784262008
0
LWPOLYLINE
5
163
100
AcDbEntity
8
0
100
AcDbPolyline
90
8
70
1
43
0.0
10
-3.9754113999999645
20
-78.679671784262013
42
-0.41421356237309404
10
-3.475411399999965
20
-79.179671784262013
10
-3.475411399999957
20
-92.178971784262018
42
-0.41421356237306384
10
-3.9754113999999641
20
-92.678971784262018
10
-16.974961399999966
20
-92.678971784261989
42
-0.41421356237307549
10
-17.474961399999962
20
-92.178971784262004
10
-17.474961399999962
20
-79.179671784262013
42
-0.41421356237308854
10
-16.974961399999966
20
-78.679671784262013
0
LWPOLYLINE
5
164
100
AcDbEntity
8
0
100
AcDbPolyline
90
8
70
1
43
0.0
10
-23.025461399999966
20
-78.679671784262013
42
-0.41421356237309503
10
-22.525461399999966
20
-79.179671784262013
10
-22.525461399999969
20
-92.178971784262018
42
-0.41421356237307683
10
-23.025461399999966
20
-92.678971784262018
10
-36.024761399999967
20
-92.678971784261989
42
-0.41421356237307422
10
-36.524761399999967
20
-92.178971784262004
10
-36.524761399999967
20
-79.179671784262013
42
-0.41421356237308982
10
-36.024761399999967
20
-78.679671784262013
0
LWPOLYLINE
5
165
100
AcDbEntity
8
0
100
AcDbPolyline
90
8
70
1
43
0.0
10
-42.075461399999973
20
-78.679671784262013
42
-0.41421356237307422
10
-41.575461399999966
20
-79.179671784262013
10
-41.575461399999952
20
-92.178971784262004
42
-0.41421356237304818
10
-42.075461399999973
20
-92.678971784262018
10
-55.074761399999971
20
-92.678971784261989
42
-0.41421356237305862
10
-55.574761399999979
20
-92.178971784262004
10
-55.574761399999979
20
-79.179671784262013
42
-0.414213562373069
10
-55.074761399999971
20
-78.679671784262013
0
LWPOLYLINE
5
166
100
AcDbEntity
8
0
100
AcDbPolyline
90
8
70
1
43
0.0
10
-61.125461399999963
20
-78.679671784262013
42
-0.41421356237307422
10
-60.625461399999956
20
-79.179671784262013
10
-60.625461399999949
20
-92.178971784262004
42
-0.41421356237304818
10
-61.125461399999963
20
-92.678971784262018
10
-74.124761399999969
20
-92.678971784261989
42
-0.41421356237305862
10
-74.624761399999969
20
-92.178971784262004
10
-74.624761399999969
20
-79.179671784262013
42
-0.414213562373069
10
-74.124761399999969
20
-78.679671784262013
0
LWPOLYLINE
5
167
100
AcDbEntity
8
0
100
AcDbPolyline
90
8
70
1
43
0.0
10
-80.175461399999961
20
-78.679671784262013
42
-0.41421356237307422
10
-79.675461399999961
20
-79.179671784262013
10
-79.675461399999961
20
-92.178971784262018
42
-0.41421356237304302
10
-80.175461399999961
20
-92.678971784262018
10
-93.174761399999966
20
-92.678971784262018
42
-0.41421356237307422
10
-93.674761399999966
20
-92.178971784262004
10
-93.674761399999966
20
-79.179671784262013
42
-0.4142135623730846
10
-93.174761399999966
20
-78.679671784262013
0
LWPOLYLINE
5
168
100
AcDbEntity
8
0
100
AcDbPolyline
90
8
70
1
43
0.0
10
-99.224061399999954
20
-78.679671784262013
42
-0.41421356237307944
10
-98.724061399999954
20
-79.179671784262013
10
-98.724061399999954
20
-92.178971784262018
42
-0.41421356237306384
10
-99.224061399999954
20
-92.678971784262018
10
-112.22476139999998
20
-92.678971784262018
42
-0.41421356237307422
10
-112.72476139999998
20
-92.178971784262004
10
-112.72476139999998
20
-79.179671784262013
42
-0.4142135623730846
10
-112.22476139999998
20
-78.679671784262013
0
LWPOLYLINE
5
169
100
AcDbEntity
8
0
100
AcDbPolyline
90
8
70
1
43
0.0
10
-118.27376139999997
20
-78.679671784261998
42
-0.41421356237304818
10
-117.77376139999996
20
-79.179671784262013
10
-117.77376139999996
20
-92.178971784262018
42
-0.41421356237304302
10
-118.27376139999997
20
-92.678971784262018
10
-131.27476139999996
20
-92.678971784262018
42
-0.41421356237307422
10
-131.77476139999996
20
-92.178971784262004
10
-131.77476139999996
20
-79.179671784262013
42
-0.4142135623730846
10
-131.27476139999996
20
-78.679671784262013
0
LWPOLYLINE
5
170
100
AcDbEntity
8
0
100
AcDbPolyline
90
8
70
1
43
0.0
10
-137.32576139999998
20
-78.679671784261998
42
-0.41421356237304818
10
-136.82576139999998
20
-79.179671784262013
10
-136.82576139999998
20
-92.178971784262018
42
-0.41421356237304302
10
-137.32576139999998
20
-92.678971784262018
10
-150.32476139999997
20
-92.678971784262018
42
-0.41421356237307422
10
-150.82476139999997
20
-92.178971784262004
10
-150.82476139999997
20
-79.179671784262013
42
-0.4142135623730846
10
-150.32476139999997
20
-78.679671784262013
0
LWPOLYLINE
5
171
100
AcDbEntity
8
0
100
AcDbPolyline
90
8
70
1
43
0.0
10
-156.37576139999996
20
-78.679671784262013
42
-0.41421356237307944
10
-155.87576139999996
20
-79.179671784262013
10
-155.87576139999996
20
-92.178971784262018
42
-0.41421356237306384
10
-156.37576139999996
20
-92.678971784262018
10
-169.37476139999998
20
-92.678971784262018
42
-0.41421356237309503
10
-169.87476139999998
20
-92.178971784262004
10
-169.87476139999998
20
-79.179671784262013
42
-0.41421356237310025
10
-169.37476139999998
20
-78.679671784262013
0
LWPOLYLINE
5
172
100
AcDbEntity
8
0
100
AcDbPolyline
90
8
70
1
43
0.0
10
-175.42576139999994
20
-78.679671784261998
42
-0.4142135623730846
10
-174.92576139999997
20
-79.179671784262013
10
-174.92576139999997
20
-92.178971784262018
42
-0.4142135623730846
10
-175.42576139999997
20
-92.678971784262018
10
-188.42476139999997
20
-92.678971784261989
42
-0.4142135623730846
10
-188.92476139999997
20
-92.178971784262004
10
-188.92476139999997
20
-79.179671784262013
42
-0.41421356237308982
10
-188.42476139999997
20
-78.679671784262013
0
LWPOLYLINE
5
173
100
AcDbEntity
8
0
100
AcDbPolyline
90
8
70
1
43
0.0
10
-194.47576139999995
20
-78.679671784261998
42
-0.4142135623730846
10
-193.97576139999998
20
-79.179671784262013
10
-193.97576139999998
20
-92.178971784262018
42
-0.4142135623730846
10
-194.47576139999998
20
-92.678971784262018
10
-207.47476140000001
20
-92.678971784262018
42
-0.41421356237309503
10
-207.97476140000001
20
-92.178971784262004
10
-207.97476140000001
20
-79.179671784262013
42
-0.41421356237310025
10
-207.47476140000001
20
-78.679671784262013
0
LWPOLYLINE
5
174
100
AcDbEntity
8
0
100
AcDbPolyline
90
8
70
1
43
0.0
10
-213.52576139999996
20
-78.679671784262013
42
-0.41421356237309503
10
-213.02576139999996
20
-79.179671784262013
10
-213.02576139999991
20
-92.178971784262018
42
-0.41421356237307422
10
-213.52576139999996
20
-92.678971784262018
10
-226.52476139999999
20
-92.678971784261989
42
-0.4142135623730846
10
-227.02476139999999
20
-92.178971784262004
10
-227.02476139999999
20
-79.179671784262013
42
-0.41421356237308982
10
-226.52476139999999
20
-78.679671784262013
0
LWPOLYLINE
5
175
100
AcDbEntity
8
0
100
AcDbPolyline
90
8
70
1
43
0.0
10
-213.52576139999996
20
-59.629671784262008
42
-0.41421356237309503
10
-213.02576139999996
20
-60.129671784262015
10
-213.02576139999996
20
-73.128971784262021
42
-0.41421356237309503
10
-213.52576139999996
20
-73.628971784262021
10
-226.52476139999999
20
-73.628971784262035
42
-0.41421356237309503
10
-227.02476139999999
20
-73.128971784262021
10
-227.02476139999999
20
-60.129671784262015
42
-0.41421356237309503
10
-226.52476139999999
20
-59.629671784262008
0
LWPOLYLINE
5
176
100
AcDbEntity
8
0
100
AcDbPolyline
90
8
70
1
43
0.0
10
-194.47576139999995
20
-59.629671784261987
42
-0.4142135623730846
10
-193.97576139999998
20
-60.129671784262015
10
-193.97576140000001
20
-73.128971784262021
42
-0.41421356237310542
10
-194.47576139999998
20
-73.628971784262021
10
-207.47476140000003
20
-73.628971784262049
42
-0.4142135623730846
10
-207.97476140000001
20
-73.128971784262021
10
-207.97476140000001
20
-60.129671784262015
42
-0.41421356237310542
10
-207.47476140000001
20
-59.629671784262008
0
LWPOLYLINE
5
177
100
AcDbEntity
8
0
100
AcDbPolyline
90
8
70
1
43
0.0
10
-175.42576139999994
20
-59.629671784261987
42
-0.4142135623730846
10
-174.92576139999997
20
-60.129671784262015
10
-174.9257614
20
-73.128971784262021
42
-0.41421356237310542
10
-175.42576139999997
20
-73.628971784262021
10
-188.42476139999997
20
-73.628971784262035
42
-0.41421356237309503
10
-188.92476139999997
20
-73.128971784262021
10
-188.92476139999997
20
-60.129671784262015
42
-0.41421356237309503
10
-188.42476139999997
20
-59.629671784262008
0
LWPOLYLINE
5
178
100
AcDbEntity
8
0
100
AcDbPolyline
90
8
70
1
43
0.0
10
-156.37576139999996
20
-59.629671784262015
42
-0.41421356237307944
10
-155.87576139999996
20
-60.129671784262015
10
-155.87576139999996
20
-73.128971784262021
42
-0.41421356237308982
10
-156.37576139999996
20
-73.628971784262021
10
-169.37476140000001
20
-73.628971784262049
42
-0.4142135623730846
10
-169.87476139999998
20
-73.128971784262021
10
-169.87476139999998
20
-60.129671784262015
42
-0.41421356237310542
10
-169.37476139999998
20
-59.629671784262008
0
LWPOLYLINE
5
179
100
AcDbEntity
8
0
100
AcDbPolyline
90
8
70
1
43
0.0
10
-137.32576139999998
20
-59.629671784262001
42
-0.41421356237304818
10
-136.82576139999998
20
-60.129671784262015
10
-136.82576139999998
20
-73.128971784262021
42
-0.41421356237305862
10
-137.32576139999998
20
-73.628971784262021
10
-150.32476139999997
20
-73.628971784262021
42
-0.41421356237307944
10
-150.82476139999997
20
-73.128971784262021
10
-150.82476139999994
20
-60.129671784262015
42
-0.4142135623730846
10
-150.32476139999997
20
-59.629671784262008
0
LWPOLYLINE
5
180
100
AcDbEntity
8
0
100
AcDbPolyline
90
8
70
1
43
0.0
10
-118.27376139999997
20
-59.629671784262001
42
-0.41421356237304818
10
-117.77376139999996
20
-60.129671784262015
10
-117.77376139999998
20
-73.128971784262021
42
-0.41421356237305862
10
-118.27376139999997
20
-73.628971784262021
10
-131.27476139999996
20
-73.628971784262021
42
-0.41421356237307944
10
-131.77476139999996
20
-73.128971784262021
10
-131.77476139999993
20
-60.129671784262015
42
-0.4142135623730846
10
-131.27476139999996
20
-59.629671784262008
0
LWPOLYLINE
5
181
100
AcDbEntity
8
0
100
AcDbPolyline
90
8
70
1
43
0.0
10
-99.224061399999954
20
-59.629671784262015
42
-0.41421356237307944
10
-98.724061399999954
20
-60.129671784262015
10
-98.724061399999954
20
-73.128971784262021
42
-0.41421356237308982
10
-99.224061399999954
20
-73.628971784262035
10
-112.22476139999998
20
-73.628971784262021
42
-0.41421356237307944
10
-112.72476139999998
20
-73.128971784262021
10
-112.72476139999996
20
-60.129671784262015
42
-0.4142135623730846
10
-112.22476139999998
20
-59.629671784262008
0
LWPOLYLINE
5
182
100
AcDbEntity
8
0
100
AcDbPolyline
90
8
70
1
43
0.0
10
-80.175461399999961
20
-59.629671784262008
42
-0.41421356237307422
10
-79.675461399999961
20
-60.129671784262015
10
-79.675461399999975
20
-73.128971784262021
42
-0.41421356237307422
10
-80.175461399999961
20
-73.628971784262021
10
-93.174761399999966
20
-73.628971784262021
42
-0.41421356237307944
10
-93.674761399999966
20
-73.128971784262021
10
-93.674761399999952
20
-60.129671784262015
42
-0.4142135623730846
10
-93.174761399999966
20
-59.629671784262008
0
LWPOLYLINE
5
183
100
AcDbEntity
8
0
100
AcDbPolyline
90
8
70
1
43
0.0
10
-61.125461399999963
20
-59.629671784262008
42
-0.41421356237307422
10
-60.625461399999956
20
-60.129671784262015
10
-60.625461399999963
20
-73.128971784262021
42
-0.41421356237307422
10
-61.125461399999963
20
-73.628971784262021
10
-74.124761399999969
20
-73.628971784262035
42
-0.41421356237307422
10
-74.624761399999969
20
-73.128971784262021
10
-74.624761399999969
20
-60.129671784262015
42
-0.41421356237307422
10
-74.124761399999969
20
-59.629671784262008
0
LWPOLYLINE
5
184
100
AcDbEntity
8
0
100
AcDbPolyline
90
8
70
1
43
0.0
10
-42.075461399999973
20
-59.629671784262008
42
-0.41421356237307422
10
-41.575461399999966
20
-60.129671784262015
10
-41.575461399999973
20
-73.128971784262021
42
-0.41421356237307422
10
-42.075461399999973
20
-73.628971784262021
10
-55.074761399999971
20
-73.628971784262035
42
-0.41421356237307422
10
-55.574761399999979
20
-73.128971784262021
10
-55.574761399999979
20
-60.129671784262015
42
-0.41421356237307422
10
-55.074761399999971
20
-59.629671784262008
0
LWPOLYLINE
5
185
100
AcDbEntity
8
0
100
AcDbPolyline
90
8
70
1
43
0.0
10
-23.025461399999966
20
-59.62967178426203
42
-0.41421356237309764
10
-22.525461399999966
20
-60.129671784262015
10
-22.525461399999966
20
-73.128971784262021
42
-0.41421356237309503
10
-23.025461399999966
20
-73.628971784262021
10
-36.024761399999967
20
-73.628971784262021
42
-0.41421356237309503
10
-36.524761399999967
20
-73.128971784262021
10
-36.524761399999967
20
-60.129671784262015
42
-0.41421356237309764
10
-36.024761399999967
20
-59.629671784262015
0
LWPOLYLINE
5
186
100
AcDbEntity
8
0
100
AcDbPolyline
90
8
70
1
43
0.0
10
-3.9754113999999645
20
-59.629671784262015
42
-0.41421356237309664
10
-3.475411399999965
20
-60.129671784262015
10
-3.4754113999999681
20
-73.128971784262021
42
-0.41421356237309404
10
-3.9754113999999641
20
-73.628971784262021
10
-16.974961399999966
20
-73.628971784262021
42
-0.41421356237309503
10
-17.474961399999962
20
-73.128971784262021
10
-17.47496139999997
20
-60.129671784262015
42
-0.41421356237309764
10
-16.974961399999966
20
-59.629671784262015
0
LWPOLYLINE
5
187
100
AcDbEntity
8
0
100
AcDbPolyline
90
8
70
1
43
0.0
10
-3.9754113999999645
20
-40.579671784262018
42
-0.41421356237309404
10
-3.475411399999965
20
-41.079671784262011
10
-3.4754113999999592
20
-54.078971784262009
42
-0.41421356237309404
10
-3.9754113999999641
20
-54.578971784262016
10
-16.974961399999966
20
-54.578971784262009
42
-0.41421356237309503
10
-17.474961399999962
20
-54.078971784262009
10
-17.474961399999962
20
-41.079671784262011
42
-0.4142135623730937
10
-16.974961399999966
20
-40.579671784262018
0
LWPOLYLINE
5
188
100
AcDbEntity
8
0
100
AcDbPolyline
90
8
70
1
43
0.0
10
-23.025461399999966
20
-40.579671784262018
42
-0.41421356237309503
10
-22.525461399999966
20
-41.079671784262011
10
-22.525461399999958
20
-54.078971784262009
42
-0.41421356237309503
10
-23.025461399999966
20
-54.578971784262016
10
-36.024761399999967
20
-54.578971784262009
42
-0.41421356237309503
10
-36.524761399999967
20
-54.078971784262009
10
-36.524761399999967
20
-41.079671784262011
42
-0.41421356237309503
10
-36.024761399999967
20
-40.579671784262018
0
LWPOLYLINE
5
189
100
AcDbEntity
8
0
100
AcDbPolyline
90
8
70
1
43
0.0
10
-42.075461399999973
20
-40.579671784262004
42
-0.41421356237307422
10
-41.575461399999966
20
-41.079671784262011
10
-41.575461399999966
20
-54.078971784262009
42
-0.41421356237307422
10
-42.075461399999973
20
-54.578971784262016
10
-55.074761399999971
20
-54.578971784262016
42
-0.41421356237307422
10
-55.574761399999979
20
-54.078971784262009
10
-55.574761399999979
20
-41.079671784262011
42
-0.41421356237307422
10
-55.074761399999971
20
-40.579671784262004
0
LWPOLYLINE
5
190
100
AcDbEntity
8
0
100
AcDbPolyline
90
8
70
1
43
0.0
10
-61.125461399999963
20
-40.579671784262004
42
-0.41421356237307422
10
-60.625461399999956
20
-41.079671784262011
10
-60.625461399999956
20
-54.078971784262009
42
-0.41421356237307422
10
-61.125461399999963
20
-54.578971784262016
10
-74.124761399999969
20
-54.578971784262016
42
-0.41421356237307422
10
-74.624761399999969
20
-54.078971784262009
10
-74.624761399999969
20
-41.079671784262011
42
-0.41421356237307422
10
-74.124761399999969
20
-40.579671784262004
0
LWPOLYLINE
5
191
100
AcDbEntity
8
0
100
AcDbPolyline
90
8
70
1
43
0.0
10
-80.175461399999961
20
-40.579671784262004
42
-0.41421356237307422
10
-79.675461399999961
20
-41.079671784262011
10
-79.675461399999961
20
-54.078971784262009
42
-0.41421356237307422
10
-80.175461399999961
20
-54.578971784262016
10
-93.174761399999966
20
-54.578971784262009
42
-0.41421356237307944
10
-93.674761399999966
20
-54.078971784262009
10
-93.674761399999966
20
-41.079671784262011
42
-0.41421356237308982
10
-93.174761399999966
20
-40.579671784262004
0
LWPOLYLINE
5
192
100
AcDbEntity
8
0
100
AcDbPolyline
90
8
70
1
43
0.0
10
-99.224061399999954
20
-40.579671784262018
42
-0.41421356237307944
10
-98.724061399999954
20
-41.079671784262011
10
-98.724061399999954
20
-54.078971784262009
42
-0.41421356237308982
10
-99.224061399999954
20
-54.578971784262016
10
-112.22476139999998
20
-54.578971784262009
42
-0.41421356237307944
10
-112.72476139999998
20
-54.078971784262009
10
-112.72476139999998
20
-41.079671784262011
42
-0.41421356237308982
10
-112.22476139999998
20
-40.579671784262004
0
LWPOLYLINE
5
193
100
AcDbEntity
8
0
100
AcDbPolyline
90
8
70
1
43
0.0
10
-118.27376139999997
20
-40.579671784261997
42
-0.41421356237304818
10
-117.77376139999996
20
-41.079671784262011
10
-117.77376139999998
20
-54.078971784262009
42
-0.41421356237305862
10
-118.27376139999997
20
-54.578971784262016
10
-131.27476139999996
20
-54.578971784262009
42
-0.41421356237307944
10
-131.77476139999996
20
-54.078971784262009
10
-131.77476139999996
20
-41.079671784262011
42
-0.41421356237308982
10
-131.27476139999996
20
-40.579671784262004
0
LWPOLYLINE
5
194
100
AcDbEntity
8
0
100
AcDbPolyline
90
8
70
1
43
0.0
10
-137.32576139999998
20
-40.579671784261997
42
-0.41421356237304818
10
-136.82576139999998
20
-41.079671784262011
10
-136.82576139999998
20
-54.078971784262009
42
-0.41421356237305862
10
-137.32576139999998
20
-54.578971784262016
10
-150.32476139999997
20
-54.578971784262009
42
-0.41421356237307944
10
-150.82476139999997
20
-54.078971784262009
10
-150.82476139999997
20
-41.079671784262011
42
-0.41421356237308982
10
-150.32476139999997
20
-40.579671784262004
0
LWPOLYLINE
5
195
100
AcDbEntity
8
0
100
AcDbPolyline
90
8
70
1
43
0.0
10
-156.37576139999996
20
-40.579671784262018
42
-0.41421356237307944
10
-155.87576139999996
20
-41.079671784262011
10
-155.87576139999996
20
-54.078971784262009
42
-0.41421356237308982
10
-156.37576139999996
20
-54.578971784262016
10
-169.37476140000001
20
-54.578971784262038
42
-0.4142135623730846
10
-169.87476139999998
20
-54.078971784262009
10
-169.87476139999998
20
-41.079671784262011
42
-0.41421356237310542
10
-169.37476139999998
20
-40.579671784262004
0
LWPOLYLINE
5
196
100
AcDbEntity
8
0
100
AcDbPolyline
90
8
70
1
43
0.0
10
-175.42576139999994
20
-40.57967178426199
42
-0.4142135623730846
10
-174.92576139999997
20
-41.079671784262011
10
-174.92576139999997
20
-54.078971784262009
42
-0.41421356237310542
10
-175.42576139999997
20
-54.578971784262016
10
-188.42476139999997
20
-54.578971784262016
42
-0.41421356237309503
10
-188.92476139999997
20
-54.078971784262009
10
-188.92476139999997
20
-41.079671784262011
42
-0.41421356237309503
10
-188.42476139999997
20
-40.579671784262004
0
LWPOLYLINE
5
197
100
AcDbEntity
8
0
100
AcDbPolyline
90
8
70
1
43
0.0
10
-194.47576139999995
20
-40.57967178426199
42
-0.4142135623730846
10
-193.97576139999998
20
-41.079671784262011
10
-193.97576139999998
20
-54.078971784262009
42
-0.41421356237310542
10
-194.47576139999998
20
-54.578971784262016
10
-207.47476140000003
20
-54.578971784262038
42
-0.4142135623730846
10
-207.97476140000001
20
-54.078971784262009
10
-207.97476140000001
20
-41.079671784262011
42
-0.41421356237310542
10
-207.47476140000001
20
-40.579671784262004
0
LWPOLYLINE
5
198
100
AcDbEntity
8
0
100
AcDbPolyline
90
8
70
1
43
0.0
10
-213.52576139999996
20
-40.579671784262004
42
-0.41421356237309503
10
-213.02576139999996
20
-41.079671784262011
10
-213.02576139999996
20
-54.078971784262009
42
-0.41421356237309503
10
-213.52576139999996
20
-54.578971784262016
10
-226.52476139999999
20
-54.578971784262016
42
-0.41421356237309503
10
-227.02476139999999
20
-54.078971784262009
10
-227.02476139999999
20
-41.079671784262011
42
-0.41421356237309503
10
-226.52476139999999
20
-40.579671784262004
0
LWPOLYLINE
5
199
100
AcDbEntity
8
0
100
AcDbPolyline
90
8
70
1
43
0.0
10
-213.52576139999996
20
-21.529671784262018
42
-0.41421356237304563
10
-213.02576139999996
20
-22.02967178426201
10
-213.02576139999996
20
-35.028971784262012
42
-0.41421356237305079
10
-213.52576139999996
20
-35.528971784262012
10
-226.52476139999999
20
-35.528971784262012
42
-0.41421356237305079
10
-227.02476139999999
20
-35.028971784262012
10
-227.02476139999999
20
-22.02967178426201
42
-0.41421356237304563
10
-226.52476139999999
20
-21.529671784262014
0
LWPOLYLINE
5
200
100
AcDbEntity
8
0
100
AcDbPolyline
90
8
70
1
43
0.0
10
-194.47576139999998
20
-21.529671784262035
42
-0.41421356237307683
10
-193.97576139999998
20
-22.02967178426201
10
-193.97576139999998
20
-35.028971784262012
42
-0.41421356237308204
10
-194.47576139999998
20
-35.528971784262012
10
-207.47476140000001
20
-35.528971784261998
42
-0.41421356237308204
10
-207.97476140000001
20
-35.028971784262012
10
-207.97476140000003
20
-22.02967178426201
42
-0.41421356237307683
10
-207.47476140000001
20
-21.529671784262014
0
LWPOLYLINE
5
201
100
AcDbEntity
8
0
100
AcDbPolyline
90
8
70
1
43
0.0
10
-175.42576139999997
20
-21.529671784262035
42
-0.41421356237307683
10
-174.92576139999997
20
-22.02967178426201
10
-174.92576139999997
20
-35.028971784262012
42
-0.41421356237308204
10
-175.42576139999997
20
-35.528971784262012
10
-188.42476139999997
20
-35.528971784262012
42
-0.41421356237305079
10
-188.92476139999997
20
-35.028971784262012
10
-188.92476139999997
20
-22.02967178426201
42
-0.41421356237304563
10
-188.42476139999997
20
-21.529671784262014
0
LWPOLYLINE
5
202
100
AcDbEntity
8
0
100
AcDbPolyline
90
8
70
1
43
0.0
10
-156.37576139999996
20
-21.529671784262021
42
-0.41421356237310542
10
-155.87576139999996
20
-22.02967178426201
10
-155.87576139999996
20
-35.028971784262012
42
-0.41421356237310802
10
-156.37576139999996
20
-35.528971784262012
10
-169.37476139999998
20
-35.528971784261998
42
-0.41421356237308204
10
-169.87476139999998
20
-35.028971784262012
10
-169.87476140000001
20
-22.02967178426201
42
-0.41421356237307683
10
-169.37476139999998
20
-21.529671784262014
0
LWPOLYLINE
5
203
100
AcDbEntity
8
0
100
AcDbPolyline
90
8
70
1
43
0.0
10
-137.32576139999998
20
-21.529671784262003
42
-0.41421356237307422
10
-136.82576139999998
20
-22.02967178426201
10
-136.82576139999998
20
-35.028971784262012
42
-0.41421356237308721
10
-137.32576139999998
20
-35.528971784262012
10
-150.32476139999997
20
-35.528971784262005
42
-0.41421356237310802
10
-150.82476139999997
20
-35.028971784262012
10
-150.82476139999997
20
-22.02967178426201
42
-0.41421356237310542
10
-150.32476139999997
20
-21.529671784262014
0
LWPOLYLINE
5
204
100
AcDbEntity
8
0
100
AcDbPolyline
90
8
70
1
43
0.0
10
-118.27376139999997
20
-21.529671784262003
42
-0.41421356237307422
10
-117.77376139999996
20
-22.02967178426201
10
-117.77376139999996
20
-35.028971784262012
42
-0.41421356237308721
10
-118.27376139999997
20
-35.528971784262012
10
-131.27476139999996
20
-35.528971784262005
42
-0.41421356237310802
10
-131.77476139999996
20
-35.028971784262012
10
-131.77476139999996
20
-22.02967178426201
42
-0.41421356237310542
10
-131.27476139999996
20
-21.529671784262014
0
LWPOLYLINE
5
205
100
AcDbEntity
8
0
100
AcDbPolyline
90
8
70
1
43
0.0
10
-99.224061399999954
20
-21.529671784262021
42
-0.41421356237310542
10
-98.724061399999954
20
-22.02967178426201
10
-98.724061399999954
20
-35.028971784262012
42
-0.41421356237310802
10
-99.224061399999954
20
-35.528971784262012
10
-112.22476139999998
20
-35.528971784262005
42
-0.41421356237310802
10
-112.72476139999998
20
-35.028971784262012
10
-112.72476139999998
20
-22.02967178426201
42
-0.41421356237310542
10
-112.22476139999998
20
-21.529671784262014
0
LWPOLYLINE
5
206
100
AcDbEntity
8
0
100
AcDbPolyline
90
8
70
1
43
0.0
10
-80.175461399999961
20
-21.529671784262007
42
-0.41421356237309764
10
-79.675461399999975
20
-22.02967178426201
10
-79.675461399999975
20
-35.028971784262012
42
-0.41421356237309764
10
-80.175461399999961
20
-35.528971784262012
10
-93.174761399999966
20
-35.528971784262005
42
-0.41421356237310802
10
-93.674761399999966
20
-35.028971784262012
10
-93.674761399999966
20
-22.02967178426201
42
-0.41421356237310542
10
-93.174761399999966
20
-21.529671784262014
0
LWPOLYLINE
5
207
100
AcDbEntity
8
0
100
AcDbPolyline
90
8
70
1
43
0.0
10
-61.125461399999963
20
-21.529671784262014
42
-0.41421356237309503
10
-60.625461399999963
20
-22.02967178426201
10
-60.625461399999963
20
-35.028971784262012
42
-0.41421356237309503
10
-61.125461399999963
20
-35.528971784262012
10
-74.124761399999969
20
-35.528971784262012
42
-0.41421356237309503
10
-74.624761399999954
20
-35.028971784262012
10
-74.624761399999954
20
-22.02967178426201
42
-0.41421356237309503
10
-74.124761399999969
20
-21.529671784262014
0
LWPOLYLINE
5
208
100
AcDbEntity
8
0
100
AcDbPolyline
90
8
70
1
43
0.0
10
-42.075461399999973
20
-21.529671784262014
42
-0.41421356237309503
10
-41.575461399999973
20
-22.02967178426201
10
-41.575461399999973
20
-35.028971784262012
42
-0.41421356237309503
10
-42.075461399999973
20
-35.528971784262012
10
-55.074761399999971
20
-35.528971784262012
42
-0.41421356237309503
10
-55.574761399999971
20
-35.028971784262012
10
-55.574761399999971
20
-22.02967178426201
42
-0.41421356237309503
10
-55.074761399999971
20
-21.529671784262014
0
LWPOLYLINE
5
209
100
AcDbEntity
8
0
100
AcDbPolyline
90
8
70
1
43
0.0
10
-23.025461399999966
20
-21.529671784262014
42
-0.41421356237309503
10
-22.525461399999966
20
-22.02967178426201
10
-22.525461399999966
20
-35.028971784262012
42
-0.41421356237309503
10
-23.025461399999966
20
-35.528971784262012
10
-36.024761399999967
20
-35.528971784262012
42
-0.41421356237309503
10
-36.524761399999967
20
-35.028971784262012
10
-36.524761399999967
20
-22.02967178426201
42
-0.41421356237309503
10
-36.024761399999967
20
-21.529671784262014
0
LWPOLYLINE
5
210
100
AcDbEntity
8
0
100
AcDbPolyline
90
8
70
1
43
0.0
10
-3.975411399999965
20
-21.529671784262014
42
-0.4142135623730957
10
-3.475411399999965
20
-22.02967178426201
10
-3.4754113999999658
20
-35.028971784262012
42
-0.41421356237309537
10
-3.9754113999999641
20
-35.528971784262012
10
-16.974961399999966
20
-35.528971784262012
42
-0.41421356237309243
10
-17.474961399999966
20
-35.028971784262012
10
-17.474961399999962
20
-22.02967178426201
42
-0.41421356237309503
10
-16.974961399999966
20
-21.529671784262014
0
LWPOLYLINE
5
211
100
AcDbEntity
8
0
100
AcDbPolyline
90
8
70
1
43
0.0
10
-3.9754113999999645
20
-2.4796417842620073
42
-0.41421356237309598
10
-3.475411399999965
20
-2.9796417842620082
10
-3.4754113999999636
20
-15.979171784262011
42
-0.41421356237309276
10
-3.9754113999999641
20
-16.479171784262011
10
-16.974961399999966
20
-16.479171784262011
42
-0.41421356237309892
10
-17.474961399999966
20
-15.979171784262011
10
-17.474961399999962
20
-2.9796417842620082
42
-0.41421356237309342
10
-16.974961399999966
20
-2.4796417842620073
0
LWPOLYLINE
5
212
100
AcDbEntity
8
0
100
AcDbPolyline
90
8
70
1
43
0.0
10
-23.025461399999966
20
-2.4796417842620078
42
-0.41421356237309598
10
-22.525461399999966
20
-2.9796417842620082
10
-22.525461399999969
20
-15.979171784262011
42
-0.41421356237310153
10
-23.025461399999966
20
-16.479171784262011
10
-36.024761399999967
20
-16.479171784262011
42
-0.41421356237309631
10
-36.524761399999967
20
-15.979171784262011
10
-36.524761399999967
20
-2.9796417842620082
42
-0.41421356237309631
10
-36.024761399999967
20
-2.4796417842620073
0
LWPOLYLINE
5
213
100
AcDbEntity
8
0
100
AcDbPolyline
90
8
70
1
43
0.0
10
-42.075461399999973
20
-2.47964178426201
42
-0.4142135623730947
10
-41.575461399999973
20
-2.9796417842620082
10
-41.575461399999973
20
-15.979171784262011
42
-0.41421356237309503
10
-42.075461399999973
20
-16.479171784262011
10
-55.074761399999971
20
-16.479171784262007
42
-0.4142135623730937
10
-55.574761399999971
20
-15.979171784262011
10
-55.574761399999971
20
-2.9796417842620082
42
-0.41421356237309503
10
-55.074761399999971
20
-2.4796417842620069
0
LWPOLYLINE
5
214
100
AcDbEntity
8
0
100
AcDbPolyline
90
8
70
1
43
0.0
10
-61.125461399999963
20
-2.47964178426201
42
-0.4142135623730947
10
-60.625461399999963
20
-2.9796417842620082
10
-60.625461399999963
20
-15.979171784262011
42
-0.41421356237309503
10
-61.125461399999963
20
-16.479171784262011
10
-74.124761399999969
20
-16.479171784262007
42
-0.4142135623730937
10
-74.624761399999954
20
-15.979171784262011
10
-74.624761399999954
20
-2.9796417842620082
42
-0.41421356237309503
10
-74.124761399999969
20
-2.4796417842620069
0
LWPOLYLINE
5
215
100
AcDbEntity
8
0
100
AcDbPolyline
90
8
70
1
43
0.0
10
-156.37576139999996
20
-2.4796417842620193
42
-0.41421356237310514
10
-155.87576139999996
20
-2.9796417842620082
10
-155.87576139999996
20
-15.979171784262009
42
-0.41421356237310802
10
-156.37576139999996
20
-16.479171784262011
10
-169.37476139999998
20
-16.479171784261986
42
-0.41421356237307549
10
-169.87476139999998
20
-15.979171784262011
10
-169.87476140000001
20
-2.9796417842620082
42
-0.41421356237307716
10
-169.37476139999998
20
-2.4796417842620078
0
LWPOLYLINE
5
216
100
AcDbEntity
8
0
100
AcDbPolyline
90
8
70
1
43
0.0
10
-175.42576139999997
20
-2.4796417842620322
42
-0.41421356237307683
10
-174.92576139999997
20
-2.9796417842620082
10
-174.92576139999994
20
-15.979171784262009
42
-0.41421356237307683
10
-175.42576139999997
20
-16.479171784262011
10
-188.42476139999997
20
-16.479171784262039
42
-0.41421356237302348
10
-188.92476139999997
20
-15.979171784262011
10
-188.92476139999991
20
-2.9796417842620082
42
-0.41421356237302509
10
-188.42476139999997
20
-2.4796417842620078
0
LWPOLYLINE
5
217
100
AcDbEntity
8
0
100
AcDbPolyline
90
8
70
1
43
0.0
10
-194.47576139999998
20
-2.4796417842620322
42
-0.41421356237307683
10
-193.97576139999998
20
-2.9796417842620082
10
-193.97576139999995
20
-15.979171784262009
42
-0.41421356237307683
10
-194.47576139999998
20
-16.479171784262011
10
-207.47476140000001
20
-16.479171784261986
42
-0.41421356237307549
10
-207.97476140000001
20
-15.979171784262011
10
-207.97476140000003
20
-2.9796417842620082
42
-0.41421356237307716
10
-207.47476140000001
20
-2.4796417842620078
0
LWPOLYLINE
5
218
100
AcDbEntity
8
0
100
AcDbPolyline
90
8
70
1
43
0.0
10
-213.52576139999996
20
-2.4796417842619785
42
-0.41421356237302509
10
-213.02576139999996
20
-2.9796417842620082
10
-213.02576139999999
20
-15.979171784262009
42
-0.41421356237302481
10
-213.52576139999996
20
-16.479171784262011
10
-226.52476139999999
20
-16.479171784262011
42
-0.41421356237304818
10
-227.02476139999999
20
-15.979171784262011
10
-227.02476139999993
20
-2.9796417842620082
42
-0.41421356237302509
10
-226.52476139999999
20
-2.4796417842620078
0
LWPOLYLINE
5
219
100
AcDbEntity
8
0
100
AcDbPolyline
90
46
70
1
43
0.0
10
-61.212802791182277
20
-101.54458485824138
10
-169.28772000881798
20
-101.54458485824114
42
0.20644506325849826
10
-170.15026139999998
20
-103.544584858241
10
-170.15026139999998
20
-105.51958485824102
42
-0.41421356237309503
10
-171.40026139999989
20
-106.76958485824102
10
-173.40026139999998
20
-106.76958485824099
42
-0.41421356237311169
10
-174.65026139999995
20
-105.51958485824102
10
-174.65026140000003
20
-103.544584858241
42
0.20644506325850823
10
-175.51280279118214
20
-101.54458485824117
10
-224.54976139999997
20
-101.544584858241
42
-0.41421356237309503
10
-226.54976139999997
20
-99.544584858240995
10
-226.54976139999999
20
-94.728771784262008
10
-237.07576139999998
20
-94.728771784262008
42
-0.41421356237309503
10
-239.07576139999998
20
-92.728771784262008
10
-239.07576139999998
20
-2.4287003842619908
42
-0.41421356237309237
10
-237.07576139999998
20
-0.42870038426200879
10
-175.51280279118197
20
-0.42870038426200824
42
0.20644506325850714
10
-174.65026139999998
20
1.5712996157379966
10
-174.65026139999998
20
5.3621126897170761
42
-0.41421356237309709
10
-173.40026139999998
20
6.6121126897170726
10
-171.40026139999998
20
6.6121126897170592
42
-0.41421356237310619
10
-170.15026139999998
20
5.3621126897170823
10
-170.15026140000018
20
1.5712996157379933
42
0.2064450632585047
10
-169.28772000881787
20
-0.42870038426182422
10
-61.212802791182277
20
-0.42870038426200768
42
0.20644506325852979
10
-60.350261399999965
20
1.5712996157379973
10
-60.35026139999998
20
5.362112689717085
42
-0.4142135623730932
10
-59.100261399999965
20
6.6121126897170832
10
-57.100261399999965
20
6.6121126897170708
42
-0.41421356237309453
10
-55.850261399999965
20
5.3621126897170734
10
-55.850261400000022
20
1.5712996157379977
42
0.20644506325852915
10
-54.987720008817661
20
-0.4287003842619963
10
6.5741540000000498
20
-0.42870038426200741
42
-0.41421356237309304
10
8.5741540000000462
20
-2.4287003842619903
10
8.5741540000000391
20
-92.728771784262008
42
-0.4142135623730952
10
6.5741540000000445
20
-94.728771784262008
10
-3.9504113999999646
20
-94.728771784262008
10
-3.9504113999999637
20
-99.544584858240995
42
-0.41421356237309231
10
-5.9504113999999575
20
-101.54458485824101
10
-54.987720008817682
20
-101.54458485824139
42
0.20644506325850234
10
-55.850261399999972
20
-103.544584858241
10
-55.850261399999972
20
-105.51958485824102
42
-0.41421356237309709
10
-57.100261399999965
20
-106.769584858241
10
-59.100261399999958
20
-106.76958485824102
42
-0.41421356237310336
10
-60.350261399999965
20
-105.51958485824102
10
-60.350261399999994
20
-103.544584858241
42
0.20644506325850481
0
CIRCLE
5
220
100
AcDbEntity
8
0
100
AcDbCircle
10
-58.100261399999972
20
-105.01958485824102
30
2.2204460492503131e-15
40
1.5000000000000002
210
0
220
0
230
1
0
CIRCLE
5
221
100
AcDbEntity
8
0
100
AcDbCircle
10
-172.40026139999998
20
4.8621126897170726
30
0
40
1.5000000000000202
210
0
220
0
230
1
0
CIRCLE
5
222
100
AcDbEntity
8
0
100
AcDbCircle
10
-172.40026139999998
20
-105.01958485824102
30
2.2204460492503131e-15
40
1.5000000000000202
210
0
220
0
230
1
0
CIRCLE
5
223
100
AcDbEntity
8
0
100
AcDbCircle
10
-58.100261399999972
20
4.8621126897170726
30
0
40
1.5000000000000002
210
0
220
0
230
1
0
ENDSEC
0
SECTION
2
OBJECTS
0
DICTIONARY
5
C
100
AcDbDictionary
3
ACAD_GROUP
350
D
3
ACAD_MLINESTYLE
350
17
0
DICTIONARY
5
D
100
AcDbDictionary
0
DICTIONARY
5
1A
330
C
100
AcDbDictionary
0
DICTIONARY
5
17
100
AcDbDictionary
0
ENDSEC
0
EOF
