0
SECTION
2
HEADER
9
$INSUNITS
70
4
9
$ACADVER
1
AC1014
9
$HANDSEED
5
FFFF
0
ENDSEC
0
SECTION
2
TABLES
0
TABLE
2
VPORT
5
8
100
AcDbSymbolTable
0
ENDTAB
0
TABLE
2
LTYPE
5
5
100
AcDbSymbolTable
0
LTYPE
5
14
100
AcDbSymbolTableRecord
100
AcDbLinetypeTableRecord
2
BYBLOCK
70
0
0
LTYPE
5
15
100
AcDbSymbolTableRecord
100
AcDbLinetypeTableRecord
2
BYLAYER
70
0
0
ENDTAB
0
TABLE
2
LAYER
5
2
100
AcDbSymbolTable
70
2
0
LAYER
5
50
100
AcDbSymbolTableRecord
100
AcDbLayerTableRecord
2
0
70
0
6
CONTINUOUS
0
ENDTAB
0
TABLE
2
STYLE
5
3
100
AcDbSymbolTable
70
1
0
STYLE
5
11
100
AcDbSymbolTableRecord
100
AcDbTextStyleTableRecord
2
STANDARD
70
0
0
ENDTAB
0
TABLE
2
VIEW
5
6
100
AcDbSymbolTable
70
0
0
ENDTAB
0
TABLE
2
UCS
5
7
100
AcDbSymbolTable
70
0
0
ENDTAB
0
TABLE
2
APPID
5
9
100
AcDbSymbolTable
70
2
0
APPID
5
12
100
AcDbSymbolTableRecord
100
AcDbRegAppTableRecord
2
ACAD
70
0
0
ENDTAB
0
TABLE
2
DIMSTYLE
5
A
100
AcDbSymbolTable
70
1
0
ENDTAB
0
TABLE
2
BLOCK_RECORD
5
1
100
AcDbSymbolTable
70
1
0
BLOCK_RECORD
5
1F
100
AcDbSymbolTableRecord
100
AcDbBlockTableRecord
2
*MODEL_SPACE
0
BLOCK_RECORD
5
1B
100
AcDbSymbolTableRecord
100
AcDbBlockTableRecord
2
*PAPER_SPACE
0
ENDTAB
0
ENDSEC
0
SECTION
2
BLOCKS
0
BLOCK
5
20
100
AcDbEntity
100
AcDbBlockBegin
2
*MODEL_SPACE
0
ENDBLK
5
21
100
AcDbEntity
100
AcDbBlockEnd
0
BLOCK
5
1C
100
AcDbEntity
100
AcDbBlockBegin
2
*PAPER_SPACE
0
ENDBLK
5
1D
100
AcDbEntity
100
AcDbBlockEnd
0
ENDSEC
0
SECTION
2
ENTITIES
0
LWPOLYLINE
5
100
100
AcDbEntity
8
0
100
AcDbPolyline
90
8
70
1
43
0.0
10
78.92526140000092
20
-108.87853416729739
42
-0.41421356237309503
10
79.675261400000906
20
-108.12853416729739
10
93.675261400000892
20
-108.12853416729737
42
-0.41421356237309503
10
94.425261400000906
20
-108.87853416729739
10
94.425261400000892
20
-120.17853416729739
42
-0.41421356237309503
10
93.675261400000892
20
-120.92853416729739
10
79.675261400000906
20
-120.92853416729739
42
-0.41421356237309503
10
78.925261400000906
20
-120.17853416729739
0
LWPOLYLINE
5
101
100
AcDbEntity
8
0
100
AcDbPolyline
90
8
70
1
43
0.0
10
21.775261400000915
20
-120.17853416729739
10
21.775261400000922
20
-108.87853416729739
42
-0.41421356237309503
10
22.525261400000915
20
-108.12853416729739
10
36.525261400000922
20
-108.12853416729737
42
-0.41421356237309503
10
37.275261400000922
20
-108.87853416729739
10
37.275261400000915
20
-120.17853416729739
42
-0.41421356237309503
10
36.525261400000922
20
-120.92853416729739
10
22.525261400000915
20
-120.92853416729739
42
-0.41421356237309503
0
LWPOLYLINE
5
102
100
AcDbEntity
8
0
100
AcDbPolyline
90
8
70
1
43
0.0
10
75.375261400000909
20
-120.17853416729739
42
-0.41421356237309503
10
74.625261400000909
20
-120.92853416729739
10
60.625261400000916
20
-120.92853416729739
42
-0.41421356237309503
10
59.875261400000916
20
-120.17853416729739
10
59.875261400000923
20
-108.87853416729739
42
-0.41421356237309503
10
60.625261400000916
20
-108.12853416729739
10
74.625261400000909
20
-108.12853416729737
42
-0.41421356237309503
10
75.375261400000909
20
-108.87853416729739
0
LWPOLYLINE
5
103
100
AcDbEntity
8
0
100
AcDbPolyline
90
8
70
1
43
0.0
10
55.575261400000919
20
-120.92853416729739
10
41.575261400000912
20
-120.92853416729739
42
-0.41421356237309503
10
40.825261400000912
20
-120.17853416729739
10
40.825261400000919
20
-108.87853416729739
42
-0.41421356237309503
10
41.575261400000912
20
-108.12853416729739
10
55.575261400000919
20
-108.12853416729737
42
-0.41421356237309503
10
56.325261400000919
20
-108.87853416729739
10
56.325261400000912
20
-120.17853416729739
42
-0.41421356237309503
0
LWPOLYLINE
5
104
100
AcDbEntity
8
0
100
AcDbPolyline
90
8
70
1
43
0.0
10
112.72526140000093
20
-108.12853416729739
10
98.725261400000917
20
-108.12853416729739
42
0.41421356237309503
10
97.975261400000903
20
-108.87853416729739
10
97.975261400000903
20
-120.17853416729739
42
0.41421356237309503
10
98.725261400000917
20
-120.92853416729739
10
112.72526140000093
20
-120.92853416729739
42
0.41421356237309503
10
113.47526140000092
20
-120.17853416729739
10
113.47526140000092
20
-108.87853416729739
42
0.41421356237309503
0
LWPOLYLINE
5
105
100
AcDbEntity
8
0
100
AcDbPolyline
90
8
70
1
43
0.0
10
193.97526140000093
20
-120.92853416729739
42
-0.41421356237309503
10
193.22526140000093
20
-120.17853416729739
10
193.22526140000093
20
-108.87853416729739
42
-0.41421356237309503
10
193.97526140000093
20
-108.12853416729739
10
207.9752614000009
20
-108.12853416729739
42
-0.41421356237309503
10
208.7252614000009
20
-108.87853416729739
10
208.7252614000009
20
-120.17853416729739
42
-0.41421356237309503
10
207.9752614000009
20
-120.92853416729739
0
LWPOLYLINE
5
106
100
AcDbEntity
8
0
100
AcDbPolyline
90
8
70
1
43
0.0
10
189.67526140000089
20
-120.17853416729739
42
-0.41421356237309503
10
188.92526140000089
20
-120.92853416729739
10
174.92526140000092
20
-120.92853416729739
42
-0.41421356237309503
10
174.17526140000092
20
-120.17853416729739
10
174.17526140000092
20
-108.87853416729739
42
-0.41421356237309503
10
174.92526140000092
20
-108.12853416729739
10
188.92526140000089
20
-108.12853416729739
42
-0.41421356237309503
10
189.67526140000089
20
-108.87853416729739
0
LWPOLYLINE
5
107
100
AcDbEntity
8
0
100
AcDbPolyline
90
8
70
1
43
0.0
10
132.52526140000089
20
-120.17853416729739
10
132.52526140000089
20
-108.87853416729739
42
0.41421356237309503
10
131.77526140000089
20
-108.12853416729739
10
117.77526140000091
20
-108.12853416729739
42
0.41421356237309503
10
117.02526140000091
20
-108.87853416729739
10
117.02526140000091
20
-120.17853416729739
42
0.41421356237309503
10
117.77526140000091
20
-120.92853416729739
10
131.77526140000089
20
-120.92853416729739
42
0.41421356237309503
0
LWPOLYLINE
5
108
100
AcDbEntity
8
0
100
AcDbPolyline
90
8
70
1
43
0.0
10
151.5752614000009
20
-120.17853416729739
42
-0.41421356237309503
10
150.8252614000009
20
-120.92853416729739
10
136.8252614000009
20
-120.92853416729739
42
-0.41421356237309503
10
136.07526140000093
20
-120.17853416729739
10
136.07526140000093
20
-108.87853416729739
42
-0.41421356237309503
10
136.8252614000009
20
-108.12853416729739
10
150.8252614000009
20
-108.12853416729739
42
-0.41421356237309503
10
151.5752614000009
20
-108.87853416729739
0
LWPOLYLINE
5
109
100
AcDbEntity
8
0
100
AcDbPolyline
90
8
70
1
43
0.0
10
227.02526140000091
20
-120.92853416729739
10
213.02526140000089
20
-120.92853416729739
42
-0.41421356237309503
10
212.27526140000091
20
-120.17853416729739
10
212.27526140000091
20
-108.87853416729739
42
-0.41421356237309503
10
213.02526140000089
20
-108.12853416729739
10
227.02526140000091
20
-108.12853416729739
42
-0.41421356237309503
10
227.77526140000091
20
-108.87853416729739
10
227.77526140000091
20
-120.17853416729739
42
-0.41421356237309503
0
LWPOLYLINE
5
110
100
AcDbEntity
8
0
100
AcDbPolyline
90
8
70
1
43
0.0
10
169.87526140000091
20
-108.12853416729739
42
-0.41421356237309503
10
170.62526140000091
20
-108.87853416729739
10
170.62526140000091
20
-120.17853416729739
42
-0.41421356237309503
10
169.87526140000091
20
-120.92853416729739
10
155.87526140000091
20
-120.92853416729739
42
-0.41421356237309503
10
155.12526140000094
20
-120.17853416729739
10
155.12526140000094
20
-108.87853416729739
42
-0.41421356237309503
10
155.87526140000091
20
-108.12853416729739
0
LWPOLYLINE
5
111
100
AcDbEntity
8
0
100
AcDbPolyline
90
8
70
1
43
0.0
10
17.47526140000091
20
-127.17853416729739
10
3.4752614000009121
20
-127.17853416729739
42
0.41421356237309503
10
2.7252614000009112
20
-127.9285341672974
10
2.7252614000009112
20
-139.2285341672974
42
0.41421356237309503
10
3.475261400000913
20
-139.9785341672974
10
17.47526140000091
20
-139.9785341672974
42
0.41421356237309503
10
18.22526140000091
20
-139.2285341672974
10
18.22526140000091
20
-127.9285341672974
42
0.41421356237309503
0
LWPOLYLINE
5
112
100
AcDbEntity
8
0
100
AcDbPolyline
90
8
70
1
43
0.0
10
21.775261400000915
20
-139.2285341672974
10
21.775261400000904
20
-127.9285341672974
42
-0.41421356237309503
10
22.525261400000915
20
-127.17853416729739
10
36.525261400000922
20
-127.1785341672974
42
-0.41421356237309503
10
37.275261400000915
20
-127.9285341672974
10
37.275261400000915
20
-139.2285341672974
42
-0.41421356237309503
10
36.525261400000922
20
-139.9785341672974
10
22.525261400000915
20
-139.9785341672974
42
-0.41421356237309503
0
LWPOLYLINE
5
113
100
AcDbEntity
8
0
100
AcDbPolyline
90
8
70
1
43
0.0
10
59.875261400000916
20
-139.2285341672974
10
59.875261400000909
20
-127.9285341672974
42
-0.41421356237309503
10
60.625261400000916
20
-127.17853416729739
10
74.625261400000909
20
-127.17853416729739
42
-0.41421356237309503
10
75.375261400000909
20
-127.9285341672974
10
75.375261400000909
20
-139.2285341672974
42
-0.41421356237309503
10
74.625261400000909
20
-139.9785341672974
10
60.625261400000916
20
-139.9785341672974
42
-0.41421356237309503
0
LWPOLYLINE
5
114
100
AcDbEntity
8
0
100
AcDbPolyline
90
8
70
1
43
0.0
10
174.17526140000092
20
-127.9285341672974
42
-0.41421356237309503
10
174.92526140000092
20
-127.17853416729739
10
188.92526140000089
20
-127.1785341672974
42
-0.41421356237309503
10
189.67526140000089
20
-127.9285341672974
10
189.67526140000089
20
-139.2285341672974
42
-0.41421356237309503
10
188.92526140000089
20
-139.9785341672974
10
174.92526140000092
20
-139.9785341672974
42
-0.41421356237309503
10
174.17526140000092
20
-139.2285341672974
0
LWPOLYLINE
5
115
100
AcDbEntity
8
0
100
AcDbPolyline
90
8
70
1
43
0.0
10
131.77526140000089
20
-139.9785341672974
10
117.77526140000091
20
-139.9785341672974
42
-0.41421356237309503
10
117.02526140000091
20
-139.2285341672974
10
117.0252614000009
20
-127.9285341672974
42
-0.41421356237309503
10
117.77526140000091
20
-127.17853416729739
10
131.77526140000089
20
-127.1785341672974
42
-0.41421356237309503
10
132.52526140000089
20
-127.9285341672974
10
132.52526140000089
20
-139.2285341672974
42
-0.41421356237309503
0
LWPOLYLINE
5
116
100
AcDbEntity
8
0
100
AcDbPolyline
90
8
70
1
43
0.0
10
150.8252614000009
20
-139.9785341672974
10
136.8252614000009
20
-139.9785341672974
42
-0.41421356237309503
10
136.07526140000093
20
-139.2285341672974
10
136.0752614000009
20
-127.9285341672974
42
-0.41421356237309503
10
136.8252614000009
20
-127.17853416729739
10
150.8252614000009
20
-127.1785341672974
42
-0.41421356237309503
10
151.5752614000009
20
-127.9285341672974
10
151.5752614000009
20
-139.2285341672974
42
-0.41421356237309503
0
LWPOLYLINE
5
117
100
AcDbEntity
8
0
100
AcDbPolyline
90
8
70
1
43
0.0
10
55.575261400000919
20
-139.9785341672974
10
41.575261400000912
20
-139.9785341672974
42
-0.41421356237309503
10
40.825261400000912
20
-139.2285341672974
10
40.825261400000905
20
-127.9285341672974
42
-0.41421356237309503
10
41.575261400000912
20
-127.17853416729739
10
55.575261400000919
20
-127.17853416729739
42
-0.41421356237309503
10
56.325261400000919
20
-127.9285341672974
10
56.325261400000912
20
-139.2285341672974
42
-0.41421356237309503
0
LWPOLYLINE
5
118
100
AcDbEntity
8
0
100
AcDbPolyline
90
8
70
1
43
0.0
10
94.425261400000892
20
-139.2285341672974
42
-0.41421356237309503
10
93.675261400000892
20
-139.9785341672974
10
79.675261400000906
20
-139.9785341672974
42
-0.41421356237309503
10
78.925261400000906
20
-139.2285341672974
10
78.925261400000892
20
-127.9285341672974
42
-0.41421356237309503
10
79.675261400000906
20
-127.17853416729739
10
93.675261400000892
20
-127.17853416729739
42
-0.41421356237309503
10
94.425261400000906
20
-127.9285341672974
0
LWPOLYLINE
5
119
100
AcDbEntity
8
0
100
AcDbPolyline
90
8
70
1
43
0.0
10
97.975261400000903
20
-127.9285341672974
42
-0.41421356237309503
10
98.725261400000917
20
-127.17853416729739
10
112.72526140000093
20
-127.1785341672974
42
-0.41421356237309503
10
113.47526140000092
20
-127.9285341672974
10
113.47526140000092
20
-139.2285341672974
42
-0.41421356237309503
10
112.72526140000093
20
-139.9785341672974
10
98.725261400000917
20
-139.9785341672974
42
-0.41421356237309503
10
97.975261400000932
20
-139.2285341672974
0
LWPOLYLINE
5
120
100
AcDbEntity
8
0
100
AcDbPolyline
90
8
70
1
43
0.0
10
169.87526140000091
20
-139.9785341672974
10
155.87526140000091
20
-139.9785341672974
42
-0.41421356237309503
10
155.12526140000094
20
-139.2285341672974
10
155.12526140000091
20
-127.9285341672974
42
-0.41421356237309503
10
155.87526140000091
20
-127.17853416729739
10
169.87526140000091
20
-127.1785341672974
42
-0.41421356237309503
10
170.62526140000091
20
-127.9285341672974
10
170.62526140000091
20
-139.2285341672974
42
-0.41421356237309503
0
LWPOLYLINE
5
121
100
AcDbEntity
8
0
100
AcDbPolyline
90
8
70
1
43
0.0
10
227.02526140000091
20
-139.9785341672974
10
213.02526140000089
20
-139.9785341672974
42
-0.41421356237309503
10
212.27526140000091
20
-139.2285341672974
10
212.27526140000089
20
-127.9285341672974
42
-0.41421356237309503
10
213.02526140000089
20
-127.17853416729739
10
227.02526140000091
20
-127.1785341672974
42
-0.41421356237309503
10
227.77526140000091
20
-127.9285341672974
10
227.77526140000091
20
-139.2285341672974
42
-0.41421356237309503
0
LWPOLYLINE
5
122
100
AcDbEntity
8
0
100
AcDbPolyline
90
8
70
1
43
0.0
10
207.9752614000009
20
-127.1785341672974
42
-0.41421356237309503
10
208.7252614000009
20
-127.9285341672974
10
208.7252614000009
20
-139.2285341672974
42
-0.41421356237309503
10
207.9752614000009
20
-139.9785341672974
10
193.97526140000093
20
-139.9785341672974
42
-0.41421356237309503
10
193.22526140000093
20
-139.2285341672974
10
193.22526140000093
20
-127.9285341672974
42
-0.41421356237309503
10
193.97526140000093
20
-127.17853416729739
0
LWPOLYLINE
5
123
100
AcDbEntity
8
0
100
AcDbPolyline
90
8
70
1
43
0.0
10
18.225261400000921
20
-158.27853416729741
42
-0.41421356237309503
10
17.47526140000091
20
-159.02853416729741
10
3.4752614000009121
20
-159.02853416729738
42
-0.41421356237309503
10
2.7252614000009112
20
-158.27853416729741
10
2.7252614000009192
20
-146.9785341672974
42
-0.41421356237309503
10
3.475261400000913
20
-146.2285341672974
10
17.47526140000091
20
-146.2285341672974
42
-0.41421356237309503
10
18.22526140000091
20
-146.9785341672974
0
LWPOLYLINE
5
124
100
AcDbEntity
8
0
100
AcDbPolyline
90
8
70
1
43
0.0
10
37.275261400000915
20
-158.27853416729741
10
37.275261400000915
20
-146.9785341672974
42
0.41421356237309503
10
36.525261400000922
20
-146.2285341672974
10
22.525261400000915
20
-146.2285341672974
42
0.41421356237309503
10
21.775261400000915
20
-146.9785341672974
10
21.775261400000915
20
-158.27853416729741
42
0.41421356237309503
10
22.525261400000915
20
-159.02853416729738
10
36.525261400000922
20
-159.02853416729738
42
0.41421356237309503
0
LWPOLYLINE
5
125
100
AcDbEntity
8
0
100
AcDbPolyline
90
8
70
1
43
0.0
10
56.325261400000919
20
-158.27853416729741
10
56.325261400000919
20
-146.9785341672974
42
0.41421356237309503
10
55.575261400000919
20
-146.2285341672974
10
41.575261400000912
20
-146.2285341672974
42
0.41421356237309503
10
40.825261400000912
20
-146.9785341672974
10
40.825261400000912
20
-158.27853416729741
42
0.41421356237309503
10
41.575261400000912
20
-159.02853416729738
10
55.575261400000919
20
-159.02853416729738
42
0.41421356237309503
0
LWPOLYLINE
5
126
100
AcDbEntity
8
0
100
AcDbPolyline
90
8
70
1
43
0.0
10
75.375261400000923
20
-158.27853416729741
42
-0.41421356237309503
10
74.625261400000909
20
-159.02853416729741
10
60.625261400000916
20
-159.02853416729741
42
-0.41421356237309503
10
59.875261400000916
20
-158.27853416729741
10
59.875261400000923
20
-146.9785341672974
42
-0.41421356237309503
10
60.625261400000916
20
-146.2285341672974
10
74.625261400000909
20
-146.2285341672974
42
-0.41421356237309503
10
75.375261400000909
20
-146.9785341672974
0
LWPOLYLINE
5
127
100
AcDbEntity
8
0
100
AcDbPolyline
90
8
70
1
43
0.0
10
93.675261400000892
20
-146.2285341672974
10
79.675261400000906
20
-146.2285341672974
42
0.41421356237309503
10
78.925261400000906
20
-146.9785341672974
10
78.925261400000906
20
-158.27853416729741
42
0.41421356237309503
10
79.675261400000906
20
-159.02853416729738
10
93.675261400000892
20
-159.02853416729738
42
0.41421356237309503
10
94.425261400000906
20
-158.27853416729741
10
94.425261400000906
20
-146.9785341672974
42
0.41421356237309503
0
LWPOLYLINE
5
128
100
AcDbEntity
8
0
100
AcDbPolyline
90
8
70
1
43
0.0
10
112.72526140000093
20
-146.2285341672974
10
98.725261400000917
20
-146.2285341672974
42
0.41421356237309503
10
97.975261400000903
20
-146.9785341672974
10
97.975261400000903
20
-158.27853416729741
42
0.41421356237309503
10
98.725261400000917
20
-159.02853416729738
10
112.72526140000093
20
-159.02853416729738
42
0.41421356237309503
10
113.47526140000092
20
-158.27853416729741
10
113.47526140000092
20
-146.9785341672974
42
0.41421356237309503
0
LWPOLYLINE
5
129
100
AcDbEntity
8
0
100
AcDbPolyline
90
8
70
1
43
0.0
10
227.02526140000091
20
-146.2285341672974
42
-0.41421356237309503
10
227.77526140000091
20
-146.9785341672974
10
227.77526140000091
20
-158.27853416729741
42
-0.41421356237309503
10
227.02526140000091
20
-159.02853416729741
10
213.02526140000089
20
-159.02853416729738
42
-0.41421356237309503
10
212.27526140000091
20
-158.27853416729741
10
212.27526140000091
20
-146.9785341672974
42
-0.41421356237309503
10
213.02526140000089
20
-146.2285341672974
0
LWPOLYLINE
5
130
100
AcDbEntity
8
0
100
AcDbPolyline
90
8
70
1
43
0.0
10
117.02526140000091
20
-146.9785341672974
42
-0.41421356237309503
10
117.77526140000091
20
-146.2285341672974
10
131.77526140000089
20
-146.2285341672974
42
-0.41421356237309503
10
132.52526140000089
20
-146.9785341672974
10
132.52526140000089
20
-158.27853416729741
42
-0.41421356237309503
10
131.77526140000089
20
-159.02853416729738
10
117.77526140000091
20
-159.02853416729738
42
-0.41421356237309503
10
117.02526140000091
20
-158.27853416729741
0
LWPOLYLINE
5
131
100
AcDbEntity
8
0
100
AcDbPolyline
90
8
70
1
43
0.0
10
136.07526140000093
20
-158.27853416729741
10
136.07526140000093
20
-146.9785341672974
42
-0.41421356237309503
10
136.8252614000009
20
-146.2285341672974
10
150.8252614000009
20
-146.2285341672974
42
-0.41421356237309503
10
151.5752614000009
20
-146.9785341672974
10
151.5752614000009
20
-158.27853416729741
42
-0.41421356237309503
10
150.8252614000009
20
-159.02853416729738
10
136.8252614000009
20
-159.02853416729738
42
-0.41421356237309503
0
LWPOLYLINE
5
132
100
AcDbEntity
8
0
100
AcDbPolyline
90
8
70
1
43
0.0
10
2.7252614000009112
20
-177.32853416729739
10
2.7252614000009192
20
-166.02853416729741
42
-0.41421356237309503
10
3.475261400000913
20
-165.27853416729741
10
17.47526140000091
20
-165.27853416729741
42
-0.41421356237309503
10
18.22526140000091
20
-166.02853416729741
10
18.225261400000939
20
-177.32853416729739
42
-0.41421356237309503
10
17.47526140000091
20
-178.07853416729742
10
3.4752614000009121
20
-178.07853416729739
42
-0.41421356237309503
0
LWPOLYLINE
5
133
100
AcDbEntity
8
0
100
AcDbPolyline
90
8
70
1
43
0.0
10
189.67526140000089
20
-158.27853416729741
42
-0.41421356237309503
10
188.92526140000089
20
-159.02853416729741
10
174.92526140000092
20
-159.02853416729738
42
-0.41421356237309503
10
174.17526140000092
20
-158.27853416729741
10
174.17526140000092
20
-146.9785341672974
42
-0.41421356237309503
10
174.92526140000092
20
-146.2285341672974
10
188.92526140000089
20
-146.2285341672974
42
-0.41421356237309503
10
189.67526140000089
20
-146.9785341672974
0
LWPOLYLINE
5
134
100
AcDbEntity
8
0
100
AcDbPolyline
90
8
70
1
43
0.0
10
207.9752614000009
20
-146.2285341672974
42
-0.41421356237309503
10
208.7252614000009
20
-146.9785341672974
10
208.7252614000009
20
-158.27853416729741
42
-0.41421356237309503
10
207.9752614000009
20
-159.02853416729741
10
193.97526140000093
20
-159.02853416729738
42
-0.41421356237309503
10
193.22526140000093
20
-158.27853416729741
10
193.22526140000093
20
-146.9785341672974
42
-0.41421356237309503
10
193.97526140000093
20
-146.2285341672974
0
LWPOLYLINE
5
135
100
AcDbEntity
8
0
100
AcDbPolyline
90
8
70
1
43
0.0
10
170.62526140000091
20
-158.27853416729741
10
170.62526140000091
20
-146.9785341672974
42
0.41421356237309503
10
169.87526140000091
20
-146.2285341672974
10
155.87526140000091
20
-146.2285341672974
42
0.41421356237309503
10
155.12526140000094
20
-146.9785341672974
10
155.12526140000094
20
-158.27853416729741
42
0.41421356237309503
10
155.87526140000091
20
-159.02853416729741
10
169.87526140000091
20
-159.02853416729738
42
0.41421356237309503
0
LWPOLYLINE
5
136
100
AcDbEntity
8
0
100
AcDbPolyline
90
8
70
1
43
0.0
10
36.525261400000922
20
-165.27853416729741
10
22.525261400000915
20
-165.27853416729741
42
0.41421356237309503
10
21.775261400000915
20
-166.02853416729741
10
21.775261400000915
20
-177.32853416729739
42
0.41421356237309503
10
22.525261400000915
20
-178.07853416729742
10
36.525261400000922
20
-178.07853416729742
42
0.41421356237309503
10
37.275261400000915
20
-177.32853416729739
10
37.275261400000915
20
-166.02853416729741
42
0.41421356237309503
0
LWPOLYLINE
5
137
100
AcDbEntity
8
0
100
AcDbPolyline
90
8
70
1
43
0.0
10
79.675261400000906
20
-178.07853416729739
42
-0.41421356237309503
10
78.925261400000906
20
-177.32853416729739
10
78.92526140000092
20
-166.02853416729741
42
-0.41421356237309503
10
79.675261400000906
20
-165.27853416729741
10
93.675261400000892
20
-165.27853416729741
42
-0.41421356237309503
10
94.425261400000892
20
-166.02853416729741
10
94.42526140000092
20
-177.32853416729739
42
-0.41421356237309503
10
93.675261400000892
20
-178.07853416729742
0
LWPOLYLINE
5
138
100
AcDbEntity
8
0
100
AcDbPolyline
90
8
70
1
43
0.0
10
136.07526140000093
20
-177.32853416729739
10
136.07526140000093
20
-166.02853416729741
42
-0.41421356237309503
10
136.8252614000009
20
-165.27853416729741
10
150.8252614000009
20
-165.27853416729741
42
-0.41421356237309503
10
151.5752614000009
20
-166.02853416729741
10
151.57526140000095
20
-177.32853416729739
42
-0.41421356237309503
10
150.8252614000009
20
-178.07853416729742
10
136.8252614000009
20
-178.07853416729739
42
-0.41421356237309503
0
LWPOLYLINE
5
139
100
AcDbEntity
8
0
100
AcDbPolyline
90
8
70
1
43
0.0
10
169.87526140000091
20
-165.27853416729741
10
155.87526140000091
20
-165.27853416729741
42
0.41421356237309503
10
155.12526140000094
20
-166.02853416729741
10
155.12526140000094
20
-177.32853416729739
42
0.41421356237309503
10
155.87526140000091
20
-178.07853416729742
10
169.87526140000091
20
-178.07853416729742
42
0.41421356237309503
10
170.62526140000091
20
-177.32853416729739
10
170.62526140000091
20
-166.02853416729741
42
0.41421356237309503
0
LWPOLYLINE
5
140
100
AcDbEntity
8
0
100
AcDbPolyline
90
8
70
1
43
0.0
10
74.625261400000909
20
-178.07853416729742
10
60.625261400000916
20
-178.07853416729739
42
-0.41421356237309503
10
59.875261400000916
20
-177.32853416729739
10
59.875261400000923
20
-166.02853416729741
42
-0.41421356237309503
10
60.625261400000916
20
-165.27853416729741
10
74.625261400000909
20
-165.27853416729741
42
-0.41421356237309503
10
75.375261400000909
20
-166.02853416729741
10
75.375261400000937
20
-177.32853416729739
42
-0.41421356237309503
0
LWPOLYLINE
5
141
100
AcDbEntity
8
0
100
AcDbPolyline
90
8
70
1
43
0.0
10
97.975261400000903
20
-177.32853416729739
10
97.975261400000932
20
-166.02853416729741
42
-0.41421356237309503
10
98.725261400000917
20
-165.27853416729741
10
112.72526140000093
20
-165.27853416729741
42
-0.41421356237309503
10
113.47526140000092
20
-166.02853416729741
10
113.47526140000096
20
-177.32853416729739
42
-0.41421356237309503
10
112.72526140000093
20
-178.07853416729742
10
98.725261400000917
20
-178.07853416729742
42
-0.41421356237309503
0
LWPOLYLINE
5
142
100
AcDbEntity
8
0
100
AcDbPolyline
90
8
70
1
43
0.0
10
56.325261400000919
20
-177.32853416729739
10
56.325261400000919
20
-166.02853416729741
42
0.41421356237309503
10
55.575261400000919
20
-165.27853416729741
10
41.575261400000912
20
-165.27853416729741
42
0.41421356237309503
10
40.825261400000912
20
-166.02853416729741
10
40.825261400000912
20
-177.32853416729739
42
0.41421356237309503
10
41.575261400000912
20
-178.07853416729742
10
55.575261400000919
20
-178.07853416729742
42
0.41421356237309503
0
LWPOLYLINE
5
143
100
AcDbEntity
8
0
100
AcDbPolyline
90
8
70
1
43
0.0
10
132.52526140000094
20
-177.32853416729739
42
-0.41421356237309503
10
131.77526140000089
20
-178.07853416729742
10
117.77526140000091
20
-178.07853416729739
42
-0.41421356237309503
10
117.02526140000091
20
-177.32853416729739
10
117.02526140000091
20
-166.02853416729741
42
-0.41421356237309503
10
117.77526140000091
20
-165.27853416729741
10
131.77526140000089
20
-165.27853416729741
42
-0.41421356237309503
10
132.52526140000089
20
-166.02853416729741
0
LWPOLYLINE
5
144
100
AcDbEntity
8
0
100
AcDbPolyline
90
8
70
1
43
0.0
10
188.92526140000089
20
-165.27853416729741
10
174.92526140000092
20
-165.27853416729741
42
0.41421356237309503
10
174.17526140000092
20
-166.02853416729741
10
174.17526140000092
20
-177.32853416729739
42
0.41421356237309503
10
174.92526140000092
20
-178.07853416729742
10
188.92526140000089
20
-178.07853416729742
42
0.41421356237309503
10
189.67526140000089
20
-177.32853416729739
10
189.67526140000089
20
-166.02853416729741
42
0.41421356237309503
0
LWPOLYLINE
5
145
100
AcDbEntity
8
0
100
AcDbPolyline
90
8
70
1
43
0.0
10
17.47526140000091
20
-197.1285341672974
10
3.4752614000009121
20
-197.1285341672974
42
-0.41421356237309503
10
2.7252614000009112
20
-196.3785341672974
10
2.7252614000009547
20
-185.07853416729739
42
-0.41421356237309503
10
3.475261400000913
20
-184.32853416729742
10
17.47526140000091
20
-184.32853416729739
42
-0.41421356237309503
10
18.22526140000091
20
-185.07853416729739
10
18.225261400000903
20
-196.3785341672974
42
-0.41421356237309503
0
LWPOLYLINE
5
146
100
AcDbEntity
8
0
100
AcDbPolyline
90
8
70
1
43
0.0
10
40.825261400000912
20
-196.3785341672974
10
40.825261400000919
20
-185.07853416729739
42
-0.41421356237309503
10
41.575261400000912
20
-184.32853416729739
10
55.575261400000919
20
-184.32853416729739
42
-0.41421356237309503
10
56.325261400000919
20
-185.07853416729739
10
56.325261400000912
20
-196.3785341672974
42
-0.41421356237309503
10
55.575261400000919
20
-197.1285341672974
10
41.575261400000912
20
-197.1285341672974
42
-0.41421356237309503
0
LWPOLYLINE
5
147
100
AcDbEntity
8
0
100
AcDbPolyline
90
8
70
1
43
0.0
10
21.775261400000915
20
-196.3785341672974
10
21.775261400000957
20
-185.07853416729739
42
-0.41421356237309503
10
22.525261400000915
20
-184.32853416729742
10
36.525261400000922
20
-184.32853416729739
42
-0.41421356237309503
10
37.275261400000922
20
-185.07853416729739
10
37.275261400000915
20
-196.3785341672974
42
-0.41421356237309503
10
36.525261400000922
20
-197.1285341672974
10
22.525261400000915
20
-197.1285341672974
42
-0.41421356237309503
0
LWPOLYLINE
5
148
100
AcDbEntity
8
0
100
AcDbPolyline
90
8
70
1
43
0.0
10
207.9752614000009
20
-165.27853416729741
42
-0.41421356237309503
10
208.7252614000009
20
-166.02853416729741
10
208.72526140000093
20
-177.32853416729739
42
-0.41421356237309503
10
207.9752614000009
20
-178.07853416729742
10
193.97526140000093
20
-178.07853416729739
42
-0.41421356237309503
10
193.22526140000093
20
-177.32853416729739
10
193.22526140000093
20
-166.02853416729741
42
-0.41421356237309503
10
193.97526140000093
20
-165.27853416729741
0
LWPOLYLINE
5
149
100
AcDbEntity
8
0
100
AcDbPolyline
90
8
70
1
43
0.0
10
75.375261400000909
20
-196.3785341672974
10
75.375261400000909
20
-185.07853416729739
42
0.41421356237309503
10
74.625261400000909
20
-184.32853416729742
10
60.625261400000916
20
-184.32853416729739
42
0.41421356237309503
10
59.875261400000916
20
-185.07853416729739
10
59.875261400000916
20
-196.3785341672974
42
0.41421356237309503
10
60.625261400000916
20
-197.1285341672974
10
74.625261400000909
20
-197.1285341672974
42
0.41421356237309503
0
LWPOLYLINE
5
150
100
AcDbEntity
8
0
100
AcDbPolyline
90
8
70
1
43
0.0
10
227.77526140000091
20
-177.32853416729739
10
227.77526140000091
20
-166.02853416729741
42
0.41421356237309503
10
227.02526140000091
20
-165.27853416729741
10
213.02526140000089
20
-165.27853416729741
42
0.41421356237309503
10
212.27526140000091
20
-166.02853416729741
10
212.27526140000091
20
-177.32853416729739
42
0.41421356237309503
10
213.02526140000089
20
-178.07853416729742
10
227.02526140000091
20
-178.07853416729742
42
0.41421356237309503
0
LWPOLYLINE
5
151
100
AcDbEntity
8
0
100
AcDbPolyline
90
8
70
1
43
0.0
10
93.675261400000892
20
-184.32853416729742
10
79.675261400000906
20
-184.32853416729742
42
0.41421356237309503
10
78.925261400000906
20
-185.07853416729739
10
78.925261400000906
20
-196.3785341672974
42
0.41421356237309503
10
79.675261400000906
20
-197.1285341672974
10
93.675261400000892
20
-197.1285341672974
42
0.41421356237309503
10
94.425261400000906
20
-196.3785341672974
10
94.425261400000892
20
-185.07853416729739
42
0.41421356237309503
0
LWPOLYLINE
5
152
100
AcDbEntity
8
0
100
AcDbPolyline
90
8
70
1
43
0.0
10
207.9752614000009
20
-197.1285341672974
10
193.97526140000093
20
-197.1285341672974
42
-0.41421356237309503
10
193.22526140000093
20
-196.3785341672974
10
193.22526140000096
20
-185.07853416729739
42
-0.41421356237309503
10
193.97526140000093
20
-184.32853416729742
10
207.9752614000009
20
-184.32853416729733
42
-0.41421356237309503
10
208.72526140000093
20
-185.07853416729739
10
208.7252614000009
20
-196.3785341672974
42
-0.41421356237309503
0
LWPOLYLINE
5
153
100
AcDbEntity
8
0
100
AcDbPolyline
90
8
70
1
43
0.0
10
131.77526140000089
20
-184.32853416729739
42
-0.41421356237309503
10
132.52526140000089
20
-185.07853416729739
10
132.52526140000089
20
-196.3785341672974
42
-0.41421356237309503
10
131.77526140000089
20
-197.1285341672974
10
98.725261400000917
20
-197.1285341672974
42
-0.41421356237309503
10
97.975261400000932
20
-196.3785341672974
10
97.975261400000932
20
-185.07853416729739
42
-0.41421356237309503
10
98.725261400000917
20
-184.32853416729739
0
LWPOLYLINE
5
154
100
AcDbEntity
8
0
100
AcDbPolyline
90
8
70
1
43
0.0
10
150.8252614000009
20
-184.32853416729742
10
136.8252614000009
20
-184.32853416729742
42
0.41421356237309503
10
136.07526140000093
20
-185.07853416729739
10
136.07526140000093
20
-196.3785341672974
42
0.41421356237309503
10
136.8252614000009
20
-197.1285341672974
10
150.8252614000009
20
-197.1285341672974
42
0.41421356237309503
10
151.5752614000009
20
-196.3785341672974
10
151.5752614000009
20
-185.07853416729739
42
0.41421356237309503
0
LWPOLYLINE
5
155
100
AcDbEntity
8
0
100
AcDbPolyline
90
8
70
1
43
0.0
10
169.87526140000091
20
-184.32853416729742
10
155.87526140000091
20
-184.32853416729742
42
0.41421356237309503
10
155.12526140000094
20
-185.07853416729739
10
155.12526140000094
20
-196.3785341672974
42
0.41421356237309503
10
155.87526140000091
20
-197.1285341672974
10
169.87526140000091
20
-197.1285341672974
42
0.41421356237309503
10
170.62526140000091
20
-196.3785341672974
10
170.62526140000091
20
-185.07853416729739
42
0.41421356237309503
0
LWPOLYLINE
5
156
100
AcDbEntity
8
0
100
AcDbPolyline
90
8
70
1
43
0.0
10
188.92526140000089
20
-184.32853416729742
10
174.92526140000092
20
-184.32853416729742
42
0.41421356237309503
10
174.17526140000092
20
-185.07853416729739
10
174.17526140000092
20
-196.3785341672974
42
0.41421356237309503
10
174.92526140000092
20
-197.1285341672974
10
188.92526140000089
20
-197.1285341672974
42
0.41421356237309503
10
189.67526140000089
20
-196.3785341672974
10
189.67526140000089
20
-185.07853416729739
42
0.41421356237309503
0
LWPOLYLINE
5
157
100
AcDbEntity
8
0
100
AcDbPolyline
90
8
70
1
43
0.0
10
227.77526140000091
20
-196.3785341672974
42
-0.41421356237309503
10
227.02526140000091
20
-197.1285341672974
10
213.02526140000089
20
-197.1285341672974
42
-0.41421356237309503
10
212.27526140000091
20
-196.3785341672974
10
212.27526140000091
20
-185.07853416729739
42
-0.41421356237309503
10
213.02526140000089
20
-184.32853416729739
10
227.02526140000091
20
-184.32853416729739
42
-0.41421356237309503
10
227.77526140000091
20
-185.07853416729739
0
LWPOLYLINE
5
158
100
AcDbEntity
8
0
100
AcDbPolyline
90
8
70
1
43
0.0
10
2.7252614000009023
20
-120.17853416729747
10
2.7252614000009112
20
-108.87853416729746
42
-0.41421356237309503
10
3.4752614000009041
20
-108.12853416729746
10
17.475261400000907
20
-108.12853416729745
42
-0.41421356237309503
10
18.22526140000091
20
-108.87853416729746
10
18.2252614000009
20
-120.17853416729747
42
-0.41421356237309503
10
17.475261400000907
20
-120.92853416729746
10
3.4752614000009041
20
-120.92853416729746
42
-0.41421356237309503
0
LINE
5
159
100
AcDbEntity
8
0
100
AcDbLine
10
5.9504114000006778
20
-98.663621093318156
30
0
11
54.987720008818393
21
-98.663621093318
31
0
0
ARC
5
160
100
AcDbEntity
8
0
100
AcDbCircle
10
5.9504114000007826
20
-100.66362109331821
30
0
40
2.0000000000000639
210
0
220
0
230
1
100
AcDbArc
50
90.000000000003013
51
180
0
LINE
5
161
100
AcDbEntity
8
0
100
AcDbLine
10
3.9504114000007142
20
-104.72943416729768
30
0
11
3.9504114000007169
21
-100.66362109331817
31
0
0
ARC
5
162
100
AcDbEntity
8
0
100
AcDbCircle
10
3.20041140000072
20
-104.72943416729765
30
0
40
0.75000000000001066
210
-0
220
0
230
1
100
AcDbArc
50
270.00000000000097
51
360
0
LINE
5
163
100
AcDbEntity
8
0
100
AcDbLine
10
3.2004114000007329
20
-105.47943416729767
30
0
11
-6.5741539999992931
21
-105.47943416729773
31
0
0
ARC
5
164
100
AcDbEntity
8
0
100
AcDbCircle
10
-6.5741539999992984
20
-107.47943416729774
30
0
40
2.0000000000000107
210
0
220
-0
230
1
100
AcDbArc
50
89.999999999999844
51
180
0
LINE
5
165
100
AcDbEntity
8
0
100
AcDbLine
10
-8.5741539999987317
20
-197.7795055672978
30
0
11
-8.5741539999993002
21
-107.47943416729775
31
0
0
ARC
5
166
100
AcDbEntity
8
0
100
AcDbCircle
10
-6.5741539999987362
20
-197.77950556729778
30
0
40
1.9999999999999951
210
0
220
0
230
1
100
AcDbArc
50
180
51
270.00000000000034
0
LINE
5
167
100
AcDbEntity
8
0
100
AcDbLine
10
54.987720008818982
20
-199.77950556729741
30
0
11
-6.5741539999987246
21
-199.77950556729778
31
0
0
ARC
5
168
100
AcDbEntity
8
0
100
AcDbCircle
10
53.100261400001244
20
-201.77950556729746
30
0
40
2.7500000000000924
210
0
220
-0
230
1
100
AcDbArc
50
0
51
46.658241772777657
0
ARC
5
169
100
AcDbEntity
8
0
100
AcDbCircle
10
63.100261400001465
20
-201.77950556729741
30
0
40
2.7500000000000862
210
0
220
0
230
1
100
AcDbArc
50
133.34175822722352
51
180
0
LINE
5
170
100
AcDbEntity
8
0
100
AcDbLine
10
60.350261400001372
20
-201.77950556729738
30
0
11
60.350261400001358
21
-205.57031864127651
31
0
0
LINE
5
171
100
AcDbEntity
8
0
100
AcDbLine
10
55.850261400001358
20
-205.57031864127649
30
0
11
55.85026140000133
21
-201.77950556729741
31
0
0
ARC
5
172
100
AcDbEntity
8
0
100
AcDbCircle
10
57.100261400001372
20
-205.57031864127649
30
0
40
1.2500000000000089
210
0
220
0
230
1
100
AcDbArc
50
180
51
270
0
LINE
5
173
100
AcDbEntity
8
0
100
AcDbLine
10
59.100261400001344
20
-206.82031864127646
30
0
11
57.100261400001372
21
-206.82031864127649
31
0
0
ARC
5
174
100
AcDbEntity
8
0
100
AcDbCircle
10
59.100261400001358
20
-205.57031864127649
30
0
40
1.2499999999999645
210
0
220
0
230
1
100
AcDbArc
50
269.99999999999932
51
360
0
CIRCLE
5
175
100
AcDbEntity
8
0
100
AcDbCircle
10
58.100261400001337
20
-205.07031864127646
30
0
40
1.5000000000000044
210
0
220
0
230
1
0
LINE
5
176
100
AcDbEntity
8
0
100
AcDbLine
10
169.28772000881906
20
-199.77950556729672
30
0
11
61.212802791183677
21
-199.77950556729738
31
0
0
ARC
5
177
100
AcDbEntity
8
0
100
AcDbCircle
10
167.40026140000126
20
-201.77950556729681
30
0
40
2.7500000000001279
210
0
220
-0
230
1
100
AcDbArc
50
0
51
46.658241772776982
0
ARC
5
178
100
AcDbEntity
8
0
100
AcDbCircle
10
177.40026140000163
20
-201.77950556729678
30
0
40
2.7500000000002292
210
0
220
0
230
1
100
AcDbArc
50
133.34175822722435
51
180
0
LINE
5
179
100
AcDbEntity
8
0
100
AcDbLine
10
170.15026140000143
20
-205.5703186412758
30
0
11
170.1502614000014
21
-201.7795055672967
31
0
0
LINE
5
180
100
AcDbEntity
8
0
100
AcDbLine
10
174.6502614000014
20
-201.77950556729667
30
0
11
174.6502614000014
21
-205.57031864127578
31
0
0
ARC
5
181
100
AcDbEntity
8
0
100
AcDbCircle
10
173.40026140000145
20
-205.57031864127578
30
0
40
1.25
210
0
220
0
230
1
100
AcDbArc
50
-90
51
0
0
LINE
5
182
100
AcDbEntity
8
0
100
AcDbLine
10
173.40026140000145
20
-206.82031864127578
30
0
11
171.40026140000143
21
-206.82031864127578
31
0
0
ARC
5
183
100
AcDbEntity
8
0
100
AcDbCircle
10
171.40026140000143
20
-205.5703186412758
30
0
40
1.25
210
0
220
0
230
1
100
AcDbArc
50
180
51
270
0
CIRCLE
5
184
100
AcDbEntity
8
0
100
AcDbCircle
10
172.40026140000137
20
-205.07031864127578
30
0
40
1.5000000000000222
210
0
220
0
230
1
0
LINE
5
185
100
AcDbEntity
8
0
100
AcDbLine
10
237.07576140000143
20
-199.77950556729633
30
0
11
175.5128027911837
21
-199.77950556729667
31
0
0
ARC
5
186
100
AcDbEntity
8
0
100
AcDbCircle
10
237.07576140000143
20
-197.77950556729627
30
0
40
2.0000000000000284
210
0
220
0
230
1
100
AcDbArc
50
270
51
360
0
LINE
5
187
100
AcDbEntity
8
0
100
AcDbLine
10
239.07576140000086
20
-107.47943416729625
30
0
11
239.07576140000148
21
-197.77950556729633
31
0
0
ARC
5
188
100
AcDbEntity
8
0
100
AcDbCircle
10
237.07576140000086
20
-107.47943416729623
30
0
40
1.9999999999999929
210
-0
220
0
230
1
100
AcDbArc
50
0
51
90.000000000002444
0
LINE
5
189
100
AcDbEntity
8
0
100
AcDbLine
10
227.2997614000011
20
-105.4794341672963
30
0
11
237.07576140000077
21
-105.47943416729623
31
0
0
LINE
5
190
100
AcDbEntity
8
0
100
AcDbLine
10
226.54976140000113
20
-104.72943416729632
30
0
11
226.5497614000011
21
-100.66362109331735
31
0
0
ARC
5
191
100
AcDbEntity
8
0
100
AcDbCircle
10
224.54976140000102
20
-100.66362109331737
30
0
40
2.0000000000000639
210
0
220
-0
230
1
100
AcDbArc
50
0
51
90.000000000001634
0
LINE
5
192
100
AcDbEntity
8
0
100
AcDbLine
10
175.51280279118311
20
-98.663621093317545
30
0
11
224.54976140000096
21
-98.663621093317317
31
0
0
ARC
5
193
100
AcDbEntity
8
0
100
AcDbCircle
10
177.40026140000097
20
-96.663621093317431
30
0
40
2.750000000000199
210
0
220
0
230
1
100
AcDbArc
50
180
51
226.65824177277653
0
LINE
5
194
100
AcDbEntity
8
0
100
AcDbLine
10
174.65026140000066
20
-94.688621093317551
30
0
11
174.65026140000077
21
-96.663621093317573
31
0
0
ARC
5
195
100
AcDbEntity
8
0
100
AcDbCircle
10
173.40026140000066
20
-94.688621093317536
30
0
40
1.25
210
-0
220
0
230
1
100
AcDbArc
50
0
51
90.000000000001307
0
LINE
5
196
100
AcDbEntity
8
0
100
AcDbLine
10
171.40026140000072
20
-93.438621093317579
30
0
11
173.40026140000063
21
-93.438621093317536
31
0
0
ARC
5
197
100
AcDbEntity
8
0
100
AcDbCircle
10
171.40026140000063
20
-94.688621093317522
30
0
40
1.2499999999999467
210
0
220
-0
230
1
100
AcDbArc
50
89.999999999996092
51
180
0
LINE
5
198
100
AcDbEntity
8
0
100
AcDbLine
10
170.15026140000066
20
-96.663621093317559
30
0
11
170.15026140000066
21
-94.688621093317551
31
0
0
ARC
5
199
100
AcDbEntity
8
0
100
AcDbCircle
10
167.4002614000006
20
-96.663621093317545
30
0
40
2.750000000000044
210
-0
220
0
230
1
100
AcDbArc
50
313.34175822722233
51
360
0
LINE
5
200
100
AcDbEntity
8
0
100
AcDbLine
10
61.212802791183051
20
-98.663621093317971
30
0
11
169.28772000881833
21
-98.663621093317587
31
0
0
ARC
5
201
100
AcDbEntity
8
0
100
AcDbCircle
10
63.100261400000612
20
-96.663621093318
30
0
40
2.7499999999998792
210
0
220
0
230
1
100
AcDbArc
50
180
51
226.65824177277909
0
LINE
5
202
100
AcDbEntity
8
0
100
AcDbLine
10
60.350261400000662
20
-94.688621093318233
30
0
11
60.350261400000733
21
-96.663621093318014
31
0
0
ARC
5
203
100
AcDbEntity
8
0
100
AcDbCircle
10
59.100261400000697
20
-94.688621093318218
30
0
40
1.2499999999999645
210
-0
220
0
230
1
100
AcDbArc
50
0
51
90.000000000001634
0
LINE
5
204
100
AcDbEntity
8
0
100
AcDbLine
10
57.100261400000647
20
-93.438621093318247
30
0
11
59.100261400000662
21
-93.438621093318247
31
0
0
ARC
5
205
100
AcDbEntity
8
0
100
AcDbCircle
10
57.100261400000633
20
-94.688621093318233
30
0
40
1.2499999999999822
210
0
220
-0
230
1
100
AcDbArc
50
89.999999999999346
51
180
0
LINE
5
206
100
AcDbEntity
8
0
100
AcDbLine
10
55.85026140000069
20
-96.663621093318
30
0
11
55.850261400000647
21
-94.688621093318233
31
0
0
ARC
5
207
100
AcDbEntity
8
0
100
AcDbCircle
10
53.100261400000676
20
-96.663621093317985
30
0
40
2.7500000000000302
210
-0
220
0
230
1
100
AcDbArc
50
313.34175822722261
51
360
0
ARC
5
208
100
AcDbEntity
8
0
100
AcDbCircle
10
227.2997614000011
20
-104.7294341672964
30
0
40
0.74999999999999289
210
0
220
0
230
1
100
AcDbArc
50
180
51
270
0
CIRCLE
5
209
100
AcDbEntity
8
0
100
AcDbCircle
10
58.100261400001337
20
-95.188621093318204
30
0
40
1.5000000000000044
210
0
220
0
230
1
0
CIRCLE
5
210
100
AcDbEntity
8
0
100
AcDbCircle
10
172.40026140000137
20
-95.188621093318915
30
0
40
1.5000000000000222
210
0
220
0
230
1
0
ENDSEC
0
SECTION
2
OBJECTS
0
DICTIONARY
5
C
100
AcDbDictionary
3
ACAD_GROUP
350
D
3
ACAD_MLINESTYLE
350
17
0
DICTIONARY
5
D
100
AcDbDictionary
0
DICTIONARY
5
1A
330
C
100
AcDbDictionary
0
DICTIONARY
5
17
100
AcDbDictionary
0
ENDSEC
0
EOF
