0
SECTION
2
HEADER
9
$INSUNITS
70
4
9
$ACADVER
1
AC1014
9
$HANDSEED
5
FFFF
0
ENDSEC
0
SECTION
2
TABLES
0
TABLE
2
VPORT
5
8
100
AcDbSymbolTable
0
ENDTAB
0
TABLE
2
LTYPE
5
5
100
AcDbSymbolTable
0
LTYPE
5
14
100
AcDbSymbolTableRecord
100
AcDbLinetypeTableRecord
2
BYBLOCK
70
0
0
LTYPE
5
15
100
AcDbSymbolTableRecord
100
AcDbLinetypeTableRecord
2
BYLAYER
70
0
0
ENDTAB
0
TABLE
2
LAYER
5
2
100
AcDbSymbolTable
70
2
0
LAYER
5
50
100
AcDbSymbolTableRecord
100
AcDbLayerTableRecord
2
0
70
0
6
CONTINUOUS
0
ENDTAB
0
TABLE
2
STYLE
5
3
100
AcDbSymbolTable
70
1
0
STYLE
5
11
100
AcDbSymbolTableRecord
100
AcDbTextStyleTableRecord
2
STANDARD
70
0
0
ENDTAB
0
TABLE
2
VIEW
5
6
100
AcDbSymbolTable
70
0
0
ENDTAB
0
TABLE
2
UCS
5
7
100
AcDbSymbolTable
70
0
0
ENDTAB
0
TABLE
2
APPID
5
9
100
AcDbSymbolTable
70
2
0
APPID
5
12
100
AcDbSymbolTableRecord
100
AcDbRegAppTableRecord
2
ACAD
70
0
0
ENDTAB
0
TABLE
2
DIMSTYLE
5
A
100
AcDbSymbolTable
70
1
0
ENDTAB
0
TABLE
2
BLOCK_RECORD
5
1
100
AcDbSymbolTable
70
1
0
BLOCK_RECORD
5
1F
100
AcDbSymbolTableRecord
100
AcDbBlockTableRecord
2
*MODEL_SPACE
0
BLOCK_RECORD
5
1B
100
AcDbSymbolTableRecord
100
AcDbBlockTableRecord
2
*PAPER_SPACE
0
ENDTAB
0
ENDSEC
0
SECTION
2
BLOCKS
0
BLOCK
5
20
100
AcDbEntity
100
AcDbBlockBegin
2
*MODEL_SPACE
0
ENDBLK
5
21
100
AcDbEntity
100
AcDbBlockEnd
0
BLOCK
5
1C
100
AcDbEntity
100
AcDbBlockBegin
2
*PAPER_SPACE
0
ENDBLK
5
1D
100
AcDbEntity
100
AcDbBlockEnd
0
ENDSEC
0
SECTION
2
ENTITIES
0
LWPOLYLINE
5
100
100
AcDbEntity
8
0
100
AcDbPolyline
90
8
70
1
43
0.0
10
135.87500000000003
20
-15.775000000000004
42
0.41421356237307422
10
136.625
20
-16.524999999999995
10
149.125
20
-16.525000000000006
42
0.4142135623730846
10
149.875
20
-15.775000000000004
10
149.875
20
-3.2750000000000012
42
0.41421356237309204
10
149.125
20
-2.5250000000000079
10
136.625
20
-2.5250000000000017
42
0.41421356237310458
10
135.87500000000003
20
-3.2750000000000012
0
LWPOLYLINE
5
101
100
AcDbEntity
8
0
100
AcDbPolyline
90
8
70
1
43
0.0
10
117.575
20
-16.524999999999995
10
130.07499999999999
20
-16.525000000000006
42
0.4142135623730846
10
130.82499999999999
20
-15.775000000000004
10
130.82499999999999
20
-3.2750000000000012
42
0.41421356237309204
10
130.07499999999999
20
-2.5250000000000079
10
117.575
20
-2.5250000000000017
42
0.41421356237310458
10
116.82500000000003
20
-3.2750000000000012
10
116.82500000000003
20
-15.775000000000004
42
0.41421356237307422
0
LWPOLYLINE
5
102
100
AcDbEntity
8
0
100
AcDbPolyline
90
8
70
1
43
0.0
10
212.07499999999999
20
-15.775000000000004
42
0.41421356237309503
10
212.82499999999999
20
-16.524999999999995
10
225.32499999999999
20
-16.524999999999977
42
0.41421356237312978
10
226.07500000000002
20
-15.775000000000004
10
226.07500000000002
20
-3.2750000000000012
42
0.41421356237305518
10
225.32499999999999
20
-2.5250000000000079
10
212.82499999999999
20
-2.5250000000000083
42
0.41421356237309503
10
212.07499999999999
20
-3.2750000000000012
0
LWPOLYLINE
5
103
100
AcDbEntity
8
0
100
AcDbPolyline
90
8
70
1
43
0.0
10
97.775000000000034
20
-15.775000000000004
10
97.775000000000034
20
-3.2750000000000012
42
-0.41421356237310308
10
98.525000000000006
20
-2.5249999999999999
10
111.02500000000001
20
-2.5250000000000012
42
-0.4142135623731048
10
111.77500000000002
20
-3.2750000000000012
10
111.77500000000002
20
-15.775000000000004
42
-0.41421356237310281
10
111.02500000000001
20
-16.525000000000002
10
98.525000000000006
20
-16.525000000000002
42
-0.41421356237308982
0
LWPOLYLINE
5
104
100
AcDbEntity
8
0
100
AcDbPolyline
90
8
70
1
43
0.0
10
3.2750000000000012
20
-35.57500000000001
10
15.775000000000004
20
-35.57500000000001
42
0.41421356237309243
10
16.525000000000002
20
-34.825000000000003
10
16.525000000000002
20
-22.324999999999999
42
0.41421356237309503
10
15.775000000000004
20
-21.575000000000003
10
3.2750000000000012
20
-21.575000000000006
42
0.41421356237309853
10
2.524999999999999
20
-22.324999999999999
10
2.5249999999999968
20
-34.825000000000003
42
0.41421356237309437
0
LWPOLYLINE
5
105
100
AcDbEntity
8
0
100
AcDbPolyline
90
8
70
1
43
0.0
10
59.675000000000011
20
-34.825000000000003
42
0.4142135623730846
10
60.425000000000004
20
-35.57500000000001
10
72.925000000000026
20
-35.575000000000003
42
0.41421356237309681
10
73.67500000000004
20
-34.825000000000003
10
73.674999999999983
20
-22.324999999999999
42
0.41421356237309853
10
72.925000000000026
20
-21.575000000000003
10
60.425000000000004
20
-21.574999999999996
42
0.41421356237308815
10
59.675000000000004
20
-22.324999999999999
0
LWPOLYLINE
5
106
100
AcDbEntity
8
0
100
AcDbPolyline
90
8
70
1
43
0.0
10
111.77500000000002
20
-34.825000000000003
10
111.77500000000002
20
-22.324999999999999
42
0.41421356237307422
10
111.02500000000001
20
-21.57500000000001
10
98.525000000000006
20
-21.575000000000003
42
0.41421356237308293
10
97.77500000000002
20
-22.324999999999999
10
97.775000000000034
20
-34.825000000000003
42
0.41421356237310197
10
98.525000000000006
20
-35.575000000000003
10
111.02500000000001
20
-35.574999999999996
42
0.41421356237310197
0
LWPOLYLINE
5
107
100
AcDbEntity
8
0
100
AcDbPolyline
90
8
70
1
43
0.0
10
53.874999999999993
20
-35.575000000000003
42
0.41421356237309681
10
54.625
20
-34.825000000000003
10
54.625
20
-22.324999999999999
42
0.41421356237311413
10
53.875
20
-21.575000000000003
10
41.374999999999993
20
-21.57500000000001
42
0.41421356237308637
10
40.625
20
-22.324999999999999
10
40.625
20
-34.825000000000003
42
0.41421356237310375
10
41.375
20
-35.57500000000001
0
LWPOLYLINE
5
108
100
AcDbEntity
8
0
100
AcDbPolyline
90
8
70
1
43
0.0
10
34.825000000000003
20
-21.575000000000006
42
-0.41421356237309331
10
35.57500000000001
20
-22.324999999999999
10
35.57500000000001
20
-34.825000000000003
42
-0.41421356237308815
10
34.825000000000003
20
-35.57500000000001
10
22.324999999999999
20
-35.575000000000003
42
-0.41421356237309331
10
21.575000000000003
20
-34.825000000000003
10
21.575000000000003
20
-22.324999999999999
42
-0.41421356237309503
10
22.324999999999999
20
-21.575000000000003
0
LWPOLYLINE
5
109
100
AcDbEntity
8
0
100
AcDbPolyline
90
8
70
1
43
0.0
10
78.724999999999994
20
-22.324999999999999
10
78.724999999999994
20
-34.825000000000003
42
0.41421356237308982
10
79.47499999999998
20
-35.57500000000001
10
91.974999999999994
20
-35.574999999999996
42
0.41421356237308116
10
92.725000000000023
20
-34.825000000000003
10
92.724999999999966
20
-22.324999999999999
42
0.41421356237308293
10
91.974999999999994
20
-21.57500000000001
10
79.47499999999998
20
-21.574999999999996
42
0.41421356237309159
0
LWPOLYLINE
5
110
100
AcDbEntity
8
0
100
AcDbPolyline
90
8
70
1
43
0.0
10
130.82499999999999
20
-22.324999999999999
10
130.82499999999999
20
-34.825000000000003
42
-0.41421356237310025
10
130.07499999999999
20
-35.57500000000001
10
117.575
20
-35.575000000000017
42
-0.41421356237309681
10
116.82500000000003
20
-34.825000000000003
10
116.82500000000005
20
-22.324999999999999
42
-0.41421356237309331
10
117.575
20
-21.575000000000003
10
130.07499999999999
20
-21.575000000000003
42
-0.41421356237308293
0
LWPOLYLINE
5
111
100
AcDbEntity
8
0
100
AcDbPolyline
90
8
70
1
43
0.0
10
149.125
20
-21.575000000000003
42
-0.41421356237308293
10
149.875
20
-22.324999999999999
10
149.875
20
-34.825000000000003
42
-0.41421356237310025
10
149.125
20
-35.57500000000001
10
136.625
20
-35.575000000000017
42
-0.41421356237309681
10
135.87500000000003
20
-34.825000000000003
10
135.87500000000006
20
-22.324999999999999
42
-0.41421356237309331
10
136.625
20
-21.575000000000003
0
LWPOLYLINE
5
112
100
AcDbEntity
8
0
100
AcDbPolyline
90
8
70
1
43
0.0
10
168.92500000000001
20
-22.324999999999999
10
168.92500000000001
20
-34.825000000000003
42
-0.41421356237309681
10
168.17500000000001
20
-35.57500000000001
10
155.67500000000001
20
-35.575000000000017
42
-0.41421356237309681
10
154.92500000000004
20
-34.825000000000003
10
154.92500000000004
20
-22.324999999999999
42
-0.41421356237309503
10
155.67500000000001
20
-21.575000000000003
10
168.17500000000001
20
-21.57500000000001
42
-0.41421356237309331
0
LWPOLYLINE
5
113
100
AcDbEntity
8
0
100
AcDbPolyline
90
8
70
1
43
0.0
10
40.625
20
-41.375
10
40.625
20
-53.875
42
0.41421356237311585
10
41.375
20
-54.625
10
53.875
20
-54.625
42
0.41421356237311585
10
54.625
20
-53.875
10
54.625
20
-41.375
42
0.41421356237311585
10
53.875
20
-40.625
10
41.375
20
-40.625
42
0.41421356237311585
0
LWPOLYLINE
5
114
100
AcDbEntity
8
0
100
AcDbPolyline
90
8
70
1
43
0.0
10
59.675000000000004
20
-53.875
10
59.675000000000004
20
-41.375
42
-0.41421356237308815
10
60.425000000000004
20
-40.625
10
72.925000000000026
20
-40.625
42
-0.41421356237311585
10
73.67500000000004
20
-41.375
10
73.674999999999983
20
-53.875
42
-0.4142135623730846
10
72.925000000000026
20
-54.625
10
60.425000000000004
20
-54.624999999999993
42
-0.41421356237311241
0
LWPOLYLINE
5
115
100
AcDbEntity
8
0
100
AcDbPolyline
90
8
70
1
43
0.0
10
187.22499999999999
20
-35.575000000000003
42
0.41421356237309681
10
187.97499999999999
20
-34.825000000000003
10
187.97499999999999
20
-22.324999999999999
42
0.41421356237308637
10
187.22499999999999
20
-21.57500000000001
10
174.72499999999999
20
-21.574999999999992
42
0.41421356237311413
10
173.97500000000005
20
-22.324999999999999
10
173.97500000000002
20
-34.825000000000003
42
0.41421356237307422
10
174.72499999999999
20
-35.575000000000003
0
LWPOLYLINE
5
116
100
AcDbEntity
8
0
100
AcDbPolyline
90
8
70
1
43
0.0
10
79.47499999999998
20
-54.625
42
-0.41421356237309853
10
78.724999999999994
20
-53.875
10
78.724999999999994
20
-41.375
42
-0.41421356237309853
10
79.47499999999998
20
-40.625
10
91.974999999999994
20
-40.624999999999993
42
-0.41421356237308815
10
92.724999999999994
20
-41.375
10
92.724999999999966
20
-53.875
42
-0.41421356237308815
10
91.974999999999994
20
-54.625
0
LWPOLYLINE
5
117
100
AcDbEntity
8
0
100
AcDbPolyline
90
8
70
1
43
0.0
10
226.07500000000002
20
-22.324999999999999
10
226.07500000000002
20
-34.825000000000003
42
-0.41421356237310719
10
225.32499999999999
20
-35.57500000000001
10
212.82499999999999
20
-35.575000000000031
42
-0.41421356237307944
10
212.07499999999999
20
-34.825000000000003
10
212.07499999999999
20
-22.324999999999999
42
-0.41421356237309681
10
212.82499999999999
20
-21.575000000000003
10
225.32499999999999
20
-21.575000000000028
42
-0.41421356237312801
0
LWPOLYLINE
5
118
100
AcDbEntity
8
0
100
AcDbPolyline
90
8
70
1
43
0.0
10
22.324999999999999
20
-2.5250000000000017
42
0.4142135623730957
10
21.575000000000003
20
-3.2750000000000012
10
21.574999999999996
20
-15.775000000000004
42
0.41421356237309503
10
22.324999999999999
20
-16.525000000000002
10
34.825000000000003
20
-16.525000000000002
42
0.41421356237309853
10
35.57500000000001
20
-15.775000000000004
10
35.575000000000003
20
-3.2750000000000012
42
0.41421356237309137
10
34.825000000000003
20
-2.524999999999999
0
LWPOLYLINE
5
119
100
AcDbEntity
8
0
100
AcDbPolyline
90
8
70
1
43
0.0
10
41.375
20
-2.5250000000000057
42
0.41421356237309243
10
40.625
20
-3.2750000000000012
10
40.625
20
-15.775000000000004
42
0.41421356237310897
10
41.375
20
-16.525000000000002
10
53.875
20
-16.524999999999991
42
0.41421356237309592
10
54.625
20
-15.775000000000004
10
54.625
20
-3.2750000000000012
42
0.41421356237309437
10
53.875
20
-2.524999999999999
0
LWPOLYLINE
5
120
100
AcDbEntity
8
0
100
AcDbPolyline
90
8
70
1
43
0.0
10
60.425000000000004
20
-16.525000000000002
10
72.925000000000026
20
-16.524999999999991
42
0.41421356237309592
10
73.67500000000004
20
-15.775000000000004
10
73.67500000000004
20
-3.2750000000000012
42
0.41421356237309437
10
72.925000000000026
20
-2.524999999999999
10
60.425000000000004
20
-2.5249999999999968
42
0.41421356237308898
10
59.675000000000004
20
-3.2750000000000012
10
59.675000000000004
20
-15.775000000000004
42
0.41421356237308815
0
LWPOLYLINE
5
121
100
AcDbEntity
8
0
100
AcDbPolyline
90
8
70
1
43
0.0
10
79.47499999999998
20
-16.525000000000002
10
91.97499999999998
20
-16.525000000000006
42
0.4142135623730846
10
92.724999999999994
20
-15.775000000000004
10
92.724999999999994
20
-3.2750000000000012
42
0.41421356237309204
10
91.974999999999994
20
-2.5250000000000079
10
79.47499999999998
20
-2.5249999999999932
42
0.41421356237309398
10
78.724999999999994
20
-3.2750000000000012
10
78.724999999999994
20
-15.775000000000004
42
0.41421356237309853
0
LWPOLYLINE
5
122
100
AcDbEntity
8
0
100
AcDbPolyline
90
8
70
1
43
0.0
10
155.67500000000001
20
-2.5250000000000017
42
0.41421356237310442
10
154.92500000000004
20
-3.2750000000000012
10
154.92500000000004
20
-15.775000000000004
42
0.41421356237307422
10
155.67500000000001
20
-16.524999999999995
10
168.17500000000001
20
-16.524999999999995
42
0.4142135623730942
10
168.92500000000001
20
-15.775000000000004
10
168.92500000000001
20
-3.2750000000000012
42
0.41421356237309548
10
168.17500000000001
20
-2.5250000000000079
0
LWPOLYLINE
5
123
100
AcDbEntity
8
0
100
AcDbPolyline
90
8
70
1
43
0.0
10
187.22499999999999
20
-16.525000000000002
42
0.41421356237309681
10
187.97499999999999
20
-15.775000000000004
10
187.97499999999999
20
-3.2750000000000012
42
0.41421356237306639
10
187.22499999999999
20
-2.5250000000000079
10
174.72499999999999
20
-2.524999999999995
42
0.41421356237311413
10
173.97500000000005
20
-3.2750000000000012
10
173.97500000000005
20
-15.775000000000004
42
0.41421356237307599
10
174.72499999999999
20
-16.524999999999995
0
LWPOLYLINE
5
124
100
AcDbEntity
8
0
100
AcDbPolyline
90
8
70
1
43
0.0
10
193.77500000000001
20
-2.5249999999999999
10
206.27500000000001
20
-2.5250000000000048
42
-0.41421356237309614
10
207.02500000000001
20
-3.2750000000000012
10
207.02500000000001
20
-15.775000000000004
42
-0.41421356237306733
10
206.27500000000001
20
-16.525000000000002
10
193.77500000000001
20
-16.525000000000013
42
-0.41421356237311502
10
193.02500000000006
20
-15.775000000000004
10
193.02500000000003
20
-3.2750000000000012
42
-0.41421356237307749
0
LWPOLYLINE
5
125
100
AcDbEntity
8
0
100
AcDbPolyline
90
48
70
1
43
0.0
10
54.899999999998926
20
-96.775971400000458
10
54.899999999998883
20
-100.56678447397957
42
0.41421356237309087
10
56.149999999998869
20
-101.81678447397957
10
58.149999999998847
20
-101.81678447397957
42
0.41421356237310336
10
59.399999999998883
20
-100.56678447397958
10
59.399999999998954
20
-96.775971400000586
42
-0.20644506325852999
10
60.262541391181301
20
-94.775971400000515
10
168.3374586088166
20
-94.775971400001708
42
-0.20644506325851703
10
169.19999999999888
20
-96.77597140000168
10
169.19999999999885
20
-100.56678447398077
42
0.41421356237310336
10
170.44999999999885
20
-101.81678447398082
10
172.44999999999888
20
-101.81678447398079
42
0.41421356237309503
10
173.69999999999885
20
-100.56678447398082
10
173.69999999999891
20
-96.775971400001907
42
-0.20644506325852419
10
174.56254139118127
20
-94.775971400001794
10
236.12549999999888
20
-94.775971400002433
42
0.41421356237308204
10
238.12549999999899
20
-92.775971400002462
10
238.12549999999987
20
-2.4759000000024223
42
0.41421356237310025
10
236.12549999999985
20
-0.47590000000242938
10
226.34950000000018
20
-0.4759000000023228
42
-0.41421356237308116
10
225.59950000000015
20
0.2740999999976701
10
225.59950000000018
20
4.3399130739766356
42
0.41421356237310025
10
223.59950000000009
20
6.3399130739767253
10
174.56254139118238
20
6.3399130739773142
42
-0.20644506325850823
10
173.70000000000005
20
8.3399130739772751
10
173.70000000000002
20
10.314913073977293
42
0.41421356237310386
10
172.45000000000002
20
11.56491307397733
10
170.45000000000005
20
11.56491307397733
42
0.41421356237312834
10
169.19999999999993
20
10.314913073977383
10
169.19999999999993
20
8.3399130739774385
42
-0.20644506325853693
10
168.33745860881754
20
6.3399130739773524
10
60.262541391182374
20
6.3399130739788045
42
-0.20644506325853532
10
59.400000000000084
20
8.3399130739787672
10
59.400000000000048
20
10.314913073978538
42
0.41421356237310492
10
58.150000000000077
20
11.564913073978536
10
56.150000000000077
20
11.564913073978575
42
0.41421356237310492
10
54.900000000000027
20
10.314913073978605
10
54.900000000000055
20
8.3399130739788436
42
-0.20644506325852641
10
54.037458608817715
20
6.3399130739788685
10
5.0001500000000476
20
6.3399130739795417
42
0.41421356237308449
10
3.0001500000000556
20
4.3399130739794778
10
3.0001499999999925
20
0.27410000000007712
42
-0.41421356237309503
10
2.2501499999999908
20
-0.47589999999992472
10
-7.5244154000000263
20
-0.47589999999981897
42
0.41421356237310086
10
-9.5244154000000663
20
-2.475899999999811
10
-9.5244154000010184
20
-92.775971399999804
42
0.41421356237309176
10
-7.5244154000010521
20
-94.77597139999979
10
54.037458608816621
20
-94.775971400000429
42
-0.20644506325852363
0
CIRCLE
5
126
100
AcDbEntity
8
0
100
AcDbCircle
10
57.149999999998862
20
-100.06678447397958
30
0
40
1.5000000000000033
210
0
220
0
230
1
0
CIRCLE
5
127
100
AcDbEntity
8
0
100
AcDbCircle
10
171.44999999999882
20
-100.0667844739808
30
0
40
1.5000000000000211
210
0
220
0
230
1
0
LWPOLYLINE
5
128
100
AcDbEntity
8
0
100
AcDbPolyline
90
8
70
1
43
0.0
10
168.17500000000001
20
-73.675000000000011
42
0.41421356237309159
10
168.92500000000001
20
-72.925000000000026
10
168.92500000000001
20
-60.425000000000004
42
0.41421356237309503
10
168.17500000000001
20
-59.675000000000011
10
155.67500000000001
20
-59.675000000000004
42
0.41421356237309159
10
154.92500000000004
20
-60.425000000000004
10
154.92500000000001
20
-72.925000000000026
42
0.41421356237310197
10
155.67500000000001
20
-73.674999999999983
0
LWPOLYLINE
5
129
100
AcDbEntity
8
0
100
AcDbPolyline
90
8
70
1
43
0.0
10
187.22499999999999
20
-59.675000000000011
42
-0.41421356237309503
10
187.97499999999999
20
-60.425000000000004
10
187.97499999999999
20
-72.925000000000026
42
-0.41421356237306733
10
187.22499999999999
20
-73.67500000000004
10
174.72499999999999
20
-73.675000000000054
42
-0.41421356237311935
10
173.97500000000005
20
-72.925000000000026
10
173.97500000000005
20
-60.425000000000004
42
-0.41421356237308116
10
174.72499999999999
20
-59.675000000000004
0
LWPOLYLINE
5
130
100
AcDbEntity
8
0
100
AcDbPolyline
90
8
70
1
43
0.0
10
212.07499999999999
20
-72.925000000000026
42
0.41421356237310897
10
212.82499999999999
20
-73.674999999999983
10
225.32499999999999
20
-73.674999999999983
42
0.41421356237306733
10
226.07500000000002
20
-72.925000000000026
10
226.07500000000002
20
-60.425000000000004
42
0.4142135623730534
10
225.32499999999999
20
-59.675000000000011
10
212.82499999999999
20
-59.675000000000011
42
0.41421356237309503
10
212.07499999999999
20
-60.425000000000004
0
LWPOLYLINE
5
131
100
AcDbEntity
8
0
100
AcDbPolyline
90
8
70
1
43
0.0
10
193.77500000000001
20
-59.675000000000004
10
206.27500000000001
20
-59.675000000000011
42
-0.41421356237309503
10
207.02500000000001
20
-60.425000000000004
10
207.02500000000001
20
-72.925000000000026
42
-0.41421356237306733
10
206.27500000000001
20
-73.67500000000004
10
193.77500000000001
20
-73.675000000000054
42
-0.41421356237311935
10
193.02500000000006
20
-72.925000000000026
10
193.02500000000006
20
-60.425000000000004
42
-0.41421356237308116
0
LWPOLYLINE
5
132
100
AcDbEntity
8
0
100
AcDbPolyline
90
8
70
1
43
0.0
10
16.525000000000013
20
-3.2749999999997703
42
0.41421356237309548
10
15.775000000000007
20
-2.5249999999997681
10
3.2750000000000057
20
-2.524999999999769
42
0.41421356237309503
10
2.5250000000000057
20
-3.2749999999997703
10
2.5250000000000017
20
-15.774999999999775
42
0.4142135623730942
10
3.2750000000000057
20
-16.524999999999778
10
15.775000000000007
20
-16.524999999999771
42
0.41421356237309331
10
16.525000000000006
20
-15.774999999999775
0
LWPOLYLINE
5
133
100
AcDbEntity
8
0
100
AcDbPolyline
90
8
70
1
43
0.0
10
173.97500000000005
20
-53.875
10
173.97500000000002
20
-41.375
42
-0.41421356237307771
10
174.72499999999999
20
-40.625
10
187.22499999999999
20
-40.625
42
-0.41421356237309853
10
187.97499999999999
20
-41.375
10
187.97499999999999
20
-53.875
42
-0.41421356237306733
10
187.22499999999999
20
-54.625
10
174.72499999999999
20
-54.625000000000021
42
-0.41421356237311935
0
LWPOLYLINE
5
134
100
AcDbEntity
8
0
100
AcDbPolyline
90
8
70
1
43
0.0
10
2.524999999999999
20
-41.375
10
2.5250000000000057
20
-53.875
42
0.4142135623730927
10
3.2750000000000012
20
-54.625
10
15.775000000000004
20
-54.625
42
0.41421356237310897
10
16.525000000000002
20
-53.875
10
16.524999999999995
20
-41.375
42
0.41421356237309159
10
15.775000000000004
20
-40.625
10
3.2750000000000012
20
-40.625
42
0.41421356237309437
0
LWPOLYLINE
5
135
100
AcDbEntity
8
0
100
AcDbPolyline
90
8
70
1
43
0.0
10
207.02500000000001
20
-22.324999999999999
42
0.41421356237308637
10
206.27500000000001
20
-21.57500000000001
10
193.77500000000001
20
-21.574999999999992
42
0.41421356237311413
10
193.02500000000006
20
-22.324999999999999
10
193.02500000000003
20
-34.825000000000003
42
0.41421356237307422
10
193.77500000000001
20
-35.575000000000003
10
206.27500000000001
20
-35.575000000000003
42
0.41421356237309681
10
207.02500000000001
20
-34.825000000000003
0
LWPOLYLINE
5
136
100
AcDbEntity
8
0
100
AcDbPolyline
90
8
70
1
43
0.0
10
21.575000000000017
20
-53.875
42
0.41421356237309503
10
22.324999999999999
20
-54.625
10
34.825000000000003
20
-54.625
42
0.41421356237310375
10
35.57500000000001
20
-53.875
10
35.575000000000003
20
-41.375000000000014
42
0.41421356237309681
10
34.825000000000003
20
-40.625
10
22.324999999999999
20
-40.625
42
0.41421356237311413
10
21.575000000000003
20
-41.375
0
LWPOLYLINE
5
137
100
AcDbEntity
8
0
100
AcDbPolyline
90
8
70
1
43
0.0
10
135.87500000000003
20
-41.375
42
-0.41421356237309159
10
136.625
20
-40.625
10
149.125
20
-40.624999999999993
42
-0.41421356237308815
10
149.875
20
-41.375
10
149.875
20
-53.875
42
-0.41421356237308815
10
149.125
20
-54.625
10
136.625
20
-54.625000000000014
42
-0.41421356237310897
10
135.87500000000003
20
-53.875
0
LWPOLYLINE
5
138
100
AcDbEntity
8
0
100
AcDbPolyline
90
8
70
1
43
0.0
10
168.92500000000001
20
-53.875
10
168.92500000000001
20
-41.375
42
0.41421356237309853
10
168.17500000000001
20
-40.625000000000007
10
155.67500000000001
20
-40.624999999999993
42
0.41421356237310897
10
154.92500000000004
20
-41.375
10
154.92500000000004
20
-53.875
42
0.41421356237309503
10
155.67500000000001
20
-54.624999999999993
10
168.17500000000001
20
-54.625
42
0.41421356237309853
0
LWPOLYLINE
5
139
100
AcDbEntity
8
0
100
AcDbPolyline
90
8
70
1
43
0.0
10
193.77500000000001
20
-54.624999999999993
10
206.27500000000001
20
-54.625
42
0.41421356237309853
10
207.02500000000001
20
-53.875
10
207.02500000000001
20
-41.375
42
0.41421356237303258
10
206.27500000000001
20
-40.625000000000007
10
193.77500000000001
20
-40.624999999999986
42
0.41421356237311935
10
193.02500000000006
20
-41.375
10
193.02500000000003
20
-53.875
42
0.41421356237307422
0
LWPOLYLINE
5
140
100
AcDbEntity
8
0
100
AcDbPolyline
90
8
70
1
43
0.0
10
225.32499999999999
20
-54.625
10
212.82499999999999
20
-54.625
42
-0.41421356237309853
10
212.07499999999999
20
-53.875
10
212.07499999999999
20
-41.375
42
-0.41421356237309853
10
212.82499999999999
20
-40.625
10
225.32499999999999
20
-40.625000000000028
42
-0.41421356237312978
10
226.07500000000002
20
-41.375
10
226.07500000000002
20
-53.875
42
-0.4142135623730569
0
LWPOLYLINE
5
141
100
AcDbEntity
8
0
100
AcDbPolyline
90
8
70
1
43
0.0
10
116.82500000000003
20
-41.375
10
116.82500000000002
20
-53.875
42
0.4142135623730846
10
117.575
20
-54.624999999999993
10
130.07499999999999
20
-54.625000000000014
42
0.41421356237308815
10
130.82499999999999
20
-53.875
10
130.82499999999999
20
-41.375
42
0.41421356237309503
10
130.07499999999999
20
-40.625000000000007
10
117.575
20
-40.624999999999993
42
0.41421356237310897
0
LWPOLYLINE
5
142
100
AcDbEntity
8
0
100
AcDbPolyline
90
8
70
1
43
0.0
10
98.525000000000006
20
-54.624999999999993
10
111.02499999999999
20
-54.624999999999986
42
0.41421356237311241
10
111.77500000000002
20
-53.875
10
111.77500000000002
20
-41.375
42
0.41421356237307771
10
111.02500000000001
20
-40.625000000000007
10
98.525000000000006
20
-40.624999999999993
42
0.41421356237308815
10
97.77500000000002
20
-41.375
10
97.775000000000034
20
-53.875
42
0.41421356237309853
0
LWPOLYLINE
5
143
100
AcDbEntity
8
0
100
AcDbPolyline
90
8
70
1
43
0.0
10
35.575000000000017
20
-60.425000000000004
42
0.4142135623730846
10
34.825000000000003
20
-59.675000000000004
10
22.324999999999999
20
-59.675000000000011
42
0.41421356237308815
10
21.575000000000003
20
-60.425000000000004
10
21.575000000000017
20
-72.925000000000026
42
0.41421356237309503
10
22.324999999999999
20
-73.67500000000004
10
34.825000000000003
20
-73.674999999999983
42
0.41421356237309681
10
35.57500000000001
20
-72.925000000000026
0
LWPOLYLINE
5
144
100
AcDbEntity
8
0
100
AcDbPolyline
90
8
70
1
43
0.0
10
54.625
20
-72.925000000000026
10
54.624999999999993
20
-60.425000000000004
42
0.41421356237311241
10
53.875
20
-59.675000000000004
10
41.375
20
-59.675000000000004
42
0.41421356237308815
10
40.625
20
-60.425000000000004
10
40.625
20
-72.925000000000026
42
0.41421356237311585
10
41.375
20
-73.67500000000004
10
53.875
20
-73.67500000000004
42
0.41421356237311585
0
LWPOLYLINE
5
145
100
AcDbEntity
8
0
100
AcDbPolyline
90
8
70
1
43
0.0
10
79.47499999999998
20
-59.675000000000004
10
91.97499999999998
20
-59.675000000000004
42
-0.4142135623730846
10
92.724999999999994
20
-60.425000000000004
10
92.724999999999966
20
-72.925000000000026
42
-0.41421356237308815
10
91.974999999999994
20
-73.67500000000004
10
79.47499999999998
20
-73.67500000000004
42
-0.41421356237309853
10
78.724999999999994
20
-72.925000000000026
10
78.724999999999994
20
-60.425000000000004
42
-0.41421356237309159
0
LWPOLYLINE
5
146
100
AcDbEntity
8
0
100
AcDbPolyline
90
8
70
1
43
0.0
10
111.02500000000001
20
-59.675000000000011
10
98.525000000000034
20
-59.675000000000004
42
0.4142135623730846
10
97.77500000000002
20
-60.425000000000004
10
97.775000000000034
20
-72.925000000000026
42
0.41421356237310197
10
98.525000000000006
20
-73.674999999999983
10
111.02500000000001
20
-73.674999999999983
42
0.41421356237308815
10
111.77500000000002
20
-72.925000000000026
10
111.77500000000002
20
-60.425000000000004
42
0.41421356237307422
0
LWPOLYLINE
5
147
100
AcDbEntity
8
0
100
AcDbPolyline
90
8
70
1
43
0.0
10
72.925000000000026
20
-59.675000000000004
42
-0.41421356237308815
10
73.67500000000004
20
-60.425000000000004
10
73.674999999999983
20
-72.925000000000026
42
-0.4142135623730846
10
72.925000000000026
20
-73.67500000000004
10
60.425000000000004
20
-73.674999999999983
42
-0.41421356237309503
10
59.675000000000004
20
-72.925000000000026
10
59.675000000000004
20
-60.425000000000004
42
-0.41421356237308116
10
60.425000000000004
20
-59.675000000000004
0
LWPOLYLINE
5
148
100
AcDbEntity
8
0
100
AcDbPolyline
90
8
70
1
43
0.0
10
130.82499999999999
20
-60.425000000000004
42
0.41421356237309159
10
130.07499999999999
20
-59.675000000000011
10
117.575
20
-59.675000000000004
42
0.41421356237309159
10
116.82500000000003
20
-60.425000000000004
10
116.82500000000003
20
-72.925000000000026
42
0.41421356237308815
10
117.575
20
-73.674999999999983
10
130.07499999999999
20
-73.67500000000004
42
0.41421356237308815
10
130.82499999999999
20
-72.925000000000026
0
LWPOLYLINE
5
149
100
AcDbEntity
8
0
100
AcDbPolyline
90
8
70
1
43
0.0
10
136.625
20
-59.675000000000004
42
0.41421356237309159
10
135.87500000000003
20
-60.425000000000004
10
135.875
20
-72.925000000000026
42
0.41421356237310197
10
136.625
20
-73.674999999999983
10
149.125
20
-73.67500000000004
42
0.41421356237308815
10
149.875
20
-72.925000000000026
10
149.875
20
-60.425000000000004
42
0.41421356237309159
10
149.125
20
-59.675000000000011
0
CIRCLE
5
150
100
AcDbEntity
8
0
100
AcDbCircle
10
57.149999999998862
20
9.8149130739785662
30
0
40
1.5000000000000033
210
0
220
0
230
1
0
CIRCLE
5
151
100
AcDbEntity
8
0
100
AcDbCircle
10
171.44999999999882
20
9.8149130739797918
30
0
40
1.5000000000000211
210
0
220
0
230
1
0
LWPOLYLINE
5
152
100
AcDbEntity
8
0
100
AcDbPolyline
90
8
70
1
43
0.0
10
2.5250000000000021
20
-73.174999999999997
10
2.5250000000000039
20
-60.17499999999999
42
-0.41421356237309503
10
3.0250000000000021
20
-59.674999999999997
10
16.025000000000002
20
-59.674999999999997
42
-0.41421356237309503
10
16.525000000000002
20
-60.17499999999999
10
16.525000000000002
20
-73.174999999999997
42
-0.41421356237309503
10
16.025000000000002
20
-73.674999999999997
10
3.0250000000000021
20
-73.674999999999997
42
-0.41421356237309503
0
LWPOLYLINE
5
153
100
AcDbEntity
8
0
100
AcDbPolyline
90
12
70
1
43
0.0
10
2.5250000000000039
20
-79.224999999999994
42
-0.41421356237309503
10
3.0250000000000021
20
-78.724999999999994
10
5.4062500000000018
20
-78.724999999999994
10
16.025000000000002
20
-78.724999999999994
10
18.406250000000004
20
-78.724999999999994
42
-0.41421356237310025
10
18.906250000000004
20
-79.225000000000009
10
18.906249999999993
20
-92.224999999999994
42
-0.41421356237309503
10
18.406250000000004
20
-92.724999999999994
10
16.025000000000006
20
-92.724999999999994
10
5.4062500000000027
20
-92.724999999999994
10
3.0250000000000021
20
-92.725000000000009
42
-0.41421356237309503
10
2.5250000000000021
20
-92.224999999999994
0
LWPOLYLINE
5
154
100
AcDbEntity
8
0
100
AcDbPolyline
90
23
70
1
43
0.0
10
35.075000000000003
20
-78.724999999999994
10
41.125
20
-78.724999999999994
10
42.21875
20
-78.724999999999994
10
53.031250000000007
20
-78.724999999999994
10
54.125000000000007
20
-78.724999999999994
10
63.674999999999997
20
-78.724999999999994
10
66.03125
20
-78.724999999999994
10
69.674999999999997
20
-78.724999999999994
42
-0.41421356237309503
10
70.174999999999997
20
-79.224999999999994
10
70.174999999999997
20
-92.224999999999994
42
-0.41421356237309503
10
69.674999999999997
20
-92.724999999999994
10
63.174999999999997
20
-92.724999999999994
10
54.125000000000007
20
-92.724999999999994
10
53.031250000000007
20
-92.724999999999994
10
42.21875
20
-92.724999999999994
10
41.125
20
-92.724999999999994
10
35.075000000000003
20
-92.724999999999994
10
29.21875
20
-92.724999999999994
10
22.075000000000003
20
-92.725000000000009
42
-0.41421356237309503
10
21.575000000000006
20
-92.224999999999994
10
21.575000000000006
20
-79.224999999999994
42
-0.41421356237309503
10
22.075000000000003
20
-78.724999999999994
10
29.21875
20
-78.724999999999994
0
LWPOLYLINE
5
155
100
AcDbEntity
8
0
100
AcDbPolyline
90
19
70
1
43
0.0
10
83.930750000000018
20
-78.724999999999994
10
86.36875000000002
20
-78.724999999999994
10
92.224999999999994
20
-78.724999999999994
10
99.368750000000006
20
-78.724999999999994
10
101.80675000000001
20
-78.724999999999994
10
107.77500000000002
20
-78.724999999999994
10
107.80675000000001
20
-78.725000000000009
42
-0.41421356237309503
10
108.30674999999999
20
-79.224999999999994
10
108.30674999999999
20
-92.224999999999994
42
-0.4142135623730846
10
107.80674999999999
20
-92.724999999999994
10
99.368750000000006
20
-92.724999999999994
10
92.224999999999994
20
-92.724999999999994
10
86.36875000000002
20
-92.724999999999994
10
84.430750000000003
20
-92.724999999999994
10
77.930750000000003
20
-92.724999999999994
42
-0.41421356237309503
10
77.430750000000018
20
-92.224999999999994
10
77.430750000000018
20
-79.224999999999994
42
-0.41421356237309503
10
77.930750000000003
20
-78.724999999999994
10
79.224999999999994
20
-78.724999999999994
0
LWPOLYLINE
5
156
100
AcDbEntity
8
0
100
AcDbPolyline
90
19
70
1
43
0.0
10
126.79325
20
-78.724999999999994
10
129.23124999999999
20
-78.724999999999994
10
136.375
20
-78.724999999999994
10
142.23124999999999
20
-78.724999999999994
10
144.66925000000001
20
-78.724999999999994
10
149.375
20
-78.724999999999994
10
150.66925000000001
20
-78.724999999999994
42
-0.41421356237310025
10
151.16925000000003
20
-79.225000000000009
10
151.16925000000001
20
-92.224999999999994
42
-0.41421356237309503
10
150.66925000000001
20
-92.724999999999994
10
144.16925000000001
20
-92.724999999999994
10
142.23124999999999
20
-92.724999999999994
10
136.375
20
-92.724999999999994
10
129.23124999999999
20
-92.724999999999994
10
120.79324999999999
20
-92.724999999999994
42
-0.41421356237307422
10
120.29325
20
-92.224999999999994
10
120.29325
20
-79.224999999999994
42
-0.41421356237309503
10
120.79325
20
-78.724999999999994
10
120.82500000000002
20
-78.724999999999994
0
LWPOLYLINE
5
157
100
AcDbEntity
8
0
100
AcDbPolyline
90
23
70
1
43
0.0
10
164.92500000000004
20
-78.724999999999994
10
174.47500000000002
20
-78.724999999999994
10
175.56875000000002
20
-78.724999999999994
10
186.38124999999999
20
-78.724999999999994
10
187.47499999999999
20
-78.724999999999994
10
193.52500000000003
20
-78.724999999999994
10
199.38124999999999
20
-78.724999999999994
10
206.52500000000003
20
-78.724999999999994
42
-0.41421356237310025
10
207.02500000000003
20
-79.225000000000009
10
207.02500000000001
20
-92.224999999999994
42
-0.41421356237309503
10
206.52500000000003
20
-92.724999999999994
10
199.38124999999999
20
-92.724999999999994
10
193.52500000000003
20
-92.724999999999994
10
187.47499999999999
20
-92.724999999999994
10
186.38124999999999
20
-92.724999999999994
10
175.56875000000002
20
-92.724999999999994
10
174.47500000000002
20
-92.724999999999994
10
165.42500000000001
20
-92.724999999999994
10
158.92500000000001
20
-92.724999999999994
42
-0.41421356237307422
10
158.42500000000001
20
-92.224999999999994
10
158.42500000000001
20
-79.224999999999994
42
-0.41421356237309503
10
158.92500000000001
20
-78.724999999999994
10
162.56875000000002
20
-78.724999999999994
0
LWPOLYLINE
5
158
100
AcDbEntity
8
0
100
AcDbPolyline
90
12
70
1
43
0.0
10
209.69374999999999
20
-79.224999999999994
42
-0.41421356237309503
10
210.19374999999999
20
-78.724999999999994
10
212.57499999999999
20
-78.724999999999994
10
223.19375000000002
20
-78.724999999999994
10
225.57500000000002
20
-78.724999999999994
42
-0.41421356237310025
10
226.07500000000002
20
-79.225000000000009
10
226.07500000000002
20
-92.224999999999994
42
-0.41421356237309503
10
225.57500000000002
20
-92.724999999999994
10
223.19375000000002
20
-92.724999999999994
10
212.57499999999999
20
-92.724999999999994
10
210.19374999999999
20
-92.725000000000009
42
-0.41421356237309503
10
209.69374999999999
20
-92.224999999999994
0
ENDSEC
0
SECTION
2
OBJECTS
0
DICTIONARY
5
C
100
AcDbDictionary
3
ACAD_GROUP
350
D
3
ACAD_MLINESTYLE
350
17
0
DICTIONARY
5
D
100
AcDbDictionary
0
DICTIONARY
5
1A
330
C
100
AcDbDictionary
0
DICTIONARY
5
17
100
AcDbDictionary
0
ENDSEC
0
EOF
