0
SECTION
2
HEADER
9
$INSUNITS
70
4
9
$ACADVER
1
AC1014
9
$HANDSEED
5
FFFF
0
ENDSEC
0
SECTION
2
TABLES
0
TABLE
2
VPORT
5
8
100
AcDbSymbolTable
0
ENDTAB
0
TABLE
2
LTYPE
5
5
100
AcDbSymbolTable
0
LTYPE
5
14
100
AcDbSymbolTableRecord
100
AcDbLinetypeTableRecord
2
BYBLOCK
70
0
0
LTYPE
5
15
100
AcDbSymbolTableRecord
100
AcDbLinetypeTableRecord
2
BYLAYER
70
0
0
ENDTAB
0
TABLE
2
LAYER
5
2
100
AcDbSymbolTable
70
2
0
LAYER
5
50
100
AcDbSymbolTableRecord
100
AcDbLayerTableRecord
2
0
70
0
6
CONTINUOUS
0
ENDTAB
0
TABLE
2
STYLE
5
3
100
AcDbSymbolTable
70
1
0
STYLE
5
11
100
AcDbSymbolTableRecord
100
AcDbTextStyleTableRecord
2
STANDARD
70
0
0
ENDTAB
0
TABLE
2
VIEW
5
6
100
AcDbSymbolTable
70
0
0
ENDTAB
0
TABLE
2
UCS
5
7
100
AcDbSymbolTable
70
0
0
ENDTAB
0
TABLE
2
APPID
5
9
100
AcDbSymbolTable
70
2
0
APPID
5
12
100
AcDbSymbolTableRecord
100
AcDbRegAppTableRecord
2
ACAD
70
0
0
ENDTAB
0
TABLE
2
DIMSTYLE
5
A
100
AcDbSymbolTable
70
1
0
ENDTAB
0
TABLE
2
BLOCK_RECORD
5
1
100
AcDbSymbolTable
70
1
0
BLOCK_RECORD
5
1F
100
AcDbSymbolTableRecord
100
AcDbBlockTableRecord
2
*MODEL_SPACE
0
BLOCK_RECORD
5
1B
100
AcDbSymbolTableRecord
100
AcDbBlockTableRecord
2
*PAPER_SPACE
0
ENDTAB
0
ENDSEC
0
SECTION
2
BLOCKS
0
BLOCK
5
20
100
AcDbEntity
100
AcDbBlockBegin
2
*MODEL_SPACE
0
ENDBLK
5
21
100
AcDbEntity
100
AcDbBlockEnd
0
BLOCK
5
1C
100
AcDbEntity
100
AcDbBlockBegin
2
*PAPER_SPACE
0
ENDBLK
5
1D
100
AcDbEntity
100
AcDbBlockEnd
0
ENDSEC
0
SECTION
2
ENTITIES
0
LWPOLYLINE
5
100
100
AcDbEntity
8
0
100
AcDbPolyline
90
8
70
1
43
0.0
10
73.937726400000059
20
107.73101020404135
10
60.937726400000059
20
107.73101020404134
42
-0.41421356237309503
10
60.437726400000066
20
108.23101020404135
10
60.437726400000059
20
121.23101020404135
42
-0.41421356237309503
10
60.937726400000059
20
121.73101020404135
10
73.937726400000059
20
121.73101020404135
42
-0.41421356237309503
10
74.437726400000059
20
121.23101020404135
10
74.437726400000045
20
108.23101020404135
42
-0.41421356237309503
0
LWPOLYLINE
5
101
100
AcDbEntity
8
0
100
AcDbPolyline
90
8
70
1
43
0.0
10
99.037726400000068
20
107.73101020404134
42
-0.41421356237309503
10
98.537726400000054
20
108.23101020404135
10
98.537726400000054
20
121.23101020404135
42
-0.41421356237309503
10
99.037726400000068
20
121.73101020404135
10
112.03772640000008
20
121.73101020404135
42
-0.41421356237309503
10
112.53772640000008
20
121.23101020404135
10
112.53772640000007
20
108.23101020404135
42
-0.41421356237309503
10
112.03772640000008
20
107.73101020404135
0
LWPOLYLINE
5
102
100
AcDbEntity
8
0
100
AcDbPolyline
90
8
70
1
43
0.0
10
41.387726400000062
20
108.23101020404135
10
41.387726400000055
20
121.23101020404135
42
-0.41421356237309503
10
41.887726400000062
20
121.73101020404135
10
54.887726400000069
20
121.73101020404135
42
-0.41421356237309503
10
55.387726400000062
20
121.23101020404135
10
55.387726400000055
20
108.23101020404135
42
-0.41421356237309503
10
54.887726400000069
20
107.73101020404135
10
41.887726400000062
20
107.73101020404134
42
-0.41421356237309503
0
LWPOLYLINE
5
103
100
AcDbEntity
8
0
100
AcDbPolyline
90
8
70
1
43
0.0
10
79.487726400000042
20
121.23101020404135
42
-0.41421356237309503
10
79.987726400000057
20
121.73101020404135
10
92.987726400000042
20
121.73101020404135
42
-0.41421356237309503
10
93.487726400000057
20
121.23101020404135
10
93.487726400000057
20
108.23101020404135
42
-0.41421356237309503
10
92.987726400000071
20
107.73101020404135
10
79.987726400000057
20
107.73101020404134
42
-0.41421356237309503
10
79.487726400000057
20
108.23101020404135
0
LWPOLYLINE
5
104
100
AcDbEntity
8
0
100
AcDbPolyline
90
8
70
1
43
0.0
10
118.08772640000008
20
107.73101020404134
42
-0.41421356237309503
10
117.58772640000007
20
108.23101020404135
10
117.58772640000007
20
121.23101020404135
42
-0.41421356237309503
10
118.08772640000008
20
121.73101020404135
10
131.08772640000007
20
121.73101020404135
42
-0.41421356237309503
10
131.58772640000007
20
121.23101020404135
10
131.58772640000004
20
108.23101020404135
42
-0.41421356237309503
10
131.08772640000007
20
107.73101020404135
0
LWPOLYLINE
5
105
100
AcDbEntity
8
0
100
AcDbPolyline
90
8
70
1
43
0.0
10
35.837726400000065
20
107.73101020404135
10
22.837726400000058
20
107.73101020404134
42
-0.41421356237309503
10
22.337726400000058
20
108.23101020404135
10
22.337726400000051
20
121.23101020404135
42
-0.41421356237309503
10
22.837726400000058
20
121.73101020404135
10
35.837726400000065
20
121.73101020404135
42
-0.41421356237309503
10
36.337726400000065
20
121.23101020404135
10
36.337726400000051
20
108.23101020404135
42
-0.41421356237309503
0
LWPOLYLINE
5
106
100
AcDbEntity
8
0
100
AcDbPolyline
90
8
70
1
43
0.0
10
207.78772640000005
20
121.23101020404135
10
207.78772640000005
20
108.23101020404135
42
-0.41421356237309503
10
207.28772640000005
20
107.73101020404135
10
194.28772640000008
20
107.73101020404134
42
-0.41421356237309503
10
193.78772640000008
20
108.23101020404135
10
193.78772640000008
20
121.23101020404135
42
-0.41421356237309503
10
194.28772640000008
20
121.73101020404135
10
207.28772640000005
20
121.73101020404135
42
-0.41421356237309503
0
LWPOLYLINE
5
107
100
AcDbEntity
8
0
100
AcDbPolyline
90
36
70
1
43
0.0
10
251.43772640000009
20
107.73101020404134
42
-0.41421356237309503
10
250.93772640000009
20
108.23101020404135
10
250.93772640000009
20
121.23101020404135
42
-0.41421356237309503
10
251.43772640000009
20
121.73101020404135
10
252.52472640000008
20
121.73101020404135
10
258.52472640000008
20
121.73101020404135
10
260.96272640000007
20
121.73101020404135
10
264.43772640000009
20
121.73101020404135
10
270.4877264000001
20
121.73101020404135
10
273.96272640000007
20
121.73101020404135
10
276.40072640000005
20
121.73101020404135
10
282.40072640000005
20
121.73101020404135
10
283.4877264000001
20
121.73101020404135
42
-0.41421356237309503
10
283.9877264000001
20
121.23101020404135
10
283.9877264000001
20
108.23101020404135
42
-0.41421356237309503
10
283.4877264000001
20
107.73101020404135
10
283.15072640000005
20
107.73101020404138
42
0.41421356237313667
10
282.90072640000005
20
107.48101020404135
10
282.90072640000005
20
107.23101020404135
42
-0.41421356237309503
10
282.40072640000005
20
106.73101020404135
10
276.40072640000005
20
106.73101020404134
42
-0.41421356237309503
10
275.90072640000005
20
107.23101020404135
10
275.90072640000005
20
107.48101020404135
42
0.4142135623730534
10
275.65072640000011
20
107.73101020404135
10
273.96272640000007
20
107.73101020404135
10
270.4877264000001
20
107.73101020404135
10
264.43772640000009
20
107.73101020404135
10
260.96272640000007
20
107.73101020404135
10
259.27472640000008
20
107.73101020404135
42
0.41421356237311585
10
259.02472640000008
20
107.48101020404134
10
259.02472640000008
20
107.23101020404135
42
-0.41421356237309503
10
258.52472640000008
20
106.73101020404135
10
252.52472640000008
20
106.73101020404134
42
-0.41421356237309503
10
252.02472640000008
20
107.23101020404135
10
252.02472640000013
20
107.48101020404135
42
0.41421356237309503
10
251.77472640000008
20
107.73101020404135
0
LWPOLYLINE
5
108
100
AcDbEntity
8
0
100
AcDbPolyline
90
8
70
1
43
0.0
10
169.18772640000009
20
121.73101020404135
42
-0.41421356237309503
10
169.68772640000009
20
121.23101020404135
10
169.68772640000003
20
108.23101020404135
42
-0.41421356237309503
10
169.18772640000009
20
107.73101020404135
10
156.18772640000009
20
107.73101020404134
42
-0.41421356237309503
10
155.68772640000009
20
108.23101020404135
10
155.68772640000009
20
121.23101020404135
42
-0.41421356237309503
10
156.18772640000009
20
121.73101020404135
0
LWPOLYLINE
5
109
100
AcDbEntity
8
0
100
AcDbPolyline
90
8
70
1
43
0.0
10
245.38772640000008
20
107.73101020404135
10
232.38772640000008
20
107.73101020404138
42
-0.41421356237309503
10
231.88772640000008
20
108.23101020404138
10
231.88772640000008
20
121.23101020404135
42
-0.41421356237309503
10
232.38772640000008
20
121.73101020404135
10
245.38772640000008
20
121.73101020404135
42
-0.41421356237309503
10
245.88772640000008
20
121.23101020404135
10
245.88772640000008
20
108.23101020404135
42
-0.41421356237309503
0
LWPOLYLINE
5
110
100
AcDbEntity
8
0
100
AcDbPolyline
90
8
70
1
43
0.0
10
137.13772640000008
20
107.73101020404134
42
-0.41421356237309503
10
136.63772640000008
20
108.23101020404135
10
136.63772640000008
20
121.23101020404135
42
-0.41421356237309503
10
137.13772640000008
20
121.73101020404135
10
150.13772640000008
20
121.73101020404135
42
-0.41421356237309503
10
150.63772640000008
20
121.23101020404135
10
150.63772640000005
20
108.23101020404135
42
-0.41421356237309503
10
150.13772640000008
20
107.73101020404135
0
LWPOLYLINE
5
111
100
AcDbEntity
8
0
100
AcDbPolyline
90
8
70
1
43
0.0
10
188.73772640000004
20
121.23101020404135
10
188.73772640000004
20
108.23101020404135
42
-0.41421356237309503
10
188.23772640000004
20
107.73101020404135
10
175.23772640000007
20
107.73101020404134
42
-0.41421356237309503
10
174.73772640000007
20
108.23101020404135
10
174.73772640000007
20
121.23101020404135
42
-0.41421356237309503
10
175.23772640000007
20
121.73101020404135
10
188.23772640000004
20
121.73101020404135
42
-0.41421356237309503
0
LWPOLYLINE
5
112
100
AcDbEntity
8
0
100
AcDbPolyline
90
8
70
1
43
0.0
10
226.83772640000007
20
121.23101020404135
10
226.83772640000007
20
108.23101020404135
42
-0.41421356237309503
10
226.33772640000007
20
107.73101020404135
10
213.33772640000007
20
107.73101020404134
42
-0.41421356237309503
10
212.83772640000007
20
108.23101020404135
10
212.83772640000007
20
121.23101020404135
42
-0.41421356237309503
10
213.33772640000007
20
121.73101020404135
10
226.33772640000007
20
121.73101020404135
42
-0.41421356237309503
0
LWPOLYLINE
5
113
100
AcDbEntity
8
0
100
AcDbPolyline
90
8
70
1
43
0.0
10
22.050226400000057
20
89.181010204041357
42
-0.41421356237309503
10
21.550226400000064
20
88.681010204041371
10
8.5502264000000601
20
88.681010204041343
42
-0.41421356237309503
10
8.0502264000000601
20
89.181010204041357
10
8.0502264000000707
20
102.18101020404136
42
-0.41421356237309503
10
8.5502264000000601
20
102.68101020404134
10
21.550226400000064
20
102.68101020404134
42
-0.41421356237309503
10
22.050226400000064
20
102.18101020404136
0
LWPOLYLINE
5
114
100
AcDbEntity
8
0
100
AcDbPolyline
90
8
70
1
43
0.0
10
265.72522640000005
20
88.681010204041343
42
-0.41421356237309503
10
265.22522640000005
20
89.181010204041357
10
265.22522640000005
20
102.18101020404136
42
-0.41421356237309503
10
265.72522640000005
20
102.68101020404134
10
278.72522640000005
20
102.68101020404137
42
-0.41421356237309503
10
279.22522640000005
20
102.18101020404136
10
279.22522640000005
20
89.181010204041357
42
-0.41421356237309503
10
278.72522640000005
20
88.681010204041371
0
LWPOLYLINE
5
115
100
AcDbEntity
8
0
100
AcDbPolyline
90
12
70
1
43
0.0
10
6.1689764000000604
20
69.63101020404136
42
-0.41421356237309503
10
5.6689764000000604
20
70.131010204041345
10
5.6689764000000711
20
83.13101020404136
42
-0.41421356237309503
10
6.1689764000000604
20
83.63101020404136
10
10.93147640000006
20
83.63101020404136
10
19.168976400000062
20
83.63101020404136
10
23.931476400000058
20
83.631010204041374
42
-0.41421356237309503
10
24.431476400000058
20
83.13101020404136
10
24.431476400000058
20
70.131010204041345
42
-0.41421356237309503
10
23.931476400000058
20
69.63101020404136
10
19.168976400000062
20
69.63101020404136
10
10.93147640000006
20
69.63101020404136
0
LWPOLYLINE
5
116
100
AcDbEntity
8
0
100
AcDbPolyline
90
22
70
1
43
0.0
10
255.64347640000005
20
68.63101020404136
10
250.14347640000008
20
68.631010204041345
42
-0.41421356237309503
10
249.64347640000005
20
69.13101020404136
10
249.64347640000005
20
83.13101020404136
42
-0.41421356237309503
10
250.14347640000008
20
83.63101020404136
10
256.14347640000011
20
83.63101020404136
10
258.5814764000001
20
83.63101020404136
10
271.5814764000001
20
83.63101020404136
10
274.01947640000009
20
83.63101020404136
10
280.01947640000009
20
83.631010204041374
42
-0.41421356237309503
10
280.51947640000009
20
83.13101020404136
10
280.51947640000009
20
69.13101020404136
42
-0.41421356237309503
10
280.01947640000009
20
68.63101020404136
10
274.51947640000009
20
68.63101020404136
42
-0.41421356237313145
10
274.01947640000009
20
69.13101020404136
10
274.01947640000009
20
69.381010204041345
42
0.41421356237313667
10
273.76947640000014
20
69.63101020404136
10
271.5814764000001
20
69.63101020404136
10
258.5814764000001
20
69.63101020404136
10
256.39347640000005
20
69.63101020404136
42
0.41421356237326151
10
256.14347640000005
20
69.381010204041345
10
256.14347640000005
20
69.131010204041345
42
-0.41421356237308982
0
LWPOLYLINE
5
117
100
AcDbEntity
8
0
100
AcDbPolyline
90
22
70
1
43
0.0
10
12.755976400000053
20
49.581010204041355
10
7.2559764000000602
20
49.581010204041355
42
-0.41421356237309503
10
6.7559764000000602
20
50.081010204041348
10
6.7559764000000619
20
64.081010204041348
42
-0.41421356237309503
10
7.2559764000000602
20
64.581010204041348
10
13.25597640000006
20
64.581010204041348
10
15.693976400000061
20
64.581010204041348
10
28.693976400000061
20
64.581010204041348
10
31.131976400000063
20
64.581010204041348
10
37.131976400000056
20
64.581010204041348
42
-0.41421356237309503
10
37.631976400000056
20
64.081010204041348
10
37.631976400000056
20
50.081010204041348
42
-0.41421356237309503
10
37.131976400000056
20
49.581010204041355
10
31.631976400000063
20
49.581010204041355
42
-0.41421356237310025
10
31.131976400000056
20
50.081010204041348
10
31.131976400000063
20
50.331010204041355
42
0.41421356237309503
10
30.88197640000006
20
50.581010204041362
10
28.693976400000061
20
50.581010204041362
10
15.693976400000061
20
50.581010204041362
10
13.505976400000053
20
50.581010204041362
42
0.41421356237309503
10
13.255976400000053
20
50.331010204041355
10
13.255976400000051
20
50.081010204041334
42
-0.4142135623730846
0
LWPOLYLINE
5
118
100
AcDbEntity
8
0
100
AcDbPolyline
90
35
70
1
43
0.0
10
253.81897640000008
20
64.581010204041348
10
257.29397640000008
20
64.581010204041348
10
266.81897640000005
20
64.581010204041348
10
269.2569764000001
20
64.581010204041348
10
270.4877264000001
20
64.581010204041348
10
275.2569764000001
20
64.581010204041348
10
283.4877264000001
20
64.581010204041362
42
-0.41421356237309503
10
283.9877264000001
20
64.081010204041348
10
283.9877264000001
20
51.081010204041355
42
-0.41421356237309503
10
283.4877264000001
20
50.581010204041362
10
276.0069764000001
20
50.581010204041377
42
0.41421356237328233
10
275.7569764000001
20
50.331010204041334
10
275.7569764000001
20
50.081010204041348
42
-0.41421356237309503
10
275.2569764000001
20
49.581010204041355
10
269.2569764000001
20
49.581010204041348
42
-0.41421356237309503
10
268.7569764000001
20
50.081010204041348
10
268.7569764000001
20
50.331010204041334
42
0.41421356237311585
10
268.5069764000001
20
50.581010204041362
10
266.81897640000005
20
50.581010204041362
10
257.29397640000008
20
50.581010204041362
10
253.81897640000008
20
50.581010204041362
10
252.13097640000007
20
50.581010204041362
42
0.41421356237313667
10
251.88097640000007
20
50.331010204041355
10
251.88097640000007
20
50.081010204041348
42
-0.41421356237309503
10
251.38097640000007
20
49.581010204041355
10
245.38097640000007
20
49.581010204041348
42
-0.41421356237309503
10
244.88097640000007
20
50.081010204041348
10
244.88097640000007
20
50.331010204041355
42
0.41421356237309503
10
244.63097640000007
20
50.581010204041362
10
244.29397640000008
20
50.581010204041348
42
-0.41421356237309503
10
243.79397640000008
20
51.081010204041355
10
243.79397640000008
20
64.081010204041348
42
-0.41421356237309503
10
244.29397640000008
20
64.581010204041348
10
245.38097640000007
20
64.581010204041348
10
251.38097640000007
20
64.581010204041348
0
LWPOLYLINE
5
119
100
AcDbEntity
8
0
100
AcDbPolyline
90
8
70
1
43
0.0
10
150.63772640000008
20
32.031010204041351
42
-0.41421356237309503
10
150.13772640000008
20
31.531010204041348
10
137.13772640000008
20
31.531010204041348
42
-0.41421356237309503
10
136.63772640000008
20
32.031010204041351
10
136.63772640000008
20
45.031010204041365
42
-0.41421356237309503
10
137.13772640000008
20
45.531010204041358
10
150.13772640000008
20
45.531010204041365
42
-0.41421356237309503
10
150.63772640000008
20
45.031010204041365
0
LWPOLYLINE
5
120
100
AcDbEntity
8
0
100
AcDbPolyline
90
8
70
1
43
0.0
10
112.03772640000008
20
45.531010204041365
42
-0.41421356237309503
10
112.53772640000008
20
45.031010204041365
10
112.53772640000008
20
32.031010204041351
42
-0.41421356237309503
10
112.03772640000008
20
31.531010204041348
10
99.037726400000068
20
31.531010204041348
42
-0.41421356237309503
10
98.537726400000054
20
32.031010204041351
10
98.537726400000054
20
45.031010204041365
42
-0.41421356237309503
10
99.037726400000068
20
45.531010204041358
0
LWPOLYLINE
5
121
100
AcDbEntity
8
0
100
AcDbPolyline
90
8
70
1
43
0.0
10
127.58772640000007
20
46.531010204041365
42
-0.41421356237309503
10
128.08772640000007
20
46.031010204041358
10
128.08772640000007
20
32.031010204041351
42
-0.41421356237309503
10
127.58772640000007
20
31.531010204041348
10
121.58772640000008
20
31.531010204041348
42
-0.41421356237309503
10
121.08772640000007
20
32.031010204041351
10
121.08772640000009
20
46.031010204041358
42
-0.41421356237309503
10
121.58772640000008
20
46.531010204041358
0
LWPOLYLINE
5
122
100
AcDbEntity
8
0
100
AcDbPolyline
90
8
70
1
43
0.0
10
8.5502264000000601
20
31.531010204041358
42
-0.41421356237309503
10
8.0502264000000601
20
32.031010204041351
10
8.0502264000000618
20
45.031010204041365
42
-0.41421356237309503
10
8.5502264000000601
20
45.531010204041358
10
21.550226400000064
20
45.531010204041358
42
-0.41421356237309503
10
22.050226400000064
20
45.031010204041365
10
22.050226400000071
20
32.031010204041351
42
-0.41421356237309503
10
21.550226400000064
20
31.531010204041348
0
LWPOLYLINE
5
123
100
AcDbEntity
8
0
100
AcDbPolyline
90
8
70
1
43
0.0
10
32.362726400000064
20
45.531010204041358
10
45.362726400000064
20
45.531010204041365
42
-0.41421356237309503
10
45.862726400000071
20
45.031010204041365
10
45.862726400000049
20
32.031010204041351
42
-0.41421356237309503
10
45.362726400000064
20
31.531010204041365
10
32.362726400000064
20
31.531010204041358
42
-0.41421356237309503
10
31.862726400000064
20
32.031010204041351
10
31.862726400000064
20
45.031010204041365
42
-0.41421356237309503
0
LWPOLYLINE
5
124
100
AcDbEntity
8
0
100
AcDbPolyline
90
8
70
1
43
0.0
10
56.175226400000071
20
45.531010204041358
10
69.175226400000057
20
45.531010204041358
42
-0.41421356237309503
10
69.675226400000057
20
45.031010204041365
10
69.675226400000071
20
32.031010204041351
42
-0.41421356237309503
10
69.175226400000057
20
31.531010204041348
10
56.175226400000071
20
31.531010204041358
42
-0.41421356237309503
10
55.675226400000071
20
32.031010204041351
10
55.675226400000071
20
45.031010204041365
42
-0.41421356237309503
0
LWPOLYLINE
5
125
100
AcDbEntity
8
0
100
AcDbPolyline
90
8
70
1
43
0.0
10
231.60022640000008
20
32.031010204041351
42
-0.41421356237309503
10
231.10022640000008
20
31.531010204041348
10
218.10022640000005
20
31.531010204041348
42
-0.41421356237309503
10
217.60022640000005
20
32.031010204041351
10
217.60022640000005
20
45.031010204041365
42
-0.41421356237309503
10
218.10022640000005
20
45.531010204041358
10
231.10022640000008
20
45.531010204041365
42
-0.41421356237309503
10
231.60022640000008
20
45.031010204041365
0
LWPOLYLINE
5
126
100
AcDbEntity
8
0
100
AcDbPolyline
90
8
70
1
43
0.0
10
265.22522640000005
20
45.031010204041365
42
-0.41421356237309503
10
265.72522640000005
20
45.531010204041358
10
278.72522640000005
20
45.531010204041337
42
-0.41421356237309503
10
279.22522640000005
20
45.031010204041365
10
279.22522640000005
20
32.031010204041351
42
-0.41421356237309503
10
278.72522640000005
20
31.531010204041348
10
265.72522640000005
20
31.531010204041348
42
-0.41421356237309503
10
265.22522640000005
20
32.031010204041351
0
LWPOLYLINE
5
127
100
AcDbEntity
8
0
100
AcDbPolyline
90
8
70
1
43
0.0
10
188.23772640000004
20
45.531010204041365
42
-0.41421356237309503
10
188.73772640000004
20
45.031010204041365
10
188.73772640000004
20
32.031010204041351
42
-0.41421356237309503
10
188.23772640000004
20
31.531010204041348
10
175.23772640000007
20
31.531010204041348
42
-0.41421356237309503
10
174.73772640000007
20
32.031010204041351
10
174.73772640000007
20
45.031010204041365
42
-0.41421356237309503
10
175.23772640000007
20
45.531010204041358
0
LWPOLYLINE
5
128
100
AcDbEntity
8
0
100
AcDbPolyline
90
8
70
1
43
0.0
10
241.41272640000008
20
32.031010204041351
10
241.41272640000008
20
45.031010204041365
42
-0.41421356237309503
10
241.91272640000008
20
45.531010204041358
10
254.91272640000008
20
45.531010204041365
42
-0.41421356237309503
10
255.41272640000011
20
45.031010204041365
10
255.41272640000011
20
32.031010204041351
42
-0.41421356237309503
10
254.91272640000008
20
31.531010204041365
10
241.91272640000008
20
31.531010204041348
42
-0.41421356237309503
0
LWPOLYLINE
5
129
100
AcDbEntity
8
0
100
AcDbPolyline
90
10
70
1
43
0.0
10
89.487726400000071
20
46.531010204041365
42
-0.41421356237309503
10
89.987726400000071
20
46.031010204041358
10
89.987726400000057
20
45.031010204041365
10
89.987726400000057
20
32.031010204041351
42
-0.41421356237308982
10
89.487726400000042
20
31.531010204041358
10
83.487726400000071
20
31.531010204041365
42
-0.41421356237310025
10
82.987726400000085
20
32.031010204041365
10
82.987726400000071
20
45.031010204041365
10
82.987726400000071
20
46.031010204041358
42
-0.41421356237309503
10
83.487726400000057
20
46.531010204041358
0
LWPOLYLINE
5
130
100
AcDbEntity
8
0
100
AcDbPolyline
90
8
70
1
43
0.0
10
159.18772640000009
20
46.031010204041358
42
-0.41421356237309503
10
159.68772640000009
20
46.531010204041358
10
165.68772640000009
20
46.53101020404133
42
-0.41421356237309503
10
166.18772640000006
20
46.031010204041358
10
166.18772640000009
20
32.031010204041351
42
-0.41421356237309503
10
165.68772640000009
20
31.531010204041348
10
159.68772640000009
20
31.531010204041348
42
-0.41421356237309503
10
159.18772640000009
20
32.031010204041351
0
LWPOLYLINE
5
131
100
AcDbEntity
8
0
100
AcDbPolyline
90
10
70
1
43
0.0
10
197.28772640000005
20
46.031010204041358
42
-0.41421356237309503
10
197.78772640000005
20
46.531010204041358
10
203.78772640000008
20
46.531010204041365
42
-0.41421356237309503
10
204.28772640000008
20
46.031010204041358
10
204.28772640000008
20
45.031010204041365
10
204.28772640000008
20
32.031010204041351
42
-0.41421356237309764
10
203.78772640000008
20
31.531010204041358
10
197.78772640000011
20
31.531010204041383
42
-0.41421356237310025
10
197.28772640000014
20
32.031010204041365
10
197.28772640000011
20
45.031010204041365
0
LWPOLYLINE
5
132
100
AcDbEntity
8
0
100
AcDbPolyline
90
8
70
1
43
0.0
10
17.287461400000062
20
108.48171020404136
42
-0.41421356237310197
10
16.537461400000069
20
107.73171020404135
10
4.03662140000006
20
107.73171020404135
42
-0.4142135623730942
10
3.2866214000000693
20
108.48171020404135
10
3.2866214000000706
20
120.98101020404137
42
-0.41421356237309503
10
4.0366214000000644
20
121.73101020404135
10
16.537461400000069
20
121.73101020404135
42
-0.41421356237310114
10
17.287461400000069
20
120.98101020404135
0
LINE
5
133
100
AcDbEntity
8
0
100
AcDbLine
10
4.4510614000000626
20
69.930510204041354
30
0
11
0.95084600000006292
21
69.930510204041354
31
0
0
LINE
5
134
100
AcDbEntity
8
0
100
AcDbLine
10
0.95084600000006292
20
69.930510204041354
30
0
11
0.9508460000000627
21
119.09291020404135
31
0
0
ARC
5
135
100
AcDbEntity
8
0
100
AcDbCircle
10
5.9508460000000625
20
119.09291020404135
30
0
40
5.0000000000000178
210
0
220
-0
230
1
100
AcDbArc
50
89.999999999999972
51
180
0
ARC
5
136
100
AcDbEntity
8
0
100
AcDbCircle
10
281.32476140000006
20
119.09291020404132
30
0
40
5.0000000000000355
210
0
220
-0
230
1
100
AcDbArc
50
0
51
90
0
LINE
5
137
100
AcDbEntity
8
0
100
AcDbLine
10
286.32476140000006
20
119.09291020404135
30
0
11
286.32476140000006
21
69.930510204041354
31
0
0
LINE
5
138
100
AcDbEntity
8
0
100
AcDbLine
10
286.32476140000006
20
69.930510204041354
30
0
11
282.82476140000006
21
69.930510204041354
31
0
0
LINE
5
139
100
AcDbEntity
8
0
100
AcDbLine
10
5.950846000000066
20
124.09291020404137
30
0
11
281.32476140000006
21
124.09291020404135
31
0
0
LINE
5
140
100
AcDbEntity
8
0
100
AcDbLine
10
282.82476140000006
20
64.931010204041343
30
0
11
286.32476140000006
21
64.931010204041343
31
0
0
LINE
5
141
100
AcDbEntity
8
0
100
AcDbLine
10
286.32476140000006
20
64.931010204041343
30
0
11
286.32476140000006
21
34.166865204041351
31
0
0
ARC
5
142
100
AcDbEntity
8
0
100
AcDbCircle
10
281.32476140000006
20
34.166865204041351
30
0
40
5
210
-0
220
0
230
1
100
AcDbArc
50
-90
51
0
0
LINE
5
143
100
AcDbEntity
8
0
100
AcDbLine
10
281.32476140000006
20
29.166865204041347
30
0
11
5.9508460000000696
21
29.166865204041347
31
0
0
ARC
5
144
100
AcDbEntity
8
0
100
AcDbCircle
10
5.9508460000000714
20
34.166865204041351
30
0
40
5
210
0
220
0
230
1
100
AcDbArc
50
180
51
270
0
LINE
5
145
100
AcDbEntity
8
0
100
AcDbLine
10
0.9508460000000718
20
34.166865204041351
30
0
11
0.9508460000000627
21
64.931010204041343
31
0
0
LINE
5
146
100
AcDbEntity
8
0
100
AcDbLine
10
0.9508460000000627
20
64.931010204041343
30
0
11
4.4496814000000633
21
64.931010204041343
31
0
0
ARC
5
147
100
AcDbEntity
8
0
100
AcDbCircle
10
4.4503714000000674
20
67.430760204041349
30
0
40
2.4974999999999969
210
0
220
0
230
1
100
AcDbArc
50
-90.000000000000099
51
89.999999999999901
0
ARC
5
148
100
AcDbEntity
8
0
100
AcDbCircle
10
282.82476140000006
20
67.430760204041349
30
0
40
2.4974999999999969
210
0
220
-0
230
1
100
AcDbArc
50
90
51
270
0
CIRCLE
5
149
100
AcDbEntity
8
0
100
AcDbCircle
10
191.63865980505165
20
39.130666617919154
30
0
40
2.5000000000000049
210
0
220
0
230
1
0
LINE
5
150
100
AcDbEntity
8
0
100
AcDbLine
10
27.362736609800592
20
95.68044003785775
30
0
11
27.362736609800599
21
88.130440037857753
31
0
0
LINE
5
151
100
AcDbEntity
8
0
100
AcDbLine
10
32.125236609800602
20
78.321193662508762
30
0
11
32.125236609800602
21
69.080440037857755
31
0
0
LINE
5
152
100
AcDbEntity
8
0
100
AcDbLine
10
41.650236609800608
20
57.580440037857755
30
0
11
41.650236609800608
21
50.03044003785778
31
0
0
LINE
5
153
100
AcDbEntity
8
0
100
AcDbLine
10
27.362736609800599
20
88.130440037857753
30
0
11
27.362736609800599
21
87.630440037857738
31
0
0
LINE
5
154
100
AcDbEntity
8
0
100
AcDbLine
10
32.125236609800602
20
83.630440037857753
30
0
11
32.125236609800602
21
78.321193662508762
31
0
0
LINE
5
155
100
AcDbEntity
8
0
100
AcDbLine
10
29.862736609800589
20
105.73044003785776
30
0
11
43.820465963148834
21
105.73044003785776
31
0
0
LINE
5
156
100
AcDbEntity
8
0
100
AcDbLine
10
27.362736609800589
20
103.2304400378578
30
0
11
27.362736609800592
21
95.68044003785775
31
0
0
LINE
5
157
100
AcDbEntity
8
0
100
AcDbLine
10
41.650236609800608
20
50.03044003785778
30
0
11
41.650236609800608
21
49.630440037857781
31
0
0
LINE
5
158
100
AcDbEntity
8
0
100
AcDbLine
10
237.4036687033778
20
66.630440037857767
30
0
11
244.12523660980065
21
66.630440037857753
31
0
0
LINE
5
159
100
AcDbEntity
8
0
100
AcDbLine
10
245.62523660980062
20
68.130440037857753
30
0
11
245.62523660980062
21
84.180440037857721
31
0
0
LINE
5
160
100
AcDbEntity
8
0
100
AcDbLine
10
247.12523660980068
20
85.680440037857736
30
0
11
255.44452432435176
21
85.680440037857736
31
0
0
LINE
5
161
100
AcDbEntity
8
0
100
AcDbLine
10
254.9445243243517
20
105.73044003785773
30
0
11
43.820465963148834
21
105.73044003785776
31
0
0
LINE
5
162
100
AcDbEntity
8
0
100
AcDbLine
10
257.44452432435173
20
98.529140519190065
30
0
11
261.232464268294
21
98.529140519190065
31
0
0
ARC
5
163
100
AcDbEntity
8
0
100
AcDbCircle
10
261.18777160980062
20
96.029540037857743
30
0
40
2.5000000000000049
210
0
220
0
230
1
100
AcDbArc
50
-88.974130728432925
51
91.024334848789849
0
LINE
5
164
100
AcDbEntity
8
0
100
AcDbLine
10
256.94452432435173
20
99.029140519190065
30
0
11
256.94452432435179
21
103.73044003785772
31
0
0
LINE
5
165
100
AcDbEntity
8
0
100
AcDbLine
10
256.94452432435173
20
87.180440037857721
30
0
11
256.94452432435173
21
93.029940754323775
31
0
0
LINE
5
166
100
AcDbEntity
8
0
100
AcDbLine
10
257.44452432435185
20
93.529940754323789
30
0
11
261.23253120940251
21
93.529940754323775
31
0
0
ARC
5
167
100
AcDbEntity
8
0
100
AcDbCircle
10
257.44452432435173
20
93.029940754323775
30
0
40
0.50000000000002487
210
0
220
-0
230
1
100
AcDbArc
50
89.999999999986969
51
180
0
ARC
5
168
100
AcDbEntity
8
0
100
AcDbCircle
10
257.44452432435173
20
99.029140519190094
30
0
40
0.50000000000004263
210
0
220
0
230
1
100
AcDbArc
50
180
51
270
0
LINE
5
169
100
AcDbEntity
8
0
100
AcDbLine
10
43.650236609800608
20
47.630440037857767
30
0
11
234.07664645835627
21
47.630440037857781
31
0
0
LINE
5
170
100
AcDbEntity
8
0
100
AcDbLine
10
236.07652161285495
20
49.65278654583954
30
0
11
235.90376233750374
21
65.113680156871425
31
0
0
LINE
5
171
100
AcDbEntity
8
0
100
AcDbLine
10
29.362736609800585
20
105.73044003785776
30
0
11
29.862736609800589
21
105.73044003785776
31
0
0
LINE
5
172
100
AcDbEntity
8
0
100
AcDbLine
10
27.362736609800589
20
103.73044003785778
30
0
11
27.362736609800589
21
103.2304400378578
31
0
0
ARC
5
173
100
AcDbEntity
8
0
100
AcDbCircle
10
29.362736609800564
20
103.73044003785779
30
0
40
1.9999999999999751
210
0
220
-0
230
1
100
AcDbArc
50
89.999999999999389
51
180
0
LINE
5
174
100
AcDbEntity
8
0
100
AcDbLine
10
33.625236609800602
20
66.580440037857741
30
0
11
40.150236609800601
21
66.580440037857741
31
0
0
LINE
5
175
100
AcDbEntity
8
0
100
AcDbLine
10
41.650236609800608
20
65.080440037857741
30
0
11
41.650236609800608
21
57.580440037857755
31
0
0
ARC
5
176
100
AcDbEntity
8
0
100
AcDbCircle
10
33.625236609800602
20
68.080440037857741
30
0
40
1.4999999999999947
210
0
220
0
230
1
100
AcDbArc
50
180
51
270
0
LINE
5
177
100
AcDbEntity
8
0
100
AcDbLine
10
32.125236609800602
20
68.080440037857741
30
0
11
32.125236609800602
21
69.080440037857755
31
0
0
ARC
5
178
100
AcDbEntity
8
0
100
AcDbCircle
10
40.150236609800587
20
65.080440037857727
30
0
40
1.5000000000000213
210
0
220
-0
230
1
100
AcDbArc
50
0
51
89.99999999999946
0
ARC
5
179
100
AcDbEntity
8
0
100
AcDbCircle
10
43.650236609800629
20
49.630440037857788
30
0
40
2.0000000000000195
210
0
220
0
230
1
100
AcDbArc
50
180
51
269.99999999999937
0
ARC
5
180
100
AcDbEntity
8
0
100
AcDbCircle
10
234.07664645835621
20
49.630440037857866
30
0
40
2.0000000000000906
210
0
220
0
230
1
100
AcDbArc
50
-89.99999999999838
51
0.64019361803988828
0
ARC
5
181
100
AcDbEntity
8
0
100
AcDbCircle
10
237.40366870337772
20
65.130440037857753
30
0
40
1.5000000000000213
210
0
220
-0
230
1
100
AcDbArc
50
89.999999999996746
51
180.64019361804273
0
ARC
5
182
100
AcDbEntity
8
0
100
AcDbCircle
10
244.1252366098006
20
68.130440037857767
30
0
40
1.5000000000000124
210
0
220
0
230
1
100
AcDbArc
50
270.0000000000021
51
360
0
ARC
5
183
100
AcDbEntity
8
0
100
AcDbCircle
10
247.1252366098006
20
84.180440037857721
30
0
40
1.5000000000000213
210
0
220
-0
230
1
100
AcDbArc
50
89.999999999996746
51
180
0
ARC
5
184
100
AcDbEntity
8
0
100
AcDbCircle
10
255.44452432435182
20
87.180440037857636
30
0
40
1.499999999999897
210
0
220
0
230
1
100
AcDbArc
50
-90.000000000002188
51
0
0
ARC
5
185
100
AcDbEntity
8
0
100
AcDbCircle
10
254.94452432435168
20
103.73044003785765
30
0
40
2.0000000000000995
210
0
220
-0
230
1
100
AcDbArc
50
0
51
89.99999999999919
0
LINE
5
186
100
AcDbEntity
8
0
100
AcDbLine
10
27.362736609800599
20
87.630440037857738
30
0
11
27.362736609800585
21
87.130440037857809
31
0
0
LINE
5
187
100
AcDbEntity
8
0
100
AcDbLine
10
32.125236609800602
20
83.630440037857753
30
0
11
32.125236609800602
21
84.130440037857767
31
0
0
LINE
5
188
100
AcDbEntity
8
0
100
AcDbLine
10
28.862736609800578
20
85.630440037857767
30
0
11
30.625236609800609
21
85.630440037857767
31
0
0
ARC
5
189
100
AcDbEntity
8
0
100
AcDbCircle
10
28.862736609800585
20
87.130440037857767
30
0
40
1.4999999999999991
210
0
220
0
230
1
100
AcDbArc
50
180
51
269.99999999999972
0
ARC
5
190
100
AcDbEntity
8
0
100
AcDbCircle
10
30.625236609800641
20
84.130440037857795
30
0
40
1.4999999999999636
210
0
220
0
230
1
100
AcDbArc
50
0
51
90.000000000001208
0
ENDSEC
0
SECTION
2
OBJECTS
0
DICTIONARY
5
C
100
AcDbDictionary
3
ACAD_GROUP
350
D
3
ACAD_MLINESTYLE
350
17
0
DICTIONARY
5
D
100
AcDbDictionary
0
DICTIONARY
5
1A
330
C
100
AcDbDictionary
0
DICTIONARY
5
17
100
AcDbDictionary
0
ENDSEC
0
EOF
